<svg width="37" height="36" viewBox="0 0 37 36" fill="none" xmlns="http://www.w3.org/2000/svg">
<rect x="0.5" width="36" height="36" rx="8" fill="url(#paint0_linear_730_8546)"/>
<path fill-rule="evenodd" clip-rule="evenodd" d="M13.1405 5.078C14.5267 5.01418 14.9687 5 18.5 5C22.0313 5 22.4733 5.01536 23.8584 5.078C25.2435 5.14064 26.1889 5.36164 27.0162 5.68191C27.8825 6.00927 28.6684 6.521 29.3184 7.18282C29.9802 7.83164 30.4907 8.61636 30.8169 9.48382C31.1384 10.3111 31.3582 11.2565 31.422 12.6393C31.4858 14.0279 31.5 14.4699 31.5 18C31.5 21.5313 31.4846 21.9733 31.422 23.3595C31.3594 24.7423 31.1384 25.6877 30.8169 26.515C30.4907 27.3826 29.9793 28.1686 29.3184 28.8184C28.6684 29.4802 27.8825 29.9907 27.0162 30.3169C26.1889 30.6384 25.2435 30.8582 23.8607 30.922C22.4733 30.9858 22.0313 31 18.5 31C14.9687 31 14.5267 30.9846 13.1405 30.922C11.7577 30.8594 10.8123 30.6384 9.985 30.3169C9.11745 29.9907 8.33142 29.4793 7.68164 28.8184C7.02027 28.1692 6.50846 27.3835 6.18191 26.5162C5.86164 25.6889 5.64182 24.7435 5.578 23.3607C5.51418 21.9721 5.5 21.5301 5.5 18C5.5 14.4687 5.51536 14.0267 5.578 12.6416C5.64064 11.2565 5.86164 10.3111 6.18191 9.48382C6.50895 8.61646 7.02114 7.83082 7.68282 7.18164C8.33168 6.52041 9.11692 6.00861 9.98382 5.68191C10.8111 5.36164 11.7565 5.14182 13.1393 5.078H13.1405ZM23.7532 7.418C22.3823 7.35536 21.971 7.34236 18.5 7.34236C15.029 7.34236 14.6177 7.35536 13.2468 7.418C11.9787 7.47591 11.2909 7.68745 10.8324 7.86591C10.2261 8.10227 9.79236 8.38236 9.33736 8.83736C8.90605 9.25697 8.57412 9.76779 8.36591 10.3324C8.18745 10.7909 7.97591 11.4787 7.918 12.7468C7.85536 14.1177 7.84236 14.529 7.84236 18C7.84236 21.471 7.85536 21.8823 7.918 23.2532C7.97591 24.5213 8.18745 25.2091 8.36591 25.6676C8.57391 26.2314 8.906 26.7431 9.33736 27.1626C9.75691 27.594 10.2686 27.9261 10.8324 28.1341C11.2909 28.3125 11.9787 28.5241 13.2468 28.582C14.6177 28.6446 15.0278 28.6576 18.5 28.6576C21.9722 28.6576 22.3823 28.6446 23.7532 28.582C25.0213 28.5241 25.7091 28.3125 26.1676 28.1341C26.7739 27.8977 27.2076 27.6176 27.6626 27.1626C28.094 26.7431 28.4261 26.2314 28.6341 25.6676C28.8125 25.2091 29.0241 24.5213 29.082 23.2532C29.1446 21.8823 29.1576 21.471 29.1576 18C29.1576 14.529 29.1446 14.1177 29.082 12.7468C29.0241 11.4787 28.8125 10.7909 28.6341 10.3324C28.3977 9.72609 28.1176 9.29236 27.6626 8.83736C27.243 8.40608 26.7322 8.07416 26.1676 7.86591C25.7091 7.68745 25.0213 7.47591 23.7532 7.418V7.418ZM16.8395 22.0075C17.7669 22.3936 18.7994 22.4457 19.7609 22.1549C20.7224 21.8642 21.5531 21.2487 22.1112 20.4136C22.6692 19.5784 22.9201 18.5754 22.8208 17.5759C22.7215 16.5763 22.2783 15.6422 21.5668 14.9332C21.1133 14.4799 20.5649 14.1329 19.9611 13.917C19.3574 13.7011 18.7132 13.6218 18.0751 13.6847C17.437 13.7477 16.8208 13.9513 16.2709 14.281C15.7209 14.6106 15.2509 15.0582 14.8946 15.5913C14.5384 16.1244 14.3048 16.7299 14.2106 17.3641C14.1165 17.9984 14.1641 18.6456 14.3501 19.2592C14.5361 19.8729 14.8558 20.4376 15.2863 20.9129C15.7168 21.3881 16.2472 21.7619 16.8395 22.0075ZM13.7751 13.2751C14.3956 12.6546 15.1322 12.1624 15.9429 11.8266C16.7536 11.4908 17.6225 11.318 18.5 11.318C19.3775 11.318 20.2464 11.4908 21.0571 11.8266C21.8678 12.1624 22.6044 12.6546 23.2249 13.2751C23.8454 13.8956 24.3376 14.6322 24.6734 15.4429C25.0092 16.2536 25.182 17.1225 25.182 18C25.182 18.8775 25.0092 19.7464 24.6734 20.5571C24.3376 21.3678 23.8454 22.1044 23.2249 22.7249C21.9718 23.978 20.2722 24.682 18.5 24.682C16.7278 24.682 15.0282 23.978 13.7751 22.7249C12.522 21.4718 11.818 19.7722 11.818 18C11.818 16.2278 12.522 14.5282 13.7751 13.2751V13.2751ZM26.664 12.3131C26.8178 12.168 26.9409 11.9936 27.026 11.8002C27.1111 11.6067 27.1566 11.3981 27.1597 11.1867C27.1628 10.9754 27.1234 10.7656 27.0439 10.5697C26.9645 10.3738 26.8465 10.1959 26.697 10.0464C26.5476 9.89694 26.3696 9.77899 26.1738 9.69952C25.9779 9.62006 25.7681 9.5807 25.5567 9.58378C25.3454 9.58686 25.1368 9.63232 24.9433 9.71746C24.7498 9.8026 24.5754 9.92569 24.4304 10.0795C24.1483 10.3785 23.9938 10.7757 23.9998 11.1867C24.0058 11.5978 24.1718 11.9903 24.4625 12.281C24.7531 12.5717 25.1457 12.7376 25.5567 12.7436C25.9678 12.7496 26.365 12.5952 26.664 12.3131V12.3131Z" fill="white"/>
<defs>
<linearGradient id="paint0_linear_730_8546" x1="0.5" y1="13.3282" x2="36.5196" y2="13.4899" gradientUnits="userSpaceOnUse">
<stop stop-color="#214F89"/>
<stop offset="1" stop-color="#12BCAB"/>
</linearGradient>
</defs>
</svg>
