<svg width="37" height="36" viewBox="0 0 37 36" fill="none" xmlns="http://www.w3.org/2000/svg">
<rect x="0.5" width="36" height="36" rx="8" fill="url(#paint0_linear_730_8543)"/>
<path d="M31.5 17.9138C31.5 17.8461 31.5 17.7692 31.497 17.6799C31.494 17.4306 31.4879 17.1505 31.4819 16.852C31.4578 15.9932 31.4156 15.1376 31.3493 14.3312C31.2589 13.2201 31.1263 12.2936 30.9455 11.598C30.7547 10.8721 30.3807 10.2101 29.8609 9.67804C29.3411 9.14603 28.6937 8.76268 27.9834 8.56633C27.1306 8.33241 25.4612 8.18775 23.1107 8.09849C21.9927 8.0554 20.7964 8.0277 19.6001 8.01231C19.1812 8.00616 18.7925 8.00308 18.443 8H17.557C17.2075 8.00308 16.8187 8.00616 16.3999 8.01231C15.2036 8.0277 14.0073 8.0554 12.8893 8.09849C10.5388 8.19083 8.86641 8.33549 8.01663 8.56633C7.30607 8.7622 6.6584 9.14538 6.13851 9.67747C5.61863 10.2096 5.24479 10.8719 5.05446 11.598C4.87065 12.2936 4.74107 13.2201 4.65067 14.3312C4.58437 15.1376 4.54219 15.9932 4.51808 16.852C4.50904 17.1505 4.50603 17.4306 4.50301 17.6799C4.50301 17.7692 4.5 17.8461 4.5 17.9138V18.0862C4.5 18.1539 4.5 18.2308 4.50301 18.3201C4.50603 18.5694 4.51205 18.8495 4.51808 19.148C4.54219 20.0068 4.58437 20.8624 4.65067 21.6688C4.74107 22.7799 4.87366 23.7064 5.05446 24.402C5.44018 25.8763 6.57321 27.0397 8.01663 27.4337C8.86641 27.6676 10.5388 27.8122 12.8893 27.9015C14.0073 27.9446 15.2036 27.9723 16.3999 27.9877C16.8187 27.9938 17.2075 27.9969 17.557 28H18.443C18.7925 27.9969 19.1812 27.9938 19.6001 27.9877C20.7964 27.9723 21.9927 27.9446 23.1107 27.9015C25.4612 27.8092 27.1336 27.6645 27.9834 27.4337C29.4268 27.0397 30.5598 25.8793 30.9455 24.402C31.1293 23.7064 31.2589 22.7799 31.3493 21.6688C31.4156 20.8624 31.4578 20.0068 31.4819 19.148C31.491 18.8495 31.494 18.5694 31.497 18.3201C31.497 18.2308 31.5 18.1539 31.5 18.0862V17.9138ZM29.3304 18.0739C29.3304 18.1385 29.3304 18.2093 29.3273 18.2924C29.3243 18.5325 29.3183 18.7972 29.3123 19.0834C29.2912 19.9021 29.249 20.7208 29.1857 21.4811C29.1044 22.4721 28.9898 23.2847 28.8482 23.8295C28.6614 24.5405 28.1129 25.1037 27.4199 25.2915C26.7871 25.4638 25.193 25.6023 23.0263 25.6854C21.9295 25.7285 20.7482 25.7562 19.57 25.7716C19.1571 25.7778 18.7744 25.7809 18.4309 25.7809H17.5691L16.43 25.7716C15.2518 25.7562 14.0735 25.7285 12.9737 25.6854C10.807 25.5993 9.20993 25.4638 8.58013 25.2915C7.88705 25.1006 7.33862 24.5405 7.15179 23.8295C7.01016 23.2847 6.89565 22.4721 6.81429 21.4811C6.751 20.7208 6.71183 19.9021 6.68772 19.0834C6.67868 18.7972 6.67567 18.5294 6.67266 18.2924C6.67266 18.2093 6.66964 18.1354 6.66964 18.0739V17.9261C6.66964 17.8615 6.66964 17.7907 6.67266 17.7076C6.67567 17.4675 6.6817 17.2028 6.68772 16.9166C6.70882 16.0979 6.751 15.2792 6.81429 14.5189C6.89565 13.5279 7.01016 12.7153 7.15179 12.1705C7.33862 11.4595 7.88705 10.8963 8.58013 10.7085C9.21295 10.5362 10.807 10.3977 12.9737 10.3146C14.0705 10.2715 15.2518 10.2438 16.43 10.2284C16.8429 10.2222 17.2256 10.2191 17.5691 10.2191H18.4309L19.57 10.2284C20.7482 10.2438 21.9264 10.2715 23.0263 10.3146C25.193 10.4007 26.7901 10.5362 27.4199 10.7085C28.1129 10.8994 28.6614 11.4595 28.8482 12.1705C28.9898 12.7153 29.1044 13.5279 29.1857 14.5189C29.249 15.2792 29.2882 16.0979 29.3123 16.9166C29.3213 17.2028 29.3243 17.4706 29.3273 17.7076C29.3273 17.7907 29.3304 17.8646 29.3304 17.9261V18.0739ZM15.3181 22.1243L22.3092 17.9692L15.3181 13.8757V22.1243Z" fill="white"/>
<defs>
<linearGradient id="paint0_linear_730_8543" x1="0.5" y1="13.3282" x2="36.5196" y2="13.4899" gradientUnits="userSpaceOnUse">
<stop stop-color="#214F89"/>
<stop offset="1" stop-color="#12BCAB"/>
</linearGradient>
</defs>
</svg>
