<svg width="64" height="64" viewBox="0 0 64 64" fill="none" xmlns="http://www.w3.org/2000/svg">
<g clip-path="url(#clip0_1069_9378)">
<path d="M29.2535 17.0059H42.0281C42.3698 17.0062 42.7052 16.9142 42.9989 16.7396C43.2925 16.565 43.5336 16.3143 43.6966 16.014L44.3166 14.8727C44.474 14.5834 44.5535 14.2583 44.5473 13.929C44.541 13.5998 44.4492 13.2779 44.2809 12.9949C44.1126 12.7118 43.8736 12.4774 43.5874 12.3147C43.3011 12.152 42.9775 12.0665 42.6482 12.0667H31.8593C31.5175 12.0666 31.1821 12.1587 30.8883 12.3333C30.5945 12.5078 30.3532 12.7584 30.1898 13.0585L28.622 15.9441C28.5622 16.0535 28.532 16.1766 28.5343 16.3013C28.5366 16.426 28.5713 16.5479 28.635 16.655C28.6988 16.7622 28.7893 16.8509 28.8978 16.9125C29.0062 16.974 29.1289 17.0062 29.2535 17.0059ZM31.4529 13.7476C31.4927 13.6745 31.5514 13.6136 31.6229 13.5711C31.6944 13.5286 31.7761 13.5061 31.8593 13.5061H42.6482C42.7282 13.506 42.8068 13.5267 42.8763 13.5662C42.9459 13.6057 43.004 13.6626 43.0449 13.7314C43.0857 13.8001 43.1081 13.8783 43.1096 13.9583C43.1111 14.0382 43.0918 14.1172 43.0535 14.1875L42.4335 15.325C42.3939 15.3979 42.3353 15.4588 42.264 15.5011C42.1926 15.5435 42.1111 15.5657 42.0281 15.5655H30.4668L31.4529 13.7476Z" fill="url(#paint0_linear_1069_9378)"/>
<path d="M22.4318 12.888C22.2028 12.5209 21.4265 11.1419 21.4227 11.1352C21.3383 10.9876 21.2256 10.8581 21.0912 10.7542C20.9567 10.6502 20.803 10.5738 20.639 10.5293C20.4749 10.4848 20.3037 10.4731 20.1351 10.4948C19.9665 10.5166 19.8039 10.5713 19.6565 10.656L15.229 13.2167C14.9333 13.3891 14.7178 13.6715 14.6297 14.0022C14.5415 14.333 14.5878 14.6852 14.7584 14.9819L15.7168 16.6465C15.8457 16.8804 16.0439 17.0687 16.2842 17.1854C16.5244 17.3021 16.7949 17.3415 17.0584 17.2982L17.1169 17.2848C17.4188 17.8109 17.9794 18.7769 18.3455 19.4085L16.9109 20.384C16.4882 20.6704 16.1422 21.056 15.9031 21.5071C15.664 21.9582 15.5392 22.461 15.5395 22.9715V52.0857C15.5395 52.8573 15.8455 53.5974 16.3903 54.1437C16.9352 54.69 17.6745 54.998 18.4461 55H46.4984C47.2711 54.9992 48.012 54.692 48.5583 54.1456C49.1047 53.5992 49.412 52.8584 49.4127 52.0857V11.9066C49.411 11.135 49.1031 10.3955 48.5567 9.85058C48.0104 9.30565 47.2701 8.99974 46.4984 9H29.0453C28.6431 9.00106 28.2481 9.10621 27.8986 9.30521C27.5491 9.50422 27.2571 9.7903 27.051 10.1356L23.715 15.7898L23.2502 16.1041L22.2315 14.335C22.4028 14.1841 22.5252 13.9856 22.5832 13.7648C22.6204 13.6162 22.6261 13.4614 22.6 13.3104C22.574 13.1594 22.5167 13.0155 22.4318 12.888ZM24.8708 16.6571L28.2882 10.8678C28.3666 10.7369 28.4775 10.6285 28.6102 10.5532C28.7428 10.4778 28.8927 10.4379 29.0453 10.4375H46.4984C46.8889 10.437 47.2637 10.5914 47.5405 10.8668C47.8174 11.1422 47.9737 11.5161 47.9752 11.9066V52.0857C47.975 52.4773 47.8193 52.8528 47.5424 53.1297C47.2655 53.4066 46.89 53.5622 46.4984 53.5625H18.4461C18.0556 53.561 17.6817 53.4047 17.4063 53.1278C17.1308 52.851 16.9765 52.4762 16.977 52.0857V22.9696C16.9774 22.694 17.0454 22.4226 17.1751 22.1794C17.3047 21.9361 17.4921 21.7283 17.7207 21.5743L24.6532 16.8871C24.7418 16.8274 24.8161 16.7489 24.8708 16.6571ZM17.3373 15.7821C17.1961 15.7832 17.0556 15.8029 16.9195 15.8406L16.0771 14.3887L20.2478 11.9775C20.4164 12.2756 20.8276 13.002 21.0767 13.4237C20.8867 13.5758 20.7552 13.7891 20.7046 14.0271C20.6539 14.2652 20.6872 14.5135 20.7988 14.7299L22.0562 16.9062L19.5472 18.6006C18.954 17.5771 18.2631 16.384 18.1998 16.2632C18.1164 16.1096 17.991 15.9828 17.8383 15.8976C17.6856 15.8124 17.5119 15.7724 17.3373 15.7821Z" fill="url(#paint1_linear_1069_9378)"/>
<path d="M25.6231 46.3424C25.6856 46.3592 25.75 46.3679 25.8147 46.3683C25.9881 46.3676 26.1554 46.3043 26.2857 46.19C26.4161 46.0757 26.5007 45.9181 26.5241 45.7463C26.5474 45.5745 26.5079 45.4001 26.4127 45.2551C26.3176 45.1102 26.1733 45.0045 26.0064 44.9576C25.3282 44.7738 24.7154 44.403 24.2378 43.8875C23.7603 43.372 23.4373 42.7326 23.3058 42.0424C22.9647 40.2388 22.9436 37.9302 25.3739 34.4859C29.0367 29.2946 36.0334 27.8245 39.3301 27.4134C38.0985 28.862 37.1552 30.5326 36.551 32.3354C36.3296 33.1414 36.1552 33.9596 36.0287 34.7859C35.8103 36.2759 35.4562 37.7428 34.9707 39.1683C34.9038 39.3469 34.9106 39.5447 34.9896 39.7182C35.0686 39.8917 35.2133 40.0268 35.3918 40.0936C35.5704 40.1604 35.7682 40.1536 35.9417 40.0746C36.1152 39.9956 36.2503 39.851 36.3171 39.6724C36.8355 38.165 37.2134 36.613 37.446 35.036C37.5639 34.2678 37.7239 33.5067 37.9252 32.7561C38.7008 30.6039 39.9586 28.6577 41.6023 27.0665C41.7092 26.9674 41.7835 26.8382 41.8153 26.696C41.8471 26.5538 41.8349 26.4052 41.7803 26.2701C41.7257 26.135 41.6313 26.0196 41.5097 25.9394C41.3881 25.8591 41.2449 25.8177 41.0992 25.8207C40.6287 25.8312 29.4938 26.1513 24.199 33.6579C21.4591 37.5401 21.4955 40.211 21.8923 42.3117C22.0732 43.2659 22.5191 44.15 23.1788 44.8628C23.8386 45.5756 24.6856 46.0884 25.6231 46.3424Z" fill="url(#paint2_linear_1069_9378)"/>
<path d="M34.7608 31.6454C34.9169 31.5384 35.0245 31.3741 35.0602 31.1882C35.0958 31.0023 35.0568 30.8098 34.9514 30.6525C34.846 30.4953 34.6828 30.386 34.4973 30.3483C34.3118 30.3106 34.119 30.3477 33.9606 30.4513C31.6266 32.1077 29.5734 34.1277 27.879 36.4342C26.6865 38.0367 25.6457 39.7467 24.7702 41.5421C24.7315 41.6283 24.7101 41.7212 24.7073 41.8156C24.7046 41.91 24.7204 42.004 24.7539 42.0923C24.7875 42.1806 24.8381 42.2614 24.9029 42.3301C24.9677 42.3988 25.0453 42.4541 25.1315 42.4928C25.3055 42.571 25.5034 42.5768 25.6816 42.509C25.7699 42.4755 25.8507 42.4249 25.9194 42.3601C25.9882 42.2953 26.0434 42.2177 26.0821 42.1315C26.9166 40.4259 27.9072 38.8013 29.0415 37.2785C30.6426 35.1142 32.5724 33.2135 34.7608 31.6454Z" fill="url(#paint3_linear_1069_9378)"/>
<path d="M39.676 42.7515C39.0695 42.7515 38.4766 42.9314 37.9723 43.2684C37.468 43.6053 37.0749 44.0843 36.8428 44.6446C36.6107 45.205 36.55 45.8216 36.6683 46.4165C36.7866 47.0114 37.0787 47.5578 37.5076 47.9867C37.9365 48.4155 38.4829 48.7076 39.0778 48.8259C39.6726 48.9443 40.2892 48.8835 40.8496 48.6514C41.41 48.4193 41.8889 48.0263 42.2259 47.522C42.5629 47.0176 42.7427 46.4247 42.7427 45.8182C42.7427 45.4155 42.6634 45.0167 42.5093 44.6446C42.3552 44.2726 42.1293 43.9345 41.8445 43.6497C41.5597 43.365 41.2217 43.1391 40.8496 42.985C40.4775 42.8309 40.0788 42.7515 39.676 42.7515ZM39.676 47.4378C39.3538 47.4378 39.0388 47.3422 38.7709 47.1632C38.503 46.9842 38.2942 46.7298 38.1709 46.4321C38.0476 46.1344 38.0153 45.8068 38.0782 45.4908C38.141 45.1748 38.2962 44.8845 38.524 44.6566C38.7519 44.4288 39.0422 44.2736 39.3582 44.2108C39.6742 44.1479 40.0018 44.1802 40.2995 44.3035C40.5972 44.4268 40.8516 44.6356 41.0306 44.9035C41.2097 45.1714 41.3052 45.4864 41.3052 45.8086C41.3052 46.2407 41.1336 46.6551 40.828 46.9606C40.5225 47.2661 40.1081 47.4378 39.676 47.4378Z" fill="url(#paint4_linear_1069_9378)"/>
<path d="M35.1694 42.7515C34.9788 42.7515 34.796 42.8273 34.6612 42.9621C34.5264 43.0968 34.4507 43.2797 34.4507 43.4703V48.0818C34.4507 48.2724 34.5264 48.4552 34.6612 48.59C34.796 48.7248 34.9788 48.8005 35.1694 48.8005C35.3601 48.8005 35.5429 48.7248 35.6777 48.59C35.8125 48.4552 35.8882 48.2724 35.8882 48.0818V43.4703C35.8882 43.2797 35.8125 43.0968 35.6777 42.9621C35.5429 42.8273 35.3601 42.7515 35.1694 42.7515Z" fill="url(#paint5_linear_1069_9378)"/>
<path d="M35.1694 40.9048C34.9779 40.9071 34.7949 40.9849 34.6603 41.1212C34.5258 41.2576 34.4504 41.4416 34.4507 41.6332C34.4507 41.8238 34.5264 42.0066 34.6612 42.1414C34.796 42.2762 34.9788 42.3519 35.1694 42.3519C35.3601 42.3519 35.5429 42.2762 35.6777 42.1414C35.8125 42.0066 35.8882 41.8238 35.8882 41.6332V41.613C35.8879 41.5192 35.8691 41.4264 35.8328 41.3399C35.7964 41.2534 35.7433 41.1749 35.6765 41.1091C35.6096 41.0432 35.5304 40.9913 35.4434 40.9562C35.3564 40.9212 35.2633 40.9037 35.1694 40.9048Z" fill="url(#paint6_linear_1069_9378)"/>
<path d="M31.291 40.9738H28.416C28.2254 40.9738 28.0426 41.0496 27.9078 41.1844C27.773 41.3191 27.6973 41.502 27.6973 41.6926V48.0818C27.6973 48.2724 27.773 48.4552 27.9078 48.59C28.0426 48.7248 28.2254 48.8005 28.416 48.8005H31.291C31.7444 48.801 32.188 48.6683 32.5667 48.4189C32.9453 48.1694 33.2424 47.8143 33.4209 47.3975C33.5994 46.9807 33.6516 46.5206 33.5709 46.0744C33.4903 45.6282 33.2803 45.2156 32.9671 44.8877C33.2802 44.5596 33.49 44.1469 33.5706 43.7007C33.6512 43.2545 33.599 42.7945 33.4205 42.3777C33.242 41.9609 32.9451 41.6056 32.5665 41.3561C32.1879 41.1065 31.7444 40.9736 31.291 40.9738ZM31.291 47.363H29.1328V45.6083H31.291C31.4088 45.6044 31.5262 45.6243 31.6361 45.6667C31.7461 45.7091 31.8464 45.7731 31.9311 45.8551C32.0158 45.937 32.0831 46.0352 32.1291 46.1437C32.1751 46.2522 32.1988 46.3688 32.1988 46.4866C32.1988 46.6045 32.1751 46.7211 32.1291 46.8296C32.0831 46.9381 32.0158 47.0363 31.9311 47.1182C31.8464 47.2002 31.7461 47.2642 31.6361 47.3066C31.5262 47.349 31.4088 47.3689 31.291 47.365V47.363ZM31.291 44.1689H29.1328V42.4113H31.291C31.5241 42.4113 31.7476 42.5039 31.9124 42.6687C32.0772 42.8335 32.1698 43.0571 32.1698 43.2901C32.1698 43.5232 32.0772 43.7467 31.9124 43.9115C31.7476 44.0763 31.5241 44.1689 31.291 44.1689Z" fill="url(#paint7_linear_1069_9378)"/>
</g>
<rect x="0.587156" y="-0.587156" width="62.8257" height="62.8257" rx="8.80734" transform="matrix(1 0 0 -1 0 62.8257)" stroke="url(#paint8_linear_1069_9378)" stroke-width="1.17431"/>
<defs>
<linearGradient id="paint0_linear_1069_9378" x1="28.5342" y1="13.8953" x2="44.5533" y2="14.1284" gradientUnits="userSpaceOnUse">
<stop stop-color="#214F89"/>
<stop offset="1" stop-color="#12BCAB"/>
</linearGradient>
<linearGradient id="paint1_linear_1069_9378" x1="14.5859" y1="26.0305" x2="49.432" y2="26.1489" gradientUnits="userSpaceOnUse">
<stop stop-color="#214F89"/>
<stop offset="1" stop-color="#12BCAB"/>
</linearGradient>
<linearGradient id="paint2_linear_1069_9378" x1="21.6968" y1="33.4279" x2="41.8436" y2="33.5165" gradientUnits="userSpaceOnUse">
<stop stop-color="#214F89"/>
<stop offset="1" stop-color="#12BCAB"/>
</linearGradient>
<linearGradient id="paint3_linear_1069_9378" x1="24.707" y1="34.8589" x2="35.0788" y2="34.8984" gradientUnits="userSpaceOnUse">
<stop stop-color="#214F89"/>
<stop offset="1" stop-color="#12BCAB"/>
</linearGradient>
<linearGradient id="paint4_linear_1069_9378" x1="36.6094" y1="45.0223" x2="42.7461" y2="45.0498" gradientUnits="userSpaceOnUse">
<stop stop-color="#214F89"/>
<stop offset="1" stop-color="#12BCAB"/>
</linearGradient>
<linearGradient id="paint5_linear_1069_9378" x1="34.4507" y1="44.9911" x2="35.889" y2="44.9926" gradientUnits="userSpaceOnUse">
<stop stop-color="#214F89"/>
<stop offset="1" stop-color="#12BCAB"/>
</linearGradient>
<linearGradient id="paint6_linear_1069_9378" x1="34.4507" y1="41.4406" x2="35.889" y2="41.447" gradientUnits="userSpaceOnUse">
<stop stop-color="#214F89"/>
<stop offset="1" stop-color="#12BCAB"/>
</linearGradient>
<linearGradient id="paint7_linear_1069_9378" x1="27.6973" y1="43.8715" x2="33.6111" y2="43.8915" gradientUnits="userSpaceOnUse">
<stop stop-color="#214F89"/>
<stop offset="1" stop-color="#12BCAB"/>
</linearGradient>
<linearGradient id="paint8_linear_1069_9378" x1="-9.95479e-09" y1="23.6946" x2="64.0349" y2="23.982" gradientUnits="userSpaceOnUse">
<stop stop-color="#214F89"/>
<stop offset="1" stop-color="#12BCAB"/>
</linearGradient>
<clipPath id="clip0_1069_9378">
<rect width="46" height="46" fill="white" transform="translate(9 9)"/>
</clipPath>
</defs>
</svg>
