<svg width="64" height="64" viewBox="0 0 64 64" fill="none" xmlns="http://www.w3.org/2000/svg">
<g clip-path="url(#clip0_1087_777)">
<path d="M30.847 23.125H30.9118C32.9923 22.9711 35.0573 22.6537 37.0879 22.1756C37.4894 22.071 37.7309 21.6617 37.6284 21.2597C37.5259 20.8576 37.118 20.6139 36.7154 20.7142C34.765 21.1711 32.7816 21.4737 30.7836 21.6191C30.3672 21.6366 30.0437 21.9884 30.0612 22.4049C30.0787 22.8213 30.4305 23.1448 30.847 23.1273V23.125Z" fill="url(#paint0_linear_1087_777)"/>
<path d="M12.7707 18.4263C13.1872 18.4263 13.5248 18.0887 13.5248 17.6722C13.5248 17.2557 13.1872 16.9181 12.7707 16.9181C12.3542 16.9181 12.0166 17.2557 12.0166 17.6722C12.0166 18.0887 12.3542 18.4263 12.7707 18.4263Z" fill="url(#paint1_linear_1087_777)"/>
<path d="M12.7707 19.9344C12.3542 19.9344 12.0166 20.2721 12.0166 20.6885V22.1967C12.0166 22.6132 12.3542 22.9508 12.7707 22.9508C13.1872 22.9508 13.5248 22.6132 13.5248 22.1967V20.6885C13.5248 20.2721 13.1872 19.9344 12.7707 19.9344Z" fill="url(#paint2_linear_1087_777)"/>
<path d="M12.7707 28.2295C13.1872 28.2295 13.5248 27.8919 13.5248 27.4754C13.5248 27.0589 13.1872 26.7213 12.7707 26.7213C12.3542 26.7213 12.0166 27.0589 12.0166 27.4754C12.0166 27.8919 12.3542 28.2295 12.7707 28.2295Z" fill="url(#paint3_linear_1087_777)"/>
<path d="M12.7707 29.7377C12.3542 29.7377 12.0166 30.0753 12.0166 30.4918V32C12.0166 32.4164 12.3542 32.7541 12.7707 32.7541C13.1872 32.7541 13.5248 32.4164 13.5248 32V30.4918C13.5248 30.0753 13.1872 29.7377 12.7707 29.7377Z" fill="url(#paint4_linear_1087_777)"/>
<path d="M12.7707 38.0329C13.1872 38.0329 13.5248 37.6952 13.5248 37.2788C13.5248 36.8623 13.1872 36.5247 12.7707 36.5247C12.3542 36.5247 12.0166 36.8623 12.0166 37.2788C12.0166 37.6952 12.3542 38.0329 12.7707 38.0329Z" fill="url(#paint5_linear_1087_777)"/>
<path d="M12.7707 39.541C12.3542 39.541 12.0166 39.8786 12.0166 40.2951V41.8033C12.0166 42.2198 12.3542 42.5574 12.7707 42.5574C13.1872 42.5574 13.5248 42.2198 13.5248 41.8033V40.2951C13.5248 39.8786 13.1872 39.541 12.7707 39.541Z" fill="url(#paint6_linear_1087_777)"/>
<path d="M48.1505 37.6663C47.4764 33.7907 44.5179 30.7119 40.6721 29.884V13.1476C40.6721 9.42006 25.4823 9.37708 24.8361 9.37708C24.1898 9.37708 9 9.42006 9 13.1476V43.3115C9 44.8536 11.5504 45.9554 16.5727 46.5918C16.5523 46.8241 16.541 47.0594 16.541 47.2969C16.541 51.3366 19.5936 54.623 23.3452 54.623H46.3181C50.713 54.623 54.2889 50.7688 54.2889 46.0263C54.394 42.1642 51.8669 38.7225 48.1505 37.6663ZM39.1217 29.7377C36.1011 29.762 33.2953 31.3043 31.6561 33.8415C29.7235 33.4302 27.7071 33.8521 26.1014 35.0036C25.6867 35.0096 25.2659 35.0164 24.8361 35.0164C15.9528 35.0164 10.8852 33.558 10.5082 32.7307V24.732C14.3609 26.6919 24.315 26.7213 24.8361 26.7213C25.3571 26.7213 35.3112 26.6919 39.1639 24.732V29.7377C39.1496 29.7377 39.136 29.7377 39.1217 29.7377ZM39.1639 22.9222C38.8065 23.7479 33.7382 25.2131 24.8361 25.2131C15.9098 25.2131 10.8362 23.7396 10.5082 22.9508V14.9287C14.3609 16.8886 24.315 16.9181 24.8361 16.9181C25.3571 16.9181 35.3112 16.8886 39.1639 14.9287V22.9222ZM24.8361 10.8853C33.6326 10.8853 38.6889 12.3181 39.1519 13.1476C38.6889 13.9771 33.6326 15.4099 24.8361 15.4099C15.9377 15.4099 10.8656 13.9446 10.5082 13.1906V13.1762C10.8656 12.3505 15.9377 10.8853 24.8361 10.8853ZM10.5082 43.2874V34.5353C14.0223 36.3233 22.6077 36.505 24.4847 36.5246C23.6707 37.5361 23.1049 38.7241 22.8324 39.9935C19.973 40.296 17.5961 42.3301 16.8554 45.1085C12.1235 44.5128 10.659 43.5935 10.5082 43.2874ZM46.3181 53.1148H23.3452C20.4246 53.1148 18.0492 50.5048 18.0492 47.2969C18.0492 44.089 20.4246 41.479 23.3452 41.479H23.4538H23.4681C23.8445 41.4788 24.1631 41.2011 24.2147 40.8283C24.6589 37.6165 27.2311 35.1944 30.1924 35.1944C30.7329 35.1944 31.2705 35.2734 31.7881 35.4289C32.1202 35.5285 32.4774 35.3888 32.6538 35.0903C33.9699 32.7471 36.4344 31.2822 39.1217 31.2459C42.8922 31.2459 46.171 34.3219 46.7441 38.4001C46.7892 38.7231 47.0369 38.9805 47.358 39.038C50.5003 39.5976 52.7807 42.5385 52.7807 46.03C52.7807 49.937 49.8819 53.1148 46.3181 53.1148Z" fill="url(#paint7_linear_1087_777)"/>
<path d="M41.7165 46.8757C41.5225 46.875 41.3309 46.8333 41.1541 46.7534C40.9774 46.6734 40.8196 46.5569 40.691 46.4116C40.5625 46.2663 40.4661 46.0955 40.4083 45.9103C40.3504 45.7252 40.3324 45.5299 40.3554 45.3372C40.3934 44.9278 40.7173 44.3039 41.438 43.2515C41.4707 43.2087 41.5128 43.174 41.5611 43.1502C41.6094 43.1263 41.6625 43.1139 41.7164 43.1139C41.7702 43.1139 41.8234 43.1263 41.8717 43.1502C41.9199 43.174 41.9621 43.2087 41.9948 43.2515C42.7155 44.3039 43.0393 44.9278 43.0774 45.3369C43.1004 45.5296 43.0824 45.7249 43.0246 45.9101C42.9668 46.0953 42.8705 46.2661 42.742 46.4114C42.6134 46.5568 42.4556 46.6732 42.2789 46.7532C42.1022 46.8333 41.9105 46.875 41.7165 46.8757ZM41.7162 43.862C41.4136 44.3167 40.9578 45.0433 40.9259 45.3901C40.9095 45.5035 40.9177 45.619 40.95 45.7289C40.9822 45.8388 41.0377 45.9405 41.1127 46.0271C41.1877 46.1137 41.2804 46.1831 41.3846 46.2307C41.4888 46.2783 41.602 46.3029 41.7165 46.3029C41.8311 46.3029 41.9443 46.2782 42.0485 46.2306C42.1526 46.183 42.2453 46.1135 42.3203 46.0269C42.3953 45.9403 42.4507 45.8386 42.4829 45.7287C42.5151 45.6187 42.5233 45.5032 42.5068 45.3898C42.475 45.0433 42.0194 44.3167 41.7162 43.862Z" fill="url(#paint8_linear_1087_777)"/>
<path d="M40.285 38.2064H39.2013C38.7458 38.2069 38.309 38.388 37.9869 38.7102C37.6648 39.0323 37.4836 39.4691 37.4831 39.9246V50.5717C37.4828 50.8755 37.362 51.1666 37.1472 51.3814C36.9325 51.5962 36.6413 51.7169 36.3376 51.7173H34.2088C33.905 51.7169 33.6139 51.5962 33.3991 51.3814C33.1843 51.1666 33.0636 50.8755 33.0632 50.5717V49.1513H33.1807C33.3326 49.1511 33.4781 49.0907 33.5855 48.9833C33.6929 48.876 33.7533 48.7304 33.7535 48.5786V47.9314H34.5472C35.0786 47.9308 35.5881 47.7194 35.9639 47.3436C36.3397 46.9678 36.5511 46.4583 36.5518 45.9268V39.5183C36.5511 38.9868 36.3397 38.4773 35.9639 38.1015C35.5881 37.7257 35.0786 37.5143 34.5472 37.5136H34.0656V37.3704C34.0653 37.1415 33.9743 36.9219 33.8124 36.76C33.6505 36.5981 33.4309 36.5071 33.202 36.5068H32.3521C32.1231 36.5071 31.9035 36.5981 31.7415 36.76C31.5796 36.9219 31.4885 37.1414 31.4882 37.3704V37.5136H31.0066C30.4751 37.5143 29.9656 37.7257 29.5898 38.1015C29.214 38.4773 29.0026 38.9868 29.002 39.5183V45.9268C29.0026 46.4583 29.214 46.9678 29.5898 47.3436C29.9656 47.7194 30.4751 47.9308 31.0066 47.9314H31.8006V48.5786C31.8008 48.7304 31.8612 48.876 31.9685 48.9834C32.0759 49.0907 32.2215 49.1511 32.3733 49.1513H32.4905V50.5718C32.491 51.0273 32.6722 51.4641 32.9943 51.7862C33.3164 52.1083 33.7532 52.2895 34.2088 52.29H36.3376C36.7931 52.2895 37.2299 52.1083 37.552 51.7862C37.8741 51.4641 38.0553 51.0273 38.0558 50.5718V39.9246C38.0561 39.6209 38.1769 39.3297 38.3917 39.115C38.6064 38.9002 38.8976 38.7794 39.2013 38.7791H40.285C40.5888 38.7794 40.8799 38.9002 41.0947 39.115C41.3095 39.3297 41.4302 39.6209 41.4305 39.9246V42.1267C41.4305 42.2026 41.4607 42.2755 41.5144 42.3292C41.5681 42.3829 41.641 42.4131 41.7169 42.4131C41.7929 42.4131 41.8657 42.3829 41.9194 42.3292C41.9731 42.2755 42.0033 42.2026 42.0033 42.1267V39.9246C42.0028 39.4691 41.8216 39.0323 41.4995 38.7102C41.1774 38.388 40.7406 38.2069 40.285 38.2064ZM32.0609 37.3704C32.0611 37.2933 32.0918 37.2194 32.1464 37.1648C32.201 37.1103 32.2749 37.0797 32.3521 37.0796H33.202C33.2791 37.0797 33.353 37.1104 33.4075 37.1649C33.462 37.2194 33.4927 37.2933 33.4928 37.3704V37.5136H32.0609V37.3704ZM31.0066 38.0864H34.5472C34.8278 38.0867 35.1022 38.1694 35.3363 38.3242C35.5703 38.479 35.7539 38.6991 35.864 38.9573H29.6897C29.7999 38.6991 29.9834 38.479 30.2175 38.3242C30.4516 38.1694 30.7259 38.0867 31.0066 38.0864ZM29.5747 45.9268V39.53H35.979V45.9268C35.9786 46.3064 35.8276 46.6704 35.5592 46.9388C35.2907 47.2072 34.9268 47.3582 34.5472 47.3587H31.0066C30.627 47.3582 30.263 47.2072 29.9946 46.9388C29.7262 46.6704 29.5752 46.3064 29.5747 45.9268ZM32.3733 47.9314H33.1807V48.5786H32.3733V47.9314Z" fill="url(#paint9_linear_1087_777)"/>
<path d="M32.7774 46.0688C32.5489 46.068 32.3231 46.0189 32.115 45.9246C31.9069 45.8303 31.721 45.6931 31.5697 45.5218C31.4185 45.3506 31.3051 45.1493 31.2372 44.9311C31.1693 44.7129 31.1483 44.4829 31.1757 44.256C31.221 43.7666 31.614 43.0123 32.4896 41.7337C32.5217 41.6871 32.5646 41.649 32.6147 41.6227C32.6648 41.5963 32.7206 41.5825 32.7772 41.5825C32.8337 41.5825 32.8895 41.5962 32.9396 41.6225C32.9897 41.6488 33.0327 41.6869 33.0649 41.7334C33.9411 43.0121 34.334 43.7663 34.3793 44.256C34.4066 44.4829 34.3856 44.713 34.3177 44.9311C34.2498 45.1493 34.1364 45.3506 33.9851 45.5219C33.8338 45.6931 33.6479 45.8304 33.4398 45.9246C33.2316 46.0189 33.0059 46.068 32.7774 46.0688ZM32.7774 42.3294C32.4074 42.8803 31.7885 43.8494 31.7462 44.3086C31.7253 44.4562 31.7364 44.6066 31.7786 44.7496C31.8209 44.8926 31.8933 45.0249 31.9911 45.1375C32.0889 45.25 32.2097 45.3403 32.3454 45.4022C32.481 45.464 32.6284 45.4961 32.7775 45.4961C32.9266 45.4961 33.074 45.464 33.2096 45.4022C33.3453 45.3403 33.4661 45.25 33.5639 45.1375C33.6616 45.0249 33.7341 44.8926 33.7764 44.7496C33.8186 44.6066 33.8297 44.4562 33.8088 44.3086C33.7665 43.8494 33.1482 42.8815 32.7774 42.3294Z" fill="url(#paint10_linear_1087_777)"/>
<path d="M32.7769 45.2097C32.5891 45.2099 32.4082 45.1393 32.2701 45.0121C32.132 44.8849 32.0468 44.7103 32.0316 44.5232C32.0243 44.448 32.047 44.3731 32.0947 44.3146C32.1424 44.2561 32.2113 44.2188 32.2864 44.2108C32.3614 44.2029 32.4366 44.2249 32.4955 44.272C32.5545 44.3192 32.5924 44.3878 32.601 44.4628C32.601 44.4858 32.6056 44.5085 32.6145 44.5298C32.6234 44.551 32.6364 44.5703 32.6527 44.5865C32.6691 44.6027 32.6885 44.6155 32.7098 44.6241C32.7311 44.6328 32.7539 44.6372 32.7769 44.637C32.8529 44.637 32.9257 44.6672 32.9794 44.7209C33.0331 44.7746 33.0633 44.8474 33.0633 44.9234C33.0633 44.9993 33.0331 45.0722 32.9794 45.1259C32.9257 45.1796 32.8529 45.2097 32.7769 45.2097Z" fill="url(#paint11_linear_1087_777)"/>
</g>
<rect x="0.587156" y="-0.587156" width="62.8257" height="62.8257" rx="8.80734" transform="matrix(1 0 0 -1 0 62.8257)" stroke="url(#paint12_linear_1087_777)" stroke-width="1.17431"/>
<defs>
<linearGradient id="paint0_linear_1087_777" x1="30.0605" y1="21.5936" x2="37.6547" y2="21.6998" gradientUnits="userSpaceOnUse">
<stop stop-color="#214F89"/>
<stop offset="1" stop-color="#12BCAB"/>
</linearGradient>
<linearGradient id="paint1_linear_1087_777" x1="12.0166" y1="17.4765" x2="13.5256" y2="17.4832" gradientUnits="userSpaceOnUse">
<stop stop-color="#214F89"/>
<stop offset="1" stop-color="#12BCAB"/>
</linearGradient>
<linearGradient id="paint2_linear_1087_777" x1="12.0166" y1="21.0512" x2="13.5256" y2="21.0546" gradientUnits="userSpaceOnUse">
<stop stop-color="#214F89"/>
<stop offset="1" stop-color="#12BCAB"/>
</linearGradient>
<linearGradient id="paint3_linear_1087_777" x1="12.0166" y1="27.2797" x2="13.5256" y2="27.2865" gradientUnits="userSpaceOnUse">
<stop stop-color="#214F89"/>
<stop offset="1" stop-color="#12BCAB"/>
</linearGradient>
<linearGradient id="paint4_linear_1087_777" x1="12.0166" y1="30.8544" x2="13.5256" y2="30.8578" gradientUnits="userSpaceOnUse">
<stop stop-color="#214F89"/>
<stop offset="1" stop-color="#12BCAB"/>
</linearGradient>
<linearGradient id="paint5_linear_1087_777" x1="12.0166" y1="37.083" x2="13.5256" y2="37.0898" gradientUnits="userSpaceOnUse">
<stop stop-color="#214F89"/>
<stop offset="1" stop-color="#12BCAB"/>
</linearGradient>
<linearGradient id="paint6_linear_1087_777" x1="12.0166" y1="40.6578" x2="13.5256" y2="40.6612" gradientUnits="userSpaceOnUse">
<stop stop-color="#214F89"/>
<stop offset="1" stop-color="#12BCAB"/>
</linearGradient>
<linearGradient id="paint7_linear_1087_777" x1="9" y1="26.1284" x2="54.3167" y2="26.332" gradientUnits="userSpaceOnUse">
<stop stop-color="#214F89"/>
<stop offset="1" stop-color="#12BCAB"/>
</linearGradient>
<linearGradient id="paint8_linear_1087_777" x1="40.3457" y1="44.5066" x2="43.0886" y2="44.5156" gradientUnits="userSpaceOnUse">
<stop stop-color="#214F89"/>
<stop offset="1" stop-color="#12BCAB"/>
</linearGradient>
<linearGradient id="paint9_linear_1087_777" x1="29.002" y1="42.3502" x2="42.0105" y2="42.3983" gradientUnits="userSpaceOnUse">
<stop stop-color="#214F89"/>
<stop offset="1" stop-color="#12BCAB"/>
</linearGradient>
<linearGradient id="paint10_linear_1087_777" x1="31.1641" y1="43.2435" x2="34.3927" y2="43.2539" gradientUnits="userSpaceOnUse">
<stop stop-color="#214F89"/>
<stop offset="1" stop-color="#12BCAB"/>
</linearGradient>
<linearGradient id="paint11_linear_1087_777" x1="32.0303" y1="44.5796" x2="33.0639" y2="44.5844" gradientUnits="userSpaceOnUse">
<stop stop-color="#214F89"/>
<stop offset="1" stop-color="#12BCAB"/>
</linearGradient>
<linearGradient id="paint12_linear_1087_777" x1="-9.95479e-09" y1="23.6946" x2="64.0349" y2="23.982" gradientUnits="userSpaceOnUse">
<stop stop-color="#214F89"/>
<stop offset="1" stop-color="#12BCAB"/>
</linearGradient>
<clipPath id="clip0_1087_777">
<rect width="46" height="46" fill="white" transform="translate(9 9)"/>
</clipPath>
</defs>
</svg>
