<svg width="62" height="62" viewBox="0 0 62 62" fill="none" xmlns="http://www.w3.org/2000/svg">
<g clip-path="url(#clip0_190_1093)">
<path d="M46.4508 0H15.5C6.9873 0 0 6.9873 0 15.5492V46.5C0 55.0127 6.9873 62 15.5 62H46.4508C55.0127 62 62 55.0127 62 46.4508V15.5492C62 6.9873 55.0127 0 46.4508 0ZM29.327 12.7444C29.4254 11.219 30.8524 11.7603 31.5905 11.6619C40.8413 11.9571 48.8127 20.273 48.7143 29.2286C48.7143 30.1143 49.0095 31.3937 47.681 31.3937C46.4016 31.3937 46.746 30.0651 46.5984 29.1794C45.3683 19.6825 40.9397 15.2048 31.2952 13.7286C30.5079 13.6302 29.2778 13.7778 29.327 12.7444ZM43.154 29.6222C41.6778 29.819 41.973 28.5397 41.8254 27.7032C40.8413 21.8968 38.7746 19.781 32.8206 18.5016C31.9349 18.3048 30.5571 18.4524 30.8032 17.1238C31 15.8444 32.2302 16.2873 33.1651 16.3857C39.119 17.0746 43.9905 22.1429 43.9413 27.7032C43.8429 28.2936 44.2365 29.4254 43.154 29.6222ZM39.4635 26.5714C39.4635 27.3587 39.3651 28.0968 38.4794 28.1952C37.8397 28.2936 37.446 27.7524 37.3476 27.1127C37.1016 24.7508 35.8222 23.3238 33.3619 22.9302C32.6238 22.8317 31.9349 22.5857 32.2794 21.6016C32.5254 20.9619 33.1159 20.8635 33.7556 20.8635C36.4127 20.8143 39.4635 23.9143 39.4635 26.5714ZM48.8127 44.7286C47.7794 47.5333 44.2857 50.3873 41.2841 50.3381C40.8413 50.2397 40.0048 50.0921 39.2667 49.7968C26.0794 44.2365 16.4841 35.0841 11.0714 21.9952C9.25079 17.6159 11.1698 13.8762 15.746 12.4C16.5825 12.1048 17.3698 12.1048 18.2063 12.4C20.1746 13.0889 25.1444 19.8302 25.2429 21.7984C25.3413 23.3238 24.2587 24.1603 23.2254 24.8492C21.2079 26.1778 21.2079 27.8508 22.0937 29.7698C24.0127 34.0016 27.3095 36.954 31.5905 38.8238C33.1159 39.5127 34.6413 39.4635 35.6746 37.8889C37.5444 35.0841 39.8571 35.2317 42.3667 36.954C43.646 37.8397 44.9254 38.6762 46.1063 39.6111C47.7302 40.9397 49.7968 42.0222 48.8127 44.7286Z" fill="white"/>
</g>
<defs>
<clipPath id="clip0_190_1093">
<rect width="62" height="62" fill="white"/>
</clipPath>
</defs>
</svg>
