<svg width="32" height="32" viewBox="0 0 32 32" fill="none" xmlns="http://www.w3.org/2000/svg">
<g clip-path="url(#clip0_1076_9388)">
<path d="M21.9913 8.46047C21.3705 7.83276 20.3591 7.82485 19.7286 8.44283L7.90191 20.1316L2.76075 14.8092C2.14756 14.1701 1.13242 14.1491 0.493392 14.7623C-0.145702 15.3755 -0.166679 16.3906 0.446507 17.0297C0.449286 17.0325 0.451995 17.0353 0.454773 17.0382L6.72333 23.5344C7.02332 23.8405 7.43334 24.0138 7.8619 24.0155H7.87955C8.29998 24.0142 8.70312 23.8478 9.00208 23.5521L21.9768 10.7232C22.6037 10.1015 22.6101 9.09012 21.9913 8.46047Z" fill="url(#paint0_linear_1076_9388)"/>
<path d="M16.3448 23.5345C16.644 23.8397 17.0527 24.0129 17.4802 24.0155H17.4978C17.9183 24.0142 18.3214 23.8478 18.6204 23.5521L31.5952 10.7232C32.1833 10.061 32.1232 9.04741 31.4611 8.4593C30.8607 7.92613 29.9587 7.91912 29.3501 8.44284L17.5282 20.1316L17.1065 19.6938C16.4934 19.0547 15.4782 19.0336 14.8391 19.6468C14.2 20.2599 14.179 21.2751 14.7922 21.9142C14.795 21.9171 14.7977 21.9199 14.8005 21.9228L16.3448 23.5345Z" fill="url(#paint1_linear_1076_9388)"/>
</g>
<defs>
<linearGradient id="paint0_linear_1076_9388" x1="-3.49215e-09" y1="13.9196" x2="22.463" y2="14.0608" gradientUnits="userSpaceOnUse">
<stop stop-color="#214F89"/>
<stop offset="1" stop-color="#12BCAB"/>
</linearGradient>
<linearGradient id="paint1_linear_1076_9388" x1="14.3457" y1="13.9639" x2="32.0094" y2="14.0515" gradientUnits="userSpaceOnUse">
<stop stop-color="#214F89"/>
<stop offset="1" stop-color="#12BCAB"/>
</linearGradient>
<clipPath id="clip0_1076_9388">
<rect width="32" height="32" fill="white"/>
</clipPath>
</defs>
</svg>
