<svg width="64" height="64" viewBox="0 0 64 64" fill="none" xmlns="http://www.w3.org/2000/svg">
<g clip-path="url(#clip0_1084_181)">
<path d="M27.9509 44.8033C28.3358 44.8033 28.6478 44.4913 28.6478 44.1064C28.6478 43.7214 28.3358 43.4094 27.9509 43.4094C27.566 43.4094 27.2539 43.7214 27.2539 44.1064C27.2539 44.4913 27.566 44.8033 27.9509 44.8033Z" fill="url(#paint0_linear_1084_181)"/>
<path d="M25.6445 24.2288C26.0836 24.6679 26.6551 24.884 27.2336 24.884C27.8121 24.884 28.3836 24.6679 28.8227 24.2288C29.0597 23.9918 29.0597 23.6015 28.8227 23.3646C28.5857 23.1276 28.1954 23.1276 27.9585 23.3646C27.5612 23.7618 26.906 23.7618 26.5088 23.3646C26.2718 23.1276 25.8815 23.1276 25.6445 23.3646C25.4076 23.6015 25.4076 23.9918 25.6445 24.2288Z" fill="url(#paint1_linear_1084_181)"/>
<path d="M25.2106 21.4061C25.5956 21.4061 25.9076 21.094 25.9076 20.7091C25.9076 20.3242 25.5956 20.0121 25.2106 20.0121C24.8257 20.0121 24.5137 20.3242 24.5137 20.7091C24.5137 21.094 24.8257 21.4061 25.2106 21.4061Z" fill="url(#paint2_linear_1084_181)"/>
<path d="M29.2478 21.4061C29.6327 21.4061 29.9447 21.094 29.9447 20.7091C29.9447 20.3242 29.6327 20.0121 29.2478 20.0121C28.8628 20.0121 28.5508 20.3242 28.5508 20.7091C28.5508 21.094 28.8628 21.4061 29.2478 21.4061Z" fill="url(#paint3_linear_1084_181)"/>
<path d="M52.2749 13.8509H39.0325C37.9312 13.8509 37.0252 14.75 37.0252 15.8582V19.3849H35.5546C35.3594 19.1618 35.1155 19.0015 34.8367 18.9249C34.767 18.9039 34.6973 18.897 34.6276 18.89C35.0667 17.1267 35.3734 13.8718 32.697 11.5509C30.9685 10.0524 29.247 9.42516 27.5812 9.70394C25.5461 10.0385 24.2428 11.6206 23.7897 12.2618C23.037 12.3594 21.1482 12.7427 20.2003 14.2203C19.5103 15.2936 19.4894 16.6736 20.1097 18.3185C20.0818 18.5067 20.0609 18.6949 20.04 18.8691C19.8937 18.8691 19.7543 18.883 19.6149 18.9249C19.3361 19.0015 19.0991 19.1618 18.897 19.3849H13.1121C11.2373 19.3849 9.71094 20.9112 9.71094 22.7861V44.1064C9.71094 45.9812 11.2373 47.5076 13.1121 47.5076H22.0473V50.3512H20.737C19.6288 50.3512 18.7297 51.2503 18.7297 52.3585C18.7297 53.4667 19.6288 54.3658 20.737 54.3658H35.1643C36.2725 54.3658 37.1715 53.4667 37.1715 52.3585C37.1715 51.2503 36.2725 50.3512 35.1643 50.3512H33.854V47.5076H42.7891C44.664 47.5076 46.1903 45.9812 46.1903 44.1064V26.8842H52.2818C53.3831 26.8842 54.2891 25.9852 54.2891 24.877V15.8582C54.2822 14.75 53.3831 13.8509 52.2749 13.8509ZM39.3531 29.9718C39.4367 30.0136 39.5273 30.0346 39.6179 30.0346C39.7573 30.0346 39.8897 29.9858 40.0012 29.9021L42.1828 28.1388V40.7121H39.8131C39.8479 40.5518 39.8688 40.3846 39.8549 40.2173C39.5482 36.6767 37.7222 33.4288 34.9412 31.2821C34.8785 31.2055 34.7949 31.1358 34.6973 31.1009C34.0909 30.6549 33.4497 30.2646 32.7597 29.93C32.1115 29.6164 31.4355 29.3585 30.7385 29.1564V27.7764C31.9373 26.8355 32.9131 25.4903 33.5473 24.1103C34.1397 24.2009 34.7391 23.9221 35.2131 23.3924C35.227 23.3924 35.2409 23.3994 35.2549 23.3994H37.0252V24.8839C37.0252 25.9782 37.9103 26.8703 38.9976 26.8912V29.4352C39.0046 29.6582 39.137 29.8742 39.3531 29.9718ZM20.9043 24.1033C21.5455 25.4903 22.5143 26.8285 23.7131 27.7694V29.1494C23.0161 29.3515 22.34 29.6094 21.6918 29.923C17.6982 31.8676 14.98 35.8124 14.5967 40.2103C14.5828 40.3776 14.6037 40.5449 14.6385 40.7052H13.7255V23.3924H19.2455C19.7194 23.9152 20.3188 24.187 20.9043 24.1033ZM29.9858 30.2088C30.5712 30.3552 31.1358 30.5642 31.6934 30.7942C30.8779 32.5018 29.1564 33.617 27.2328 33.617C25.3091 33.617 23.5946 32.5018 22.7722 30.7942C23.3228 30.5573 23.8943 30.3552 24.4797 30.2088C24.7515 30.1391 24.9397 29.8952 24.9397 29.6164V28.5361C25.6506 28.8846 26.4173 29.0867 27.2328 29.0867C28.0482 29.0867 28.8079 28.8776 29.5258 28.5361V29.6164C29.5188 29.8952 29.714 30.1391 29.9858 30.2088ZM15.914 40.6006C15.8721 40.5588 15.8094 40.4612 15.8234 40.3218C16.0952 37.1785 17.6912 34.3 20.1306 32.3624V35.1224C18.8273 35.4012 17.8515 36.5582 17.8515 37.9452C17.8515 38.2797 18.1234 38.5585 18.4649 38.5585C18.8064 38.5585 19.0782 38.2867 19.0782 37.9452C19.0782 37.0252 19.8309 36.2724 20.7509 36.2724C21.6709 36.2724 22.4237 37.0252 22.4237 37.9452C22.4237 38.2797 22.6955 38.5585 23.037 38.5585C23.3785 38.5585 23.6503 38.2867 23.6503 37.9452C23.6503 36.5582 22.6746 35.4012 21.3712 35.1224V31.5121C21.4758 31.4494 21.5734 31.3867 21.6779 31.3239C22.6955 33.4497 24.8561 34.8367 27.2537 34.8367C29.6512 34.8367 31.8049 33.4497 32.8294 31.3239C33.1988 31.533 33.5543 31.763 33.8958 32.007V35.1503C33.0176 35.4152 32.3694 36.2236 32.3694 37.1855C32.3694 38.3633 33.3243 39.3182 34.5022 39.3182C35.68 39.3182 36.6349 38.3633 36.6349 37.1855C36.6349 36.2236 35.9867 35.4152 35.1085 35.1503V33.0106C37.1228 34.9133 38.4191 37.513 38.6631 40.3218C38.677 40.4612 38.6073 40.5588 38.5725 40.6006C38.5306 40.6494 38.447 40.7052 38.3285 40.7052H16.1579C16.0325 40.7052 15.9488 40.6424 15.914 40.6006ZM34.4743 36.2724C34.9761 36.2724 35.3873 36.6836 35.3873 37.1855C35.3873 37.6873 34.9761 38.0985 34.4743 38.0985C33.9725 38.0985 33.5612 37.6873 33.5612 37.1855C33.5612 36.6836 33.9725 36.2724 34.4743 36.2724ZM37.0322 22.1727H35.9031C35.917 22.1239 35.9449 22.0752 35.9588 22.0194C36.0982 21.5385 36.1331 21.0506 36.0773 20.6046H37.0252V22.1727H37.0322ZM21.2318 14.8824C22.0612 13.5791 24.1591 13.4467 24.18 13.4467C24.3822 13.4327 24.5703 13.3212 24.6749 13.147C24.6888 13.1261 25.8458 11.2164 27.7973 10.9027C29.0937 10.7006 30.4667 11.2233 31.9094 12.4709C34.0491 14.3249 33.8679 16.8967 33.5194 18.4021C32.8085 17.5727 31.5958 16.7852 29.714 16.7852C29.6652 16.7852 29.6164 16.7852 29.5746 16.7852C26.6264 16.7852 24.8352 14.8615 24.8212 14.8406C24.6888 14.6942 24.4867 14.6176 24.2915 14.6455C24.0894 14.6733 23.9222 14.7918 23.8246 14.973C22.814 16.9315 21.7197 17.4542 21.1622 17.5867C20.7788 16.4715 20.8067 15.5585 21.2318 14.8824ZM19.9564 20.0958C20.0679 20.0679 20.1934 20.1167 20.277 20.1724C20.4582 20.277 20.6812 20.2839 20.8694 20.1864C21.0576 20.0888 21.1761 19.9006 21.19 19.6846C21.204 19.4894 21.2318 19.1688 21.2737 18.8133C22.0125 18.667 23.3158 18.1373 24.5006 16.2276C25.3649 16.9246 27.1073 18.0188 29.5537 18.0188H29.7C32.4391 18.0188 33.0525 19.9912 33.0734 20.0749C33.1431 20.3188 33.3591 20.5 33.61 20.5209C33.8261 20.5418 34.0561 20.4303 34.1746 20.2352C34.1885 20.2282 34.2025 20.2142 34.2164 20.2073C34.2582 20.1794 34.3 20.1446 34.3279 20.1097C34.3837 20.0958 34.4394 20.0888 34.4882 20.1097C34.6137 20.1446 34.7322 20.3049 34.8018 20.5349C34.8994 20.8624 34.8855 21.2876 34.774 21.6988C34.53 22.5491 33.9725 22.9812 33.6937 22.8976C33.6867 22.8976 33.6588 22.8836 33.5961 22.8349C33.4428 22.7094 33.2476 22.6676 33.0594 22.7164C32.8712 22.7652 32.7179 22.9046 32.6482 23.0858C31.7073 25.4694 29.6652 27.8809 27.2118 27.8809C24.7585 27.8809 22.7164 25.4764 21.7825 23.0858C21.7128 22.9046 21.5594 22.7721 21.3712 22.7164C21.3225 22.7024 21.2667 22.6955 21.2179 22.6955C21.0785 22.6955 20.9461 22.7442 20.8346 22.8279C20.7788 22.8767 20.744 22.8836 20.737 22.8906C20.4652 22.9673 19.9006 22.5421 19.6567 21.6918C19.5382 21.2806 19.5243 20.8555 19.6288 20.5279C19.7125 20.2979 19.8309 20.1376 19.9564 20.0958ZM35.9518 52.3515C35.9518 52.7836 35.5964 53.1391 35.1643 53.1391H20.737C20.3049 53.1391 19.9494 52.7836 19.9494 52.3515C19.9494 51.9194 20.3049 51.5639 20.737 51.5639H35.1643C35.6034 51.5639 35.9518 51.9194 35.9518 52.3515ZM32.6343 50.3442H23.274V47.5006H32.6343V50.3442ZM44.9706 44.1064C44.9706 45.3052 43.9949 46.2879 42.7891 46.2879H13.1191C11.9203 46.2879 10.9376 45.3121 10.9376 44.1064V22.7861C10.9376 21.5873 11.9134 20.6046 13.1191 20.6046H18.3812C18.3255 21.0506 18.3603 21.5385 18.4997 22.0194C18.5137 22.0752 18.5346 22.117 18.5555 22.1727H13.1191C12.7846 22.1727 12.5058 22.4446 12.5058 22.7861V41.3185C12.5058 41.653 12.7776 41.9318 13.1191 41.9318H16.1579H38.3006H42.7891C43.1237 41.9318 43.4025 41.66 43.4025 41.3185V27.1491L43.73 26.8842H44.9706V44.1064ZM53.0625 24.877C53.0625 25.3091 52.714 25.6646 52.2749 25.6646H43.514C43.3746 25.6646 43.2422 25.7133 43.1306 25.797L40.2243 28.1458V26.2709C40.2243 25.9364 39.9525 25.6576 39.6109 25.6576H39.0325C38.6003 25.6576 38.2449 25.3091 38.2449 24.87V15.8582C38.2449 15.4261 38.5934 15.0706 39.0325 15.0706H52.2749C52.707 15.0706 53.0625 15.4191 53.0625 15.8582V24.877Z" fill="url(#paint4_linear_1084_181)"/>
<path d="M49.2639 19.4615H46.26V16.4576C46.26 16.123 45.9881 15.8443 45.6466 15.8443C45.3051 15.8443 45.0333 16.1161 45.0333 16.4576V19.4615H42.0293C41.6948 19.4615 41.416 19.7333 41.416 20.0749C41.416 20.4094 41.6878 20.6882 42.0293 20.6882H45.0333V23.6921C45.0333 24.0267 45.3051 24.3055 45.6466 24.3055C45.9881 24.3055 46.26 24.0336 46.26 23.6921V20.6882H49.2639C49.5984 20.6882 49.8772 20.4164 49.8772 20.0749C49.8772 19.7333 49.6054 19.4615 49.2639 19.4615Z" fill="url(#paint5_linear_1084_181)"/>
</g>
<rect x="0.587156" y="-0.587156" width="62.8257" height="62.8257" rx="8.80734" transform="matrix(1 0 0 -1 0 62.8257)" stroke="url(#paint6_linear_1084_181)" stroke-width="1.17431"/>
<defs>
<linearGradient id="paint0_linear_1084_181" x1="27.2539" y1="43.9255" x2="28.6486" y2="43.9317" gradientUnits="userSpaceOnUse">
<stop stop-color="#214F89"/>
<stop offset="1" stop-color="#12BCAB"/>
</linearGradient>
<linearGradient id="paint1_linear_1084_181" x1="25.4668" y1="23.8152" x2="29.0021" y2="23.8482" gradientUnits="userSpaceOnUse">
<stop stop-color="#214F89"/>
<stop offset="1" stop-color="#12BCAB"/>
</linearGradient>
<linearGradient id="paint2_linear_1084_181" x1="24.5137" y1="20.5282" x2="25.9084" y2="20.5345" gradientUnits="userSpaceOnUse">
<stop stop-color="#214F89"/>
<stop offset="1" stop-color="#12BCAB"/>
</linearGradient>
<linearGradient id="paint3_linear_1084_181" x1="28.5508" y1="20.5282" x2="29.9455" y2="20.5345" gradientUnits="userSpaceOnUse">
<stop stop-color="#214F89"/>
<stop offset="1" stop-color="#12BCAB"/>
</linearGradient>
<linearGradient id="paint4_linear_1084_181" x1="9.71094" y1="26.1984" x2="54.3134" y2="26.3979" gradientUnits="userSpaceOnUse">
<stop stop-color="#214F89"/>
<stop offset="1" stop-color="#12BCAB"/>
</linearGradient>
<linearGradient id="paint5_linear_1084_181" x1="41.416" y1="18.9768" x2="49.8818" y2="19.0148" gradientUnits="userSpaceOnUse">
<stop stop-color="#214F89"/>
<stop offset="1" stop-color="#12BCAB"/>
</linearGradient>
<linearGradient id="paint6_linear_1084_181" x1="-9.95479e-09" y1="23.6946" x2="64.0349" y2="23.982" gradientUnits="userSpaceOnUse">
<stop stop-color="#214F89"/>
<stop offset="1" stop-color="#12BCAB"/>
</linearGradient>
<clipPath id="clip0_1084_181">
<rect width="46" height="46" fill="white" transform="translate(9 9)"/>
</clipPath>
</defs>
</svg>
