<svg width="1920" height="599" viewBox="0 0 1920 599" fill="none" xmlns="http://www.w3.org/2000/svg">
<rect width="1920" height="599" fill="url(#paint0_linear_642_559)"/>
<g clip-path="url(#clip0_642_559)">
<g opacity="0.12">
<path d="M1403.2 594.036L1367.76 553.551L1387.16 462.596L1463.86 436.883L1521.04 502.261L1501.63 593.216L1497.22 594.72C1499.31 594.72 1501.28 594.72 1503.38 594.72L1523.36 501.44L1464.56 434.284L1385.65 460.682L1365.66 554.235L1400.53 594.036C1401.34 594.036 1402.27 594.036 1403.2 594.036Z" fill="white"/>
<path d="M1505.12 594.857L1503.72 593.216L1522.55 502.397L1598.79 476.137L1656.2 540.694L1644.69 596.088C1645.39 596.088 1646.09 596.088 1646.67 596.088L1658.17 540.557L1658.29 539.874L1599.6 473.948L1599.14 473.538L1520.81 500.483L1501.63 593.216L1501.52 593.899L1502.21 594.72C1503.14 594.72 1504.19 594.72 1505.12 594.857Z" fill="white"/>
<path d="M1656.78 541.652L1597.74 475.316L1617.03 381.899L1695.36 354.818L1754.4 421.154L1735.11 514.57L1656.78 541.652ZM1599.95 474.632L1657.36 539.19L1733.59 512.929L1752.3 422.111L1694.9 357.554L1618.66 383.814L1599.95 474.632Z" fill="white"/>
<path d="M1801.11 445.91L1742.08 379.574L1761.37 286.157L1839.7 259.076L1898.73 325.412L1879.44 418.828L1801.11 445.91ZM1744.17 378.754L1801.58 443.311L1877.81 417.05L1896.52 326.232L1839.12 261.675L1763 288.072L1744.17 378.754Z" fill="white"/>
<path d="M1920 316.795L1898.04 324.317L1840.63 259.897L1859.34 169.079L1919.77 148.289C1919.77 147.468 1919.77 146.648 1919.77 145.827L1857.71 167.164L1838.42 260.581L1897.45 326.916L1919.88 319.12C1920 318.436 1920 317.616 1920 316.795Z" fill="white"/>
<path d="M1646.78 596.225L1657.82 541.241L1733.83 514.297L1791.58 578.307L1787.52 598.823C1788.21 598.823 1788.8 598.823 1789.49 598.823L1793.79 577.487L1734.29 511.562L1656.08 539.19L1644.69 595.951C1645.39 596.225 1646.09 596.225 1646.78 596.225Z" fill="white"/>
<path d="M1446.66 419.512L1394.02 437.156L1354.74 392.294L1368.1 329.788L1420.75 312.145L1460.03 357.006L1446.66 419.512ZM1394.6 434.557L1445.15 417.597L1457.94 357.69L1420.28 314.606L1369.85 331.566L1357.06 391.474L1394.6 434.557Z" fill="white"/>
<path d="M1373.91 329.378C1374.61 332.387 1373.22 335.396 1370.66 336.354C1368.1 337.174 1365.55 335.533 1364.73 332.524C1364.04 329.515 1365.43 326.506 1367.99 325.548C1370.54 324.728 1373.1 326.369 1373.91 329.378Z" fill="white"/>
<path d="M1425.51 312.145C1426.21 315.154 1424.82 318.163 1422.26 319.12C1419.7 319.941 1417.15 318.299 1416.33 315.29C1415.63 312.281 1417.03 309.272 1419.59 308.315C1422.14 307.358 1424.82 309.136 1425.51 312.145Z" fill="white"/>
<path d="M1463.05 355.912C1463.75 358.922 1462.35 361.931 1459.8 362.888C1457.24 363.709 1454.68 362.067 1453.87 359.058C1453.17 356.049 1454.57 353.04 1457.12 352.083C1459.8 351.262 1462.35 353.04 1463.05 355.912Z" fill="white"/>
<path d="M1450.73 416.366C1451.43 419.375 1450.03 422.384 1447.48 423.342C1444.92 424.163 1442.36 422.521 1441.55 419.512C1440.85 416.503 1442.25 413.494 1444.8 412.537C1447.36 411.716 1450.03 413.357 1450.73 416.366Z" fill="white"/>
<path d="M1398.78 433.737C1399.48 436.746 1398.09 439.755 1395.53 440.712C1392.97 441.533 1390.42 439.892 1389.6 436.883C1388.91 433.873 1390.3 430.864 1392.86 429.907C1395.53 429.086 1398.09 430.728 1398.78 433.737Z" fill="white"/>
<path d="M1360.67 390.242C1361.36 393.251 1359.97 396.26 1357.41 397.218C1354.86 398.038 1352.3 396.397 1351.49 393.388C1350.79 390.379 1352.18 387.37 1354.74 386.413C1357.3 385.592 1359.85 387.233 1360.67 390.242Z" fill="white"/>
<path d="M925.913 593.489L930.329 572.699L1005.52 547.533L1045.61 593.215C1046.54 593.215 1047.47 593.215 1048.4 593.215L1006.1 544.934L928.702 570.784L923.821 593.352C924.635 593.489 925.216 593.489 925.913 593.489Z" fill="white"/>
<path d="M784.133 594.036L797.382 533.035L872.688 508.142L928.586 572.426L923.938 593.626C924.635 593.626 925.332 593.626 925.913 593.626L930.678 571.742L873.153 505.543L795.755 531.12L782.158 594.036C782.855 594.036 783.552 594.036 784.133 594.036Z" fill="white"/>
<path d="M801.101 531.12C801.682 533.582 800.403 536.181 798.311 536.865C796.22 537.549 794.012 536.044 793.431 533.582C792.849 531.12 794.128 528.521 796.22 527.838C798.311 527.154 800.52 528.521 801.101 531.12Z" fill="white"/>
<path d="M657.229 594.857L645.026 580.495L665.247 491.592L740.786 467.794L796.103 532.761L782.158 593.899C782.855 593.899 783.552 593.899 784.133 593.899L798.079 532.761L798.195 532.077L741.251 465.195L663.621 489.814L642.935 580.632L642.818 581.316L654.44 594.994C655.486 594.857 656.299 594.857 657.229 594.857Z" fill="white"/>
<path d="M848.167 500.345L808.073 513.749L778.207 479.556L788.433 431.958L828.527 418.554L858.394 452.748L848.167 500.345ZM808.654 511.014L846.656 498.431L856.302 453.432L828.062 421.016L790.06 433.6L780.415 478.598L808.654 511.014Z" fill="white"/>
<path d="M851.537 498.431C852.118 501.029 850.839 503.628 848.747 504.312C846.539 504.996 844.331 503.491 843.75 501.029C843.169 498.431 844.448 495.832 846.539 495.148C848.631 494.327 850.956 495.832 851.537 498.431Z" fill="white"/>
<path d="M812.257 511.151C812.838 513.75 811.56 516.348 809.468 517.032C807.26 517.716 805.052 516.212 804.471 513.75C803.889 511.151 805.168 508.552 807.26 507.868C809.351 507.048 811.676 508.552 812.257 511.151Z" fill="white"/>
<path d="M783.32 478.325C783.901 480.924 782.623 483.523 780.531 484.207C778.323 484.89 776.115 483.386 775.534 480.924C774.952 478.325 776.231 475.727 778.323 475.043C780.414 474.359 782.739 475.727 783.32 478.325Z" fill="white"/>
<path d="M793.082 431.685C793.663 434.284 792.384 436.883 790.292 437.567C788.084 438.25 785.876 436.746 785.295 434.284C784.714 431.685 785.993 429.086 788.084 428.403C790.176 427.719 792.5 429.223 793.082 431.685Z" fill="white"/>
<path d="M832.245 418.418C832.826 421.017 831.548 423.616 829.456 424.299C827.248 424.983 825.04 423.479 824.459 421.017C823.878 418.418 825.156 415.819 827.248 415.136C829.34 414.452 831.548 415.956 832.245 418.418Z" fill="white"/>
<path d="M861.182 451.654C861.763 454.253 860.485 456.852 858.393 457.536C856.185 458.219 853.977 456.715 853.396 454.253C852.815 451.654 854.093 449.056 856.185 448.372C858.393 447.551 860.601 449.056 861.182 451.654Z" fill="white"/>
<path d="M1234.92 539.326L1192.39 553.55L1160.66 517.305L1171.47 466.836L1214.01 452.611L1245.73 488.856L1234.92 539.326ZM1192.97 550.952L1233.3 537.411L1243.52 489.54L1213.42 455.21L1173.1 468.75L1162.87 516.621L1192.97 550.952Z" fill="white"/>
<path d="M1217.49 452.885C1218.07 455.21 1216.91 457.672 1214.82 458.356C1212.84 459.04 1210.75 457.672 1210.17 455.21C1209.59 452.885 1210.75 450.423 1212.84 449.739C1214.82 449.192 1216.91 450.56 1217.49 452.885Z" fill="white"/>
<path d="M1248.29 488.036C1248.87 490.361 1247.71 492.823 1245.62 493.507C1243.64 494.191 1241.55 492.823 1240.97 490.361C1240.39 488.036 1241.55 485.574 1243.64 484.89C1245.62 484.206 1247.71 485.574 1248.29 488.036Z" fill="white"/>
<path d="M1237.95 537.138C1238.53 539.463 1237.36 541.925 1235.27 542.609C1233.3 543.292 1231.2 541.925 1230.62 539.463C1230.04 537.138 1231.2 534.676 1233.3 533.992C1235.27 533.308 1237.36 534.676 1237.95 537.138Z" fill="white"/>
<path d="M1196.34 550.952C1196.92 553.277 1195.76 555.739 1193.67 556.423C1191.69 557.107 1189.6 555.739 1189.02 553.277C1188.44 550.952 1189.6 548.49 1191.69 547.806C1193.67 547.259 1195.76 548.627 1196.34 550.952Z" fill="white"/>
<path d="M1165.54 516.074C1166.13 518.399 1164.96 520.861 1162.87 521.545C1160.9 522.229 1158.8 520.861 1158.22 518.4C1157.64 516.074 1158.8 513.612 1160.9 512.929C1162.87 512.381 1164.96 513.749 1165.54 516.074Z" fill="white"/>
<path d="M1176.24 466.699C1176.82 469.024 1175.66 471.486 1173.56 472.17C1171.59 472.854 1169.5 471.486 1168.91 469.024C1168.33 466.699 1169.5 464.237 1171.59 463.553C1173.56 462.869 1175.66 464.237 1176.24 466.699Z" fill="white"/>
<path d="M802.379 529.616C803.309 533.309 801.449 537.001 798.311 538.096C795.174 539.19 792.036 537.001 791.106 533.309C790.176 529.616 792.036 525.923 795.174 524.829C798.195 523.871 801.449 526.06 802.379 529.616Z" fill="white"/>
<path d="M878.847 504.859C879.776 508.552 877.917 512.245 874.779 513.339C871.641 514.433 868.504 512.245 867.574 508.552C866.644 504.859 868.504 501.166 871.641 500.072C874.779 499.115 877.917 501.166 878.847 504.859Z" fill="white"/>
<path d="M935.675 570.648C936.605 574.341 934.745 578.033 931.608 579.128C928.47 580.222 925.332 578.033 924.403 574.34C923.473 570.648 925.332 566.955 928.47 565.861C931.608 564.903 934.862 566.955 935.675 570.648Z" fill="white"/>
<path d="M1009.94 544.25C1010.87 547.943 1009.01 551.636 1005.87 552.73C1002.73 553.825 999.592 551.636 998.663 547.943C997.733 544.25 999.593 540.557 1002.73 539.463C1005.87 538.506 1009.12 540.558 1009.94 544.25Z" fill="white"/>
<path d="M648.513 580.632C649.442 584.325 647.583 588.018 644.445 589.112C641.307 590.206 638.17 588.018 637.24 584.325C636.31 580.632 638.17 576.939 641.307 575.845C644.445 574.888 647.583 576.939 648.513 580.632Z" fill="white"/>
<path d="M668.385 489.541C669.315 493.234 667.455 496.927 664.318 498.021C661.18 499.115 658.042 496.927 657.113 493.234C656.183 489.541 658.042 485.848 661.18 484.754C664.318 483.796 667.572 485.848 668.385 489.541Z" fill="white"/>
<path d="M746.364 465.331C747.294 469.024 745.434 472.717 742.297 473.811C739.159 474.906 736.021 472.717 735.092 469.024C734.162 465.331 736.021 461.639 739.159 460.544C742.297 459.587 745.434 461.639 746.364 465.331Z" fill="white"/>
<path d="M977.628 530.847L937.535 544.25L907.668 510.057L917.895 462.46L957.988 449.056L987.855 483.249L977.628 530.847ZM938.116 541.515L976.117 528.932L985.763 483.933L957.523 451.518L919.522 464.101L909.876 509.1L938.116 541.515Z" fill="white"/>
<path d="M980.998 528.932C981.579 531.53 980.301 534.129 978.209 534.813C976.001 535.497 973.793 533.992 973.212 531.53C972.631 528.932 973.909 526.333 976.001 525.649C978.093 524.828 980.417 526.333 980.998 528.932Z" fill="white"/>
<path d="M941.718 541.651C942.299 544.25 941.021 546.849 938.929 547.533C936.721 548.217 934.513 546.712 933.932 544.25C933.351 541.651 934.629 539.053 936.721 538.369C938.813 537.548 941.137 539.053 941.718 541.651Z" fill="white"/>
<path d="M912.781 508.826C913.362 511.424 912.084 514.023 909.992 514.707C907.784 515.391 905.576 513.886 904.995 511.424C904.414 508.826 905.692 506.227 907.784 505.543C909.876 504.859 912.2 506.364 912.781 508.826Z" fill="white"/>
<path d="M922.543 462.323C923.124 464.921 921.846 467.52 919.754 468.204C917.546 468.888 915.338 467.383 914.757 464.921C914.176 462.323 915.454 459.724 917.546 459.04C919.638 458.219 921.962 459.724 922.543 462.323Z" fill="white"/>
<path d="M961.707 449.055C962.288 451.654 961.01 454.253 958.918 454.937C956.71 455.621 954.502 454.116 953.921 451.654C953.34 449.055 954.618 446.457 956.71 445.773C958.802 444.952 961.01 446.457 961.707 449.055Z" fill="white"/>
<path d="M990.644 482.155C991.225 484.754 989.946 487.352 987.854 488.036C985.646 488.72 983.438 487.215 982.857 484.754C982.276 482.155 983.555 479.556 985.646 478.872C987.854 478.052 990.062 479.556 990.644 482.155Z" fill="white"/>
<path d="M1085.47 593.352L1087.1 585.693L1143.23 566.955L1166.47 593.489C1167.4 593.489 1168.33 593.489 1169.26 593.489L1143.81 564.356L1085.59 583.915L1083.5 593.489C1084.08 593.352 1084.78 593.352 1085.47 593.352Z" fill="white"/>
<path d="M1091.4 583.368C1092.1 586.377 1090.7 589.523 1088.15 590.343C1085.59 591.164 1082.92 589.523 1082.22 586.514C1081.52 583.505 1082.92 580.359 1085.47 579.538C1088.03 578.717 1090.7 580.496 1091.4 583.368Z" fill="white"/>
<path d="M1148.11 564.082C1148.81 567.091 1147.42 570.237 1144.86 571.058C1142.3 571.879 1139.63 570.237 1138.93 567.228C1138.23 564.219 1139.63 561.073 1142.19 560.253C1144.74 559.295 1147.42 561.073 1148.11 564.082Z" fill="white"/>
<path d="M1280.71 593.489L1244.57 552.183L1258.75 485.574L1314.88 466.836L1356.72 514.57L1342.54 581.179L1305.58 593.489C1307.91 593.489 1310.35 593.489 1312.67 593.489L1344.16 582.958L1358.92 513.887L1315.46 464.238L1257.24 483.796L1242.48 552.867L1278.04 593.489C1278.74 593.489 1279.67 593.489 1280.71 593.489Z" fill="white"/>
<path d="M1262.93 483.523C1263.63 486.532 1262.23 489.677 1259.68 490.498C1257.12 491.319 1254.45 489.677 1253.75 486.668C1253.05 483.659 1254.45 480.514 1257 479.693C1259.56 478.735 1262.23 480.514 1262.93 483.523Z" fill="white"/>
<path d="M1319.64 464.101C1320.34 467.11 1318.83 470.255 1316.39 471.076C1313.83 471.897 1311.16 470.256 1310.46 467.246C1309.76 464.237 1311.28 461.092 1313.72 460.271C1316.27 459.314 1318.95 461.092 1319.64 464.101Z" fill="white"/>
<path d="M1362.41 512.792C1363.11 515.801 1361.71 518.947 1359.16 519.768C1356.6 520.589 1353.93 518.947 1353.23 515.938C1352.53 512.929 1354.04 509.783 1356.48 508.963C1358.92 508.142 1361.6 509.783 1362.41 512.792Z" fill="white"/>
<path d="M1348 580.632C1348.7 583.641 1347.3 586.787 1344.75 587.607C1342.19 588.428 1339.52 586.787 1338.82 583.778C1338.12 580.769 1339.63 577.623 1342.07 576.802C1344.51 575.982 1347.3 577.623 1348 580.632Z" fill="white"/>
<path d="M1248.06 551.089C1248.75 554.098 1247.24 557.244 1244.8 558.064C1242.25 558.885 1239.57 557.107 1238.88 554.235C1238.18 551.226 1239.57 548.08 1242.13 547.259C1244.57 546.302 1247.24 548.08 1248.06 551.089Z" fill="white"/>
<path d="M1222.26 379.711L1197.74 387.917L1179.37 366.991L1185.65 337.858L1210.17 329.652L1228.53 350.578L1222.26 379.711ZM1198.08 386.276L1221.21 378.48L1227.02 351.125L1209.82 331.43L1186.7 339.089L1180.88 366.444L1198.08 386.276Z" fill="white"/>
<path d="M1189.14 337.722C1189.6 339.5 1188.67 341.278 1187.16 341.825C1185.65 342.372 1184.14 341.278 1183.67 339.5C1183.21 337.722 1184.14 335.944 1185.65 335.397C1187.16 334.986 1188.67 335.944 1189.14 337.722Z" fill="white"/>
<path d="M1212.84 329.788C1213.31 331.566 1212.38 333.344 1210.87 333.892C1209.36 334.439 1207.85 333.344 1207.38 331.566C1206.92 329.788 1207.85 328.01 1209.36 327.463C1210.87 327.053 1212.38 328.01 1212.84 329.788Z" fill="white"/>
<path d="M1230.16 349.894C1230.62 351.672 1229.69 353.45 1228.18 353.997C1226.67 354.545 1225.16 353.45 1224.7 351.672C1224.23 349.894 1225.16 348.116 1226.67 347.569C1228.18 347.022 1229.81 348.116 1230.16 349.894Z" fill="white"/>
<path d="M1224.35 377.796C1224.81 379.574 1223.88 381.352 1222.37 381.9C1220.86 382.447 1219.35 381.352 1218.89 379.574C1218.42 377.796 1219.35 376.018 1220.86 375.471C1222.37 375.061 1224 376.018 1224.35 377.796Z" fill="white"/>
<path d="M1200.52 386.413C1200.99 388.191 1200.06 389.969 1198.55 390.517C1197.04 391.064 1195.53 389.969 1195.06 388.191C1194.6 386.413 1195.53 384.635 1197.04 384.088C1198.55 383.678 1200.06 384.635 1200.52 386.413Z" fill="white"/>
<path d="M1183.09 365.76C1183.56 367.538 1182.63 369.316 1181.12 369.863C1179.61 370.41 1178.1 369.316 1177.63 367.538C1177.17 365.76 1178.1 363.982 1179.61 363.435C1181.12 363.024 1182.63 363.982 1183.09 365.76Z" fill="white"/>
<path d="M1327.43 408.023L1284.9 422.248L1253.17 386.003L1263.98 335.533L1306.51 321.308L1338.24 357.553L1327.43 408.023ZM1285.48 419.649L1325.8 406.108L1336.03 358.237L1305.93 323.907L1265.6 337.448L1255.38 385.319L1285.48 419.649Z" fill="white"/>
<path d="M1310 321.582C1310.58 323.907 1309.42 326.369 1307.32 327.053C1305.35 327.737 1303.26 326.369 1302.68 323.907C1302.1 321.582 1303.26 319.12 1305.35 318.436C1307.32 317.889 1309.42 319.257 1310 321.582Z" fill="white"/>
<path d="M1340.79 356.733C1341.37 359.058 1340.21 361.52 1338.12 362.204C1336.15 362.887 1334.05 361.52 1333.47 359.058C1332.89 356.733 1334.05 354.271 1336.15 353.587C1338.12 352.903 1340.21 354.271 1340.79 356.733Z" fill="white"/>
<path d="M1330.45 405.835C1331.03 408.16 1329.87 410.622 1327.78 411.306C1325.8 411.99 1323.71 410.622 1323.13 408.16C1322.55 405.835 1323.71 403.373 1325.8 402.689C1327.78 402.005 1329.87 403.373 1330.45 405.835Z" fill="white"/>
<path d="M1288.85 419.649C1289.43 421.974 1288.27 424.436 1286.17 425.12C1284.2 425.804 1282.11 424.436 1281.53 421.974C1280.94 419.649 1282.11 417.187 1284.2 416.503C1286.17 415.956 1288.27 417.324 1288.85 419.649Z" fill="white"/>
<path d="M1258.05 384.909C1258.63 387.234 1257.47 389.696 1255.38 390.38C1253.4 391.063 1251.31 389.696 1250.73 387.234C1250.15 384.909 1251.31 382.447 1253.4 381.763C1255.38 381.079 1257.47 382.447 1258.05 384.909Z" fill="white"/>
<path d="M1268.74 335.396C1269.32 337.722 1268.16 340.184 1266.07 340.867C1264.09 341.551 1262 340.184 1261.42 337.722C1260.84 335.396 1262 332.935 1264.09 332.251C1266.07 331.567 1268.16 333.071 1268.74 335.396Z" fill="white"/>
<path d="M1571.71 421.564L1519.06 439.208L1479.78 394.346L1493.15 331.84L1545.79 314.196L1585.07 359.058L1571.71 421.564ZM1519.53 436.609L1570.08 419.649L1582.87 359.742L1545.21 316.658L1494.78 333.618L1481.99 393.525L1519.53 436.609Z" fill="white"/>
<path d="M1498.84 331.43C1499.54 334.439 1498.15 337.448 1495.59 338.405C1493.03 339.226 1490.48 337.584 1489.66 334.575C1488.97 331.566 1490.36 328.557 1492.92 327.6C1495.47 326.779 1498.15 328.421 1498.84 331.43Z" fill="white"/>
<path d="M1550.56 314.196C1551.26 317.205 1549.86 320.214 1547.3 321.172C1544.75 321.992 1542.19 320.351 1541.38 317.342C1540.68 314.333 1542.07 311.324 1544.63 310.366C1547.19 309.409 1549.86 311.187 1550.56 314.196Z" fill="white"/>
<path d="M1588.1 358.101C1588.79 361.11 1587.4 364.119 1584.84 365.076C1582.28 365.897 1579.73 364.256 1578.91 361.247C1578.22 358.238 1579.61 355.229 1582.17 354.271C1584.73 353.314 1587.4 355.092 1588.1 358.101Z" fill="white"/>
<path d="M1575.78 418.418C1576.47 421.427 1575.08 424.436 1572.52 425.394C1569.97 426.214 1567.41 424.573 1566.6 421.564C1565.9 418.555 1567.29 415.546 1569.85 414.588C1572.41 413.768 1574.96 415.409 1575.78 418.418Z" fill="white"/>
<path d="M1523.83 435.788C1524.53 438.797 1523.13 441.806 1520.58 442.764C1518.02 443.584 1515.46 441.943 1514.65 438.934C1513.95 435.925 1515.35 432.916 1517.9 431.959C1520.46 431.138 1523.13 432.779 1523.83 435.788Z" fill="white"/>
<path d="M1485.6 392.294C1486.29 395.303 1484.9 398.312 1482.34 399.27C1479.78 400.09 1477.23 398.449 1476.41 395.44C1475.72 392.431 1477.11 389.422 1479.67 388.465C1482.34 387.644 1484.9 389.285 1485.6 392.294Z" fill="white"/>
<path d="M1373.1 552.32C1374.03 556.013 1372.17 559.706 1369.03 560.8C1365.9 561.894 1362.76 559.706 1361.83 556.013C1360.9 552.32 1362.76 548.627 1365.9 547.533C1368.92 546.575 1372.17 548.764 1373.1 552.32Z" fill="white"/>
<path d="M1392.28 460.681C1393.21 464.374 1391.35 468.067 1388.21 469.161C1385.07 470.255 1381.93 468.067 1381 464.374C1380.07 460.681 1381.93 456.988 1385.07 455.894C1388.21 454.937 1391.35 457.125 1392.28 460.681Z" fill="white"/>
<path d="M1468.86 435.925C1469.79 439.618 1467.93 443.311 1464.79 444.405C1461.66 445.499 1458.52 443.311 1457.59 439.618C1456.66 435.925 1458.52 432.232 1461.66 431.138C1464.68 430.044 1467.93 432.232 1468.86 435.925Z" fill="white"/>
<path d="M1525.69 501.714C1526.62 505.406 1524.76 509.099 1521.62 510.193C1518.48 511.288 1515.35 509.099 1514.42 505.406C1513.49 501.714 1515.35 498.021 1518.48 496.926C1521.62 495.832 1524.76 498.021 1525.69 501.714Z" fill="white"/>
<path d="M1505.82 594.857C1505.93 593.899 1505.93 592.805 1505.7 591.848C1504.77 588.155 1501.63 586.103 1498.5 587.06C1495.59 588.018 1493.85 591.301 1494.31 594.72C1498.15 594.72 1501.98 594.72 1505.82 594.857Z" fill="white"/>
<path d="M1661.66 538.916C1662.59 542.609 1660.73 546.302 1657.59 547.396C1654.45 548.49 1651.32 546.302 1650.39 542.609C1649.46 538.916 1651.32 535.223 1654.45 534.129C1657.47 533.171 1660.73 535.223 1661.66 538.916Z" fill="white"/>
<path d="M1739.4 512.929C1740.33 516.622 1738.48 520.315 1735.34 521.409C1732.2 522.503 1729.06 520.315 1728.13 516.622C1727.2 512.929 1729.06 509.236 1732.2 508.142C1735.22 507.185 1738.48 509.236 1739.4 512.929Z" fill="white"/>
<path d="M1796.93 575.435C1797.86 579.128 1796 582.821 1792.86 583.915C1789.73 585.009 1786.59 582.821 1785.66 579.128C1784.73 575.435 1786.59 571.742 1789.73 570.648C1792.86 569.69 1796.12 571.742 1796.93 575.435Z" fill="white"/>
<path d="M1623.08 383.541C1624.01 387.234 1622.15 390.926 1619.01 392.021C1615.87 393.115 1612.73 390.927 1611.8 387.234C1610.87 383.541 1612.73 379.848 1615.87 378.754C1619.01 377.796 1622.26 379.985 1623.08 383.541Z" fill="white"/>
<path d="M1700.82 357.554C1701.75 361.247 1699.89 364.939 1696.75 366.034C1693.62 367.128 1690.48 364.939 1689.55 361.247C1688.62 357.554 1690.48 353.861 1693.62 352.767C1696.75 351.809 1699.89 353.861 1700.82 357.554Z" fill="white"/>
<path d="M1758.46 420.059C1759.39 423.752 1757.53 427.445 1754.4 428.54C1751.26 429.634 1748.12 427.445 1747.19 423.752C1746.26 420.059 1748.12 416.367 1751.26 415.272C1754.28 414.315 1757.53 416.367 1758.46 420.059Z" fill="white"/>
<path d="M1603.32 473.538C1604.25 477.231 1602.39 480.924 1599.25 482.018C1596.11 483.112 1592.98 480.924 1592.05 477.231C1591.12 473.538 1592.98 469.845 1596.11 468.751C1599.25 467.793 1602.51 469.845 1603.32 473.538Z" fill="white"/>
<path d="M1748.7 377.933C1749.63 381.626 1747.77 385.319 1744.63 386.413C1741.5 387.507 1738.36 385.319 1737.43 381.626C1736.5 377.933 1738.36 374.24 1741.5 373.146C1744.52 372.188 1747.77 374.24 1748.7 377.933Z" fill="white"/>
<path d="M1767.88 286.294C1768.81 289.987 1766.95 293.68 1763.81 294.774C1760.67 295.868 1757.53 293.68 1756.6 289.987C1755.67 286.294 1757.53 282.601 1760.67 281.507C1763.81 280.55 1766.95 282.601 1767.88 286.294Z" fill="white"/>
<path d="M1845.62 260.307C1846.55 264 1844.69 267.693 1841.56 268.787C1838.42 269.881 1835.28 267.693 1834.35 264C1833.42 260.307 1835.28 256.614 1838.42 255.52C1841.56 254.563 1844.69 256.614 1845.62 260.307Z" fill="white"/>
<path d="M1903.27 322.813C1904.19 326.506 1902.34 330.199 1899.2 331.293C1896.06 332.387 1892.92 330.199 1891.99 326.506C1891.06 322.813 1892.92 319.12 1896.06 318.026C1899.08 317.068 1902.34 319.12 1903.27 322.813Z" fill="white"/>
<path d="M1885.83 414.725C1886.76 418.418 1884.9 422.111 1881.77 423.205C1878.63 424.299 1875.49 422.111 1874.56 418.418C1873.63 414.725 1875.49 411.032 1878.63 409.938C1881.65 408.981 1884.9 411.032 1885.83 414.725Z" fill="white"/>
<path d="M1809.6 441.533C1810.53 445.226 1808.67 448.919 1805.53 450.013C1802.39 451.107 1799.25 448.919 1798.32 445.226C1797.4 441.533 1799.25 437.84 1802.39 436.746C1805.53 435.788 1808.67 437.977 1809.6 441.533Z" fill="white"/>
<path d="M1864.57 167.164C1865.5 170.857 1863.64 174.55 1860.5 175.644C1857.36 176.738 1854.22 174.55 1853.29 170.857C1852.36 167.164 1854.22 163.471 1857.36 162.377C1860.38 161.419 1863.64 163.471 1864.57 167.164Z" fill="white"/>
<path d="M1825.05 243.894L1766.83 263.453L1723.37 213.804L1738.13 144.733L1796.35 125.174L1839.81 174.823L1825.05 243.894ZM1767.3 260.854L1823.43 242.116L1837.6 175.507L1795.77 127.773L1739.75 146.511L1725.58 213.12L1767.3 260.854Z" fill="white"/>
<path d="M1743.94 144.323C1744.63 147.332 1743.12 150.478 1740.68 151.298C1738.13 152.119 1735.45 150.478 1734.76 147.469C1734.06 144.46 1735.45 141.314 1738.01 140.493C1740.57 139.536 1743.24 141.314 1743.94 144.323Z" fill="white"/>
<path d="M1800.65 124.901C1801.35 127.91 1799.95 131.056 1797.39 131.876C1794.84 132.697 1792.17 131.056 1791.47 128.047C1790.77 125.038 1792.28 121.892 1794.72 121.071C1797.28 120.114 1799.95 121.892 1800.65 124.901Z" fill="white"/>
<path d="M1843.42 173.592C1844.11 176.601 1842.72 179.747 1840.16 180.568C1837.6 181.389 1834.93 179.747 1834.23 176.738C1833.54 173.729 1835.05 170.583 1837.49 169.763C1839.93 168.942 1842.6 170.583 1843.42 173.592Z" fill="white"/>
<path d="M1829 241.432C1829.7 244.441 1828.31 247.587 1825.75 248.408C1823.19 249.228 1820.52 247.587 1819.82 244.578C1819.13 241.569 1820.64 238.423 1823.08 237.603C1825.63 236.645 1828.31 238.423 1829 241.432Z" fill="white"/>
<path d="M1771.71 260.581C1772.41 263.59 1770.9 266.736 1768.46 267.556C1765.9 268.377 1763.23 266.599 1762.53 263.726C1761.83 260.717 1763.23 257.572 1765.79 256.751C1768.34 255.794 1771.01 257.572 1771.71 260.581Z" fill="white"/>
<path d="M1729.06 211.889C1729.76 214.898 1728.36 218.044 1725.81 218.865C1723.25 219.685 1720.58 218.044 1719.88 215.035C1719.18 212.026 1720.58 208.88 1723.13 208.059C1725.69 207.102 1728.25 208.88 1729.06 211.889Z" fill="white"/>
<path d="M1919.77 88.2453L1909.89 134.338L1853.76 153.076L1811.92 105.342L1826.1 38.733L1882.23 19.9949L1919.65 62.8053C1919.65 62.3949 1919.65 62.1214 1919.65 61.7111C1919.65 61.0272 1919.65 60.2066 1919.65 59.5227L1882.7 17.3962L1824.47 36.9549L1809.71 106.026L1853.18 155.675L1911.4 136.116L1919.65 97.6827C1919.77 94.5369 1919.77 91.3911 1919.77 88.2453Z" fill="white"/>
<path d="M1830.4 36.5446C1831.1 39.5536 1829.59 42.6995 1827.15 43.5201C1824.59 44.3407 1821.92 42.5627 1821.22 39.6904C1820.52 36.6814 1821.92 33.5356 1824.47 32.7149C1827.03 31.8943 1829.7 33.5356 1830.4 36.5446Z" fill="white"/>
<path d="M1887.11 17.2595C1887.81 20.2685 1886.41 23.4143 1883.86 24.2349C1881.3 25.0556 1878.63 23.4143 1877.93 20.4053C1877.23 17.3962 1878.74 14.2504 1881.18 13.4298C1883.62 12.6091 1886.41 14.2504 1887.11 17.2595Z" fill="white"/>
<path d="M1915.47 133.654C1916.16 136.663 1914.77 139.809 1912.21 140.63C1909.66 141.45 1906.98 139.672 1906.29 136.8C1905.59 133.791 1906.98 130.645 1909.54 129.825C1912.1 129.004 1914.77 130.645 1915.47 133.654Z" fill="white"/>
<path d="M1858.17 152.939C1858.87 155.948 1857.36 159.094 1854.92 159.915C1852.36 160.735 1849.69 159.094 1848.99 156.085C1848.3 153.076 1849.69 149.93 1852.25 149.11C1854.69 148.152 1857.36 149.93 1858.17 152.939Z" fill="white"/>
<path d="M1815.41 104.111C1816.11 107.12 1814.71 110.266 1812.15 111.086C1809.6 111.907 1806.92 110.266 1806.23 107.257C1805.53 104.248 1806.92 101.102 1809.48 100.281C1812.04 99.4607 1814.71 101.102 1815.41 104.111Z" fill="white"/>
<path d="M1656.31 276.994L1613.78 291.218L1582.05 254.973L1592.86 204.503L1635.39 190.279L1667.12 226.524L1656.31 276.994ZM1614.36 288.619L1654.69 275.079L1664.91 227.208L1634.81 192.877L1594.49 206.418L1584.26 254.289L1614.36 288.619Z" fill="white"/>
<path d="M1638.88 190.689C1639.46 193.014 1638.3 195.476 1636.21 196.16C1634.23 196.844 1632.14 195.476 1631.56 193.014C1630.98 190.689 1632.14 188.227 1634.23 187.543C1636.21 186.859 1638.3 188.227 1638.88 190.689Z" fill="white"/>
<path d="M1669.68 225.703C1670.26 228.028 1669.1 230.49 1667 231.174C1665.03 231.858 1662.94 230.49 1662.36 228.028C1661.77 225.703 1662.94 223.241 1665.03 222.557C1667 222.01 1669.1 223.378 1669.68 225.703Z" fill="white"/>
<path d="M1659.33 274.805C1659.92 277.13 1658.75 279.592 1656.66 280.276C1654.69 280.96 1652.59 279.592 1652.01 277.13C1651.43 274.805 1652.59 272.343 1654.69 271.659C1656.66 271.112 1658.75 272.48 1659.33 274.805Z" fill="white"/>
<path d="M1617.73 288.756C1618.31 291.081 1617.15 293.543 1615.06 294.227C1613.08 294.911 1610.99 293.543 1610.41 291.081C1609.83 288.756 1610.99 286.294 1613.08 285.61C1615.06 284.926 1617.15 286.294 1617.73 288.756Z" fill="white"/>
<path d="M1586.93 253.879C1587.51 256.204 1586.35 258.666 1584.26 259.35C1582.28 260.034 1580.19 258.666 1579.61 256.204C1579.03 253.879 1580.19 251.417 1582.28 250.733C1584.26 250.186 1586.35 251.554 1586.93 253.879Z" fill="white"/>
<path d="M1597.62 204.367C1598.21 206.692 1597.04 209.154 1594.95 209.838C1592.98 210.521 1590.88 209.154 1590.3 206.692C1589.72 204.367 1590.88 201.905 1592.98 201.221C1594.95 200.674 1597.04 202.041 1597.62 204.367Z" fill="white"/>
<path d="M1664.8 175.644L1640.27 183.85L1621.91 162.924L1628.19 133.791L1652.71 125.584L1671.07 146.511L1664.8 175.644ZM1640.62 182.072L1663.75 174.413L1669.56 147.058L1652.36 127.363L1629.23 135.022L1623.42 162.377L1640.62 182.072Z" fill="white"/>
<path d="M1631.56 133.518C1632.02 135.296 1631.09 137.074 1629.58 137.621C1628.07 138.168 1626.56 137.074 1626.1 135.296C1625.63 133.518 1626.56 131.74 1628.07 131.192C1629.58 130.782 1631.09 131.876 1631.56 133.518Z" fill="white"/>
<path d="M1655.27 125.585C1655.73 127.363 1654.8 129.141 1653.29 129.688C1651.78 130.235 1650.27 129.141 1649.8 127.363C1649.34 125.585 1650.27 123.806 1651.78 123.259C1653.29 122.849 1654.8 123.943 1655.27 125.585Z" fill="white"/>
<path d="M1672.7 145.69C1673.16 147.469 1672.23 149.247 1670.72 149.794C1669.21 150.341 1667.7 149.247 1667.24 147.468C1666.77 145.69 1667.7 143.912 1669.21 143.365C1670.72 142.955 1672.23 143.912 1672.7 145.69Z" fill="white"/>
<path d="M1666.89 173.592C1667.35 175.37 1666.42 177.149 1664.91 177.696C1663.4 178.243 1661.89 177.148 1661.43 175.37C1660.96 173.592 1661.89 171.814 1663.4 171.267C1664.91 170.857 1666.42 171.951 1666.89 173.592Z" fill="white"/>
<path d="M1642.95 182.209C1643.41 183.987 1642.48 185.765 1640.97 186.312C1639.46 186.859 1637.95 185.765 1637.49 183.987C1637.02 182.209 1637.95 180.431 1639.46 179.884C1640.97 179.474 1642.48 180.568 1642.95 182.209Z" fill="white"/>
<path d="M1625.52 161.693C1625.98 163.471 1625.05 165.249 1623.54 165.796C1622.03 166.343 1620.52 165.249 1620.05 163.471C1619.59 161.693 1620.52 159.915 1622.03 159.368C1623.54 158.958 1625.17 159.915 1625.52 161.693Z" fill="white"/>
<path d="M1785.08 92.6221L1742.54 106.847L1710.82 70.6014L1721.62 20.1317L1764.16 5.90723L1795.88 42.1524L1785.08 92.6221ZM1743.12 104.248L1783.45 90.7072L1793.68 42.8362L1763.58 8.50594L1723.25 22.0466L1713.02 69.9175L1743.12 104.248Z" fill="white"/>
<path d="M1767.64 6.18081C1768.23 8.50597 1767.06 10.9679 1764.97 11.6518C1763 12.3356 1760.9 10.9679 1760.32 8.50597C1759.74 6.18081 1760.9 3.71885 1763 3.03498C1764.97 2.48788 1767.06 3.85565 1767.64 6.18081Z" fill="white"/>
<path d="M1798.44 41.3317C1799.02 43.6569 1797.86 46.1188 1795.77 46.8027C1793.79 47.4866 1791.7 46.1188 1791.12 43.6569C1790.54 41.3317 1791.7 38.8698 1793.79 38.1859C1795.77 37.5021 1797.86 38.8698 1798.44 41.3317Z" fill="white"/>
<path d="M1788.1 90.4338C1788.68 92.759 1787.52 95.2209 1785.43 95.9048C1783.45 96.5886 1781.36 95.2209 1780.78 92.759C1780.2 90.4338 1781.36 87.9719 1783.45 87.288C1785.43 86.6041 1787.52 87.9719 1788.1 90.4338Z" fill="white"/>
<path d="M1746.49 104.248C1747.07 106.573 1745.91 109.035 1743.82 109.719C1741.85 110.403 1739.75 109.035 1739.17 106.573C1738.59 104.248 1739.75 101.786 1741.85 101.102C1743.82 100.555 1745.91 101.923 1746.49 104.248Z" fill="white"/>
<path d="M1715.7 69.5073C1716.28 71.8324 1715.12 74.2944 1713.02 74.9782C1711.05 75.6621 1708.96 74.2944 1708.38 71.8324C1707.79 69.5073 1708.96 67.0453 1711.05 66.3615C1713.02 65.6776 1715.12 67.0453 1715.7 69.5073Z" fill="white"/>
<path d="M1726.39 19.9948C1726.97 22.32 1725.81 24.7819 1723.72 25.4658C1721.74 26.1497 1719.65 24.7819 1719.07 22.32C1718.49 19.9948 1719.65 17.5329 1721.74 16.849C1723.72 16.1652 1725.81 17.6697 1726.39 19.9948Z" fill="white"/>
</g>
<g opacity="0.08">
<path d="M585.7 272.949H517.027L482.754 218.821L517.027 164.694H585.7L619.973 218.821L585.7 272.949ZM518.05 271.552H584.805L618.182 218.938L584.805 166.324H518.05L484.672 218.938L518.05 271.552Z" fill="white"/>
<path d="M383.899 165.974H315.226L280.953 111.847L315.226 57.719H383.899L418.172 111.847L383.899 165.974ZM316.249 164.461H383.004L416.382 111.847L383.004 59.2322H316.249L282.871 111.847L316.249 164.461Z" fill="white"/>
<path d="M178.263 592.943L176.856 592.128L210.873 538.349H211.385L279.547 538.233L313.692 591.895L312.285 592.71L278.652 539.746L211.769 539.863L178.263 592.943Z" fill="white"/>
<path d="M174.81 588.054C177.496 586.657 180.949 587.472 182.483 589.916C184.018 592.36 183.123 595.503 180.437 596.9C177.752 598.297 174.299 597.482 172.764 595.038C171.229 592.593 172.125 589.567 174.81 588.054Z" fill="white"/>
<path d="M310.239 587.821C312.924 586.424 316.377 587.239 317.912 589.683C319.446 592.128 318.551 595.27 315.866 596.667C313.18 598.064 309.727 597.249 308.193 594.805C306.658 592.477 307.553 589.334 310.239 587.821Z" fill="white"/>
<path d="M515.107 594.339L480.195 541.026L513.701 486.55L581.863 485.618V487.132L514.596 487.946L482.114 541.026L516.514 593.641L515.107 594.339Z" fill="white"/>
<path d="M510.248 593.99C510.248 591.196 512.678 588.868 515.747 588.752C518.816 588.752 521.374 590.964 521.502 593.757C521.502 596.551 519.072 598.879 516.003 598.995C512.806 599.112 510.248 596.9 510.248 593.99Z" fill="white"/>
<path d="M576.235 486.433C576.235 483.639 578.665 481.311 581.734 481.195C584.804 481.195 587.361 483.406 587.489 486.2C587.489 488.994 585.059 491.322 581.99 491.438C578.793 491.555 576.363 489.227 576.235 486.433Z" fill="white"/>
<path d="M315.482 59.814L280.953 6.38478L282.36 5.56995L316.377 58.4172L383.132 57.9516L416.382 4.75513L417.788 5.45355L384.027 59.4648L315.482 59.814Z" fill="white"/>
<path d="M419.834 9.52791C417.149 10.9248 413.696 10.1099 412.162 7.66545C410.627 5.22098 411.522 2.07808 414.208 0.681239C416.893 -0.715604 420.346 0.0992209 421.881 2.5437C423.415 4.98817 422.52 8.13107 419.834 9.52791Z" fill="white"/>
<path d="M284.406 10.3427C281.72 11.7396 278.267 10.9247 276.733 8.48027C275.198 6.0358 276.093 2.8929 278.779 1.49606C281.464 0.099215 284.917 0.91404 286.452 3.35852C287.987 5.80299 287.091 8.94589 284.406 10.3427Z" fill="white"/>
<path d="M179.798 165.974H111.636V164.461H178.775L212.28 111.846L178.647 58.8827L180.053 58.0679L214.07 111.846L179.798 165.974Z" fill="white"/>
<path d="M184.913 58.4174C184.913 61.2111 182.355 63.5392 179.286 63.5392C176.217 63.5392 173.659 61.2111 173.659 58.4174C173.659 55.6237 176.217 53.2957 179.286 53.2957C182.355 53.2957 184.913 55.6237 184.913 58.4174Z" fill="white"/>
<path d="M117.263 165.159C117.263 167.953 114.705 170.281 111.636 170.281C108.566 170.281 106.009 167.953 106.009 165.159C106.009 162.366 108.566 160.038 111.636 160.038C114.705 160.038 117.263 162.366 117.263 165.159Z" fill="white"/>
<path d="M78.2587 433.353L76.9799 432.655L110.869 379.808L77.875 327.077L10.6084 326.611V325.214L78.7702 325.564L112.787 379.808L112.531 380.157L78.2587 433.353Z" fill="white"/>
<path d="M13.4214 321.49C16.107 322.886 17.0022 326.029 15.4676 328.474C13.933 330.918 10.4801 331.733 7.79456 330.336C5.10901 328.939 4.21382 325.797 5.74842 323.352C7.28302 320.908 10.7359 320.093 13.4214 321.49Z" fill="white"/>
<path d="M80.4322 428.581C83.1177 429.977 84.0129 433.12 82.4783 435.565C80.9437 438.009 77.4908 438.824 74.8053 437.427C72.1197 436.031 71.2246 432.888 72.7592 430.443C74.2938 427.999 77.7466 427.184 80.4322 428.581Z" fill="white"/>
<g opacity="0.6">
<path d="M701.05 272.251C701.05 270.505 678.67 251.531 652.198 251.182C652.198 251.182 652.198 251.182 652.07 251.182C651.942 251.182 651.815 251.182 651.815 251.182C651.687 251.182 651.559 251.182 651.559 251.182C651.559 251.182 651.559 251.182 651.431 251.182C625.471 251.531 603.475 270.505 603.475 272.251C603.475 274.113 624.192 292.854 651.175 293.32C651.303 293.32 651.303 293.32 651.431 293.32C651.559 293.32 651.687 293.32 651.687 293.32C651.815 293.32 651.942 293.32 651.942 293.32C652.07 293.32 652.07 293.32 652.198 293.32C679.949 292.971 701.05 274.113 701.05 272.251ZM652.198 290.177C641.328 290.177 632.504 282.145 632.504 272.251C632.504 262.356 641.328 254.325 652.198 254.325C663.068 254.325 671.892 262.356 671.892 272.251C671.764 282.145 662.94 290.177 652.198 290.177Z" fill="white"/>
<path d="M652.198 258.166C643.63 258.166 636.725 264.452 636.725 272.251C636.725 280.05 643.63 286.335 652.198 286.335C660.767 286.335 667.672 280.05 667.672 272.251C667.672 264.452 660.639 258.166 652.198 258.166ZM644.781 282.261C643.119 282.261 641.84 281.097 641.84 279.584C641.84 278.071 643.119 276.907 644.781 276.907C646.444 276.907 647.723 278.071 647.723 279.584C647.723 281.097 646.444 282.261 644.781 282.261ZM658.081 272.251C655.012 272.251 652.582 270.039 652.582 267.245C652.582 264.452 655.012 262.24 658.081 262.24C661.15 262.24 663.58 264.452 663.58 267.245C663.58 270.039 661.022 272.251 658.081 272.251Z" fill="white"/>
</g>
<path d="M478.917 138.038C478.789 135.593 476.999 132.916 473.93 132.916C470.861 132.916 462.42 132.916 462.42 132.916V139.318H472.139V192.631H450.783H450.527H429.171V139.318H438.89V132.916C438.89 132.916 430.449 132.916 427.38 132.916C424.311 132.916 422.521 135.593 422.393 138.038C422.265 140.482 422.393 192.631 422.393 195.075C422.393 197.52 424.695 199.149 427.38 199.149C428.659 199.149 448.353 199.149 450.527 199.149C450.527 199.149 450.527 199.149 450.655 199.149H450.783C452.957 199.149 472.779 199.149 473.93 199.149C476.615 199.266 478.917 197.52 478.917 195.075C478.917 192.631 478.917 140.598 478.917 138.038Z" fill="white"/>
<path d="M456.921 132.334L455.131 129.424H446.435L444.644 132.334H441.447V138.503H460.374V132.334H456.921ZM449.76 130.471H451.55V131.752H449.76V130.471Z" fill="white"/>
<path d="M454.62 149.562H432.112V152.006H454.62V149.562Z" fill="white"/>
<path d="M468.175 145.72H432.112V148.165H468.175V145.72Z" fill="white"/>
<path d="M468.175 141.879H432.112V144.324H468.175V141.879Z" fill="white"/>
<path d="M360.497 217.658C360.497 223.361 355.381 228.017 349.115 228.017C342.849 228.017 337.733 223.361 337.733 217.658C337.733 211.954 342.849 207.298 349.115 207.298C355.381 207.298 360.497 211.954 360.497 217.658Z" fill="white"/>
<path d="M326.608 194.26C326.608 197.985 323.283 201.128 319.063 201.128C314.97 201.128 311.518 198.102 311.518 194.26C311.518 190.535 314.843 187.393 319.063 187.393C323.155 187.393 326.608 190.419 326.608 194.26Z" fill="white"/>
<path d="M375.46 190.303C375.46 193.213 372.902 195.657 369.577 195.657C366.38 195.657 363.694 193.329 363.694 190.303C363.694 187.276 366.252 184.948 369.577 184.948C372.902 184.948 375.46 187.393 375.46 190.303Z" fill="white"/>
<path d="M384.283 229.997C384.283 232.907 381.725 235.351 378.4 235.351C375.203 235.351 372.518 233.023 372.518 229.997C372.518 227.087 375.075 224.642 378.4 224.642C381.597 224.642 384.283 227.087 384.283 229.997Z" fill="white"/>
<path d="M342.338 245.129C342.338 248.039 339.78 250.484 336.455 250.484C333.13 250.484 330.572 248.155 330.572 245.129C330.572 242.219 333.13 239.774 336.455 239.774C339.78 239.774 342.338 242.219 342.338 245.129Z" fill="white"/>
<path d="M347.266 221.176L345.943 220.74L336.535 244.379L337.858 244.815L347.266 221.176Z" fill="white"/>
<path d="M354.153 217.34L353.476 218.462L377.684 230.571L378.362 229.449L354.153 217.34Z" fill="white"/>
<path d="M342.811 213.706L343.729 212.735L322.782 196.344L321.865 197.315L342.811 213.706Z" fill="white"/>
<path d="M368.377 193.414L367.229 192.673L351.258 213.188L352.406 213.928L368.377 193.414Z" fill="white"/>
<path d="M156.395 307.405V306.124C156.395 305.077 155.5 304.146 154.221 304.146L138.491 304.378C137.34 304.378 136.317 305.193 136.317 306.357V307.638V307.754L156.267 307.638C156.395 307.521 156.395 307.405 156.395 307.405Z" fill="white"/>
<path d="M115.217 343.141C113.81 343.141 112.275 343.141 112.147 343.141V341.744C112.147 341.744 115.856 341.744 116.879 341.744C117.391 341.627 118.414 339.881 118.414 339.183C118.414 338.834 118.414 335.807 118.414 332.897C118.414 329.521 118.414 325.796 118.414 324.749C118.414 322.653 120.844 320.093 122.378 320.093C123.529 320.093 125.319 320.093 126.215 320.093V311.362C126.215 309.616 129.412 307.055 131.074 307.055C132.353 306.939 164.196 307.055 165.603 307.055V308.452C154.093 308.452 132.225 308.452 131.202 308.452C130.307 308.452 127.749 310.548 127.749 311.479V321.606H126.982C126.982 321.606 124.168 321.489 122.378 321.606C121.739 321.606 119.948 323.468 119.948 324.982C119.948 326.029 119.948 329.754 119.948 333.13C119.948 336.273 119.948 339.066 119.948 339.416C119.948 340.23 118.797 343.141 117.007 343.257C116.623 343.141 115.984 343.141 115.217 343.141Z" fill="white"/>
<path d="M105.37 346.05C102.94 346.05 101.021 344.304 101.021 342.093C101.021 339.881 102.94 338.135 105.37 338.135C107.799 338.135 109.718 339.881 109.718 342.093C109.718 344.304 107.799 346.05 105.37 346.05ZM105.37 339.997C104.091 339.997 103.068 340.929 103.068 342.093C103.068 343.257 104.091 344.188 105.37 344.188C106.648 344.188 107.671 343.257 107.671 342.093C107.799 340.929 106.648 339.997 105.37 339.997Z" fill="white"/>
<path d="M145.908 335.225C142.199 335.225 139.258 332.431 139.258 329.172C139.258 325.796 142.327 323.119 145.908 323.119C149.488 323.119 152.558 325.913 152.558 329.172C152.686 332.431 149.616 335.225 145.908 335.225ZM145.908 327.077C144.757 327.077 143.734 328.008 143.734 329.055C143.734 330.103 144.757 331.034 145.908 331.034C147.059 331.034 148.082 330.103 148.082 329.055C148.082 328.008 147.187 327.077 145.908 327.077Z" fill="white"/>
<path d="M145.908 346.4C135.422 346.4 126.854 338.601 126.854 329.056C126.854 319.51 135.422 311.711 145.908 311.711C156.395 311.711 164.963 319.51 164.963 329.056C164.963 338.601 156.395 346.4 145.908 346.4ZM145.908 313.108C136.189 313.108 128.388 320.209 128.388 329.056C128.388 337.902 136.189 345.003 145.908 345.003C155.627 345.003 163.428 337.902 163.428 329.056C163.428 320.325 155.627 313.108 145.908 313.108Z" fill="white"/>
<path d="M145.908 348.844C134.015 348.844 124.296 339.998 124.296 329.172C124.296 318.347 134.015 309.5 145.908 309.5C157.801 309.5 167.52 318.347 167.52 329.172C167.648 339.998 157.929 348.844 145.908 348.844ZM145.908 310.78C134.782 310.78 125.703 319.045 125.703 329.172C125.703 339.299 134.782 347.564 145.908 347.564C157.034 347.564 166.114 339.299 166.114 329.172C166.114 319.045 157.034 310.78 145.908 310.78Z" fill="white"/>
<path d="M105.369 349.193C101.149 349.193 97.5684 346.051 97.5684 342.093C97.5684 338.251 101.021 334.992 105.369 334.992C109.589 334.992 113.17 338.135 113.17 342.093C113.17 346.051 109.717 349.193 105.369 349.193ZM105.369 336.855C102.172 336.855 99.6145 339.183 99.6145 342.093C99.6145 345.003 102.172 347.331 105.369 347.331C108.566 347.331 111.124 345.003 111.124 342.093C111.252 339.299 108.566 336.855 105.369 336.855Z" fill="white"/>
<path d="M132.48 340.347L133.504 341.278L142.839 332.897C142.583 332.548 142.2 332.199 141.944 331.733L132.48 340.347Z" fill="white"/>
<path d="M149.745 326.728L150.384 326.146C150.256 325.68 150.128 325.214 149.873 324.749L148.722 325.796C149.105 326.029 149.489 326.378 149.745 326.728Z" fill="white"/>
<path d="M159.591 317.997L158.568 317.066L150 324.749C150.256 325.214 150.512 325.68 150.512 326.146L159.591 317.997Z" fill="white"/>
<path d="M127.749 328.357V329.754L141.049 329.87C140.921 329.405 140.793 328.939 140.793 328.474L127.749 328.357Z" fill="white"/>
<path d="M164.324 328.59L150.257 328.474C150.129 328.939 149.873 329.405 149.617 329.871L164.324 329.987V328.59Z" fill="white"/>
<path d="M133.759 316.833L132.736 317.764L141.688 326.029C142.2 325.796 142.711 325.564 143.095 325.447L133.759 316.833Z" fill="white"/>
<path d="M159.465 340.579L148.978 330.918C148.722 331.267 148.339 331.616 147.955 331.849L158.442 341.511L159.465 340.579Z" fill="white"/>
<path d="M145.141 345.818H146.675L146.803 332.548C146.292 332.781 145.78 333.014 145.269 333.13L145.141 345.818Z" fill="white"/>
<path d="M146.803 324.982L146.931 312.643H145.396L145.269 324.982C145.78 324.865 146.292 324.865 146.803 324.982Z" fill="white"/>
<path d="M167.009 324.632L164.707 321.839C164.707 321.606 164.707 300.42 164.707 299.024C164.707 296.463 166.753 294.018 169.055 293.902C170.718 293.785 172.892 293.902 172.892 293.902L172.764 295.997C172.764 295.997 170.59 295.881 169.055 295.997C168.16 295.997 166.881 297.278 166.881 299.024C167.009 300.42 167.009 323.701 167.009 324.632Z" fill="white"/>
<path d="M183.89 297.627H173.787C172.636 297.627 171.613 296.812 171.613 295.648V294.484C171.613 293.436 172.508 292.505 173.787 292.505H183.89C185.041 292.505 186.064 293.32 186.064 294.484V295.764C185.936 296.812 185.041 297.627 183.89 297.627Z" fill="white"/>
<path d="M279.674 160.853H251.284C248.343 160.853 247.448 161.551 247.448 162.366V163.413C247.448 164.228 248.343 164.927 251.284 164.927H262.666C262.538 165.276 262.538 165.509 262.538 165.858C262.538 167.138 263.305 168.186 264.328 168.768C262.41 176.218 254.993 181.805 246.297 181.805C236.066 181.805 227.754 174.239 227.754 164.927C227.754 156.429 234.659 149.445 243.611 148.165C244.251 148.863 245.274 149.329 246.297 149.329C247.704 149.329 248.982 148.514 249.494 147.35L251.796 150.26L256.783 151.075L256.144 151.54C255.632 151.889 255.504 152.472 255.76 152.937L256.144 153.403C256.528 153.752 257.167 153.868 257.678 153.403L262.154 150.26C262.666 149.911 262.794 149.329 262.538 148.863L262.154 148.397C261.771 148.048 261.131 147.932 260.62 148.397L259.597 149.096L259.98 148.747L260.748 144.207V144.09L248.215 128.492L243.483 127.678L244.89 126.746C245.657 126.281 245.913 125.466 245.53 125L245.018 124.418C244.634 123.953 243.739 124.069 242.972 124.535L236.578 128.958C235.81 129.424 235.555 130.238 235.938 130.704L236.45 131.286C236.833 131.752 237.729 131.635 238.496 131.17L239.903 130.238L239.263 134.429L245.913 142.694C244.251 142.81 242.972 143.974 242.716 145.487C232.485 147.001 224.685 155.032 224.685 164.81C224.685 173.541 230.951 180.99 239.647 183.435V200.313H226.219V205.668H268.293V200.313H253.97V183.086C260.492 180.758 265.607 175.519 267.142 169.234C268.804 168.884 270.083 167.488 270.083 165.858C270.083 165.509 269.955 165.159 269.955 164.927H279.802C282.744 164.927 283.639 164.228 283.639 163.413V162.366C283.639 161.435 282.616 160.853 279.674 160.853ZM246.553 129.307L246.808 129.191C247.064 129.074 248.087 130.006 249.11 131.286L258.062 142.461C259.085 143.741 259.725 144.905 259.597 145.022L259.341 145.138C259.085 145.254 258.062 144.323 257.039 143.043L247.959 131.868C246.936 130.588 246.297 129.424 246.553 129.307Z" fill="white"/>
<path d="M486.462 480.497C483.649 480.497 481.219 482.592 481.219 485.269L468.814 486.084C468.686 484.338 468.303 482.592 467.663 480.962L473.035 478.518C473.418 478.984 474.058 479.333 474.825 479.333C476.104 479.333 477.255 478.401 477.255 477.237C477.255 476.073 476.232 475.026 474.825 475.026C473.546 475.026 472.523 475.957 472.523 477.237V477.354L467.152 479.798C466.257 478.169 465.106 476.539 463.699 475.259L470.733 469.788C471.5 470.37 472.523 470.719 473.674 470.719C476.232 470.719 478.406 468.856 478.406 466.412C478.406 463.967 476.36 462.105 473.674 462.105C471.116 462.105 468.942 463.967 468.942 466.412C468.942 467.227 469.198 468.042 469.71 468.74L462.676 474.211C461.653 473.28 460.374 472.581 459.095 471.883L465.362 456.285C465.745 456.401 466.001 456.401 466.385 456.401C468.942 456.401 471.116 454.539 471.116 452.094C471.116 449.766 469.07 447.787 466.385 447.787C463.827 447.787 461.653 449.65 461.653 452.094C461.653 453.724 462.548 455.004 463.955 455.819L457.689 471.534C455.642 470.719 453.341 470.253 451.039 470.137V460.825C452.445 460.592 453.341 459.428 453.341 458.147C453.341 456.634 451.934 455.354 450.271 455.354C448.609 455.354 447.202 456.634 447.202 458.147C447.202 459.428 448.225 460.592 449.504 460.825V470.137C446.435 470.253 443.621 470.952 441.192 472.232L432.24 460.941C433.391 460.126 434.03 458.846 434.03 457.332C434.03 454.655 431.728 452.56 428.787 452.56C425.846 452.56 423.544 454.655 423.544 457.332C423.544 460.01 425.846 462.105 428.787 462.105C429.554 462.105 430.322 461.872 430.961 461.639L439.913 472.814C438.25 473.862 436.716 475.142 435.565 476.539L430.321 473.047C430.449 472.698 430.577 472.465 430.577 472.116C430.577 470.952 429.554 469.904 428.147 469.904C426.869 469.904 425.718 470.835 425.718 472.116C425.718 473.28 426.741 474.211 428.147 474.211C428.531 474.211 428.915 474.095 429.171 473.978L434.542 477.587C433.519 479.1 432.623 480.73 432.24 482.476L421.881 479.682C421.881 477.703 420.091 476.19 417.917 476.19C415.743 476.19 413.952 477.819 413.952 479.798C413.952 481.777 415.743 483.407 417.917 483.407C419.579 483.407 420.986 482.359 421.625 481.079L431.856 483.872C431.728 484.804 431.6 485.735 431.6 486.783C431.6 487.597 431.728 488.296 431.856 489.111L418.173 491.672C417.405 490.275 415.871 489.343 414.08 489.343C411.523 489.343 409.349 491.206 409.349 493.65C409.349 495.978 411.395 497.957 414.08 497.957C416.638 497.957 418.812 496.095 418.812 493.65C418.812 493.418 418.812 493.185 418.684 492.836L432.112 490.275C432.496 491.904 433.135 493.534 434.03 494.931L427.124 498.307C426.741 498.074 426.229 497.841 425.718 497.841C424.439 497.841 423.416 498.772 423.416 500.053C423.416 501.333 424.439 502.148 425.718 502.148C426.997 502.148 428.147 501.217 428.147 500.053C428.147 499.82 428.147 499.587 428.02 499.354L434.797 495.978C435.565 496.91 436.332 497.841 437.227 498.656C431.6 503.428 428.787 505.873 427.38 507.037C426.869 506.804 426.357 506.571 425.718 506.571C424.055 506.571 422.648 507.852 422.648 509.365C422.648 510.878 424.055 512.159 425.718 512.159C427.38 512.159 428.787 510.878 428.787 509.365C428.787 508.899 428.659 508.317 428.403 507.968C430.449 506.222 434.542 502.73 438.25 499.471C439.913 500.751 441.831 501.682 444.005 502.381L438.378 514.137C437.994 514.021 437.611 514.021 437.227 514.021C434.67 514.021 432.496 515.883 432.496 518.328C432.496 520.656 434.542 522.635 437.227 522.635C439.785 522.635 441.959 520.772 441.959 518.328C441.959 516.815 441.064 515.418 439.657 514.719L445.284 502.846C446.818 503.195 448.353 503.428 449.888 503.428C451.166 503.428 452.317 503.312 453.468 503.079C453.98 507.153 454.364 509.83 454.619 511.577C452.317 512.042 450.655 513.905 450.655 516.233C450.655 518.91 452.957 521.005 455.898 521.005C458.839 521.005 461.141 518.91 461.141 516.233C461.141 513.672 458.839 511.576 456.026 511.46C455.642 509.016 455.259 505.64 454.747 502.846C455.898 502.497 457.049 502.148 458.2 501.682L466.257 516.349C465.489 516.815 464.978 517.629 464.978 518.561C464.978 520.074 466.385 521.354 468.047 521.354C469.71 521.354 471.116 520.074 471.116 518.561C471.116 517.047 469.71 515.767 468.047 515.767C467.791 515.767 467.663 515.767 467.536 515.767L459.351 500.984C461.141 499.936 462.676 498.772 464.083 497.259L478.15 507.27C477.894 507.619 477.766 508.084 477.766 508.666C477.766 510.18 479.173 511.46 480.835 511.46C482.498 511.46 483.905 510.18 483.905 508.666C483.905 507.153 482.498 505.873 480.835 505.873C480.196 505.873 479.557 506.106 479.045 506.338L465.617 496.211C466.129 495.513 466.64 494.814 467.024 494L476.615 498.074C476.615 498.19 476.487 498.423 476.487 498.539C476.487 499.703 477.51 500.635 478.917 500.635C480.324 500.635 481.347 499.703 481.347 498.539C481.347 497.375 480.324 496.328 478.917 496.328C478.278 496.328 477.766 496.56 477.383 496.91L467.663 492.719C468.431 490.973 468.814 489.111 468.942 487.132L481.603 486.317C482.242 488.296 484.16 489.809 486.59 489.809C489.531 489.809 491.833 487.714 491.833 485.036C491.705 482.592 489.276 480.497 486.462 480.497ZM438.762 481.195C435.053 487.947 437.611 494.698 437.611 494.698C436.588 493.65 433.007 487.132 436.716 480.497C441.192 472.698 450.016 473.629 450.016 473.629C450.016 473.629 442.47 474.56 438.762 481.195Z" fill="white"/>
<path d="M268.548 339.998H243.228V342.326H268.548V339.998Z" fill="white"/>
<path d="M266.246 341.162H263.305V371.078H253.202V407.279H250.517V371.078H248.471V341.162H245.785V408.792C245.785 408.909 245.785 408.909 245.785 408.909C245.785 412.634 250.389 415.544 255.888 415.544C261.515 415.544 265.991 412.517 265.991 408.909C265.991 408.792 265.991 408.792 265.991 408.792V341.162H266.246Z" fill="white"/>
<path d="M258.062 357.109C258.062 359.088 256.271 360.717 254.097 360.717C251.923 360.717 250.133 359.088 250.133 357.109C250.133 355.13 251.923 353.5 254.097 353.5C256.271 353.5 258.062 355.13 258.062 357.109Z" fill="white"/>
<path d="M260.108 364.442C260.108 365.955 258.829 367.119 257.167 367.119C255.632 367.119 254.226 365.955 254.226 364.442C254.226 362.929 255.504 361.765 257.167 361.765C258.829 361.881 260.108 363.045 260.108 364.442Z" fill="white"/>
<path d="M254.481 367.818C254.481 368.866 253.586 369.681 252.435 369.681C251.284 369.681 250.389 368.866 250.389 367.818C250.389 366.771 251.284 365.956 252.435 365.956C253.458 365.956 254.481 366.771 254.481 367.818Z" fill="white"/>
<path d="M243.867 352.802H222.639V354.664H243.867V352.802Z" fill="white"/>
<path d="M241.821 353.733H239.391V378.644H230.823V408.792H228.777V378.644H227.114V353.733H224.94V409.956V410.072C224.94 413.099 228.777 415.66 233.509 415.66C238.24 415.66 242.077 413.215 242.077 410.072V409.956V353.733H241.821Z" fill="white"/>
<path d="M235.043 367.003C235.043 368.633 233.509 370.03 231.719 370.03C229.928 370.03 228.394 368.633 228.394 367.003C228.394 365.373 229.928 363.977 231.719 363.977C233.509 363.977 235.043 365.257 235.043 367.003Z" fill="white"/>
<path d="M236.705 373.056C236.705 374.22 235.682 375.268 234.275 375.268C232.997 375.268 231.846 374.337 231.846 373.056C231.846 371.892 232.869 370.844 234.275 370.844C235.682 370.961 236.705 371.892 236.705 373.056Z" fill="white"/>
<path d="M231.974 375.85C231.974 376.665 231.207 377.48 230.184 377.48C229.289 377.48 228.394 376.781 228.394 375.85C228.394 375.035 229.161 374.22 230.184 374.22C231.207 374.337 231.974 375.035 231.974 375.85Z" fill="white"/>
<path d="M466.768 358.389C466.768 367.469 458.712 374.802 448.737 374.802C438.762 374.802 430.705 367.469 430.705 358.389C430.705 349.31 438.762 341.977 448.737 341.977C458.712 341.977 466.768 349.31 466.768 358.389Z" fill="white"/>
<path d="M448.737 373.872C431.473 373.872 417.533 387.025 417.533 403.322C417.533 404.253 417.533 405.184 417.661 406.115H479.812C479.94 405.184 479.94 404.253 479.94 403.322C479.94 387.025 466.001 373.872 448.737 373.872ZM450.399 403.438H446.051V376.432H450.399V403.438Z" fill="white"/>
<path d="M461.398 266.314C453.469 256.303 449.249 238.959 448.865 237.446C448.481 238.959 444.261 256.303 436.332 266.314C431.217 272.833 428.915 277.023 429.299 283.309C430.578 303.68 448.609 302.283 448.865 302.516C449.121 302.283 467.152 303.214 468.431 283.309C468.943 277.023 466.641 272.716 461.398 266.314ZM433.519 286.103C433.519 286.103 438.379 302.399 456.41 298.441C446.435 303.447 435.054 298.325 433.519 286.103Z" fill="white"/>
<path d="M435.693 265.034C429.81 256.187 426.613 243.266 426.357 241.986V241.869C426.357 241.869 426.357 241.869 426.357 241.986C425.973 243.383 422.265 258.515 415.359 267.362C410.883 273.066 409.221 276.79 409.221 282.261C409.221 299.14 426.101 298.791 426.357 299.024C426.485 298.907 429.298 299.024 432.495 297.859C429.043 294.251 426.869 288.78 426.869 282.727C426.997 274.928 431.345 269.108 435.693 265.034Z" fill="white"/>
<path d="M461.781 265.033C467.664 256.187 470.861 243.266 471.117 241.986V241.869C471.117 241.869 471.117 241.869 471.117 241.986C471.5 243.382 475.209 258.515 482.115 267.362C486.591 273.065 488.253 276.79 488.253 282.261C488.253 299.14 471.372 298.79 471.117 299.023C470.989 298.907 468.175 299.023 464.978 297.859C468.431 294.251 470.605 288.78 470.605 282.727C470.605 274.928 466.257 269.108 461.781 265.033Z" fill="white"/>
<g opacity="0.77">
<path d="M514.98 198.8C514.596 198.8 514.213 198.684 513.957 198.451C513.445 197.985 513.445 197.054 513.957 196.588L526.234 185.53C526.745 185.065 527.64 185.065 528.28 185.53C528.791 185.996 528.791 186.811 528.28 187.393L516.003 198.451C515.747 198.684 515.364 198.8 514.98 198.8Z" fill="white"/>
<path d="M519.711 201.245L514.852 196.588L526.489 186.112L531.093 190.535L519.711 201.245ZM516.898 196.588L519.711 199.266L529.302 190.535L526.617 187.975L516.898 196.588Z" fill="white"/>
<path d="M559.228 226.388H545.928L517.026 201.361L531.221 188.557L558.333 213.583L559.228 226.388ZM546.695 224.409H556.926L556.287 214.515L531.221 191.35L520.096 201.361L546.695 224.409Z" fill="white"/>
<path d="M536.208 217.541C535.953 217.541 535.697 217.425 535.441 217.309C535.057 216.959 535.057 216.261 535.441 215.912L543.881 207.88C544.265 207.531 545.032 207.531 545.416 207.88C545.8 208.229 545.8 208.927 545.416 209.277L536.976 217.309C536.72 217.425 536.464 217.541 536.208 217.541Z" fill="white"/>
<path d="M540.684 221.266C540.428 221.266 540.172 221.15 539.917 221.033C539.533 220.684 539.533 219.986 539.917 219.637L548.357 211.605C548.741 211.255 549.508 211.255 549.892 211.605C550.275 211.954 550.275 212.652 549.892 213.002L541.451 221.033C541.195 221.15 540.94 221.266 540.684 221.266Z" fill="white"/>
<path d="M545.033 224.991C544.777 224.991 544.521 224.875 544.265 224.758C543.882 224.409 543.882 223.711 544.265 223.362L552.706 215.33C553.089 214.981 553.857 214.981 554.24 215.33C554.624 215.679 554.624 216.377 554.24 216.727L545.928 224.642C545.672 224.875 545.416 224.991 545.033 224.991Z" fill="white"/>
<path d="M573.934 240.938C573.678 240.938 573.422 240.822 573.167 240.706L557.181 226.155C556.798 225.806 556.798 225.107 557.181 224.758C557.565 224.409 558.332 224.409 558.716 224.758L574.701 239.309C575.085 239.658 575.085 240.356 574.701 240.706C574.573 240.822 574.318 240.938 573.934 240.938Z" fill="white"/>
<path d="M578.794 251.065C576.365 248.155 574.958 243.033 574.83 242.568C574.702 243.033 573.423 248.155 570.866 251.065C569.203 252.928 568.564 254.208 568.692 256.071C569.075 262.007 574.702 261.658 574.83 261.658C574.958 261.542 580.585 261.891 580.968 256.071C581.096 254.208 580.329 252.928 578.794 251.065Z" fill="white"/>
</g>
<path d="M273.536 460.01C270.211 456.867 265.607 455.004 260.748 455.004C256.144 455.004 251.924 456.518 248.599 459.428L217.779 486.084C210.745 492.137 210.489 502.381 217.139 508.783C220.464 511.926 225.068 513.788 229.928 513.788C234.532 513.788 238.752 512.275 242.077 509.365L272.897 482.708C279.93 476.655 280.186 466.412 273.536 460.01ZM239.391 506.804C236.833 509.016 233.508 510.18 229.928 510.18C226.091 510.18 222.638 508.783 219.953 506.338C214.71 501.333 214.965 493.418 220.464 488.761L234.787 476.423L236.066 477.587C240.67 473.745 247.703 467.692 251.924 464.2C252.691 463.502 253.97 463.618 254.737 464.317C255.504 465.015 255.376 466.179 254.609 466.878C248.982 471.65 242.46 477.121 238.88 480.148L254.098 494.116L239.391 506.804Z" fill="white"/>
<path opacity="0.75" d="M582.63 304.611H568.179C567.923 297.044 561.017 290.991 552.705 290.991C544.393 290.991 537.487 297.044 537.103 304.611H520.734C517.537 304.611 514.852 307.055 514.852 309.965V349.426C514.852 352.336 517.537 354.781 520.734 354.781H582.63C585.827 354.781 588.512 352.336 588.512 349.426V309.965C588.512 306.939 585.955 304.611 582.63 304.611ZM561.401 333.828H556.286V338.484H547.206V333.828H542.091V325.563H547.206V320.907H556.286V325.563H561.401V333.828ZM539.789 304.611C540.172 298.325 545.799 293.32 552.705 293.32C559.611 293.32 565.366 298.325 565.621 304.611H539.789Z" fill="white"/>
<path d="M551.683 314.738C542.603 314.738 535.186 321.489 535.186 329.754C535.186 338.019 542.603 344.77 551.683 344.77C560.762 344.77 568.179 338.019 568.179 329.754C568.179 321.373 560.762 314.738 551.683 314.738ZM561.402 333.828H556.286V338.484H547.207V333.828H542.091V325.564H547.207V320.907H556.286V325.564H561.402V333.828Z" fill="white"/>
<path d="M368.554 459.777C368.426 459.777 368.426 459.777 368.554 459.777C367.914 459.777 367.403 459.311 367.275 458.729L360.113 415.893L356.916 440.454C356.788 441.036 356.277 441.502 355.637 441.502L338.885 441.385L335.048 451.163C334.92 451.629 334.409 451.978 333.769 451.978C333.258 451.978 332.746 451.629 332.49 451.163L327.503 437.311L325.585 441.618C325.329 441.967 324.817 442.316 324.306 442.316C324.306 442.316 295.404 441.734 295.404 441.152L323.411 439.988L326.352 433.47C326.608 433.004 327.119 432.771 327.631 432.771C328.142 432.771 328.654 433.121 328.782 433.586L333.641 447.205L336.583 439.872C336.711 439.406 337.222 439.174 337.862 439.057L354.359 439.174L358.579 407.046C358.707 406.464 359.218 405.999 359.858 405.999C360.497 405.999 361.008 406.464 361.136 407.046L368.937 453.142L373.413 439.174C373.541 438.708 374.053 438.359 374.692 438.359L399.118 439.057L375.715 440.687L369.96 458.962C369.577 459.428 369.065 459.777 368.554 459.777Z" fill="white"/>
<path d="M328.142 425.904L327.503 425.554C325.073 424.274 313.18 417.406 313.18 410.655C313.18 408.094 313.947 406.115 315.354 404.835C317.016 403.205 319.83 402.623 322.515 403.205C324.945 403.671 326.863 405.067 328.014 405.882C329.165 405.067 331.467 403.671 334.025 403.205C336.71 402.739 339.268 403.321 340.93 404.835C342.337 406.231 343.104 408.21 343.104 410.771C343.104 417.523 331.211 424.39 328.781 425.671L328.142 425.904ZM320.597 405.3C319.574 405.3 318.295 405.533 317.272 406.464C316.249 407.395 315.737 408.792 315.865 410.655C315.865 414.962 323.282 420.433 328.27 423.226C333.129 420.433 340.675 415.078 340.675 410.771C340.675 408.909 340.163 407.396 339.268 406.581C338.373 405.649 336.966 405.533 336.071 405.533C335.687 405.533 335.176 405.533 334.792 405.649C331.851 406.115 329.421 408.21 329.293 408.21L328.909 408.443L328.014 409.025L327.247 408.327C327.247 408.327 324.945 406.115 322.259 405.649C321.62 405.3 321.108 405.3 320.597 405.3Z" fill="white"/>
<path d="M200.515 278.42V261.076H202.817V268.177H211.896V261.076H214.198V278.42H211.896V270.272H202.817V278.42H200.515Z" fill="white"/>
<path d="M218.163 278.42V261.076H230.824V263.171H220.465V268.526H230.184V270.505H220.465V276.441H231.207V278.537H218.163V278.42Z" fill="white"/>
<path d="M232.485 278.42L239.263 261.076H241.821L248.982 278.42H246.297L244.251 273.182H236.961L235.043 278.42H232.485ZM237.601 271.32H243.611L241.821 266.547C241.309 265.034 240.798 263.87 240.542 262.939C240.286 264.103 240.03 265.15 239.647 266.198L237.601 271.32Z" fill="white"/>
<path d="M250.772 278.42V261.076H253.074V276.325H261.77V278.42H250.772Z" fill="white"/>
<path d="M267.141 278.42V263.171H261.387V261.076H275.326V263.171H269.571V278.42H267.141Z" fill="white"/>
<path d="M277.756 278.42V261.076H280.058V268.177H289.137V261.076H291.439V278.42H289.137V270.272H280.058V278.42H277.756Z" fill="white"/>
<path d="M211.513 285.87H206.397V287.034H211.513V285.87Z" fill="white"/>
<path d="M275.199 287.034H269.955V285.87H275.199V287.034ZM264.584 287.034H259.341V285.87H264.584V287.034ZM253.97 287.034H248.727V285.87H253.97V287.034ZM243.356 287.034H238.112V285.87H243.356V287.034ZM232.741 287.034H227.498V285.87H232.741V287.034ZM222.127 287.034H216.884V285.87H222.127V287.034Z" fill="white"/>
<path d="M285.557 285.87H280.441V287.034H285.557V285.87Z" fill="white"/>
<path d="M211.513 252.462H206.397V253.626H211.513V252.462Z" fill="white"/>
<path d="M275.199 253.626H269.955V252.462H275.199V253.626ZM264.584 253.626H259.341V252.462H264.584V253.626ZM253.97 253.626H248.727V252.462H253.97V253.626ZM243.356 253.626H238.112V252.462H243.356V253.626ZM232.741 253.626H227.498V252.462H232.741V253.626ZM222.127 253.626H216.884V252.462H222.127V253.626Z" fill="white"/>
<path d="M285.557 252.462H280.441V253.626H285.557V252.462Z" fill="white"/>
<path d="M304.611 107.19V91.7087H307.681L311.389 102.651C311.773 103.698 312.029 104.397 312.156 104.979C312.284 104.397 312.668 103.582 312.924 102.534L316.632 91.7087H319.318V107.19H317.4V94.2696L312.924 107.19H311.133L306.657 94.0368V107.19H304.611Z" fill="white"/>
<path d="M322.643 107.19V91.7087H333.768V93.5712H324.689V98.3437H333.257V100.09H324.689V105.328H334.152V107.19H322.643Z" fill="white"/>
<path d="M336.966 107.19V91.7087H342.209C343.36 91.7087 344.383 91.8251 344.895 91.9415C345.79 92.1744 346.557 92.5236 347.197 93.1056C347.964 93.804 348.603 94.7352 348.987 95.7829C349.371 96.8305 349.626 98.1109 349.626 99.5078C349.626 100.672 349.498 101.719 349.243 102.651C349.115 103.349 348.731 104.164 348.22 104.746C347.836 105.328 347.324 105.794 346.813 106.143C346.301 106.492 345.662 106.725 345.022 106.958C344.255 107.19 343.488 107.19 342.593 107.19H336.966ZM339.012 105.328H342.337C343.36 105.328 344.127 105.212 344.767 105.095C345.406 104.862 345.79 104.63 346.173 104.28C346.685 103.815 347.069 103.116 347.324 102.301C347.58 101.487 347.708 100.439 347.708 99.275C347.708 97.6453 347.452 96.3649 346.941 95.5501C346.429 94.7352 345.79 94.1532 345.022 93.804C344.511 93.5712 343.616 93.4548 342.337 93.4548H339.14V105.328H339.012Z" fill="white"/>
<path d="M352.823 107.19V91.7087H354.869V107.19H352.823Z" fill="white"/>
<path d="M369.448 101.72L371.494 102.185C371.11 103.815 370.343 105.095 369.192 106.026C368.041 106.958 366.762 107.307 365.1 107.307C363.437 107.307 362.031 106.958 361.008 106.259C360.112 105.794 359.345 104.746 358.706 103.466C358.194 102.185 357.938 100.788 357.938 99.2751C357.938 97.6454 358.194 96.2486 358.834 95.0845C359.473 93.9205 360.368 92.9893 361.391 92.2908C362.542 91.7088 363.821 91.3596 365.1 91.3596C366.635 91.3596 367.913 91.7088 368.936 92.5237C369.959 93.3385 370.727 94.3861 371.11 95.8994L369.064 96.365C368.681 95.2009 368.169 94.3861 367.53 93.9205C366.89 93.4549 365.995 93.1057 364.972 93.1057C363.821 93.1057 362.798 93.3385 362.031 93.9205C361.263 94.5025 360.624 95.2009 360.368 96.2486C359.985 97.1798 359.857 98.2274 359.857 99.2751C359.857 100.555 359.985 101.72 360.368 102.767C360.752 103.698 361.391 104.513 362.159 104.979C362.926 105.444 363.821 105.677 364.716 105.677C365.867 105.677 366.762 105.328 367.658 104.63C368.681 104.048 369.192 103 369.448 101.72Z" fill="white"/>
<path d="M372.39 107.19L378.272 91.7087H380.446L386.713 107.19H384.411L382.62 102.534H376.226L374.564 107.19H372.39ZM376.866 100.788H382.109L380.446 96.4813C379.935 95.2008 379.551 94.1532 379.295 93.222C379.04 94.2696 378.784 95.2008 378.528 96.1321L376.866 100.788Z" fill="white"/>
<path d="M388.375 107.19V91.7087H390.421V105.328H397.966V107.19H388.375Z" fill="white"/>
<path d="M334.152 127.677L336.198 128.143C335.815 129.773 335.047 131.053 333.896 131.984C332.745 132.916 331.466 133.265 329.804 133.265C328.142 133.265 326.735 132.916 325.712 132.217C324.689 131.519 323.921 130.588 323.282 129.307C322.77 128.027 322.515 126.63 322.515 125.117C322.515 123.487 322.77 122.09 323.41 120.926C324.049 119.762 324.944 118.831 325.968 118.132C327.118 117.55 328.397 117.201 329.676 117.201C331.211 117.201 332.49 117.55 333.513 118.365C334.536 119.18 335.303 120.228 335.687 121.741L333.641 122.207C333.257 121.042 332.745 120.228 332.106 119.762C331.466 119.296 330.571 118.947 329.548 118.947C328.397 118.947 327.374 119.18 326.607 119.762C325.84 120.344 325.2 121.042 324.944 122.09C324.817 123.254 324.689 124.302 324.689 125.233C324.689 126.513 324.817 127.678 325.2 128.725C325.584 129.656 326.223 130.471 326.991 130.937C327.758 131.402 328.653 131.635 329.548 131.635C330.699 131.635 331.594 131.286 332.49 130.588C333.257 130.006 333.768 128.958 334.152 127.677Z" fill="white"/>
<path d="M336.966 133.148L342.848 117.667H345.022L351.289 133.148H348.987L347.197 128.492H340.802L339.14 133.148H336.966ZM341.442 126.746H346.685L345.022 122.439C344.511 121.159 344.127 120.111 343.872 119.18C343.616 120.228 343.36 121.159 343.104 122.09L341.442 126.746Z" fill="white"/>
<path d="M353.079 133.148V117.667H359.857C361.264 117.667 362.287 117.783 362.926 118.132C363.693 118.365 364.205 118.947 364.589 119.646C364.972 120.344 365.228 121.159 365.228 121.974C365.228 123.021 364.844 123.953 364.205 124.767C363.438 125.466 362.415 126.048 360.88 126.164C361.392 126.397 361.775 126.63 362.159 126.979C362.798 127.561 363.31 128.259 363.821 129.074L366.507 133.265H363.949L361.903 130.006C361.264 129.074 360.88 128.376 360.496 127.91C360.113 127.445 359.729 127.095 359.473 126.863C359.218 126.63 358.834 126.513 358.578 126.397C358.322 126.397 357.939 126.281 357.427 126.281H355.125V133.148H353.079ZM355.125 124.535H359.473C360.368 124.535 361.136 124.418 361.647 124.302C362.159 124.069 362.542 123.836 362.798 123.371C363.054 122.905 363.182 122.439 363.182 121.974C363.182 121.275 362.926 120.693 362.415 120.111C361.903 119.646 361.008 119.413 359.857 119.413H354.997V124.535H355.125Z" fill="white"/>
<path d="M368.553 133.148V117.667H379.679V119.529H370.599V124.302H379.167V126.164H370.599V131.402H380.062V133.265H368.553V133.148Z" fill="white"/>
<path d="M324.05 141.53H318.423V142.81H324.05V141.53Z" fill="white"/>
<path d="M372.518 142.81H366.507V141.53H372.518V142.81ZM360.369 142.81H354.358V141.53H360.369V142.81ZM348.22 142.81H342.21V141.53H348.22V142.81ZM336.199 142.81H330.188V141.53H336.199V142.81Z" fill="white"/>
<path d="M384.155 141.53H378.528V142.81H384.155V141.53Z" fill="white"/>
<path d="M324.05 80.7668H318.423V82.0473H324.05V80.7668Z" fill="white"/>
<path d="M372.518 82.1637H366.507V80.7668H372.518V82.1637ZM360.369 82.1637H354.358V80.7668H360.369V82.1637ZM348.22 82.1637H342.21V80.7668H348.22V82.1637ZM336.199 82.1637H330.188V80.7668H336.199V82.1637Z" fill="white"/>
<path d="M384.155 80.7668H378.528V82.0473H384.155V80.7668Z" fill="white"/>
<path d="M281.081 325.796H212.407L178.135 271.669L212.407 217.541H281.081L315.354 271.669L281.081 325.796ZM213.303 324.283H280.058L313.435 271.669L280.058 219.054H213.303L179.925 271.669L213.303 324.283Z" fill="white"/>
<path d="M280.314 432.539H211.641L177.368 378.411L211.641 324.283H280.314L314.587 378.411L280.314 432.539ZM212.536 431.025H279.291L312.669 378.411L279.291 325.796H212.536L179.159 378.411L212.536 431.025Z" fill="white"/>
<path d="M383.005 272.716H314.331L280.059 218.589L314.331 164.461H383.005L417.277 218.589L383.005 272.716ZM315.227 271.203H381.982L415.359 218.589L381.982 165.974H315.227L281.849 218.589L315.227 271.203Z" fill="white"/>
<path d="M382.236 379.458H313.563L279.29 325.331L313.563 271.203H382.236L416.509 325.331L382.236 379.458ZM314.458 377.945H381.213L414.591 325.331L381.213 272.716H314.458L281.08 325.331L314.458 377.945Z" fill="white"/>
<path d="M320.085 271.669C320.085 274.462 317.527 276.79 314.458 276.79C311.389 276.79 308.831 274.462 308.831 271.669C308.831 268.875 311.389 266.547 314.458 266.547C317.527 266.547 320.085 268.875 320.085 271.669Z" fill="white"/>
<path d="M382.492 301.817H364.717V285.637H333.257V301.817H315.481V330.452H333.257V346.632H364.717V330.452H382.492V301.817Z" fill="white"/>
<path d="M317.911 365.723V356.643H319.957L322.387 363.046C322.643 363.628 322.771 364.093 322.899 364.442C323.026 364.093 323.154 363.628 323.41 362.929L325.84 356.643H327.63V365.723H326.351V358.04L323.41 365.723H322.259L319.318 357.924V365.723H317.911Z" fill="white"/>
<path d="M329.549 365.723V356.643H336.838V357.691H330.956V360.485H336.455V361.532H330.956V364.675H337.094V365.723H329.549Z" fill="white"/>
<path d="M338.884 365.723V356.643H342.337C343.104 356.643 343.743 356.643 344.127 356.76C344.639 356.876 345.15 357.109 345.534 357.458C346.045 357.807 346.429 358.389 346.685 358.971C346.94 359.553 347.068 360.368 347.068 361.183C347.068 361.881 346.94 362.464 346.813 363.046C346.685 363.628 346.429 363.977 346.173 364.326C345.917 364.675 345.534 364.908 345.278 365.141C344.894 365.374 344.511 365.49 344.127 365.606C343.615 365.723 343.104 365.723 342.465 365.723H338.884ZM340.29 364.559H342.465C343.104 364.559 343.615 364.559 343.999 364.442C344.383 364.326 344.639 364.21 344.894 363.977C345.15 363.744 345.406 363.278 345.662 362.813C345.789 362.347 345.917 361.765 345.917 361.067C345.917 360.135 345.789 359.437 345.406 358.855C345.022 358.389 344.639 358.04 344.127 357.807C343.743 357.691 343.232 357.575 342.465 357.575H340.418V364.559H340.29Z" fill="white"/>
<path d="M349.242 365.723V356.643H350.521V365.723H349.242Z" fill="white"/>
<path d="M359.985 362.463L361.263 362.813C361.008 363.86 360.496 364.559 359.729 365.024C358.961 365.49 358.066 365.839 357.043 365.839C356.02 365.839 355.125 365.606 354.358 365.257C353.718 364.908 353.207 364.326 352.823 363.511C352.439 362.696 352.312 361.881 352.312 361.067C352.312 360.135 352.567 359.32 352.951 358.622C353.335 357.924 353.974 357.342 354.613 356.992C355.381 356.643 356.148 356.41 357.043 356.41C358.066 356.41 358.834 356.643 359.601 357.109C360.368 357.574 360.752 358.273 361.008 359.088L359.729 359.32C359.473 358.622 359.217 358.156 358.706 357.924C358.322 357.574 357.683 357.458 357.043 357.458C356.276 357.458 355.636 357.574 355.125 357.924C354.613 358.273 354.23 358.738 353.974 359.32C353.718 359.903 353.718 360.485 353.718 361.067C353.718 361.881 353.846 362.463 354.102 363.045C354.358 363.627 354.741 364.093 355.253 364.326C355.764 364.559 356.404 364.791 356.915 364.791C357.683 364.791 358.322 364.559 358.834 364.209C359.473 363.86 359.857 363.278 359.985 362.463Z" fill="white"/>
<path d="M361.902 365.723L365.739 356.643H367.146L371.238 365.723H369.703L368.552 362.929H364.332L363.181 365.723H361.902ZM364.844 361.881H368.297L367.273 359.321C367.018 358.506 366.762 357.924 366.506 357.458C366.378 358.04 366.25 358.622 365.995 359.204L364.844 361.881Z" fill="white"/>
<path d="M372.262 365.723V356.643H373.541V364.675H378.528V365.723H372.262Z" fill="white"/>
<path d="M285.812 325.913C285.812 328.706 283.255 331.035 280.185 331.035C277.116 331.035 274.559 328.706 274.559 325.913C274.559 323.119 277.116 320.791 280.185 320.791C283.255 320.907 285.812 323.119 285.812 325.913Z" fill="white"/>
<path d="M381.47 486.2H312.796L278.523 432.073L312.796 377.945H381.47L415.742 432.073L381.47 486.2ZM313.819 484.687H380.574L413.952 432.073L380.574 379.458H313.819L280.442 432.073L313.819 484.687Z" fill="white"/>
<path d="M319.19 378.76C319.19 381.554 316.633 383.882 313.563 383.882C310.494 383.882 307.937 381.554 307.937 378.76C307.937 375.966 310.494 373.638 313.563 373.638C316.633 373.638 319.19 375.85 319.19 378.76Z" fill="white"/>
<path d="M484.16 326.378H415.487L381.214 272.251L415.487 218.123H484.16L518.433 272.251L484.16 326.378ZM416.51 324.865H483.265L516.642 272.251L483.265 219.636H416.51L383.132 272.251L416.51 324.865Z" fill="white"/>
<path d="M387.736 272.949C387.736 275.743 385.178 278.071 382.109 278.071C379.04 278.071 376.482 275.743 376.482 272.949C376.482 270.155 379.04 267.827 382.109 267.827C385.178 267.827 387.736 270.039 387.736 272.949Z" fill="white"/>
<path d="M483.393 433.12H414.72L380.447 378.992L414.72 324.865H483.393L517.666 378.992L483.393 433.12ZM415.743 431.607H482.498L515.876 378.992L482.498 326.378H415.743L382.366 378.992L415.743 431.607Z" fill="white"/>
<path d="M178.646 485.618L177.239 484.92L210.873 431.956L177.495 379.342H110.229V377.829H178.39L212.791 431.956L178.646 485.618Z" fill="white"/>
<path d="M183.506 485.269C183.506 488.063 180.948 490.391 177.879 490.391C174.81 490.391 172.252 488.063 172.252 485.269C172.252 482.476 174.81 480.147 177.879 480.147C181.076 480.147 183.506 482.476 183.506 485.269Z" fill="white"/>
<path d="M279.675 539.746H211.001L176.729 485.619L211.001 431.491H279.675L313.947 485.619L279.675 539.746ZM211.896 538.233H278.652L312.029 485.619L278.652 433.004H211.896L178.519 485.619L211.896 538.233Z" fill="white"/>
<path d="M216.5 538.931C216.5 541.725 213.942 544.053 210.873 544.053C207.804 544.053 205.246 541.725 205.246 538.931C205.246 536.138 207.804 533.81 210.873 533.81C214.07 533.81 216.5 536.138 216.5 538.931Z" fill="white"/>
<path d="M116.879 270.737C116.879 273.531 114.321 275.859 111.252 275.859C108.183 275.859 105.625 273.531 105.625 270.737C105.625 267.944 108.183 265.616 111.252 265.616C114.321 265.732 116.879 267.944 116.879 270.737Z" fill="white"/>
<path d="M179.798 271.785H111.636V270.388H178.775L212.28 217.774L178.647 164.694L180.053 163.996L214.07 217.774L179.798 271.785Z" fill="white"/>
<path d="M179.03 378.643H110.357L76.084 324.516L110.357 270.388H179.03L213.303 324.516L179.03 378.643ZM111.38 377.13H178.135L211.512 324.516L178.135 271.901H111.38L78.0022 324.516L111.38 377.13Z" fill="white"/>
<path d="M183.89 378.993C183.89 381.787 181.333 384.115 178.264 384.115C175.194 384.115 172.637 381.787 172.637 378.993C172.637 376.199 175.194 373.871 178.264 373.871C181.333 373.871 183.89 376.199 183.89 378.993Z" fill="white"/>
<path d="M116.112 378.527C116.112 381.321 113.554 383.649 110.485 383.649C107.416 383.649 104.858 381.321 104.858 378.527C104.858 375.734 107.416 373.406 110.485 373.406C113.554 373.406 116.112 375.734 116.112 378.527Z" fill="white"/>
<path d="M82.6063 325.098C82.6063 327.892 80.0486 330.22 76.9794 330.22C73.9102 330.22 71.3525 327.892 71.3525 325.098C71.3525 322.304 73.9102 319.976 76.9794 319.976C80.0486 319.976 82.6063 322.304 82.6063 325.098Z" fill="white"/>
<path d="M218.035 324.516C218.035 327.309 215.477 329.637 212.408 329.637C209.339 329.637 206.781 327.309 206.781 324.516C206.781 321.722 209.339 319.394 212.408 319.394C215.477 319.394 218.035 321.605 218.035 324.516Z" fill="white"/>
<path d="M116.624 271.087C116.624 273.88 114.066 276.208 110.997 276.208C107.928 276.208 105.37 273.88 105.37 271.087C105.37 268.293 107.928 265.965 110.997 265.965C114.194 265.965 116.624 268.293 116.624 271.087Z" fill="white"/>
<path d="M281.72 219.054H213.047L178.774 164.927L213.047 110.799H281.72L315.993 164.927L281.72 219.054ZM214.07 217.541H280.825L314.203 164.927L280.825 112.312H214.07L180.693 164.927L214.07 217.541Z" fill="white"/>
<path d="M219.313 111.497C219.313 114.291 216.756 116.619 213.686 116.619C210.617 116.619 208.06 114.291 208.06 111.497C208.06 108.704 210.617 106.376 213.686 106.376C216.884 106.376 219.313 108.704 219.313 111.497Z" fill="white"/>
<path d="M383.643 165.974H314.97L280.953 112.196L282.36 111.497L315.993 164.461H382.748L416.382 111.497L417.788 112.196L383.643 165.974Z" fill="white"/>
<path d="M484.928 219.636H416.254L381.981 165.509L416.254 111.381H484.928L519.2 165.509L484.928 219.636ZM417.277 218.123H484.032L517.41 165.509L484.032 112.894H417.277L383.9 165.509L417.277 218.123Z" fill="white"/>
<path d="M490.81 112.196C490.81 114.99 488.253 117.318 485.183 117.318C482.114 117.318 479.557 114.99 479.557 112.196C479.557 109.402 482.114 107.074 485.183 107.074C488.253 107.074 490.81 109.286 490.81 112.196Z" fill="white"/>
<path d="M585.699 273.298H517.537L483.265 219.171L517.282 165.509L518.688 166.207L485.055 219.171L518.433 271.785H585.699V273.298Z" fill="white"/>
<path d="M489.787 219.869C489.787 222.663 487.229 224.991 484.16 224.991C481.091 224.991 478.533 222.663 478.533 219.869C478.533 217.075 481.091 214.747 484.16 214.747C487.229 214.747 489.787 216.959 489.787 219.869Z" fill="white"/>
<path d="M523.804 165.858C523.804 168.652 521.246 170.98 518.177 170.98C515.108 170.98 512.55 168.652 512.55 165.858C512.55 163.064 515.108 160.736 518.177 160.736C521.246 160.736 523.804 162.948 523.804 165.858Z" fill="white"/>
<path d="M591.71 272.6C591.71 275.393 589.152 277.722 586.083 277.722C583.014 277.722 580.456 275.393 580.456 272.6C580.456 269.806 583.014 267.478 586.083 267.478C589.152 267.478 591.71 269.806 591.71 272.6Z" fill="white"/>
<path d="M585.7 379.924H517.027L482.754 325.797L517.027 271.669H585.7L619.973 325.797L585.7 379.924ZM518.05 378.411H584.805L618.182 325.797L584.805 273.182H518.05L484.672 325.797L518.05 378.411Z" fill="white"/>
<path d="M686.6 326.728H617.927L583.654 272.6L617.927 218.472H686.6L686.856 218.822L721.001 272.6L686.6 326.728ZM618.822 325.214H685.577L718.955 272.6L685.577 219.986H618.822L585.445 272.6L618.822 325.214Z" fill="white"/>
<path d="M590.815 379.109C590.815 381.903 588.258 384.231 585.188 384.231C582.119 384.231 579.562 381.903 579.562 379.109C579.562 376.316 582.119 373.988 585.188 373.988C588.258 373.988 590.815 376.316 590.815 379.109Z" fill="white"/>
<path d="M591.583 272.367C591.583 275.161 589.025 277.489 585.956 277.489C582.887 277.489 580.329 275.161 580.329 272.367C580.329 269.573 582.887 267.245 585.956 267.245C589.025 267.245 591.583 269.573 591.583 272.367Z" fill="white"/>
<path d="M591.198 273.298C591.198 276.092 588.64 278.42 585.571 278.42C582.502 278.42 579.944 276.092 579.944 273.298C579.944 270.505 582.502 268.177 585.571 268.177C588.64 268.177 591.198 270.505 591.198 273.298Z" fill="white"/>
<path d="M413.824 538.699L380.191 485.735H313.436L279.802 538.699L278.396 538L312.54 484.222H381.214L415.231 538L413.824 538.699Z" fill="white"/>
<path d="M284.79 538.931C284.79 541.725 282.232 544.053 279.163 544.053C276.094 544.053 273.536 541.725 273.536 538.931C273.536 536.137 276.094 533.809 279.163 533.809C282.232 533.809 284.79 536.137 284.79 538.931Z" fill="white"/>
<path d="M483.137 539.397H414.464L380.191 485.269L414.464 431.142H483.137L517.41 485.269L483.137 539.397ZM415.359 537.884H482.114L515.492 485.269L482.114 432.655H415.359L381.982 485.269L415.359 537.884Z" fill="white"/>
<path d="M488.253 538.698C488.253 541.492 485.695 543.82 482.626 543.82C479.557 543.82 476.999 541.492 476.999 538.698C476.999 535.905 479.557 533.577 482.626 533.577C485.695 533.577 488.253 535.788 488.253 538.698Z" fill="white"/>
<path d="M522.141 485.269C522.141 488.063 519.584 490.391 516.515 490.391C513.445 490.391 510.888 488.063 510.888 485.269C510.888 482.475 513.445 480.147 516.515 480.147C519.584 480.147 522.141 482.475 522.141 485.269Z" fill="white"/>
<path d="M185.68 164.345C185.68 167.138 183.123 169.466 180.054 169.466C176.984 169.466 174.427 167.138 174.427 164.345C174.427 161.551 176.984 159.223 180.054 159.223C183.123 159.223 185.68 161.551 185.68 164.345Z" fill="white"/>
<path d="M421.753 218.938C421.753 221.732 419.195 224.06 416.126 224.06C413.057 224.06 410.499 221.732 410.499 218.938C410.499 216.144 413.057 213.816 416.126 213.816C419.323 213.816 421.753 216.028 421.753 218.938Z" fill="white"/>
<path d="M523.037 272.6C523.037 275.393 520.479 277.722 517.41 277.722C514.341 277.722 511.783 275.393 511.783 272.6C511.783 269.806 514.341 267.478 517.41 267.478C520.479 267.478 523.037 269.806 523.037 272.6Z" fill="white"/>
<path d="M421.241 325.331C421.241 328.124 418.683 330.452 415.614 330.452C412.545 330.452 409.987 328.124 409.987 325.331C409.987 322.537 412.545 320.209 415.614 320.209C418.683 320.209 421.241 322.537 421.241 325.331Z" fill="white"/>
<path d="M489.275 325.68C489.275 328.474 486.718 330.802 483.648 330.802C480.579 330.802 478.021 328.474 478.021 325.68C478.021 322.886 480.579 320.558 483.648 320.558C486.718 320.558 489.275 322.77 489.275 325.68Z" fill="white"/>
<path d="M286.964 218.239C286.964 221.033 284.406 223.361 281.337 223.361C278.268 223.361 275.71 221.033 275.71 218.239C275.71 215.446 278.268 213.118 281.337 213.118C284.406 213.118 286.964 215.446 286.964 218.239Z" fill="white"/>
<path d="M218.674 218.239C218.674 221.033 216.116 223.361 213.047 223.361C209.978 223.361 207.42 221.033 207.42 218.239C207.42 215.446 209.978 213.118 213.047 213.118C216.116 213.118 218.674 215.446 218.674 218.239Z" fill="white"/>
<path d="M320.597 165.159C320.597 167.953 318.04 170.281 314.971 170.281C311.901 170.281 309.344 167.953 309.344 165.159C309.344 162.366 311.901 160.038 314.971 160.038C318.04 160.038 320.597 162.366 320.597 165.159Z" fill="white"/>
<path d="M388.888 165.159C388.888 167.953 386.33 170.281 383.261 170.281C380.191 170.281 377.634 167.953 377.634 165.159C377.634 162.366 380.191 160.038 383.261 160.038C386.33 160.038 388.888 162.366 388.888 165.159Z" fill="white"/>
<path d="M287.603 111.497C287.603 114.291 285.046 116.619 281.976 116.619C278.907 116.619 276.35 114.291 276.35 111.497C276.35 108.704 278.907 106.376 281.976 106.376C285.046 106.376 287.603 108.704 287.603 111.497Z" fill="white"/>
<path d="M422.648 111.847C422.648 114.64 420.091 116.968 417.021 116.968C413.952 116.968 411.395 114.64 411.395 111.847C411.395 109.053 413.952 106.725 417.021 106.725C420.091 106.725 422.648 109.053 422.648 111.847Z" fill="white"/>
<path d="M184.657 272.251C184.657 275.044 182.099 277.372 179.03 277.372C175.961 277.372 173.403 275.044 173.403 272.251C173.403 269.457 175.961 267.129 179.03 267.129C182.099 267.129 184.657 269.457 184.657 272.251Z" fill="white"/>
<path d="M387.352 378.76C387.352 381.554 384.795 383.882 381.725 383.882C378.656 383.882 376.099 381.554 376.099 378.76C376.099 375.966 378.656 373.638 381.725 373.638C384.795 373.638 387.352 375.85 387.352 378.76Z" fill="white"/>
<path d="M217.395 431.957C217.395 434.75 214.838 437.078 211.768 437.078C208.699 437.078 206.142 434.75 206.142 431.957C206.142 429.163 208.699 426.835 211.768 426.835C214.966 426.835 217.395 429.047 217.395 431.957Z" fill="white"/>
<path d="M285.046 432.771C285.046 435.565 282.488 437.893 279.419 437.893C276.35 437.893 273.792 435.565 273.792 432.771C273.792 429.978 276.35 427.65 279.419 427.65C282.616 427.65 285.046 429.861 285.046 432.771Z" fill="white"/>
<path d="M421.113 431.374C421.113 434.168 418.555 436.496 415.486 436.496C412.417 436.496 409.859 434.168 409.859 431.374C409.859 428.581 412.417 426.253 415.486 426.253C418.555 426.253 421.113 428.581 421.113 431.374Z" fill="white"/>
<path d="M488.252 433.353C488.252 436.147 485.694 438.475 482.625 438.475C479.556 438.475 476.998 436.147 476.998 433.353C476.998 430.56 479.556 428.231 482.625 428.231C485.694 428.231 488.252 430.56 488.252 433.353Z" fill="white"/>
<path d="M386.969 485.502C386.969 488.296 384.411 490.624 381.342 490.624C378.273 490.624 375.715 488.296 375.715 485.502C375.715 482.708 378.273 480.38 381.342 480.38C384.539 480.38 386.969 482.592 386.969 485.502Z" fill="white"/>
<path d="M319.19 484.454C319.19 487.248 316.633 489.576 313.563 489.576C310.494 489.576 307.937 487.248 307.937 484.454C307.937 481.661 310.494 479.333 313.563 479.333C316.633 479.333 319.19 481.544 319.19 484.454Z" fill="white"/>
<path d="M183.635 485.269C183.635 488.063 181.077 490.391 178.008 490.391C174.939 490.391 172.381 488.063 172.381 485.269C172.381 482.476 174.939 480.147 178.008 480.147C181.077 480.147 183.635 482.476 183.635 485.269Z" fill="white"/>
<path d="M420.219 538.349C420.219 541.143 417.661 543.471 414.592 543.471C411.522 543.471 408.965 541.143 408.965 538.349C408.965 535.556 411.522 533.228 414.592 533.228C417.661 533.228 420.219 535.556 420.219 538.349Z" fill="white"/>
<path d="M522.397 378.993C522.397 381.787 519.84 384.115 516.77 384.115C513.701 384.115 511.144 381.787 511.144 378.993C511.144 376.199 513.701 373.871 516.77 373.871C519.967 373.871 522.397 376.199 522.397 378.993Z" fill="white"/>
</g>
</g>
<defs>
<linearGradient id="paint0_linear_642_559" x1="-2.98644e-07" y1="221.767" x2="1920.69" y2="249.396" gradientUnits="userSpaceOnUse">
<stop stop-color="#214F89"/>
<stop offset="1" stop-color="#12BCAB"/>
</linearGradient>
<clipPath id="clip0_642_559">
<rect width="1915" height="599" fill="white" transform="translate(5)"/>
</clipPath>
</defs>
</svg>
