<svg width="64" height="64" viewBox="0 0 64 64" fill="none" xmlns="http://www.w3.org/2000/svg">
<g clip-path="url(#clip0_1084_254)">
<path d="M17.668 48.3306H27.4548C28.1991 48.3306 28.8025 47.7272 28.8025 46.983V40.9076" stroke="url(#paint0_linear_1084_254)" stroke-width="1.5" stroke-miterlimit="10" stroke-linecap="round" stroke-linejoin="round"/>
<path d="M28.8024 23.0924V17.017C28.8024 16.2728 28.199 15.6694 27.4547 15.6694H23.8242" stroke="url(#paint1_linear_1084_254)" stroke-width="1.5" stroke-miterlimit="10" stroke-linecap="round" stroke-linejoin="round"/>
<path d="M20.6798 15.6694H17.668" stroke="url(#paint2_linear_1084_254)" stroke-width="1.5" stroke-miterlimit="10" stroke-linecap="round" stroke-linejoin="round"/>
<path d="M46.3318 15.6694H36.5449C35.8007 15.6694 35.1973 16.2728 35.1973 17.017V23.0924" stroke="url(#paint3_linear_1084_254)" stroke-width="1.5" stroke-miterlimit="10" stroke-linecap="round" stroke-linejoin="round"/>
<path d="M35.1973 40.9077V46.9831C35.1973 47.7273 35.8007 48.3307 36.5449 48.3307H46.3318" stroke="url(#paint4_linear_1084_254)" stroke-width="1.5" stroke-miterlimit="10" stroke-linecap="round" stroke-linejoin="round"/>
<path d="M12.2324 46.1152H15.1102" stroke="url(#paint5_linear_1084_254)" stroke-width="1.5" stroke-miterlimit="10" stroke-linecap="round" stroke-linejoin="round"/>
<path d="M12.2324 48.4498H15.1102" stroke="url(#paint6_linear_1084_254)" stroke-width="1.5" stroke-miterlimit="10" stroke-linecap="round" stroke-linejoin="round"/>
<path d="M12.2324 50.7843H13.6094" stroke="url(#paint7_linear_1084_254)" stroke-width="1.5" stroke-miterlimit="10" stroke-linecap="round" stroke-linejoin="round"/>
<path d="M48.8906 46.1152H51.7684" stroke="url(#paint8_linear_1084_254)" stroke-width="1.5" stroke-miterlimit="10" stroke-linecap="round" stroke-linejoin="round"/>
<path d="M48.8906 48.4498H51.7684" stroke="url(#paint9_linear_1084_254)" stroke-width="1.5" stroke-miterlimit="10" stroke-linecap="round" stroke-linejoin="round"/>
<path d="M48.8906 50.7843H50.2676" stroke="url(#paint10_linear_1084_254)" stroke-width="1.5" stroke-miterlimit="10" stroke-linecap="round" stroke-linejoin="round"/>
<path d="M48.8906 13.5979H51.7684" stroke="url(#paint11_linear_1084_254)" stroke-width="1.5" stroke-miterlimit="10" stroke-linecap="round" stroke-linejoin="round"/>
<path d="M48.8906 15.9324H51.7684" stroke="url(#paint12_linear_1084_254)" stroke-width="1.5" stroke-miterlimit="10" stroke-linecap="round" stroke-linejoin="round"/>
<path d="M48.8906 18.267H50.2676" stroke="url(#paint13_linear_1084_254)" stroke-width="1.5" stroke-miterlimit="10" stroke-linecap="round" stroke-linejoin="round"/>
<path d="M12.2324 13.5979H15.1102" stroke="url(#paint14_linear_1084_254)" stroke-width="1.5" stroke-miterlimit="10" stroke-linecap="round" stroke-linejoin="round"/>
<path d="M12.2324 15.9324H15.1102" stroke="url(#paint15_linear_1084_254)" stroke-width="1.5" stroke-miterlimit="10" stroke-linecap="round" stroke-linejoin="round"/>
<path d="M12.2324 18.267H13.6094" stroke="url(#paint16_linear_1084_254)" stroke-width="1.5" stroke-miterlimit="10" stroke-linecap="round" stroke-linejoin="round"/>
<path d="M33.5723 40.9076H40.5352C41.0314 40.9076 41.4336 40.5054 41.4336 40.0092V27.0894H22.5664V40.0092C22.5664 40.5054 22.9686 40.9076 23.4648 40.9076H30.4277" stroke="url(#paint17_linear_1084_254)" stroke-width="1.5" stroke-miterlimit="10" stroke-linecap="round" stroke-linejoin="round"/>
<path d="M41.4336 27.0894H22.5664V23.9909C22.5664 23.4947 22.9686 23.0924 23.4648 23.0924H40.5352C41.0314 23.0924 41.4336 23.4947 41.4336 23.9909V27.0894Z" stroke="url(#paint18_linear_1084_254)" stroke-width="1.5" stroke-miterlimit="10" stroke-linecap="round" stroke-linejoin="round"/>
<path d="M26.4297 27.0894V23.0923" stroke="url(#paint19_linear_1084_254)" stroke-width="1.5" stroke-miterlimit="10" stroke-linecap="round" stroke-linejoin="round"/>
<path d="M25.3477 35.2891H38.7864" stroke="url(#paint20_linear_1084_254)" stroke-width="1.5" stroke-miterlimit="10" stroke-linecap="round" stroke-linejoin="round"/>
<path d="M25.3477 37.8047H33.7972" stroke="url(#paint21_linear_1084_254)" stroke-width="1.5" stroke-miterlimit="10" stroke-linecap="round" stroke-linejoin="round"/>
<path d="M36.1328 37.8047H38.7861" stroke="url(#paint22_linear_1084_254)" stroke-width="1.5" stroke-miterlimit="10" stroke-linecap="round" stroke-linejoin="round"/>
<path d="M27.1025 31.3583V35.2891" stroke="url(#paint23_linear_1084_254)" stroke-width="1.5" stroke-miterlimit="10" stroke-linecap="round" stroke-linejoin="round"/>
<path d="M30.4121 32.1605V35.2891" stroke="url(#paint24_linear_1084_254)" stroke-width="1.5" stroke-miterlimit="10" stroke-linecap="round" stroke-linejoin="round"/>
<path d="M33.7217 29.7539V35.2891" stroke="url(#paint25_linear_1084_254)" stroke-width="1.5" stroke-miterlimit="10" stroke-linecap="round" stroke-linejoin="round"/>
<path d="M37.0312 32.9627V35.2891" stroke="url(#paint26_linear_1084_254)" stroke-width="1.5" stroke-miterlimit="10" stroke-linecap="round" stroke-linejoin="round"/>
<path d="M52.2683 43.0476H46.7812C46.5332 43.0476 46.332 43.2488 46.332 43.4969V53.0205C46.332 53.2685 46.5332 53.4697 46.7812 53.4697H53.8768C54.1249 53.4697 54.3261 53.2685 54.3261 53.0205V45.1054C54.3261 44.9863 54.2787 44.872 54.1945 44.7877L52.586 43.1792C52.5017 43.0949 52.3874 43.0476 52.2683 43.0476Z" stroke="url(#paint27_linear_1084_254)" stroke-width="1.5" stroke-miterlimit="10" stroke-linecap="round" stroke-linejoin="round"/>
<path d="M46.332 19.7812V20.5031C46.332 20.7512 46.5332 20.9524 46.7812 20.9524H53.8768C54.1249 20.9524 54.3261 20.7512 54.3261 20.5031V12.5881C54.3261 12.469 54.2787 12.3547 54.1945 12.2704L52.586 10.6618C52.5017 10.5776 52.3875 10.5303 52.2684 10.5303H46.7813C46.5333 10.5303 46.3321 10.7315 46.3321 10.9795V16.6367" stroke="url(#paint28_linear_1084_254)" stroke-width="1.5" stroke-miterlimit="10" stroke-linecap="round" stroke-linejoin="round"/>
<path d="M53.8767 29.6018H50.3213C50.0732 29.6018 49.8721 29.4006 49.8721 29.1526V25.5972C49.8721 25.3491 50.0732 25.148 50.3213 25.148H53.8767C54.1247 25.148 54.3259 25.3491 54.3259 25.5972V29.1526C54.3259 29.4006 54.1247 29.6018 53.8767 29.6018Z" stroke="url(#paint29_linear_1084_254)" stroke-width="1.5" stroke-miterlimit="10" stroke-linecap="round" stroke-linejoin="round"/>
<path d="M53.8767 38.852H50.3213C50.0732 38.852 49.8721 38.6509 49.8721 38.4028V34.8474C49.8721 34.5994 50.0732 34.3982 50.3213 34.3982H53.8767C54.1247 34.3982 54.3259 34.5994 54.3259 34.8474V38.4028C54.3259 38.6509 54.1247 38.852 53.8767 38.852Z" stroke="url(#paint30_linear_1084_254)" stroke-width="1.5" stroke-miterlimit="10" stroke-linecap="round" stroke-linejoin="round"/>
<path d="M15.6101 43.0476H10.123C9.87499 43.0476 9.67383 43.2488 9.67383 43.4969V53.0205C9.67383 53.2685 9.87499 53.4697 10.123 53.4697H17.2186C17.4667 53.4697 17.6679 53.2685 17.6679 53.0205V45.1054C17.6679 44.9863 17.6205 44.872 17.5363 44.7877L15.9278 43.1792C15.8435 43.0949 15.7292 43.0476 15.6101 43.0476Z" stroke="url(#paint31_linear_1084_254)" stroke-width="1.5" stroke-miterlimit="10" stroke-linecap="round" stroke-linejoin="round"/>
<path d="M15.6101 10.5303H10.123C9.87499 10.5303 9.67383 10.7315 9.67383 10.9795V20.5031C9.67383 20.7512 9.87499 20.9524 10.123 20.9524H17.2186C17.4667 20.9524 17.6679 20.7512 17.6679 20.5031V12.5881C17.6679 12.469 17.6205 12.3547 17.5363 12.2704L15.9277 10.6619C15.8435 10.5777 15.7292 10.5303 15.6101 10.5303Z" stroke="url(#paint32_linear_1084_254)" stroke-width="1.5" stroke-miterlimit="10" stroke-linecap="round" stroke-linejoin="round"/>
<path d="M13.6784 29.6018H10.123C9.87499 29.6018 9.67383 29.4006 9.67383 29.1526V25.5972C9.67383 25.3491 9.87499 25.148 10.123 25.148H13.6784C13.9265 25.148 14.1277 25.3491 14.1277 25.5972V29.1526C14.1277 29.4006 13.9265 29.6018 13.6784 29.6018Z" stroke="url(#paint33_linear_1084_254)" stroke-width="1.5" stroke-miterlimit="10" stroke-linecap="round" stroke-linejoin="round"/>
<path d="M13.6784 38.852H10.123C9.87499 38.852 9.67383 38.6509 9.67383 38.4028V34.8474C9.67383 34.5994 9.87499 34.3982 10.123 34.3982H13.6784C13.9265 34.3982 14.1277 34.5994 14.1277 34.8474V38.4028C14.1277 38.6509 13.9265 38.852 13.6784 38.852Z" stroke="url(#paint34_linear_1084_254)" stroke-width="1.5" stroke-miterlimit="10" stroke-linecap="round" stroke-linejoin="round"/>
</g>
<rect x="0.587156" y="-0.587156" width="62.8257" height="62.8257" rx="8.80734" transform="matrix(1 0 0 -1 0 62.8257)" stroke="url(#paint35_linear_1084_254)" stroke-width="1.17431"/>
<defs>
<linearGradient id="paint0_linear_1084_254" x1="17.668" y1="43.6558" x2="28.8083" y2="43.7308" gradientUnits="userSpaceOnUse">
<stop stop-color="#214F89"/>
<stop offset="1" stop-color="#12BCAB"/>
</linearGradient>
<linearGradient id="paint1_linear_1084_254" x1="23.8242" y1="18.4176" x2="28.8051" y2="18.4326" gradientUnits="userSpaceOnUse">
<stop stop-color="#214F89"/>
<stop offset="1" stop-color="#12BCAB"/>
</linearGradient>
<linearGradient id="paint2_linear_1084_254" x1="17.668" y1="16.0396" x2="20.681" y2="16.0803" gradientUnits="userSpaceOnUse">
<stop stop-color="#214F89"/>
<stop offset="1" stop-color="#12BCAB"/>
</linearGradient>
<linearGradient id="paint3_linear_1084_254" x1="35.1973" y1="18.4176" x2="46.3376" y2="18.4926" gradientUnits="userSpaceOnUse">
<stop stop-color="#214F89"/>
<stop offset="1" stop-color="#12BCAB"/>
</linearGradient>
<linearGradient id="paint4_linear_1084_254" x1="35.1973" y1="43.6559" x2="46.3376" y2="43.7309" gradientUnits="userSpaceOnUse">
<stop stop-color="#214F89"/>
<stop offset="1" stop-color="#12BCAB"/>
</linearGradient>
<linearGradient id="paint5_linear_1084_254" x1="12.2324" y1="46.4854" x2="15.1114" y2="46.5226" gradientUnits="userSpaceOnUse">
<stop stop-color="#214F89"/>
<stop offset="1" stop-color="#12BCAB"/>
</linearGradient>
<linearGradient id="paint6_linear_1084_254" x1="12.2324" y1="48.82" x2="15.1114" y2="48.8572" gradientUnits="userSpaceOnUse">
<stop stop-color="#214F89"/>
<stop offset="1" stop-color="#12BCAB"/>
</linearGradient>
<linearGradient id="paint7_linear_1084_254" x1="12.2324" y1="51.1545" x2="13.6101" y2="51.163" gradientUnits="userSpaceOnUse">
<stop stop-color="#214F89"/>
<stop offset="1" stop-color="#12BCAB"/>
</linearGradient>
<linearGradient id="paint8_linear_1084_254" x1="48.8906" y1="46.4854" x2="51.7696" y2="46.5226" gradientUnits="userSpaceOnUse">
<stop stop-color="#214F89"/>
<stop offset="1" stop-color="#12BCAB"/>
</linearGradient>
<linearGradient id="paint9_linear_1084_254" x1="48.8906" y1="48.82" x2="51.7696" y2="48.8572" gradientUnits="userSpaceOnUse">
<stop stop-color="#214F89"/>
<stop offset="1" stop-color="#12BCAB"/>
</linearGradient>
<linearGradient id="paint10_linear_1084_254" x1="48.8906" y1="51.1545" x2="50.2683" y2="51.163" gradientUnits="userSpaceOnUse">
<stop stop-color="#214F89"/>
<stop offset="1" stop-color="#12BCAB"/>
</linearGradient>
<linearGradient id="paint11_linear_1084_254" x1="48.8906" y1="13.9682" x2="51.7696" y2="14.0053" gradientUnits="userSpaceOnUse">
<stop stop-color="#214F89"/>
<stop offset="1" stop-color="#12BCAB"/>
</linearGradient>
<linearGradient id="paint12_linear_1084_254" x1="48.8906" y1="16.3027" x2="51.7696" y2="16.3398" gradientUnits="userSpaceOnUse">
<stop stop-color="#214F89"/>
<stop offset="1" stop-color="#12BCAB"/>
</linearGradient>
<linearGradient id="paint13_linear_1084_254" x1="48.8906" y1="18.6373" x2="50.2683" y2="18.6458" gradientUnits="userSpaceOnUse">
<stop stop-color="#214F89"/>
<stop offset="1" stop-color="#12BCAB"/>
</linearGradient>
<linearGradient id="paint14_linear_1084_254" x1="12.2324" y1="13.9682" x2="15.1114" y2="14.0053" gradientUnits="userSpaceOnUse">
<stop stop-color="#214F89"/>
<stop offset="1" stop-color="#12BCAB"/>
</linearGradient>
<linearGradient id="paint15_linear_1084_254" x1="12.2324" y1="16.3027" x2="15.1114" y2="16.3398" gradientUnits="userSpaceOnUse">
<stop stop-color="#214F89"/>
<stop offset="1" stop-color="#12BCAB"/>
</linearGradient>
<linearGradient id="paint16_linear_1084_254" x1="12.2324" y1="18.6373" x2="13.6101" y2="18.6458" gradientUnits="userSpaceOnUse">
<stop stop-color="#214F89"/>
<stop offset="1" stop-color="#12BCAB"/>
</linearGradient>
<linearGradient id="paint17_linear_1084_254" x1="22.5664" y1="32.2053" x2="41.4435" y2="32.321" gradientUnits="userSpaceOnUse">
<stop stop-color="#214F89"/>
<stop offset="1" stop-color="#12BCAB"/>
</linearGradient>
<linearGradient id="paint18_linear_1084_254" x1="22.5664" y1="24.5722" x2="41.4358" y2="24.972" gradientUnits="userSpaceOnUse">
<stop stop-color="#214F89"/>
<stop offset="1" stop-color="#12BCAB"/>
</linearGradient>
<linearGradient id="paint19_linear_1084_254" x1="26.4297" y1="24.5722" x2="27.4303" y2="24.5733" gradientUnits="userSpaceOnUse">
<stop stop-color="#214F89"/>
<stop offset="1" stop-color="#12BCAB"/>
</linearGradient>
<linearGradient id="paint20_linear_1084_254" x1="25.3477" y1="35.6593" x2="38.7453" y2="36.4673" gradientUnits="userSpaceOnUse">
<stop stop-color="#214F89"/>
<stop offset="1" stop-color="#12BCAB"/>
</linearGradient>
<linearGradient id="paint21_linear_1084_254" x1="25.3477" y1="38.1749" x2="33.7898" y2="38.4951" gradientUnits="userSpaceOnUse">
<stop stop-color="#214F89"/>
<stop offset="1" stop-color="#12BCAB"/>
</linearGradient>
<linearGradient id="paint22_linear_1084_254" x1="36.1328" y1="38.1749" x2="38.7872" y2="38.2065" gradientUnits="userSpaceOnUse">
<stop stop-color="#214F89"/>
<stop offset="1" stop-color="#12BCAB"/>
</linearGradient>
<linearGradient id="paint23_linear_1084_254" x1="27.1025" y1="32.8136" x2="28.1031" y2="32.8148" gradientUnits="userSpaceOnUse">
<stop stop-color="#214F89"/>
<stop offset="1" stop-color="#12BCAB"/>
</linearGradient>
<linearGradient id="paint24_linear_1084_254" x1="30.4121" y1="33.3188" x2="31.4127" y2="33.3202" gradientUnits="userSpaceOnUse">
<stop stop-color="#214F89"/>
<stop offset="1" stop-color="#12BCAB"/>
</linearGradient>
<linearGradient id="paint25_linear_1084_254" x1="33.7217" y1="31.8032" x2="34.7222" y2="31.804" gradientUnits="userSpaceOnUse">
<stop stop-color="#214F89"/>
<stop offset="1" stop-color="#12BCAB"/>
</linearGradient>
<linearGradient id="paint26_linear_1084_254" x1="37.0312" y1="33.824" x2="38.0318" y2="33.8259" gradientUnits="userSpaceOnUse">
<stop stop-color="#214F89"/>
<stop offset="1" stop-color="#12BCAB"/>
</linearGradient>
<linearGradient id="paint27_linear_1084_254" x1="46.332" y1="46.9062" x2="54.3305" y2="46.9337" gradientUnits="userSpaceOnUse">
<stop stop-color="#214F89"/>
<stop offset="1" stop-color="#12BCAB"/>
</linearGradient>
<linearGradient id="paint28_linear_1084_254" x1="46.332" y1="14.3888" x2="54.3305" y2="14.4164" gradientUnits="userSpaceOnUse">
<stop stop-color="#214F89"/>
<stop offset="1" stop-color="#12BCAB"/>
</linearGradient>
<linearGradient id="paint29_linear_1084_254" x1="49.8721" y1="26.7969" x2="54.3283" y2="26.8169" gradientUnits="userSpaceOnUse">
<stop stop-color="#214F89"/>
<stop offset="1" stop-color="#12BCAB"/>
</linearGradient>
<linearGradient id="paint30_linear_1084_254" x1="49.8721" y1="36.0471" x2="54.3283" y2="36.0671" gradientUnits="userSpaceOnUse">
<stop stop-color="#214F89"/>
<stop offset="1" stop-color="#12BCAB"/>
</linearGradient>
<linearGradient id="paint31_linear_1084_254" x1="9.67383" y1="46.9062" x2="17.6723" y2="46.9337" gradientUnits="userSpaceOnUse">
<stop stop-color="#214F89"/>
<stop offset="1" stop-color="#12BCAB"/>
</linearGradient>
<linearGradient id="paint32_linear_1084_254" x1="9.67383" y1="14.3888" x2="17.6723" y2="14.4164" gradientUnits="userSpaceOnUse">
<stop stop-color="#214F89"/>
<stop offset="1" stop-color="#12BCAB"/>
</linearGradient>
<linearGradient id="paint33_linear_1084_254" x1="9.67383" y1="26.7969" x2="14.1301" y2="26.8169" gradientUnits="userSpaceOnUse">
<stop stop-color="#214F89"/>
<stop offset="1" stop-color="#12BCAB"/>
</linearGradient>
<linearGradient id="paint34_linear_1084_254" x1="9.67383" y1="36.0471" x2="14.1301" y2="36.0671" gradientUnits="userSpaceOnUse">
<stop stop-color="#214F89"/>
<stop offset="1" stop-color="#12BCAB"/>
</linearGradient>
<linearGradient id="paint35_linear_1084_254" x1="-9.95479e-09" y1="23.6946" x2="64.0349" y2="23.982" gradientUnits="userSpaceOnUse">
<stop stop-color="#214F89"/>
<stop offset="1" stop-color="#12BCAB"/>
</linearGradient>
<clipPath id="clip0_1084_254">
<rect width="46" height="46" fill="white" transform="translate(9 9)"/>
</clipPath>
</defs>
</svg>
