<svg width="64" height="64" viewBox="0 0 64 64" fill="none" xmlns="http://www.w3.org/2000/svg">
<path d="M39.1875 47.8125C39.9814 47.8125 40.625 47.1689 40.625 46.375C40.625 45.5811 39.9814 44.9375 39.1875 44.9375C38.3936 44.9375 37.75 45.5811 37.75 46.375C37.75 47.1689 38.3936 47.8125 39.1875 47.8125Z" fill="url(#paint0_linear_1084_168)"/>
<path d="M34.875 47.8125C35.6689 47.8125 36.3125 47.1689 36.3125 46.375C36.3125 45.5811 35.6689 44.9375 34.875 44.9375C34.0811 44.9375 33.4375 45.5811 33.4375 46.375C33.4375 47.1689 34.0811 47.8125 34.875 47.8125Z" fill="url(#paint1_linear_1084_168)"/>
<path d="M29.125 44.9375H24.8125C24.0186 44.9375 23.375 45.5804 23.375 46.375C23.375 47.1696 24.0186 47.8125 24.8125 47.8125H29.125C29.9189 47.8125 30.5625 47.1696 30.5625 46.375C30.5625 45.5804 29.9189 44.9375 29.125 44.9375Z" fill="url(#paint2_linear_1084_168)"/>
<path d="M40.625 40.625H23.375C20.9969 40.625 19.0625 42.5594 19.0625 44.9375V47.8125C19.0625 50.1906 20.9969 52.125 23.375 52.125H40.625C43.0031 52.125 44.9375 50.1906 44.9375 47.8125V44.9375C44.9375 42.5594 43.0031 40.625 40.625 40.625ZM42.0625 47.8125C42.0625 48.6057 41.4174 49.25 40.625 49.25H23.375C22.5826 49.25 21.9375 48.6057 21.9375 47.8125V44.9375C21.9375 44.1443 22.5826 43.5 23.375 43.5H40.625C41.4174 43.5 42.0625 44.1443 42.0625 44.9375V47.8125Z" fill="url(#paint3_linear_1084_168)"/>
<path d="M51.8927 24.0292C51.6274 23.6207 51.1739 23.375 50.6875 23.375V13.3125C50.6875 12.5179 50.0439 11.875 49.25 11.875H39.1875C38.8064 11.875 38.4407 12.0266 38.1712 12.2961L33.8587 16.6086C33.5891 16.8782 33.4375 17.2432 33.4375 17.625V23.375H30.5625V13.3125C30.5625 12.5179 29.9189 11.875 29.125 11.875H19.0625C18.6814 11.875 18.3157 12.0266 18.0462 12.2961L13.7337 16.6086C13.4641 16.8782 13.3125 17.2432 13.3125 17.625V23.375C12.8029 23.375 12.332 23.6445 12.0737 24.0839C11.8154 24.5219 11.8083 25.0652 12.0561 25.5102L19.2436 38.4477C19.497 38.9039 19.9778 39.1875 20.5 39.1875H44.9375C45.5054 39.1875 46.0206 38.8534 46.2508 38.334L52.0008 25.3965C52.1987 24.9515 52.158 24.4377 51.8927 24.0292ZM39.1875 15.3452V17.625H36.9077L39.1875 15.3452ZM36.3125 20.5H40.625C41.4189 20.5 42.0625 19.8571 42.0625 19.0625V14.75H47.8125V23.375H36.3125V20.5ZM19.0625 15.3452V17.625H16.7827L19.0625 15.3452ZM16.1875 20.5H20.5C21.2939 20.5 21.9375 19.8571 21.9375 19.0625V14.75H27.6875V23.375H16.1875V20.5ZM44.0033 36.3125H21.3458L15.7559 26.25H48.4758L44.0033 36.3125Z" fill="url(#paint4_linear_1084_168)"/>
<path d="M28.1086 29.5461L27.6875 29.9673V29.125C27.6875 28.3304 27.0439 27.6875 26.25 27.6875C25.4561 27.6875 24.8125 28.3304 24.8125 29.125V29.9673L24.3914 29.5461C23.8298 28.9846 22.9202 28.9846 22.3586 29.5461C21.7971 30.1077 21.7971 31.0173 22.3586 31.5789L25.2336 34.4539C25.5144 34.7346 25.8822 34.875 26.25 34.875C26.6178 34.875 26.9856 34.7346 27.2664 34.4539L30.1414 31.5789C30.7029 31.0173 30.7029 30.1077 30.1414 29.5461C29.5798 28.9846 28.6702 28.9846 28.1086 29.5461Z" fill="url(#paint5_linear_1084_168)"/>
<path d="M33.8586 29.5461C33.2971 30.1077 33.2971 31.0173 33.8586 31.5789L36.7336 34.4539C37.0144 34.7346 37.3822 34.875 37.75 34.875C38.1178 34.875 38.4856 34.7346 38.7664 34.4539L41.6414 31.5789C42.2029 31.0173 42.2029 30.1077 41.6414 29.5461C41.0798 28.9846 40.1702 28.9846 39.6086 29.5461L39.1875 29.9673V29.125C39.1875 28.3304 38.5439 27.6875 37.75 27.6875C36.9561 27.6875 36.3125 28.3304 36.3125 29.125V29.9673L35.8914 29.5461C35.3298 28.9846 34.4202 28.9846 33.8586 29.5461Z" fill="url(#paint6_linear_1084_168)"/>
<rect x="0.587156" y="-0.587156" width="62.8257" height="62.8257" rx="8.80734" transform="matrix(1 0 0 -1 0 62.8257)" stroke="url(#paint7_linear_1084_168)" stroke-width="1.17431"/>
<defs>
<linearGradient id="paint0_linear_1084_168" x1="37.75" y1="46.0019" x2="40.6266" y2="46.0148" gradientUnits="userSpaceOnUse">
<stop stop-color="#214F89"/>
<stop offset="1" stop-color="#12BCAB"/>
</linearGradient>
<linearGradient id="paint1_linear_1084_168" x1="33.4375" y1="46.0019" x2="36.3141" y2="46.0148" gradientUnits="userSpaceOnUse">
<stop stop-color="#214F89"/>
<stop offset="1" stop-color="#12BCAB"/>
</linearGradient>
<linearGradient id="paint2_linear_1084_168" x1="23.375" y1="46.0019" x2="30.5657" y2="46.0826" gradientUnits="userSpaceOnUse">
<stop stop-color="#214F89"/>
<stop offset="1" stop-color="#12BCAB"/>
</linearGradient>
<linearGradient id="paint3_linear_1084_168" x1="19.0625" y1="44.8826" x2="44.9495" y2="45.144" gradientUnits="userSpaceOnUse">
<stop stop-color="#214F89"/>
<stop offset="1" stop-color="#12BCAB"/>
</linearGradient>
<linearGradient id="paint4_linear_1084_168" x1="11.875" y1="21.9869" x2="52.1459" y2="22.2532" gradientUnits="userSpaceOnUse">
<stop stop-color="#214F89"/>
<stop offset="1" stop-color="#12BCAB"/>
</linearGradient>
<linearGradient id="paint5_linear_1084_168" x1="21.9375" y1="30.3485" x2="30.5671" y2="30.395" gradientUnits="userSpaceOnUse">
<stop stop-color="#214F89"/>
<stop offset="1" stop-color="#12BCAB"/>
</linearGradient>
<linearGradient id="paint6_linear_1084_168" x1="33.4375" y1="30.3485" x2="42.0671" y2="30.395" gradientUnits="userSpaceOnUse">
<stop stop-color="#214F89"/>
<stop offset="1" stop-color="#12BCAB"/>
</linearGradient>
<linearGradient id="paint7_linear_1084_168" x1="-9.95479e-09" y1="23.6946" x2="64.0349" y2="23.982" gradientUnits="userSpaceOnUse">
<stop stop-color="#214F89"/>
<stop offset="1" stop-color="#12BCAB"/>
</linearGradient>
</defs>
</svg>
