<svg width="64" height="64" viewBox="0 0 64 64" fill="none" xmlns="http://www.w3.org/2000/svg">
<g clip-path="url(#clip0_1088_1048)">
<path d="M34.2012 27.3281C34.2012 27.7001 34.503 28.002 34.875 28.002H35.998V35.998H28.002V28.002H32C32.372 28.002 32.6738 27.7001 32.6738 27.3281C32.6738 26.9561 32.372 26.6543 32 26.6543H27.6875C27.1179 26.6543 26.6543 27.1179 26.6543 27.6875V36.3125C26.6543 36.8821 27.1179 37.3457 27.6875 37.3457H36.3125C36.8821 37.3457 37.3457 36.8821 37.3457 36.3125V27.6875C37.3457 27.1179 36.8821 26.6543 36.3125 26.6543H34.875C34.503 26.6543 34.2012 26.9561 34.2012 27.3281Z" fill="url(#paint0_linear_1088_1048)"/>
<path d="M12.7285 11.6953C12.1589 11.6953 11.6953 12.1589 11.6953 12.7285V17.4004C11.6953 17.97 12.1589 18.4336 12.7285 18.4336H17.4004C17.97 18.4336 18.4336 17.97 18.4336 17.4004V12.7285C18.4336 12.1589 17.97 11.6953 17.4004 11.6953H12.7285ZM17.0859 17.0859H13.043V13.043H17.0859V17.0859Z" fill="url(#paint1_linear_1088_1048)"/>
<path d="M17.4004 45.5664H12.7285C12.1589 45.5664 11.6953 46.03 11.6953 46.5996V51.2715C11.6953 51.8411 12.1589 52.3047 12.7285 52.3047H17.4004C17.97 52.3047 18.4336 51.8411 18.4336 51.2715V46.5996C18.4336 46.03 17.97 45.5664 17.4004 45.5664ZM17.0859 50.957H13.043V46.9141H17.0859V50.957Z" fill="url(#paint2_linear_1088_1048)"/>
<path d="M44.623 21.1289H53.248C54.2142 21.1289 55 20.3431 55 19.377V10.752C55 9.78578 54.2142 9 53.248 9H44.623C43.6569 9 42.8711 9.78578 42.8711 10.752V14.3906H34.7852C34.4131 14.3906 34.1113 14.6924 34.1113 15.0645V23.959H30.4277V21.3275C31.2121 21.0492 31.7754 20.3003 31.7754 19.4219C31.7754 18.3073 30.8685 17.4004 29.7539 17.4004C28.6393 17.4004 27.7324 18.3073 27.7324 19.4219C27.7324 20.3003 28.2957 21.0492 29.0801 21.3275V23.959H26.0696C24.9059 23.959 23.959 24.9059 23.959 26.0696V29.9785H15.7383V21.1289H19.377C20.3431 21.1289 21.1289 20.3431 21.1289 19.377V17.625C21.1289 17.253 20.8271 16.9512 20.4551 16.9512C20.0831 16.9512 19.7812 17.253 19.7812 17.625V19.377C19.7812 19.5998 19.5998 19.7812 19.377 19.7812H10.752C10.5291 19.7812 10.3477 19.5998 10.3477 19.377V10.752C10.3477 10.5291 10.5291 10.3477 10.752 10.3477H19.377C19.5998 10.3477 19.7812 10.5291 19.7812 10.752V14.75C19.7812 15.122 20.0831 15.4238 20.4551 15.4238C20.8271 15.4238 21.1289 15.122 21.1289 14.75V10.752C21.1289 9.78578 20.3431 9 19.377 9H10.752C9.78578 9 9 9.78578 9 10.752V19.377C9 20.3431 9.78578 21.1289 10.752 21.1289H14.3906V30.6523C14.3906 31.0244 14.6924 31.3262 15.0645 31.3262H23.959V34.2012H23.0346C22.7563 33.4168 22.0073 32.8535 21.1289 32.8535C20.0143 32.8535 19.1074 33.7604 19.1074 34.875C19.1074 35.9896 20.0143 36.8965 21.1289 36.8965C22.0073 36.8965 22.7563 36.3332 23.0346 35.5488H23.959V37.9304C23.959 39.0941 24.9059 40.041 26.0696 40.041H29.0801V48.0448H21.1289V44.623C21.1289 43.6569 20.3431 42.8711 19.377 42.8711H10.752C9.78578 42.8711 9 43.6569 9 44.623V53.248C9 54.2142 9.78578 55 10.752 55H19.377C20.3431 55 21.1289 54.2142 21.1289 53.248V49.3925H29.7539C30.1259 49.3925 30.4277 49.0907 30.4277 48.7187V40.041H34.1113V43.0318C33.327 43.3101 32.7637 44.0591 32.7637 44.9375C32.7637 46.0521 33.6705 46.959 34.7852 46.959C35.8998 46.959 36.8066 46.0521 36.8066 44.9375C36.8066 44.0591 36.2434 43.3101 35.459 43.0318V40.041H37.9304C39.0941 40.041 40.041 39.0941 40.041 37.9304V33.3431H48.2628V42.8711H44.623C43.6569 42.8711 42.8711 43.6569 42.8711 44.623V46.375C42.8711 46.747 43.1729 47.0488 43.5449 47.0488C43.9169 47.0488 44.2188 46.747 44.2188 46.375V44.623C44.2188 44.4002 44.4002 44.2188 44.623 44.2188H53.248C53.4709 44.2188 53.6523 44.4002 53.6523 44.623V53.248C53.6523 53.4709 53.4709 53.6523 53.248 53.6523H44.623C44.4002 53.6523 44.2188 53.4709 44.2188 53.248V49.2388C44.2188 48.8668 43.9169 48.5649 43.5449 48.5649C43.1729 48.5649 42.8711 48.8668 42.8711 49.2388V53.248C42.8711 54.2142 43.6569 55 44.623 55H53.248C54.2142 55 55 54.2142 55 53.248V44.623C55 43.6569 54.2142 42.8711 53.248 42.8711H49.6104V32.6693C49.6104 32.2973 49.3086 31.9954 48.9366 31.9954H40.041V29.709H43.2519C43.5302 30.4934 44.2791 31.0566 45.1575 31.0566C46.2722 31.0566 47.179 30.1498 47.179 29.0352C47.179 27.9205 46.2722 27.0137 45.1575 27.0137C44.2791 27.0137 43.5302 27.577 43.2519 28.3613H40.041V26.0696C40.041 24.9059 39.0941 23.959 37.9304 23.959H35.459V15.7383H42.8711V19.377C42.8711 20.3431 43.6569 21.1289 44.623 21.1289ZM29.7539 18.748C30.1256 18.748 30.4277 19.0502 30.4277 19.4219C30.4277 19.7935 30.1256 20.0957 29.7539 20.0957C29.3822 20.0957 29.0801 19.7935 29.0801 19.4219C29.0801 19.0502 29.3822 18.748 29.7539 18.748ZM21.1289 35.5488C20.7572 35.5488 20.4551 35.2467 20.4551 34.875C20.4551 34.5033 20.7572 34.2012 21.1289 34.2012C21.5006 34.2012 21.8027 34.5033 21.8027 34.875C21.8027 35.2467 21.5006 35.5488 21.1289 35.5488ZM19.7812 53.248C19.7812 53.4709 19.5998 53.6523 19.377 53.6523H10.752C10.5291 53.6523 10.3477 53.4709 10.3477 53.248V44.623C10.3477 44.4002 10.5291 44.2188 10.752 44.2188H19.377C19.5998 44.2188 19.7812 44.4002 19.7812 44.623V53.248ZM34.7852 45.6113C34.4135 45.6113 34.1113 45.3092 34.1113 44.9375C34.1113 44.5658 34.4135 44.2637 34.7852 44.2637C35.1568 44.2637 35.459 44.5658 35.459 44.9375C35.459 45.3092 35.1568 45.6113 34.7852 45.6113ZM45.1575 28.3613C45.5292 28.3613 45.8314 28.6635 45.8314 29.0352C45.8314 29.4068 45.5292 29.709 45.1575 29.709C44.7859 29.709 44.4837 29.4068 44.4837 29.0352C44.4837 28.6635 44.7859 28.3613 45.1575 28.3613ZM38.6934 26.0696V37.9304C38.6934 38.3512 38.3512 38.6934 37.9304 38.6934H26.0696C25.6488 38.6934 25.3066 38.3512 25.3066 37.9304V26.0696C25.3066 25.6488 25.6488 25.3066 26.0696 25.3066H37.9304C38.3512 25.3066 38.6934 25.6488 38.6934 26.0696ZM44.623 10.3477H53.248C53.4709 10.3477 53.6523 10.5291 53.6523 10.752V19.377C53.6523 19.5998 53.4709 19.7812 53.248 19.7812H44.623C44.4002 19.7812 44.2188 19.5998 44.2188 19.377V15.082C44.2191 15.076 44.2198 15.0704 44.2198 15.0645C44.2198 15.0585 44.2191 15.0529 44.2188 15.0469V10.752C44.2188 10.5291 44.4002 10.3477 44.623 10.3477Z" fill="url(#paint3_linear_1088_1048)"/>
<path d="M46.5996 18.4336H51.2715C51.8411 18.4336 52.3047 17.97 52.3047 17.4004V12.7285C52.3047 12.1589 51.8411 11.6953 51.2715 11.6953H46.5996C46.03 11.6953 45.5664 12.1589 45.5664 12.7285V17.4004C45.5664 17.97 46.03 18.4336 46.5996 18.4336ZM46.9141 13.043H50.957V17.0859H46.9141V13.043Z" fill="url(#paint4_linear_1088_1048)"/>
<path d="M51.2715 52.3047C51.8411 52.3047 52.3047 51.8411 52.3047 51.2715V46.5996C52.3047 46.03 51.8411 45.5664 51.2715 45.5664H46.5996C46.03 45.5664 45.5664 46.03 45.5664 46.5996V51.2715C45.5664 51.8411 46.03 52.3047 46.5996 52.3047H51.2715ZM46.9141 46.9141H50.957V50.957H46.9141V46.9141Z" fill="url(#paint5_linear_1088_1048)"/>
</g>
<rect x="0.587156" y="-0.587156" width="62.8257" height="62.8257" rx="8.80734" transform="matrix(1 0 0 -1 0 62.8257)" stroke="url(#paint6_linear_1088_1048)" stroke-width="1.17431"/>
<defs>
<linearGradient id="paint0_linear_1088_1048" x1="26.6543" y1="30.6126" x2="37.3515" y2="30.6606" gradientUnits="userSpaceOnUse">
<stop stop-color="#214F89"/>
<stop offset="1" stop-color="#12BCAB"/>
</linearGradient>
<linearGradient id="paint1_linear_1088_1048" x1="11.6953" y1="14.19" x2="18.4373" y2="14.2203" gradientUnits="userSpaceOnUse">
<stop stop-color="#214F89"/>
<stop offset="1" stop-color="#12BCAB"/>
</linearGradient>
<linearGradient id="paint2_linear_1088_1048" x1="11.6953" y1="48.0611" x2="18.4373" y2="48.0914" gradientUnits="userSpaceOnUse">
<stop stop-color="#214F89"/>
<stop offset="1" stop-color="#12BCAB"/>
</linearGradient>
<linearGradient id="paint3_linear_1088_1048" x1="9" y1="26.0305" x2="55.0251" y2="26.2371" gradientUnits="userSpaceOnUse">
<stop stop-color="#214F89"/>
<stop offset="1" stop-color="#12BCAB"/>
</linearGradient>
<linearGradient id="paint4_linear_1088_1048" x1="45.5664" y1="14.19" x2="52.3084" y2="14.2203" gradientUnits="userSpaceOnUse">
<stop stop-color="#214F89"/>
<stop offset="1" stop-color="#12BCAB"/>
</linearGradient>
<linearGradient id="paint5_linear_1088_1048" x1="45.5664" y1="48.0611" x2="52.3084" y2="48.0914" gradientUnits="userSpaceOnUse">
<stop stop-color="#214F89"/>
<stop offset="1" stop-color="#12BCAB"/>
</linearGradient>
<linearGradient id="paint6_linear_1088_1048" x1="-9.95479e-09" y1="23.6946" x2="64.0349" y2="23.982" gradientUnits="userSpaceOnUse">
<stop stop-color="#214F89"/>
<stop offset="1" stop-color="#12BCAB"/>
</linearGradient>
<clipPath id="clip0_1088_1048">
<rect width="46" height="46" fill="white" transform="translate(9 9)"/>
</clipPath>
</defs>
</svg>
