<svg width="63" height="62" viewBox="0 0 63 62" fill="none" xmlns="http://www.w3.org/2000/svg">
<g clip-path="url(#clip0_190_1148)">
<path d="M49.7852 0H13.2148C6.20388 0 0.5 5.70388 0.5 12.7148V49.2852C0.5 56.2961 6.20388 62 13.2148 62H49.7852C56.7961 62 62.5 56.2961 62.5 49.2852V12.7148C62.5 5.70388 56.7961 0 49.7852 0ZM45.8743 17.6797L31.4949 32.059L17.1156 17.6797H45.8743ZM12.9429 40.9337C12.8077 40.6796 12.7305 40.3899 12.7305 40.082V19.4961C12.7305 19.1883 12.8077 18.8985 12.9429 18.6444L24.0875 29.7891L12.9429 40.9337ZM17.1156 41.8984L26.6562 32.3578L31.495 37.1966L36.3388 32.3529L45.8844 41.8984H17.1156ZM50.2695 40.082C50.2695 40.3899 50.1923 40.6796 50.0571 40.9337L38.9074 29.7841L50.0537 18.6377C50.1913 18.8933 50.2695 19.1855 50.2695 19.4961V40.082Z" fill="white"/>
</g>
<defs>
<clipPath id="clip0_190_1148">
<rect width="62" height="62" fill="white" transform="translate(0.5)"/>
</clipPath>
</defs>
</svg>
