<svg width="64" height="64" viewBox="0 0 64 64" fill="none" xmlns="http://www.w3.org/2000/svg">
<g clip-path="url(#clip0_143_5351)">
<path d="M55.4375 49.9687H54.6562V47.625C54.6562 47.1937 54.3063 46.8437 53.875 46.8437H53.0938V30.7265C53.2359 30.6023 53.3773 30.4773 53.5125 30.3422L53.7805 30.0742C55.3531 28.5023 56.2188 26.4117 56.2188 24.1875C56.2188 21.4765 55.4242 18.8523 53.9211 16.5976L48.275 8.12888C47.9852 7.69373 47.2648 7.69373 46.975 8.12888L42.9242 14.2054L32.4023 7.89294C32.1547 7.74451 31.8461 7.74451 31.5984 7.89294L8.16094 21.9554L8.16797 21.9672C7.94062 22.1031 7.78125 22.3406 7.78125 22.625V27.3125C7.78125 27.7437 8.13125 28.0937 8.5625 28.0937H9.34375V30.4375C9.34375 30.8687 9.69375 31.2187 10.125 31.2187H10.9062V46.8437H10.125C9.69375 46.8437 9.34375 47.1937 9.34375 47.625V49.9687H8.5625C8.13125 49.9687 7.78125 50.3187 7.78125 50.75V55.4375C7.78125 55.8687 8.13125 56.2187 8.5625 56.2187H55.4375C55.8688 56.2187 56.2188 55.8687 56.2188 55.4375V50.75C56.2188 50.3187 55.8688 49.9687 55.4375 49.9687ZM46.8438 49.9687V48.4062H53.0938V49.9687H46.8438ZM26.5312 49.9687V37.4687H31.2188V49.9687H26.5312ZM32.7812 37.4687H37.4688V49.9687H32.7812V37.4687ZM38.25 35.9062H25.75C25.3188 35.9062 24.9688 36.2562 24.9688 36.6875V49.9687H18.7188V47.625C18.7188 47.1937 18.3687 46.8437 17.9375 46.8437H17.1562V31.2187H17.9375C18.3687 31.2187 18.7188 30.8687 18.7188 30.4375V28.0937H39.9781V28.0461C40.2797 28.6211 40.6547 29.1586 41.0906 29.6562H22.625C22.1938 29.6562 21.8438 30.0062 21.8438 30.4375V33.5625C21.8438 33.9937 22.1938 34.3437 22.625 34.3437H41.375C41.8063 34.3437 42.1562 33.9937 42.1562 33.5625V30.7265C43.4766 31.8812 45.1023 32.5844 46.8438 32.7453V46.8437H46.0625C45.6312 46.8437 45.2812 47.1937 45.2812 47.625V49.9687H39.0312V36.6875C39.0312 36.2562 38.6812 35.9062 38.25 35.9062ZM9.34375 26.5312V23.4062H39.0602C39.0453 23.6656 39.0312 23.9258 39.0312 24.1875C39.0312 24.9929 39.1484 25.7789 39.368 26.5312H9.34375ZM40.5938 31.2187V32.7812H23.4062V31.2187H40.5938ZM51.5312 46.8437H48.4062V32.7453C49.5109 32.6429 50.5672 32.3179 51.5312 31.8039V46.8437ZM47.625 9.97107L52.6211 17.4648C53.9523 19.4617 54.6562 21.7867 54.6562 24.1875C54.6562 25.9937 53.9531 27.6922 52.675 28.9703L52.407 29.2383C51.1297 30.5156 49.4313 31.2187 47.625 31.2187C45.8187 31.2187 44.1203 30.5156 42.8422 29.2375L42.5742 28.9695C41.2969 27.6922 40.5938 25.9937 40.5938 24.1875C40.5938 21.7867 41.2977 19.4617 42.6289 17.4648L47.625 9.97107ZM32 9.47341L42.0563 15.507L41.3289 16.5976C40.2648 18.1937 39.5633 19.9773 39.2398 21.8437H11.3828L32 9.47341ZM17.1562 28.0937V29.6562H10.9062V28.0937H17.1562ZM12.4688 31.2187H15.5938V46.8437H12.4688V31.2187ZM10.9062 48.4062H17.1562V49.9687H10.9062V48.4062ZM54.6562 54.6562H9.34375V51.5312H54.6562V54.6562Z" fill="url(#paint0_linear_143_5351)"/>
<path d="M32 20.2812C34.1539 20.2812 35.9062 18.5289 35.9062 16.375C35.9062 14.2211 34.1539 12.4688 32 12.4688C29.8461 12.4688 28.0938 14.2211 28.0938 16.375C28.0938 18.5289 29.8461 20.2812 32 20.2812ZM32 14.0312C33.2922 14.0312 34.3438 15.0828 34.3438 16.375C34.3438 17.6672 33.2922 18.7188 32 18.7188C30.7078 18.7188 29.6562 17.6672 29.6562 16.375C29.6562 15.0828 30.7078 14.0312 32 14.0312Z" fill="url(#paint1_linear_143_5351)"/>
<path d="M42.1562 22.625V25.75C42.1562 26.1813 42.5063 26.5312 42.9375 26.5312H45.2812V28.875C45.2812 29.3062 45.6312 29.6562 46.0625 29.6562H49.1875C49.6188 29.6562 49.9688 29.3062 49.9688 28.875V26.5312H52.3125C52.7437 26.5312 53.0938 26.1813 53.0938 25.75V22.625C53.0938 22.1937 52.7437 21.8438 52.3125 21.8438H49.9688V19.5C49.9688 19.0688 49.6188 18.7188 49.1875 18.7188H46.0625C45.6312 18.7188 45.2812 19.0688 45.2812 19.5V21.8438H42.9375C42.5063 21.8438 42.1562 22.1937 42.1562 22.625ZM43.7188 23.4062H46.0625C46.4938 23.4062 46.8438 23.0563 46.8438 22.625V20.2812H48.4062V22.625C48.4062 23.0563 48.7562 23.4062 49.1875 23.4062H51.5312V24.9688H49.1875C48.7562 24.9688 48.4062 25.3187 48.4062 25.75V28.0938H46.8438V25.75C46.8438 25.3187 46.4938 24.9688 46.0625 24.9688H43.7188V23.4062Z" fill="url(#paint2_linear_143_5351)"/>
</g>
<rect x="0.587156" y="-0.587156" width="62.8257" height="62.8257" rx="8.80734" transform="matrix(1 0 0 -1 0 62.8257)" stroke="url(#paint3_linear_143_5351)" stroke-width="1.17431"/>
<defs>
<linearGradient id="paint0_linear_143_5351" x1="7.78125" y1="25.7144" x2="56.2452" y2="25.9319" gradientUnits="userSpaceOnUse">
<stop stop-color="#214F89"/>
<stop offset="1" stop-color="#12BCAB"/>
</linearGradient>
<linearGradient id="paint1_linear_143_5351" x1="28.0937" y1="15.3612" x2="35.9105" y2="15.3962" gradientUnits="userSpaceOnUse">
<stop stop-color="#214F89"/>
<stop offset="1" stop-color="#12BCAB"/>
</linearGradient>
<linearGradient id="paint2_linear_143_5351" x1="42.1562" y1="22.7681" x2="53.0997" y2="22.8172" gradientUnits="userSpaceOnUse">
<stop stop-color="#214F89"/>
<stop offset="1" stop-color="#12BCAB"/>
</linearGradient>
<linearGradient id="paint3_linear_143_5351" x1="-9.95479e-09" y1="23.6946" x2="64.0349" y2="23.982" gradientUnits="userSpaceOnUse">
<stop stop-color="#214F89"/>
<stop offset="1" stop-color="#12BCAB"/>
</linearGradient>
<clipPath id="clip0_143_5351">
<rect width="50" height="50" fill="white" transform="translate(7 7)"/>
</clipPath>
</defs>
</svg>
