<svg width="64" height="64" viewBox="0 0 64 64" fill="none" xmlns="http://www.w3.org/2000/svg">
<path d="M50.75 12.4688H52.3125V14.0312H50.75V12.4688Z" fill="url(#paint0_linear_143_5335)"/>
<path d="M55.4375 29.6562V11.8828C55.437 11.4168 55.2516 10.97 54.922 10.6405C54.5925 10.3109 54.1457 10.1255 53.6797 10.125H17.9375V11.6875H53.6797C53.7315 11.6875 53.7812 11.7081 53.8178 11.7447C53.8544 11.7813 53.875 11.831 53.875 11.8828V14.8125H10.125V11.8828C10.125 11.831 10.1456 11.7813 10.1822 11.7447C10.2188 11.7081 10.2685 11.6875 10.3203 11.6875H16.375V10.125H10.3203C9.85428 10.1255 9.40749 10.3109 9.07795 10.6405C8.74841 10.97 8.56304 11.4168 8.5625 11.8828V45.8672C8.56304 46.3332 8.74841 46.78 9.07795 47.1095C9.40749 47.4391 9.85428 47.6245 10.3203 47.625H26.2676C26.0916 48.0249 25.834 48.3837 25.5114 48.6785C25.1889 48.9732 24.8083 49.1974 24.3941 49.3366L23.7131 49.5637C23.1684 49.7448 22.6947 50.0929 22.3591 50.5585C22.0236 51.0242 21.8432 51.5837 21.8438 52.1577V53.0938C21.8438 53.3009 21.9261 53.4997 22.0726 53.6462C22.2191 53.7927 22.4178 53.875 22.625 53.875H41.375C41.5822 53.875 41.7809 53.7927 41.9274 53.6462C42.0739 53.4997 42.1562 53.3009 42.1562 53.0938V52.1577C42.1567 51.5837 41.9764 51.0241 41.6407 50.5584C41.3051 50.0928 40.8312 49.7447 40.2865 49.5637L39.6056 49.3366C39.1915 49.1973 38.811 48.9731 38.4884 48.6784C38.1659 48.3837 37.9084 48.0249 37.7324 47.625H53.6797C54.1457 47.6245 54.5925 47.4391 54.922 47.1095C55.2516 46.78 55.437 46.3332 55.4375 45.8672V31.2188H53.875V39.8125H10.125V16.375H53.875V29.6562H55.4375ZM39.1114 50.819L39.7925 51.046C40.0258 51.1237 40.2288 51.2729 40.3725 51.4725C40.5162 51.672 40.5935 51.9118 40.5933 52.1577V52.3125H23.4062V52.1577C23.406 51.9117 23.4833 51.6719 23.6272 51.4723C23.771 51.2728 23.9741 51.1236 24.2075 51.046L24.8887 50.819C25.6164 50.5741 26.2732 50.1551 26.802 49.5984C27.3308 49.0418 27.7156 48.3643 27.9229 47.625H36.0771C36.2844 48.3643 36.6692 49.0418 37.198 49.5985C37.7268 50.1551 38.3837 50.5742 39.1114 50.819ZM53.875 41.375V45.8672C53.875 45.919 53.8544 45.9687 53.8178 46.0053C53.7812 46.0419 53.7315 46.0625 53.6797 46.0625H10.3203C10.2685 46.0625 10.2188 46.0419 10.1822 46.0053C10.1456 45.9687 10.125 45.919 10.125 45.8672V41.375H53.875Z" fill="url(#paint1_linear_143_5335)"/>
<path d="M29.6562 42.9375H34.3438V44.5H29.6562V42.9375Z" fill="url(#paint2_linear_143_5335)"/>
<path d="M11.6875 12.4688H13.25V14.0312H11.6875V12.4688Z" fill="url(#paint3_linear_143_5335)"/>
<path d="M14.8125 12.4688H16.375V14.0312H14.8125V12.4688Z" fill="url(#paint4_linear_143_5335)"/>
<path d="M17.9375 12.4688H19.5V14.0312H17.9375V12.4688Z" fill="url(#paint5_linear_143_5335)"/>
<path d="M47.625 12.4688H49.1875V14.0312H47.625V12.4688Z" fill="url(#paint6_linear_143_5335)"/>
<path d="M28.875 35.9062H35.125C35.3322 35.9062 35.5309 35.8239 35.6774 35.6774C35.8239 35.5309 35.9062 35.3322 35.9062 35.125V32H39.0312C39.2385 32 39.4372 31.9177 39.5837 31.7712C39.7302 31.6247 39.8125 31.426 39.8125 31.2188V24.9688C39.8125 24.7615 39.7302 24.5628 39.5837 24.4163C39.4372 24.2698 39.2385 24.1875 39.0312 24.1875H35.9062V21.0625C35.9062 20.8553 35.8239 20.6566 35.6774 20.5101C35.5309 20.3636 35.3322 20.2812 35.125 20.2812H28.875C28.6678 20.2812 28.4691 20.3636 28.3226 20.5101C28.1761 20.6566 28.0938 20.8553 28.0938 21.0625V24.1875H24.9688C24.7615 24.1875 24.5628 24.2698 24.4163 24.4163C24.2698 24.5628 24.1875 24.7615 24.1875 24.9688V31.2188C24.1875 31.426 24.2698 31.6247 24.4163 31.7712C24.5628 31.9177 24.7615 32 24.9688 32H28.0938V35.125C28.0938 35.3322 28.1761 35.5309 28.3226 35.6774C28.4691 35.8239 28.6678 35.9062 28.875 35.9062ZM25.75 30.4375V25.75H28.875C29.0822 25.75 29.2809 25.6677 29.4274 25.5212C29.5739 25.3747 29.6562 25.176 29.6562 24.9688V21.8438H34.3438V24.9688C34.3438 25.176 34.4261 25.3747 34.5726 25.5212C34.7191 25.6677 34.9178 25.75 35.125 25.75H38.25V30.4375H35.125C34.9178 30.4375 34.7191 30.5198 34.5726 30.6663C34.4261 30.8128 34.3438 31.0115 34.3438 31.2188V34.3438H29.6562V31.2188C29.6562 31.0115 29.5739 30.8128 29.4274 30.6663C29.2809 30.5198 29.0822 30.4375 28.875 30.4375H25.75Z" fill="url(#paint7_linear_143_5335)"/>
<path d="M47.625 37.4687C48.156 37.469 48.6783 37.334 49.1426 37.0764C49.6069 36.8188 49.9979 36.4472 50.2788 35.9966C50.5596 35.546 50.721 35.0312 50.7477 34.5009C50.7744 33.9706 50.6655 33.4422 50.4314 32.9657C50.1972 32.4891 49.8455 32.0801 49.4094 31.7772C48.9733 31.4743 48.4672 31.2875 47.9389 31.2344C47.4106 31.1813 46.8775 31.2638 46.3899 31.4739C45.9022 31.684 45.4762 32.015 45.152 32.4355L41.6221 31.2588L41.1279 32.7412L44.5349 33.8769C44.4679 34.3216 44.4976 34.7756 44.6222 35.2079C44.7467 35.6401 44.963 36.0404 45.2563 36.3814C45.5497 36.7223 45.9132 36.996 46.3219 37.1837C46.7307 37.3713 47.1752 37.4686 47.625 37.4687ZM47.625 32.7813C47.934 32.7813 48.2361 32.8729 48.4931 33.0446C48.75 33.2163 48.9503 33.4603 49.0686 33.7458C49.1868 34.0313 49.2178 34.3455 49.1575 34.6486C49.0972 34.9517 48.9484 35.2301 48.7299 35.4486C48.5113 35.6671 48.2329 35.8159 47.9298 35.8762C47.6267 35.9365 47.3126 35.9056 47.0271 35.7873C46.7415 35.6691 46.4975 35.4688 46.3258 35.2118C46.1541 34.9549 46.0625 34.6528 46.0625 34.3438C46.063 33.9295 46.2278 33.5324 46.5207 33.2394C46.8136 32.9465 47.2107 32.7817 47.625 32.7813Z" fill="url(#paint8_linear_143_5335)"/>
<path d="M22.3779 31.2588L18.848 32.4355C18.3845 31.8372 17.7188 31.4283 16.9755 31.2855C16.2323 31.1426 15.4624 31.2756 14.8101 31.6594C14.1578 32.0432 13.6677 32.6516 13.4316 33.3707C13.1955 34.0898 13.2296 34.8703 13.5275 35.5661C13.8254 36.2619 14.3666 36.8252 15.0499 37.1507C15.7332 37.4762 16.5117 37.5415 17.2397 37.3344C17.9677 37.1273 18.5952 36.662 19.0048 36.0256C19.4145 35.3892 19.5781 34.6253 19.4651 33.8769L22.8721 32.7412L22.3779 31.2588ZM16.375 35.9063C16.066 35.9063 15.7639 35.8146 15.5069 35.6429C15.25 35.4713 15.0497 35.2272 14.9314 34.9417C14.8132 34.6562 14.7822 34.342 14.8425 34.0389C14.9028 33.7358 15.0516 33.4574 15.2701 33.2389C15.4887 33.0204 15.7671 32.8716 16.0702 32.8113C16.3733 32.751 16.6874 32.7819 16.9729 32.9002C17.2585 33.0185 17.5025 33.2187 17.6742 33.4757C17.8459 33.7326 17.9375 34.0347 17.9375 34.3438C17.937 34.758 17.7722 35.1552 17.4793 35.4481C17.1864 35.741 16.7893 35.9058 16.375 35.9063Z" fill="url(#paint9_linear_143_5335)"/>
<path d="M47.625 18.7188C47.1752 18.7189 46.7307 18.8162 46.3219 19.0038C45.9132 19.1915 45.5497 19.4652 45.2563 19.8061C44.963 20.1471 44.7467 20.5474 44.6222 20.9796C44.4976 21.4119 44.4679 21.8659 44.5349 22.3106L41.1279 23.4463L41.6221 24.9287L45.152 23.7521C45.4762 24.1723 45.9022 24.503 46.3897 24.713C46.8773 24.9229 47.4102 25.0052 47.9384 24.9521C48.4665 24.899 48.9724 24.7122 49.4083 24.4093C49.8443 24.1064 50.1959 23.6975 50.4299 23.2211C50.664 22.7447 50.7729 22.2165 50.7462 21.6864C50.7196 21.1562 50.5583 20.6416 50.2776 20.1911C49.9969 19.7406 49.6061 19.369 49.142 19.1114C48.6779 18.8538 48.1558 18.7186 47.625 18.7188ZM47.625 23.4063C47.316 23.4063 47.0139 23.3146 46.7569 23.1429C46.5 22.9712 46.2997 22.7272 46.1814 22.4417C46.0632 22.1562 46.0322 21.842 46.0925 21.5389C46.1528 21.2358 46.3016 20.9574 46.5201 20.7389C46.7387 20.5204 47.0171 20.3716 47.3202 20.3113C47.6233 20.251 47.9374 20.2819 48.2229 20.4002C48.5085 20.5185 48.7525 20.7187 48.9242 20.9757C49.0959 21.2326 49.1875 21.5347 49.1875 21.8438C49.187 22.258 49.0222 22.6551 48.7293 22.9481C48.4364 23.241 48.0393 23.4058 47.625 23.4063Z" fill="url(#paint10_linear_143_5335)"/>
<path d="M19.4652 22.3107C19.58 21.5577 19.4163 20.7887 19.0048 20.1477C18.5933 19.5068 17.9621 19.0379 17.2297 18.8289C16.4972 18.6199 15.7137 18.6852 15.0259 19.0125C14.3382 19.3398 13.7933 19.9067 13.4936 20.6069C13.1938 21.3071 13.1596 22.0926 13.3975 22.8162C13.6354 23.5398 14.1289 24.1519 14.7857 24.5376C15.4425 24.9234 16.2174 25.0564 16.9652 24.9118C17.713 24.7672 18.3825 24.3549 18.8481 23.7521L22.3779 24.9287L22.8721 23.4463L19.4652 22.3107ZM16.375 23.4063C16.066 23.4063 15.7639 23.3146 15.5069 23.1429C15.25 22.9713 15.0497 22.7272 14.9315 22.4417C14.8132 22.1562 14.7822 21.842 14.8425 21.5389C14.9028 21.2359 15.0516 20.9574 15.2702 20.7389C15.4887 20.5204 15.7671 20.3716 16.0702 20.3113C16.3733 20.251 16.6874 20.282 16.973 20.4002C17.2585 20.5185 17.5025 20.7187 17.6742 20.9757C17.8459 21.2326 17.9375 21.5347 17.9375 21.8438C17.937 22.258 17.7722 22.6552 17.4793 22.9481C17.1864 23.241 16.7893 23.4058 16.375 23.4063Z" fill="url(#paint11_linear_143_5335)"/>
<rect x="0.587156" y="-0.587156" width="62.8257" height="62.8257" rx="8.80734" transform="matrix(1 0 0 -1 0 62.8257)" stroke="url(#paint12_linear_143_5335)" stroke-width="1.17431"/>
<defs>
<linearGradient id="paint0_linear_143_5335" x1="50.75" y1="13.0472" x2="52.3134" y2="13.0542" gradientUnits="userSpaceOnUse">
<stop stop-color="#214F89"/>
<stop offset="1" stop-color="#12BCAB"/>
</linearGradient>
<linearGradient id="paint1_linear_143_5335" x1="8.5625" y1="26.3225" x2="55.4629" y2="26.548" gradientUnits="userSpaceOnUse">
<stop stop-color="#214F89"/>
<stop offset="1" stop-color="#12BCAB"/>
</linearGradient>
<linearGradient id="paint2_linear_143_5335" x1="29.6562" y1="43.516" x2="34.3455" y2="43.5791" gradientUnits="userSpaceOnUse">
<stop stop-color="#214F89"/>
<stop offset="1" stop-color="#12BCAB"/>
</linearGradient>
<linearGradient id="paint3_linear_143_5335" x1="11.6875" y1="13.0472" x2="13.2509" y2="13.0542" gradientUnits="userSpaceOnUse">
<stop stop-color="#214F89"/>
<stop offset="1" stop-color="#12BCAB"/>
</linearGradient>
<linearGradient id="paint4_linear_143_5335" x1="14.8125" y1="13.0472" x2="16.3759" y2="13.0542" gradientUnits="userSpaceOnUse">
<stop stop-color="#214F89"/>
<stop offset="1" stop-color="#12BCAB"/>
</linearGradient>
<linearGradient id="paint5_linear_143_5335" x1="17.9375" y1="13.0472" x2="19.5009" y2="13.0542" gradientUnits="userSpaceOnUse">
<stop stop-color="#214F89"/>
<stop offset="1" stop-color="#12BCAB"/>
</linearGradient>
<linearGradient id="paint6_linear_143_5335" x1="47.625" y1="13.0472" x2="49.1884" y2="13.0542" gradientUnits="userSpaceOnUse">
<stop stop-color="#214F89"/>
<stop offset="1" stop-color="#12BCAB"/>
</linearGradient>
<linearGradient id="paint7_linear_143_5335" x1="24.1875" y1="26.0661" x2="39.821" y2="26.1362" gradientUnits="userSpaceOnUse">
<stop stop-color="#214F89"/>
<stop offset="1" stop-color="#12BCAB"/>
</linearGradient>
<linearGradient id="paint8_linear_143_5335" x1="41.1279" y1="33.5327" x2="50.7566" y2="33.5992" gradientUnits="userSpaceOnUse">
<stop stop-color="#214F89"/>
<stop offset="1" stop-color="#12BCAB"/>
</linearGradient>
<linearGradient id="paint9_linear_143_5335" x1="13.2764" y1="33.5337" x2="22.877" y2="33.6002" gradientUnits="userSpaceOnUse">
<stop stop-color="#214F89"/>
<stop offset="1" stop-color="#12BCAB"/>
</linearGradient>
<linearGradient id="paint10_linear_143_5335" x1="41.1279" y1="21.0323" x2="50.7551" y2="21.0988" gradientUnits="userSpaceOnUse">
<stop stop-color="#214F89"/>
<stop offset="1" stop-color="#12BCAB"/>
</linearGradient>
<linearGradient id="paint11_linear_143_5335" x1="13.241" y1="21.0264" x2="22.8771" y2="21.093" gradientUnits="userSpaceOnUse">
<stop stop-color="#214F89"/>
<stop offset="1" stop-color="#12BCAB"/>
</linearGradient>
<linearGradient id="paint12_linear_143_5335" x1="-9.95479e-09" y1="23.6946" x2="64.0349" y2="23.982" gradientUnits="userSpaceOnUse">
<stop stop-color="#214F89"/>
<stop offset="1" stop-color="#12BCAB"/>
</linearGradient>
</defs>
</svg>
