<svg width="64" height="64" viewBox="0 0 64 64" fill="none" xmlns="http://www.w3.org/2000/svg">
<g clip-path="url(#clip0_110_3383)">
<path d="M48.8666 9.44931C48.5799 9.16074 48.1894 8.99893 47.7826 9.00001H44.2666C43.4198 9.00001 42.7333 9.6865 42.7333 10.5334V22.8C42.7333 23.6469 43.4198 24.3334 44.2666 24.3334H48.8666V25.8667C48.8666 26.2902 48.5233 26.6334 48.1 26.6334H32.7666V24.3334H36.6C37.4469 24.3334 38.1334 23.6469 38.1334 22.8V16.2174C38.1324 15.811 37.9709 15.4214 37.6841 15.1334L32 9.44931C31.7132 9.16074 31.3228 8.99893 30.9159 9.00001H27.4C26.5531 9.00001 25.8666 9.6865 25.8666 10.5334V22.8C25.8666 23.6469 26.5531 24.3334 27.4 24.3334H31.2334V26.6334H15.9C15.4766 26.6334 15.1334 26.2901 15.1334 25.8667V24.3334H19.7334C20.5802 24.3334 21.2667 23.6469 21.2667 22.8V16.2174C21.2657 15.811 21.1043 15.4214 20.8174 15.1334L15.1334 9.44931C14.8465 9.16074 14.4561 8.99893 14.0493 9.00001H10.5334C9.6865 9.00001 9 9.6865 9 10.5334V22.8C9 23.6469 9.6865 24.3334 10.5334 24.3334H13.6V25.8667C13.6 27.137 14.6298 28.1667 15.9 28.1667H31.2334V29.7H18.2C16.5064 29.7 15.1334 31.073 15.1334 32.7666V51.9333C15.1334 53.627 16.5064 55 18.2 55H45.8C47.4936 55 48.8666 53.627 48.8666 51.9334V32.7666C48.8666 31.073 47.4936 29.7 45.8 29.7H32.7666V28.1666H48.1C49.3702 28.1666 50.4 27.1369 50.4 25.8666V24.3333H53.4666C54.3135 24.3333 55 23.6468 55 22.7999V16.2174C54.999 15.811 54.8376 15.4214 54.5507 15.1334L48.8666 9.44931ZM35.5159 15.1334H32V11.6174L35.5159 15.1334ZM27.4 10.5334H30.4666V15.1334C30.4666 15.9802 31.1531 16.6667 32 16.6667H36.6V22.8H27.4V10.5334ZM18.6493 15.1334H15.1334V11.6174L18.6493 15.1334ZM10.5334 10.5334H13.6V15.1334C13.6 15.9802 14.2865 16.6667 15.1334 16.6667H19.7334V22.8H10.5334V10.5334ZM47.3334 32.7666V51.9333C47.3334 52.7802 46.6469 53.4666 45.8 53.4666H18.2C17.3531 53.4666 16.6666 52.7802 16.6666 51.9333V32.7666C16.6666 31.9198 17.3531 31.2333 18.2 31.2333H45.8C46.6469 31.2334 47.3334 31.9199 47.3334 32.7666ZM48.8666 11.6174L52.3826 15.1334H48.8666V11.6174ZM44.2666 22.8V10.5334H47.3333V15.1334C47.3333 15.9802 48.0198 16.6667 48.8666 16.6667H53.4666V22.8H44.2666Z" fill="url(#paint0_linear_110_3383)"/>
<path d="M18.2 51.1666C18.2 51.5901 18.5432 51.9333 18.9666 51.9333C19.39 51.9333 19.7332 51.59 19.7332 51.1666V46.5666C19.7332 46.1432 19.3899 45.8 18.9666 45.8C18.5432 45.8 18.2 46.1432 18.2 46.5666V51.1666Z" fill="url(#paint1_linear_110_3383)"/>
<path d="M22.0335 51.9334C22.4569 51.9334 22.8001 51.5901 22.8001 51.1667V46.5667C22.8001 46.1433 22.4568 45.8001 22.0335 45.8001C21.61 45.8001 21.2668 46.1433 21.2668 46.5667V51.1667C21.2668 51.5901 21.61 51.9334 22.0335 51.9334Z" fill="url(#paint2_linear_110_3383)"/>
<path d="M25.0999 45.8C24.6765 45.8 24.3333 46.1432 24.3333 46.5666V51.1666C24.3333 51.5901 24.6765 51.9333 25.0999 51.9333C25.5232 51.9333 25.8665 51.59 25.8665 51.1666V46.5666C25.8665 46.1433 25.5233 45.8 25.0999 45.8Z" fill="url(#paint3_linear_110_3383)"/>
<path d="M38.1333 47.3333V50.4C38.1333 51.2469 38.8198 51.9334 39.6667 51.9334H44.2667C45.1135 51.9334 45.8 51.2469 45.8 50.4V47.3333C45.8 46.4865 45.1135 45.8 44.2667 45.8H39.6667C38.8198 45.8 38.1333 46.4865 38.1333 47.3333ZM44.2666 50.4H39.6666V47.3333H44.2666V50.4Z" fill="url(#paint4_linear_110_3383)"/>
<path d="M21.4551 43V35H27.0332V36.5703H23.3887V38.2109H26.748V39.7852H23.3887V41.4297H27.0332V43H21.4551ZM28.2441 43V35H30.1777V38.2109H33.3301V35H35.2598V43H33.3301V39.7852H30.1777V43H28.2441ZM36.4727 43V35H39.7773C40.3763 35 40.8932 35.1081 41.3281 35.3242C41.7656 35.5378 42.1029 35.8451 42.3398 36.2461C42.5768 36.6445 42.6953 37.1172 42.6953 37.6641C42.6953 38.2187 42.5742 38.6901 42.332 39.0781C42.0898 39.4635 41.7461 39.7578 41.3008 39.9609C40.8555 40.1615 40.3281 40.2617 39.7188 40.2617H37.6289V38.7383H39.3594C39.651 38.7383 39.8945 38.7005 40.0898 38.625C40.2878 38.5469 40.4375 38.4297 40.5391 38.2734C40.6406 38.1146 40.6914 37.9115 40.6914 37.6641C40.6914 37.4167 40.6406 37.2122 40.5391 37.0508C40.4375 36.8867 40.2878 36.7643 40.0898 36.6836C39.8919 36.6003 39.6484 36.5586 39.3594 36.5586H38.4063V43H36.4727ZM40.9766 39.3437L42.9688 43H40.8594L38.9062 39.3437H40.9766Z" fill="url(#paint5_linear_110_3383)"/>
</g>
<rect x="0.587156" y="-0.587156" width="62.8257" height="62.8257" rx="8.80734" transform="matrix(1 0 0 -1 0 62.8257)" stroke="url(#paint6_linear_110_3383)" stroke-width="1.17431"/>
<defs>
<linearGradient id="paint0_linear_110_3383" x1="9" y1="26.0305" x2="55.0251" y2="26.2371" gradientUnits="userSpaceOnUse">
<stop stop-color="#214F89"/>
<stop offset="1" stop-color="#12BCAB"/>
</linearGradient>
<linearGradient id="paint1_linear_110_3383" x1="18.2" y1="48.0707" x2="19.7341" y2="48.0724" gradientUnits="userSpaceOnUse">
<stop stop-color="#214F89"/>
<stop offset="1" stop-color="#12BCAB"/>
</linearGradient>
<linearGradient id="paint2_linear_110_3383" x1="21.2668" y1="48.0708" x2="22.801" y2="48.0725" gradientUnits="userSpaceOnUse">
<stop stop-color="#214F89"/>
<stop offset="1" stop-color="#12BCAB"/>
</linearGradient>
<linearGradient id="paint3_linear_110_3383" x1="24.3333" y1="48.0707" x2="25.8674" y2="48.0724" gradientUnits="userSpaceOnUse">
<stop stop-color="#214F89"/>
<stop offset="1" stop-color="#12BCAB"/>
</linearGradient>
<linearGradient id="paint4_linear_110_3383" x1="38.1333" y1="48.0707" x2="45.8041" y2="48.1138" gradientUnits="userSpaceOnUse">
<stop stop-color="#214F89"/>
<stop offset="1" stop-color="#12BCAB"/>
</linearGradient>
<linearGradient id="paint5_linear_110_3383" x1="20.6797" y1="36.9894" x2="43.3318" y2="37.1602" gradientUnits="userSpaceOnUse">
<stop stop-color="#214F89"/>
<stop offset="1" stop-color="#12BCAB"/>
</linearGradient>
<linearGradient id="paint6_linear_110_3383" x1="-9.95479e-09" y1="23.6946" x2="64.0349" y2="23.982" gradientUnits="userSpaceOnUse">
<stop stop-color="#214F89"/>
<stop offset="1" stop-color="#12BCAB"/>
</linearGradient>
<clipPath id="clip0_110_3383">
<rect width="46" height="46" fill="white" transform="translate(9 9)"/>
</clipPath>
</defs>
</svg>
