<svg width="64" height="64" viewBox="0 0 64 64" fill="none" xmlns="http://www.w3.org/2000/svg">
<path d="M21.5302 29.1364C20.5159 29.1364 19.6807 28.2923 19.6807 27.2674V23.3487C19.6807 22.3238 20.5159 21.4797 21.5302 21.4797H33.2838" stroke="url(#paint0_linear_1087_811)" stroke-width="1.5" stroke-miterlimit="10" stroke-linecap="round"/>
<path d="M32.1504 21.4797H42.2334C43.2477 21.4797 44.0829 22.3238 44.0829 23.3487V27.2674C44.0829 28.2923 43.2477 29.1364 42.2334 29.1364" stroke="url(#paint1_linear_1087_811)" stroke-width="1.5" stroke-miterlimit="10" stroke-linecap="round"/>
<path d="M21.5302 36.7327C20.5159 36.7327 19.6807 35.8886 19.6807 34.8637V30.945C19.6807 29.9201 20.5159 29.076 21.5302 29.076H25.7066" stroke="url(#paint2_linear_1087_811)" stroke-width="1.5" stroke-miterlimit="10" stroke-linecap="round"/>
<path d="M38.2354 29.076H42.2328C43.247 29.076 44.0823 29.9201 44.0823 30.945V34.8637C44.0823 35.8886 43.247 36.7327 42.2328 36.7327" stroke="url(#paint3_linear_1087_811)" stroke-width="1.5" stroke-miterlimit="10" stroke-linecap="round"/>
<path d="M22.7232 25.4587C22.9209 25.4587 23.0812 25.2967 23.0812 25.097C23.0812 24.8972 22.9209 24.7352 22.7232 24.7352C22.5255 24.7352 22.3652 24.8972 22.3652 25.097C22.3652 25.2967 22.5255 25.4587 22.7232 25.4587Z" stroke="url(#paint4_linear_1087_811)" stroke-width="1.5" stroke-miterlimit="10"/>
<path d="M22.7232 40.169C22.9209 40.169 23.0812 40.0071 23.0812 39.8073C23.0812 39.6075 22.9209 39.4456 22.7232 39.4456C22.5255 39.4456 22.3652 39.6075 22.3652 39.8073C22.3652 40.0071 22.5255 40.169 22.7232 40.169Z" stroke="url(#paint5_linear_1087_811)" stroke-width="1.5" stroke-miterlimit="10"/>
<path d="M22.7232 32.2713C22.9209 32.2713 23.0812 32.1094 23.0812 31.9096C23.0812 31.7098 22.9209 31.5479 22.7232 31.5479C22.5255 31.5479 22.3652 31.7098 22.3652 31.9096C22.3652 32.1094 22.5255 32.2713 22.7232 32.2713Z" stroke="url(#paint6_linear_1087_811)" stroke-width="1.5" stroke-miterlimit="10"/>
<path d="M30.0613 26.9057C30.658 24.8559 30.121 23.7104 30.121 23.7104C35.3117 28.7747 32.8655 33.0551 32.8655 33.0551C32.8655 33.0551 35.6696 30.8245 35.7293 29.7393C38.8318 36.4313 37.1016 41.4352 31.5529 41.4352C26.0043 41.4352 24.0951 35.3461 27.7942 30.945C28.3311 30.3422 28.7488 29.7393 29.0471 29.1967" stroke="url(#paint7_linear_1087_811)" stroke-width="1.5" stroke-miterlimit="10" stroke-linecap="round" stroke-linejoin="round"/>
<path d="M29.5243 34.0197L30.7772 32.814C30.7772 32.814 30.2999 38.3002 32.2688 37.2753C32.3881 37.215 33.4024 35.1049 33.4024 35.1049C33.462 34.9241 33.999 35.8284 33.999 35.8284C34.8343 37.7576 34.715 40.4706 32.3284 41.1338C30.3596 41.7366 28.0327 40.1691 27.8537 38.0591C27.7941 37.215 28.0327 36.371 28.51 35.6475" stroke="url(#paint8_linear_1087_811)" stroke-width="1.5" stroke-miterlimit="10" stroke-linecap="round" stroke-linejoin="round"/>
<path d="M18.9656 13.1602C12.9994 17.2598 9.00195 24.2532 9.00195 32.151C9.00195 44.3895 18.548 54.3974 30.5402 55.0003C30.8982 55.0003 31.2562 55.0003 31.6141 55.0003" stroke="url(#paint9_linear_1087_811)" stroke-width="1.5" stroke-miterlimit="10" stroke-linecap="round" stroke-linejoin="round"/>
<path d="M32.3301 9.00012C44.8593 9.00012 55.0019 19.2491 55.0019 31.8494C55.0019 39.6869 51.1239 46.62 45.1576 50.7196" stroke="url(#paint10_linear_1087_811)" stroke-width="1.5" stroke-miterlimit="10" stroke-linecap="round" stroke-linejoin="round"/>
<path d="M14.4912 13.16L19.0852 13.0997L18.9659 17.2596" stroke="url(#paint11_linear_1087_811)" stroke-width="1.5" stroke-miterlimit="10" stroke-linecap="round" stroke-linejoin="round"/>
<path d="M49.6321 50.7799L45.0381 50.9005L45.2171 46.0774" stroke="url(#paint12_linear_1087_811)" stroke-width="1.5" stroke-miterlimit="10" stroke-linecap="round" stroke-linejoin="round"/>
<path d="M39.429 36.7325H42.2332C43.2475 36.7325 44.0827 37.5766 44.0827 38.6015V42.5202C44.0827 43.5451 43.2475 44.3892 42.2332 44.3892H21.5302C20.5159 44.3892 19.6807 43.5451 19.6807 42.5202V38.6015C19.6807 37.5766 20.5159 36.7325 21.5302 36.7325H23.3201" stroke="url(#paint13_linear_1087_811)" stroke-width="1.5" stroke-miterlimit="10" stroke-linecap="round"/>
<rect x="0.587156" y="-0.587156" width="62.8257" height="62.8257" rx="8.80734" transform="matrix(1 0 0 -1 0 62.8257)" stroke="url(#paint14_linear_1087_811)" stroke-width="1.17431"/>
<defs>
<linearGradient id="paint0_linear_1087_811" x1="19.6807" y1="24.3144" x2="33.2906" y2="24.423" gradientUnits="userSpaceOnUse">
<stop stop-color="#214F89"/>
<stop offset="1" stop-color="#12BCAB"/>
</linearGradient>
<linearGradient id="paint1_linear_1087_811" x1="32.1504" y1="24.3144" x2="44.0891" y2="24.3979" gradientUnits="userSpaceOnUse">
<stop stop-color="#214F89"/>
<stop offset="1" stop-color="#12BCAB"/>
</linearGradient>
<linearGradient id="paint2_linear_1087_811" x1="19.6807" y1="31.9108" x2="25.7099" y2="31.932" gradientUnits="userSpaceOnUse">
<stop stop-color="#214F89"/>
<stop offset="1" stop-color="#12BCAB"/>
</linearGradient>
<linearGradient id="paint3_linear_1087_811" x1="38.2354" y1="31.9108" x2="44.0855" y2="31.9308" gradientUnits="userSpaceOnUse">
<stop stop-color="#214F89"/>
<stop offset="1" stop-color="#12BCAB"/>
</linearGradient>
<linearGradient id="paint4_linear_1087_811" x1="22.3652" y1="25.0031" x2="23.0816" y2="25.0063" gradientUnits="userSpaceOnUse">
<stop stop-color="#214F89"/>
<stop offset="1" stop-color="#12BCAB"/>
</linearGradient>
<linearGradient id="paint5_linear_1087_811" x1="22.3652" y1="39.7134" x2="23.0816" y2="39.7166" gradientUnits="userSpaceOnUse">
<stop stop-color="#214F89"/>
<stop offset="1" stop-color="#12BCAB"/>
</linearGradient>
<linearGradient id="paint6_linear_1087_811" x1="22.3652" y1="31.8157" x2="23.0816" y2="31.8189" gradientUnits="userSpaceOnUse">
<stop stop-color="#214F89"/>
<stop offset="1" stop-color="#12BCAB"/>
</linearGradient>
<linearGradient id="paint7_linear_1087_811" x1="25.8867" y1="30.2727" x2="37.2648" y2="30.3054" gradientUnits="userSpaceOnUse">
<stop stop-color="#214F89"/>
<stop offset="1" stop-color="#12BCAB"/>
</linearGradient>
<linearGradient id="paint8_linear_1087_811" x1="27.8447" y1="35.9424" x2="34.4726" y2="35.9658" gradientUnits="userSpaceOnUse">
<stop stop-color="#214F89"/>
<stop offset="1" stop-color="#12BCAB"/>
</linearGradient>
<linearGradient id="paint9_linear_1087_811" x1="9.00195" y1="28.6506" x2="31.6268" y2="28.7054" gradientUnits="userSpaceOnUse">
<stop stop-color="#214F89"/>
<stop offset="1" stop-color="#12BCAB"/>
</linearGradient>
<linearGradient id="paint10_linear_1087_811" x1="32.3301" y1="24.4459" x2="55.0146" y2="24.5012" gradientUnits="userSpaceOnUse">
<stop stop-color="#214F89"/>
<stop offset="1" stop-color="#12BCAB"/>
</linearGradient>
<linearGradient id="paint11_linear_1087_811" x1="14.4912" y1="14.6398" x2="19.0877" y2="14.6626" gradientUnits="userSpaceOnUse">
<stop stop-color="#214F89"/>
<stop offset="1" stop-color="#12BCAB"/>
</linearGradient>
<linearGradient id="paint12_linear_1087_811" x1="45.0381" y1="47.863" x2="49.6346" y2="47.8827" gradientUnits="userSpaceOnUse">
<stop stop-color="#214F89"/>
<stop offset="1" stop-color="#12BCAB"/>
</linearGradient>
<linearGradient id="paint13_linear_1087_811" x1="19.6807" y1="39.5672" x2="44.0915" y2="39.9164" gradientUnits="userSpaceOnUse">
<stop stop-color="#214F89"/>
<stop offset="1" stop-color="#12BCAB"/>
</linearGradient>
<linearGradient id="paint14_linear_1087_811" x1="-9.95479e-09" y1="23.6946" x2="64.0349" y2="23.982" gradientUnits="userSpaceOnUse">
<stop stop-color="#214F89"/>
<stop offset="1" stop-color="#12BCAB"/>
</linearGradient>
</defs>
</svg>
