<svg width="64" height="64" viewBox="0 0 64 64" fill="none" xmlns="http://www.w3.org/2000/svg">
<g clip-path="url(#clip0_1087_898)">
<path d="M15.4688 42.7812H16.9062V44.2188H15.4688V42.7812Z" fill="url(#paint0_linear_1087_898)"/>
<path d="M18.3438 42.7812H19.7812V44.2188H18.3438V42.7812Z" fill="url(#paint1_linear_1087_898)"/>
<path d="M12.5938 42.7812H14.0312V44.2188H12.5938V42.7812Z" fill="url(#paint2_linear_1087_898)"/>
<path d="M24.0938 26.9688H25.5312V29.8438H24.0938V26.9688Z" fill="url(#paint3_linear_1087_898)"/>
<path d="M38.4688 26.9688H39.9062V29.8438H38.4688V26.9688Z" fill="url(#paint4_linear_1087_898)"/>
<path d="M47.8125 11.1562C44.4883 11.1562 41.7448 13.6769 41.3862 16.9062H39.0337C37.8262 14.5523 35.4773 12.8805 32.7188 12.6304V9.71875H31.2812V12.6304C28.5227 12.8805 26.1738 14.5523 24.9663 16.9062H13.3125C11.3309 16.9062 9.71875 18.5184 9.71875 20.5V43.5C9.71875 45.4816 11.3309 47.0938 13.3125 47.0938H25.5312V48.6412L23.0207 49.0595C21.9763 49.2342 21.2188 50.1283 21.2188 51.1863V54.2812H42.7812V51.1863C42.7812 50.1276 42.0237 49.2335 40.9793 49.0595L38.4688 48.6412V47.0938H50.6875C52.6691 47.0938 54.2812 45.4816 54.2812 43.5V17.625C54.2812 14.0586 51.3797 11.1562 47.8125 11.1562ZM47.8125 12.5938C50.5862 12.5938 52.8438 14.8506 52.8438 17.625C52.8438 20.3994 50.5862 22.6562 47.8125 22.6562C45.0388 22.6562 42.7812 20.3994 42.7812 17.625C42.7812 14.8506 45.0388 12.5938 47.8125 12.5938ZM42.7812 39.9062H41.3438V37.0312H42.7812V39.9062ZM39.9062 35.5938V39.9062H38.4688V34.1562H41.0778L39.4606 32.7188H45.6562V39.9062H44.2188V35.5938H39.9062ZM22.6562 39.9062H21.2188V37.0312H22.6562V39.9062ZM19.7812 35.5938V39.9062H18.3438V32.7188H24.5394L22.9222 34.1562H25.5312V39.9062H24.0938V35.5938H19.7812ZM32.0029 14.0787C32.506 14.3065 33.9377 15.2265 34.1325 18.3438H29.8675C30.0615 15.2416 31.4918 14.313 32.0029 14.0787ZM38.4263 19.7812C38.4529 20.0177 38.4688 20.2571 38.4688 20.5V24.0938H37.0312V21.2188H32.7188V24.0938H31.2812V21.2188H26.9688V24.0938H25.5312V20.5C25.5312 20.2571 25.5471 20.0177 25.5737 19.7812H38.4263ZM41.3438 31.2812H37.8434L33.7336 27.6278C32.7762 26.7768 31.223 26.7776 30.2671 27.6278L26.1566 31.2812H22.6562V25.5312H41.3438V31.2812ZM26.7028 32.7188L31.2223 28.7024C31.6507 28.3207 32.3486 28.32 32.7784 28.7024L37.2972 32.7188H26.7028ZM29.8438 24.0938H28.4062V22.6562H29.8438V24.0938ZM35.5938 24.0938H34.1562V22.6562H35.5938V24.0938ZM24.0938 24.0938H21.2188V31.2812H16.9062V39.9062H14.0312V21.2188H24.0938V24.0938ZM26.9688 34.1562H28.4062V39.9062H26.9688V34.1562ZM29.8438 34.1562H34.1562V39.9062H29.8438V34.1562ZM35.5938 34.1562H37.0312V39.9062H35.5938V34.1562ZM42.7812 31.2812V24.0938H39.9062V21.2188H42.4377C43.5999 22.9509 45.575 24.0938 47.8125 24.0938C48.5693 24.0938 49.2931 23.9565 49.9688 23.7164V39.9062H47.0938V31.2812H42.7812ZM41.3862 18.3438C41.4415 18.8426 41.5587 19.3227 41.7211 19.7812H39.8696C39.825 19.2867 39.7316 18.8073 39.5993 18.3438H41.3862ZM38.0914 18.3438H35.5672C35.4701 16.613 35.0367 15.389 34.5048 14.5365C36.1738 15.2402 37.4819 16.6274 38.0914 18.3438ZM29.4959 14.5365C28.9633 15.3897 28.5306 16.6137 28.4336 18.3438H25.9093C26.5181 16.6274 27.8262 15.2402 29.4959 14.5365ZM41.3438 51.1863V52.8438H22.6562V51.1863C22.6562 50.8334 22.9092 50.5351 23.2564 50.4776L25.6958 50.0708C26.0193 50.8535 26.7891 51.4062 27.6875 51.4062H36.3125C37.2109 51.4062 37.9807 50.8535 38.3042 50.0708L40.7436 50.4776C41.0908 50.5358 41.3438 50.8341 41.3438 51.1863ZM37.0312 49.25C37.0312 49.646 36.7092 49.9688 36.3125 49.9688H27.6875C27.2908 49.9688 26.9688 49.646 26.9688 49.25V47.0938H37.0312V49.25ZM52.8438 43.5C52.8438 44.6888 51.8763 45.6562 50.6875 45.6562H13.3125C12.1237 45.6562 11.1562 44.6888 11.1562 43.5V20.5C11.1562 19.3112 12.1237 18.3438 13.3125 18.3438H24.3999C24.2684 18.8073 24.175 19.2875 24.1297 19.7812H14.0312C13.2385 19.7812 12.5938 20.426 12.5938 21.2188V39.9062C12.5938 40.699 13.2385 41.3438 14.0312 41.3438H49.9688C50.7615 41.3438 51.4062 40.699 51.4062 39.9062V22.9998C51.9496 22.6354 52.4333 22.1898 52.8438 21.6816V43.5Z" fill="url(#paint5_linear_1087_898)"/>
<path d="M50.4773 15.9769L49.4609 14.9606L46.3753 18.0462L45.446 17.1168L44.4297 18.1331L46.3753 20.0788L50.4773 15.9769Z" fill="url(#paint6_linear_1087_898)"/>
</g>
<rect x="0.587156" y="-0.587156" width="62.8257" height="62.8257" rx="8.80734" transform="matrix(1 0 0 -1 0 62.8257)" stroke="url(#paint7_linear_1087_898)" stroke-width="1.17431"/>
<defs>
<linearGradient id="paint0_linear_1087_898" x1="15.4687" y1="43.3135" x2="16.907" y2="43.3199" gradientUnits="userSpaceOnUse">
<stop stop-color="#214F89"/>
<stop offset="1" stop-color="#12BCAB"/>
</linearGradient>
<linearGradient id="paint1_linear_1087_898" x1="18.3437" y1="43.3135" x2="19.782" y2="43.3199" gradientUnits="userSpaceOnUse">
<stop stop-color="#214F89"/>
<stop offset="1" stop-color="#12BCAB"/>
</linearGradient>
<linearGradient id="paint2_linear_1087_898" x1="12.5937" y1="43.3135" x2="14.032" y2="43.3199" gradientUnits="userSpaceOnUse">
<stop stop-color="#214F89"/>
<stop offset="1" stop-color="#12BCAB"/>
</linearGradient>
<linearGradient id="paint3_linear_1087_898" x1="24.0937" y1="28.0332" x2="25.5321" y2="28.0364" gradientUnits="userSpaceOnUse">
<stop stop-color="#214F89"/>
<stop offset="1" stop-color="#12BCAB"/>
</linearGradient>
<linearGradient id="paint4_linear_1087_898" x1="38.4687" y1="28.0332" x2="39.9071" y2="28.0364" gradientUnits="userSpaceOnUse">
<stop stop-color="#214F89"/>
<stop offset="1" stop-color="#12BCAB"/>
</linearGradient>
<linearGradient id="paint5_linear_1087_898" x1="9.71875" y1="26.2171" x2="54.3055" y2="26.4172" gradientUnits="userSpaceOnUse">
<stop stop-color="#214F89"/>
<stop offset="1" stop-color="#12BCAB"/>
</linearGradient>
<linearGradient id="paint6_linear_1087_898" x1="44.4297" y1="16.8555" x2="50.4805" y2="16.8876" gradientUnits="userSpaceOnUse">
<stop stop-color="#214F89"/>
<stop offset="1" stop-color="#12BCAB"/>
</linearGradient>
<linearGradient id="paint7_linear_1087_898" x1="-9.95479e-09" y1="23.6946" x2="64.0349" y2="23.982" gradientUnits="userSpaceOnUse">
<stop stop-color="#214F89"/>
<stop offset="1" stop-color="#12BCAB"/>
</linearGradient>
<clipPath id="clip0_1087_898">
<rect width="46" height="46" fill="white" transform="translate(9 9)"/>
</clipPath>
</defs>
</svg>
