<svg width="50" height="50" viewBox="0 0 50 50" fill="none" xmlns="http://www.w3.org/2000/svg">
<g clip-path="url(#clip0_1909_260)">
<path fill-rule="evenodd" clip-rule="evenodd" d="M30.1502 12.8095C30.7567 12.7825 31.3616 12.8919 31.9202 13.1295H32.0002L32.1402 13.1995C30.1402 13.1995 29.4602 14.8595 28.6402 16.2695L28.5002 16.1995C28.5002 15.9495 28.5002 15.6995 28.5902 15.4595C28.7002 14.8495 28.8402 14.2495 28.9702 13.6395C29.0028 13.383 29.1335 13.1491 29.3349 12.9869C29.5363 12.8247 29.7926 12.7468 30.0502 12.7695H30.1502M29.9202 6.76953C29.5102 6.76953 29.0902 6.76953 28.6702 6.82953C26.787 6.97037 24.9879 7.66637 23.5002 8.82953C22.7764 9.36173 22.1761 10.0439 21.7402 10.8295L25.0002 10.6795H25.0902C24.8757 10.8025 24.6474 10.8998 24.4102 10.9695C23.2602 11.2495 22.1802 11.5495 21.0102 11.7295C20.1269 11.7997 19.3024 12.1995 18.7002 12.8495C17.2002 14.6095 15.6202 16.2995 14.1602 18.0895C13.4381 19.0687 12.7704 20.0869 12.1602 21.1395C11.9613 21.4069 11.8539 21.7313 11.8539 22.0645C11.8539 22.3978 11.9613 22.7221 12.1602 22.9895C12.8202 23.8595 13.5102 24.6995 14.2202 25.5995L16.4602 22.9995L16.5702 23.0795C16.5408 23.1996 16.5006 23.3167 16.4502 23.4295L14.3702 27.7195C13.7302 29.0095 13.7702 29.1695 15.0102 29.9595C15.3997 30.2282 15.8574 30.3807 16.3302 30.3995C16.6842 30.3898 17.0293 30.2863 17.3302 30.0995C17.9602 29.7195 18.6302 29.3995 19.2602 29.0195C20.4291 28.2823 21.7784 27.881 23.1602 27.8595H23.5202C23.603 27.8479 23.6821 27.8175 23.7514 27.7707C23.8207 27.724 23.8785 27.662 23.9202 27.5895C24.4961 26.0151 24.6208 24.3111 24.2802 22.6695C23.7516 20.967 23.7691 19.1417 24.3302 17.4495C24.4702 17.0795 24.6602 16.7295 24.8302 16.3695H24.9902C25.0096 16.579 25.013 16.7896 25.0002 16.9995C24.8087 18.5011 24.9626 20.0265 25.4502 21.4595C25.8867 22.5406 26.0747 23.706 26.0002 24.8695C25.8302 26.2695 25.5402 27.6695 25.3102 29.0695C25.2602 29.4295 25.1202 29.5795 24.8502 29.5795C24.7474 29.5947 24.643 29.5947 24.5402 29.5795C24.0779 29.4699 23.6053 29.4095 23.1302 29.3995C22.2244 29.4013 21.3373 29.6577 20.5702 30.1395C19.7702 30.6295 18.9502 31.0695 18.1302 31.5095C17.5388 31.8488 16.8718 32.0345 16.1902 32.0495C15.2913 32.0378 14.4316 31.6795 13.7902 31.0495C13.3902 30.6795 12.9902 30.3195 12.6102 29.9295C11.7302 29.0495 11.7402 29.0395 12.4202 28.0295L12.4702 27.9395C13.1402 26.9395 13.1402 26.8695 12.3602 25.9395L12.2602 25.8295C11.7102 25.0895 11.1502 24.3695 10.6302 23.6095C10.4282 23.3216 10.3022 22.9874 10.2637 22.6377C10.2252 22.2881 10.2756 21.9345 10.4102 21.6095C10.7546 20.6925 11.2007 19.8171 11.7402 18.9995C12.4502 17.9995 13.3202 17.1095 14.1202 16.1795L15.1702 14.9495C13.5746 15.1849 12.0175 15.6322 10.5402 16.2795C8.99438 16.8967 7.63876 17.9109 6.61021 19.2195C5.94021 20.1095 5.25021 20.9895 4.52021 21.8295C4.12854 22.3301 3.66325 22.7684 3.14021 23.1295C2.91844 23.2683 2.6618 23.3411 2.40021 23.3395C2.1015 23.353 1.80773 23.2598 1.57141 23.0766C1.33508 22.8934 1.17161 22.6322 1.11021 22.3395C1.34021 22.0295 1.67021 21.7995 1.70021 21.5395C1.80021 20.6795 1.79021 19.7995 1.82021 18.9395C1.11039 19.3276 0.529806 19.9151 0.150215 20.6295C0.0256868 20.8534 -0.025831 21.1106 0.00285281 21.3651C0.0315366 21.6197 0.138991 21.859 0.310215 22.0495C0.437599 22.2358 0.510339 22.4541 0.520215 22.6795C0.510865 22.9514 0.555197 23.2225 0.650674 23.4772C0.746151 23.7319 0.890901 23.9653 1.07665 24.1641C1.26239 24.3628 1.4855 24.523 1.73319 24.6355C1.98089 24.748 2.24833 24.8105 2.52021 24.8195H2.75021C3.07021 24.8195 3.40021 24.7595 3.75021 24.7295C3.75021 24.8295 3.75021 24.9195 3.75021 25.0095C3.68021 25.8895 3.58021 26.7695 3.55021 27.6495C3.48084 28.9609 3.69929 30.2716 4.19021 31.4895C4.91685 33.2365 5.8075 34.9107 6.85021 36.4895C6.98317 36.6547 7.06022 36.8578 7.07021 37.0695C6.92938 38.0006 6.73235 38.9223 6.48021 39.8295C6.09021 41.0595 6.32021 41.8295 7.48021 42.1995C8.43199 42.4909 9.40998 42.6885 10.4002 42.7895H10.8202C11.6902 42.7895 12.0102 42.3995 12.1002 41.3795C12.1078 40.896 12.2349 40.422 12.4702 39.9995C13.5902 38.3295 13.5302 37.5495 13.4702 35.4395C13.4702 35.2395 13.4702 35.0495 13.4102 34.8495C13.3502 34.6495 13.4102 34.4995 13.4102 34.2695C13.735 34.7313 14.0926 35.1691 14.4802 35.5795C15.2351 36.2459 16.2136 36.6029 17.2202 36.5795C17.682 36.5778 18.142 36.5207 18.5902 36.4095C19.0138 36.3393 19.4094 36.1523 19.7327 35.8697C20.0559 35.5871 20.294 35.22 20.4202 34.8095C20.4713 34.7289 20.5281 34.652 20.5902 34.5795C20.6161 34.6443 20.6362 34.7112 20.6502 34.7795C20.6502 35.3295 20.6502 35.8895 20.6502 36.4495C20.6658 36.6604 20.6142 36.8707 20.5029 37.0504C20.3915 37.23 20.226 37.3698 20.0302 37.4495C19.5502 37.6995 19.0302 37.9295 18.6002 38.2095C17.6502 38.7795 17.4902 39.3795 18.1102 40.2895C18.6156 41.0171 19.1668 41.7118 19.7602 42.3695C20.1902 42.8495 20.5302 43.0795 20.9002 43.0795C21.3108 43.0342 21.6961 42.859 22.0002 42.5795C22.8602 41.9195 23.7102 41.2495 24.5602 40.5795C26.1427 39.3932 27.3788 37.8049 28.1402 35.9795C28.7202 34.5695 29.3202 33.1695 29.9302 31.7795C30.0802 31.4295 30.0102 31.2595 29.7202 31.0095C28.8247 30.3187 28.0651 29.4676 27.4802 28.4995C27.4102 28.3595 27.3602 28.1995 27.2602 27.9395C27.9163 28.4949 28.6304 28.9777 29.3902 29.3795C30.4729 29.8768 31.453 30.5721 32.2802 31.4295C32.9674 32.1047 33.887 32.4911 34.8502 32.5095C35.6347 32.3974 36.3581 32.0231 36.9028 31.4475C37.4475 30.8719 37.7814 30.129 37.8502 29.3395C37.6896 29.4678 37.5392 29.6082 37.4002 29.7595C37.1602 30.0595 36.9702 30.4195 36.7002 30.6995C36.5108 30.9227 36.2769 31.1038 36.0134 31.2312C35.7499 31.3587 35.4627 31.4296 35.1702 31.4395C34.7857 31.426 34.4132 31.3018 34.0975 31.0818C33.7818 30.8619 33.5362 30.5555 33.3902 30.1995C32.7763 28.8126 32.5616 27.2819 32.7702 25.7795C32.7702 25.4395 32.8402 25.1095 32.8802 24.7795L33.0702 24.6995C33.1192 24.8037 33.1761 24.904 33.2402 24.9995C34.8234 26.8876 37.0036 28.1788 39.4202 28.6595C40.2212 28.8409 41.039 28.9381 41.8602 28.9495C42.5142 28.9568 43.1653 28.8623 43.7902 28.6695C44.9323 28.2758 45.9729 27.634 46.8374 26.7902C47.7019 25.9464 48.3688 24.9217 48.7902 23.7895C49.7454 21.6318 50.1607 19.2738 50.0002 16.9195C49.9002 15.4295 49.7802 13.9195 49.5602 12.4795C49.416 11.1363 48.9306 9.85226 48.1502 8.74953C47.8902 8.39953 47.6702 8.22953 47.4602 8.22953C47.2502 8.22953 47.0402 8.40953 46.8002 8.77953C46.2213 9.66026 45.3558 10.3138 44.3502 10.6295C43.4602 10.9295 43.3502 11.1895 43.4802 12.1095C43.6602 13.2995 43.8902 14.4995 43.9902 15.6995C44.2395 17.5727 43.7598 19.47 42.6502 20.9995C42.2929 21.4237 41.9088 21.8245 41.5002 22.1995L41.3502 21.9995C41.4302 21.8495 41.5202 21.6995 41.5902 21.5495C41.9002 20.8595 42.2202 20.1795 42.5002 19.4895C42.5821 19.2741 42.5869 19.0369 42.514 18.8183C42.4412 18.5996 42.295 18.4128 42.1002 18.2895C41.9378 18.1585 41.7385 18.0816 41.5302 18.0695C41.2939 18.0879 41.068 18.1748 40.8802 18.3195C40.5402 18.5595 40.2302 18.8295 39.8802 19.0895C40.009 18.8155 40.1738 18.5599 40.3702 18.3295C40.5188 18.1868 40.6198 18.0016 40.6591 17.7994C40.6985 17.5971 40.6744 17.3876 40.5902 17.1995C40.4761 17.0451 40.3242 16.9226 40.1491 16.8438C39.9739 16.765 39.7815 16.7325 39.5902 16.7495C39.4905 16.7392 39.3899 16.7392 39.2902 16.7495C39.0422 16.8384 38.7831 16.8923 38.5202 16.9095C39.4602 16.0895 39.3202 15.0695 37.6302 14.9095C37.9351 14.7288 38.277 14.6194 38.6302 14.5895H38.9402H39.3002H39.5602C39.9902 14.5395 40.1502 14.3295 40.0102 13.9295C39.7824 13.3575 39.4069 12.8562 38.922 12.4767C38.4371 12.0972 37.8602 11.8532 37.2502 11.7695H35.9402C36.3302 11.5895 36.6502 11.3095 37.0702 11.1195C36.0426 9.5076 34.5842 8.21552 32.8602 7.38953C31.9268 7.01249 30.9267 6.82878 29.9202 6.84953M30.3902 34.8495C29.9418 37.3362 28.61 39.577 26.6402 41.1595C26.3702 41.3495 26.4102 41.5695 26.6402 41.7095C26.8414 41.8459 27.0773 41.9222 27.3202 41.9295H30.7502C31.7502 41.9295 32.2702 41.2495 31.8102 40.3395C31.5076 39.7193 31.3962 39.0232 31.4902 38.3395C31.5459 37.0815 31.1682 35.8425 30.4202 34.8295M2.92021 31.9995C2.21021 32.9095 1.56021 33.7095 0.920215 34.5395C0.764198 34.7226 0.667308 34.9486 0.642315 35.1878C0.617323 35.427 0.665402 35.6682 0.780215 35.8795C1.37476 36.9829 2.23807 37.9184 3.29021 38.5995C3.56462 38.7798 3.88227 38.8834 4.21021 38.8995C4.45603 38.8806 4.69385 38.8036 4.90418 38.675C5.11451 38.5464 5.29135 38.3697 5.42021 38.1595C5.49014 38.0752 5.52841 37.9691 5.52841 37.8595C5.52841 37.75 5.49014 37.6439 5.42021 37.5595C4.82021 36.2895 4.20021 35.0495 3.60021 33.7995C3.35021 33.2595 3.18021 32.6695 2.92021 31.9595M34.7802 15.6495C32.8902 15.6495 30.5802 17.3995 30.3502 18.8995L31.2902 18.0995C31.2302 18.1795 31.7602 18.6695 31.7102 18.7495C32.1002 19.0695 32.0002 18.9695 32.4102 19.2995C32.2502 19.6095 31.8602 20.0895 31.6702 20.4695L31.7902 20.5795C33.014 19.1741 34.5524 18.0777 36.2802 17.3795L36.2202 17.2295L35.2202 17.4495L34.1602 16.1195L34.8302 15.6495M30.2002 12.8095H30.1002C29.8426 12.7868 29.5863 12.8647 29.3849 13.0269C29.1835 13.1891 29.0528 13.423 29.0202 13.6795C28.8902 14.2895 28.7502 14.8895 28.6402 15.4995C28.5902 15.7395 28.5802 15.9895 28.5502 16.2395L28.6902 16.3095C29.5102 14.8995 30.1502 13.3095 32.1902 13.2395L32.0002 13.1695H31.9202C31.3616 12.9319 30.7567 12.8225 30.1502 12.8495M44.0002 11.7195C44.1302 11.5695 44.2302 11.3395 44.4002 11.2795C45.4252 10.8866 46.3048 10.1885 46.9202 9.27953C47.0502 9.08953 47.3402 9.01953 47.5702 8.88953C47.5702 9.05953 47.5702 9.24953 47.5702 9.42953C47.5853 9.50546 47.5853 9.58361 47.5702 9.65953C47.3102 10.3067 46.8749 10.8685 46.3131 11.2819C45.7513 11.6953 45.0854 11.9438 44.3902 11.9995L44.0002 11.7195ZM47.5602 8.92953C47.3402 9.05953 47.0502 9.12953 46.9202 9.31953C46.3048 10.2285 45.4252 10.9266 44.4002 11.3195C44.2302 11.3795 44.1302 11.6095 44.0002 11.7595L44.4202 12.0795C45.1093 12.0097 45.7657 11.7503 46.3164 11.3302C46.8671 10.9101 47.2907 10.3457 47.5402 9.69953C47.5553 9.62361 47.5553 9.54546 47.5402 9.46953C47.5402 9.28953 47.5402 9.09953 47.5402 8.92953" fill="url(#paint0_linear_1909_260)"/>
</g>
<defs>
<linearGradient id="paint0_linear_1909_260" x1="-0.00488282" y1="20.2125" x2="50.0602" y2="20.5222" gradientUnits="userSpaceOnUse">
<stop stop-color="#214F89"/>
<stop offset="1" stop-color="#12BCAB"/>
</linearGradient>
<clipPath id="clip0_1909_260">
<rect width="50" height="50" fill="white"/>
</clipPath>
</defs>
</svg>
