<svg width="64" height="64" viewBox="0 0 64 64" fill="none" xmlns="http://www.w3.org/2000/svg">
<path d="M53.2031 38.5622L49.9688 36.715V31.2812C49.967 30.7099 49.7393 30.1624 49.3353 29.7584C48.9313 29.3544 48.3838 29.1267 47.8125 29.125H40.625V22.6562C40.625 22.4656 40.5493 22.2828 40.4145 22.148C40.2797 22.0132 40.0969 21.9375 39.9062 21.9375H36.3125V23.375H39.1875V40.625H11.875V23.375H14.75V21.9375H11.1562C10.9656 21.9375 10.7828 22.0132 10.648 22.148C10.5132 22.2828 10.4375 22.4656 10.4375 22.6562V47.0938C10.4375 47.2844 10.5132 47.4672 10.648 47.602C10.7828 47.7368 10.9656 47.8125 11.1562 47.8125H13.3844C13.5337 48.5509 13.9119 49.2236 14.4652 49.7349C15.0185 50.2462 15.7188 50.5702 16.4667 50.6609C17.2146 50.7516 17.9721 50.6044 18.6316 50.2402C19.2911 49.876 19.8191 49.3132 20.1406 48.6319C20.4621 49.3132 20.9901 49.876 21.6496 50.2402C22.3091 50.6044 23.0666 50.7516 23.8145 50.6609C24.5624 50.5702 25.2628 50.2462 25.8161 49.7349C26.3694 49.2236 26.7475 48.5509 26.8969 47.8125H43.5719C43.7368 48.6249 44.1776 49.3553 44.8194 49.8799C45.4613 50.4045 46.2648 50.6911 47.0938 50.6911C47.9227 50.6911 48.7262 50.4045 49.3681 49.8799C50.0099 49.3553 50.4507 48.6249 50.6156 47.8125H52.8438C53.0344 47.8125 53.2172 47.7368 53.352 47.602C53.4868 47.4672 53.5625 47.2844 53.5625 47.0938V39.1875C53.563 39.0608 53.53 38.9363 53.4669 38.8265C53.4038 38.7167 53.3128 38.6255 53.2031 38.5622ZM16.9062 49.25C16.4798 49.25 16.0629 49.1235 15.7083 48.8866C15.3537 48.6497 15.0773 48.3129 14.9141 47.9189C14.7509 47.5249 14.7082 47.0914 14.7914 46.6731C14.8746 46.2548 15.08 45.8706 15.3816 45.5691C15.6831 45.2675 16.0673 45.0621 16.4856 44.9789C16.9039 44.8957 17.3374 44.9384 17.7314 45.1016C18.1254 45.2648 18.4622 45.5412 18.6991 45.8958C18.936 46.2504 19.0625 46.6673 19.0625 47.0938C19.0608 47.6651 18.8331 48.2126 18.4291 48.6166C18.0251 49.0206 17.4776 49.2483 16.9062 49.25ZM23.375 49.25C22.9485 49.25 22.5316 49.1235 22.1771 48.8866C21.8225 48.6497 21.5461 48.3129 21.3829 47.9189C21.2197 47.5249 21.177 47.0914 21.2602 46.6731C21.3434 46.2548 21.5487 45.8706 21.8503 45.5691C22.1519 45.2675 22.5361 45.0621 22.9543 44.9789C23.3726 44.8957 23.8062 44.9384 24.2002 45.1016C24.5942 45.2648 24.9309 45.5412 25.1679 45.8958C25.4048 46.2504 25.5312 46.6673 25.5312 47.0938C25.5295 47.6651 25.3018 48.2126 24.8978 48.6166C24.4938 49.0206 23.9463 49.2483 23.375 49.25ZM39.1875 46.375H26.8969C26.7475 45.6366 26.3694 44.9639 25.8161 44.4526C25.2628 43.9413 24.5624 43.6173 23.8145 43.5266C23.0666 43.4359 22.3091 43.5831 21.6496 43.9473C20.9901 44.3115 20.4621 44.8743 20.1406 45.5556C19.8191 44.8743 19.2911 44.3115 18.6316 43.9473C17.9721 43.5831 17.2146 43.4359 16.4667 43.5266C15.7188 43.6173 15.0185 43.9413 14.4652 44.4526C13.9119 44.9639 13.5337 45.6366 13.3844 46.375H11.875V42.0625H39.1875V46.375ZM45.6562 30.5625H47.8125C48.0031 30.5625 48.1859 30.6382 48.3207 30.773C48.4555 30.9078 48.5312 31.0906 48.5312 31.2812V36.3125H45.6562V30.5625ZM47.0938 49.25C46.6673 49.25 46.2504 49.1235 45.8958 48.8866C45.5412 48.6497 45.2648 48.3129 45.1016 47.9189C44.9384 47.5249 44.8957 47.0914 44.9789 46.6731C45.0621 46.2548 45.2675 45.8706 45.5691 45.5691C45.8706 45.2675 46.2548 45.0621 46.6731 44.9789C47.0914 44.8957 47.5249 44.9384 47.9189 45.1016C48.3129 45.2648 48.6497 45.5412 48.8866 45.8958C49.1235 46.2504 49.25 46.6673 49.25 47.0938C49.2483 47.6651 49.0206 48.2126 48.6166 48.6166C48.2126 49.0206 47.6651 49.2483 47.0938 49.25ZM52.125 42.7812H50.6875V41.3438H52.125V42.7812ZM52.125 39.9062H49.9688C49.7781 39.9062 49.5953 39.982 49.4605 40.1168C49.3257 40.2516 49.25 40.4344 49.25 40.625V43.5C49.25 43.6906 49.3257 43.8734 49.4605 44.0082C49.5953 44.143 49.7781 44.2188 49.9688 44.2188H52.125V46.375H50.6156C50.4507 45.5626 50.0099 44.8322 49.3681 44.3076C48.7262 43.783 47.9227 43.4964 47.0938 43.4964C46.2648 43.4964 45.4613 43.783 44.8194 44.3076C44.1776 44.8322 43.7368 45.5626 43.5719 46.375H40.625V30.5625H44.2188V37.0312C44.2188 37.2219 44.2945 37.4047 44.4293 37.5395C44.5641 37.6743 44.7469 37.75 44.9375 37.75H48.8834C48.8853 37.75 48.8872 37.7508 48.8885 37.7521C48.8899 37.7535 48.8906 37.7553 48.8906 37.7572L52.125 39.6044V39.9062Z" fill="url(#paint0_linear_1088_1096)"/>
<path d="M44.9375 39.1875H47.8125V40.625H44.9375V39.1875Z" fill="url(#paint1_linear_1088_1096)"/>
<path d="M16.9062 50.6875H10.4375V52.125H53.5625V50.6875H47.0938H23.375H16.9062Z" fill="url(#paint2_linear_1088_1096)"/>
<path d="M24.8125 21.9375H26.25V23.375H24.8125V21.9375Z" fill="url(#paint3_linear_1088_1096)"/>
<path d="M16.9062 14.75H25.5312V16.1875H16.9062V14.75Z" fill="url(#paint4_linear_1088_1096)"/>
<path d="M14.0312 11.875H22.6562V13.3125H14.0312V11.875Z" fill="url(#paint5_linear_1088_1096)"/>
<path d="M11.1562 11.875H12.5938V13.3125H11.1562V11.875Z" fill="url(#paint6_linear_1088_1096)"/>
<path d="M17.625 32H19.0625V33.4375H20.5V32H21.9375V30.5625H20.5V29.125H19.0625V30.5625H17.625V32Z" fill="url(#paint7_linear_1088_1096)"/>
<path d="M24.6041 26.4584L22.6562 24.5178V23.375C22.8469 23.375 23.0297 23.2993 23.1645 23.1645C23.2993 23.0297 23.375 22.8469 23.375 22.6562V19.7812C23.375 19.5906 23.2993 19.4078 23.1645 19.273C23.0297 19.1382 22.8469 19.0625 22.6562 19.0625H16.9062C16.7156 19.0625 16.5328 19.1382 16.398 19.273C16.2632 19.4078 16.1875 19.5906 16.1875 19.7812V22.6562C16.1875 22.8469 16.2632 23.0297 16.398 23.1645C16.5328 23.2993 16.7156 23.375 16.9062 23.375V24.5178L14.9584 26.4584C14.826 26.5955 14.7514 26.7782 14.75 26.9688V38.4688C14.75 38.6594 14.8257 38.8422 14.9605 38.977C15.0953 39.1118 15.2781 39.1875 15.4688 39.1875H24.0938C24.2844 39.1875 24.4672 39.1118 24.602 38.977C24.7368 38.8422 24.8125 38.6594 24.8125 38.4688V26.9688C24.8111 26.7782 24.7365 26.5955 24.6041 26.4584ZM17.625 20.5H21.9375V21.9375H17.625V20.5ZM18.1353 25.3228C18.2677 25.1858 18.3423 25.003 18.3438 24.8125V23.375H21.2188V24.8125C21.2202 25.003 21.2948 25.1858 21.4272 25.3228L22.3616 26.25H17.2009L18.1353 25.3228ZM23.375 37.75H16.1875V36.3125H23.375V37.75ZM23.375 34.875H16.1875V27.6875H23.375V34.875Z" fill="url(#paint8_linear_1088_1096)"/>
<path d="M29.125 32H30.5625V33.4375H32V32H33.4375V30.5625H32V29.125H30.5625V30.5625H29.125V32Z" fill="url(#paint9_linear_1088_1096)"/>
<path d="M36.1041 26.4584L34.1562 24.5178V23.375C34.3469 23.375 34.5297 23.2993 34.6645 23.1645C34.7993 23.0297 34.875 22.8469 34.875 22.6562V19.7812C34.875 19.5906 34.7993 19.4078 34.6645 19.273C34.5297 19.1382 34.3469 19.0625 34.1562 19.0625H28.4062C28.2156 19.0625 28.0328 19.1382 27.898 19.273C27.7632 19.4078 27.6875 19.5906 27.6875 19.7812V22.6562C27.6875 22.8469 27.7632 23.0297 27.898 23.1645C28.0328 23.2993 28.2156 23.375 28.4062 23.375V24.5178L26.4584 26.4584C26.326 26.5955 26.2514 26.7782 26.25 26.9688V38.4688C26.25 38.6594 26.3257 38.8422 26.4605 38.977C26.5953 39.1118 26.7781 39.1875 26.9688 39.1875H35.5938C35.7844 39.1875 35.9672 39.1118 36.102 38.977C36.2368 38.8422 36.3125 38.6594 36.3125 38.4688V26.9688C36.3111 26.7782 36.2365 26.5955 36.1041 26.4584ZM29.125 20.5H33.4375V21.9375H29.125V20.5ZM29.6353 25.3228C29.7677 25.1858 29.8423 25.003 29.8438 24.8125V23.375H32.7188V24.8125C32.7202 25.003 32.7948 25.1858 32.9272 25.3228L33.8616 26.25H28.7009L29.6353 25.3228ZM34.875 37.75H27.6875V36.3125H34.875V37.75ZM34.875 34.875H27.6875V27.6875H34.875V34.875Z" fill="url(#paint10_linear_1088_1096)"/>
<path d="M16.1875 46.375H17.625V47.8125H16.1875V46.375Z" fill="url(#paint11_linear_1088_1096)"/>
<path d="M22.6562 46.375H24.0938V47.8125H22.6562V46.375Z" fill="url(#paint12_linear_1088_1096)"/>
<path d="M46.375 46.375H47.8125V47.8125H46.375V46.375Z" fill="url(#paint13_linear_1088_1096)"/>
<rect x="0.587156" y="-0.587156" width="62.8257" height="62.8257" rx="8.80734" transform="matrix(1 0 0 -1 0 62.8257)" stroke="url(#paint14_linear_1088_1096)" stroke-width="1.17431"/>
<defs>
<linearGradient id="paint0_linear_1088_1096" x1="10.4375" y1="32.5829" x2="53.5849" y2="32.8733" gradientUnits="userSpaceOnUse">
<stop stop-color="#214F89"/>
<stop offset="1" stop-color="#12BCAB"/>
</linearGradient>
<linearGradient id="paint1_linear_1088_1096" x1="44.9375" y1="39.7197" x2="47.8139" y2="39.7455" gradientUnits="userSpaceOnUse">
<stop stop-color="#214F89"/>
<stop offset="1" stop-color="#12BCAB"/>
</linearGradient>
<linearGradient id="paint2_linear_1088_1096" x1="10.4375" y1="51.2197" x2="52.8187" y2="56.9257" gradientUnits="userSpaceOnUse">
<stop stop-color="#214F89"/>
<stop offset="1" stop-color="#12BCAB"/>
</linearGradient>
<linearGradient id="paint3_linear_1088_1096" x1="24.8125" y1="22.4697" x2="26.2508" y2="22.4762" gradientUnits="userSpaceOnUse">
<stop stop-color="#214F89"/>
<stop offset="1" stop-color="#12BCAB"/>
</linearGradient>
<linearGradient id="paint4_linear_1088_1096" x1="16.9062" y1="15.2822" x2="25.5299" y2="15.5144" gradientUnits="userSpaceOnUse">
<stop stop-color="#214F89"/>
<stop offset="1" stop-color="#12BCAB"/>
</linearGradient>
<linearGradient id="paint5_linear_1088_1096" x1="14.0312" y1="12.4072" x2="22.6549" y2="12.6394" gradientUnits="userSpaceOnUse">
<stop stop-color="#214F89"/>
<stop offset="1" stop-color="#12BCAB"/>
</linearGradient>
<linearGradient id="paint6_linear_1088_1096" x1="11.1562" y1="12.4072" x2="12.5945" y2="12.4137" gradientUnits="userSpaceOnUse">
<stop stop-color="#214F89"/>
<stop offset="1" stop-color="#12BCAB"/>
</linearGradient>
<linearGradient id="paint7_linear_1088_1096" x1="17.625" y1="30.7216" x2="21.9399" y2="30.741" gradientUnits="userSpaceOnUse">
<stop stop-color="#214F89"/>
<stop offset="1" stop-color="#12BCAB"/>
</linearGradient>
<linearGradient id="paint8_linear_1088_1096" x1="14.75" y1="26.5134" x2="24.8181" y2="26.5359" gradientUnits="userSpaceOnUse">
<stop stop-color="#214F89"/>
<stop offset="1" stop-color="#12BCAB"/>
</linearGradient>
<linearGradient id="paint9_linear_1088_1096" x1="29.125" y1="30.7216" x2="33.4399" y2="30.741" gradientUnits="userSpaceOnUse">
<stop stop-color="#214F89"/>
<stop offset="1" stop-color="#12BCAB"/>
</linearGradient>
<linearGradient id="paint10_linear_1088_1096" x1="26.25" y1="26.5134" x2="36.3181" y2="26.5359" gradientUnits="userSpaceOnUse">
<stop stop-color="#214F89"/>
<stop offset="1" stop-color="#12BCAB"/>
</linearGradient>
<linearGradient id="paint11_linear_1088_1096" x1="16.1875" y1="46.9072" x2="17.6258" y2="46.9137" gradientUnits="userSpaceOnUse">
<stop stop-color="#214F89"/>
<stop offset="1" stop-color="#12BCAB"/>
</linearGradient>
<linearGradient id="paint12_linear_1088_1096" x1="22.6562" y1="46.9072" x2="24.0945" y2="46.9137" gradientUnits="userSpaceOnUse">
<stop stop-color="#214F89"/>
<stop offset="1" stop-color="#12BCAB"/>
</linearGradient>
<linearGradient id="paint13_linear_1088_1096" x1="46.375" y1="46.9072" x2="47.8133" y2="46.9137" gradientUnits="userSpaceOnUse">
<stop stop-color="#214F89"/>
<stop offset="1" stop-color="#12BCAB"/>
</linearGradient>
<linearGradient id="paint14_linear_1088_1096" x1="-9.95479e-09" y1="23.6946" x2="64.0349" y2="23.982" gradientUnits="userSpaceOnUse">
<stop stop-color="#214F89"/>
<stop offset="1" stop-color="#12BCAB"/>
</linearGradient>
</defs>
</svg>
