<svg width="64" height="64" viewBox="0 0 64 64" fill="none" xmlns="http://www.w3.org/2000/svg">
<g clip-path="url(#clip0_1088_1096)">
<path d="M52.8438 11.875H11.1562C10.5844 11.875 10.0359 12.1022 9.63155 12.5066C9.22718 12.9109 9 13.4594 9 14.0312V44.2188C9 44.7906 9.22718 45.3391 9.63155 45.7434C10.0359 46.1478 10.5844 46.375 11.1562 46.375H31.2812V50.6875H20.1406C19.95 50.6875 19.7672 50.7632 19.6324 50.898C19.4976 51.0328 19.4219 51.2156 19.4219 51.4062C19.4219 51.5969 19.4976 51.7797 19.6324 51.9145C19.7672 52.0493 19.95 52.125 20.1406 52.125H43.8594C44.05 52.125 44.2328 52.0493 44.3676 51.9145C44.5024 51.7797 44.5781 51.5969 44.5781 51.4062C44.5781 51.2156 44.5024 51.0328 44.3676 50.898C44.2328 50.7632 44.05 50.6875 43.8594 50.6875H32.7188V46.375H52.8438C53.4156 46.375 53.9641 46.1478 54.3684 45.7434C54.7728 45.3391 55 44.7906 55 44.2188V14.0312C55 13.4594 54.7728 12.9109 54.3684 12.5066C53.9641 12.1022 53.4156 11.875 52.8438 11.875ZM53.5625 44.2188C53.5625 44.4094 53.4868 44.5922 53.352 44.727C53.2172 44.8618 53.0344 44.9375 52.8438 44.9375H11.1562C10.9656 44.9375 10.7828 44.8618 10.648 44.727C10.5132 44.5922 10.4375 44.4094 10.4375 44.2188V14.0312C10.4375 13.8406 10.5132 13.6578 10.648 13.523C10.7828 13.3882 10.9656 13.3125 11.1562 13.3125H52.8438C53.0344 13.3125 53.2172 13.3882 53.352 13.523C53.4868 13.6578 53.5625 13.8406 53.5625 14.0312V44.2188Z" fill="url(#paint0_linear_1088_1096)"/>
<path d="M14.75 25.8906H17.2656V28.4062C17.2756 28.7843 17.4303 29.1442 17.6977 29.4117C17.9652 29.6791 18.325 29.8338 18.7031 29.8438H21.5781C21.9562 29.8338 22.3161 29.6791 22.5835 29.4117C22.851 29.1442 23.0056 28.7843 23.0156 28.4062V25.8906H25.5312C25.9093 25.8806 26.2692 25.726 26.5367 25.4585C26.8041 25.1911 26.9588 24.8312 26.9688 24.4531V21.5781C26.9588 21.2 26.8041 20.8402 26.5367 20.5727C26.2692 20.3053 25.9093 20.1506 25.5312 20.1406H23.0156V17.625C23.0056 17.2469 22.851 16.887 22.5835 16.6196C22.3161 16.3521 21.9562 16.1975 21.5781 16.1875H18.7031C18.325 16.1975 17.9652 16.3521 17.6977 16.6196C17.4303 16.887 17.2756 17.2469 17.2656 17.625V20.1406H14.75C14.3719 20.1506 14.012 20.3053 13.7446 20.5727C13.4771 20.8402 13.3225 21.2 13.3125 21.5781V24.4531C13.3225 24.8312 13.4771 25.1911 13.7446 25.4585C14.012 25.726 14.3719 25.8806 14.75 25.8906ZM14.75 21.5781H17.9844C18.175 21.5781 18.3578 21.5024 18.4926 21.3676C18.6274 21.2328 18.7031 21.05 18.7031 20.8594V17.6537C18.7031 17.6537 18.7247 17.625 18.7031 17.625H21.5494C21.5494 17.625 21.5781 17.6466 21.5781 17.625V20.8594C21.5781 21.05 21.6538 21.2328 21.7886 21.3676C21.9234 21.5024 22.1063 21.5781 22.2969 21.5781H25.5097H25.5312V24.4244V24.4531H22.2969C22.1063 24.4531 21.9234 24.5288 21.7886 24.6636C21.6538 24.7984 21.5781 24.9813 21.5781 25.1719V28.3775V28.4062H18.7319H18.7031V25.1719C18.7031 24.9813 18.6274 24.7984 18.4926 24.6636C18.3578 24.5288 18.175 24.4531 17.9844 24.4531H14.7787H14.75V21.6069C14.75 21.6069 14.768 21.5781 14.75 21.5781Z" fill="url(#paint1_linear_1088_1096)"/>
<path d="M50.6876 19.0625C50.6876 18.3 50.3847 17.5687 49.8456 17.0296C49.3064 16.4904 48.5751 16.1875 47.8126 16.1875C47.0501 16.1875 46.3189 16.4904 45.7797 17.0296C45.2405 17.5687 44.9376 18.3 44.9376 19.0625C44.9376 19.4718 45.0259 19.8763 45.1964 20.2484L39.087 25.3839C38.598 25.0155 38.003 24.8151 37.3908 24.8125C36.9327 24.8126 36.4813 24.9222 36.0742 25.1321C35.667 25.342 35.316 25.6461 35.0501 26.0192C34.7843 26.3922 34.6115 26.8233 34.5461 27.2767C34.4806 27.7301 34.5244 28.1925 34.6739 28.6255L28.9454 32.1258C28.6065 31.6458 28.1287 31.2813 27.5762 31.0811C27.0238 30.881 26.4233 30.855 25.8556 31.0065C25.288 31.158 24.7803 31.4798 24.4011 31.9286C24.0218 32.3774 23.7892 32.9316 23.7345 33.5166L18.9476 34.0808C18.809 33.5963 18.5455 33.1568 18.1834 32.8063C17.8214 32.4558 17.3737 32.2066 16.885 32.0837C16.3963 31.9608 15.8839 31.9684 15.3992 32.1059C14.9144 32.2434 14.4743 32.5059 14.1229 32.867C13.7715 33.2282 13.5212 33.6754 13.3971 34.1638C13.273 34.6521 13.2795 35.1645 13.4158 35.6496C13.5521 36.1347 13.8136 36.5755 14.1739 36.9277C14.5342 37.28 14.9808 37.5313 15.4689 37.6566V40.625H14.0314C13.8408 40.625 13.6579 40.7007 13.5231 40.8355C13.3884 40.9703 13.3126 41.1531 13.3126 41.3438C13.3126 41.5344 13.3884 41.7172 13.5231 41.852C13.6579 41.9868 13.8408 42.0625 14.0314 42.0625H49.9689C50.1595 42.0625 50.3423 41.9868 50.4771 41.852C50.6119 41.7172 50.6876 41.5344 50.6876 41.3438C50.6876 41.1531 50.6119 40.9703 50.4771 40.8355C50.3423 40.7007 50.1595 40.625 49.9689 40.625H48.5314V21.8441C49.1482 21.6848 49.6946 21.3252 50.0849 20.8218C50.4751 20.3183 50.6872 19.6995 50.6876 19.0625ZM47.8126 17.625C48.0969 17.625 48.3749 17.7093 48.6113 17.8673C48.8477 18.0252 49.0319 18.2497 49.1407 18.5124C49.2495 18.7751 49.278 19.0641 49.2225 19.3429C49.167 19.6218 49.0301 19.8779 48.8291 20.079C48.6281 20.28 48.3719 20.4169 48.0931 20.4724C47.8142 20.5278 47.5252 20.4994 47.2625 20.3906C46.9999 20.2818 46.7753 20.0975 46.6174 19.8611C46.4594 19.6247 46.3751 19.3468 46.3751 19.0625C46.3751 18.6813 46.5266 18.3156 46.7962 18.046C47.0657 17.7765 47.4314 17.625 47.8126 17.625ZM37.3908 26.25C37.6751 26.25 37.953 26.3343 38.1894 26.4923C38.4258 26.6502 38.61 26.8747 38.7188 27.1374C38.8276 27.4001 38.8561 27.6891 38.8006 27.9679C38.7452 28.2468 38.6083 28.5029 38.4072 28.704C38.2062 28.905 37.95 29.0419 37.6712 29.0974C37.3924 29.1528 37.1033 29.1244 36.8406 29.0156C36.578 28.9068 36.3535 28.7225 36.1955 28.4861C36.0376 28.2497 35.9533 27.9718 35.9533 27.6875C35.9533 27.3063 36.1047 26.9406 36.3743 26.671C36.6439 26.4015 37.0095 26.25 37.3908 26.25ZM35.4717 29.8222C35.8141 30.1309 36.2258 30.3528 36.672 30.4691V40.625H27.3283V36.5784C27.945 36.4192 28.4915 36.0596 28.8817 35.5561C29.272 35.0527 29.484 34.4339 29.4845 33.7969C29.49 33.6951 29.49 33.5932 29.4845 33.4914L35.4717 29.8222ZM26.6095 32.3594C26.8938 32.3594 27.1717 32.4437 27.4081 32.6016C27.6445 32.7596 27.8288 32.9841 27.9376 33.2468C28.0464 33.5094 28.0748 33.7985 28.0194 34.0773C27.9639 34.3562 27.827 34.6123 27.626 34.8133C27.4249 35.0144 27.1688 35.1513 26.8899 35.2068C26.6111 35.2622 26.3221 35.2338 26.0594 35.125C25.7967 35.0162 25.5722 34.8319 25.4143 34.5955C25.2563 34.3591 25.172 34.0812 25.172 33.7969C25.172 33.4156 25.3235 33.05 25.593 32.7804C25.8626 32.5108 26.2283 32.3594 26.6095 32.3594ZM14.7501 34.875C14.7501 34.5907 14.8344 34.3128 14.9924 34.0764C15.1503 33.84 15.3749 33.6557 15.6375 33.5469C15.9002 33.4381 16.1892 33.4097 16.4681 33.4651C16.7469 33.5206 17.0031 33.6575 17.2041 33.8585C17.4051 34.0596 17.542 34.3157 17.5975 34.5946C17.653 34.8734 17.6245 35.1624 17.5157 35.4251C17.4069 35.6878 17.2227 35.9123 16.9863 36.0702C16.7499 36.2282 16.4719 36.3125 16.1876 36.3125C15.8064 36.3125 15.4407 36.1611 15.1712 35.8915C14.9016 35.6219 14.7501 35.2562 14.7501 34.875ZM16.9064 37.6566C17.4152 37.5249 17.8782 37.2563 18.2451 36.88C18.6119 36.5036 18.8686 36.0339 18.9872 35.5219L23.9717 34.9361C24.1454 35.3379 24.4086 35.6947 24.7412 35.9793C25.0738 36.2639 25.467 36.4688 25.8908 36.5784V40.625H16.9064V37.6566ZM38.1095 40.625V30.4691C38.7263 30.3098 39.2727 29.9502 39.663 29.4468C40.0533 28.9433 40.2653 28.3245 40.2658 27.6875C40.2658 27.2782 40.1775 26.8737 40.007 26.5016L46.1164 21.3661C46.4088 21.5862 46.7406 21.7484 47.0939 21.8441V40.625H38.1095Z" fill="url(#paint2_linear_1088_1096)"/>
</g>
<rect x="0.587156" y="-0.587156" width="62.8257" height="62.8257" rx="8.80734" transform="matrix(1 0 0 -1 0 62.8257)" stroke="url(#paint3_linear_1088_1096)" stroke-width="1.17431"/>
<defs>
<linearGradient id="paint0_linear_1088_1096" x1="9" y1="26.7767" x2="55.0248" y2="27.0128" gradientUnits="userSpaceOnUse">
<stop stop-color="#214F89"/>
<stop offset="1" stop-color="#12BCAB"/>
</linearGradient>
<linearGradient id="paint1_linear_1088_1096" x1="13.3125" y1="21.2434" x2="26.9762" y2="21.3048" gradientUnits="userSpaceOnUse">
<stop stop-color="#214F89"/>
<stop offset="1" stop-color="#12BCAB"/>
</linearGradient>
<linearGradient id="paint2_linear_1088_1096" x1="13.3086" y1="25.7672" x2="50.7072" y2="26.0096" gradientUnits="userSpaceOnUse">
<stop stop-color="#214F89"/>
<stop offset="1" stop-color="#12BCAB"/>
</linearGradient>
<linearGradient id="paint3_linear_1088_1096" x1="-9.95479e-09" y1="23.6946" x2="64.0349" y2="23.982" gradientUnits="userSpaceOnUse">
<stop stop-color="#214F89"/>
<stop offset="1" stop-color="#12BCAB"/>
</linearGradient>
<clipPath id="clip0_1088_1096">
<rect width="46" height="46" fill="white" transform="translate(9 9)"/>
</clipPath>
</defs>
</svg>
