<svg width="64" height="64" viewBox="0 0 64 64" fill="none" xmlns="http://www.w3.org/2000/svg">
<rect x="0.587156" y="-0.587156" width="62.8257" height="62.8257" rx="8.80734" transform="matrix(1 0 0 -1 0 62.8257)" stroke="url(#paint0_linear_1910_343)" stroke-width="1.17431"/>
<path d="M34.1562 51.4062H35.5938V52.8438H34.1562V51.4062Z" fill="url(#paint1_linear_1910_343)"/>
<path d="M37.0312 51.4062H38.4688V52.8438H37.0312V51.4062Z" fill="url(#paint2_linear_1910_343)"/>
<path d="M39.9062 51.4062H41.3438V52.8438H39.9062V51.4062Z" fill="url(#paint3_linear_1910_343)"/>
<path d="M31.2812 51.4062H32.7188V52.8438H31.2812V51.4062Z" fill="url(#paint4_linear_1910_343)"/>
<path d="M28.4062 51.4062H29.8438V52.8438H28.4062V51.4062Z" fill="url(#paint5_linear_1910_343)"/>
<path d="M25.5312 51.4062H26.9688V52.8438H25.5312V51.4062Z" fill="url(#paint6_linear_1910_343)"/>
<path d="M22.6562 51.4062H24.0938V52.8438H22.6562V51.4062Z" fill="url(#paint7_linear_1910_343)"/>
<path d="M34.1562 40.625H35.5938V42.0625H34.1562V40.625Z" fill="url(#paint8_linear_1910_343)"/>
<path d="M37.0312 40.625H38.4688V42.0625H37.0312V40.625Z" fill="url(#paint9_linear_1910_343)"/>
<path d="M39.9062 40.625H41.3438V42.0625H39.9062V40.625Z" fill="url(#paint10_linear_1910_343)"/>
<path d="M31.2812 40.625H32.7188V42.0625H31.2812V40.625Z" fill="url(#paint11_linear_1910_343)"/>
<path d="M28.4062 40.625H29.8438V42.0625H28.4062V40.625Z" fill="url(#paint12_linear_1910_343)"/>
<path d="M25.5312 40.625H26.9688V42.0625H25.5312V40.625Z" fill="url(#paint13_linear_1910_343)"/>
<path d="M22.6562 40.625H24.0938V42.0625H22.6562V40.625Z" fill="url(#paint14_linear_1910_343)"/>
<path d="M29.125 32.7188H33.4375C33.5319 32.7188 33.6254 32.7002 33.7126 32.6641C33.7998 32.628 33.879 32.575 33.9458 32.5083C34.0125 32.4415 34.0655 32.3623 34.1016 32.2751C34.1377 32.1879 34.1563 32.0944 34.1562 32V22.6562C34.1563 22.5619 34.1377 22.4684 34.1016 22.3812C34.0655 22.294 34.0125 22.2147 33.9458 22.148C33.879 22.0812 33.7998 22.0283 33.7126 21.9922C33.6254 21.9561 33.5319 21.9375 33.4375 21.9375H29.125C29.0306 21.9375 28.9371 21.9561 28.8499 21.9922C28.7627 22.0283 28.6835 22.0812 28.6167 22.148C28.55 22.2147 28.497 22.294 28.4609 22.3812C28.4248 22.4684 28.4062 22.5619 28.4063 22.6562V32C28.4062 32.0944 28.4248 32.1879 28.4609 32.2751C28.497 32.3623 28.55 32.4415 28.6167 32.5083C28.6835 32.575 28.7627 32.628 28.8499 32.6641C28.9371 32.7002 29.0306 32.7188 29.125 32.7188ZM29.8438 23.375H32.7188V31.2812H29.8438V23.375Z" fill="url(#paint15_linear_1910_343)"/>
<path d="M20.5 32.7188H24.8125C24.9069 32.7188 25.0004 32.7002 25.0876 32.6641C25.1748 32.628 25.254 32.575 25.3208 32.5083C25.3875 32.4415 25.4405 32.3623 25.4766 32.2751C25.5127 32.1879 25.5313 32.0944 25.5312 32V26.9688C25.5313 26.8744 25.5127 26.7809 25.4766 26.6937C25.4405 26.6065 25.3875 26.5272 25.3208 26.4605C25.254 26.3937 25.1748 26.3408 25.0876 26.3047C25.0004 26.2686 24.9069 26.25 24.8125 26.25H20.5C20.4056 26.25 20.3121 26.2686 20.2249 26.3047C20.1377 26.3408 20.0585 26.3937 19.9917 26.4605C19.925 26.5272 19.872 26.6065 19.8359 26.6937C19.7998 26.7809 19.7812 26.8744 19.7813 26.9688V32C19.7812 32.0944 19.7998 32.1879 19.8359 32.2751C19.872 32.3623 19.925 32.4415 19.9917 32.5083C20.0585 32.575 20.1377 32.628 20.2249 32.6641C20.3121 32.7002 20.4056 32.7188 20.5 32.7188ZM21.2188 27.6875H24.0938V31.2812H21.2188V27.6875Z" fill="url(#paint16_linear_1910_343)"/>
<path d="M35.5935 20.4998H37.031V31.9998C37.031 32.0942 37.0496 32.1877 37.0857 32.2749C37.1218 32.3621 37.1748 32.4413 37.2415 32.5081C37.3082 32.5748 37.3875 32.6278 37.4747 32.6639C37.5619 32.7 37.6554 32.7186 37.7498 32.7185H42.0623C42.1567 32.7186 42.2502 32.7 42.3374 32.6639C42.4246 32.6278 42.5038 32.5748 42.5706 32.5081C42.6373 32.4413 42.6903 32.3621 42.7264 32.2749C42.7625 32.1877 42.7811 32.0942 42.781 31.9998V20.4998H44.2185C44.356 20.4998 44.4906 20.4603 44.6063 20.3861C44.722 20.3119 44.814 20.2061 44.8714 20.0812C44.9288 19.9564 44.9492 19.8176 44.9301 19.6815C44.9111 19.5454 44.8534 19.4176 44.7639 19.3132L40.4514 14.282C40.382 14.2066 40.2976 14.1465 40.2038 14.1053C40.1099 14.0642 40.0085 14.043 39.906 14.043C39.8036 14.043 39.7022 14.0642 39.6083 14.1053C39.5144 14.1465 39.4301 14.2066 39.3607 14.282L35.0482 19.3132C34.9587 19.4176 34.901 19.5454 34.8819 19.6815C34.8629 19.8176 34.8833 19.9564 34.9407 20.0812C34.9981 20.2061 35.0901 20.3119 35.2058 20.3861C35.3215 20.4603 35.4561 20.4998 35.5935 20.4998ZM39.906 15.8542L42.6561 19.0623H42.0623C41.9679 19.0623 41.8744 19.0808 41.7872 19.117C41.7 19.1531 41.6207 19.206 41.554 19.2728C41.4873 19.3395 41.4343 19.4187 41.3982 19.506C41.3621 19.5932 41.3435 19.6866 41.3435 19.781V31.281H38.4685V19.781C38.4686 19.6866 38.45 19.5932 38.4139 19.506C38.3778 19.4187 38.3248 19.3395 38.2581 19.2728C38.1913 19.206 38.1121 19.1531 38.0249 19.117C37.9377 19.0808 37.8442 19.0623 37.7498 19.0623H37.156L39.906 15.8542Z" fill="url(#paint17_linear_1910_343)"/>
<path d="M18.3438 35.5938H45.6562C46.2279 35.5931 46.776 35.3657 47.1803 34.9615C47.5845 34.5573 47.8119 34.0092 47.8125 33.4375V13.3125C47.8119 12.7408 47.5845 12.1927 47.1803 11.7885C46.776 11.3843 46.2279 11.1569 45.6562 11.1562H18.3438C17.7721 11.1569 17.224 11.3843 16.8197 11.7885C16.4155 12.1927 16.1881 12.7408 16.1875 13.3125V33.4375C16.1881 34.0092 16.4155 34.5573 16.8197 34.9615C17.224 35.3657 17.7721 35.5931 18.3438 35.5938ZM17.625 13.3125C17.6252 13.1219 17.701 12.9392 17.8357 12.8045C17.9705 12.6697 18.1532 12.5939 18.3438 12.5938H45.6562C45.8468 12.5939 46.0295 12.6697 46.1643 12.8045C46.299 12.9392 46.3748 13.1219 46.375 13.3125V33.4375C46.3748 33.6281 46.299 33.8108 46.1643 33.9455C46.0295 34.0803 45.8468 34.1561 45.6562 34.1562H18.3438C18.1532 34.1561 17.9705 34.0803 17.8357 33.9455C17.701 33.8108 17.6252 33.6281 17.625 33.4375V13.3125Z" fill="url(#paint18_linear_1910_343)"/>
<path d="M10.0872 45.562L10.7336 45.9231C10.7196 46.0751 10.7125 46.2249 10.7125 46.3748C10.7125 46.5246 10.7196 46.6745 10.7336 46.8265L10.0872 47.1876C9.94756 47.2656 9.83795 47.3879 9.77565 47.5351C9.71336 47.6824 9.70195 47.8463 9.74322 48.0007C10.0494 49.1434 10.6654 50.1792 11.5232 50.9937C11.6344 51.0994 11.7764 51.1668 11.9286 51.1861C12.0807 51.2053 12.2351 51.1754 12.369 51.1007L13.0639 50.7392C13.3281 50.9134 13.6016 51.0731 13.8831 51.2176V51.9135C13.8832 52.0718 13.9355 52.2257 14.0319 52.3513C14.1284 52.4768 14.2636 52.5671 14.4165 52.608C14.9954 52.7636 15.5922 52.8428 16.1916 52.8435C16.2183 52.8435 16.2457 52.8435 16.2723 52.8432C16.842 52.834 17.4083 52.754 17.9583 52.6053C18.1113 52.5644 18.2465 52.4741 18.3429 52.3486C18.4394 52.223 18.4917 52.0691 18.4918 51.9107L18.4967 51.193C18.7801 51.0655 19.052 50.914 19.3095 50.74L20.0023 51.099C20.1362 51.1739 20.2905 51.2039 20.4428 51.1846C20.595 51.1654 20.737 51.0978 20.8481 50.9919C21.7067 50.1782 22.3239 49.1431 22.6316 48.0008C22.673 47.8463 22.6616 47.6824 22.5993 47.5351C22.537 47.3878 22.4273 47.2655 22.2877 47.1876L21.6412 46.8265C21.6552 46.6745 21.6623 46.5247 21.6623 46.3748C21.6623 46.225 21.6552 46.0751 21.6412 45.9231L22.2877 45.562C22.4273 45.484 22.5369 45.3617 22.5992 45.2144C22.6614 45.0672 22.6729 44.9033 22.6316 44.7488C22.3254 43.6058 21.7088 42.5698 20.8502 41.7556C20.7391 41.6499 20.5972 41.5826 20.4451 41.5634C20.293 41.5443 20.1388 41.5743 20.0051 41.6492L19.3109 42.0103C19.0467 41.8361 18.7733 41.6764 18.4918 41.532V40.8361C18.4917 40.6778 18.4393 40.5239 18.3429 40.3983C18.2464 40.2727 18.1113 40.1825 17.9583 40.1416C17.3526 39.9812 16.7283 39.9021 16.1018 39.9064C15.5323 39.9156 14.9662 39.9955 14.4165 40.1443C14.2635 40.1852 14.1283 40.2754 14.0319 40.401C13.9354 40.5266 13.8831 40.6805 13.8831 40.8389L13.8767 41.5569C13.5939 41.6845 13.3225 41.836 13.0653 42.0096L12.3726 41.651C12.2386 41.5763 12.0843 41.5464 11.9322 41.5655C11.78 41.5847 11.638 41.652 11.5268 41.7577C10.6683 42.5716 10.0512 43.6066 9.74323 44.7488C9.70183 44.9033 9.71318 45.0672 9.77548 45.2145C9.83778 45.3618 9.94747 45.4841 10.0872 45.562ZM12.2202 47.0792C12.1267 46.6141 12.1267 46.1351 12.2202 45.6701C12.2483 45.5218 12.2291 45.3684 12.1652 45.2317C12.1013 45.095 11.9961 44.9818 11.8644 44.9082L11.3043 44.5955C11.5083 44.0787 11.797 43.5995 12.1585 43.1776L12.2925 43.2527C12.5347 43.3894 12.8097 43.4568 13.0876 43.4478C13.3655 43.4388 13.6356 43.3536 13.8683 43.2015C14.0587 43.0736 14.2595 42.9617 14.4685 42.867C14.7237 42.7499 14.9399 42.5617 15.091 42.3249C15.2421 42.0882 15.3218 41.8129 15.3206 41.532V41.4172C15.8943 41.3193 16.4804 41.3187 17.0543 41.4155V41.532C17.0531 41.8128 17.1327 42.088 17.2837 42.3247C17.4347 42.5614 17.6506 42.7497 17.9057 42.867C18.1152 42.9612 18.3162 43.0732 18.5065 43.2018C18.7392 43.3538 19.0092 43.439 19.2869 43.448C19.5647 43.4569 19.8396 43.3894 20.0816 43.2527L20.2192 43.1762C20.5805 43.5981 20.8683 44.0778 21.0706 44.5951L20.5105 44.9081C20.3787 44.9818 20.2735 45.095 20.2096 45.2317C20.1458 45.3684 20.1265 45.5218 20.1546 45.6701C20.2482 46.1351 20.2482 46.6141 20.1546 47.0791C20.1263 47.2275 20.1455 47.381 20.2094 47.5178C20.2732 47.6546 20.3786 47.7678 20.5105 47.8414L21.0706 48.1541C20.8668 48.671 20.5781 49.1502 20.2164 49.5719L20.0823 49.4968C19.8403 49.3599 19.5652 49.2922 19.2872 49.3012C19.0093 49.3103 18.7392 49.3957 18.5065 49.5481C18.3161 49.6764 18.1151 49.7883 17.9057 49.8825C17.6506 49.9999 17.4347 50.1881 17.2837 50.4249C17.1327 50.6616 17.0531 50.9368 17.0543 51.2176V51.3323C16.7901 51.3774 16.5228 51.4019 16.2548 51.4056C15.9419 51.4104 15.6292 51.3864 15.3206 51.3341V51.2176C15.3219 50.9368 15.2422 50.6617 15.0912 50.425C14.9403 50.1883 14.7243 50.0001 14.4692 49.8829C14.2599 49.7882 14.0589 49.6761 13.8684 49.5477C13.6356 49.3959 13.3657 49.3108 13.088 49.3018C12.8102 49.2928 12.5353 49.3601 12.2932 49.4965L12.1556 49.5737C11.7944 49.1516 11.5066 48.6719 11.3042 48.1545L11.8644 47.8414C11.9962 47.7679 12.1016 47.6546 12.1655 47.5178C12.2294 47.381 12.2485 47.2275 12.2202 47.0792Z" fill="url(#paint19_linear_1910_343)"/>
<path d="M16.1875 49.25C16.7561 49.25 17.312 49.0814 17.7848 48.7655C18.2576 48.4496 18.6261 48.0006 18.8437 47.4752C19.0613 46.9499 19.1182 46.3718 19.0073 45.8141C18.8963 45.2564 18.6225 44.7441 18.2204 44.3421C17.8184 43.94 17.3061 43.6662 16.7484 43.5552C16.1907 43.4443 15.6126 43.5012 15.0873 43.7188C14.5619 43.9364 14.1129 44.3049 13.797 44.7777C13.4811 45.2505 13.3125 45.8064 13.3125 46.375C13.3133 47.1372 13.6165 47.868 14.1555 48.407C14.6945 48.946 15.4253 49.2492 16.1875 49.25ZM16.1875 44.9375C16.4718 44.9375 16.7497 45.0218 16.9861 45.1798C17.2225 45.3377 17.4068 45.5622 17.5156 45.8249C17.6244 46.0876 17.6528 46.3766 17.5974 46.6554C17.5419 46.9343 17.405 47.1904 17.204 47.3915C17.0029 47.5925 16.7468 47.7294 16.4679 47.7849C16.1891 47.8403 15.9001 47.8119 15.6374 47.7031C15.3747 47.5943 15.1502 47.41 14.9923 47.1736C14.8343 46.9372 14.75 46.6593 14.75 46.375C14.7504 45.9939 14.902 45.6285 15.1715 45.359C15.441 45.0895 15.8064 44.9379 16.1875 44.9375Z" fill="url(#paint20_linear_1910_343)"/>
<path d="M46.0415 40.1443C45.8885 40.1852 45.7533 40.2754 45.6569 40.401C45.5604 40.5266 45.5081 40.6805 45.5081 40.8388L45.5017 41.5569C45.2189 41.6845 44.9475 41.836 44.6903 42.0096L43.9976 41.6509C43.8636 41.5763 43.7093 41.5464 43.5572 41.5656C43.405 41.5847 43.263 41.652 43.1518 41.7576C42.2933 42.5716 41.6762 43.6066 41.3682 44.7488C41.3268 44.9033 41.3382 45.0672 41.4005 45.2145C41.4628 45.3618 41.5725 45.4841 41.7122 45.562L42.3586 45.9231C42.3446 46.075 42.3376 46.2249 42.3376 46.3748C42.3376 46.5246 42.3446 46.6745 42.3586 46.8264L41.7122 47.1876C41.5726 47.2655 41.463 47.3878 41.4007 47.5351C41.3384 47.6824 41.327 47.8462 41.3682 48.0007C41.6744 49.1434 42.2904 50.1791 43.1483 50.9936C43.2594 51.0993 43.4014 51.1668 43.5536 51.186C43.7057 51.2053 43.8601 51.1754 43.9941 51.1007L44.6889 50.7392C44.9531 50.9133 45.2266 51.073 45.5081 51.2175V51.9135C45.5082 52.0718 45.5605 52.2257 45.6569 52.3513C45.7534 52.4768 45.8886 52.5671 46.0415 52.608C46.6204 52.7636 47.2172 52.8428 47.8166 52.8435C47.8433 52.8435 47.8707 52.8435 47.8973 52.8432C48.467 52.8339 49.0333 52.754 49.5833 52.6052C49.7363 52.5644 49.8715 52.4741 49.9679 52.3485C50.0644 52.223 50.1167 52.0691 50.1168 51.9107L50.1217 51.193C50.4051 51.0655 50.677 50.9139 50.9345 50.7399L51.6273 51.099C51.7612 51.1739 51.9156 51.2039 52.0678 51.1846C52.22 51.1653 52.362 51.0978 52.4731 50.9919C53.3317 50.1782 53.9489 49.1431 54.2566 48.0008C54.298 47.8463 54.2866 47.6824 54.2243 47.5351C54.162 47.3878 54.0523 47.2655 53.9127 47.1876L53.2662 46.8265C53.2802 46.6745 53.2873 46.5247 53.2873 46.3748C53.2873 46.2249 53.2802 46.0751 53.2662 45.9231L53.9127 45.562C54.0523 45.484 54.1619 45.3617 54.2242 45.2144C54.2865 45.0672 54.2979 44.9033 54.2566 44.7488C53.9504 43.6058 53.3338 42.5698 52.4752 41.7556C52.3641 41.6499 52.2222 41.5825 52.0701 41.5634C51.918 41.5443 51.7638 41.5743 51.6301 41.6492L50.9359 42.0103C50.6717 41.8361 50.3983 41.6764 50.1168 41.532V40.8361C50.1167 40.6777 50.0643 40.5239 49.9679 40.3983C49.8714 40.2727 49.7363 40.1825 49.5833 40.1415C48.9776 39.9815 48.3533 39.9024 47.7268 39.9064C47.1573 39.9156 46.5912 39.9955 46.0415 40.1443ZM48.6793 41.4155V41.532C48.678 41.8127 48.7577 42.0879 48.9086 42.3247C49.0596 42.5614 49.2756 42.7497 49.5307 42.867C49.7402 42.9612 49.9412 43.0732 50.1315 43.2018C50.3642 43.3538 50.6341 43.439 50.9119 43.4479C51.1897 43.4569 51.4646 43.3894 51.7066 43.2527L51.8442 43.1762C52.2055 43.5981 52.4933 44.0777 52.6956 44.5951L52.1355 44.9081C52.0037 44.9818 51.8985 45.0949 51.8346 45.2317C51.7708 45.3684 51.7515 45.5218 51.7796 45.67C51.8732 46.1351 51.8732 46.6141 51.7796 47.0791C51.7513 47.2275 51.7705 47.3809 51.8344 47.5178C51.8982 47.6546 52.0036 47.7678 52.1355 47.8414L52.6956 48.1541C52.4918 48.671 52.2031 49.1502 51.8414 49.5719L51.7073 49.4968C51.4653 49.3598 51.1902 49.2922 50.9122 49.3012C50.6343 49.3102 50.3642 49.3957 50.1315 49.5481C49.9411 49.6764 49.7401 49.7883 49.5307 49.8825C49.2756 49.9998 49.0597 50.1881 48.9087 50.4248C48.7577 50.6616 48.6781 50.9368 48.6793 51.2175V51.3323C48.4151 51.3774 48.1478 51.4019 47.8798 51.4056C47.5669 51.4104 47.2542 51.3864 46.9456 51.334V51.2175C46.9469 50.9368 46.8672 50.6616 46.7162 50.4249C46.5653 50.1882 46.3493 50 46.0942 49.8828C45.8849 49.7881 45.6839 49.676 45.4934 49.5477C45.2606 49.3959 44.9907 49.3108 44.713 49.3018C44.4353 49.2927 44.1604 49.3601 43.9183 49.4964L43.7807 49.5736C43.4194 49.1516 43.1316 48.6718 42.9293 48.1544L43.4894 47.8414C43.6213 47.7678 43.7266 47.6546 43.7905 47.5177C43.8544 47.3809 43.8735 47.2275 43.8452 47.0791C43.7517 46.6141 43.7517 46.1351 43.8452 45.6701C43.8733 45.5218 43.8541 45.3684 43.7902 45.2317C43.7264 45.095 43.6211 44.9818 43.4894 44.9081L42.9293 44.5954C43.1333 44.0787 43.422 43.5995 43.7835 43.1776L43.9175 43.2527C44.1597 43.3893 44.4347 43.4568 44.7126 43.4478C44.9905 43.4387 45.2606 43.3535 45.4933 43.2015C45.6837 43.0735 45.8845 42.9616 46.0935 42.867C46.3488 42.7499 46.5649 42.5616 46.716 42.3249C46.8671 42.0881 46.9468 41.8128 46.9456 41.532V41.4172C47.2095 41.3721 47.4766 41.3476 47.7444 41.3439C48.0575 41.339 48.3705 41.3629 48.6793 41.4155Z" fill="url(#paint21_linear_1910_343)"/>
<path d="M44.9375 46.375C44.9375 46.9436 45.1061 47.4995 45.422 47.9723C45.7379 48.4451 46.1869 48.8136 46.7123 49.0312C47.2376 49.2488 47.8157 49.3057 48.3734 49.1948C48.9311 49.0838 49.4434 48.81 49.8454 48.4079C50.2475 48.0059 50.5213 47.4936 50.6323 46.9359C50.7432 46.3782 50.6863 45.8001 50.4687 45.2748C50.2511 44.7494 49.8826 44.3004 49.4098 43.9845C48.937 43.6686 48.3811 43.5 47.8125 43.5C47.0503 43.5008 46.3195 43.804 45.7805 44.343C45.2415 44.882 44.9383 45.6128 44.9375 46.375ZM47.8125 44.9375C48.0968 44.9375 48.3747 45.0218 48.6111 45.1798C48.8475 45.3377 49.0318 45.5622 49.1406 45.8249C49.2494 46.0876 49.2778 46.3766 49.2224 46.6554C49.1669 46.9343 49.03 47.1904 48.829 47.3915C48.6279 47.5925 48.3718 47.7294 48.0929 47.7849C47.8141 47.8403 47.5251 47.8119 47.2624 47.7031C46.9997 47.5943 46.7752 47.41 46.6173 47.1736C46.4593 46.9372 46.375 46.6593 46.375 46.375C46.3754 45.9939 46.527 45.6285 46.7965 45.359C47.066 45.0895 47.4314 44.9379 47.8125 44.9375Z" fill="url(#paint22_linear_1910_343)"/>
<defs>
<linearGradient id="paint0_linear_1910_343" x1="-9.95479e-09" y1="23.6946" x2="64.0349" y2="23.982" gradientUnits="userSpaceOnUse">
<stop stop-color="#214F89"/>
<stop offset="1" stop-color="#12BCAB"/>
</linearGradient>
<linearGradient id="paint1_linear_1910_343" x1="34.1562" y1="51.9385" x2="35.5945" y2="51.9449" gradientUnits="userSpaceOnUse">
<stop stop-color="#214F89"/>
<stop offset="1" stop-color="#12BCAB"/>
</linearGradient>
<linearGradient id="paint2_linear_1910_343" x1="37.0312" y1="51.9385" x2="38.4695" y2="51.9449" gradientUnits="userSpaceOnUse">
<stop stop-color="#214F89"/>
<stop offset="1" stop-color="#12BCAB"/>
</linearGradient>
<linearGradient id="paint3_linear_1910_343" x1="39.9062" y1="51.9385" x2="41.3445" y2="51.9449" gradientUnits="userSpaceOnUse">
<stop stop-color="#214F89"/>
<stop offset="1" stop-color="#12BCAB"/>
</linearGradient>
<linearGradient id="paint4_linear_1910_343" x1="31.2812" y1="51.9385" x2="32.7195" y2="51.9449" gradientUnits="userSpaceOnUse">
<stop stop-color="#214F89"/>
<stop offset="1" stop-color="#12BCAB"/>
</linearGradient>
<linearGradient id="paint5_linear_1910_343" x1="28.4062" y1="51.9385" x2="29.8445" y2="51.9449" gradientUnits="userSpaceOnUse">
<stop stop-color="#214F89"/>
<stop offset="1" stop-color="#12BCAB"/>
</linearGradient>
<linearGradient id="paint6_linear_1910_343" x1="25.5312" y1="51.9385" x2="26.9695" y2="51.9449" gradientUnits="userSpaceOnUse">
<stop stop-color="#214F89"/>
<stop offset="1" stop-color="#12BCAB"/>
</linearGradient>
<linearGradient id="paint7_linear_1910_343" x1="22.6562" y1="51.9385" x2="24.0945" y2="51.9449" gradientUnits="userSpaceOnUse">
<stop stop-color="#214F89"/>
<stop offset="1" stop-color="#12BCAB"/>
</linearGradient>
<linearGradient id="paint8_linear_1910_343" x1="34.1562" y1="41.1572" x2="35.5945" y2="41.1637" gradientUnits="userSpaceOnUse">
<stop stop-color="#214F89"/>
<stop offset="1" stop-color="#12BCAB"/>
</linearGradient>
<linearGradient id="paint9_linear_1910_343" x1="37.0312" y1="41.1572" x2="38.4695" y2="41.1637" gradientUnits="userSpaceOnUse">
<stop stop-color="#214F89"/>
<stop offset="1" stop-color="#12BCAB"/>
</linearGradient>
<linearGradient id="paint10_linear_1910_343" x1="39.9062" y1="41.1572" x2="41.3445" y2="41.1637" gradientUnits="userSpaceOnUse">
<stop stop-color="#214F89"/>
<stop offset="1" stop-color="#12BCAB"/>
</linearGradient>
<linearGradient id="paint11_linear_1910_343" x1="31.2812" y1="41.1572" x2="32.7195" y2="41.1637" gradientUnits="userSpaceOnUse">
<stop stop-color="#214F89"/>
<stop offset="1" stop-color="#12BCAB"/>
</linearGradient>
<linearGradient id="paint12_linear_1910_343" x1="28.4062" y1="41.1572" x2="29.8445" y2="41.1637" gradientUnits="userSpaceOnUse">
<stop stop-color="#214F89"/>
<stop offset="1" stop-color="#12BCAB"/>
</linearGradient>
<linearGradient id="paint13_linear_1910_343" x1="25.5312" y1="41.1572" x2="26.9695" y2="41.1637" gradientUnits="userSpaceOnUse">
<stop stop-color="#214F89"/>
<stop offset="1" stop-color="#12BCAB"/>
</linearGradient>
<linearGradient id="paint14_linear_1910_343" x1="22.6562" y1="41.1572" x2="24.0945" y2="41.1637" gradientUnits="userSpaceOnUse">
<stop stop-color="#214F89"/>
<stop offset="1" stop-color="#12BCAB"/>
</linearGradient>
<linearGradient id="paint15_linear_1910_343" x1="28.4062" y1="25.929" x2="34.1595" y2="25.9428" gradientUnits="userSpaceOnUse">
<stop stop-color="#214F89"/>
<stop offset="1" stop-color="#12BCAB"/>
</linearGradient>
<linearGradient id="paint16_linear_1910_343" x1="19.7812" y1="28.6449" x2="25.5344" y2="28.6679" gradientUnits="userSpaceOnUse">
<stop stop-color="#214F89"/>
<stop offset="1" stop-color="#12BCAB"/>
</linearGradient>
<linearGradient id="paint17_linear_1910_343" x1="34.875" y1="20.9572" x2="44.9427" y2="20.9815" gradientUnits="userSpaceOnUse">
<stop stop-color="#214F89"/>
<stop offset="1" stop-color="#12BCAB"/>
</linearGradient>
<linearGradient id="paint18_linear_1910_343" x1="16.1875" y1="20.2037" x2="47.8293" y2="20.3875" gradientUnits="userSpaceOnUse">
<stop stop-color="#214F89"/>
<stop offset="1" stop-color="#12BCAB"/>
</linearGradient>
<linearGradient id="paint19_linear_1910_343" x1="9.71875" y1="44.696" x2="22.6631" y2="44.7541" gradientUnits="userSpaceOnUse">
<stop stop-color="#214F89"/>
<stop offset="1" stop-color="#12BCAB"/>
</linearGradient>
<linearGradient id="paint20_linear_1910_343" x1="13.3125" y1="45.6288" x2="19.0656" y2="45.6546" gradientUnits="userSpaceOnUse">
<stop stop-color="#214F89"/>
<stop offset="1" stop-color="#12BCAB"/>
</linearGradient>
<linearGradient id="paint21_linear_1910_343" x1="41.3437" y1="44.696" x2="54.2881" y2="44.7541" gradientUnits="userSpaceOnUse">
<stop stop-color="#214F89"/>
<stop offset="1" stop-color="#12BCAB"/>
</linearGradient>
<linearGradient id="paint22_linear_1910_343" x1="44.9375" y1="45.6288" x2="50.6906" y2="45.6546" gradientUnits="userSpaceOnUse">
<stop stop-color="#214F89"/>
<stop offset="1" stop-color="#12BCAB"/>
</linearGradient>
</defs>
</svg>
