<svg width="64" height="64" viewBox="0 0 64 64" fill="none" xmlns="http://www.w3.org/2000/svg">
<rect x="0.587156" y="-0.587156" width="62.8257" height="62.8257" rx="8.80734" transform="matrix(1 0 0 -1 0 62.8257)" stroke="url(#paint0_linear_1910_376)" stroke-width="1.17431"/>
<path d="M26.5994 42.3225C26.3858 42.3275 26.1787 42.2483 26.023 42.102C25.8672 41.9557 25.7752 41.7541 25.7668 41.5405C25.7709 41.4048 25.8038 41.2715 25.8634 41.1495C25.9101 41.0706 25.9261 40.9772 25.9083 40.8873C25.8905 40.7973 25.8401 40.7171 25.7668 40.6619C24.8815 40.0083 24.0919 39.2341 23.4208 38.3619C22.2415 36.7662 21.5301 34.8734 21.3666 32.896C21.2031 30.9185 21.5939 28.9346 22.4951 27.1668C23.3963 25.3991 24.7724 23.9175 26.4688 22.8882C28.1652 21.859 30.1149 21.3228 32.099 21.3399C34.0831 21.3571 36.0233 21.9268 37.7017 22.9851C39.3801 24.0435 40.7303 25.5486 41.6009 27.3317C42.4715 29.1147 42.828 31.1051 42.6304 33.0794C42.4328 35.0538 41.6889 36.934 40.4822 38.5091C39.833 39.3091 39.0936 40.0315 38.2788 40.6619C38.236 40.6831 38.198 40.7129 38.1673 40.7495C38.1366 40.786 38.1139 40.8286 38.1004 40.8744C38.087 40.9202 38.0833 40.9684 38.0895 41.0157C38.0956 41.0631 38.1115 41.1086 38.1362 41.1495C38.1899 41.2736 38.2225 41.4057 38.2328 41.5405C38.234 41.6436 38.2147 41.7458 38.1758 41.8412C38.1369 41.9367 38.0794 42.0234 38.0065 42.0962C37.9336 42.1691 37.847 42.2266 37.7515 42.2655C37.6561 42.3044 37.5538 42.3238 37.4508 42.3225H26.5994ZM23.959 44.5765C24.142 44.4661 24.3614 44.4329 24.5688 44.4843C24.7763 44.5356 24.9549 44.6672 25.0653 44.8502C25.1757 45.0332 25.2089 45.2526 25.1576 45.4601C25.1062 45.6675 24.9746 45.8461 24.7916 45.9565L21.1116 48.2105C20.721 48.4406 20.2657 48.5364 19.8154 48.4833C19.3652 48.4301 18.9447 48.2309 18.6184 47.9161L16.3184 45.6161C15.9953 45.2949 15.7868 44.8763 15.7253 44.4249C15.6638 43.9734 15.7526 43.5143 15.978 43.1183L18.1768 39.4383C18.2283 39.3727 18.2563 39.2917 18.2563 39.2083C18.2563 39.1249 18.2283 39.0439 18.1768 38.9783C17.8578 38.3602 17.5856 37.719 17.3626 37.0601C17.3382 36.9842 17.2929 36.9168 17.2319 36.8655C17.1708 36.8142 17.0966 36.7812 17.0176 36.7703L12.9144 35.7675C12.4657 35.6586 12.0671 35.4012 11.7831 35.0371C11.4992 34.673 11.3467 34.2236 11.3504 33.7619L11.2998 30.5419C11.3023 30.0813 11.457 29.6344 11.7399 29.2708C12.0228 28.9072 12.4179 28.6474 12.8638 28.5317L16.9716 27.5059C17.0488 27.4759 17.119 27.4301 17.1776 27.3715C17.2362 27.3129 17.2819 27.2428 17.312 27.1655C17.4997 26.4855 17.7619 25.8283 18.094 25.2059C18.149 25.0575 18.149 24.8943 18.094 24.7459L15.8446 21.1257C15.619 20.7386 15.5256 20.2885 15.5788 19.8436C15.6319 19.3987 15.8286 18.9832 16.139 18.6601L18.439 16.3095C18.7641 15.9927 19.1848 15.7921 19.6356 15.7389C20.0864 15.6856 20.5422 15.7827 20.9322 16.0151L24.6122 18.1679C24.7594 18.2691 24.856 18.2691 25.0722 18.1679C25.707 17.8735 26.3418 17.5837 27.0272 17.3353C27.0966 17.3154 27.1598 17.2785 27.2113 17.2279C27.2627 17.1772 27.3006 17.1146 27.3216 17.0455L28.2968 12.9055C28.3955 12.4549 28.6437 12.051 29.0012 11.7595C29.3587 11.468 29.8044 11.3061 30.2656 11.3001H33.4856C33.9421 11.292 34.3882 11.4372 34.7526 11.7123C35.117 11.9875 35.3786 12.3768 35.4958 12.8181L36.5216 16.9581C36.5441 17.0269 36.5824 17.0894 36.6336 17.1405C36.6847 17.1917 36.7472 17.2301 36.816 17.2525C37.5022 17.4611 38.1712 17.7226 38.817 18.0345C38.8826 18.086 38.9636 18.114 39.047 18.114C39.1304 18.114 39.2114 18.086 39.277 18.0345L42.8926 15.7851C43.2821 15.5521 43.7376 15.4543 44.1884 15.5067C44.6392 15.5591 45.0601 15.7588 45.3858 16.0749L47.6858 18.3749C48.0174 18.6909 48.2318 19.1103 48.2936 19.5642C48.3555 20.0181 48.2612 20.4795 48.0262 20.8727L45.8734 24.5527C45.8258 24.6185 45.7965 24.6957 45.7884 24.7765C45.7803 24.8573 45.7938 24.9388 45.8274 25.0127C46.1455 25.6339 46.4161 26.2782 46.637 26.9401C46.6691 27.0117 46.7167 27.0753 46.7764 27.1262C46.836 27.1771 46.9063 27.2141 46.982 27.2345L51.122 28.2603C51.5637 28.3747 51.9564 28.6294 52.2409 28.9861C52.5254 29.3428 52.6865 29.7822 52.6998 30.2383V33.4583C52.7055 33.9131 52.56 34.3569 52.286 34.7199C52.0121 35.0829 51.6253 35.3447 51.1864 35.4639L47.1292 36.4897C47.0251 36.5091 46.9279 36.5554 46.8472 36.624C46.7665 36.6926 46.7051 36.7811 46.6692 36.8807C46.4731 37.5416 46.2111 38.1812 45.8872 38.7897C45.8542 38.864 45.8416 38.9457 45.8504 39.0266C45.8593 39.1074 45.8895 39.1844 45.9378 39.2497L48.1366 42.8699C48.3767 43.2522 48.48 43.7046 48.4299 44.1532C48.3798 44.6018 48.1791 45.0202 47.8606 45.3401L45.6112 47.6861C45.2861 48.003 44.8654 48.2036 44.4146 48.2568C43.9638 48.31 43.508 48.2129 43.118 47.9805L39.438 45.8277C39.255 45.724 39.1207 45.5519 39.0646 45.3491C39.0085 45.1464 39.0353 44.9297 39.139 44.7467C39.2427 44.5637 39.4149 44.4294 39.6176 44.3733C39.8203 44.3173 40.037 44.344 40.22 44.4477L43.9 46.6005C43.9879 46.6632 44.0951 46.6929 44.2028 46.6845C44.3104 46.6761 44.4117 46.6301 44.4888 46.5545L46.7382 44.2545C46.8122 44.1778 46.8612 44.0804 46.8784 43.9752C46.8957 43.87 46.8805 43.7621 46.8348 43.6657L44.5854 40.0455C44.402 39.7548 44.2967 39.4217 44.2798 39.0784C44.2629 38.7351 44.3349 38.3932 44.4888 38.0859C44.7885 37.5467 45.0188 36.9717 45.1742 36.3747C45.2943 36.0265 45.498 35.7132 45.7675 35.4621C46.037 35.2111 46.364 35.03 46.7198 34.9349L50.777 33.9091C50.8801 33.8871 50.9715 33.8282 51.0342 33.7435C51.0969 33.6588 51.1265 33.5541 51.1174 33.4491L51.0668 30.2291C51.0704 30.1253 51.0387 30.0233 50.9768 29.9397C50.915 29.8562 50.8268 29.7961 50.7264 29.7691L46.5864 28.7893C46.2584 28.706 45.9566 28.5413 45.709 28.3106C45.4614 28.0799 45.2759 27.7905 45.1696 27.4691C44.9258 26.8803 44.7096 26.3421 44.4336 25.7579C44.2658 25.4425 44.1826 25.0889 44.1923 24.7317C44.202 24.3746 44.3041 24.026 44.4888 23.7201L46.637 20.0401C46.6871 19.957 46.7096 19.8602 46.7013 19.7636C46.6931 19.6669 46.6544 19.5753 46.591 19.5019L44.245 17.2019C44.1738 17.1343 44.0818 17.0929 43.984 17.0845C43.8862 17.0762 43.7884 17.1014 43.7068 17.1559L40.0912 19.4053C39.7967 19.5762 39.4655 19.6741 39.1254 19.6909C38.7853 19.7077 38.4461 19.6429 38.1362 19.5019C37.5543 19.2063 36.9479 18.9616 36.3238 18.7705C36.0077 18.6538 35.7235 18.4643 35.4941 18.2173C35.2648 17.9704 35.0967 17.673 35.0036 17.3491L33.9318 13.2091C33.9057 13.1079 33.846 13.0186 33.7624 12.9559C33.6787 12.8932 33.5763 12.8608 33.4718 12.8641L30.2518 12.9147C30.1462 12.9058 30.041 12.9361 29.9562 12.9997C29.8713 13.0633 29.8129 13.1558 29.7918 13.2597L28.7798 17.3675C28.7134 17.7088 28.5555 18.0256 28.3229 18.2841C28.0904 18.5425 27.792 18.7329 27.4596 18.8349C26.8634 19.0426 26.2824 19.2916 25.7208 19.5801C25.4182 19.741 25.0792 19.8208 24.7367 19.812C24.3941 19.8031 24.0597 19.7058 23.7658 19.5295L20.0858 17.3767C20.0067 17.3332 19.9166 17.3139 19.8266 17.3213C19.7366 17.3287 19.6508 17.3623 19.5798 17.4181L17.2798 19.7181C17.2131 19.799 17.1729 19.8985 17.1647 20.003C17.1564 20.1075 17.1806 20.212 17.2338 20.3023L19.4326 23.9271C19.627 24.2126 19.7389 24.5461 19.756 24.891C19.773 25.236 19.6945 25.5789 19.5292 25.8821C19.2426 26.4507 18.9981 27.0395 18.7978 27.6439C18.7002 27.9764 18.5186 28.278 18.2704 28.5197C18.0222 28.7615 17.7159 28.9351 17.381 29.0239L13.2548 30.0911C13.1513 30.1122 13.0592 30.1709 12.9964 30.2558C12.9335 30.3408 12.9043 30.4459 12.9144 30.5511V33.7711C12.9108 33.875 12.9426 33.977 13.0044 34.0605C13.0662 34.144 13.1545 34.2042 13.2548 34.2311L17.3948 35.2109C17.7251 35.3021 18.0296 35.4688 18.2842 35.6979C18.5389 35.9271 18.7368 36.2123 18.8622 36.5311C19.0553 37.1545 19.2999 37.7607 19.5936 38.3435C19.7567 38.6407 19.841 38.9747 19.8386 39.3136C19.8362 39.6526 19.7471 39.9853 19.5798 40.2801L17.381 43.9601C17.3374 44.0484 17.3233 44.1483 17.3407 44.2451C17.358 44.342 17.406 44.4307 17.4776 44.4983L19.7776 46.7983C19.8587 46.8661 19.9587 46.9074 20.064 46.9164C20.1694 46.9255 20.2749 46.9019 20.3664 46.8489L23.959 44.5765ZM27.3998 45.2619C27.1851 45.2619 26.9792 45.1766 26.8273 45.0248C26.6755 44.873 26.5902 44.667 26.5902 44.4523C26.5902 44.2376 26.6755 44.0317 26.8273 43.8798C26.9792 43.728 27.1851 43.6427 27.3998 43.6427H36.6688C37.6946 43.6427 37.6946 45.2619 36.6688 45.2619H27.3998ZM28.4578 46.5821H35.8178C35.9499 46.585 36.0793 46.6199 36.1949 46.6839C36.3104 46.748 36.4087 46.8392 36.4811 46.9497C36.5536 47.0601 36.5981 47.1866 36.6107 47.3181C36.6234 47.4496 36.6038 47.5822 36.5538 47.7045L35.7396 51.1821C35.6188 51.6109 35.3637 51.9896 35.0119 52.2628C34.6601 52.536 34.2299 52.6893 33.7846 52.7001H30.5646C30.1054 52.7256 29.6519 52.5876 29.2848 52.3105C28.9176 52.0335 28.6605 51.6353 28.559 51.1867L27.6758 47.7551C27.6243 47.6263 27.6049 47.4869 27.6193 47.3489C27.6337 47.2109 27.6815 47.0785 27.7584 46.963C27.8354 46.8476 27.9392 46.7526 28.0611 46.6862C28.1829 46.6199 28.3191 46.5841 28.4578 46.5821ZM34.3228 48.1461H29.9206C29.859 48.1544 29.7997 48.1752 29.7463 48.2071C29.6929 48.2389 29.6466 48.2813 29.61 48.3316C29.5735 48.3819 29.5475 48.4391 29.5337 48.4997C29.5199 48.5604 29.5185 48.6231 29.5296 48.6843L30.0678 50.7911C30.1038 50.886 30.1662 50.9685 30.2478 51.0289C30.3294 51.0892 30.4266 51.1249 30.5278 51.1315H33.803C33.8848 51.1117 33.9617 51.0754 34.029 51.0248C34.0962 50.9742 34.1524 50.9103 34.194 50.8371C34.4126 50.1128 34.5922 49.3773 34.7322 48.6337C34.7428 48.5754 34.7407 48.5155 34.7262 48.4581C34.7116 48.4007 34.6849 48.347 34.6478 48.3008C34.6108 48.2546 34.5642 48.2169 34.5113 48.1902C34.4584 48.1635 34.4004 48.1485 34.3412 48.1461H34.3228ZM32.0228 27.2023C31.8154 27.2023 31.6165 27.1199 31.4698 26.9733C31.3232 26.8266 31.2408 26.6277 31.2408 26.4203C31.2408 26.2129 31.3232 26.014 31.4698 25.8674C31.6165 25.7207 31.8154 25.6383 32.0228 25.6383C32.8584 25.6371 33.686 25.8009 34.4581 26.1202C35.2302 26.4395 35.9317 26.9082 36.5224 27.4992C37.113 28.0903 37.5811 28.7921 37.8999 29.5645C38.2187 30.3369 38.3818 31.1646 38.38 32.0001C38.38 32.2075 38.2976 32.4064 38.151 32.5531C38.0043 32.6997 37.8054 32.7821 37.598 32.7821C37.3906 32.7821 37.1917 32.6997 37.045 32.5531C36.8984 32.4064 36.816 32.2075 36.816 32.0001C36.8148 30.7288 36.3096 29.5099 35.411 28.6105C34.5125 27.7112 33.2941 27.2048 32.0228 27.2023ZM39.208 37.5201C40.6318 35.6976 41.3053 33.3999 41.0906 31.0971C40.876 28.7944 39.7895 26.6607 38.0534 25.1327C36.3174 23.6046 34.063 22.7978 31.7516 22.8773C29.4403 22.9567 27.2466 23.9165 25.6196 25.5601C24.0725 27.0937 23.1316 29.1345 22.9702 31.3069C22.8087 33.4792 23.4376 35.6368 24.741 37.3821C28.1128 41.9821 35.7396 42.0787 39.208 37.5293V37.5201Z" fill="url(#paint1_linear_1910_376)"/>
<defs>
<linearGradient id="paint0_linear_1910_376" x1="-9.95479e-09" y1="23.6946" x2="64.0349" y2="23.982" gradientUnits="userSpaceOnUse">
<stop stop-color="#214F89"/>
<stop offset="1" stop-color="#12BCAB"/>
</linearGradient>
<linearGradient id="paint1_linear_1910_376" x1="11.2998" y1="26.6285" x2="52.7225" y2="26.8144" gradientUnits="userSpaceOnUse">
<stop stop-color="#214F89"/>
<stop offset="1" stop-color="#12BCAB"/>
</linearGradient>
</defs>
</svg>
