<svg width="64" height="64" viewBox="0 0 64 64" fill="none" xmlns="http://www.w3.org/2000/svg">
<rect x="0.587156" y="-0.587156" width="62.8257" height="62.8257" rx="8.80734" transform="matrix(1 0 0 -1 0 62.8257)" stroke="url(#paint0_linear_1910_400)" stroke-width="1.17431"/>
<g clip-path="url(#clip0_1910_400)">
<path d="M37.6972 37.6143L29.8756 45.4364L26.3034 41.8641L24.9482 43.2193L29.8756 48.1466L39.0523 38.9694L37.6972 37.6143Z" fill="url(#paint1_linear_1910_400)"/>
<path d="M48.4742 23.7615C48.8845 22.4438 49.0507 21.0728 48.9688 19.6718C48.6276 13.8343 43.6731 9.04679 37.925 9C33.2321 8.99953 29.06 11.948 27.4194 16.2975C25.718 14.8894 23.5215 14.2006 21.2833 14.422C18.0976 14.7364 15.3218 16.9685 14.2109 20.1083C13.7379 21.4452 13.8099 23.3062 13.8918 24.2767C10.8596 26.3118 9 29.7662 9 33.437C9 39.4066 13.7733 44.2711 19.7023 44.4418C20.6221 50.4103 25.7779 54.9996 32 54.9996C38.8698 54.9996 44.4583 49.4111 44.4583 42.5413C44.4583 42.3552 44.4385 42.1741 44.4304 41.9902C47.6407 42.1595 49.9148 40.8865 51.301 39.7023C53.8564 37.5194 55 34.3716 55 32.2205C55 28.1331 52.2682 24.69 48.4742 23.7615ZM32 53.0829C26.1873 53.0829 21.4583 48.3539 21.4583 42.5412C21.4583 36.7285 26.1873 31.9995 32 31.9995C37.8127 31.9995 42.5417 36.7285 42.5417 42.5412C42.5417 48.3539 37.8127 53.0829 32 53.0829ZM50.0558 38.2451C48.9027 39.2306 46.9707 40.2861 44.2068 40.0465C43.0481 34.3683 38.0156 30.0829 32 30.0829C25.1384 30.0829 19.5563 35.6584 19.5429 42.517C14.7455 42.2661 10.9167 38.2957 10.9167 33.437C10.9167 30.2321 12.6326 27.2271 15.3948 25.594L15.94 25.2711L15.8571 24.6431C15.765 23.9459 15.6147 21.887 16.0181 20.7475C16.8819 18.3054 19.0227 16.5712 21.4714 16.3293C23.6394 16.114 25.7559 17.0097 27.1316 18.7228L28.3927 20.2932L28.8157 18.3241C29.7403 14.0205 33.5264 10.9162 37.8356 10.9162C37.86 10.9162 37.8848 10.9162 37.9091 10.9167C42.6689 10.9555 46.7718 14.933 47.0554 19.7836C47.1434 21.2894 46.8883 22.7531 46.2969 24.1331L45.7807 25.3371L47.0844 25.4643C50.5041 25.7989 53.0833 28.7034 53.0833 32.2204C53.0833 33.8765 52.1358 36.4684 50.0558 38.2451Z" fill="url(#paint2_linear_1910_400)"/>
</g>
<defs>
<linearGradient id="paint0_linear_1910_400" x1="-9.95479e-09" y1="23.6946" x2="64.0349" y2="23.982" gradientUnits="userSpaceOnUse">
<stop stop-color="#214F89"/>
<stop offset="1" stop-color="#12BCAB"/>
</linearGradient>
<linearGradient id="paint1_linear_1910_400" x1="24.9482" y1="41.5136" x2="39.0598" y2="41.5984" gradientUnits="userSpaceOnUse">
<stop stop-color="#214F89"/>
<stop offset="1" stop-color="#12BCAB"/>
</linearGradient>
<linearGradient id="paint2_linear_1910_400" x1="9" y1="26.0304" x2="55.0251" y2="26.2369" gradientUnits="userSpaceOnUse">
<stop stop-color="#214F89"/>
<stop offset="1" stop-color="#12BCAB"/>
</linearGradient>
<clipPath id="clip0_1910_400">
<rect width="46" height="46" fill="white" transform="translate(9 9)"/>
</clipPath>
</defs>
</svg>
