<svg width="64" height="64" viewBox="0 0 64 64" fill="none" xmlns="http://www.w3.org/2000/svg">
<rect x="0.587156" y="-0.587156" width="62.8257" height="62.8257" rx="8.80734" transform="matrix(1 0 0 -1 0 62.8257)" stroke="url(#paint0_linear_1910_496)" stroke-width="1.17431"/>
<path fill-rule="evenodd" clip-rule="evenodd" d="M31.0214 46.8321C30.8989 47.0706 30.6521 47.2237 30.3797 47.2237H25.6067C25.3081 47.2237 25.0405 47.0399 24.9333 46.7614L23.9432 44.1888C22.566 43.8264 21.2491 43.2777 20.0204 42.5641L17.497 43.6819C17.2242 43.8026 16.9054 43.7433 16.6945 43.5324L13.3203 40.1581C13.1091 39.9469 13.0499 39.6276 13.1712 39.3547C13.1712 39.3547 14.2923 36.8331 14.2924 36.8331C13.5761 35.6078 13.0306 34.2884 12.6652 32.9148L10.0913 31.9242C9.81273 31.8169 9.62891 31.5492 9.62891 31.2508V26.4778C9.62891 26.1792 9.81273 25.9115 10.0913 25.8044C10.0913 25.8044 12.6649 24.8138 12.6649 24.8139C13.0303 23.4366 13.576 22.1199 14.2926 20.8911L13.1712 18.369C13.0499 18.0961 13.1091 17.7767 13.3203 17.5656L16.6945 14.1914C16.9057 13.9802 17.225 13.921 17.4979 14.0423L20.02 15.1637C21.2488 14.4471 22.5652 13.9017 23.9387 13.5399L24.9335 10.9618C25.0409 10.6835 25.3084 10.5 25.6067 10.5H30.3797C30.6783 10.5 30.9461 10.684 31.0532 10.9628C31.0532 10.9628 32.0435 13.5401 32.0434 13.5401C33.4168 13.9019 34.733 14.4473 35.9615 15.1637L38.4836 14.0423C38.7565 13.921 39.0759 13.9802 39.287 14.1914L42.6613 17.5656C42.8722 17.7765 42.9316 18.0953 42.8108 18.3681L41.6934 20.8906C42.4103 22.1196 42.9558 23.4367 43.3178 24.8143L45.8903 25.8044C46.1688 25.9115 46.3526 26.1792 46.3526 26.4778V28.1375H50.6067C51.0068 28.1375 51.3311 28.4617 51.3311 28.8618V43.5288H52.919C54.1338 43.5288 54.8018 44.9227 54.0588 45.8663L54.0586 45.8665L48.4819 52.9434C47.9018 53.6859 46.7926 53.6859 46.2125 52.9434L42.5343 48.2758C41.1271 48.9677 39.5461 49.3567 37.8774 49.3567C35.2679 49.3567 32.8729 48.4054 31.0214 46.8321ZM44.9095 28.1375C44.9095 27.6048 44.9095 26.9732 44.9095 26.9732L42.4495 26.0264C42.2271 25.9408 42.0614 25.7512 42.0065 25.5194C41.6542 24.0324 41.0686 22.6186 40.2678 21.3191C40.1431 21.1166 40.1261 20.8657 40.2223 20.6483L41.2909 18.2361L38.6171 15.5623L36.2053 16.6347C35.9876 16.7314 35.7363 16.7146 35.5336 16.5896C34.234 15.7888 32.8201 15.2032 31.3376 14.8508C31.1059 14.7958 30.9163 14.6299 30.8308 14.4076L29.8839 11.9431H26.1017L25.1503 14.4086C25.0647 14.6304 24.8753 14.7959 24.6439 14.8508C23.1614 15.2032 21.7475 15.7888 20.448 16.5896C20.2453 16.7146 19.9939 16.7314 19.7763 16.6347L17.3645 15.5623L14.6912 18.2356L15.7636 20.6474C15.8603 20.865 15.8435 21.1163 15.7185 21.3191C14.9175 22.6191 14.3316 24.0337 13.9746 25.5214C13.9192 25.7523 13.7537 25.9411 13.5321 26.0264L11.072 26.9732V30.7553L13.5321 31.7021C13.7535 31.7873 13.9189 31.976 13.9745 32.2066C14.3315 33.6895 14.917 35.1084 15.718 36.4037C15.8434 36.6065 15.8605 36.8584 15.7636 37.0764L14.6912 39.4881L17.365 42.162L19.7772 41.0934C19.9941 40.9975 20.2443 41.0141 20.4464 41.1379C21.7464 41.9344 23.1607 42.5251 24.6483 42.8776C24.8801 42.9325 25.0698 43.0982 25.1553 43.3206L26.1021 45.7806H29.8842L29.9032 45.7311C28.2647 43.8629 27.2692 41.418 27.2692 38.7485C27.2692 38.4587 27.2809 38.1716 27.3039 37.8876C22.6266 37.5365 18.9442 33.6293 18.9442 28.8618C18.9442 23.8633 22.9922 19.8153 27.9908 19.8153C32.7582 19.8153 36.6655 23.4977 37.0165 28.175C37.3005 28.152 37.5876 28.1403 37.8774 28.1403C39.8824 28.1403 41.7608 28.7018 43.3633 29.6758V28.8618C43.3633 28.4617 43.6877 28.1375 44.0877 28.1375H44.9095ZM43.8 47.5411L47.3472 52.0424L52.9145 44.9776H50.6067C50.2066 44.9776 49.8822 44.6533 49.8822 44.2532V29.5863H44.8121V30.7325C47.0598 32.6804 48.4856 35.5538 48.4856 38.7485C48.4856 42.3998 46.6232 45.6312 43.8 47.5411ZM27.5196 36.4558C28.4088 32.4483 31.5772 29.2799 35.5847 28.3907C35.3413 24.409 32.0339 21.2584 27.9908 21.2584C23.7895 21.2584 20.3873 24.6606 20.3873 28.8618C20.3873 32.905 23.538 36.2124 27.5196 36.4558ZM37.8774 47.9136C42.9242 47.9136 47.0425 43.7953 47.0425 38.7485C47.0425 33.7018 42.9242 29.5834 37.8774 29.5834C32.8307 29.5834 28.7123 33.7018 28.7123 38.7485C28.7123 43.7953 32.8307 47.9136 37.8774 47.9136ZM37.1558 33.2346V32.4912C37.1558 32.093 37.4792 31.7697 37.8774 31.7697C38.2756 31.7697 38.599 32.093 38.599 32.4912V33.2259C39.7806 33.4231 40.8946 34.1359 41.4531 35.4643C41.6074 35.8314 41.4346 36.2548 41.0675 36.4091C40.7004 36.5634 40.277 36.3906 40.1227 36.0235C39.5458 34.6512 38.0126 34.3613 36.9086 34.7958C36.2421 35.0582 35.719 35.6043 35.7568 36.387C35.7874 37.0112 36.1806 37.3754 36.6618 37.6107C37.0753 37.8129 37.553 37.9277 38.0033 38.0019C39.6631 38.2734 41.508 39.0015 41.749 40.9749L41.7491 40.9759C41.9885 42.9585 40.2904 44.0464 38.599 44.2801V45.0058C38.599 45.404 38.2756 45.7273 37.8774 45.7273C37.4792 45.7273 37.1558 45.404 37.1558 45.0058V44.2699C35.6873 44.0388 34.3903 43.1248 34.0062 41.5821C33.91 41.1956 34.1456 40.8038 34.532 40.7076C34.9185 40.6113 35.3103 40.847 35.4066 41.2334C35.6954 42.3936 36.8557 42.9108 37.9892 42.8841C38.5855 42.87 39.2483 42.7175 39.7374 42.3803C40.1248 42.1133 40.3841 41.7117 40.3164 41.1494C40.248 40.5901 39.9323 40.2284 39.5239 39.9821C39.0088 39.6715 38.3637 39.5231 37.7704 39.4261L37.7696 39.426C36.155 39.1601 34.4092 38.3768 34.3154 36.4573L34.3153 36.4569C34.2451 35.0042 35.1431 33.94 36.38 33.453C36.6275 33.3556 36.8881 33.2824 37.1558 33.2346Z" fill="url(#paint1_linear_1910_496)"/>
<defs>
<linearGradient id="paint0_linear_1910_496" x1="-9.95479e-09" y1="23.6946" x2="64.0349" y2="23.982" gradientUnits="userSpaceOnUse">
<stop stop-color="#214F89"/>
<stop offset="1" stop-color="#12BCAB"/>
</linearGradient>
<linearGradient id="paint1_linear_1910_496" x1="9.62891" y1="26.4199" x2="54.3946" y2="26.629" gradientUnits="userSpaceOnUse">
<stop stop-color="#214F89"/>
<stop offset="1" stop-color="#12BCAB"/>
</linearGradient>
</defs>
</svg>
