<svg width="64" height="64" viewBox="0 0 64 64" fill="none" xmlns="http://www.w3.org/2000/svg">
<rect x="0.587156" y="-0.587156" width="62.8257" height="62.8257" rx="8.80734" transform="matrix(1 0 0 -1 0 62.8257)" stroke="url(#paint0_linear_1910_424)" stroke-width="1.17431"/>
<g clip-path="url(#clip0_1910_424)">
<path d="M52.125 46.375H31.0417C29.9831 46.375 29.125 47.2331 29.125 48.2917V52.125C29.125 53.1835 29.9831 54.0417 31.0417 54.0417H52.125C53.1835 54.0417 54.0417 53.1835 54.0417 52.125V48.2917C54.0417 47.2331 53.1835 46.375 52.125 46.375Z" stroke="url(#paint1_linear_1910_424)" stroke-width="2" stroke-linejoin="round"/>
<path d="M52.125 34.875H31.0417C29.9831 34.875 29.125 35.7331 29.125 36.7917V40.625C29.125 41.6835 29.9831 42.5417 31.0417 42.5417H52.125C53.1835 42.5417 54.0417 41.6835 54.0417 40.625V36.7917C54.0417 35.7331 53.1835 34.875 52.125 34.875Z" stroke="url(#paint2_linear_1910_424)" stroke-width="2" stroke-linejoin="round"/>
<path d="M32 42.541V46.3743" stroke="url(#paint3_linear_1910_424)" stroke-width="2" stroke-linejoin="round"/>
<path d="M51.166 42.541V46.3743" stroke="url(#paint4_linear_1910_424)" stroke-width="2" stroke-linejoin="round"/>
<path d="M32 38.708H33.9167" stroke="url(#paint5_linear_1910_424)" stroke-width="2" stroke-linejoin="round"/>
<path d="M35.833 38.708H50.208" stroke="url(#paint6_linear_1910_424)" stroke-width="2" stroke-linejoin="round"/>
<path d="M32 50.208H33.9167" stroke="url(#paint7_linear_1910_424)" stroke-width="2" stroke-linejoin="round"/>
<path d="M35.833 50.208H50.208" stroke="url(#paint8_linear_1910_424)" stroke-width="2" stroke-linejoin="round"/>
<path d="M49.25 22.416C50.8378 22.416 52.125 21.1288 52.125 19.541C52.125 17.9532 50.8378 16.666 49.25 16.666C47.6622 16.666 46.375 17.9532 46.375 19.541C46.375 21.1288 47.6622 22.416 49.25 22.416Z" stroke="url(#paint9_linear_1910_424)" stroke-width="2" stroke-linejoin="round"/>
<path d="M49.2497 22.416V24.3327L47.333 26.2493L51.1663 30.0827L49.2497 31.9993V34.8743" stroke="url(#paint10_linear_1910_424)" stroke-width="2" stroke-linejoin="round"/>
<path d="M40.6247 31.9997V11.8747C40.6247 11.3663 40.4227 10.8788 40.0633 10.5194C39.7039 10.1599 39.2163 9.95801 38.708 9.95801H11.8747C11.3663 9.95801 10.8788 10.1599 10.5194 10.5194C10.1599 10.8788 9.95801 11.3663 9.95801 11.8747V36.7913C9.95801 37.2997 10.1599 37.7872 10.5194 38.1466C10.8788 38.5061 11.3663 38.708 11.8747 38.708H16.6663L21.458 43.4997V38.708H26.2497" stroke="url(#paint11_linear_1910_424)" stroke-width="2" stroke-linejoin="round"/>
<path d="M25.291 32.958C30.0545 32.958 33.916 29.0965 33.916 24.333C33.916 19.5696 30.0545 15.708 25.291 15.708C20.5276 15.708 16.666 19.5696 16.666 24.333C16.666 29.0965 20.5276 32.958 25.291 32.958Z" stroke="url(#paint12_linear_1910_424)" stroke-width="2" stroke-linejoin="round"/>
<path d="M25.291 15.708V24.333H16.666" stroke="url(#paint13_linear_1910_424)" stroke-width="2" stroke-linejoin="round"/>
<path d="M25.291 24.333L29.1243 28.1663" stroke="url(#paint14_linear_1910_424)" stroke-width="2" stroke-linejoin="round"/>
</g>
<defs>
<linearGradient id="paint0_linear_1910_424" x1="-9.95479e-09" y1="23.6946" x2="64.0349" y2="23.982" gradientUnits="userSpaceOnUse">
<stop stop-color="#214F89"/>
<stop offset="1" stop-color="#12BCAB"/>
</linearGradient>
<linearGradient id="paint1_linear_1910_424" x1="29.125" y1="49.2134" x2="54.0504" y2="49.577" gradientUnits="userSpaceOnUse">
<stop stop-color="#214F89"/>
<stop offset="1" stop-color="#12BCAB"/>
</linearGradient>
<linearGradient id="paint2_linear_1910_424" x1="29.125" y1="37.7134" x2="54.0504" y2="38.077" gradientUnits="userSpaceOnUse">
<stop stop-color="#214F89"/>
<stop offset="1" stop-color="#12BCAB"/>
</linearGradient>
<linearGradient id="paint3_linear_1910_424" x1="32" y1="43.9602" x2="33.0006" y2="43.9614" gradientUnits="userSpaceOnUse">
<stop stop-color="#214F89"/>
<stop offset="1" stop-color="#12BCAB"/>
</linearGradient>
<linearGradient id="paint4_linear_1910_424" x1="51.166" y1="43.9602" x2="52.1666" y2="43.9614" gradientUnits="userSpaceOnUse">
<stop stop-color="#214F89"/>
<stop offset="1" stop-color="#12BCAB"/>
</linearGradient>
<linearGradient id="paint5_linear_1910_424" x1="32" y1="39.0782" x2="33.9176" y2="39.0947" gradientUnits="userSpaceOnUse">
<stop stop-color="#214F89"/>
<stop offset="1" stop-color="#12BCAB"/>
</linearGradient>
<linearGradient id="paint6_linear_1910_424" x1="35.833" y1="39.0782" x2="50.1565" y2="40.0023" gradientUnits="userSpaceOnUse">
<stop stop-color="#214F89"/>
<stop offset="1" stop-color="#12BCAB"/>
</linearGradient>
<linearGradient id="paint7_linear_1910_424" x1="32" y1="50.5782" x2="33.9176" y2="50.5947" gradientUnits="userSpaceOnUse">
<stop stop-color="#214F89"/>
<stop offset="1" stop-color="#12BCAB"/>
</linearGradient>
<linearGradient id="paint8_linear_1910_424" x1="35.833" y1="50.5782" x2="50.1565" y2="51.5023" gradientUnits="userSpaceOnUse">
<stop stop-color="#214F89"/>
<stop offset="1" stop-color="#12BCAB"/>
</linearGradient>
<linearGradient id="paint9_linear_1910_424" x1="46.375" y1="18.7948" x2="52.1281" y2="18.8207" gradientUnits="userSpaceOnUse">
<stop stop-color="#214F89"/>
<stop offset="1" stop-color="#12BCAB"/>
</linearGradient>
<linearGradient id="paint10_linear_1910_424" x1="47.333" y1="27.0285" x2="51.1685" y2="27.0337" gradientUnits="userSpaceOnUse">
<stop stop-color="#214F89"/>
<stop offset="1" stop-color="#12BCAB"/>
</linearGradient>
<linearGradient id="paint11_linear_1910_424" x1="9.95801" y1="22.3761" x2="40.6415" y2="22.502" gradientUnits="userSpaceOnUse">
<stop stop-color="#214F89"/>
<stop offset="1" stop-color="#12BCAB"/>
</linearGradient>
<linearGradient id="paint12_linear_1910_424" x1="16.666" y1="22.0945" x2="33.9254" y2="22.1719" gradientUnits="userSpaceOnUse">
<stop stop-color="#214F89"/>
<stop offset="1" stop-color="#12BCAB"/>
</linearGradient>
<linearGradient id="paint13_linear_1910_424" x1="16.666" y1="18.9012" x2="25.2957" y2="18.94" gradientUnits="userSpaceOnUse">
<stop stop-color="#214F89"/>
<stop offset="1" stop-color="#12BCAB"/>
</linearGradient>
<linearGradient id="paint14_linear_1910_424" x1="25.291" y1="25.7522" x2="29.1264" y2="25.7694" gradientUnits="userSpaceOnUse">
<stop stop-color="#214F89"/>
<stop offset="1" stop-color="#12BCAB"/>
</linearGradient>
<clipPath id="clip0_1910_424">
<rect width="46" height="46" fill="white" transform="translate(9 9)"/>
</clipPath>
</defs>
</svg>
