<svg width="64" height="64" viewBox="0 0 64 64" fill="none" xmlns="http://www.w3.org/2000/svg">
<rect x="0.587156" y="-0.587156" width="62.8257" height="62.8257" rx="8.80734" transform="matrix(1 0 0 -1 0 62.8257)" stroke="url(#paint0_linear_1910_472)" stroke-width="1.17431"/>
<path d="M34.1832 15.882C34.7402 16.0707 35.2434 16.3672 35.6836 16.7535L36.7527 16.4031C36.9234 16.3492 37.1031 16.4301 37.184 16.5828L38.0734 18.1191C38.1633 18.2719 38.1273 18.4516 38.0016 18.5684L37.166 19.3141C37.2199 19.5926 37.2469 19.8891 37.2469 20.1766C37.2469 20.4641 37.2199 20.7516 37.166 21.0391L38.0016 21.7848C38.1363 21.9105 38.1633 22.1082 38.0555 22.2609L37.175 23.7883C37.0852 23.941 36.9145 24.0039 36.7527 23.95L35.6836 23.5996C35.2434 23.9859 34.7402 24.2734 34.1832 24.4711L33.9586 25.5672C33.9227 25.7379 33.7699 25.8547 33.6082 25.8547H31.8113C31.6316 25.8547 31.4789 25.7199 31.452 25.5402L31.2273 24.4621C30.6703 24.2734 30.1672 23.977 29.727 23.5906L28.6578 23.941C28.4781 24.0039 28.2984 23.9141 28.2176 23.7523L27.3371 22.225C27.2563 22.0723 27.2832 21.8926 27.409 21.7758L28.2535 21.0301C28.1457 20.4551 28.1457 19.8711 28.2535 19.3051L27.409 18.5594C27.2742 18.4426 27.2473 18.2449 27.3461 18.0922L28.2355 16.5559C28.3254 16.4121 28.4961 16.3402 28.6578 16.3941L29.727 16.7445C30.1672 16.3582 30.6703 16.0707 31.2273 15.873L31.4609 14.777C31.4969 14.6063 31.6406 14.4895 31.8113 14.4895H33.6082C33.7879 14.4895 33.9406 14.6242 33.9676 14.8039L34.1832 15.882ZM34.6145 16.8703C33.3746 16.1605 33.6801 16.9961 33.3117 15.2262H32.0988L31.8832 16.2414C31.8562 16.3672 31.7664 16.475 31.6316 16.5109C31.0926 16.6637 30.4637 17.0051 30.0773 17.4004C29.9875 17.4992 29.8437 17.5441 29.7 17.4992L28.7117 17.1758L28.1098 18.227L28.8914 18.9188C28.9902 18.9996 29.0352 19.1344 28.9992 19.2691C28.8645 19.8082 28.8465 20.5359 28.9902 21.066C29.0352 21.1918 28.9992 21.3445 28.8914 21.4434L28.1098 22.1352L28.7117 23.1863L29.7 22.8629C29.8258 22.818 29.9605 22.8539 30.0594 22.9437C30.4727 23.3391 31.0656 23.6984 31.6137 23.8512C31.7484 23.8781 31.8562 23.9859 31.8832 24.1297L32.0988 25.1449H33.3117L33.5273 24.1297C33.5543 24.0039 33.6441 23.8961 33.7789 23.8602C34.318 23.7074 34.9469 23.366 35.3332 22.9707C35.423 22.8719 35.5758 22.827 35.7105 22.8719L36.7078 23.1953L37.3098 22.1441L36.5371 21.4523C36.4383 21.3715 36.3934 21.2367 36.4293 21.102C36.5012 20.8055 36.5371 20.5 36.5371 20.1945C36.5371 18.766 35.9621 19.4488 37.3098 18.2359L36.6988 17.1758L35.7105 17.4992C35.5848 17.5441 35.45 17.5082 35.3512 17.4184C35.1266 17.2027 34.875 17.023 34.6145 16.8703ZM32.7008 17.5172C34.1742 17.5172 35.3602 18.7031 35.3602 20.1766C35.3602 21.65 34.1742 22.8359 32.7008 22.8359C31.2363 22.8359 30.0414 21.65 30.0414 20.1766C30.0414 18.7121 31.2363 17.5172 32.7008 17.5172ZM34.0754 18.8109C32.8535 17.598 30.7602 18.4605 30.7602 20.1855C30.7602 21.9105 32.8535 22.773 34.0754 21.5602C34.8301 20.7965 34.8301 19.5656 34.0754 18.8109ZM32.7008 12.1895C37.1121 12.1895 40.6879 15.7652 40.6879 20.1766C40.6879 24.5879 37.1121 28.1637 32.7008 28.1637C30.7422 28.1637 28.9453 27.4539 27.5527 26.2859C27.4 30.5715 23.8781 33.9766 19.5746 33.9766C15.1633 33.9766 11.5875 30.4008 11.5875 25.9895C11.5875 21.5781 15.1633 18.0023 19.5746 18.0023C21.4793 18.0023 23.2941 18.6762 24.7227 19.8801C24.8754 15.6035 28.3973 12.1895 32.7008 12.1895ZM26.834 25.5941C25.666 24.3363 24.9113 22.7012 24.7496 20.8863C24.0938 20.2215 23.3121 19.6824 22.4406 19.3141C19.7004 18.1371 16.5289 18.775 14.4445 20.8594C11.6055 23.6984 11.6055 28.2984 14.4445 31.1375C17.2836 33.9766 21.8836 33.9766 24.7137 31.1375C26.1332 29.718 26.9598 27.7145 26.834 25.5941ZM37.8398 15.0375C35.0008 12.1984 30.4008 12.1984 27.5707 15.0375C24.7316 17.8766 24.7316 22.4766 27.5707 25.3156C30.4098 28.1547 35.0098 28.1547 37.8398 25.3156C40.6789 22.4766 40.6789 17.8766 37.8398 15.0375ZM21.057 21.7039C21.6141 21.8926 22.1172 22.1891 22.5574 22.5754L23.6266 22.225C23.7973 22.1711 23.977 22.252 24.0578 22.4047L24.9473 23.941C25.0371 24.0938 25.0012 24.2734 24.8754 24.3902L24.0398 25.1359C24.0937 25.4234 24.1207 25.7109 24.1207 25.9984C24.1207 26.2949 24.0937 26.5824 24.0398 26.8609L24.8844 27.6066C25.0191 27.7234 25.0461 27.9211 24.9473 28.0738L24.0578 29.6102C23.968 29.7539 23.7973 29.8258 23.6355 29.7719L22.5664 29.4215C22.1262 29.8078 21.623 30.0953 21.066 30.284L20.8414 31.3801C20.8055 31.5508 20.6527 31.6676 20.491 31.6676H18.6941C18.5145 31.6676 18.3617 31.5328 18.3348 31.3531L18.1102 30.275C17.5531 30.0863 17.05 29.7898 16.6098 29.4125L15.5406 29.7629C15.3699 29.8168 15.1813 29.7359 15.1094 29.5832L14.2109 28.0559C14.1211 27.9031 14.157 27.7234 14.2828 27.6066L15.1273 26.8609C15.0195 26.2859 15.0195 25.702 15.1273 25.1359L14.2828 24.3902C14.148 24.2645 14.1211 24.0668 14.2289 23.9141L15.1094 22.3867C15.1992 22.234 15.3699 22.1711 15.5316 22.225L16.6008 22.5754C17.041 22.1891 17.5441 21.9016 18.1012 21.7039L18.3348 20.6078C18.3707 20.4371 18.5145 20.3203 18.6852 20.3203H20.482C20.6617 20.3203 20.8145 20.4551 20.8414 20.6348L21.057 21.7039ZM21.4883 22.6832C20.2484 21.9645 20.5539 22.809 20.1855 21.0301H18.9727L18.757 22.0453C18.7301 22.1711 18.6402 22.2789 18.5055 22.3148C17.9664 22.4676 17.3375 22.809 16.9512 23.2043C16.8613 23.3031 16.7086 23.348 16.5738 23.3031L15.5855 22.9797L14.9836 24.0309L15.7652 24.7227C15.8641 24.8035 15.909 24.9383 15.873 25.073C15.7383 25.6121 15.7203 26.3398 15.8641 26.8699C15.909 26.9957 15.873 27.1484 15.7652 27.2473L14.9836 27.9391L15.5855 28.9902L16.5738 28.6668C16.6996 28.6219 16.8344 28.6578 16.9332 28.7477C17.3465 29.143 17.9395 29.5023 18.4875 29.6551C18.6133 29.682 18.7301 29.7898 18.757 29.9336L18.9727 30.9488H20.1855L20.4012 29.9336C20.4281 29.8078 20.518 29.7 20.6527 29.6641C21.1918 29.5023 21.8207 29.1609 22.207 28.7656C22.2969 28.6668 22.4496 28.6219 22.5844 28.6668L23.5727 28.9902L24.1746 27.9391L23.402 27.2473C23.3031 27.1664 23.2582 27.0316 23.2941 26.8969C23.366 26.6004 23.402 26.2949 23.402 25.9895C23.402 24.5609 22.8359 25.2348 24.1836 24.0398L23.5816 22.9887L22.5934 23.3121C22.4676 23.357 22.3328 23.3211 22.234 23.2312C22.0004 23.0246 21.7578 22.8359 21.4883 22.6832ZM19.5746 23.3391C21.048 23.3391 22.234 24.525 22.234 25.9984C22.234 27.4629 21.048 28.6578 19.5746 28.6578C18.1102 28.6578 16.9152 27.4719 16.9152 25.9984C16.9242 24.525 18.1102 23.3391 19.5746 23.3391ZM20.9492 24.6238C19.7273 23.4109 17.634 24.2734 17.634 25.9984C17.634 27.7234 19.7273 28.5859 20.9492 27.373C21.7039 26.6094 21.7039 25.3785 20.9492 24.6238ZM14.8398 46.977H15.298V40.6789C14.1301 40.7508 12.9621 40.7867 11.7852 40.7688C11.5875 40.7688 11.4258 40.607 11.4258 40.4094V36.7348C11.4258 36.5281 11.5875 36.3664 11.8211 36.3754C15.1363 36.4113 18.4066 36.052 21.5781 35.3332C31.2363 33.132 39.8074 27.5797 45.7641 19.6465L43.8145 18.3078C43.5809 18.1461 43.6168 17.8047 43.8684 17.6879L52.0621 13.7797C52.3047 13.6629 52.6012 13.8516 52.5742 14.1391L51.8555 23.1863C51.8375 23.4559 51.523 23.6266 51.2715 23.4379L49.3848 22.1352C48.9535 22.7191 48.5043 23.2941 48.0371 23.8602V46.968H48.4953C49.5195 46.968 50.3551 47.8035 50.3551 48.8277V49.9418C50.3551 50.966 49.5195 51.8016 48.4953 51.8016H14.8398C13.8156 51.8016 12.9801 50.966 12.9801 49.9418V48.8277C12.9891 47.8125 13.8246 46.977 14.8398 46.977ZM16.0168 46.977H21.0121V39.9422C19.368 40.2566 17.6969 40.4902 16.0168 40.625V46.977ZM21.7398 46.977H24.0758V39.2504L21.7398 39.7984V46.977ZM30.5086 46.977H32.8445V35.9621L30.5086 37.0402V46.977ZM39.2773 46.977H41.6133V30.302C40.8496 30.9219 40.077 31.5238 39.2773 32.0898V46.977ZM48.5043 47.6957H14.8398C14.2109 47.6957 13.6988 48.2078 13.6988 48.8277V49.9418C13.6988 50.5617 14.2109 51.0738 14.8398 51.0738H48.5043C49.1242 51.0738 49.6363 50.5617 49.6363 49.9418V48.8277C49.6363 48.2078 49.1242 47.6957 48.5043 47.6957ZM46.5547 19.7812L46.5457 19.7902C44.5152 22.5395 42.1973 25.0012 39.6277 27.1484C31.9371 33.5992 22.1891 37.1301 12.1355 37.0941V40.059C13.3125 40.059 14.4895 40.023 15.6484 39.9332C17.5441 39.7895 19.4219 39.5289 21.2637 39.1605C21.2816 39.1516 21.2996 39.1516 21.3176 39.1516C21.8027 39.0707 23.9051 38.5676 24.2914 38.4418C24.3094 38.4328 24.3273 38.4328 24.3453 38.4328C26.259 37.9027 28.1367 37.2559 29.9695 36.4832C29.9875 36.4742 30.0055 36.4652 30.0145 36.4652C30.4906 36.2855 32.4582 35.3781 32.9973 35.0727C33.0152 35.0637 33.0242 35.0547 33.0422 35.0457C34.9918 34.0484 36.8785 32.8984 38.6754 31.6227C38.6844 31.6137 38.7023 31.6047 38.7113 31.5957C39.3223 31.1824 41.1281 29.7809 41.7121 29.2688C41.7211 29.2598 41.7301 29.2508 41.7391 29.2418C43.7695 27.5168 45.6652 25.6031 47.3813 23.5277C47.3902 23.5187 47.3992 23.5008 47.4082 23.4918C47.6688 23.1953 48.7289 21.8297 48.9535 21.4973C48.9625 21.4883 48.9625 21.4883 48.9805 21.4523C49.0883 21.2816 49.3219 21.2367 49.4836 21.3535L51.1637 22.5125L51.7836 14.6961L44.7309 18.0742L46.4559 19.2602C46.6355 19.368 46.6895 19.6105 46.5547 19.7812ZM47.3273 24.7137C45.782 26.5105 44.1109 28.1727 42.332 29.691V46.977H47.3273V24.7137ZM38.5586 32.593C36.9594 33.698 35.2883 34.7043 33.5633 35.5938V46.977H38.5586V32.593ZM29.7898 37.3367C28.1637 38.0016 26.4926 38.5766 24.7945 39.0527V46.977H29.7898V37.3367Z" fill="url(#paint1_linear_1910_472)" stroke="url(#paint2_linear_1910_472)" stroke-width="0.5"/>
<defs>
<linearGradient id="paint0_linear_1910_472" x1="-9.95479e-09" y1="23.6946" x2="64.0349" y2="23.982" gradientUnits="userSpaceOnUse">
<stop stop-color="#214F89"/>
<stop offset="1" stop-color="#12BCAB"/>
</linearGradient>
<linearGradient id="paint1_linear_1910_472" x1="11.4258" y1="26.855" x2="52.5983" y2="27.047" gradientUnits="userSpaceOnUse">
<stop stop-color="#214F89"/>
<stop offset="1" stop-color="#12BCAB"/>
</linearGradient>
<linearGradient id="paint2_linear_1910_472" x1="11.4258" y1="26.855" x2="52.5983" y2="27.047" gradientUnits="userSpaceOnUse">
<stop stop-color="#214F89"/>
<stop offset="1" stop-color="#12BCAB"/>
</linearGradient>
</defs>
</svg>
