<svg width="64" height="64" viewBox="0 0 64 64" fill="none" xmlns="http://www.w3.org/2000/svg">
<rect x="0.587156" y="-0.587156" width="62.8257" height="62.8257" rx="8.80734" transform="matrix(1 0 0 -1 0 62.8257)" stroke="url(#paint0_linear_1910_448)" stroke-width="1.17431"/>
<path d="M55.0001 31.9007C55.0715 20.3744 40.6381 14.581 32.7471 22.9721L33.7227 23.9055C40.7922 16.3896 53.7144 21.5824 53.6498 31.9008C53.6498 37.6792 49.3907 42.4816 43.8467 43.3337L44.7203 42.4602L43.7654 41.5054L41.1276 44.1432L43.7654 46.781L44.7203 45.8262L43.6203 44.7264C50.0208 43.9638 55.0001 38.5032 55.0001 31.9007Z" fill="url(#paint1_linear_1910_448)"/>
<path d="M32.8174 38.8266C33.2796 38.1017 33.6709 37.3278 33.9829 36.5147C38.6927 44.7279 51.3434 41.4351 51.399 31.9007C51.3433 22.3694 38.6983 19.0748 33.9864 27.2813C32.4092 23.1493 28.7681 19.9975 24.1966 19.1835L23.96 20.5129C37.7297 23.308 35.9656 43.1236 21.9177 43.4683C7.64596 43.0712 6.21484 22.973 20.1536 20.4677L19.28 21.3413L20.2349 22.296L22.8727 19.6582L20.2348 17.0205L19.2799 17.9752L20.3799 19.0751C13.9793 19.8379 9 25.2984 9 31.9009C9.01339 44.0966 24.5086 49.396 31.9962 39.9712C33.9447 42.3976 36.7431 44.0733 39.8032 44.6182L40.0398 43.2888C37.1763 42.7789 34.5684 41.1617 32.8174 38.8266ZM42.082 23.9343C46.4748 23.9343 50.0487 27.5081 50.0487 31.901C49.9322 40.8234 37.6071 42.9131 34.5641 34.5397C34.9247 32.8438 34.924 30.9575 34.565 29.2597C35.6849 26.068 38.6846 23.9343 42.082 23.9343Z" fill="url(#paint2_linear_1910_448)"/>
<path d="M12.6006 31.901C12.6006 37.0383 16.7802 41.2179 21.9176 41.2179C34.2608 40.7496 34.2574 23.0505 21.9175 22.584C16.7802 22.584 12.6006 26.7636 12.6006 31.901ZM21.9176 23.9343C26.3104 23.9343 29.8843 27.5081 29.8843 31.901C29.4838 42.4554 14.3498 42.4526 13.9509 31.901C13.9508 27.5081 17.5247 23.9343 21.9176 23.9343Z" fill="url(#paint3_linear_1910_448)"/>
<path d="M37.5657 36.9513L39.2206 35.9958C39.4568 36.1614 39.706 36.3055 39.9665 36.4273V38.3373H44.1975V36.4273C44.4582 36.3054 44.7072 36.1613 44.9434 35.9958L46.5984 36.9513L48.7138 33.2873L47.0591 32.3319C47.0844 32.043 47.0844 31.7591 47.0591 31.4703L48.7138 30.5149L46.5984 26.8509L44.9434 27.8063C44.7072 27.6407 44.458 27.4966 44.1975 27.3747V25.4648H39.9665V27.3747C39.7058 27.4967 39.4568 27.6408 39.2206 27.8063L37.5657 26.8509L35.4502 30.5149L37.1049 31.4703C37.0796 31.7591 37.0796 32.043 37.1049 32.3319L35.4502 33.2873L37.5657 36.9513ZM38.4981 32.5677C38.4156 32.1198 38.4156 31.6822 38.4981 31.2343L38.5848 30.7654L37.2947 30.0206L38.0599 28.6953L39.3512 29.4408L39.7141 29.1302C40.0568 28.837 40.4446 28.6126 40.8668 28.4635L41.3169 28.3044V26.8149H42.8472V28.3044L43.2973 28.4635C43.7194 28.6127 44.1074 28.837 44.45 29.1302L44.8129 29.4408L46.1042 28.6953L46.8694 30.0206L45.5793 30.7654L45.666 31.2343C45.7485 31.6822 45.7485 32.1198 45.666 32.5677L45.5793 33.0366L46.8694 33.7814L46.1042 35.1068L44.8129 34.3613L44.45 34.6719C44.1074 34.965 43.7196 35.1894 43.2973 35.3387L42.8472 35.4978V36.9871H41.3168V35.4978L40.8667 35.3387C40.4445 35.1894 40.0567 34.965 39.714 34.6719L39.3511 34.3613L38.0598 35.1068L37.2946 33.7814L38.5848 33.0366L38.4981 32.5677Z" fill="url(#paint4_linear_1910_448)"/>
<path d="M42.0823 34.016C43.2487 34.016 44.1977 33.0669 44.1977 31.9005C44.0914 29.0979 40.0728 29.0986 39.9668 31.9005C39.9668 33.067 40.9158 34.016 42.0823 34.016ZM42.0823 31.1354C42.5042 31.1354 42.8475 31.4786 42.8475 31.9006C42.8115 32.9133 41.353 32.913 41.3171 31.9006C41.3171 31.4786 41.6604 31.1354 42.0823 31.1354Z" fill="url(#paint5_linear_1910_448)"/>
<path d="M16.9219 31.9011C16.9219 32.0438 16.9282 32.1878 16.9409 32.3319L15.2861 33.2873L17.4016 36.9513L19.0565 35.9958C19.2927 36.1614 19.5419 36.3055 19.8025 36.4273V38.3373H24.0334V36.4273C24.2941 36.3054 24.5432 36.1613 24.7794 35.9958L26.4343 36.9513L28.5498 33.2873L26.895 32.3319C26.9204 32.043 26.9204 31.7591 26.895 31.4703L28.5498 30.5149L26.4343 26.8509L24.7794 27.8063C24.5432 27.6407 24.294 27.4966 24.0334 27.3747V25.4648H19.8025V27.3747C19.5418 27.4967 19.2927 27.6408 19.0565 27.8063L17.4016 26.8509L15.2861 30.5149L16.9409 31.4703C16.9282 31.6145 16.9219 31.7583 16.9219 31.9011ZM18.3341 32.5678C18.2515 32.1199 18.2515 31.6823 18.3341 31.2344L18.4208 30.7655L17.1306 30.0207L17.8958 28.6954L19.1871 29.4409L19.55 29.1303C19.8927 28.8371 20.2805 28.6127 20.7027 28.4636L21.1528 28.3044V26.815H22.6831V28.3044L23.1333 28.4636C23.5554 28.6128 23.9433 28.8371 24.286 29.1303L24.6488 29.4409L25.9402 28.6954L26.7054 30.0207L25.4152 30.7655L25.5019 31.2344C25.5845 31.6823 25.5845 32.1199 25.5019 32.5678L25.4152 33.0367L26.7054 33.7815L25.9402 35.1069L24.6488 34.3614L24.286 34.6719C23.9433 34.9651 23.5555 35.1894 23.1333 35.3388L22.6831 35.4979V36.9872H21.1528V35.4979L20.7027 35.3388C20.2805 35.1894 19.8927 34.9651 19.55 34.6719L19.1871 34.3614L17.8958 35.1069L17.1306 33.7815L18.4208 33.0367L18.3341 32.5678Z" fill="url(#paint6_linear_1910_448)"/>
<path d="M21.9182 34.016C23.0846 34.016 24.0337 33.0669 24.0337 31.9005C23.9274 29.0979 19.9087 29.0986 19.8027 31.9005C19.8027 33.067 20.7518 34.016 21.9182 34.016ZM21.9182 31.1354C22.3401 31.1354 22.6834 31.4786 22.6834 31.9006C22.6475 32.9133 21.1889 32.913 21.1531 31.9006C21.153 31.4786 21.4963 31.1354 21.9182 31.1354Z" fill="url(#paint7_linear_1910_448)"/>
<path d="M31.2793 45.6289H32.7196V46.9792H31.2793V45.6289Z" fill="url(#paint8_linear_1910_448)"/>
<path d="M28.3994 45.6289H29.8397V46.9792H28.3994V45.6289Z" fill="url(#paint9_linear_1910_448)"/>
<path d="M34.1602 45.6289H35.6004V46.9792H34.1602V45.6289Z" fill="url(#paint10_linear_1910_448)"/>
<defs>
<linearGradient id="paint0_linear_1910_448" x1="-9.95479e-09" y1="23.6946" x2="64.0349" y2="23.982" gradientUnits="userSpaceOnUse">
<stop stop-color="#214F89"/>
<stop offset="1" stop-color="#12BCAB"/>
</linearGradient>
<linearGradient id="paint1_linear_1910_448" x1="32.7471" y1="29.2823" x2="55.0127" y2="29.3623" gradientUnits="userSpaceOnUse">
<stop stop-color="#214F89"/>
<stop offset="1" stop-color="#12BCAB"/>
</linearGradient>
<linearGradient id="paint2_linear_1910_448" x1="9" y1="27.3023" x2="51.4209" y2="27.593" gradientUnits="userSpaceOnUse">
<stop stop-color="#214F89"/>
<stop offset="1" stop-color="#12BCAB"/>
</linearGradient>
<linearGradient id="paint3_linear_1910_448" x1="12.6006" y1="29.4828" x2="31.1839" y2="29.5659" gradientUnits="userSpaceOnUse">
<stop stop-color="#214F89"/>
<stop offset="1" stop-color="#12BCAB"/>
</linearGradient>
<linearGradient id="paint4_linear_1910_448" x1="35.4502" y1="30.2306" x2="48.721" y2="30.292" gradientUnits="userSpaceOnUse">
<stop stop-color="#214F89"/>
<stop offset="1" stop-color="#12BCAB"/>
</linearGradient>
<linearGradient id="paint5_linear_1910_448" x1="39.9668" y1="31.3601" x2="44.2" y2="31.3792" gradientUnits="userSpaceOnUse">
<stop stop-color="#214F89"/>
<stop offset="1" stop-color="#12BCAB"/>
</linearGradient>
<linearGradient id="paint6_linear_1910_448" x1="15.2861" y1="30.2306" x2="28.557" y2="30.292" gradientUnits="userSpaceOnUse">
<stop stop-color="#214F89"/>
<stop offset="1" stop-color="#12BCAB"/>
</linearGradient>
<linearGradient id="paint7_linear_1910_448" x1="19.8027" y1="31.3601" x2="24.036" y2="31.3792" gradientUnits="userSpaceOnUse">
<stop stop-color="#214F89"/>
<stop offset="1" stop-color="#12BCAB"/>
</linearGradient>
<linearGradient id="paint8_linear_1910_448" x1="31.2793" y1="46.1288" x2="32.7204" y2="46.1357" gradientUnits="userSpaceOnUse">
<stop stop-color="#214F89"/>
<stop offset="1" stop-color="#12BCAB"/>
</linearGradient>
<linearGradient id="paint9_linear_1910_448" x1="28.3994" y1="46.1288" x2="29.8405" y2="46.1357" gradientUnits="userSpaceOnUse">
<stop stop-color="#214F89"/>
<stop offset="1" stop-color="#12BCAB"/>
</linearGradient>
<linearGradient id="paint10_linear_1910_448" x1="34.1602" y1="46.1288" x2="35.6012" y2="46.1357" gradientUnits="userSpaceOnUse">
<stop stop-color="#214F89"/>
<stop offset="1" stop-color="#12BCAB"/>
</linearGradient>
</defs>
</svg>
