<svg width="64" height="64" viewBox="0 0 64 64" fill="none" xmlns="http://www.w3.org/2000/svg">
<g clip-path="url(#clip0_1088_1060)">
<path d="M52.6136 17.0385C52.5503 16.7088 52.259 16.4731 51.9236 16.4827H50.1219C49.9532 16.084 49.7405 15.7045 49.4894 15.3518L50.2752 13.9718C50.3768 13.8051 50.4037 13.6038 50.3519 13.416C50.3078 13.2263 50.1813 13.0633 50.0069 12.9752L47.8027 11.691C47.4462 11.4974 47.0016 11.6163 46.7869 11.9593L46.0011 13.3393C45.5679 13.2818 45.1309 13.2818 44.6977 13.3393L43.8927 11.9593C43.6876 11.6163 43.2468 11.4974 42.8961 11.691L40.6727 12.9752C40.5041 13.071 40.3795 13.2282 40.3277 13.416C40.2856 13.6038 40.3124 13.8013 40.4044 13.9718L41.2094 15.3518C40.9449 15.6988 40.7264 16.0802 40.5577 16.4827H38.7752C38.5376 16.4788 38.3152 16.5938 38.1811 16.7893H12.699C10.6501 16.797 8.99215 18.4588 8.99023 20.5077V44.236C8.99215 46.2888 10.6558 47.9524 12.7086 47.9543H22.3494V50.906H19.8673C19.4552 50.906 19.1198 51.2414 19.1198 51.6535C19.1294 52.0618 19.4591 52.3914 19.8673 52.401H44.1131C44.5214 52.3914 44.8511 52.0618 44.8606 51.6535C44.8606 51.2414 44.5252 50.906 44.1131 50.906H41.6407V47.9543H51.2623C53.3151 47.9582 54.9845 46.2964 54.9902 44.2437V41.9628C55.0152 41.9015 55.0152 41.8325 54.9902 41.7712V20.5077C54.9845 18.9743 54.0415 17.5982 52.6136 17.0385ZM39.5036 17.9662H41.0752C41.3991 17.9662 41.6866 17.7573 41.7844 17.4487C41.8534 17.2244 41.9435 17.0059 42.0527 16.797C42.2042 16.4865 42.4054 16.2009 42.6469 15.9537C42.8558 15.7064 42.8903 15.3557 42.7331 15.072H42.7427L42.0527 13.8837L42.9919 13.347L43.6819 14.5353C43.8391 14.8209 44.1706 14.9647 44.4869 14.8803C45.0523 14.727 45.6465 14.727 46.2119 14.8803C46.5262 14.957 46.854 14.8152 47.0169 14.5353L47.7069 13.347L48.6461 13.8837L47.9561 15.072C47.7912 15.3557 47.8315 15.7122 48.0519 15.9537C48.2934 16.2009 48.4946 16.4865 48.6461 16.797C48.7476 17.0098 48.8358 17.2263 48.9144 17.4487C48.9987 17.7592 49.2824 17.9719 49.6044 17.9662H51.1952V19.0587H49.6044C49.2824 19.0529 48.9987 19.2657 48.9144 19.5762C48.7362 20.1301 48.441 20.6399 48.0519 21.0712C47.8219 21.3012 47.7817 21.6596 47.9561 21.9337L48.6461 23.1412L47.7069 23.6778L47.0169 22.4895C46.8521 22.2097 46.5301 22.064 46.2119 22.1253C45.6465 22.2787 45.0523 22.2787 44.4869 22.1253C44.1668 22.0487 43.8352 22.1982 43.6819 22.4895L42.9919 23.6778L42.0527 23.1412L42.7427 21.9337C42.8961 21.6558 42.8577 21.3088 42.6469 21.0712C42.4974 20.9178 42.3613 20.7511 42.2444 20.5728C42.0489 20.2623 41.8936 19.9269 41.7844 19.5762C41.7441 19.4401 41.6656 19.3193 41.5544 19.2312C41.4202 19.1181 41.2496 19.0568 41.0752 19.0587H39.5036V17.9662ZM40.1456 50.906H23.8157V47.9543H40.1456V50.906ZM53.5048 44.236C53.4952 45.4665 52.4947 46.4613 51.2623 46.4593H12.699C11.4666 46.4613 10.4661 45.4665 10.4565 44.236V42.6068H53.5048V44.236ZM53.5144 41.1195H10.4565V20.5077C10.4584 19.2695 11.4608 18.2671 12.699 18.2652H38.0182V19.7793C38.0201 20.1838 38.3497 20.5096 38.7542 20.5077H38.7657H40.1265L33.974 26.4302H29.6902V22.616C29.6941 21.8493 29.0769 21.2226 28.3102 21.2168H13.3315C12.5648 21.2226 11.9477 21.8493 11.9515 22.616V36.1668C11.9477 36.9335 12.5648 37.5603 13.3315 37.566H28.3007C29.0673 37.5603 29.6845 36.9335 29.6807 36.1668V32.9852H34.0315L38.1332 38.256C38.1332 38.2675 38.1408 38.2752 38.1523 38.2752C38.2117 38.3538 38.2903 38.4132 38.3823 38.4477C38.4858 38.5109 38.6066 38.5435 38.7273 38.5435H51.8181C52.2245 38.5493 52.5599 38.2253 52.5656 37.819C52.5656 37.8113 52.5656 37.8037 52.5656 37.796C52.5656 37.3839 52.2302 37.0485 51.8181 37.0485H51.1569V29.401C51.1569 28.9889 50.8215 28.6535 50.4094 28.6535C50.0031 28.6478 49.6676 28.9717 49.6619 29.378V29.401V37.0485H48.1094V31.3177C48.1151 30.9113 47.7912 30.5759 47.3849 30.5702C47.3772 30.5702 47.3696 30.5702 47.3619 30.5702C46.9498 30.5702 46.6144 30.9056 46.6144 31.3177V37.0485H45.2152V33.2343C45.221 32.828 44.8971 32.4926 44.4907 32.4868C44.4831 32.4868 44.4754 32.4868 44.4677 32.4868C44.0556 32.4868 43.7202 32.8223 43.7202 33.2343V37.0485H42.3402V35.151C42.3402 34.7428 42.0106 34.4131 41.6023 34.4131C41.1941 34.4131 40.8644 34.7428 40.8644 35.151V37.0485H39.1011L34.9994 31.7777C34.8576 31.5937 34.6372 31.4883 34.4052 31.4902H29.6902V27.9137H34.0411C34.3171 27.9137 34.5835 27.8121 34.7886 27.6262L41.1519 21.5695C41.1711 21.5887 41.1902 21.627 41.2094 21.6462L40.4044 23.0262C40.3124 23.2025 40.2856 23.4057 40.3277 23.6012C40.3852 23.7852 40.5079 23.9423 40.6727 24.042L42.8961 25.3262C43.2506 25.5217 43.6972 25.3933 43.8927 25.0387L44.6977 23.6778C45.1309 23.7353 45.5679 23.7353 46.0011 23.6778L46.7869 25.0387C46.9211 25.2725 47.1683 25.4182 47.4386 25.422C47.5651 25.4182 47.6897 25.3837 47.8027 25.3262L50.0069 24.042C50.1775 23.9481 50.3021 23.789 50.3519 23.6012C50.4037 23.4076 50.3768 23.2006 50.2752 23.0262L49.4894 21.6462C49.7405 21.2935 49.9532 20.914 50.1219 20.5153H51.9236C52.3261 20.5153 52.6519 20.1895 52.6519 19.787V18.7712C53.2001 19.1833 53.5201 19.8292 53.5144 20.5153V41.1195ZM28.1857 22.616V36.071L13.4465 36.1668L13.3315 22.731L28.1857 22.616Z" fill="url(#paint0_linear_1088_1060)"/>
<path d="M45.3399 21.1478C46.7985 21.144 47.9811 19.9614 47.9849 18.5028C47.9888 18.4262 47.9811 18.3476 47.9658 18.2728C47.9255 17.7247 47.7032 17.2033 47.3333 16.797C46.8445 16.199 46.1124 15.8521 45.3399 15.8578C44.5637 15.8559 43.8258 16.2009 43.3274 16.797C42.9575 17.2033 42.7352 17.7247 42.6949 18.2728C42.6796 18.3476 42.6719 18.4262 42.6758 18.5028C42.6873 19.9672 43.8756 21.1459 45.3399 21.1478ZM44.1708 18.2728C44.2819 17.7151 44.7707 17.3145 45.3399 17.3145C45.9034 17.3145 46.3884 17.7189 46.4899 18.2728C46.5053 18.3476 46.5129 18.4262 46.5091 18.5028C46.5149 19.1545 45.9916 19.6854 45.3399 19.6912C44.6844 19.6873 44.1554 19.1583 44.1516 18.5028C44.1478 18.4262 44.1554 18.3476 44.1708 18.2728Z" fill="url(#paint1_linear_1088_1060)"/>
<path d="M15.6694 28.6037H25.4731C25.8852 28.6037 26.2206 28.2683 26.2206 27.8562C26.2264 27.4499 25.9025 27.1144 25.4961 27.1087C25.4885 27.1087 25.4808 27.1087 25.4731 27.1087H15.6694C15.263 27.1029 14.9276 27.4269 14.9219 27.8332V27.8562C14.9219 28.2683 15.2573 28.6037 15.6694 28.6037Z" fill="url(#paint2_linear_1088_1060)"/>
<path d="M15.6465 31.4978H15.6695H25.4732C25.8795 31.5036 26.215 31.1797 26.2207 30.7733C26.2207 30.7657 26.2207 30.758 26.2207 30.7503C26.2207 30.3383 25.8853 30.0028 25.4732 30.0028H15.6695C15.2574 30.0028 14.922 30.3383 14.922 30.7503C14.9162 31.1567 15.2401 31.4921 15.6465 31.4978Z" fill="url(#paint3_linear_1088_1060)"/>
<path d="M15.6465 25.6827H15.6695H19.7232C20.1295 25.6884 20.465 25.3645 20.4707 24.9582C20.4707 24.9505 20.4707 24.9429 20.4707 24.9352C20.4707 24.5231 20.1353 24.1877 19.7232 24.1877H15.6695C15.2574 24.1877 14.922 24.5231 14.922 24.9352C14.9162 25.3415 15.2401 25.6769 15.6465 25.6827Z" fill="url(#paint4_linear_1088_1060)"/>
<path d="M18.6403 45.2212C19.0478 45.2212 19.3782 44.8908 19.3782 44.4833C19.3782 44.0757 19.0478 43.7454 18.6403 43.7454C18.2327 43.7454 17.9023 44.0757 17.9023 44.4833C17.9023 44.8908 18.2327 45.2212 18.6403 45.2212Z" fill="url(#paint5_linear_1088_1060)"/>
<path d="M15.6696 45.2212C16.0771 45.2212 16.4075 44.8908 16.4075 44.4833C16.4075 44.0757 16.0771 43.7454 15.6696 43.7454C15.262 43.7454 14.9316 44.0757 14.9316 44.4833C14.9316 44.8908 15.262 45.2212 15.6696 45.2212Z" fill="url(#paint6_linear_1088_1060)"/>
<path d="M15.6694 34.4112H25.4731C25.8852 34.4112 26.2206 34.0758 26.2206 33.6637C26.2206 33.2516 25.8852 32.9162 25.4731 32.9162H15.6694C15.2573 32.9162 14.9219 33.2497 14.9219 33.6637C14.9219 34.0758 15.2554 34.4112 15.6694 34.4112Z" fill="url(#paint7_linear_1088_1060)"/>
<path d="M12.6989 45.2212C13.1064 45.2212 13.4368 44.8908 13.4368 44.4833C13.4368 44.0757 13.1064 43.7454 12.6989 43.7454C12.2913 43.7454 11.9609 44.0757 11.9609 44.4833C11.9609 44.8908 12.2913 45.2212 12.6989 45.2212Z" fill="url(#paint8_linear_1088_1060)"/>
</g>
<rect x="0.587156" y="-0.587156" width="62.8257" height="62.8257" rx="8.80734" transform="matrix(1 0 0 -1 0 62.8257)" stroke="url(#paint9_linear_1088_1060)" stroke-width="1.17431"/>
<defs>
<linearGradient id="paint0_linear_1088_1060" x1="8.99023" y1="26.7046" x2="55.0338" y2="26.9377" gradientUnits="userSpaceOnUse">
<stop stop-color="#214F89"/>
<stop offset="1" stop-color="#12BCAB"/>
</linearGradient>
<linearGradient id="paint1_linear_1088_1060" x1="42.6748" y1="17.8163" x2="47.9888" y2="17.8402" gradientUnits="userSpaceOnUse">
<stop stop-color="#214F89"/>
<stop offset="1" stop-color="#12BCAB"/>
</linearGradient>
<linearGradient id="paint2_linear_1088_1060" x1="14.9219" y1="27.6621" x2="26.2141" y2="28.0451" gradientUnits="userSpaceOnUse">
<stop stop-color="#214F89"/>
<stop offset="1" stop-color="#12BCAB"/>
</linearGradient>
<linearGradient id="paint3_linear_1088_1060" x1="14.9219" y1="30.5564" x2="26.2141" y2="30.9393" gradientUnits="userSpaceOnUse">
<stop stop-color="#214F89"/>
<stop offset="1" stop-color="#12BCAB"/>
</linearGradient>
<linearGradient id="paint4_linear_1088_1060" x1="14.9219" y1="24.7412" x2="20.4723" y2="24.8337" gradientUnits="userSpaceOnUse">
<stop stop-color="#214F89"/>
<stop offset="1" stop-color="#12BCAB"/>
</linearGradient>
<linearGradient id="paint5_linear_1088_1060" x1="17.9023" y1="44.2918" x2="19.379" y2="44.2984" gradientUnits="userSpaceOnUse">
<stop stop-color="#214F89"/>
<stop offset="1" stop-color="#12BCAB"/>
</linearGradient>
<linearGradient id="paint6_linear_1088_1060" x1="14.9316" y1="44.2918" x2="16.4083" y2="44.2984" gradientUnits="userSpaceOnUse">
<stop stop-color="#214F89"/>
<stop offset="1" stop-color="#12BCAB"/>
</linearGradient>
<linearGradient id="paint7_linear_1088_1060" x1="14.9219" y1="33.4697" x2="26.214" y2="33.8527" gradientUnits="userSpaceOnUse">
<stop stop-color="#214F89"/>
<stop offset="1" stop-color="#12BCAB"/>
</linearGradient>
<linearGradient id="paint8_linear_1088_1060" x1="11.9609" y1="44.2918" x2="13.4376" y2="44.2984" gradientUnits="userSpaceOnUse">
<stop stop-color="#214F89"/>
<stop offset="1" stop-color="#12BCAB"/>
</linearGradient>
<linearGradient id="paint9_linear_1088_1060" x1="-9.95479e-09" y1="23.6946" x2="64.0349" y2="23.982" gradientUnits="userSpaceOnUse">
<stop stop-color="#214F89"/>
<stop offset="1" stop-color="#12BCAB"/>
</linearGradient>
<clipPath id="clip0_1088_1060">
<rect width="46" height="46" fill="white" transform="translate(9 9)"/>
</clipPath>
</defs>
</svg>
