<svg width="36" height="36" viewBox="0 0 36 36" fill="none" xmlns="http://www.w3.org/2000/svg">
<rect width="36" height="36" rx="8" fill="white"/>
<path fill-rule="evenodd" clip-rule="evenodd" d="M12.6405 5.078C14.0267 5.01418 14.4687 5 18 5C21.5313 5 21.9733 5.01536 23.3584 5.078C24.7435 5.14064 25.6889 5.36164 26.5162 5.68191C27.3825 6.00927 28.1684 6.521 28.8184 7.18282C29.4802 7.83164 29.9907 8.61636 30.3169 9.48382C30.6384 10.3111 30.8582 11.2565 30.922 12.6393C30.9858 14.0279 31 14.4699 31 18C31 21.5313 30.9846 21.9733 30.922 23.3595C30.8594 24.7423 30.6384 25.6877 30.3169 26.515C29.9907 27.3826 29.4793 28.1686 28.8184 28.8184C28.1684 29.4802 27.3825 29.9907 26.5162 30.3169C25.6889 30.6384 24.7435 30.8582 23.3607 30.922C21.9733 30.9858 21.5313 31 18 31C14.4687 31 14.0267 30.9846 12.6405 30.922C11.2577 30.8594 10.3123 30.6384 9.485 30.3169C8.61745 29.9907 7.83142 29.4793 7.18164 28.8184C6.52027 28.1692 6.00846 27.3835 5.68191 26.5162C5.36164 25.6889 5.14182 24.7435 5.078 23.3607C5.01418 21.9721 5 21.5301 5 18C5 14.4687 5.01536 14.0267 5.078 12.6416C5.14064 11.2565 5.36164 10.3111 5.68191 9.48382C6.00895 8.61646 6.52114 7.83082 7.18282 7.18164C7.83168 6.52041 8.61692 6.00861 9.48382 5.68191C10.3111 5.36164 11.2565 5.14182 12.6393 5.078H12.6405ZM23.2532 7.418C21.8823 7.35536 21.471 7.34236 18 7.34236C14.529 7.34236 14.1177 7.35536 12.7468 7.418C11.4787 7.47591 10.7909 7.68745 10.3324 7.86591C9.72609 8.10227 9.29236 8.38236 8.83736 8.83736C8.40605 9.25697 8.07412 9.76779 7.86591 10.3324C7.68745 10.7909 7.47591 11.4787 7.418 12.7468C7.35536 14.1177 7.34236 14.529 7.34236 18C7.34236 21.471 7.35536 21.8823 7.418 23.2532C7.47591 24.5213 7.68745 25.2091 7.86591 25.6676C8.07391 26.2314 8.406 26.7431 8.83736 27.1626C9.25691 27.594 9.76864 27.9261 10.3324 28.1341C10.7909 28.3125 11.4787 28.5241 12.7468 28.582C14.1177 28.6446 14.5278 28.6576 18 28.6576C21.4722 28.6576 21.8823 28.6446 23.2532 28.582C24.5213 28.5241 25.2091 28.3125 25.6676 28.1341C26.2739 27.8977 26.7076 27.6176 27.1626 27.1626C27.594 26.7431 27.9261 26.2314 28.1341 25.6676C28.3125 25.2091 28.5241 24.5213 28.582 23.2532C28.6446 21.8823 28.6576 21.471 28.6576 18C28.6576 14.529 28.6446 14.1177 28.582 12.7468C28.5241 11.4787 28.3125 10.7909 28.1341 10.3324C27.8977 9.72609 27.6176 9.29236 27.1626 8.83736C26.743 8.40608 26.2322 8.07416 25.6676 7.86591C25.2091 7.68745 24.5213 7.47591 23.2532 7.418ZM16.3395 22.0075C17.2669 22.3936 18.2994 22.4457 19.2609 22.1549C20.2224 21.8642 21.0531 21.2487 21.6112 20.4136C22.1693 19.5784 22.4201 18.5754 22.3208 17.5759C22.2215 16.5763 21.7783 15.6422 21.0668 14.9332C20.6133 14.4799 20.0649 14.1329 19.4611 13.917C18.8574 13.7011 18.2132 13.6218 17.5751 13.6847C16.937 13.7477 16.3208 13.9513 15.7709 14.281C15.2209 14.6106 14.7509 15.0582 14.3946 15.5913C14.0384 16.1244 13.8048 16.7299 13.7106 17.3641C13.6165 17.9984 13.6641 18.6456 13.8501 19.2592C14.0361 19.8729 14.3558 20.4376 14.7863 20.9129C15.2168 21.3881 15.7472 21.7619 16.3395 22.0075ZM13.2751 13.2751C13.8956 12.6546 14.6322 12.1624 15.4429 11.8266C16.2536 11.4908 17.1225 11.318 18 11.318C18.8775 11.318 19.7464 11.4908 20.5571 11.8266C21.3678 12.1624 22.1044 12.6546 22.7249 13.2751C23.3454 13.8956 23.8376 14.6322 24.1734 15.4429C24.5092 16.2536 24.682 17.1225 24.682 18C24.682 18.8775 24.5092 19.7464 24.1734 20.5571C23.8376 21.3678 23.3454 22.1044 22.7249 22.7249C21.4718 23.978 19.7722 24.682 18 24.682C16.2278 24.682 14.5282 23.978 13.2751 22.7249C12.022 21.4718 11.318 19.7722 11.318 18C11.318 16.2278 12.022 14.5282 13.2751 13.2751ZM26.164 12.3131C26.3178 12.168 26.4409 11.9936 26.526 11.8002C26.6111 11.6067 26.6566 11.3981 26.6597 11.1867C26.6628 10.9754 26.6234 10.7656 26.5439 10.5697C26.4645 10.3738 26.3465 10.1959 26.197 10.0464C26.0476 9.89694 25.8696 9.77899 25.6738 9.69952C25.4779 9.62006 25.2681 9.5807 25.0567 9.58378C24.8454 9.58686 24.6368 9.63232 24.4433 9.71746C24.2498 9.8026 24.0754 9.92569 23.9304 10.0795C23.6483 10.3785 23.4938 10.7757 23.4998 11.1867C23.5058 11.5978 23.6718 11.9903 23.9625 12.281C24.2531 12.5717 24.6457 12.7376 25.0567 12.7436C25.4678 12.7496 25.865 12.5952 26.164 12.3131Z" fill="url(#paint0_linear_271_173)"/>
<defs>
<linearGradient id="paint0_linear_271_173" x1="5" y1="14.626" x2="31.0142" y2="14.7427" gradientUnits="userSpaceOnUse">
<stop stop-color="#214F89"/>
<stop offset="1" stop-color="#12BCAB"/>
</linearGradient>
</defs>
</svg>
