<svg width="64" height="64" viewBox="0 0 64 64" fill="none" xmlns="http://www.w3.org/2000/svg">
<path d="M24.8699 51.7771H10.6099C10.2275 51.7771 9.91992 51.4695 9.91992 51.0871V38.6355C9.91992 38.2531 10.2275 37.9455 10.6099 37.9455H24.8699C25.2523 37.9455 25.5599 38.2531 25.5599 38.6355V51.0871C25.5599 51.4666 25.2523 51.7771 24.8699 51.7771ZM11.2999 50.3971H24.1799V39.3255H11.2999V50.3971Z" fill="url(#paint0_linear_1088_1084)"/>
<path d="M19.5969 43.04H15.8824C15.5 43.04 15.1924 42.7324 15.1924 42.35V38.6355C15.1924 38.2531 15.5 37.9455 15.8824 37.9455H19.5969C19.9793 37.9455 20.2869 38.2531 20.2869 38.6355V42.35C20.2869 42.7295 19.9793 43.04 19.5969 43.04ZM16.5724 41.66H18.9069V39.3255H16.5724V41.66Z" fill="url(#paint1_linear_1088_1084)"/>
<path d="M39.1297 51.7771H24.8697C24.4873 51.7771 24.1797 51.4695 24.1797 51.0871V38.6355C24.1797 38.2531 24.4873 37.9455 24.8697 37.9455H39.1297C39.5121 37.9455 39.8197 38.2531 39.8197 38.6355V51.0871C39.8197 51.4666 39.5121 51.7771 39.1297 51.7771ZM25.5597 50.3971H38.4397V39.3255H25.5597V50.3971Z" fill="url(#paint2_linear_1088_1084)"/>
<path d="M33.8566 43.04H30.1421C29.7598 43.04 29.4521 42.7324 29.4521 42.35V38.6355C29.4521 38.2531 29.7598 37.9455 30.1421 37.9455H33.8566C34.239 37.9455 34.5466 38.2531 34.5466 38.6355V42.35C34.5466 42.7295 34.239 43.04 33.8566 43.04ZM30.8321 41.66H33.1666V39.3255H30.8321V41.66Z" fill="url(#paint3_linear_1088_1084)"/>
<path d="M53.3895 51.7771H39.1295C38.7471 51.7771 38.4395 51.4695 38.4395 51.0871V38.6355C38.4395 38.2531 38.7471 37.9455 39.1295 37.9455H53.3895C53.7718 37.9455 54.0795 38.2531 54.0795 38.6355V51.0871C54.0795 51.4666 53.7718 51.7771 53.3895 51.7771ZM39.8195 50.3971H52.6995V39.3255H39.8195V50.3971Z" fill="url(#paint4_linear_1088_1084)"/>
<path d="M48.1164 43.04H44.4019C44.0195 43.04 43.7119 42.7324 43.7119 42.35V38.6355C43.7119 38.2531 44.0195 37.9455 44.4019 37.9455H48.1164C48.4988 37.9455 48.8064 38.2531 48.8064 38.6355V42.35C48.8064 42.7295 48.4988 43.04 48.1164 43.04ZM45.0919 41.66H47.4264V39.3255H45.0919V41.66Z" fill="url(#paint5_linear_1088_1084)"/>
<path d="M31.9998 39.3226H17.7398C17.3574 39.3226 17.0498 39.015 17.0498 38.6326V34.8606C17.0498 34.4782 17.3574 34.1706 17.7398 34.1706C18.1222 34.1706 18.4298 34.4782 18.4298 34.8606V37.9426H31.3098V26.871H28.7626C28.3802 26.871 28.0726 26.5634 28.0726 26.181C28.0726 25.7986 28.3802 25.491 28.7626 25.491H31.9998C32.3822 25.491 32.6898 25.7986 32.6898 26.181V38.6326C32.6898 39.015 32.3822 39.3226 31.9998 39.3226Z" fill="url(#paint6_linear_1088_1084)"/>
<path d="M46.2596 39.3226H31.9996C31.6172 39.3226 31.3096 39.015 31.3096 38.6326V26.181C31.3096 25.7986 31.6172 25.491 31.9996 25.491H46.2596C46.6419 25.491 46.9496 25.7986 46.9496 26.181V38.6326C46.9496 39.015 46.6419 39.3226 46.2596 39.3226ZM32.6896 37.9426H45.5696V26.871H32.6896V37.9426Z" fill="url(#paint7_linear_1088_1084)"/>
<path d="M40.9865 30.5855H37.272C36.8897 30.5855 36.582 30.2779 36.582 29.8955V26.181C36.582 25.7986 36.8897 25.491 37.272 25.491H40.9865C41.3689 25.491 41.6765 25.7986 41.6765 26.181V29.8955C41.6765 30.2779 41.3689 30.5855 40.9865 30.5855ZM37.962 29.2055H40.2965V26.871H37.962V29.2055Z" fill="url(#paint8_linear_1088_1084)"/>
<path d="M24.8841 18.2345H17.2711C16.8887 18.2345 16.5811 17.9269 16.5811 17.5445V15.0375C16.5811 14.2871 17.1934 13.6747 17.9438 13.6747H19.0507C19.4331 13.6747 19.7407 13.9824 19.7407 14.3647C19.7407 14.7471 19.4331 15.0547 19.0507 15.0547H17.9611V16.8516H24.1941V15.0547H23.1044C22.7221 15.0547 22.4144 14.7471 22.4144 14.3647C22.4144 13.9824 22.7221 13.6747 23.1044 13.6747H24.2113C24.9617 13.6747 25.5741 14.2871 25.5741 15.0375V17.5416C25.5741 17.924 25.2664 18.2345 24.8841 18.2345Z" fill="url(#paint9_linear_1088_1084)"/>
<path d="M28.7629 35.5506H13.3931C13.0107 35.5506 12.7031 35.243 12.7031 34.8606V15.5924C12.7031 15.21 13.0107 14.9024 13.3931 14.9024H17.2715C17.6539 14.9024 17.9615 15.21 17.9615 15.5924C17.9615 15.9747 17.6539 16.2824 17.2715 16.2824H14.0831V34.1706H28.0729V16.2824H24.8845C24.5021 16.2824 24.1945 15.9747 24.1945 15.5924C24.1945 15.21 24.5021 14.9024 24.8845 14.9024H28.7629C29.1453 14.9024 29.4529 15.21 29.4529 15.5924V34.8606C29.4529 35.243 29.1453 35.5506 28.7629 35.5506Z" fill="url(#paint10_linear_1088_1084)"/>
<path d="M23.1051 16.0294H19.0513C18.669 16.0294 18.3613 15.7217 18.3613 15.3394V12.9129C18.3613 12.5305 18.669 12.2229 19.0513 12.2229H23.1051C23.4875 12.2229 23.7951 12.5305 23.7951 12.9129V15.3394C23.7951 15.7217 23.4875 16.0294 23.1051 16.0294ZM19.7413 14.6494H22.4151V13.6029H19.7413V14.6494Z" fill="url(#paint11_linear_1088_1084)"/>
<path d="M25.813 21.5982H20.0601C19.6777 21.5982 19.3701 21.2906 19.3701 20.9082C19.3701 20.5259 19.6777 20.2182 20.0601 20.2182H25.813C26.1954 20.2182 26.503 20.5259 26.503 20.9082C26.503 21.2906 26.1925 21.5982 25.813 21.5982Z" fill="url(#paint12_linear_1088_1084)"/>
<path d="M16.8259 21.8771C16.6505 21.8771 16.4722 21.811 16.3371 21.6759L15.857 21.1957C15.5867 20.9255 15.5867 20.4885 15.857 20.2211C16.1244 19.9537 16.5556 19.9509 16.823 20.2125L17.4469 19.5886C17.7171 19.3184 18.1541 19.3184 18.4215 19.5886C18.6917 19.8589 18.6917 20.2959 18.4215 20.5632L17.3117 21.673C17.1795 21.8081 17.0012 21.8771 16.8259 21.8771Z" fill="url(#paint13_linear_1088_1084)"/>
<path d="M25.813 25.3127H20.0601C19.6777 25.3127 19.3701 25.0051 19.3701 24.6227C19.3701 24.2403 19.6777 23.9327 20.0601 23.9327H25.813C26.1954 23.9327 26.503 24.2403 26.503 24.6227C26.503 25.0051 26.1925 25.3127 25.813 25.3127Z" fill="url(#paint14_linear_1088_1084)"/>
<path d="M16.8259 25.5916C16.6419 25.5916 16.4665 25.5197 16.3371 25.3904L15.857 24.9102C15.5867 24.64 15.5867 24.203 15.857 23.9356C16.1244 23.6682 16.5556 23.6654 16.823 23.927L17.4469 23.3031C17.7171 23.0329 18.1541 23.0329 18.4215 23.3031C18.6917 23.5734 18.6917 24.0104 18.4215 24.2777L17.3117 25.3875C17.1824 25.5169 17.007 25.5916 16.8259 25.5916Z" fill="url(#paint15_linear_1088_1084)"/>
<path d="M25.813 29.0272H20.0601C19.6777 29.0272 19.3701 28.7196 19.3701 28.3372C19.3701 27.9549 19.6777 27.6472 20.0601 27.6472H25.813C26.1954 27.6472 26.503 27.9549 26.503 28.3372C26.503 28.7196 26.1925 29.0272 25.813 29.0272Z" fill="url(#paint16_linear_1088_1084)"/>
<path d="M16.8259 29.3061C16.6419 29.3061 16.4665 29.2342 16.3371 29.1049L15.857 28.6247C15.5867 28.3545 15.5867 27.9175 15.857 27.6501C16.1244 27.3827 16.5556 27.3799 16.823 27.6415L17.4469 27.0176C17.7171 26.7474 18.1541 26.7474 18.4215 27.0176C18.6917 27.2879 18.6917 27.7249 18.4215 27.9922L17.3117 29.102C17.1824 29.2314 17.007 29.3061 16.8259 29.3061Z" fill="url(#paint17_linear_1088_1084)"/>
<path d="M25.813 32.7417H20.0601C19.6777 32.7417 19.3701 32.4341 19.3701 32.0517C19.3701 31.6694 19.6777 31.3617 20.0601 31.3617H25.813C26.1954 31.3617 26.503 31.6694 26.503 32.0517C26.503 32.4341 26.1925 32.7417 25.813 32.7417Z" fill="url(#paint18_linear_1088_1084)"/>
<path d="M16.8259 33.0177C16.6505 33.0177 16.4722 32.9516 16.3371 32.8165L15.857 32.3364C15.5867 32.0661 15.5867 31.6291 15.857 31.3617C16.1244 31.0944 16.5556 31.0915 16.823 31.3531L17.4469 30.7292C17.7171 30.459 18.1541 30.459 18.4215 30.7292C18.6889 30.9995 18.6917 31.4365 18.4215 31.7039L17.3117 32.8136C17.1795 32.9516 17.0012 33.0177 16.8259 33.0177Z" fill="url(#paint19_linear_1088_1084)"/>
<rect x="0.587156" y="-0.587156" width="62.8257" height="62.8257" rx="8.80734" transform="matrix(1 0 0 -1 0 62.8257)" stroke="url(#paint20_linear_1088_1084)" stroke-width="1.17431"/>
<defs>
<linearGradient id="paint0_linear_1088_1084" x1="9.91992" y1="43.0664" x2="25.5684" y2="43.1458" gradientUnits="userSpaceOnUse">
<stop stop-color="#214F89"/>
<stop offset="1" stop-color="#12BCAB"/>
</linearGradient>
<linearGradient id="paint1_linear_1088_1084" x1="15.1924" y1="39.8316" x2="20.2897" y2="39.8545" gradientUnits="userSpaceOnUse">
<stop stop-color="#214F89"/>
<stop offset="1" stop-color="#12BCAB"/>
</linearGradient>
<linearGradient id="paint2_linear_1088_1084" x1="24.1797" y1="43.0664" x2="39.8281" y2="43.1458" gradientUnits="userSpaceOnUse">
<stop stop-color="#214F89"/>
<stop offset="1" stop-color="#12BCAB"/>
</linearGradient>
<linearGradient id="paint3_linear_1088_1084" x1="29.4521" y1="39.8316" x2="34.5494" y2="39.8545" gradientUnits="userSpaceOnUse">
<stop stop-color="#214F89"/>
<stop offset="1" stop-color="#12BCAB"/>
</linearGradient>
<linearGradient id="paint4_linear_1088_1084" x1="38.4395" y1="43.0664" x2="54.0879" y2="43.1458" gradientUnits="userSpaceOnUse">
<stop stop-color="#214F89"/>
<stop offset="1" stop-color="#12BCAB"/>
</linearGradient>
<linearGradient id="paint5_linear_1088_1084" x1="43.7119" y1="39.8316" x2="48.8092" y2="39.8545" gradientUnits="userSpaceOnUse">
<stop stop-color="#214F89"/>
<stop offset="1" stop-color="#12BCAB"/>
</linearGradient>
<linearGradient id="paint6_linear_1088_1084" x1="17.0498" y1="30.6119" x2="32.6982" y2="30.6913" gradientUnits="userSpaceOnUse">
<stop stop-color="#214F89"/>
<stop offset="1" stop-color="#12BCAB"/>
</linearGradient>
<linearGradient id="paint7_linear_1088_1084" x1="31.3096" y1="30.6119" x2="46.958" y2="30.6913" gradientUnits="userSpaceOnUse">
<stop stop-color="#214F89"/>
<stop offset="1" stop-color="#12BCAB"/>
</linearGradient>
<linearGradient id="paint8_linear_1088_1084" x1="36.582" y1="27.3771" x2="41.6793" y2="27.4" gradientUnits="userSpaceOnUse">
<stop stop-color="#214F89"/>
<stop offset="1" stop-color="#12BCAB"/>
</linearGradient>
<linearGradient id="paint9_linear_1088_1084" x1="16.5811" y1="15.3629" x2="25.5784" y2="15.4425" gradientUnits="userSpaceOnUse">
<stop stop-color="#214F89"/>
<stop offset="1" stop-color="#12BCAB"/>
</linearGradient>
<linearGradient id="paint10_linear_1088_1084" x1="12.7031" y1="22.547" x2="29.4621" y2="22.608" gradientUnits="userSpaceOnUse">
<stop stop-color="#214F89"/>
<stop offset="1" stop-color="#12BCAB"/>
</linearGradient>
<linearGradient id="paint11_linear_1088_1084" x1="18.3613" y1="13.6321" x2="23.7979" y2="13.667" gradientUnits="userSpaceOnUse">
<stop stop-color="#214F89"/>
<stop offset="1" stop-color="#12BCAB"/>
</linearGradient>
<linearGradient id="paint12_linear_1088_1084" x1="19.3701" y1="20.7291" x2="26.5032" y2="20.8946" gradientUnits="userSpaceOnUse">
<stop stop-color="#214F89"/>
<stop offset="1" stop-color="#12BCAB"/>
</linearGradient>
<linearGradient id="paint13_linear_1088_1084" x1="15.6543" y1="20.3082" x2="18.6258" y2="20.3241" gradientUnits="userSpaceOnUse">
<stop stop-color="#214F89"/>
<stop offset="1" stop-color="#12BCAB"/>
</linearGradient>
<linearGradient id="paint14_linear_1088_1084" x1="19.3701" y1="24.4436" x2="26.5032" y2="24.6091" gradientUnits="userSpaceOnUse">
<stop stop-color="#214F89"/>
<stop offset="1" stop-color="#12BCAB"/>
</linearGradient>
<linearGradient id="paint15_linear_1088_1084" x1="15.6543" y1="24.0227" x2="18.6258" y2="24.0386" gradientUnits="userSpaceOnUse">
<stop stop-color="#214F89"/>
<stop offset="1" stop-color="#12BCAB"/>
</linearGradient>
<linearGradient id="paint16_linear_1088_1084" x1="19.3701" y1="28.1581" x2="26.5032" y2="28.3236" gradientUnits="userSpaceOnUse">
<stop stop-color="#214F89"/>
<stop offset="1" stop-color="#12BCAB"/>
</linearGradient>
<linearGradient id="paint17_linear_1088_1084" x1="15.6543" y1="27.7372" x2="18.6258" y2="27.7531" gradientUnits="userSpaceOnUse">
<stop stop-color="#214F89"/>
<stop offset="1" stop-color="#12BCAB"/>
</linearGradient>
<linearGradient id="paint18_linear_1088_1084" x1="19.3701" y1="31.8727" x2="26.5032" y2="32.0381" gradientUnits="userSpaceOnUse">
<stop stop-color="#214F89"/>
<stop offset="1" stop-color="#12BCAB"/>
</linearGradient>
<linearGradient id="paint19_linear_1088_1084" x1="15.6543" y1="31.4489" x2="18.6247" y2="31.4647" gradientUnits="userSpaceOnUse">
<stop stop-color="#214F89"/>
<stop offset="1" stop-color="#12BCAB"/>
</linearGradient>
<linearGradient id="paint20_linear_1088_1084" x1="-9.95479e-09" y1="23.6946" x2="64.0349" y2="23.982" gradientUnits="userSpaceOnUse">
<stop stop-color="#214F89"/>
<stop offset="1" stop-color="#12BCAB"/>
</linearGradient>
</defs>
</svg>
