<svg width="64" height="64" viewBox="0 0 64 64" fill="none" xmlns="http://www.w3.org/2000/svg">
<path d="M38.7997 21.9113L44.7393 24.4067V28.7766L38.7997 26.2816V21.9113ZM45.1871 23.621L50.8649 21.2354L45.1871 18.8498L39.5136 21.2354L45.1871 23.621ZM25.1585 26.456H21.272V27.1033H25.1585V26.456ZM22.6407 17.5038H19.3455V21.5378H22.6407V17.5038ZM22.3492 14.8838C27.4186 9.81472 35.5172 9.57439 40.8697 14.1626L37.8576 14.2894C37.2608 14.3145 37.3092 15.2172 37.8956 15.1871L42.0652 15.0042C42.2612 14.9789 42.4227 14.7621 42.4159 14.5475L42.2427 10.4556C42.2342 10.2076 42.023 10.0158 41.778 10.0256C41.5288 10.0361 41.3387 10.2457 41.3471 10.4932L41.4739 13.4956C35.7664 8.58916 27.123 8.8401 21.7113 14.2483C21.5381 14.4241 21.5381 14.7084 21.7113 14.8837C21.8888 15.0594 22.1718 15.0594 22.3492 14.8838ZM25.1585 31.4178H21.272V32.0651H25.1585V31.4178ZM38.7997 41.8212L44.7393 44.3162V39.9463L38.7997 37.4513V41.8212ZM45.1871 34.3898L39.5136 36.7746L45.1871 39.161L50.8649 36.7746L45.1871 34.3898ZM45.6392 44.3162L51.5747 41.8212V37.4513L45.6392 39.9463V44.3162ZM45.6392 24.4067V28.7766L51.5747 26.2816V21.9113L45.6392 24.4067ZM29.5605 43.5203V19.9625C29.5605 19.3981 29.1043 18.9393 28.5382 18.9393H23.5405V20.2494H27.8031C28.0523 20.2494 28.2509 20.4504 28.2509 20.6984V42.7843C28.2509 43.0323 28.0523 43.2335 27.8031 43.2335H14.1831C13.9339 43.2335 13.7353 43.0324 13.7353 42.7843V20.6984C13.7353 20.4504 13.9339 20.2494 14.1831 20.2494H18.4457V18.9393H13.4481C12.882 18.9393 12.4258 19.3981 12.4258 19.9625V43.5202C12.4258 44.0842 12.882 44.5435 13.4481 44.5435H28.5382C29.1043 44.5435 29.5605 44.0843 29.5605 43.5203ZM18.4458 21.6925C18.4458 22.1027 18.7794 22.4361 19.1893 22.4361H22.7971C23.2069 22.4361 23.5406 22.1027 23.5406 21.6925V21.148H27.3554V42.3349H14.631V21.148H18.4458V21.6925ZM19.7047 35.3606C19.5272 35.1857 19.2442 35.1874 19.071 35.3639L17.3643 37.0893L16.6926 36.4189C16.277 36.0017 15.6377 36.6355 16.0589 37.0543L17.0474 38.0433C17.2244 38.2204 17.5094 38.2194 17.6853 38.0416L19.7089 35.996C19.8821 35.8194 19.8821 35.535 19.7047 35.3606ZM19.7047 30.3988C19.5272 30.2243 19.2442 30.2261 19.071 30.4021L17.3643 32.1275L16.6926 31.4575C16.277 31.0399 15.6379 31.6738 16.0589 32.0928L17.0474 33.0818C17.2235 33.258 17.5095 33.2578 17.6853 33.0801L19.7089 31.0342C19.8821 30.858 19.8821 30.5733 19.7047 30.3988ZM20.3763 27.1476C20.3763 27.6187 20.7608 28.0019 21.2297 28.0019H25.2051C25.6782 28.0019 26.0584 27.6187 26.0584 27.1476V26.4117C26.0584 25.9407 25.6782 25.5575 25.2051 25.5575H21.2297C20.7609 25.5575 20.3763 25.9407 20.3763 26.4117V27.1476ZM20.3763 32.1094C20.3763 32.5804 20.7608 32.9636 21.2297 32.9636H25.2051C25.6782 32.9636 26.0584 32.5804 26.0584 32.1094V31.373C26.0584 30.9024 25.6782 30.5192 25.2051 30.5192H21.2297C20.7609 30.5192 20.3763 30.9024 20.3763 31.373V32.1094ZM20.3763 37.0711C20.3763 37.5421 20.7608 37.9249 21.2297 37.9249H25.2051C25.6782 37.9249 26.0584 37.5421 26.0584 37.0711V36.3344C26.0584 35.8638 25.6782 35.4806 25.2051 35.4806H21.2297C20.7609 35.4806 20.3763 35.8638 20.3763 36.3344V37.0711ZM17.3643 27.1658L16.6926 26.4957C16.2768 26.0781 15.6379 26.7124 16.0589 27.1311L17.0474 28.1206C17.2233 28.2961 17.5098 28.2959 17.6853 28.1189L19.7089 26.0725C20.1237 25.6518 19.4853 25.0203 19.071 25.4409L17.3643 27.1658ZM25.1585 36.3795H21.272V37.0263H25.1585V36.3795ZM41.6512 49.1149C36.5818 54.1848 28.4833 54.4247 23.1265 49.836L26.1429 49.7097C26.3879 49.6986 26.5822 49.4895 26.5695 49.2416C26.5611 48.9944 26.3499 48.803 26.1049 48.8119L21.9352 48.9953L21.7113 49.1149C21.7113 49.1174 21.7071 49.1199 21.7071 49.1221C21.6464 49.1583 21.578 49.3386 21.5803 49.4515L21.7535 53.543C21.7632 53.7923 21.9696 53.9791 22.2225 53.9736C22.4717 53.9626 22.6619 53.7534 22.6534 53.5055L22.5266 50.5035C28.2453 55.4241 36.8644 55.1461 42.2849 49.7507C42.4623 49.575 42.4623 49.2911 42.2849 49.1149C42.1117 48.9395 41.8245 48.9395 41.6512 49.1149Z" fill="url(#paint0_linear_1069_9334)"/>
<rect x="0.587156" y="-0.587156" width="62.8257" height="62.8257" rx="8.80734" transform="matrix(1 0 0 -1 0 62.8257)" stroke="url(#paint1_linear_1069_9334)" stroke-width="1.17431"/>
<defs>
<linearGradient id="paint0_linear_1069_9334" x1="12.4258" y1="26.2887" x2="51.5962" y2="26.4451" gradientUnits="userSpaceOnUse">
<stop stop-color="#214F89"/>
<stop offset="1" stop-color="#12BCAB"/>
</linearGradient>
<linearGradient id="paint1_linear_1069_9334" x1="-9.95479e-09" y1="23.6946" x2="64.0349" y2="23.982" gradientUnits="userSpaceOnUse">
<stop stop-color="#214F89"/>
<stop offset="1" stop-color="#12BCAB"/>
</linearGradient>
</defs>
</svg>
