<svg width="36" height="36" viewBox="0 0 36 36" fill="none" xmlns="http://www.w3.org/2000/svg">
<rect width="36" height="36" rx="8" fill="white"/>
<path d="M18.1714 13.9514C19.3766 12.7199 20.9459 11.9143 22.7714 11.9143C24.6886 11.9143 26.5272 12.6759 27.8828 14.0315C29.2384 15.3871 30 17.2257 30 19.1429V29H27.3714V19.1429C27.3714 17.9229 26.8868 16.7528 26.0241 15.8902C25.1615 15.0275 23.9914 14.5429 22.7714 14.5429C21.5514 14.5429 20.3814 15.0275 19.5187 15.8902C18.6561 16.7528 18.1714 17.9229 18.1714 19.1429V29H15.5429V12.5714H18.1714V13.9514ZM8.97143 9.94286C8.44857 9.94286 7.94713 9.73515 7.57742 9.36544C7.2077 8.99572 7 8.49428 7 7.97143C7 7.44857 7.2077 6.94713 7.57742 6.57742C7.94713 6.2077 8.44857 6 8.97143 6C9.49428 6 9.99572 6.2077 10.3654 6.57742C10.7352 6.94713 10.9429 7.44857 10.9429 7.97143C10.9429 8.49428 10.7352 8.99572 10.3654 9.36544C9.99572 9.73515 9.49428 9.94286 8.97143 9.94286ZM7.65714 12.5714H10.2857V29H7.65714V12.5714Z" fill="url(#paint0_linear_1107_1713)"/>
<defs>
<linearGradient id="paint0_linear_1107_1713" x1="7" y1="14.5153" x2="30.0125" y2="14.6185" gradientUnits="userSpaceOnUse">
<stop stop-color="#214F89"/>
<stop offset="1" stop-color="#12BCAB"/>
</linearGradient>
</defs>
</svg>
