<svg width="24" height="24" viewBox="0 0 24 24" fill="none" xmlns="http://www.w3.org/2000/svg">
<path d="M4.70005 19.3C4.51672 19.1167 4.42505 18.8833 4.42505 18.6C4.42505 18.3167 4.51672 18.0833 4.70005 17.9L15.6 7H10C9.71672 7 9.47938 6.90433 9.28805 6.713C9.09605 6.521 9.00005 6.28333 9.00005 6C9.00005 5.71667 9.09605 5.479 9.28805 5.287C9.47938 5.09567 9.71672 5 10 5H18C18.2834 5 18.5207 5.09567 18.712 5.287C18.904 5.479 19 5.71667 19 6V14C19 14.2833 18.904 14.5207 18.712 14.712C18.5207 14.904 18.2834 15 18 15C17.7167 15 17.4794 14.904 17.288 14.712C17.096 14.5207 17 14.2833 17 14V8.4L6.07505 19.325C5.89172 19.5083 5.66672 19.6 5.40005 19.6C5.13338 19.6 4.90005 19.5 4.70005 19.3Z" fill="url(#paint0_linear_110_3395)"/>
<defs>
<linearGradient id="paint0_linear_110_3395" x1="4.42505" y1="10.4053" x2="19.008" y2="10.4707" gradientUnits="userSpaceOnUse">
<stop stop-color="#214F89"/>
<stop offset="1" stop-color="#12BCAB"/>
</linearGradient>
</defs>
</svg>
