<svg width="62" height="62" viewBox="0 0 62 62" fill="none" xmlns="http://www.w3.org/2000/svg">
<g clip-path="url(#clip0_190_1152)">
<path d="M31 13.0781C23.9536 13.0781 18.2209 18.8108 18.2209 25.8571C18.2209 31.5398 26.8301 42.8007 31.0012 48.0493C35.2385 42.7382 43.7791 31.6688 43.7791 25.8571C43.7791 18.8108 38.0464 13.0781 31 13.0781ZM31 35.3509C25.7651 35.3509 21.5063 31.092 21.5063 25.8571C21.5063 20.6223 25.7651 16.3634 31 16.3634C36.2349 16.3634 40.4937 20.6223 40.4937 25.8571C40.4937 31.092 36.2349 35.3509 31 35.3509ZM37.5875 25.8571C37.5875 29.4895 34.6323 32.4446 31 32.4446C27.3675 32.4446 24.4125 29.4895 24.4125 25.8571C24.4125 22.2247 27.3677 19.2696 31 19.2696C34.6325 19.2696 37.5875 22.2248 37.5875 25.8571ZM52.5071 0H9.4929C4.2585 0 0 4.2585 0 9.4929V52.5072C0 57.7415 4.2585 62 9.4929 62H52.5072C57.7415 62 62 57.7415 62 52.5071V9.4929C62 4.2585 57.7415 0 52.5071 0ZM40.9896 39.3908C37.9629 44.0211 34.4458 48.4032 32.3444 51.0214L32.1333 51.2843C31.8576 51.6281 31.4407 51.8281 30.9999 51.8281C30.5591 51.8281 30.1422 51.6281 29.8664 51.2843C23.0912 42.8395 15.3145 32.3176 15.3145 25.8571C15.3146 17.2083 22.3511 10.1719 31 10.1719C39.6489 10.1719 46.6854 17.2083 46.6854 25.8571C46.6854 29.1008 44.8224 33.5277 40.9896 39.3908Z" fill="white"/>
</g>
<defs>
<clipPath id="clip0_190_1152">
<rect width="62" height="62" fill="white"/>
</clipPath>
</defs>
</svg>
