<svg width="372" height="106" viewBox="0 0 372 106" fill="none" xmlns="http://www.w3.org/2000/svg">
<path fill-rule="evenodd" clip-rule="evenodd" d="M50.2304 15.7037C54.5668 15.7037 58.0822 12.1883 58.0822 7.85185C58.0822 3.51539 54.5668 0 50.2304 0C45.8939 0 42.3785 3.51539 42.3785 7.85185C42.3785 12.1883 45.8939 15.7037 50.2304 15.7037ZM39.0634 61.4756L44.5531 48.1571L46.3791 53.8052L49.3132 62.8811C50.4333 66.3457 55.2573 66.5513 56.6681 63.1945L59.6566 56.0836L61.2478 59.1827C61.9201 60.4921 63.2684 61.3154 64.7403 61.3154H84.9446C86.0989 63.7493 88.5786 65.4323 91.4514 65.4323C95.4265 65.4323 98.6489 62.2099 98.6489 58.2348C98.6489 54.2597 95.4265 51.0372 91.4514 51.0372C88.2266 51.0372 85.4972 53.158 84.5817 56.0809H65.5394L63.0306 51.1946C61.507 48.2273 57.2112 48.3917 55.9188 51.4668L53.2089 57.9147L51.3599 52.195L48.4373 43.1549C47.3132 39.6776 42.4648 39.4877 41.0721 42.8664L34.5577 58.6709H33.0944V41.3905C33.0944 39.538 34.164 37.9025 35.4004 36.523C36.8684 34.8849 38.7375 33.3789 40.9372 33.3789H58.1836C60.4021 33.3789 62.2821 34.8909 63.7667 36.5395C65.4906 38.4539 67.9885 39.6576 70.7676 39.6576C75.9691 39.6576 80.1858 35.4409 80.1858 30.2394C80.1858 25.0379 75.9691 20.8212 70.7676 20.8212C68.3656 20.8212 66.1736 21.7204 64.5098 23.2006C63.1138 24.4426 61.4587 25.5303 59.5901 25.5303H39.5619C37.6934 25.5303 36.0383 24.4426 34.6422 23.2006C32.9785 21.7205 30.7865 20.8213 28.3845 20.8213C23.183 20.8213 18.9663 25.038 18.9663 30.2395C18.9663 32.6417 19.8657 34.8339 21.346 36.4976C22.5883 37.8937 23.6762 39.549 23.6762 41.4177V58.6709H14.4115C13.3693 55.7356 10.7562 53.6543 7.69753 53.6543C3.72244 53.6543 0.5 57.1696 0.5 61.5061C0.5 65.8426 3.72244 69.358 7.69753 69.358C10.9055 69.358 13.6234 67.0684 14.5528 63.9055H23.6762V64.5825C23.6762 66.4512 22.5882 68.1065 21.346 69.5026C19.8656 71.1664 18.9662 73.3586 18.9662 75.7608C18.9662 80.9623 23.1829 85.179 28.3844 85.179C31.1636 85.179 33.6616 83.9753 35.3855 82.0607C36.8701 80.412 38.7502 78.8999 40.9687 78.8999H58.1833C60.4018 78.8999 62.282 80.412 63.7665 82.0607C65.4904 83.9753 67.9884 85.179 70.7676 85.179C75.9691 85.179 80.1858 80.9623 80.1858 75.7608C80.1858 70.5593 75.9691 66.3426 70.7676 66.3426C67.9886 66.3426 65.4907 67.5462 63.7668 69.4606C62.2823 71.1091 60.4022 72.6211 58.1838 72.6211H40.9366C38.7371 72.6211 36.8682 71.1152 35.4002 69.4773C34.1639 68.0978 33.0944 66.4624 33.0944 64.61V63.9055H35.4337C37.0241 63.9055 38.4573 62.946 39.0634 61.4756ZM58.0822 98.1482C58.0822 102.485 54.5668 106 50.2304 106C45.8939 106 42.3785 102.485 42.3785 98.1482C42.3785 93.8118 45.8939 90.2964 50.2304 90.2964C54.5668 90.2964 58.0822 93.8118 58.0822 98.1482Z" fill="white"/>
<path d="M128.386 62.0312V16.4181H148.884V23.2882H138.466V34.6071H146.406V41.5898H138.466V55.2174H148.997V62.0312H128.386ZM153.742 62.0312V16.4181H163.822V34.8886H170.861V16.4181H180.997V62.0312H170.861V42.0966H163.822V62.0312H153.742ZM187.943 62.0312V16.4181H200.501C203.58 16.4181 206.245 16.756 208.498 17.4317C210.75 18.1075 212.496 19.3276 213.735 21.0921C215.011 22.819 215.649 25.278 215.649 28.469C215.649 30.3461 215.499 32.0167 215.199 33.4808C214.898 34.9449 214.335 36.2214 213.509 37.3101C212.721 38.3612 211.576 39.2435 210.074 39.9567L216.325 62.0312H205.907L200.895 41.5898H198.023V62.0312H187.943ZM198.023 35.7896H200.839C202.266 35.7896 203.373 35.5456 204.161 35.0576C204.95 34.532 205.494 33.7999 205.795 32.8614C206.132 31.8853 206.301 30.7215 206.301 29.37C206.301 27.4178 205.945 25.8974 205.231 24.8087C204.518 23.72 203.204 23.1756 201.29 23.1756H198.023V35.7896ZM236.117 62.0312V16.4181H246.197V55.2174H256.671V62.0312H236.117ZM273.433 62.707C270.017 62.707 267.314 62.1063 265.324 60.905C263.335 59.7037 261.908 57.9767 261.045 55.7242C260.181 53.4717 259.749 50.7875 259.749 47.6716V30.7215C259.749 27.568 260.181 24.8838 261.045 22.6688C261.908 20.4539 263.335 18.7645 265.324 17.6007C267.314 16.3994 270.017 15.7987 273.433 15.7987C276.887 15.7987 279.609 16.3994 281.599 17.6007C283.626 18.7645 285.071 20.4539 285.935 22.6688C286.798 24.8838 287.23 27.568 287.23 30.7215V47.6716C287.23 50.7875 286.798 53.4717 285.935 55.7242C285.071 57.9767 283.626 59.7037 281.599 60.905C279.609 62.1063 276.887 62.707 273.433 62.707ZM273.433 55.5553C274.484 55.5553 275.254 55.2925 275.742 54.7669C276.23 54.2414 276.549 53.5656 276.699 52.7397C276.85 51.9138 276.925 51.0691 276.925 50.2056V28.2437C276.925 27.3427 276.85 26.4981 276.699 25.7097C276.549 24.8838 276.23 24.208 275.742 23.6824C275.254 23.1569 274.484 22.8941 273.433 22.8941C272.457 22.8941 271.725 23.1569 271.237 23.6824C270.749 24.208 270.43 24.8838 270.28 25.7097C270.13 26.4981 270.055 27.3427 270.055 28.2437V50.2056C270.055 51.0691 270.111 51.9138 270.224 52.7397C270.374 53.5656 270.674 54.2414 271.125 54.7669C271.613 55.2925 272.382 55.5553 273.433 55.5553ZM305.246 62.707C302.093 62.707 299.596 62.05 297.757 60.7361C295.955 59.4221 294.66 57.5826 293.871 55.2174C293.12 52.8148 292.745 50.0555 292.745 46.9395V31.6225C292.745 28.3939 293.158 25.5971 293.984 23.2319C294.81 20.8668 296.218 19.046 298.207 17.7696C300.235 16.4557 302.975 15.7987 306.429 15.7987C309.808 15.7987 312.454 16.3618 314.369 17.4881C316.321 18.6143 317.71 20.1723 318.536 22.162C319.362 24.1517 319.775 26.4793 319.775 29.1447V32.073H309.92V28.3564C309.92 27.3803 309.845 26.4793 309.695 25.6534C309.582 24.8275 309.282 24.1705 308.794 23.6824C308.344 23.1569 307.593 22.8941 306.542 22.8941C305.453 22.8941 304.664 23.1944 304.176 23.7951C303.688 24.3582 303.369 25.0715 303.219 25.9349C303.107 26.7984 303.05 27.6994 303.05 28.6379V49.7551C303.05 50.7687 303.144 51.7261 303.332 52.6271C303.557 53.4905 303.932 54.2038 304.458 54.7669C305.021 55.2925 305.81 55.5553 306.823 55.5553C307.874 55.5553 308.681 55.2737 309.245 54.7106C309.808 54.1475 310.202 53.4154 310.427 52.5144C310.652 51.6134 310.765 50.6561 310.765 49.6425V44.2928H306.654V38.38H319.831V62.0312H313.186L312.623 58.2583C312.023 59.5347 311.14 60.6047 309.977 61.4681C308.813 62.294 307.236 62.707 305.246 62.707ZM326.196 62.0312V16.4181H336.276V62.0312H326.196ZM356.142 62.707C352.688 62.707 349.948 62.0876 347.921 60.8487C345.931 59.5723 344.523 57.8078 343.697 55.5553C342.871 53.2653 342.458 50.581 342.458 47.5026V31.0594C342.458 27.9059 342.871 25.2029 343.697 22.9504C344.523 20.6603 345.931 18.8959 347.921 17.657C349.948 16.4181 352.688 15.7987 356.142 15.7987C359.521 15.7987 362.149 16.3618 364.026 17.4881C365.941 18.5768 367.292 20.116 368.081 22.1057C368.869 24.0954 369.263 26.3854 369.263 28.9758V32.9177H359.408V28.3564C359.408 27.4554 359.352 26.5919 359.24 25.766C359.164 24.9401 358.902 24.2643 358.451 23.7387C358.001 23.1756 357.231 22.8941 356.142 22.8941C355.091 22.8941 354.303 23.1756 353.777 23.7387C353.289 24.3019 352.97 25.0152 352.82 25.8786C352.707 26.7045 352.651 27.5868 352.651 28.5253V49.9804C352.651 50.994 352.726 51.9325 352.876 52.796C353.064 53.6219 353.402 54.2977 353.89 54.8232C354.415 55.3113 355.166 55.5553 356.142 55.5553C357.193 55.5553 357.944 55.2925 358.395 54.7669C358.845 54.2038 359.127 53.4905 359.24 52.6271C359.352 51.7636 359.408 50.8814 359.408 49.9804V45.1938H369.263V49.1357C369.263 51.7261 368.869 54.0536 368.081 56.1184C367.33 58.1457 365.997 59.76 364.082 60.9613C362.205 62.1251 359.559 62.707 356.142 62.707Z" fill="white"/>
<path d="M127.679 87.9375V71.168H134.159V72.8449H130.019V78.4348H133.228V80.091H130.019V87.9375H127.679ZM138.872 88.1031C137.989 88.1031 137.292 87.9237 136.781 87.5648C136.27 87.206 135.904 86.6953 135.684 86.0328C135.477 85.3703 135.373 84.5905 135.373 83.6934V80.2152C135.373 79.3181 135.477 78.5383 135.684 77.8758C135.904 77.2133 136.27 76.7026 136.781 76.3437C137.292 75.9849 137.989 75.8055 138.872 75.8055C139.755 75.8055 140.445 75.9849 140.942 76.3437C141.453 76.7026 141.812 77.2133 142.019 77.8758C142.24 78.5383 142.35 79.3181 142.35 80.2152V83.6934C142.35 84.5905 142.24 85.3703 142.019 86.0328C141.812 86.6953 141.453 87.206 140.942 87.5648C140.445 87.9237 139.755 88.1031 138.872 88.1031ZM138.872 86.4676C139.3 86.4676 139.597 86.3434 139.762 86.0949C139.942 85.8465 140.045 85.5221 140.073 85.1219C140.114 84.7078 140.135 84.2799 140.135 83.8383V80.091C140.135 79.6355 140.114 79.2077 140.073 78.8074C140.045 78.4072 139.942 78.0828 139.762 77.8344C139.597 77.5721 139.3 77.441 138.872 77.441C138.444 77.441 138.14 77.5721 137.961 77.8344C137.782 78.0828 137.671 78.4072 137.63 78.8074C137.602 79.2077 137.588 79.6355 137.588 80.091V83.8383C137.588 84.2799 137.602 84.7078 137.63 85.1219C137.671 85.5221 137.782 85.8465 137.961 86.0949C138.14 86.3434 138.444 86.4676 138.872 86.4676ZM144.437 87.9375V75.9711H146.652V77.6687C147.094 76.9372 147.536 76.4473 147.977 76.1988C148.419 75.9504 148.861 75.8262 149.302 75.8262C149.357 75.8262 149.406 75.8262 149.447 75.8262C149.502 75.8262 149.571 75.8331 149.654 75.8469V78.2898C149.489 78.2208 149.295 78.1656 149.075 78.1242C148.867 78.069 148.654 78.0414 148.433 78.0414C148.088 78.0414 147.77 78.1242 147.48 78.2898C147.204 78.4417 146.928 78.7453 146.652 79.2008V87.9375H144.437ZM155.944 87.9375V71.168H159.795C160.554 71.168 161.209 71.2508 161.761 71.4164C162.327 71.582 162.797 71.8374 163.169 72.1824C163.542 72.5275 163.818 72.9691 163.997 73.5074C164.177 74.0319 164.267 74.653 164.267 75.3707C164.267 76.0608 164.177 76.6612 163.997 77.1719C163.832 77.6687 163.57 78.0621 163.211 78.352C162.866 78.6418 162.417 78.8281 161.865 78.9109C162.541 79.0628 163.086 79.325 163.501 79.6977C163.915 80.0565 164.218 80.5258 164.411 81.1055C164.619 81.6714 164.722 82.3546 164.722 83.1551C164.722 83.8728 164.639 84.5284 164.474 85.1219C164.308 85.7154 164.046 86.2191 163.687 86.6332C163.342 87.0473 162.893 87.3716 162.341 87.6062C161.803 87.8271 161.161 87.9375 160.416 87.9375H155.944ZM158.283 86.2605H159.857C160.906 86.2605 161.603 86.019 161.948 85.5359C162.307 85.0391 162.486 84.2454 162.486 83.1551C162.486 82.4512 162.389 81.8646 162.196 81.3953C162.017 80.9122 161.72 80.5534 161.306 80.3187C160.906 80.0703 160.361 79.9461 159.67 79.9461H158.283V86.2605ZM158.283 78.1656H159.67C160.333 78.1656 160.851 78.0759 161.223 77.8965C161.596 77.7033 161.858 77.3996 162.01 76.9855C162.162 76.5715 162.238 76.0332 162.238 75.3707C162.238 74.5978 162.12 74.0388 161.886 73.6937C161.651 73.3487 161.285 73.1348 160.788 73.052C160.292 72.9553 159.643 72.907 158.842 72.907H158.283V78.1656ZM169.927 88.1031C168.989 88.1031 168.264 87.9237 167.753 87.5648C167.243 87.1922 166.884 86.6539 166.677 85.95C166.483 85.2323 166.387 84.3559 166.387 83.3207V80.5879C166.387 79.5251 166.49 78.6418 166.697 77.9379C166.904 77.234 167.263 76.7026 167.774 76.3437C168.298 75.9849 169.016 75.8055 169.927 75.8055C170.935 75.8055 171.673 76.0125 172.142 76.4266C172.625 76.8406 172.943 77.441 173.095 78.2277C173.246 79.0007 173.322 79.9323 173.322 81.0227V81.9957H168.602V84.3973C168.602 84.8803 168.644 85.2737 168.726 85.5773C168.823 85.881 168.968 86.1087 169.161 86.2605C169.368 86.3986 169.63 86.4676 169.948 86.4676C170.279 86.4676 170.527 86.3917 170.693 86.2398C170.873 86.0742 170.99 85.8465 171.045 85.5566C171.114 85.253 171.149 84.901 171.149 84.5008V83.7762H173.302V84.2316C173.302 85.4324 173.046 86.3779 172.536 87.068C172.025 87.7581 171.155 88.1031 169.927 88.1031ZM168.602 80.7949H171.149V79.7184C171.149 79.2215 171.121 78.8074 171.066 78.4762C171.011 78.1311 170.893 77.8758 170.714 77.7102C170.548 77.5307 170.279 77.441 169.906 77.441C169.548 77.441 169.271 77.5238 169.078 77.6895C168.899 77.8551 168.775 78.138 168.706 78.5383C168.637 78.9247 168.602 79.463 168.602 80.1531V80.7949ZM178.517 88.1031C177.896 88.1031 177.392 87.9858 177.005 87.7512C176.633 87.5165 176.357 87.1853 176.177 86.7574C176.012 86.3296 175.929 85.8258 175.929 85.2461V77.441H174.666V75.9711H175.929V72.4723H178.144V75.9711H180.07V77.441H178.144V85.1012C178.144 85.5704 178.22 85.9086 178.372 86.1156C178.524 86.3089 178.814 86.4055 179.241 86.4055C179.352 86.4055 179.476 86.3986 179.614 86.3848C179.766 86.371 179.911 86.3572 180.049 86.3434V87.9789C179.773 88.0203 179.517 88.0479 179.283 88.0617C179.048 88.0893 178.793 88.1031 178.517 88.1031ZM184.885 88.1031C184.264 88.1031 183.761 87.9858 183.374 87.7512C183.001 87.5165 182.725 87.1853 182.546 86.7574C182.38 86.3296 182.298 85.8258 182.298 85.2461V77.441H181.035V75.9711H182.298V72.4723H184.513V75.9711H186.438V77.441H184.513V85.1012C184.513 85.5704 184.589 85.9086 184.741 86.1156C184.892 86.3089 185.182 86.4055 185.61 86.4055C185.72 86.4055 185.845 86.3986 185.983 86.3848C186.135 86.371 186.279 86.3572 186.417 86.3434V87.9789C186.141 88.0203 185.886 88.0479 185.651 88.0617C185.417 88.0893 185.161 88.1031 184.885 88.1031ZM191.378 88.1031C190.44 88.1031 189.715 87.9237 189.204 87.5648C188.694 87.1922 188.335 86.6539 188.128 85.95C187.935 85.2323 187.838 84.3559 187.838 83.3207V80.5879C187.838 79.5251 187.942 78.6418 188.149 77.9379C188.356 77.234 188.714 76.7026 189.225 76.3437C189.75 75.9849 190.467 75.8055 191.378 75.8055C192.386 75.8055 193.124 76.0125 193.594 76.4266C194.077 76.8406 194.394 77.441 194.546 78.2277C194.698 79.0007 194.774 79.9323 194.774 81.0227V81.9957H190.053V84.3973C190.053 84.8803 190.095 85.2737 190.178 85.5773C190.274 85.881 190.419 86.1087 190.612 86.2605C190.819 86.3986 191.082 86.4676 191.399 86.4676C191.73 86.4676 191.979 86.3917 192.144 86.2398C192.324 86.0742 192.441 85.8465 192.496 85.5566C192.565 85.253 192.6 84.901 192.6 84.5008V83.7762H194.753V84.2316C194.753 85.4324 194.498 86.3779 193.987 87.068C193.476 87.7581 192.607 88.1031 191.378 88.1031ZM190.053 80.7949H192.6V79.7184C192.6 79.2215 192.572 78.8074 192.517 78.4762C192.462 78.1311 192.344 77.8758 192.165 77.7102C191.999 77.5307 191.73 77.441 191.358 77.441C190.999 77.441 190.723 77.5238 190.529 77.6895C190.35 77.8551 190.226 78.138 190.157 78.5383C190.088 78.9247 190.053 79.463 190.053 80.1531V80.7949ZM196.842 87.9375V75.9711H199.057V77.6687C199.499 76.9372 199.94 76.4473 200.382 76.1988C200.824 75.9504 201.265 75.8262 201.707 75.8262C201.762 75.8262 201.811 75.8262 201.852 75.8262C201.907 75.8262 201.976 75.8331 202.059 75.8469V78.2898C201.893 78.2208 201.7 78.1656 201.479 78.1242C201.272 78.069 201.058 78.0414 200.838 78.0414C200.492 78.0414 200.175 78.1242 199.885 78.2898C199.609 78.4417 199.333 78.7453 199.057 79.2008V87.9375H196.842ZM203.431 87.9375V75.9711H205.481V77.1098C205.881 76.6543 206.323 76.3161 206.806 76.0953C207.289 75.8745 207.786 75.7641 208.297 75.7641C208.738 75.7641 209.132 75.8745 209.477 76.0953C209.836 76.3161 210.091 76.7095 210.243 77.2754C210.671 76.7509 211.133 76.3714 211.63 76.1367C212.14 75.8883 212.672 75.7641 213.224 75.7641C213.61 75.7641 213.962 75.8607 214.28 76.0539C214.597 76.2333 214.853 76.5301 215.046 76.9441C215.239 77.3444 215.336 77.8758 215.336 78.5383V87.9375H213.307V78.6832C213.307 78.1035 213.21 77.7171 213.017 77.5238C212.838 77.3168 212.589 77.2133 212.272 77.2133C211.968 77.2133 211.651 77.303 211.319 77.4824C210.988 77.648 210.684 77.8827 210.408 78.1863C210.408 78.2415 210.408 78.2967 210.408 78.352C210.408 78.4072 210.408 78.4693 210.408 78.5383V87.9375H208.379V78.6832C208.379 78.1035 208.283 77.7171 208.09 77.5238C207.91 77.3168 207.662 77.2133 207.344 77.2133C207.041 77.2133 206.723 77.303 206.392 77.4824C206.074 77.648 205.771 77.8827 205.481 78.1863V87.9375H203.431ZM220.816 88.1031C219.877 88.1031 219.152 87.9237 218.642 87.5648C218.131 87.1922 217.772 86.6539 217.565 85.95C217.372 85.2323 217.275 84.3559 217.275 83.3207V80.5879C217.275 79.5251 217.379 78.6418 217.586 77.9379C217.793 77.234 218.152 76.7026 218.662 76.3437C219.187 75.9849 219.905 75.8055 220.816 75.8055C221.823 75.8055 222.562 76.0125 223.031 76.4266C223.514 76.8406 223.831 77.441 223.983 78.2277C224.135 79.0007 224.211 79.9323 224.211 81.0227V81.9957H219.491V84.3973C219.491 84.8803 219.532 85.2737 219.615 85.5773C219.711 85.881 219.856 86.1087 220.05 86.2605C220.257 86.3986 220.519 86.4676 220.836 86.4676C221.167 86.4676 221.416 86.3917 221.582 86.2398C221.761 86.0742 221.878 85.8465 221.934 85.5566C222.003 85.253 222.037 84.901 222.037 84.5008V83.7762H224.19V84.2316C224.19 85.4324 223.935 86.3779 223.424 87.068C222.913 87.7581 222.044 88.1031 220.816 88.1031ZM219.491 80.7949H222.037V79.7184C222.037 79.2215 222.009 78.8074 221.954 78.4762C221.899 78.1311 221.782 77.8758 221.602 77.7102C221.437 77.5307 221.167 77.441 220.795 77.441C220.436 77.441 220.16 77.5238 219.967 77.6895C219.787 77.8551 219.663 78.138 219.594 78.5383C219.525 78.9247 219.491 79.463 219.491 80.1531V80.7949ZM226.217 87.9375V75.9711H228.432V77.1512C228.832 76.7785 229.274 76.4611 229.757 76.1988C230.24 75.9366 230.772 75.8055 231.351 75.8055C231.834 75.8055 232.2 75.9297 232.449 76.1781C232.711 76.4266 232.89 76.7371 232.987 77.1098C233.097 77.4824 233.152 77.862 233.152 78.2484V87.9375H230.937V78.8902C230.937 78.4624 230.875 78.1311 230.751 77.8965C230.627 77.6618 230.371 77.5445 229.985 77.5445C229.736 77.5445 229.474 77.6204 229.198 77.7723C228.936 77.9103 228.681 78.0828 228.432 78.2898V87.9375H226.217ZM238.503 88.1031C237.882 88.1031 237.378 87.9858 236.992 87.7512C236.619 87.5165 236.343 87.1853 236.164 86.7574C235.998 86.3296 235.915 85.8258 235.915 85.2461V77.441H234.653V75.9711H235.915V72.4723H238.131V75.9711H240.056V77.441H238.131V85.1012C238.131 85.5704 238.207 85.9086 238.358 86.1156C238.51 86.3089 238.8 86.4055 239.228 86.4055C239.338 86.4055 239.463 86.3986 239.601 86.3848C239.752 86.371 239.897 86.3572 240.035 86.3434V87.9789C239.759 88.0203 239.504 88.0479 239.269 88.0617C239.035 88.0893 238.779 88.1031 238.503 88.1031ZM250.887 88.1238C249.755 88.1238 248.851 87.903 248.174 87.4613C247.498 87.0197 247.015 86.3917 246.725 85.5773C246.435 84.7492 246.29 83.7831 246.29 82.6789V76.323C246.29 75.2189 246.435 74.2734 246.725 73.4867C247.029 72.6862 247.512 72.0789 248.174 71.6648C248.851 71.237 249.755 71.023 250.887 71.023C252.018 71.023 252.915 71.237 253.578 71.6648C254.24 72.0927 254.717 72.7 255.006 73.4867C255.31 74.2734 255.462 75.2189 255.462 76.323V82.6996C255.462 83.79 255.31 84.7423 255.006 85.5566C254.717 86.371 254.24 87.0059 253.578 87.4613C252.915 87.903 252.018 88.1238 250.887 88.1238ZM250.887 86.2812C251.508 86.2812 251.977 86.157 252.294 85.9086C252.612 85.6464 252.826 85.2875 252.936 84.832C253.047 84.3628 253.102 83.8176 253.102 83.1965V75.8469C253.102 75.2258 253.047 74.6944 252.936 74.2527C252.826 73.7973 252.612 73.4522 252.294 73.2176C251.977 72.9691 251.508 72.8449 250.887 72.8449C250.265 72.8449 249.789 72.9691 249.458 73.2176C249.141 73.4522 248.927 73.7973 248.816 74.2527C248.706 74.6944 248.651 75.2258 248.651 75.8469V83.1965C248.651 83.8176 248.706 84.3628 248.816 84.832C248.927 85.2875 249.141 85.6464 249.458 85.9086C249.789 86.157 250.265 86.2812 250.887 86.2812ZM258.279 87.9375V77.6066H256.85V75.9711H258.279V75.35C258.279 74.6047 258.334 73.9698 258.444 73.4453C258.569 72.907 258.817 72.493 259.19 72.2031C259.562 71.9133 260.121 71.7684 260.867 71.7684C261.143 71.7684 261.384 71.7822 261.591 71.8098C261.812 71.8236 262.054 71.8581 262.316 71.9133V73.5281C262.192 73.5005 262.054 73.4798 261.902 73.466C261.75 73.4384 261.612 73.4246 261.488 73.4246C261.06 73.4246 260.784 73.5695 260.66 73.8594C260.549 74.1354 260.494 74.5081 260.494 74.9773V75.9711H262.316V77.6066H260.494V87.9375H258.279ZM268.436 87.9375V71.168H272.598C273.605 71.168 274.406 71.3543 274.999 71.727C275.606 72.0858 276.048 72.6103 276.324 73.3004C276.6 73.9905 276.738 74.8255 276.738 75.8055C276.738 76.6888 276.58 77.4548 276.262 78.1035C275.958 78.7522 275.503 79.256 274.896 79.6148C274.288 79.9599 273.529 80.1324 272.618 80.1324H270.776V87.9375H268.436ZM270.776 78.4555H271.852C272.529 78.4555 273.06 78.3796 273.446 78.2277C273.833 78.0759 274.109 77.8137 274.275 77.441C274.44 77.0546 274.523 76.5163 274.523 75.8262C274.523 75.0257 274.461 74.4115 274.337 73.9836C274.226 73.5557 273.985 73.259 273.612 73.0934C273.239 72.9277 272.66 72.8449 271.873 72.8449H270.776V78.4555ZM279.916 88.1031C279.446 88.1031 279.08 87.9789 278.818 87.7305C278.556 87.482 278.37 87.1715 278.259 86.7988C278.163 86.4262 278.114 86.0466 278.114 85.6602V75.9711H280.33V84.9977C280.33 85.4255 280.392 85.7637 280.516 86.0121C280.64 86.2467 280.895 86.3641 281.282 86.3641C281.53 86.3641 281.786 86.2951 282.048 86.157C282.324 86.0052 282.586 85.8258 282.835 85.6187V75.9711H285.05V87.9375H282.835V86.7574C282.448 87.1301 282.007 87.4475 281.51 87.7098C281.027 87.972 280.495 88.1031 279.916 88.1031ZM291.601 88.1031C291.173 88.1031 290.787 87.9996 290.442 87.7926C290.11 87.5717 289.821 87.3302 289.572 87.068V87.9375H287.357V71.168H289.572V76.9234C289.834 76.6198 290.145 76.3576 290.504 76.1367C290.876 75.9159 291.318 75.8055 291.829 75.8055C292.45 75.8055 292.94 75.9711 293.299 76.3023C293.671 76.6198 293.947 77.027 294.127 77.5238C294.306 78.0069 294.424 78.5038 294.479 79.0145C294.534 79.5113 294.562 79.9392 294.562 80.298V83.1965C294.562 84.0384 294.479 84.8389 294.313 85.598C294.147 86.3434 293.851 86.9507 293.423 87.4199C292.995 87.8754 292.388 88.1031 291.601 88.1031ZM291.146 86.3641C291.532 86.3641 291.808 86.226 291.974 85.95C292.139 85.6602 292.243 85.2737 292.284 84.7906C292.326 84.3076 292.346 83.7762 292.346 83.1965V80.298C292.346 79.8012 292.319 79.3457 292.263 78.9316C292.208 78.5038 292.091 78.1656 291.912 77.9172C291.732 77.6687 291.449 77.5445 291.063 77.5445C290.773 77.5445 290.497 77.6066 290.235 77.7309C289.986 77.8551 289.765 77.9931 289.572 78.1449V85.8258C289.765 85.9776 289.993 86.1087 290.255 86.2191C290.531 86.3158 290.828 86.3641 291.146 86.3641ZM296.782 87.9375V71.168H298.997V87.9375H296.782ZM301.451 87.9375V75.9711H303.666V87.9375H301.451ZM301.451 74.1906V71.8719H303.666V74.1906H301.451ZM309.308 88.1031C308.328 88.1031 307.583 87.9099 307.072 87.5234C306.575 87.1232 306.237 86.5642 306.058 85.8465C305.892 85.1288 305.809 84.2937 305.809 83.3414V80.5879C305.809 79.5803 305.899 78.7246 306.079 78.0207C306.258 77.303 306.596 76.7578 307.093 76.3852C307.604 75.9987 308.342 75.8055 309.308 75.8055C310.178 75.8055 310.847 75.9504 311.317 76.2402C311.8 76.5163 312.131 76.9372 312.31 77.5031C312.49 78.0552 312.579 78.7453 312.579 79.5734V80.2773H310.571V79.5527C310.571 79.0283 310.537 78.6142 310.468 78.3105C310.399 78.0069 310.274 77.7861 310.095 77.648C309.916 77.51 309.66 77.441 309.329 77.441C308.97 77.441 308.694 77.5238 308.501 77.6895C308.308 77.8551 308.177 78.138 308.108 78.5383C308.052 78.9247 308.025 79.4561 308.025 80.1324V83.9004C308.025 84.9217 308.121 85.6049 308.315 85.95C308.508 86.2951 308.853 86.4676 309.35 86.4676C309.722 86.4676 309.992 86.3848 310.157 86.2191C310.337 86.0397 310.447 85.7913 310.488 85.4738C310.544 85.1564 310.571 84.7975 310.571 84.3973V83.4242H312.579V84.2523C312.579 85.0529 312.483 85.743 312.29 86.3227C312.11 86.9023 311.779 87.344 311.296 87.6477C310.827 87.9513 310.164 88.1031 309.308 88.1031ZM319.466 87.9375V71.168H321.806V78.4141H326.112V71.168H328.451V87.9375H326.112V80.091H321.806V87.9375H319.466ZM334.197 88.1031C333.259 88.1031 332.534 87.9237 332.024 87.5648C331.513 87.1922 331.154 86.6539 330.947 85.95C330.754 85.2323 330.657 84.3559 330.657 83.3207V80.5879C330.657 79.5251 330.761 78.6418 330.968 77.9379C331.175 77.234 331.534 76.7026 332.044 76.3437C332.569 75.9849 333.287 75.8055 334.197 75.8055C335.205 75.8055 335.943 76.0125 336.413 76.4266C336.896 76.8406 337.213 77.441 337.365 78.2277C337.517 79.0007 337.593 79.9323 337.593 81.0227V81.9957H332.872V84.3973C332.872 84.8803 332.914 85.2737 332.997 85.5773C333.093 85.881 333.238 86.1087 333.431 86.2605C333.639 86.3986 333.901 86.4676 334.218 86.4676C334.549 86.4676 334.798 86.3917 334.964 86.2398C335.143 86.0742 335.26 85.8465 335.315 85.5566C335.384 85.253 335.419 84.901 335.419 84.5008V83.7762H337.572V84.2316C337.572 85.4324 337.317 86.3779 336.806 87.068C336.295 87.7581 335.426 88.1031 334.197 88.1031ZM332.872 80.7949H335.419V79.7184C335.419 79.2215 335.391 78.8074 335.336 78.4762C335.281 78.1311 335.164 77.8758 334.984 77.7102C334.819 77.5307 334.549 77.441 334.177 77.441C333.818 77.441 333.542 77.5238 333.349 77.6895C333.169 77.8551 333.045 78.138 332.976 78.5383C332.907 78.9247 332.872 79.463 332.872 80.1531V80.7949ZM341.752 88.1031C341.283 88.1031 340.869 87.972 340.51 87.7098C340.151 87.4337 339.868 87.0887 339.661 86.6746C339.454 86.2467 339.35 85.7982 339.35 85.3289C339.35 84.5836 339.475 83.9556 339.723 83.4449C339.972 82.9342 340.31 82.5064 340.738 82.1613C341.179 81.8025 341.683 81.4919 342.249 81.2297C342.829 80.9674 343.436 80.7121 344.071 80.4637V79.6148C344.071 79.1318 344.043 78.7315 343.988 78.4141C343.933 78.0966 343.815 77.862 343.636 77.7102C343.47 77.5445 343.215 77.4617 342.87 77.4617C342.566 77.4617 342.318 77.5307 342.125 77.6687C341.945 77.8068 341.814 78.0069 341.731 78.2691C341.649 78.5176 341.607 78.8143 341.607 79.1594V79.7598L339.413 79.677C339.44 78.352 339.744 77.3789 340.324 76.7578C340.903 76.1229 341.8 75.8055 343.015 75.8055C344.202 75.8055 345.044 76.1298 345.541 76.7785C346.038 77.4272 346.286 78.3658 346.286 79.5941V85.0598C346.286 85.4324 346.293 85.7913 346.307 86.1363C346.334 86.4814 346.362 86.8057 346.39 87.1094C346.431 87.3992 346.465 87.6753 346.493 87.9375H344.464C344.423 87.7167 344.368 87.4406 344.299 87.1094C344.243 86.7643 344.202 86.4538 344.174 86.1777C344.036 86.647 343.767 87.0887 343.367 87.5027C342.98 87.903 342.442 88.1031 341.752 88.1031ZM342.622 86.1984C342.842 86.1984 343.049 86.1363 343.243 86.0121C343.436 85.8879 343.608 85.7499 343.76 85.598C343.912 85.4324 344.016 85.3013 344.071 85.2047V81.8094C343.726 82.0026 343.401 82.1958 343.098 82.3891C342.794 82.5823 342.525 82.7893 342.29 83.0102C342.069 83.2172 341.89 83.4587 341.752 83.7348C341.628 83.997 341.566 84.3007 341.566 84.6457C341.566 85.1288 341.655 85.5083 341.835 85.7844C342.014 86.0604 342.277 86.1984 342.622 86.1984ZM348.621 87.9375V71.168H350.836V87.9375H348.621ZM356.333 88.1031C355.712 88.1031 355.208 87.9858 354.822 87.7512C354.449 87.5165 354.173 87.1853 353.994 86.7574C353.828 86.3296 353.745 85.8258 353.745 85.2461V77.441H352.482V75.9711H353.745V72.4723H355.961V75.9711H357.886V77.441H355.961V85.1012C355.961 85.5704 356.036 85.9086 356.188 86.1156C356.34 86.3089 356.63 86.4055 357.058 86.4055C357.168 86.4055 357.292 86.3986 357.43 86.3848C357.582 86.371 357.727 86.3572 357.865 86.3434V87.9789C357.589 88.0203 357.334 88.0479 357.099 88.0617C356.865 88.0893 356.609 88.1031 356.333 88.1031ZM359.576 87.9375V71.168H361.791V77.2133C362.191 76.8268 362.64 76.4956 363.137 76.2195C363.633 75.9435 364.186 75.8055 364.793 75.8055C365.262 75.8055 365.621 75.9297 365.869 76.1781C366.132 76.4266 366.311 76.7371 366.408 77.1098C366.518 77.4824 366.573 77.862 366.573 78.2484V87.9375H364.358V78.8902C364.358 78.4624 364.296 78.1311 364.172 77.8965C364.048 77.6618 363.792 77.5445 363.406 77.5445C363.143 77.5445 362.867 77.6204 362.578 77.7723C362.302 77.9241 362.039 78.1104 361.791 78.3312V87.9375H359.576Z" fill="white"/>
</svg>
