<svg width="50" height="50" viewBox="0 0 50 50" fill="none" xmlns="http://www.w3.org/2000/svg">
<path fill-rule="evenodd" clip-rule="evenodd" d="M9.33984 6.11C12.3398 3.54 16.1998 1.75 20.1098 0C21.0601 3.24428 22.5218 6.31621 24.4398 9.1C23.2398 8.89 21.9698 8.7 20.6898 8.51C21.5398 8.51 22.6898 8.61 23.5798 8.56C23.0161 7.86093 22.4887 7.1333 21.9998 6.38C21.0351 7.08721 19.9512 7.61558 18.7998 7.94C18.9998 8.08 19.7998 8.26 19.9598 8.41C16.3495 8.01492 12.7902 7.24408 9.33984 6.11ZM12.9998 4.63C12.6074 4.79535 12.2532 5.03955 11.959 5.34747C11.6649 5.65538 11.4371 6.02043 11.2898 6.42C11.9467 6.52377 12.5719 6.7732 13.1198 7.15L15.2598 7C14.3696 6.3529 13.6039 5.54995 12.9998 4.63ZM14.4798 3.77C16.7043 4.33104 18.9861 4.63304 21.2798 4.67C20.5718 3.67782 20.0468 2.567 19.7298 1.39C17.8787 1.93805 16.112 2.73894 14.4798 3.77ZM21.6298 5.77C18.9979 5.55388 16.3984 5.04404 13.8798 4.25C14.9408 5.66087 16.2866 6.83289 17.8298 7.69C19.1801 7.23986 20.4596 6.60014 21.6298 5.79V5.77Z" fill="url(#paint0_linear_1908_125)"/>
<path fill-rule="evenodd" clip-rule="evenodd" d="M24.4402 49.9997C28.5802 40.8097 30.1802 33.2297 29.1502 24.4697C22.3602 26.7797 15.9002 28.8097 10.0002 32.2697C9.79537 33.9586 10.1843 35.6661 11.1002 37.0997L3.62024 38.9997C3.86024 35.8197 6.62024 34.3097 9.95024 32.2397C9.09024 32.7397 8.25024 33.2397 7.42024 33.8197C-6.82976 43.3997 12.6102 49.5997 24.4402 49.9997ZM13.3002 47.5597C11.29 47.0817 9.39374 46.2118 7.72024 44.9997C10.851 44.3477 13.9243 43.4448 16.9102 42.2997C16.5602 44.1097 14.9802 46.0897 13.3002 47.5497V47.5597ZM15.8102 48.2397C19.1129 47.4675 22.3575 46.465 25.5202 45.2397C25.1491 46.6686 24.5945 48.0433 23.8702 49.3297C21.156 49.2259 18.4575 48.8676 15.8102 48.2597V48.2397ZM14.1202 47.8597C15.6229 46.3549 16.8603 44.607 17.7802 42.6897C19.9502 43.9597 22.4502 44.3197 24.7802 44.7797C21.3538 46.2426 17.76 47.2771 14.0802 47.8597H14.1202ZM18.5102 41.9997C21.5102 40.7397 24.9102 39.3497 27.8902 38.0897C27.5122 40.1688 26.9294 42.2054 26.1502 44.1697C23.7402 43.7297 20.3902 43.5097 18.5102 41.9997ZM17.8302 41.7797C19.7632 39.6266 21.1882 37.067 22.0002 34.2897C23.7853 35.6538 25.8254 36.6467 28.0002 37.2097C25.2402 38.2897 20.6402 40.6597 17.8802 41.7397L17.8302 41.7797ZM28.3002 36.0997C26.1175 35.9327 24.0315 35.1296 22.3002 33.7897C24.3002 32.7297 26.6302 31.6797 28.6502 30.6297C28.671 32.4607 28.5405 34.2902 28.2602 36.0997H28.3002ZM28.7302 28.9997C27.8052 27.7888 26.4856 26.9398 25.0002 26.5997L28.4602 25.7497C28.7082 26.7973 28.8092 27.8743 28.7602 28.9497L28.7302 28.9997ZM22.1202 33.3397C22.4702 31.3397 23.2502 28.9797 23.6002 26.9897C25.7402 27.7097 27.5002 28.6197 28.4302 29.9897C26.4302 30.9897 24.0802 32.3697 22.1202 33.3697V33.3397ZM21.5902 33.0397C20.019 32.1926 18.7243 30.9117 17.8602 29.3497C19.1702 28.8797 20.8602 28.1397 22.2002 27.6697C22.4602 29.1697 21.8902 31.3497 21.5902 33.0397ZM21.0202 33.6797C18.7002 34.9497 14.8802 36.6097 12.4702 36.8597C13.6802 34.6497 16.0002 31.9297 17.2202 29.7297C18.029 31.4334 19.3602 32.8347 21.0202 33.7297V33.6797ZM21.4402 34.1597C21.1202 36.2997 19.0302 39.4297 17.1802 41.3697C15.4051 40.5516 13.9123 39.2258 12.8902 37.5597C15.5902 37.0597 19.1002 35.1197 21.4402 34.1597ZM16.0802 41.9797C13.2238 43.1608 10.2735 44.1008 7.26024 44.7897C9.11017 42.8231 10.6723 40.6044 11.9002 38.1997C13.0481 39.6935 14.466 40.9587 16.0802 41.9297V41.9797ZM6.31024 44.2897C4.40024 43.4397 3.60024 41.7797 3.56024 39.5697L11.0002 37.8897C9.99339 40.3666 8.40129 42.5626 6.36024 44.2897H6.31024ZM12.0902 36.2897C11.5425 35.7588 11.1638 35.0778 11.0019 34.3323C10.84 33.5868 10.9021 32.8101 11.1802 32.0997L15.8902 30.0997C14.909 32.316 13.6306 34.3883 12.0902 36.2597V36.2897Z" fill="url(#paint1_linear_1908_125)"/>
<path fill-rule="evenodd" clip-rule="evenodd" d="M9.99992 32.2704L7.41992 33.8604C8.28992 32.9304 9.19992 32.0004 9.99992 31.1504C19.6999 21.8204 19.4499 13.4104 10.7599 7.15045C8.30992 5.36045 8.75992 6.23045 11.3099 6.81045C25.9999 10.1604 38.6099 9.00045 47.1599 19.5304C47.7799 20.2804 47.7199 20.4604 47.1599 20.5304C42.1699 20.8104 24.9999 24.3704 9.99992 32.2704ZM15.9999 11.4804C15.7937 10.2915 15.3663 9.15182 14.7399 8.12045C13.9577 7.79963 13.1248 7.62019 12.2799 7.59045C13.7039 8.69776 14.9573 10.0084 15.9999 11.4804ZM15.9099 8.48045C16.4161 9.84962 16.8238 11.2532 17.1299 12.6804C18.3749 11.3894 19.8077 10.2937 21.3799 9.43045C19.6042 8.87541 17.7672 8.53958 15.9099 8.43045V8.48045ZM18.0599 13.1404L22.5699 14.5804L22.1499 9.71045C20.5421 10.5257 19.1428 11.6992 18.0599 13.1404ZM23.4399 14.7404C25.2875 13.1433 27.3387 11.7983 29.5399 10.7404C27.3229 10.1294 25.039 9.79353 22.7399 9.74045C22.9699 11.4004 23.2099 13.0604 23.4399 14.7404ZM24.2399 15.1304C25.6888 15.5267 27.0358 16.2292 28.1899 17.1904C29.3467 15.33 30.1281 13.2611 30.4899 11.1004C28.2138 12.1054 26.1058 13.4546 24.2399 15.1004V15.1304ZM28.9999 17.6204C32.0598 15.9717 35.2884 14.6574 38.6299 13.7004C36.1673 12.6684 33.6126 11.8715 30.9999 11.3204C30.8012 13.5413 30.1186 15.6917 28.9999 17.6204ZM29.5299 18.0004C31.2267 19.1211 32.6211 20.6426 33.5899 22.4304C35.6799 19.7104 37.8099 17.0504 39.5899 14.3304C36.1419 15.2563 32.7822 16.4844 29.5499 18.0004H29.5299ZM34.5299 22.1804C38.4128 21.0954 42.3801 20.3394 46.3899 19.9204C44.6917 17.7314 42.53 15.9454 40.0599 14.6904C38.4693 17.3642 36.6169 19.8732 34.5299 22.1804ZM17.8699 19.1004C19.1799 17.9404 20.4199 16.7804 21.7399 15.6204L17.7399 14.4904C17.9197 16.0201 17.9732 17.562 17.8999 19.1004H17.8699ZM17.8699 20.5504C18.7867 20.733 19.6029 21.2498 20.1599 22.0004C20.9599 20.0004 21.7533 18.0004 22.5399 16.0004L17.8299 20.5704L17.8699 20.5504ZM20.5299 22.3404L26.7799 17.9204C25.765 17.1549 24.5994 16.613 23.3599 16.3304C22.4133 18.3304 21.4699 20.3304 20.5299 22.3304V22.3404ZM20.7899 22.8004C21.3119 23.9151 21.6108 25.1211 21.6699 26.3504C23.5399 23.8104 25.7599 21.0504 27.6699 18.5104L20.7499 22.8004H20.7899ZM22.8799 25.8004L32.8799 22.5604C31.6689 21.0671 30.1469 19.8557 28.4199 19.0104C26.6299 21.2504 24.6599 23.5504 22.8699 25.8004H22.8799ZM13.9999 29.5704C16.2395 28.3645 18.5821 27.3605 20.9999 26.5704C20.8599 25.3804 20.8399 23.9804 20.0899 23.1404L13.9999 29.5704ZM12.7999 29.0004L16.3499 26.5704C16.1999 26.1104 16.0499 25.6604 15.9099 25.2004C15.0311 26.5885 13.9867 27.8645 12.7999 29.0004ZM16.1399 24.7004L18.9999 22.7904C18.5936 22.2295 17.9897 21.8436 17.3099 21.7104C17.0736 22.7638 16.6792 23.7753 16.1399 24.7104V24.7004Z" fill="url(#paint2_linear_1908_125)"/>
<path fill-rule="evenodd" clip-rule="evenodd" d="M26.2498 50V48.9H25.8398V48.75H26.8398V48.9H26.4198V50H26.2498ZM26.9998 50V48.75H27.2498L27.5398 49.64L27.5998 49.82C27.6267 49.7546 27.6501 49.6879 27.6698 49.62L27.9698 48.75H28.1898V50H27.9998V49L27.6398 50H27.4898L27.1298 48.94V50H26.9998Z" fill="url(#paint3_linear_1908_125)"/>
<defs>
<linearGradient id="paint0_linear_1908_125" x1="9.33984" y1="3.36908" x2="24.4475" y2="3.48159" gradientUnits="userSpaceOnUse">
<stop stop-color="#214F89"/>
<stop offset="1" stop-color="#12BCAB"/>
</linearGradient>
<linearGradient id="paint1_linear_1908_125" x1="2.4043" y1="33.9217" x2="29.4681" y2="34.0504" gradientUnits="userSpaceOnUse">
<stop stop-color="#214F89"/>
<stop offset="1" stop-color="#12BCAB"/>
</linearGradient>
<linearGradient id="paint2_linear_1908_125" x1="7.41992" y1="16.3658" x2="47.6237" y2="16.6268" gradientUnits="userSpaceOnUse">
<stop stop-color="#214F89"/>
<stop offset="1" stop-color="#12BCAB"/>
</linearGradient>
<linearGradient id="paint3_linear_1908_125" x1="25.8398" y1="49.2128" x2="28.191" y2="49.2326" gradientUnits="userSpaceOnUse">
<stop stop-color="#214F89"/>
<stop offset="1" stop-color="#12BCAB"/>
</linearGradient>
</defs>
</svg>
