<svg width="64" height="64" viewBox="0 0 64 64" fill="none" xmlns="http://www.w3.org/2000/svg">
<g clip-path="url(#clip0_1087_742)">
<path d="M30.847 23.125H30.9118C32.9923 22.9711 35.0573 22.6537 37.0879 22.1756C37.4894 22.071 37.7309 21.6617 37.6284 21.2597C37.5259 20.8576 37.118 20.6139 36.7154 20.7142C34.765 21.1711 32.7816 21.4737 30.7836 21.6191C30.3672 21.6366 30.0437 21.9884 30.0612 22.4049C30.0787 22.8213 30.4305 23.1448 30.847 23.1273V23.125Z" fill="url(#paint0_linear_1087_742)"/>
<path d="M12.7707 18.4263C13.1872 18.4263 13.5248 18.0887 13.5248 17.6722C13.5248 17.2557 13.1872 16.9181 12.7707 16.9181C12.3542 16.9181 12.0166 17.2557 12.0166 17.6722C12.0166 18.0887 12.3542 18.4263 12.7707 18.4263Z" fill="url(#paint1_linear_1087_742)"/>
<path d="M12.7707 19.9344C12.3542 19.9344 12.0166 20.2721 12.0166 20.6885V22.1967C12.0166 22.6132 12.3542 22.9508 12.7707 22.9508C13.1872 22.9508 13.5248 22.6132 13.5248 22.1967V20.6885C13.5248 20.2721 13.1872 19.9344 12.7707 19.9344Z" fill="url(#paint2_linear_1087_742)"/>
<path d="M12.7707 28.2295C13.1872 28.2295 13.5248 27.8919 13.5248 27.4754C13.5248 27.0589 13.1872 26.7213 12.7707 26.7213C12.3542 26.7213 12.0166 27.0589 12.0166 27.4754C12.0166 27.8919 12.3542 28.2295 12.7707 28.2295Z" fill="url(#paint3_linear_1087_742)"/>
<path d="M12.7707 29.7377C12.3542 29.7377 12.0166 30.0753 12.0166 30.4918V32C12.0166 32.4164 12.3542 32.7541 12.7707 32.7541C13.1872 32.7541 13.5248 32.4164 13.5248 32V30.4918C13.5248 30.0753 13.1872 29.7377 12.7707 29.7377Z" fill="url(#paint4_linear_1087_742)"/>
<path d="M12.7707 38.0329C13.1872 38.0329 13.5248 37.6952 13.5248 37.2788C13.5248 36.8623 13.1872 36.5247 12.7707 36.5247C12.3542 36.5247 12.0166 36.8623 12.0166 37.2788C12.0166 37.6952 12.3542 38.0329 12.7707 38.0329Z" fill="url(#paint5_linear_1087_742)"/>
<path d="M12.7707 39.541C12.3542 39.541 12.0166 39.8786 12.0166 40.2951V41.8033C12.0166 42.2198 12.3542 42.5574 12.7707 42.5574C13.1872 42.5574 13.5248 42.2198 13.5248 41.8033V40.2951C13.5248 39.8786 13.1872 39.541 12.7707 39.541Z" fill="url(#paint6_linear_1087_742)"/>
<path d="M48.1505 37.6663C47.4764 33.7907 44.5179 30.7119 40.6721 29.884V13.1476C40.6721 9.42006 25.4823 9.37708 24.8361 9.37708C24.1898 9.37708 9 9.42006 9 13.1476V43.3115C9 44.8536 11.5504 45.9554 16.5727 46.5918C16.5523 46.8241 16.541 47.0594 16.541 47.2969C16.541 51.3366 19.5936 54.623 23.3452 54.623H46.3181C50.713 54.623 54.2889 50.7688 54.2889 46.0263C54.394 42.1642 51.8669 38.7225 48.1505 37.6663ZM39.1217 29.7377C36.1011 29.762 33.2953 31.3043 31.6561 33.8415C29.7235 33.4302 27.7071 33.8521 26.1014 35.0036C25.6867 35.0096 25.2659 35.0164 24.8361 35.0164C15.9528 35.0164 10.8852 33.558 10.5082 32.7307V24.732C14.3609 26.6919 24.315 26.7213 24.8361 26.7213C25.3571 26.7213 35.3112 26.6919 39.1639 24.732V29.7377C39.1496 29.7377 39.136 29.7377 39.1217 29.7377ZM39.1639 22.9222C38.8065 23.7479 33.7382 25.2131 24.8361 25.2131C15.9098 25.2131 10.8362 23.7396 10.5082 22.9508V14.9287C14.3609 16.8886 24.315 16.9181 24.8361 16.9181C25.3571 16.9181 35.3112 16.8886 39.1639 14.9287V22.9222ZM24.8361 10.8853C33.6326 10.8853 38.6889 12.3181 39.1519 13.1476C38.6889 13.9771 33.6326 15.4099 24.8361 15.4099C15.9377 15.4099 10.8656 13.9446 10.5082 13.1906V13.1762C10.8656 12.3505 15.9377 10.8853 24.8361 10.8853ZM10.5082 43.2874V34.5353C14.0223 36.3233 22.6077 36.505 24.4847 36.5246C23.6707 37.5361 23.1049 38.7241 22.8324 39.9935C19.973 40.296 17.5961 42.3301 16.8554 45.1085C12.1235 44.5128 10.659 43.5935 10.5082 43.2874ZM46.3181 53.1148H23.3452C20.4246 53.1148 18.0492 50.5048 18.0492 47.2969C18.0492 44.089 20.4246 41.479 23.3452 41.479H23.4538H23.4681C23.8445 41.4788 24.1631 41.2011 24.2147 40.8283C24.6589 37.6165 27.2311 35.1944 30.1924 35.1944C30.7329 35.1944 31.2705 35.2734 31.7881 35.4289C32.1202 35.5285 32.4774 35.3888 32.6538 35.0903C33.9699 32.7471 36.4344 31.2822 39.1217 31.2459C42.8922 31.2459 46.171 34.3219 46.7441 38.4001C46.7892 38.7231 47.0369 38.9805 47.358 39.038C50.5003 39.5976 52.7807 42.5385 52.7807 46.03C52.7807 49.937 49.8819 53.1148 46.3181 53.1148Z" fill="url(#paint7_linear_1087_742)"/>
<g clip-path="url(#clip1_1087_742)">
<path d="M42.0299 47.1611H40.9551V46.0949C40.956 46.0548 40.9489 46.0148 40.9342 45.9774C40.9195 45.94 40.8975 45.9059 40.8695 45.8771C40.8415 45.8483 40.808 45.8253 40.771 45.8096C40.7341 45.7938 40.6943 45.7856 40.6541 45.7854H39.6911C39.6082 45.7852 39.5284 45.8175 39.469 45.8753C39.4095 45.9332 39.3751 46.012 39.373 46.0949V47.1611H38.281C38.198 47.1609 38.1183 47.1932 38.0588 47.251C37.9994 47.3089 37.9649 47.3877 37.9629 47.4707V48.4337C37.9649 48.5166 37.9994 48.5955 38.0588 48.6533C38.1183 48.7112 38.198 48.7434 38.281 48.7432H39.373V49.8438C39.3751 49.9267 39.4095 50.0056 39.469 50.0634C39.5284 50.1213 39.6082 50.1536 39.6911 50.1534H40.6541C40.6943 50.1531 40.7341 50.1449 40.771 50.1292C40.808 50.1134 40.8415 50.0905 40.8695 50.0617C40.8975 50.0329 40.9195 49.9988 40.9342 49.9614C40.9489 49.924 40.956 49.884 40.9551 49.8438V48.7432H42.0299C42.0701 48.743 42.1098 48.7348 42.1468 48.7191C42.1838 48.7033 42.2172 48.6804 42.2453 48.6516C42.2733 48.6227 42.2953 48.5886 42.31 48.5512C42.3247 48.5138 42.3318 48.4739 42.3308 48.4337V47.4707C42.3318 47.4305 42.3247 47.3905 42.31 47.3531C42.2953 47.3157 42.2733 47.2816 42.2453 47.2528C42.2172 47.224 42.1838 47.201 42.1468 47.1853C42.1098 47.1696 42.0701 47.1613 42.0299 47.1611ZM41.8493 48.2617H40.7917C40.7087 48.2615 40.629 48.2938 40.5695 48.3516C40.5101 48.4095 40.4756 48.4883 40.4736 48.5713V49.6718H39.8545V48.5713C39.8554 48.5311 39.8483 48.4911 39.8336 48.4537C39.8189 48.4163 39.797 48.3822 39.7689 48.3534C39.7409 48.3246 39.7074 48.3016 39.6705 48.2859C39.6335 48.2701 39.5937 48.2619 39.5535 48.2617H38.4444V47.6426H39.5535C39.5937 47.6424 39.6335 47.6342 39.6705 47.6185C39.7074 47.6027 39.7409 47.5798 39.7689 47.551C39.797 47.5222 39.8189 47.4881 39.8336 47.4506C39.8483 47.4132 39.8554 47.3733 39.8545 47.3331V46.2669H40.4736V47.3331C40.4756 47.416 40.5101 47.4949 40.5695 47.5527C40.629 47.6106 40.7087 47.6429 40.7917 47.6426H41.8493V48.2617Z" fill="url(#paint8_linear_1087_742)"/>
<path d="M40.2277 43.7616C39.5626 43.7618 38.9075 43.9229 38.3182 44.2311C37.7289 44.5393 37.2229 44.9855 36.8434 45.5317C36.7785 45.5117 36.7172 45.4923 36.6593 45.4735L36.4257 44.8107C37.1479 44.2696 37.3458 43.4247 37.3998 43.0154C37.8855 42.8836 38.3315 42.313 38.5102 41.5567C38.6065 41.1476 38.4655 40.7668 38.1592 40.609C38.0743 40.5653 37.9802 40.5425 37.8847 40.5424C37.9006 40.4237 37.9171 40.2785 37.9342 40.1003C37.9741 39.6832 37.9995 39.2619 37.9995 39.1551C37.9995 39.0795 38.001 39.0015 38.0026 38.9189C38.0154 38.2603 38.0312 37.4407 37.3048 36.7059C36.6528 36.0465 35.7298 35.683 34.7728 35.7095C33.8195 35.7355 32.9255 36.1424 32.32 36.8256C32.3015 36.8466 32.2826 36.8678 32.2634 36.8891C31.8982 37.2971 31.3981 37.856 31.434 39.2871C31.4374 39.4272 31.5715 40.0692 31.7104 40.5585C31.6295 40.5665 31.5509 40.5908 31.4795 40.6298C31.1855 40.7887 31.0507 41.1612 31.144 41.5567C31.3229 42.3143 31.7704 42.8857 32.2572 43.016C32.3154 43.4174 32.5191 44.2539 33.2229 44.7955L32.9146 45.4294C32.6945 45.4984 32.4464 45.5668 32.1904 45.6385C30.5354 46.1024 28.2646 46.7376 28.2646 48.8013V50.9591C28.2646 51.4688 28.5373 52.0106 29.0267 52.0106H40.2421C40.2443 52.0106 40.2465 52.0103 40.2487 52.0102C41.3402 52.004 42.3848 51.5652 43.1534 50.7902C43.9221 50.0151 44.3521 48.967 44.3493 47.8754C44.3466 46.7839 43.9112 45.7379 43.1386 44.9668C42.366 44.1957 41.3192 43.7623 40.2277 43.7616ZM32.6223 37.2101C32.642 37.1881 32.6614 37.1663 32.6805 37.1447C33.1979 36.5608 33.9653 36.213 34.786 36.1906C35.6107 36.1677 36.4038 36.4792 36.9624 37.0443C37.5459 37.6344 37.5328 38.3117 37.5213 38.9093C37.5196 38.9943 37.5181 39.0747 37.5181 39.1549C37.5181 39.206 37.5129 39.3119 37.5041 39.4466C37.3877 39.0138 37.2249 38.5958 37.0008 38.3514L36.9829 38.3158C36.9626 38.2751 36.9312 38.241 36.8923 38.2175C36.8534 38.1939 36.8086 38.1819 36.7631 38.1827C36.7177 38.1836 36.6734 38.1973 36.6354 38.2222C36.5974 38.2472 36.5672 38.2824 36.5484 38.3238C36.1605 39.1771 35.7762 39.1427 35.1396 39.0859C35.0657 39.0793 34.9905 39.0726 34.9141 39.0673C34.6718 39.0501 34.5842 39.1917 34.5578 39.2531C34.4793 39.4353 34.5883 39.6322 34.788 39.8656C34.1524 39.7897 33.9913 39.3248 33.8462 38.9055C33.7455 38.6145 33.6313 38.2846 33.2993 38.2846C33.1394 38.2814 32.9806 38.3126 32.8337 38.3759C32.6867 38.4392 32.5551 38.5332 32.4475 38.6516C32.2008 38.9164 32.0617 39.294 31.9844 39.664C31.953 39.5359 31.9301 39.4059 31.9156 39.2749C31.8842 38.0348 32.2763 37.5966 32.6223 37.2101ZM32.7168 42.7936C32.7139 42.7316 32.6873 42.6731 32.6425 42.6301C32.5977 42.5871 32.5381 42.5629 32.476 42.5626C32.4726 42.5626 32.4691 42.5626 32.4655 42.5626C32.1129 42.5626 31.7406 41.9874 31.6126 41.446C31.5636 41.2382 31.6279 41.0968 31.7084 41.0532C31.7995 41.0041 31.8965 41.0906 31.934 41.1301C31.9655 41.1633 32.0058 41.1868 32.0501 41.1979C32.0944 41.209 32.141 41.2073 32.1844 41.1929C32.2278 41.1785 32.2661 41.1521 32.2951 41.1167C32.324 41.0813 32.3422 41.0384 32.3477 40.993C32.3714 40.9517 32.3823 40.9043 32.3789 40.8568C32.3533 40.4875 32.3792 39.4304 32.7999 38.9795C32.8594 38.9135 32.9319 38.8605 33.0129 38.8239C33.0938 38.7872 33.1815 38.7678 33.2704 38.7666C33.3066 38.8189 33.3549 38.9583 33.3911 39.0631C33.5695 39.5786 33.9016 40.5379 35.3734 40.3279C35.4185 40.3214 35.4609 40.3023 35.4955 40.2728C35.5302 40.2432 35.5558 40.2044 35.5693 40.1609C35.5828 40.1173 35.5837 40.0709 35.5718 40.0269C35.5599 39.9828 35.5358 39.9431 35.5023 39.9123C35.3856 39.805 35.2748 39.6914 35.1704 39.5721C35.7364 39.6212 36.3138 39.6397 36.791 38.8889C37.0925 39.4544 37.2495 40.5791 37.288 41.0257C37.2931 41.0857 37.3206 41.1416 37.365 41.1823C37.4093 41.2231 37.4674 41.2457 37.5276 41.2458C37.5345 41.2458 37.5413 41.2455 37.5485 41.2448C37.5921 41.2411 37.6338 41.2255 37.6693 41.1998C37.7047 41.1741 37.7324 41.1392 37.7495 41.0989C37.797 41.0519 37.8695 41.0012 37.9386 41.0367C38.0269 41.0822 38.0906 41.2374 38.0416 41.446C37.9136 41.9875 37.5413 42.5627 37.1886 42.5627H37.1826C37.1359 42.5619 37.0899 42.5747 37.0502 42.5994C37.0166 42.6204 36.9887 42.6493 36.969 42.6837C36.9493 42.7181 36.9384 42.7569 36.9373 42.7965C36.927 42.9934 36.8338 44 36.0135 44.5098C36.0122 44.5106 36.0109 44.5115 36.0096 44.5123C35.6902 44.7094 35.2924 44.8093 34.8271 44.8093C34.363 44.8093 33.9661 44.7071 33.647 44.5054C32.8384 43.9949 32.7302 42.9899 32.7167 42.7936H32.7168ZM33.3025 45.7328L33.6361 45.0468C33.9816 45.2087 34.3808 45.2908 34.8271 45.2908C35.2669 45.2908 35.6608 45.2128 36.0027 45.0592L36.2443 45.7447C36.2564 45.779 36.2761 45.8101 36.302 45.8358C36.3279 45.8614 36.3592 45.8808 36.3937 45.8925C36.4537 45.913 36.5172 45.9339 36.5842 45.9552C36.4662 46.1767 36.3688 46.4086 36.2933 46.648C36.0705 46.9119 35.6029 47.3155 34.8271 47.3155C34.5653 47.3183 34.3058 47.2659 34.0657 47.1617C33.8255 47.0575 33.6099 46.9039 33.4331 46.7108C33.1792 46.4384 33.0354 46.1347 32.987 45.9111C33.046 45.893 33.1039 45.8748 33.1605 45.8564C33.1912 45.8464 33.2197 45.8303 33.2441 45.8091C33.2685 45.7878 33.2884 45.7619 33.3025 45.7328ZM28.7462 50.9591V48.8013C28.7462 47.1027 30.7298 46.5479 32.3202 46.1022C32.3875 46.0833 32.456 46.0647 32.5215 46.0462C32.6957 46.778 33.4805 47.7968 34.8259 47.7968C35.2869 47.8027 35.7396 47.6737 36.1284 47.4257C36.0364 48.2482 36.1939 49.0793 36.5804 49.811C36.9669 50.5428 37.5646 51.1414 38.2957 51.5291H29.0267C28.8734 51.5291 28.7462 51.2227 28.7462 50.9591ZM40.2277 51.5291C39.5072 51.5291 38.8029 51.3154 38.2038 50.9151C37.6047 50.5148 37.1378 49.9459 36.8621 49.2802C36.5863 48.6145 36.5142 47.8821 36.6548 47.1754C36.7953 46.4688 37.1423 45.8196 37.6518 45.3102C38.1612 44.8007 38.8103 44.4537 39.517 44.3132C40.2237 44.1726 40.9561 44.2448 41.6218 44.5205C42.2874 44.7962 42.8564 45.2631 43.2567 45.8622C43.657 46.4613 43.8706 47.1656 43.8706 47.8861C43.8696 48.8519 43.4854 49.7779 42.8025 50.4609C42.1195 51.1438 41.1935 51.528 40.2277 51.5291Z" fill="url(#paint9_linear_1087_742)"/>
</g>
</g>
<rect x="0.587156" y="-0.587156" width="62.8257" height="62.8257" rx="8.80734" transform="matrix(1 0 0 -1 0 62.8257)" stroke="url(#paint10_linear_1087_742)" stroke-width="1.17431"/>
<defs>
<linearGradient id="paint0_linear_1087_742" x1="30.0605" y1="21.5936" x2="37.6547" y2="21.6998" gradientUnits="userSpaceOnUse">
<stop stop-color="#214F89"/>
<stop offset="1" stop-color="#12BCAB"/>
</linearGradient>
<linearGradient id="paint1_linear_1087_742" x1="12.0166" y1="17.4765" x2="13.5256" y2="17.4832" gradientUnits="userSpaceOnUse">
<stop stop-color="#214F89"/>
<stop offset="1" stop-color="#12BCAB"/>
</linearGradient>
<linearGradient id="paint2_linear_1087_742" x1="12.0166" y1="21.0512" x2="13.5256" y2="21.0546" gradientUnits="userSpaceOnUse">
<stop stop-color="#214F89"/>
<stop offset="1" stop-color="#12BCAB"/>
</linearGradient>
<linearGradient id="paint3_linear_1087_742" x1="12.0166" y1="27.2797" x2="13.5256" y2="27.2865" gradientUnits="userSpaceOnUse">
<stop stop-color="#214F89"/>
<stop offset="1" stop-color="#12BCAB"/>
</linearGradient>
<linearGradient id="paint4_linear_1087_742" x1="12.0166" y1="30.8544" x2="13.5256" y2="30.8578" gradientUnits="userSpaceOnUse">
<stop stop-color="#214F89"/>
<stop offset="1" stop-color="#12BCAB"/>
</linearGradient>
<linearGradient id="paint5_linear_1087_742" x1="12.0166" y1="37.083" x2="13.5256" y2="37.0898" gradientUnits="userSpaceOnUse">
<stop stop-color="#214F89"/>
<stop offset="1" stop-color="#12BCAB"/>
</linearGradient>
<linearGradient id="paint6_linear_1087_742" x1="12.0166" y1="40.6578" x2="13.5256" y2="40.6612" gradientUnits="userSpaceOnUse">
<stop stop-color="#214F89"/>
<stop offset="1" stop-color="#12BCAB"/>
</linearGradient>
<linearGradient id="paint7_linear_1087_742" x1="9" y1="26.1284" x2="54.3167" y2="26.332" gradientUnits="userSpaceOnUse">
<stop stop-color="#214F89"/>
<stop offset="1" stop-color="#12BCAB"/>
</linearGradient>
<linearGradient id="paint8_linear_1087_742" x1="37.9629" y1="47.4025" x2="42.3333" y2="47.4222" gradientUnits="userSpaceOnUse">
<stop stop-color="#214F89"/>
<stop offset="1" stop-color="#12BCAB"/>
</linearGradient>
<linearGradient id="paint9_linear_1087_742" x1="28.2646" y1="41.7438" x2="44.3581" y2="41.815" gradientUnits="userSpaceOnUse">
<stop stop-color="#214F89"/>
<stop offset="1" stop-color="#12BCAB"/>
</linearGradient>
<linearGradient id="paint10_linear_1087_742" x1="-9.95479e-09" y1="23.6946" x2="64.0349" y2="23.982" gradientUnits="userSpaceOnUse">
<stop stop-color="#214F89"/>
<stop offset="1" stop-color="#12BCAB"/>
</linearGradient>
<clipPath id="clip0_1087_742">
<rect width="46" height="46" fill="white" transform="translate(9 9)"/>
</clipPath>
<clipPath id="clip1_1087_742">
<rect width="17.6094" height="17.6094" fill="white" transform="translate(27.5078 35.0547)"/>
</clipPath>
</defs>
</svg>
