<svg width="64" height="64" viewBox="0 0 64 64" fill="none" xmlns="http://www.w3.org/2000/svg">
<g clip-path="url(#clip0_1069_9366)">
<path d="M54.2812 49.4297H52.6641V23.5906C53.0967 23.3633 53.4591 23.0224 53.7124 22.6045C53.9657 22.1865 54.1003 21.7074 54.1016 21.2188V15.4688C54.1014 15.3521 54.0636 15.2387 53.9937 15.1453L49.6812 9.39531C49.631 9.32836 49.5659 9.27402 49.4911 9.2366C49.4162 9.19917 49.3337 9.17969 49.25 9.17969H14.75C14.6663 9.17969 14.5838 9.19917 14.5089 9.2366C14.4341 9.27402 14.369 9.32836 14.3188 9.39531L10.0062 15.1453C9.93641 15.2387 9.89859 15.3521 9.89844 15.4688V21.2188C9.89951 21.7075 10.0339 22.1867 10.2873 22.6046C10.5406 23.0226 10.9032 23.3635 11.3359 23.5906V49.4297H9.71875C9.57578 49.4297 9.43867 49.4865 9.33758 49.5876C9.23648 49.6887 9.17969 49.8258 9.17969 49.9688V54.2812C9.17969 54.4242 9.23648 54.5613 9.33758 54.6624C9.43867 54.7635 9.57578 54.8203 9.71875 54.8203H54.2812C54.4242 54.8203 54.5613 54.7635 54.6624 54.6624C54.7635 54.5613 54.8203 54.4242 54.8203 54.2812V49.9688C54.8203 49.8258 54.7635 49.6887 54.6624 49.5876C54.5613 49.4865 54.4242 49.4297 54.2812 49.4297ZM53.0234 21.2188C53.0234 21.6477 52.8531 22.059 52.5498 22.3623C52.2465 22.6656 51.8352 22.8359 51.4062 22.8359C50.9773 22.8359 50.566 22.6656 50.2627 22.3623C49.9594 22.059 49.7891 21.6477 49.7891 21.2188V18.8828H53.0234V21.2188ZM51.5859 23.8961V49.4297H49.7891V23.3613C50.253 23.7178 50.8212 23.912 51.4062 23.9141C51.4681 23.9141 51.5256 23.8997 51.5859 23.8961ZM10.9766 15.6484L15.0195 10.2578H48.9805L53.0234 15.6484V17.8047H36.5684C36.7548 17.2858 36.8506 16.7388 36.8516 16.1875C36.8516 14.9008 36.3404 13.6668 35.4306 12.7569C34.5207 11.8471 33.2867 11.3359 32 11.3359C30.7133 11.3359 29.4793 11.8471 28.5694 12.7569C27.6596 13.6668 27.1484 14.9008 27.1484 16.1875C27.1494 16.7388 27.2452 17.2858 27.4316 17.8047H10.9766V15.6484ZM21.7578 37.9297V36.8516H42.2422V37.9297H21.7578ZM40.8047 39.0078V49.4297H23.1953V39.0078H40.8047ZM28.3092 31.8203H35.6908L35.1266 35.7734H28.8734L28.3092 31.8203ZM41.8828 39.0078H42.7812C42.9242 39.0078 43.0613 38.951 43.1624 38.8499C43.2635 38.7488 43.3203 38.6117 43.3203 38.4688V36.3125C43.3203 36.1695 43.2635 36.0324 43.1624 35.9313C43.0613 35.8302 42.9242 35.7734 42.7812 35.7734H36.2155L36.8465 31.3574C36.8575 31.281 36.8518 31.203 36.83 31.1289C36.8081 31.0548 36.7706 30.9862 36.72 30.9279C36.6693 30.8695 36.6067 30.8228 36.5364 30.7907C36.4661 30.7587 36.3898 30.7421 36.3125 30.7422H27.6875C27.6102 30.7421 27.5339 30.7587 27.4636 30.7907C27.3933 30.8228 27.3307 30.8695 27.28 30.9279C27.2294 30.9862 27.1919 31.0548 27.17 31.1289C27.1482 31.203 27.1425 31.281 27.1535 31.3574L27.7845 35.7734H21.2188C21.0758 35.7734 20.9387 35.8302 20.8376 35.9313C20.7365 36.0324 20.6797 36.1695 20.6797 36.3125V38.4688C20.6797 38.6117 20.7365 38.7488 20.8376 38.8499C20.9387 38.951 21.0758 39.0078 21.2188 39.0078H22.1172V49.4297H15.2891V38.1223C17.1898 37.4078 18.8274 36.1306 19.9832 34.461C21.139 32.7915 21.7581 30.8091 21.7578 28.7786V23.8594C22.4066 23.7239 22.9825 23.3535 23.375 22.8194C23.623 23.1586 23.9475 23.4346 24.3221 23.6248C24.6968 23.815 25.1111 23.9142 25.5312 23.9142C25.9514 23.9142 26.3657 23.815 26.7404 23.6248C27.115 23.4346 27.4395 23.1586 27.6875 22.8194C27.9355 23.1586 28.26 23.4346 28.6346 23.6248C29.0093 23.815 29.4236 23.9142 29.8438 23.9142C30.2639 23.9142 30.6782 23.815 31.0529 23.6248C31.4275 23.4346 31.752 23.1586 32 22.8194C32.248 23.1586 32.5725 23.4346 32.9471 23.6248C33.3218 23.815 33.7361 23.9142 34.1562 23.9142C34.5764 23.9142 34.9907 23.815 35.3654 23.6248C35.74 23.4346 36.0645 23.1586 36.3125 22.8194C36.5605 23.1586 36.885 23.4346 37.2596 23.6248C37.6343 23.815 38.0486 23.9142 38.4688 23.9142C38.8889 23.9142 39.3032 23.815 39.6779 23.6248C40.0525 23.4346 40.377 23.1586 40.625 22.8194C41.0175 23.3535 41.5934 23.7239 42.2422 23.8594V28.775C42.2413 30.8061 42.8601 32.7892 44.0159 34.4595C45.1718 36.1297 46.8097 37.4075 48.7109 38.1223V49.4297H41.8828V39.0078ZM16.9062 23.9141C17.213 23.911 17.5169 23.8551 17.8047 23.7488V28.8483C17.8073 29.7431 17.5767 30.6232 17.1355 31.4017C16.6944 32.1802 16.058 32.8303 15.2891 33.288V23.3613C15.753 23.7178 16.3212 23.912 16.9062 23.9141ZM15.2891 21.2188V18.8828H18.5234V21.2188C18.5234 21.6477 18.3531 22.059 18.0498 22.3623C17.7465 22.6656 17.3352 22.8359 16.9062 22.8359C16.4773 22.8359 16.066 22.6656 15.7627 22.3623C15.4594 22.059 15.2891 21.6477 15.2891 21.2188ZM18.8828 28.8483V23.0372C18.9464 22.9684 19.0063 22.8965 19.0625 22.8216C19.455 23.3557 20.0309 23.726 20.6797 23.8616V28.7771C20.6815 30.5205 20.1718 32.2262 19.2136 33.6827C18.2553 35.1392 16.8908 36.2825 15.2891 36.9709V34.4905C16.3641 33.991 17.2737 33.1943 17.9105 32.1946C18.5473 31.1948 18.8847 30.0336 18.8828 28.8483ZM19.6016 21.2188V18.8828H22.8359V21.2188C22.8359 21.6477 22.6656 22.059 22.3623 22.3623C22.059 22.6656 21.6477 22.8359 21.2188 22.8359C20.7898 22.8359 20.3785 22.6656 20.0752 22.3623C19.7719 22.059 19.6016 21.6477 19.6016 21.2188ZM23.9141 21.2188V18.8828H27.1484V21.2188C27.1484 21.6477 26.9781 22.059 26.6748 22.3623C26.3715 22.6656 25.9602 22.8359 25.5312 22.8359C25.1023 22.8359 24.691 22.6656 24.3877 22.3623C24.0844 22.059 23.9141 21.6477 23.9141 21.2188ZM32 19.9609C31.2537 19.9609 30.5241 19.7396 29.9036 19.325C29.2831 18.9104 28.7994 18.321 28.5138 17.6315C28.2282 16.942 28.1535 16.1833 28.2991 15.4513C28.4447 14.7194 28.8041 14.047 29.3318 13.5193C29.8595 12.9916 30.5319 12.6322 31.2638 12.4866C31.9958 12.341 32.7545 12.4157 33.444 12.7013C34.1335 12.9869 34.7229 13.4706 35.1375 14.0911C35.5521 14.7116 35.7734 15.4412 35.7734 16.1875C35.7723 17.1879 35.3744 18.1471 34.667 18.8545C33.9596 19.5619 33.0004 19.9598 32 19.9609ZM35.7734 19.23V21.2188C35.7734 21.6477 35.6031 22.059 35.2998 22.3623C34.9965 22.6656 34.5852 22.8359 34.1562 22.8359C33.7273 22.8359 33.316 22.6656 33.0127 22.3623C32.7094 22.059 32.5391 21.6477 32.5391 21.2188V21.0074C33.8094 20.8647 34.9719 20.2258 35.7734 19.23ZM31.4609 21.0074V21.2188C31.4609 21.6477 31.2906 22.059 30.9873 22.3623C30.684 22.6656 30.2727 22.8359 29.8438 22.8359C29.4148 22.8359 29.0035 22.6656 28.7002 22.3623C28.3969 22.059 28.2266 21.6477 28.2266 21.2188V19.23C29.0281 20.2258 30.1906 20.8647 31.4609 21.0074ZM36.8516 21.2188V18.8828H40.0859V21.2188C40.0859 21.6477 39.9156 22.059 39.6123 22.3623C39.309 22.6656 38.8977 22.8359 38.4688 22.8359C38.0398 22.8359 37.6285 22.6656 37.3252 22.3623C37.0219 22.059 36.8516 21.6477 36.8516 21.2188ZM41.1641 21.2188V18.8828H44.3984V21.2188C44.3984 21.6477 44.2281 22.059 43.9248 22.3623C43.6215 22.6656 43.2102 22.8359 42.7812 22.8359C42.3523 22.8359 41.941 22.6656 41.6377 22.3623C41.3344 22.059 41.1641 21.6477 41.1641 21.2188ZM43.3203 28.775V23.8594C43.9691 23.7239 44.545 23.3535 44.9375 22.8194C44.9937 22.8943 45.0536 22.9663 45.1172 23.035V28.8461C45.1154 30.0315 45.4529 31.1926 46.0896 32.1923C46.7264 33.1921 47.636 33.9888 48.7109 34.4883V36.9666C47.1094 36.2784 45.745 35.1355 44.7868 33.6794C43.8286 32.2233 43.3187 30.5181 43.3203 28.775ZM46.1953 28.8468V23.7488C46.6127 23.9051 47.0632 23.9516 47.5037 23.8838C47.9443 23.8159 48.3599 23.636 48.7109 23.3613V33.288C47.942 32.8303 47.3056 32.1802 46.8645 31.4017C46.4233 30.6232 46.1927 29.7431 46.1953 28.8483V28.8468ZM47.0938 22.8359C46.665 22.8354 46.254 22.6648 45.9509 22.3616C45.6477 22.0585 45.4771 21.6475 45.4766 21.2188V18.8828H48.7109V21.2188C48.7104 21.6475 48.5398 22.0585 48.2366 22.3616C47.9335 22.6648 47.5225 22.8354 47.0938 22.8359ZM10.9766 21.2188V18.8828H14.2109V21.2188C14.2109 21.6477 14.0406 22.059 13.7373 22.3623C13.434 22.6656 13.0227 22.8359 12.5938 22.8359C12.1648 22.8359 11.7535 22.6656 11.4502 22.3623C11.1469 22.059 10.9766 21.6477 10.9766 21.2188ZM14.2109 23.3613V49.4297H12.4141V23.8961C12.4744 23.8961 12.5319 23.9141 12.5938 23.9141C13.1788 23.912 13.747 23.7178 14.2109 23.3613ZM53.7422 53.7422H10.2578V50.5078H53.7422V53.7422Z" fill="url(#paint0_linear_1069_9366)"/>
<path d="M28.4062 45.8359H30.3828V47.8125C30.3828 47.9555 30.4396 48.0926 30.5407 48.1937C30.6418 48.2948 30.7789 48.3516 30.9219 48.3516H33.0781C33.2211 48.3516 33.3582 48.2948 33.4593 48.1937C33.5604 48.0926 33.6172 47.9555 33.6172 47.8125V45.8359H35.5938C35.7367 45.8359 35.8738 45.7791 35.9749 45.6781C36.076 45.577 36.1328 45.4398 36.1328 45.2969V43.1406C36.1328 42.9977 36.076 42.8605 35.9749 42.7594C35.8738 42.6584 35.7367 42.6016 35.5938 42.6016H33.6172V40.625C33.6172 40.482 33.5604 40.3449 33.4593 40.2438C33.3582 40.1427 33.2211 40.0859 33.0781 40.0859H30.9219C30.7789 40.0859 30.6418 40.1427 30.5407 40.2438C30.4396 40.3449 30.3828 40.482 30.3828 40.625V42.6016H28.4062C28.2633 42.6016 28.1262 42.6584 28.0251 42.7594C27.924 42.8605 27.8672 42.9977 27.8672 43.1406V45.2969C27.8672 45.4398 27.924 45.577 28.0251 45.6781C28.1262 45.7791 28.2633 45.8359 28.4062 45.8359ZM28.9453 43.6797H30.9219C31.0648 43.6797 31.202 43.6229 31.3031 43.5218C31.4041 43.4207 31.4609 43.2836 31.4609 43.1406V41.1641H32.5391V43.1406C32.5391 43.2836 32.5959 43.4207 32.6969 43.5218C32.798 43.6229 32.9352 43.6797 33.0781 43.6797H35.0547V44.7578H33.0781C32.9352 44.7578 32.798 44.8146 32.6969 44.9157C32.5959 45.0168 32.5391 45.1539 32.5391 45.2969V47.2734H31.4609V45.2969C31.4609 45.1539 31.4041 45.0168 31.3031 44.9157C31.202 44.8146 31.0648 44.7578 30.9219 44.7578H28.9453V43.6797Z" fill="url(#paint1_linear_1069_9366)"/>
<path d="M33.7969 15.6484H32.5391V14.3906C32.5391 14.2477 32.4823 14.1105 32.3812 14.0095C32.2801 13.9084 32.143 13.8516 32 13.8516C31.857 13.8516 31.7199 13.9084 31.6188 14.0095C31.5177 14.1105 31.4609 14.2477 31.4609 14.3906V15.6484H30.2031C30.0602 15.6484 29.923 15.7052 29.8219 15.8063C29.7209 15.9074 29.6641 16.0445 29.6641 16.1875C29.6641 16.3305 29.7209 16.4676 29.8219 16.5687C29.923 16.6698 30.0602 16.7266 30.2031 16.7266H31.4609V17.9844C31.4609 18.1273 31.5177 18.2645 31.6188 18.3655C31.7199 18.4666 31.857 18.5234 32 18.5234C32.143 18.5234 32.2801 18.4666 32.3812 18.3655C32.4823 18.2645 32.5391 18.1273 32.5391 17.9844V16.7266H33.7969C33.9398 16.7266 34.077 16.6698 34.1781 16.5687C34.2791 16.4676 34.3359 16.3305 34.3359 16.1875C34.3359 16.0445 34.2791 15.9074 34.1781 15.8063C34.077 15.7052 33.9398 15.6484 33.7969 15.6484Z" fill="url(#paint2_linear_1069_9366)"/>
</g>
<rect x="0.587156" y="-0.587156" width="62.8257" height="62.8257" rx="8.80734" transform="matrix(1 0 0 -1 0 62.8257)" stroke="url(#paint3_linear_1069_9366)" stroke-width="1.17431"/>
<defs>
<linearGradient id="paint0_linear_1069_9366" x1="9.17969" y1="26.0772" x2="54.8452" y2="26.2821" gradientUnits="userSpaceOnUse">
<stop stop-color="#214F89"/>
<stop offset="1" stop-color="#12BCAB"/>
</linearGradient>
<linearGradient id="paint1_linear_1069_9366" x1="27.8672" y1="43.1461" x2="36.1373" y2="43.1832" gradientUnits="userSpaceOnUse">
<stop stop-color="#214F89"/>
<stop offset="1" stop-color="#12BCAB"/>
</linearGradient>
<linearGradient id="paint2_linear_1069_9366" x1="29.6641" y1="15.5812" x2="34.3385" y2="15.6022" gradientUnits="userSpaceOnUse">
<stop stop-color="#214F89"/>
<stop offset="1" stop-color="#12BCAB"/>
</linearGradient>
<linearGradient id="paint3_linear_1069_9366" x1="-9.95479e-09" y1="23.6946" x2="64.0349" y2="23.982" gradientUnits="userSpaceOnUse">
<stop stop-color="#214F89"/>
<stop offset="1" stop-color="#12BCAB"/>
</linearGradient>
<clipPath id="clip0_1069_9366">
<rect width="46" height="46" fill="white" transform="translate(9 9)"/>
</clipPath>
</defs>
</svg>
