<svg width="64" height="64" viewBox="0 0 64 64" fill="none" xmlns="http://www.w3.org/2000/svg">
<path d="M13.1168 39.5815C12.3817 40.1587 11.849 40.9165 11.6835 41.9581L10.4748 49.5836C10.2951 50.7144 10.7905 51.7444 11.588 52.453C12.3726 53.15 13.4382 53.562 14.5544 53.562H32.1965C33.3127 53.562 34.3783 53.15 35.1628 52.453C35.9665 51.739 36.4572 50.7144 36.2775 49.5836L35.8647 46.9908C36.2629 46.8956 36.6551 46.7439 37.0299 46.5275C38.4729 45.6945 39.2445 44.1744 39.1876 42.6348V32.7113C39.1869 32.3119 38.8636 31.9896 38.4661 31.9911H34.1591C33.9699 31.9904 33.8007 32.0669 33.6719 32.1863C33.4107 31.896 33.0837 31.6896 32.7286 31.5756C32.7588 30.7473 32.8616 30.0088 32.9237 29.2888C32.9965 28.4436 33.0056 27.5908 32.6682 26.7212C32.3814 25.982 31.8809 25.2781 31.152 24.8191C30.7079 22.4023 29.1615 20.3795 27.0584 19.2698L30.5442 15.787C30.9851 16.0477 31.4877 16.1858 32 16.1871C32.5514 16.1858 33.0909 16.026 33.554 15.7266L38.8128 20.5796C38.588 20.9968 38.4699 21.4632 38.4689 21.9371C38.4689 23.5249 39.7561 24.8121 41.344 24.8121C42.9318 24.8121 44.219 23.5249 44.219 21.9371C44.2187 21.4617 44.1005 20.9939 43.8751 20.5754L49.1311 15.7294C49.5953 16.0283 50.1358 16.1872 50.6879 16.1871C52.2758 16.1871 53.563 14.8999 53.563 13.3121C53.563 11.7243 52.2758 10.4371 50.6879 10.4371C49.1001 10.4371 47.8129 11.7243 47.8129 13.3121C47.8134 13.7859 47.9311 14.2522 48.1554 14.6696L42.9008 19.5211C42.4367 19.2218 41.8962 19.0624 41.344 19.0621C40.7919 19.0635 40.2519 19.2238 39.7885 19.5239L34.5325 14.6682C34.7566 14.2512 34.8742 13.7854 34.875 13.3121C34.875 11.7243 33.5878 10.4371 31.9999 10.4371C30.4119 10.4371 29.1247 11.7243 29.1247 13.3121C29.1262 13.8249 29.2648 14.328 29.5262 14.7692L25.6137 18.6802C24.9026 18.4706 24.152 18.3532 23.3732 18.3532C22.8001 18.3532 22.2428 18.4196 21.704 18.5357C21.5714 18.4131 21.3975 18.3449 21.2169 18.3447H19.7793V16.1857C19.7785 15.7904 19.4587 15.4699 19.0634 15.4683H18.6422L15.2604 12.088C15.1236 11.9497 14.9368 11.872 14.7409 11.8746C14.5521 11.8784 14.3733 11.9551 14.2412 12.088L10.6487 15.6789C10.2 16.1304 10.5162 16.8992 11.1527 16.9044H12.5916V19.0649C12.5932 19.4618 12.9163 19.7823 13.3132 19.7808H13.7344L16.4269 22.4733C15.8154 23.5975 15.4667 24.89 15.4667 26.2594V27.367C14.613 27.8621 14.0292 28.785 14.0292 29.8559C14.0292 31.4605 15.3249 32.7267 16.9043 32.7267H17.5655C18.0683 33.7504 18.8321 34.6232 19.7807 35.2508V36.3261C19.7769 36.3261 19.7734 36.3246 19.7696 36.3246C19.6685 36.3269 19.5703 36.3502 19.479 36.3934L15.4563 38.2717C14.6288 38.668 13.8153 39.0331 13.1168 39.5815ZM31.9998 11.8746C32.7937 11.8746 33.4373 12.5182 33.4373 13.3121C33.4373 14.106 32.7937 14.7496 31.9998 14.7496C31.2059 14.7496 30.5623 14.106 30.5623 13.3121C30.5623 12.5182 31.2059 11.8746 31.9998 11.8746ZM50.6878 11.8746C51.4817 11.8746 52.1253 12.5182 52.1253 13.3121C52.1253 14.106 51.4817 14.7496 50.6878 14.7496C49.8938 14.7496 49.2502 14.106 49.2502 13.3121C49.2502 12.5182 49.8938 11.8746 50.6878 11.8746ZM14.7508 13.6097L16.608 15.4669H16.1883C15.7167 15.4669 15.4653 15.7082 15.4653 16.1857V18.3433H14.0292V16.1885C14.0307 15.7916 13.7102 15.4685 13.3132 15.4669H12.8879L14.7508 13.6097ZM16.9043 16.9072H18.3418V19.0607C18.3403 19.4598 18.6642 19.7838 19.0634 19.7822H19.4817L17.6244 21.6395L15.7629 19.7822H16.1869C16.5805 19.7822 16.9043 19.4565 16.9043 19.0649V16.9072ZM29.5529 24.3193C29.257 24.3076 28.929 24.334 28.6137 24.4022C27.6586 23.2908 26.2776 22.6567 24.8121 22.6558C23.1546 22.6582 21.6045 23.4768 20.668 24.8444C20.6018 24.8281 20.5344 24.8188 20.4658 24.8218C20.1497 24.8365 19.8796 25.0556 19.8018 25.3623C19.555 26.2833 18.5888 26.9809 17.6272 26.9809H16.9042V26.2593C16.9042 25.2143 17.1584 24.241 17.5921 23.3731C17.5995 23.3737 17.6071 23.3742 17.6147 23.3745C17.8094 23.3771 17.9968 23.3006 18.1341 23.1626L21.0836 20.2131C21.7945 19.9449 22.5626 19.792 23.3732 19.792C26.2912 19.7921 28.7347 21.6879 29.5529 24.3193ZM41.3438 20.4996C42.1377 20.4996 42.7813 21.1432 42.7813 21.9371C42.7813 22.731 42.1377 23.3746 41.3438 23.3746C40.5499 23.3746 39.9062 22.731 39.9062 21.9371C39.9062 21.1432 40.5499 20.4996 41.3438 20.4996ZM48.5343 23.3746C48.1368 23.3731 47.8135 23.6953 47.8127 24.0947V42.7878C47.8135 43.1872 48.1368 43.5095 48.5343 43.5079H52.8413C53.2388 43.5095 53.562 43.1872 53.5629 42.7878V24.0947C53.562 23.6953 53.2388 23.373 52.8413 23.3746H48.5343ZM24.8121 24.0933C26.7969 24.0933 28.406 25.7023 28.406 27.6871C28.406 29.6718 26.7969 31.2808 24.8121 31.2808C22.8273 31.2808 21.2183 29.6718 21.2183 27.6871C21.2183 25.7023 22.8273 24.0933 24.8121 24.0933ZM49.2502 24.8205H52.1253V42.062H49.2502V24.8205ZM24.8093 25.5322C23.6269 25.5322 22.6558 26.5047 22.6558 27.6871C22.6341 28.6669 24.1151 28.6669 24.0933 27.6871C24.0933 27.2816 24.4038 26.9711 24.8093 26.9711C25.7686 26.9711 25.7686 25.5322 24.8093 25.5322ZM29.4546 25.7512C29.709 25.7607 29.9398 25.8139 30.1481 25.9085C30.6784 26.1491 31.1111 26.6726 31.3316 27.2407C31.5519 27.8086 31.5568 28.3941 31.4902 29.1667C31.4316 29.847 31.3173 30.6605 31.2895 31.6205C31.1888 31.66 31.0881 31.6997 30.9918 31.7553L27.2562 33.9102C27.2058 33.9392 27.1502 33.9801 27.1032 34.0126C26.4343 33.8045 25.9793 33.23 25.872 32.6158C28.184 32.1135 29.842 30.0529 29.8435 27.6871C29.843 27.0224 29.7108 26.3645 29.4546 25.7512ZM41.3466 27.6787C40.9491 27.6771 40.6258 27.9994 40.625 28.3988V42.7878C40.6258 43.1872 40.9491 43.5095 41.3466 43.508H45.6536C46.0511 43.5095 46.3744 43.1872 46.3752 42.7878V28.3988C46.3744 27.9994 46.0511 27.6771 45.6536 27.6787H41.3466ZM19.7821 27.7053C19.7925 30.332 21.8135 32.5241 24.4331 32.7183C24.5177 33.3993 24.8245 34.0192 25.2866 34.5123C24.6965 34.7534 24.0569 34.8857 23.3732 34.8857C20.6038 34.8857 18.3432 32.6703 18.3432 29.8994V28.344C18.833 28.2514 19.3683 28.0146 19.7821 27.7053ZM16.3287 28.5405H16.9043V29.8994C16.9043 30.3793 16.9607 30.8449 17.0601 31.2948H16.9043C16.1018 31.2948 15.4667 30.633 15.4667 29.8559C15.4667 29.2781 15.8186 28.7659 16.3287 28.5405ZM42.0626 29.1245H44.9376V42.062H42.0626V29.1245ZM31.99 32.9092C32.2702 32.874 32.5479 33.0087 32.6947 33.2629L37.3639 41.3545C38.1665 42.7446 37.6847 44.4937 36.3138 45.2851C34.9429 46.0766 33.1899 45.6196 32.3873 44.2295L27.7125 36.1379C27.5181 35.8013 27.6222 35.362 27.9778 35.1567L31.7134 33.0032C31.8023 32.9519 31.8966 32.9209 31.99 32.9092ZM34.8749 33.437H37.7499V39.1449L34.8749 34.1698V33.437ZM26.1795 35.6943C26.1651 36.0118 26.2216 36.3257 26.3549 36.6349L23.7971 39.1996H22.9534L21.2183 37.4603V35.9568C21.8913 36.1909 22.6143 36.3246 23.3732 36.3246C24.3808 36.3246 25.3272 36.1023 26.1795 35.6943ZM19.6263 37.9053L21.6394 39.917L20.5023 41.0569L18.0807 38.6283L19.6263 37.9053ZM27.0906 37.9334L27.9311 39.3769L26.1907 40.9979L25.1097 39.9141L27.0906 37.9334ZM16.6951 39.2768L19.9927 42.58C20.2731 42.8587 20.7259 42.8587 21.0063 42.58L21.2225 42.3652L21.8963 43.0362L20.5964 52.1245H14.5542C13.8034 52.1245 13.0462 51.8225 12.5439 51.3762C12.0613 50.9475 11.7966 50.4003 11.8911 49.8054L13.1054 42.1813C13.2142 41.4973 13.538 41.0762 14.0025 40.7115C14.504 40.3178 15.2381 39.9732 16.0746 39.5688L16.6951 39.2768ZM28.7018 40.7133L31.1406 44.951C31.8574 46.1925 33.0954 46.9425 34.4214 47.082L34.8552 49.8054C34.9498 50.4003 34.6868 50.9509 34.208 51.3762C33.7058 51.8225 32.9471 52.1245 32.1963 52.1245H26.1542L24.857 43.0503L25.5393 42.3807L25.7386 42.58C26.0418 42.8852 26.5433 42.8576 26.8112 42.521L28.7018 40.7133ZM22.9534 40.6371H23.7971L24.5229 41.3629L23.3788 42.4887L22.2403 41.3474L22.9534 40.6371ZM23.1822 44.1887C23.3085 44.2239 23.442 44.2239 23.5683 44.1887L24.704 52.1245H22.0479L23.1822 44.1887Z" fill="url(#paint0_linear_1069_9374)"/>
<rect x="0.587156" y="-0.587156" width="62.8257" height="62.8257" rx="8.80734" transform="matrix(1 0 0 -1 0 62.8257)" stroke="url(#paint1_linear_1069_9374)" stroke-width="1.17431"/>
<defs>
<linearGradient id="paint0_linear_1069_9374" x1="10.438" y1="26.4032" x2="53.5865" y2="26.5968" gradientUnits="userSpaceOnUse">
<stop stop-color="#214F89"/>
<stop offset="1" stop-color="#12BCAB"/>
</linearGradient>
<linearGradient id="paint1_linear_1069_9374" x1="-9.95479e-09" y1="23.6946" x2="64.0349" y2="23.982" gradientUnits="userSpaceOnUse">
<stop stop-color="#214F89"/>
<stop offset="1" stop-color="#12BCAB"/>
</linearGradient>
</defs>
</svg>
