<svg width="64" height="64" viewBox="0 0 64 64" fill="none" xmlns="http://www.w3.org/2000/svg">
<g clip-path="url(#clip0_1088_1017)">
<path d="M53.877 45.8811H51.8196V42.5117C51.8196 42.1395 51.5179 41.8379 51.1458 41.8379C50.7737 41.8379 50.472 42.1395 50.472 42.5117V45.8811H37.9029V43.9508C38.0726 43.9664 38.2442 43.9755 38.4179 43.9755C40.7954 43.9755 42.8293 42.4806 43.6322 40.3819H47.7039C48.3314 40.3819 48.842 39.8713 48.842 39.2438V34.7473H50.472V39.3672C50.472 39.7394 50.7737 40.041 51.1458 40.041C51.5179 40.041 51.8196 39.7394 51.8196 39.3672V34.5227C51.8196 33.9034 51.3159 33.3997 50.6966 33.3997H48.842V14.5432C48.842 13.9156 48.3314 13.4051 47.7039 13.4051H34.8938C34.8351 13.2833 34.7734 13.163 34.7077 13.0448C34.5269 12.7195 34.1166 12.6024 33.7914 12.7832C33.4662 12.964 33.349 13.3742 33.5299 13.6995C33.9963 14.5387 34.2429 15.4917 34.2429 16.4556C34.2429 19.5895 31.6932 22.1392 28.5593 22.1392C25.4253 22.1392 22.8756 19.5895 22.8756 16.4556C22.8756 13.3216 25.4252 10.7719 28.5593 10.7719C29.638 10.7719 30.6889 11.0769 31.5981 11.6537C31.9122 11.8532 32.3286 11.76 32.5281 11.4457C32.7275 11.1316 32.6344 10.7151 32.3201 10.5158C31.1945 9.80169 29.8941 9.42426 28.5593 9.42426C24.6822 9.42426 21.528 12.5785 21.528 16.4556C21.528 20.1422 24.3804 23.173 27.994 23.4621V24.2842H18.2544V17.9413C18.2544 16.5791 17.1461 15.4708 15.7839 15.4708H10.123C9.50375 15.4709 9 15.9748 9 16.5939V18.5754C9 19.1946 9.50375 19.6983 10.123 19.6983H14.2573V50.0584C14.2573 50.9253 14.9627 51.6307 15.8296 51.6307H19.7035C19.8069 53.2719 21.1742 54.5757 22.8411 54.5757C24.5079 54.5757 25.8753 53.2719 25.9786 51.6307H27.5078C27.8799 51.6307 28.1816 51.3291 28.1816 50.9569C28.1816 50.5846 27.8799 50.283 27.5078 50.283H25.7676C25.308 49.1155 24.1698 48.2866 22.8411 48.2866C21.5123 48.2866 20.3742 49.1155 19.9145 50.283H18.2543V47.2288H53.6523V50.283H48.6905C48.2308 49.1155 47.0927 48.2866 45.7639 48.2866C44.4351 48.2866 43.297 49.1155 42.8373 50.283H30.6523C30.2802 50.283 29.9785 50.5846 29.9785 50.9569C29.9785 51.3291 30.2802 51.6307 30.6523 51.6307H42.6264C42.7297 53.2719 44.097 54.5757 45.7639 54.5757C47.4308 54.5757 48.7981 53.2719 48.9014 51.6307H53.877C54.4962 51.6307 55 51.1269 55 50.5076V47.0041C55 46.3849 54.4962 45.8811 53.877 45.8811ZM16.9067 50.283H15.8296C15.7058 50.283 15.605 50.1823 15.605 50.0584V19.0245C15.605 18.6523 15.3033 18.3507 14.9311 18.3507H10.3477V16.8186H15.7839C16.403 16.8186 16.9067 17.3222 16.9067 17.9414V50.283ZM22.8411 49.6343C23.8319 49.6343 24.6379 50.4404 24.6379 51.4311C24.6379 52.4219 23.8319 53.228 22.8411 53.228C21.8503 53.228 21.0442 52.4219 21.0442 51.4311C21.0442 50.4404 21.8503 49.6343 22.8411 49.6343ZM38.4179 42.6278C36.0834 42.6278 34.1842 40.7285 34.1842 38.3941C34.1842 36.0596 36.0834 34.1603 38.4179 34.1603C40.7524 34.1603 42.6517 36.0596 42.6517 38.3941C42.6517 40.7285 40.7524 42.6278 38.4179 42.6278ZM47.4943 14.7527V17.1195H35.5582C35.5787 16.9008 35.5904 16.6796 35.5904 16.4556C35.5904 15.8801 35.5186 15.3078 35.3802 14.7527H47.4943ZM29.3415 23.4423C30.5587 23.3068 31.6825 22.8589 32.632 22.1815H39.322C39.6941 22.1815 39.9958 21.8799 39.9958 21.5077C39.9958 21.1355 39.6941 20.8339 39.322 20.8339H34.054C34.6083 20.1396 35.0349 19.3391 35.2957 18.4671H47.4943V39.0342H43.9614C43.9856 38.824 43.9993 38.6107 43.9993 38.3941C43.9993 35.3165 41.4954 32.8126 38.4178 32.8126C35.3402 32.8126 32.8364 35.3165 32.8364 38.3941C32.8364 38.6107 32.8501 38.824 32.8743 39.0342H29.3415V23.4423ZM33.2037 40.3819C33.7861 41.9042 35.016 43.108 36.5553 43.6547V45.8811H18.2544V34.7473H24.2826V37.9074C24.2826 38.4276 24.7058 38.8508 25.226 38.8508H27.994V39.2438C27.994 39.8713 28.5045 40.3819 29.1321 40.3819H33.2037ZM25.6303 34.7473H27.994V37.5031H25.6303V34.7473ZM22.7217 25.632H25.2896V27.8099H22.7217V25.632ZM21.3741 25.632V28.2142C21.3741 28.7344 21.7973 29.1575 22.3174 29.1575H25.6939C26.2141 29.1575 26.6372 28.7344 26.6372 28.2142V25.632H27.9939V33.3997H18.2544V25.632H21.3741ZM45.7639 53.228C44.7731 53.228 43.967 52.4219 43.967 51.4311C43.967 50.4404 44.7731 49.6343 45.7639 49.6343C46.7547 49.6343 47.5608 50.4404 47.5608 51.4311C47.5608 52.4219 46.7547 53.228 45.7639 53.228Z" fill="url(#paint0_linear_1088_1017)"/>
<path d="M40.1598 36.7754L38.1065 38.8288L36.6766 37.3989C36.4135 37.1359 35.9868 37.1359 35.7237 37.3989C35.4606 37.6622 35.4606 38.0888 35.7237 38.3519L37.63 40.2582C37.7616 40.3897 37.9341 40.4555 38.1065 40.4555C38.2789 40.4555 38.4514 40.3897 38.5829 40.2582L41.1127 37.7284C41.3759 37.4651 41.3759 37.0386 41.1127 36.7754C40.8496 36.5124 40.4229 36.5124 40.1598 36.7754Z" fill="url(#paint1_linear_1088_1017)"/>
<path d="M43.7793 22.1815H44.4293C44.8014 22.1815 45.1031 21.8799 45.1031 21.5077C45.1031 21.1355 44.8014 20.8339 44.4293 20.8339H43.7793C43.4072 20.8339 43.1055 21.1355 43.1055 21.5077C43.1055 21.8799 43.4072 22.1815 43.7793 22.1815Z" fill="url(#paint2_linear_1088_1017)"/>
<path d="M32.4062 25.153H44.4289C44.801 25.153 45.1027 24.8514 45.1027 24.4792C45.1027 24.107 44.801 23.8054 44.4289 23.8054H32.4062C32.0341 23.8054 31.7324 24.107 31.7324 24.4792C31.7324 24.8514 32.0341 25.153 32.4062 25.153Z" fill="url(#paint3_linear_1088_1017)"/>
<path d="M44.4292 26.7768H37.5576C37.1855 26.7768 36.8838 27.0784 36.8838 27.4506C36.8838 27.8228 37.1855 28.1245 37.5576 28.1245H44.4292C44.8014 28.1245 45.1031 27.8228 45.1031 27.4506C45.1031 27.0784 44.8014 26.7768 44.4292 26.7768Z" fill="url(#paint4_linear_1088_1017)"/>
<path d="M32.4062 28.1245H35.5144C35.8865 28.1245 36.1882 27.8228 36.1882 27.4506C36.1882 27.0784 35.8865 26.7768 35.5144 26.7768H32.4062C32.0341 26.7768 31.7324 27.0784 31.7324 27.4506C31.7324 27.8228 32.0341 28.1245 32.4062 28.1245Z" fill="url(#paint5_linear_1088_1017)"/>
<path d="M45.1027 30.4222C45.1027 30.05 44.801 29.7484 44.4289 29.7484H32.4062C32.0341 29.7484 31.7324 30.05 31.7324 30.4222C31.7324 30.7944 32.0341 31.096 32.4062 31.096H44.4289C44.801 31.096 45.1027 30.7943 45.1027 30.4222Z" fill="url(#paint6_linear_1088_1017)"/>
<path d="M28.5596 20.6265C28.9317 20.6265 29.2334 20.3249 29.2334 19.9527V19.6663H29.7229C30.7879 19.6663 31.6544 18.7997 31.6544 17.7347C31.6544 16.6697 30.7879 15.8032 29.7229 15.8032H27.3986C27.0754 15.8032 26.8124 15.5402 26.8124 15.2171V15.1788C26.8124 15.0222 26.8734 14.8749 26.9841 14.7642C27.0948 14.6535 27.242 14.5925 27.3986 14.5925H30.1932C30.5654 14.5925 30.8671 14.2909 30.8671 13.9187C30.8671 13.5465 30.5654 13.2449 30.1932 13.2449H29.2335V12.9586C29.2335 12.5863 28.9318 12.2847 28.5597 12.2847C28.1876 12.2847 27.8859 12.5863 27.8859 12.9586V13.245H27.3986C26.882 13.245 26.3964 13.4461 26.0312 13.8114C25.6659 14.1767 25.4648 14.6624 25.4648 15.179V15.2173C25.4649 16.2836 26.3324 17.151 27.3986 17.151H29.723C30.0449 17.151 30.3069 17.4129 30.3069 17.7349C30.3069 18.0569 30.0449 18.3188 29.723 18.3188H26.9046C26.5325 18.3188 26.2308 18.6204 26.2308 18.9926C26.2308 19.3649 26.5325 19.6665 26.9046 19.6665H27.8858V19.9529C27.8858 20.3249 28.1875 20.6265 28.5596 20.6265Z" fill="url(#paint7_linear_1088_1017)"/>
</g>
<rect x="0.587156" y="-0.587156" width="62.8257" height="62.8257" rx="8.80734" transform="matrix(1 0 0 -1 0 62.8257)" stroke="url(#paint8_linear_1088_1017)" stroke-width="1.17431"/>
<defs>
<linearGradient id="paint0_linear_1088_1017" x1="9" y1="26.1406" x2="55.025" y2="26.3511" gradientUnits="userSpaceOnUse">
<stop stop-color="#214F89"/>
<stop offset="1" stop-color="#12BCAB"/>
</linearGradient>
<linearGradient id="paint1_linear_1088_1017" x1="35.5264" y1="38.0137" x2="41.3131" y2="38.0524" gradientUnits="userSpaceOnUse">
<stop stop-color="#214F89"/>
<stop offset="1" stop-color="#12BCAB"/>
</linearGradient>
<linearGradient id="paint2_linear_1088_1017" x1="43.1055" y1="21.3328" x2="45.1042" y2="21.3461" gradientUnits="userSpaceOnUse">
<stop stop-color="#214F89"/>
<stop offset="1" stop-color="#12BCAB"/>
</linearGradient>
<linearGradient id="paint3_linear_1088_1017" x1="31.7324" y1="24.3043" x2="45.0838" y2="24.8988" gradientUnits="userSpaceOnUse">
<stop stop-color="#214F89"/>
<stop offset="1" stop-color="#12BCAB"/>
</linearGradient>
<linearGradient id="paint4_linear_1088_1017" x1="36.8838" y1="27.2757" x2="45.1015" y2="27.5007" gradientUnits="userSpaceOnUse">
<stop stop-color="#214F89"/>
<stop offset="1" stop-color="#12BCAB"/>
</linearGradient>
<linearGradient id="paint5_linear_1088_1017" x1="31.7324" y1="27.2757" x2="36.1898" y2="27.3419" gradientUnits="userSpaceOnUse">
<stop stop-color="#214F89"/>
<stop offset="1" stop-color="#12BCAB"/>
</linearGradient>
<linearGradient id="paint6_linear_1088_1017" x1="31.7324" y1="30.2473" x2="45.0838" y2="30.8418" gradientUnits="userSpaceOnUse">
<stop stop-color="#214F89"/>
<stop offset="1" stop-color="#12BCAB"/>
</linearGradient>
<linearGradient id="paint7_linear_1088_1017" x1="25.4648" y1="15.3731" x2="31.6579" y2="15.3937" gradientUnits="userSpaceOnUse">
<stop stop-color="#214F89"/>
<stop offset="1" stop-color="#12BCAB"/>
</linearGradient>
<linearGradient id="paint8_linear_1088_1017" x1="-9.95479e-09" y1="23.6946" x2="64.0349" y2="23.982" gradientUnits="userSpaceOnUse">
<stop stop-color="#214F89"/>
<stop offset="1" stop-color="#12BCAB"/>
</linearGradient>
<clipPath id="clip0_1088_1017">
<rect width="46" height="46" fill="white" transform="translate(9 9)"/>
</clipPath>
</defs>
</svg>
