<svg width="1920" height="599" viewBox="0 0 1920 599" fill="none" xmlns="http://www.w3.org/2000/svg">
<g clip-path="url(#clip0_406_4360)">
<rect width="1920" height="599" fill="url(#paint0_linear_406_4360)"/>
<path d="M1461.16 1295.95C1461.16 1295.95 1798.4 1136.26 1741.83 877.463C1685.26 618.668 2010.05 441.206 2077.57 234.883C2145.09 28.5607 1722.04 -371.531 1254.21 -102.181C786.382 167.169 826.148 -15.0151 569.235 -133.002C312.322 -250.989 -457.586 213.955 -9.62513 649.589C438.335 1085.22 40.8169 1291.35 246.26 1516.6C451.703 1741.85 833.56 1115.05 1000.35 1190.6C1167.13 1266.15 1440.94 1307.27 1461.16 1295.95Z" stroke="white" stroke-opacity="0.04" stroke-width="0.6" stroke-miterlimit="10"/>
<path d="M1452.7 1281.7C1452.7 1281.7 1783.87 1124.65 1728.17 870.584C1672.47 616.513 1991.2 442.198 2057.38 239.574C2123.55 36.9505 1707.81 -355.997 1248.62 -91.2706C789.43 173.456 828.522 -5.08754 576.197 -120.78C323.872 -236.472 -431.882 220.551 8.20392 648.012C448.296 1075.49 58.1948 1278.04 260.023 1499.09C461.852 1720.13 836.443 1104.48 1000.25 1178.56C1164.06 1252.65 1432.86 1292.82 1452.7 1281.7Z" stroke="white" stroke-opacity="0.04" stroke-width="0.6" stroke-miterlimit="10"/>
<path d="M1444.26 1267.44C1444.26 1267.44 1769.35 1113.03 1714.54 863.691C1659.73 614.356 1972.39 443.178 2037.22 244.252C2102.06 45.3274 1693.61 -340.477 1243.05 -80.3669C792.503 179.754 830.901 4.85814 583.177 -108.564C335.452 -221.987 -406.167 227.122 26.051 646.429C458.251 1065.74 75.5659 1264.71 273.815 1481.55C472.047 1698.39 839.354 1093.89 1000.17 1166.51C1160.99 1239.13 1424.78 1278.35 1444.25 1267.42L1444.26 1267.44Z" stroke="white" stroke-opacity="0.04" stroke-width="0.6" stroke-miterlimit="10"/>
<path d="M1435.8 1253.19C1435.8 1253.19 1754.82 1101.42 1700.87 856.794C1646.93 612.183 1953.55 444.145 2017.04 248.919C2080.54 53.7106 1679.38 -324.961 1237.47 -69.4808C795.563 186.017 833.286 14.7615 590.151 -96.3665C347.015 -207.494 -380.452 233.694 43.8803 644.853C468.212 1056.01 92.9371 1251.39 287.578 1464.04C482.22 1676.69 842.236 1083.32 1000.07 1154.47C1157.92 1225.63 1416.7 1263.9 1435.79 1253.15L1435.8 1253.19Z" stroke="white" stroke-opacity="0.04" stroke-width="0.6" stroke-miterlimit="10"/>
<path d="M1427.34 1238.95C1427.34 1238.95 1740.29 1089.82 1687.23 849.925C1634.18 610.033 1934.72 445.149 1996.88 253.639C2059.01 62.1183 1665.17 -309.416 1231.89 -58.5348C798.624 192.34 835.655 24.7314 597.125 -84.1086C358.578 -192.942 -354.741 240.307 61.7223 643.312C478.186 1046.32 110.31 1238.12 301.354 1446.56C492.399 1655 845.132 1072.8 999.995 1142.48C1154.86 1212.17 1408.63 1249.49 1427.34 1238.95Z" stroke="white" stroke-opacity="0.04" stroke-width="0.6" stroke-miterlimit="10"/>
<path d="M1418.9 1224.69C1418.9 1224.69 1725.78 1078.21 1673.59 843.039C1621.4 607.872 1915.91 446.128 1976.71 258.324C2037.51 70.5194 1650.96 -293.888 1226.32 -47.613C801.686 198.662 838.053 34.6707 604.094 -71.8684C370.136 -178.408 -329.031 246.921 79.5578 641.754C488.153 1036.6 127.687 1224.81 315.142 1429.06C502.589 1633.3 848.038 1062.24 999.911 1130.48C1151.78 1198.71 1400.54 1235.08 1418.89 1224.72L1418.9 1224.69Z" stroke="white" stroke-opacity="0.04" stroke-width="0.6" stroke-miterlimit="10"/>
<path d="M1410.44 1210.44C1410.44 1210.44 1711.24 1066.59 1659.94 836.153C1608.65 605.721 1897.08 447.114 1956.54 263.009C2015.99 78.9028 1636.75 -278.361 1220.75 -36.7091C804.752 204.943 840.451 44.6097 611.074 -59.6529C381.716 -163.922 -303.316 253.493 97.4052 640.171C498.108 1026.86 145.065 1211.51 328.916 1411.53C512.774 1611.57 850.932 1051.66 999.825 1118.41C1148.72 1185.17 1392.45 1220.59 1410.44 1210.44Z" stroke="white" stroke-opacity="0.04" stroke-width="0.6" stroke-miterlimit="10"/>
<path d="M1401.98 1196.19C1401.98 1196.19 1696.71 1054.98 1646.28 829.274C1595.85 603.566 1878.24 448.082 1936.36 267.693C1994.48 87.304 1622.52 -262.827 1215.16 -25.7989C807.801 211.23 842.806 54.5439 618.036 -47.4307C393.266 -149.405 -277.612 260.088 115.216 638.601C508.051 1017.13 162.418 1198.19 342.661 1394.03C522.922 1589.86 853.797 1041.1 999.716 1106.4C1145.64 1171.69 1384.36 1206.17 1401.96 1196.2L1401.98 1196.19Z" stroke="white" stroke-opacity="0.04" stroke-width="0.6" stroke-miterlimit="10"/>
<path d="M1393.54 1181.95C1393.54 1181.95 1682.19 1043.37 1632.63 822.388C1583.09 601.398 1859.41 449.068 1916.19 272.378C1972.97 95.6872 1608.3 -247.3 1209.59 -14.8951C810.867 217.51 845.198 64.465 625.016 -35.2152C404.835 -134.895 -251.897 266.66 133.07 637.036C518.037 1007.41 179.802 1184.9 356.466 1376.52C533.13 1568.15 856.721 1030.54 999.643 1094.37C1142.57 1158.19 1376.29 1191.71 1393.53 1181.96L1393.54 1181.95Z" stroke="white" stroke-opacity="0.04" stroke-width="0.6" stroke-miterlimit="10"/>
<path d="M1385.08 1167.7C1385.08 1167.7 1667.66 1031.77 1618.99 815.502C1570.31 599.237 1840.58 450.054 1896.02 277.062C1951.45 104.071 1594.09 -231.773 1204.01 -3.99129C813.94 223.808 847.577 74.4106 631.996 -22.9995C416.415 -120.41 -226.176 273.249 150.917 635.453C528.009 997.657 197.192 1171.56 370.247 1359C543.296 1546.43 859.622 1019.97 999.57 1082.34C1139.52 1144.7 1368.23 1177.28 1385.08 1167.7Z" stroke="white" stroke-opacity="0.04" stroke-width="0.6" stroke-miterlimit="10"/>
<path d="M1376.62 1153.44C1376.62 1153.44 1653.13 1020.14 1605.33 808.622C1557.53 597.099 1821.75 451.04 1875.83 281.753C1929.92 112.46 1579.86 -216.257 1198.4 6.92542C816.952 230.108 849.933 84.3449 638.941 -10.7709C427.948 -105.887 -200.478 279.827 168.728 633.883C537.934 987.939 214.534 1158.27 384.004 1341.48C553.463 1524.71 862.497 1009.39 999.449 1070.29C1136.4 1131.18 1360.12 1162.82 1376.6 1153.43L1376.62 1153.44Z" stroke="white" stroke-opacity="0.04" stroke-width="0.6" stroke-miterlimit="10"/>
<path d="M1368.18 1139.19C1368.18 1139.19 1638.61 1008.53 1591.7 801.729C1544.78 594.925 1802.94 452.019 1855.7 286.443C1908.45 120.849 1565.67 -200.718 1192.88 17.8522C820.085 236.405 852.373 94.2891 645.969 1.46779C439.565 -91.3535 -174.708 286.44 186.624 632.323C547.962 978.225 231.971 1144.96 397.833 1323.98C563.696 1503.01 865.428 998.85 999.425 1058.28C1133.42 1117.71 1352.1 1148.39 1368.21 1139.2L1368.18 1139.19Z" stroke="white" stroke-opacity="0.04" stroke-width="0.6" stroke-miterlimit="10"/>
<path d="M1359.73 1124.95C1359.73 1124.95 1624.08 996.93 1578.03 794.85C1531.99 592.77 1784.09 453.011 1835.51 291.134C1886.92 129.256 1551.44 -185.185 1187.29 28.7624C823.14 242.709 854.735 104.241 652.931 13.6899C451.128 -76.8614 -149.01 293.018 204.435 630.754C557.899 968.483 249.313 1131.67 411.579 1306.48C573.844 1481.3 868.293 988.293 999.309 1046.24C1130.31 1104.2 1344 1133.95 1359.73 1124.95Z" stroke="white" stroke-opacity="0.04" stroke-width="0.6" stroke-miterlimit="10"/>
<path d="M1351.27 1110.7C1351.27 1110.7 1609.55 985.326 1564.37 787.97C1519.21 590.608 1765.26 453.997 1815.31 295.825C1865.37 137.652 1537.21 -169.651 1181.68 39.6793C826.171 249.003 857.091 114.175 659.876 25.9185C462.66 -62.3384 -123.325 299.62 222.253 629.201C567.848 958.777 266.673 1118.36 425.342 1288.97C584.01 1459.58 871.175 977.73 999.201 1034.23C1127.23 1090.73 1335.89 1119.5 1351.25 1110.71L1351.27 1110.7Z" stroke="white" stroke-opacity="0.04" stroke-width="0.6" stroke-miterlimit="10"/>
<path d="M1342.82 1096.44C1342.82 1096.44 1595.03 973.697 1550.74 781.078C1506.46 588.458 1746.45 454.977 1795.16 300.503C1843.87 146.029 1523.01 -154.13 1176.12 50.5766C829.237 255.283 859.482 124.097 666.874 38.1277C474.247 -47.8347 -97.5916 306.185 240.118 627.612C577.827 949.04 284.062 1105.03 439.14 1271.45C594.219 1437.86 874.093 967.153 999.139 1022.17C1124.19 1077.2 1327.84 1105.04 1342.82 1096.44Z" stroke="white" stroke-opacity="0.04" stroke-width="0.6" stroke-miterlimit="10"/>
<path d="M1334.36 1082.19C1334.36 1082.19 1580.5 962.093 1537.08 774.198C1493.68 586.296 1727.6 455.969 1774.99 305.187C1822.36 154.412 1508.78 -138.596 1170.55 61.4804C832.31 261.582 861.874 134.018 673.836 50.3497C485.798 -33.3184 -71.8878 312.781 257.947 626.036C587.782 939.291 301.44 1091.72 452.921 1253.93C604.403 1416.14 876.994 956.584 999.066 1010.15C1121.12 1063.71 1319.76 1090.6 1334.38 1082.18L1334.36 1082.19Z" stroke="white" stroke-opacity="0.04" stroke-width="0.6" stroke-miterlimit="10"/>
<path d="M1325.9 1067.94C1325.9 1067.94 1565.96 950.471 1523.43 767.312C1480.9 584.135 1708.79 456.948 1754.81 309.872C1800.85 162.814 1494.56 -123.087 1164.96 72.3907C835.358 267.868 864.254 143.963 680.798 62.5717C497.36 -18.8262 -46.1906 319.358 275.776 624.459C597.743 929.56 318.793 1078.41 466.684 1236.42C614.575 1394.44 879.876 946.02 998.951 998.111C1118.03 1050.2 1311.65 1076.15 1325.9 1067.94Z" stroke="white" stroke-opacity="0.04" stroke-width="0.6" stroke-miterlimit="10"/>
<path d="M1317.47 1053.7C1317.47 1053.7 1551.45 938.878 1509.79 760.426C1468.14 581.967 1689.96 457.934 1734.64 314.557C1779.33 171.179 1480.35 -107.56 1159.39 83.2946C838.424 274.149 866.627 153.891 687.778 74.7876C508.929 -4.31594 -20.4689 325.948 293.612 622.901C607.693 919.854 336.177 1065.12 480.447 1218.91C624.735 1372.7 882.758 935.457 998.861 986.088C1114.96 1036.72 1303.57 1061.71 1317.44 1053.68L1317.47 1053.7Z" stroke="white" stroke-opacity="0.04" stroke-width="0.6" stroke-miterlimit="10"/>
<path d="M1309 1039.44C1309 1039.44 1536.92 927.274 1496.14 753.54C1455.37 579.823 1671.13 458.92 1714.47 319.259C1757.82 179.598 1466.15 -92.0146 1153.83 94.2342C841.504 280.465 869.031 163.848 694.771 87.039C520.51 10.2298 5.25928 332.555 311.472 621.354C617.684 910.153 353.562 1051.83 494.259 1201.43C634.957 1351.02 885.689 924.916 998.794 974.077C1111.9 1023.24 1295.51 1047.29 1309.01 1039.46L1309 1039.44Z" stroke="white" stroke-opacity="0.04" stroke-width="0.6" stroke-miterlimit="10"/>
<path d="M1300.54 1025.19C1300.54 1025.19 1522.37 915.659 1482.48 746.66C1442.58 577.668 1652.29 459.888 1694.3 323.943C1736.31 187.981 1451.92 -76.4809 1148.24 105.144C844.558 286.77 871.393 173.8 701.733 99.2612C532.073 24.7221 30.963 339.151 329.301 619.777C627.639 900.404 370.939 1038.52 508.022 1183.92C645.123 1329.31 888.572 914.353 998.703 962.054C1108.84 1009.76 1287.43 1032.84 1300.55 1025.21L1300.54 1025.19Z" stroke="white" stroke-opacity="0.04" stroke-width="0.6" stroke-miterlimit="10"/>
<path d="M1292.1 1010.93C1292.1 1010.93 1507.85 904.048 1468.83 739.774C1429.82 575.5 1633.46 460.874 1674.13 328.628C1714.79 196.365 1437.7 -60.9535 1142.66 116.048C847.625 293.05 873.785 183.721 708.713 111.477C543.641 39.2321 56.6782 345.722 347.148 618.194C637.618 890.667 388.31 1025.19 521.814 1166.38C655.3 1307.56 891.483 903.759 998.635 949.983C1105.79 996.225 1279.37 1018.36 1292.12 1010.93L1292.1 1010.93Z" stroke="white" stroke-opacity="0.04" stroke-width="0.6" stroke-miterlimit="10"/>
<path d="M1283.65 996.699C1283.65 996.699 1493.32 892.444 1455.2 732.906C1417.05 573.356 1614.65 461.871 1653.96 333.331C1693.29 204.784 1423.5 -45.4085 1137.08 126.976C850.68 299.355 876.165 193.667 715.682 123.717C555.198 53.7665 82.3884 352.336 364.966 616.642C647.55 880.967 405.677 1011.91 535.566 1148.89C665.455 1285.87 894.354 893.219 998.515 937.991C1102.69 982.756 1271.26 1003.96 1283.63 996.706L1283.65 996.699Z" stroke="white" stroke-opacity="0.04" stroke-width="0.6" stroke-miterlimit="10"/>
<path d="M1275.19 982.447C1275.19 982.447 1478.79 880.84 1441.53 726.008C1404.27 571.195 1595.8 462.845 1633.77 338.004C1671.73 213.162 1409.25 -29.9105 1131.48 137.869C853.728 305.642 878.514 203.583 722.637 135.921C566.761 68.2586 108.079 358.896 382.795 615.066C657.511 871.236 423.03 998.59 549.329 1131.38C675.628 1264.17 897.237 882.656 998.418 925.95C1099.61 969.262 1263.17 989.498 1275.17 982.453L1275.19 982.447Z" stroke="white" stroke-opacity="0.04" stroke-width="0.6" stroke-miterlimit="10"/>
<path d="M1266.74 968.188C1266.74 968.188 1464.27 869.211 1427.9 719.116C1391.51 569.027 1576.98 463.825 1613.63 342.675C1650.26 221.532 1395.06 -14.3897 1125.94 148.76C856.83 311.909 880.948 213.51 729.653 148.124C578.359 82.738 133.837 365.472 400.678 613.47C667.519 861.468 440.455 985.245 563.164 1113.84C685.866 1242.43 900.191 872.067 998.399 913.902C1096.61 955.736 1255.16 975.043 1266.78 968.175L1266.74 968.188Z" stroke="white" stroke-opacity="0.04" stroke-width="0.6" stroke-miterlimit="10"/>
<path d="M1258.28 953.936C1258.28 953.936 1449.74 857.607 1414.24 712.236C1378.73 566.865 1558.15 464.81 1593.44 347.366C1628.72 229.922 1380.83 1.14398 1120.34 159.677C859.843 318.209 883.285 223.45 736.579 160.359C589.874 97.2674 159.498 372.063 418.471 611.907C677.444 851.75 457.779 971.957 576.884 1096.33C695.99 1220.7 903.031 861.498 998.242 901.862C1093.48 942.237 1246.99 960.585 1258.26 953.925L1258.28 953.936Z" stroke="white" stroke-opacity="0.04" stroke-width="0.6" stroke-miterlimit="10"/>
<path d="M1249.83 939.702C1249.83 939.702 1435.21 846.003 1400.58 705.374C1365.95 564.746 1539.31 465.821 1573.26 352.093C1607.21 238.366 1366.61 16.7136 1114.76 170.641C862.917 324.568 885.678 233.432 743.561 172.635C601.444 111.838 185.221 378.713 436.32 610.384C687.407 842.08 475.152 958.692 590.667 1078.87C706.182 1199.06 905.914 850.995 998.17 889.893C1090.41 928.798 1238.93 946.209 1249.82 939.726L1249.83 939.702Z" stroke="white" stroke-opacity="0.04" stroke-width="0.6" stroke-miterlimit="10"/>
<path d="M1241.39 925.443C1241.39 925.443 1420.69 834.393 1386.95 698.482C1353.21 562.571 1520.5 466.8 1553.1 356.771C1585.71 246.742 1352.42 32.2343 1109.21 181.538C866.001 330.842 888.094 243.364 750.559 184.844C613.042 126.317 210.954 385.278 454.167 608.801C697.379 832.325 492.547 945.377 604.465 1061.35C716.384 1177.32 908.833 840.419 998.091 877.846C1087.35 915.273 1230.86 931.737 1241.37 925.468L1241.39 925.443Z" stroke="white" stroke-opacity="0.04" stroke-width="0.6" stroke-miterlimit="10"/>
<path d="M1232.93 911.191C1232.93 911.191 1406.16 822.771 1373.28 691.584C1340.41 560.398 1501.66 467.768 1532.93 361.438C1564.19 255.108 1338.18 47.7502 1103.61 192.43C869.043 337.111 890.443 253.281 757.515 197.048C624.586 140.816 236.652 391.856 471.996 607.225C707.34 822.594 509.9 932.058 618.222 1043.82C726.543 1155.59 911.709 829.838 997.994 865.805C1084.28 901.773 1222.77 917.289 1232.91 911.198L1232.93 911.191Z" stroke="white" stroke-opacity="0.04" stroke-width="0.6" stroke-miterlimit="10"/>
<path d="M1224.47 896.939C1224.47 896.939 1391.62 811.167 1359.64 684.698C1327.63 558.237 1482.83 468.754 1512.75 366.122C1542.68 263.491 1323.96 63.2595 1098.04 203.334C872.11 343.391 892.835 263.202 764.495 209.264C636.155 155.326 262.367 398.427 489.843 605.642C717.319 812.857 527.296 918.744 632.021 1026.3C736.746 1133.86 914.627 819.261 997.932 853.752C1081.24 888.242 1214.72 902.811 1224.48 896.933L1224.47 896.939Z" stroke="white" stroke-opacity="0.04" stroke-width="0.6" stroke-miterlimit="10"/>
<path d="M1216.03 882.698C1216.03 882.698 1377.11 799.556 1346 677.83C1314.88 556.104 1464.01 469.757 1492.59 370.825C1521.17 271.892 1309.76 78.8047 1092.47 214.256C875.189 349.707 895.221 273.165 771.481 221.497C647.741 169.829 288.095 405.034 507.697 604.077C727.28 803.126 544.674 905.436 645.808 1008.8C746.943 1112.17 917.534 808.709 997.848 841.747C1078.16 874.784 1206.64 888.399 1216.03 882.698Z" stroke="white" stroke-opacity="0.04" stroke-width="0.6" stroke-miterlimit="10"/>
<path d="M1207.57 868.446C1207.57 868.446 1362.58 787.952 1332.35 670.944C1302.11 553.943 1445.19 470.737 1472.41 375.509C1499.64 280.3 1295.54 94.3319 1086.88 225.166C878.237 355.994 897.594 283.093 778.443 233.719C659.292 184.346 313.81 411.606 525.508 602.507C737.206 793.408 562.034 892.135 659.553 991.299C757.073 1090.46 920.398 798.152 997.733 829.713C1075.07 861.291 1198.54 873.958 1207.55 868.453L1207.57 868.446Z" stroke="white" stroke-opacity="0.04" stroke-width="0.6" stroke-miterlimit="10"/>
<path d="M1199.11 854.194C1199.11 854.194 1348.04 776.33 1318.68 664.047C1289.32 551.763 1426.34 471.711 1452.23 380.176C1478.12 288.665 1281.31 109.848 1081.3 236.052C881.297 362.256 899.979 292.996 785.417 245.917C670.854 198.838 339.526 418.177 543.349 600.906C747.196 783.647 579.398 878.792 673.339 973.74C767.28 1068.69 923.303 787.54 997.665 817.641C1072.03 847.742 1190.48 859.462 1199.11 854.152L1199.11 854.194Z" stroke="white" stroke-opacity="0.04" stroke-width="0.6" stroke-miterlimit="10"/>
<path d="M1190.66 839.935C1190.66 839.935 1333.53 764.719 1305.04 657.16C1276.54 549.602 1407.52 472.673 1432.07 384.879C1456.61 297.067 1267.1 125.393 1075.72 246.998C884.347 368.604 902.348 302.966 792.392 258.175C682.436 213.384 365.236 424.791 561.197 599.384C757.158 773.976 596.795 865.538 687.122 956.284C777.448 1047.03 926.205 777.031 997.575 805.679C1068.95 834.326 1182.4 845.092 1190.66 839.978L1190.66 839.935Z" stroke="white" stroke-opacity="0.04" stroke-width="0.6" stroke-miterlimit="10"/>
<path d="M1182.2 825.683C1182.2 825.683 1318.99 753.097 1291.39 650.274C1263.79 547.451 1388.69 473.658 1411.89 389.563C1435.1 305.45 1252.89 140.92 1070.15 257.902C887.413 374.884 904.746 312.906 799.354 270.397C693.98 227.882 390.939 431.387 579.026 597.807C767.113 764.228 614.149 852.219 700.902 938.768C787.638 1025.32 929.105 766.461 997.496 793.631C1065.89 820.802 1174.31 830.626 1182.21 825.701L1182.2 825.683Z" stroke="white" stroke-opacity="0.04" stroke-width="0.6" stroke-miterlimit="10"/>
<path d="M1173.75 811.449C1173.75 811.449 1304.47 741.511 1277.73 643.413C1251 545.314 1369.85 474.669 1391.71 394.272C1413.58 313.875 1238.67 156.472 1064.57 268.83C890.468 381.189 907.108 322.858 806.323 282.637C705.537 242.417 416.643 437.983 596.862 596.249C777.08 754.515 631.526 838.911 714.665 921.258C797.804 1003.61 931.987 755.897 997.387 781.615C1062.81 807.326 1166.21 816.203 1173.74 811.473L1173.75 811.449Z" stroke="white" stroke-opacity="0.04" stroke-width="0.6" stroke-miterlimit="10"/>
<path d="M1165.31 797.19C1165.31 797.19 1289.95 729.9 1264.11 636.52C1238.26 543.14 1351.05 475.642 1371.56 398.95C1392.08 322.252 1224.45 171.981 1058.99 279.734C893.541 387.487 909.499 332.779 813.303 294.853C717.106 256.927 442.365 444.572 614.691 594.672C787.042 744.784 648.886 825.61 728.428 903.748C807.971 981.887 934.87 745.334 997.29 769.574C1059.71 793.815 1158.12 801.738 1165.27 797.203L1165.31 797.19Z" stroke="white" stroke-opacity="0.04" stroke-width="0.6" stroke-miterlimit="10"/>
<path d="M1156.85 782.938C1156.85 782.938 1275.41 718.278 1250.44 629.623C1225.46 540.967 1332.2 476.616 1351.38 403.617C1370.56 330.618 1210.23 187.49 1053.41 290.62C896.601 393.749 911.891 342.7 820.276 307.051C728.662 271.401 468.074 451.126 632.532 593.072C796.99 735.018 666.269 812.26 742.221 886.208C818.166 960.138 937.781 734.74 997.229 757.521C1056.68 780.302 1150.07 787.277 1156.86 782.932L1156.85 782.938Z" stroke="white" stroke-opacity="0.04" stroke-width="0.6" stroke-miterlimit="10"/>
<path d="M1148.39 768.686C1148.39 768.686 1260.88 706.674 1236.77 622.743C1212.67 538.83 1313.35 477.608 1331.19 408.308C1349.02 339.007 1196 203.024 1047.82 301.53C899.649 400.036 914.246 352.634 827.238 319.273C740.231 285.911 493.777 457.722 650.367 591.513C806.957 725.305 683.635 798.977 755.99 868.716C828.345 938.456 940.67 724.194 997.12 745.504C1053.57 766.815 1141.96 772.836 1148.39 768.686Z" stroke="white" stroke-opacity="0.04" stroke-width="0.6" stroke-miterlimit="10"/>
<path d="M1139.95 754.445C1139.95 754.445 1246.37 695.064 1223.15 615.868C1199.93 536.673 1294.56 478.599 1311.04 413.004C1327.52 347.409 1181.81 218.563 1042.26 312.452C902.729 406.353 916.644 362.573 834.225 331.506C751.806 300.439 519.499 464.311 668.221 589.948C816.943 715.586 701.031 785.662 769.771 851.2C838.53 916.731 943.571 713.624 997.047 733.475C1050.52 753.326 1133.9 758.4 1139.95 754.445Z" stroke="white" stroke-opacity="0.04" stroke-width="0.6" stroke-miterlimit="10"/>
<path d="M1131.49 740.193C1131.49 740.193 1231.84 683.46 1209.49 608.989C1187.14 534.518 1275.71 479.591 1290.85 417.713C1306 355.834 1167.57 234.121 1036.68 323.398C905.79 412.675 919.013 372.543 841.2 343.764C763.363 314.974 545.216 470.943 686.045 588.414C826.892 705.879 718.385 772.403 783.547 833.726C848.709 895.048 946.448 703.103 996.963 721.47C1047.47 739.862 1125.83 743.988 1131.5 740.211L1131.49 740.193Z" stroke="white" stroke-opacity="0.04" stroke-width="0.6" stroke-miterlimit="10"/>
<path d="M1123.03 725.941C1123.03 725.941 1217.3 671.838 1195.84 602.103C1174.38 532.35 1256.88 480.577 1270.7 422.391C1284.52 364.204 1153.37 249.642 1031.12 334.296C908.874 418.949 921.428 382.476 848.198 355.973C774.967 329.471 570.949 477.507 703.91 586.825C836.871 696.142 735.792 759.065 797.346 816.203C858.917 873.335 949.366 692.527 996.89 709.441C1044.41 726.355 1117.76 729.534 1123.06 725.97L1123.03 725.941Z" stroke="white" stroke-opacity="0.04" stroke-width="0.6" stroke-miterlimit="10"/>
<path d="M1114.59 711.683C1114.59 711.683 1202.79 660.227 1182.19 595.199C1161.6 530.188 1238.06 481.539 1250.52 427.057C1262.98 372.576 1139.15 265.133 1025.53 345.188C911.898 425.225 923.795 392.386 855.153 368.178C786.512 343.97 596.646 484.085 721.733 585.231C846.826 686.393 753.146 745.746 811.114 798.651C869.088 851.574 952.253 681.921 996.798 697.358C1041.33 712.819 1109.68 715.044 1114.6 711.658L1114.59 711.683Z" stroke="white" stroke-opacity="0.04" stroke-width="0.6" stroke-miterlimit="10"/>
<path d="M1106.13 697.448C1106.13 697.448 1188.25 648.623 1168.55 588.33C1148.85 528.038 1219.24 482.542 1230.35 431.76C1241.47 380.977 1124.94 280.678 1019.96 356.11C914.977 431.541 926.175 402.331 862.14 380.411C798.08 358.48 622.368 490.675 739.593 583.683C856.818 676.692 770.548 732.449 824.908 781.171C879.267 829.892 955.167 671.387 996.72 685.371C1038.27 699.355 1101.61 700.632 1106.16 697.46L1106.13 697.448Z" stroke="white" stroke-opacity="0.04" stroke-width="0.6" stroke-miterlimit="10"/>
<path d="M1097.67 683.196C1097.67 683.196 1173.72 637.019 1154.89 581.451C1136.05 525.883 1200.39 483.535 1210.16 436.451C1219.94 389.385 1110.69 296.218 1014.37 367.02C918.026 437.827 928.555 412.277 869.084 392.64C809.631 372.996 648.053 497.277 757.404 582.114C866.736 666.956 787.883 719.137 838.653 763.667C889.422 808.198 958.031 660.83 996.605 673.337C1035.18 685.861 1093.49 686.197 1097.67 683.196Z" stroke="white" stroke-opacity="0.04" stroke-width="0.6" stroke-miterlimit="10"/>
<path d="M1089.23 668.937C1089.23 668.937 1159.2 625.39 1141.24 574.565C1123.29 523.715 1181.57 484.496 1190.01 441.129C1198.44 397.762 1096.5 311.739 1008.8 377.924C921.092 444.108 930.929 422.205 876.064 404.855C821.2 387.506 673.769 503.848 775.233 580.537C876.697 657.226 805.261 705.829 852.434 746.151C899.606 786.473 960.931 650.26 996.532 661.307C1032.13 672.355 1085.42 671.743 1089.23 668.955L1089.23 668.937Z" stroke="white" stroke-opacity="0.04" stroke-width="0.6" stroke-miterlimit="10"/>
<path d="M1080.77 654.685C1080.77 654.685 1144.67 613.786 1127.6 567.679C1110.52 521.571 1162.74 485.482 1169.83 445.814C1176.93 406.145 1082.29 327.267 1003.22 388.828C924.165 450.406 933.32 432.126 883.044 417.071C832.768 402.016 699.49 510.438 793.08 578.954C886.676 647.489 822.632 692.504 866.208 728.617C909.784 764.73 963.825 639.673 996.428 649.249C1029.04 658.843 1077.33 657.277 1080.76 654.667L1080.77 654.685Z" stroke="white" stroke-opacity="0.04" stroke-width="0.6" stroke-miterlimit="10"/>
<path d="M1072.31 640.451C1072.31 640.451 1130.14 602.182 1113.93 560.799C1097.73 519.416 1143.91 486.468 1149.65 450.522C1155.39 414.577 1068.06 342.818 997.627 399.78C927.208 456.735 935.695 442.114 890.001 429.336C844.308 416.557 725.183 517.058 810.911 577.438C896.632 637.8 840.011 679.256 879.99 711.161C919.97 743.066 966.727 629.163 996.357 637.28C1025.99 645.397 1069.26 642.883 1072.33 640.487L1072.31 640.451Z" stroke="white" stroke-opacity="0.04" stroke-width="0.6" stroke-miterlimit="10"/>
<path d="M1063.85 626.199C1063.85 626.199 1115.61 590.578 1100.29 553.913C1084.97 517.248 1125.08 487.453 1129.48 455.207C1133.87 422.943 1053.83 358.334 992.054 410.684C930.275 463.016 938.069 452.042 896.981 441.551C855.894 431.061 750.904 523.647 828.758 575.855C906.593 628.069 857.382 665.93 893.771 693.645C930.154 721.341 969.621 618.575 996.26 625.239C1022.9 631.903 1061.18 628.436 1063.86 626.217L1063.85 626.199Z" stroke="white" stroke-opacity="0.04" stroke-width="0.6" stroke-miterlimit="10"/>
<path d="M1055.41 611.94C1055.41 611.94 1101.09 578.95 1086.64 547.027C1072.19 515.086 1106.25 488.439 1109.32 459.885C1112.38 431.337 1039.63 373.855 986.499 421.581C933.365 469.308 940.478 461.956 903.979 453.76C867.481 445.564 776.637 530.212 846.623 574.266C916.59 618.326 874.778 652.616 907.564 676.104C940.356 699.61 972.532 607.981 996.198 613.186C1019.86 618.39 1053.13 613.975 1055.43 611.952L1055.41 611.94Z" stroke="white" stroke-opacity="0.04" stroke-width="0.6" stroke-miterlimit="10"/>
<path d="M1046.95 597.688C1046.95 597.688 1086.56 567.345 1072.98 540.147C1059.42 512.943 1087.42 489.425 1089.13 464.576C1090.85 439.727 1025.4 389.389 980.89 432.498C936.396 475.601 942.816 471.897 910.924 465.989C879.007 460.069 802.323 536.815 864.416 572.702C926.516 608.608 892.113 639.304 921.309 658.601C950.504 677.898 975.397 597.424 996.083 601.151C1016.77 604.879 1045.02 599.516 1046.95 597.688Z" stroke="white" stroke-opacity="0.04" stroke-width="0.6" stroke-miterlimit="10"/>
<path d="M1038.49 583.436C1038.49 583.436 1072.02 555.723 1059.33 533.243C1046.64 510.763 1068.58 490.393 1068.95 469.243C1069.32 448.092 1011.18 404.898 975.311 443.384C939.438 481.87 945.207 481.818 917.897 478.187C890.587 474.555 828.05 543.362 882.257 571.102C936.482 598.835 909.485 625.978 935.083 641.067C960.682 656.155 978.291 586.836 995.986 589.111C1013.68 591.385 1036.93 585.068 1038.49 583.436Z" stroke="white" stroke-opacity="0.04" stroke-width="0.6" stroke-miterlimit="10"/>
<path d="M1030.05 569.195C1030.05 569.195 1057.51 544.131 1045.69 526.375C1033.88 508.613 1049.75 491.397 1048.79 473.945C1047.82 456.494 996.96 420.449 969.744 454.306C942.511 488.168 947.605 491.757 924.884 490.42C902.163 489.083 853.778 549.969 900.117 569.554C946.456 589.14 926.887 612.682 948.895 623.58C970.897 634.46 981.222 576.296 995.937 577.093C1010.65 577.89 1028.89 570.626 1030.07 569.189L1030.05 569.195Z" stroke="white" stroke-opacity="0.04" stroke-width="0.6" stroke-miterlimit="10"/>
</g>
<defs>
<linearGradient id="paint0_linear_406_4360" x1="-2.98644e-07" y1="221.767" x2="1920.69" y2="249.396" gradientUnits="userSpaceOnUse">
<stop stop-color="#214F89"/>
<stop offset="1" stop-color="#12BCAB"/>
</linearGradient>
<clipPath id="clip0_406_4360">
<rect width="1920" height="599" fill="white"/>
</clipPath>
</defs>
</svg>
