<svg width="50" height="50" viewBox="0 0 50 50" fill="none" xmlns="http://www.w3.org/2000/svg">
<g clip-path="url(#clip0_1908_122)">
<path d="M37.6005 24.2802C37.6044 27.1093 36.7691 29.876 35.2002 32.2303C33.6313 34.5846 31.3994 36.4205 28.7867 37.5059C26.1741 38.5913 23.2982 38.8774 20.523 38.3279C17.7477 37.7784 15.1978 36.418 13.1959 34.4189C11.194 32.4198 9.83012 29.8718 9.27672 27.0974C8.72333 24.3229 9.00535 21.4466 10.0871 18.8325C11.1688 16.2183 13.0017 13.9838 15.3537 12.4116C17.7058 10.8394 20.4713 10.0002 23.3005 10.0002C25.1791 9.99757 27.0398 10.3657 28.776 11.0834C30.5121 11.8011 32.0896 12.8543 33.418 14.1827C34.7464 15.5111 35.7996 17.0886 36.5173 18.8247C37.235 20.5609 37.6031 22.4216 37.6005 24.3002M49.5005 42.1502L43.0005 36.7002C46.1082 31.8023 47.2834 25.9236 46.2974 20.2074C45.3115 14.4911 42.2349 9.3458 37.6659 5.77196C33.097 2.19812 27.3622 0.451184 21.5767 0.870848C15.7912 1.29051 10.3686 3.84678 6.36323 8.04258C2.35786 12.2384 0.0560358 17.7738 -0.0946457 23.5725C-0.245327 29.3712 1.7659 35.0188 5.54796 39.4169C9.33001 43.8151 14.6126 46.6495 20.3684 47.3691C26.1243 48.0887 31.9421 46.6419 36.6905 43.3102L43.6905 49.1502C43.8247 49.2668 43.9809 49.3553 44.1498 49.4104C44.3188 49.4656 44.4971 49.4863 44.6743 49.4714C44.8514 49.4565 45.0237 49.4062 45.1811 49.3236C45.3385 49.2409 45.4777 49.1276 45.5905 48.9902L49.7205 44.0602C49.8424 43.9284 49.936 43.7729 49.9953 43.6033C50.0547 43.4338 50.0785 43.2539 50.0654 43.0748C50.0523 42.8957 50.0024 42.7212 49.919 42.5621C49.8356 42.403 49.7204 42.2628 49.5805 42.1502" fill="url(#paint0_linear_1908_122)"/>
<path d="M14.0996 24.2798C14.0976 22.4638 14.6344 20.6879 15.6419 19.177C16.6494 17.666 18.0824 16.4879 19.7596 15.7915C21.4369 15.0952 23.283 14.9119 25.0644 15.265C26.8458 15.6181 28.4825 16.4916 29.7673 17.7751C31.0522 19.0585 31.9275 20.6942 32.2825 22.4752C32.6375 24.2563 32.4563 26.1026 31.7618 27.7806C31.0673 29.4586 29.8906 30.8929 28.3808 31.902C26.8709 32.9112 25.0957 33.4498 23.2796 33.4498C20.8467 33.4498 18.5132 32.484 16.7919 30.7646C15.0706 29.0452 14.1023 26.7128 14.0996 24.2798Z" fill="url(#paint1_linear_1908_122)"/>
</g>
<defs>
<linearGradient id="paint0_linear_1908_122" x1="-0.102539" y1="18.8273" x2="50.0962" y2="19.0596" gradientUnits="userSpaceOnUse">
<stop stop-color="#214F89"/>
<stop offset="1" stop-color="#12BCAB"/>
</linearGradient>
<linearGradient id="paint1_linear_1908_122" x1="14.0996" y1="21.8872" x2="32.4696" y2="21.9697" gradientUnits="userSpaceOnUse">
<stop stop-color="#214F89"/>
<stop offset="1" stop-color="#12BCAB"/>
</linearGradient>
<clipPath id="clip0_1908_122">
<rect width="50" height="50" fill="white"/>
</clipPath>
</defs>
</svg>
