<svg width="64" height="64" viewBox="0 0 64 64" fill="none" xmlns="http://www.w3.org/2000/svg">
<g clip-path="url(#clip0_1088_1072)">
<path d="M36.7521 41.9098L31.2614 45.1078C31.1632 45.165 31.0644 45.2157 30.9644 45.26C30.9792 45.2147 30.9929 45.1685 31.0055 45.1214C31.3181 43.9548 30.6286 42.7379 29.4358 42.3513C29.405 42.3413 29.3735 42.3334 29.3417 42.3276C27.7829 42.0465 26.2357 41.4871 24.9925 41.0377C24.5557 40.8798 24.1433 40.7307 23.7905 40.6163C22.2985 40.1322 20.9707 40.7192 19.8689 41.3571L15.9862 43.605L15.7162 43.1281C15.5158 42.7738 15.1885 42.5186 14.7948 42.4095C14.4012 42.3004 13.9891 42.3506 13.635 42.5512L12.0944 43.4231C11.7402 43.6235 11.4849 43.9508 11.3759 44.3445C11.2668 44.7382 11.317 45.1502 11.5175 45.5044L16.0468 53.5073C16.3275 54.0031 16.8456 54.282 17.3784 54.282C17.633 54.282 17.8911 54.2183 18.1281 54.0841L19.6686 53.2122C20.4015 52.7974 20.6602 51.8637 20.2455 51.1309L19.8916 50.5056L20.5409 50.1307L27.4807 51.9902C27.8892 52.0998 28.2957 52.1542 28.6956 52.1541C29.505 52.1541 30.2872 51.9311 31.0025 51.4908L40.9668 45.3552C41.9771 44.7332 42.302 43.1731 41.6485 42.082C41.3334 41.5559 40.0493 39.9895 36.7521 41.9098ZM18.9605 51.961L17.4199 52.8329C17.3781 52.8564 17.3211 52.8405 17.2977 52.799L12.7685 44.7963C12.754 44.7705 12.7564 44.7451 12.7611 44.7283C12.7657 44.7115 12.7766 44.6886 12.8024 44.6741L14.3429 43.8022C14.3576 43.7939 14.3721 43.7911 14.3849 43.7911C14.3947 43.7911 14.4036 43.7927 14.4108 43.7947C14.4276 43.7994 14.4505 43.8102 14.465 43.8359L18.9943 51.8388C19.0179 51.8804 19.0021 51.9374 18.9605 51.961ZM40.2129 44.131L30.2487 50.2666C29.5149 50.7183 28.7087 50.8311 27.8527 50.6016L20.6252 48.665C20.4412 48.6158 20.245 48.6416 20.0798 48.7368L19.1834 49.2543L16.6942 44.8561L20.589 42.601C21.7779 41.9127 22.5769 41.7339 23.3468 41.9836C23.677 42.0907 24.0601 42.2292 24.5036 42.3895C25.7837 42.8523 27.3734 43.4271 29.032 43.7324C29.4797 43.897 29.73 44.3273 29.6169 44.7495C29.5718 44.9178 29.4339 45.4262 28.6035 45.3329C27.8087 45.1687 27.0488 44.952 26.2451 44.7224C25.8587 44.612 25.459 44.4979 25.0474 44.3876C24.6641 44.2851 24.2699 44.5125 24.1671 44.8958C24.0643 45.2793 24.2919 45.6733 24.6753 45.7761C25.0756 45.8833 25.4694 45.9958 25.8503 46.1046C26.6928 46.3452 28.3735 46.753 28.3784 46.7538L29.0618 46.8648C30.1378 47.037 31.0939 46.8686 31.9847 46.3498L37.4755 43.1518C38.9106 42.316 40.037 42.189 40.415 42.8202C40.6898 43.2789 40.5309 43.9352 40.2129 44.131ZM14.6758 45.1462C14.7197 45.4467 14.5118 45.7261 14.2111 45.77C13.9105 45.8139 13.6313 45.6059 13.5874 45.3053C13.5434 45.0048 13.7514 44.7255 14.052 44.6815C14.3526 44.6376 14.632 44.8457 14.6758 45.1462ZM40.1751 30.2398C40.2348 30.1233 40.3014 29.9935 40.3753 29.8474C40.8222 28.9631 40.6372 27.9135 39.9147 27.2354C39.7953 27.1234 39.6884 27.0242 39.5924 26.9352C39.2387 26.607 39.0439 26.4263 38.9617 26.2838C38.8794 26.1414 38.8203 25.8822 38.713 25.4118C38.6839 25.2841 38.6514 25.142 38.6141 24.9825C38.388 24.0178 37.5715 23.3327 36.5823 23.2777C36.4188 23.2686 36.2732 23.2614 36.1424 23.2549C35.6604 23.2309 35.395 23.2176 35.2404 23.1614C35.0859 23.1051 34.874 22.9446 34.4894 22.6532C34.385 22.5741 34.2688 22.4861 34.1378 22.388C33.3446 21.7943 32.2788 21.7942 31.4856 22.388C31.3545 22.4861 31.2383 22.5741 31.1339 22.6532C30.7493 22.9447 30.5375 23.1051 30.3829 23.1614C30.2284 23.2176 29.9629 23.2308 29.4811 23.2549C29.3503 23.2614 29.2046 23.2686 29.0412 23.2777C28.0519 23.3327 27.2354 24.0178 27.0094 24.9825C26.972 25.142 26.9396 25.2841 26.9105 25.4118C26.8031 25.8822 26.744 26.1413 26.6618 26.2838C26.5796 26.4262 26.3847 26.607 26.031 26.9352C25.9349 27.0242 25.8281 27.1234 25.7087 27.2354C24.9863 27.9135 24.8012 28.9631 25.2482 29.8474C25.322 29.9935 25.3886 30.1233 25.4483 30.2398C25.6686 30.6692 25.7898 30.9056 25.8183 31.0676C25.8469 31.2296 25.8138 31.4933 25.7537 31.9721C25.7374 32.102 25.7193 32.2466 25.6998 32.4092C25.5822 33.393 26.1152 34.3161 27.0259 34.7061C27.1231 34.7477 27.213 34.7858 27.2973 34.8215L25.4853 38.7135C25.3722 38.9562 25.4035 39.2416 25.5664 39.4542C25.7293 39.6666 25.9969 39.7713 26.2605 39.7249L28.2098 39.3843L29.204 41.0952C29.333 41.3172 29.5702 41.4527 29.8254 41.4527C29.8362 41.4527 29.8472 41.4525 29.8581 41.452C30.1255 41.4399 30.3641 41.2801 30.4771 41.0374L32.3418 37.0322C32.5578 36.9696 32.7043 36.9358 32.8116 36.9358C32.9761 36.9358 33.2301 37.0141 33.6912 37.1564C33.7149 37.1637 33.7395 37.1713 33.7642 37.179L35.0894 40.2557C35.1953 40.5017 35.4292 40.6683 35.6961 40.6882C35.714 40.6895 35.7319 40.6901 35.7497 40.6901C35.9969 40.6901 36.2285 40.5627 36.3602 40.3504L37.4036 38.669L39.3421 39.066C39.6045 39.1198 39.8748 39.0232 40.0437 38.8156C40.2127 38.6078 40.2523 38.3235 40.1464 38.0776L38.6777 34.6676C39.5385 34.2585 40.0374 33.3632 39.9233 32.4092C39.9039 32.2466 39.8858 32.102 39.8694 31.9721C39.8094 31.4933 39.7763 31.2295 39.8048 31.0676C39.8334 30.9057 39.9549 30.6692 40.1751 30.2398ZM29.7552 39.1823L29.2011 38.2289C29.0499 37.9687 28.753 37.8304 28.456 37.882L27.3697 38.0717L28.5167 35.6083C28.5898 35.716 28.6748 35.8474 28.7789 36.0087C28.85 36.1186 28.9291 36.2412 29.0187 36.3783C29.3875 36.942 29.9685 37.2906 30.6007 37.3662L29.7552 39.1823ZM37.2014 37.1603C36.9065 37.0997 36.6053 37.2296 36.4466 37.4854L35.8651 38.4223L35.3785 37.2925C35.8691 37.1486 36.3065 36.8341 36.6046 36.3782C36.6943 36.2412 36.7733 36.1186 36.8443 36.0087C37.105 35.605 37.2491 35.382 37.3747 35.2758L38.2815 37.3815L37.2014 37.1603ZM39.0924 29.1989C39.0199 29.3423 38.9546 29.4696 38.896 29.5838C38.3085 30.7294 38.2832 30.8735 38.4433 32.151C38.4593 32.2784 38.4771 32.4204 38.4962 32.5799C38.538 32.93 38.3557 33.2459 38.0315 33.3847C37.8838 33.4479 37.752 33.5035 37.6336 33.5534C36.4472 34.0534 36.3352 34.1473 35.6367 35.229C35.5671 35.3369 35.4895 35.457 35.4015 35.5914C35.2086 35.8866 34.8659 36.0113 34.5282 35.9093C34.3745 35.8627 34.2379 35.8206 34.115 35.7828C32.8847 35.4031 32.7386 35.4031 31.5082 35.7828C31.3855 35.8206 31.2488 35.8628 31.095 35.9093C30.7573 36.0112 30.4146 35.8865 30.2217 35.5914C30.1338 35.4569 30.0562 35.3367 29.9864 35.2288C29.2881 34.1473 29.1761 34.0533 27.9897 33.5533C27.8713 33.5035 27.7395 33.4479 27.5917 33.3847C27.2676 33.2459 27.0852 32.9299 27.1271 32.5799C27.1461 32.4204 27.1639 32.2785 27.1799 32.151C27.3402 30.8735 27.3148 30.7295 26.7273 29.5838C26.6687 29.4696 26.6034 29.3423 26.5309 29.1989C26.3718 28.8841 26.4351 28.5249 26.6922 28.2836C26.8094 28.1737 26.9142 28.0764 27.0085 27.989C27.9524 27.1134 28.0254 26.9868 28.3118 25.7316C28.3404 25.6064 28.3722 25.4669 28.4089 25.3105C28.4893 24.9672 28.7688 24.7327 29.1209 24.7131C29.2814 24.7042 29.4242 24.6971 29.5525 24.6907C30.8383 24.6266 30.9757 24.5766 32.002 23.7992C32.1043 23.7216 32.2183 23.6352 32.347 23.539C32.4881 23.4333 32.65 23.3805 32.8117 23.3805C32.9734 23.3805 33.1352 23.4333 33.2763 23.539C33.4049 23.6353 33.5189 23.7216 33.6213 23.7992C34.6475 24.5767 34.7849 24.6266 36.0708 24.6907C36.1991 24.6971 36.3421 24.7042 36.5025 24.7131C36.8545 24.7327 37.1341 24.9672 37.2145 25.3105C37.2511 25.4669 37.2829 25.6064 37.3115 25.7316C37.5979 26.9869 37.671 27.1134 38.6149 27.989C38.709 28.0764 38.814 28.1737 38.9311 28.2836C39.1881 28.5249 39.2514 28.8841 39.0924 29.1989ZM32.8117 24.7616C30.1094 24.7616 27.9111 26.96 27.9111 29.6622C27.9111 32.3644 30.1094 34.5628 32.8117 34.5628C35.5139 34.5628 37.7124 32.3644 37.7124 29.6622C37.7124 26.96 35.5139 24.7616 32.8117 24.7616ZM32.8117 33.1253C30.9021 33.1253 29.3486 31.5717 29.3486 29.6622C29.3486 27.7526 30.9021 26.1991 32.8117 26.1991C34.7213 26.1991 36.2749 27.7526 36.2749 29.6622C36.2749 31.5717 34.7213 33.1253 32.8117 33.1253ZM35.5002 27.7931C35.767 28.087 35.745 28.5417 35.451 28.8084L32.3962 31.5806C32.2589 31.7052 32.0859 31.7671 31.9133 31.7671C31.729 31.7671 31.545 31.6966 31.405 31.5566L30.1473 30.2989C29.8665 30.0182 29.8666 29.5632 30.1473 29.2825C30.428 29.0018 30.8832 29.0018 31.1637 29.2825L31.9371 30.0561L34.4848 27.7439C34.7789 27.477 35.2334 27.4991 35.5002 27.7931ZM54.0304 18.496L49.5012 10.4933C49.3008 10.139 48.9735 9.88389 48.5798 9.77473C48.186 9.66548 47.7742 9.71597 47.4199 9.91633L45.8794 10.7883C45.5251 10.9887 45.2699 11.316 45.1608 11.7097C45.0517 12.1034 45.1019 12.5153 45.3025 12.8696L45.6564 13.4949L45.0071 13.8698L38.0673 12.0103C36.832 11.6791 35.6142 11.8518 34.5455 12.5098L24.5812 18.6454C23.5709 19.2674 23.246 20.8275 23.8994 21.9186C24.1013 22.2556 24.7009 23.0203 25.9742 23.0202C26.6873 23.0201 27.612 22.7802 28.7957 22.0907L34.2865 18.8926C34.3846 18.8355 34.4835 18.7848 34.5834 18.7405C34.5686 18.7857 34.5549 18.832 34.5422 18.879C34.2298 20.0456 34.9193 21.2624 36.1121 21.6491C36.1429 21.6591 36.1743 21.667 36.2061 21.6727C37.765 21.9539 39.3123 22.5132 40.5556 22.9627C40.9922 23.1206 41.4046 23.2697 41.7574 23.3841C42.1419 23.5088 42.5152 23.5624 42.8768 23.5624C43.9186 23.5624 44.8611 23.117 45.679 22.6434L49.5617 20.3954L49.8317 20.8724C50.0321 21.2267 50.3594 21.4819 50.7531 21.591C50.8892 21.6287 51.0275 21.6473 51.1648 21.6473C51.4247 21.6473 51.6812 21.5805 51.9129 21.4493L53.4535 20.5774C54.1862 20.1626 54.4451 19.2289 54.0304 18.496ZM44.9587 21.3993C43.7699 22.0875 42.971 22.2665 42.2009 22.0167C41.8708 21.9097 41.4877 21.7711 41.0442 21.6107C39.764 21.148 38.1744 20.5732 36.5157 20.2679C36.068 20.1033 35.8176 19.6729 35.9306 19.2508C35.9757 19.0825 36.1131 18.5738 36.944 18.6674C37.7389 18.8315 38.4989 19.0483 39.3027 19.278C39.6891 19.3883 40.0887 19.5024 40.5002 19.6127C40.5625 19.6294 40.6251 19.6373 40.6867 19.6373C41.004 19.6373 41.2944 19.4256 41.3805 19.1044C41.4833 18.7209 41.2557 18.3269 40.8723 18.2241C40.4721 18.1169 40.0783 18.0044 39.6976 17.8957C38.8549 17.655 38.0591 17.4278 37.1978 17.2517C37.1929 17.2507 37.1739 17.2473 37.1692 17.2465L36.4858 17.1354C35.41 16.9633 34.4537 17.1316 33.5629 17.6503L28.0721 20.8484C26.6371 21.6843 25.5107 21.8113 25.1325 21.1799C24.8579 20.7213 25.0168 20.0651 25.3347 19.8693L35.299 13.7337C36.0327 13.282 36.8389 13.169 37.695 13.3987L44.9224 15.3353C45.1065 15.3845 45.3027 15.3587 45.4678 15.2635L46.3642 14.7459L48.8535 19.1441L44.9587 21.3993ZM52.7455 19.3263L51.2049 20.1981C51.1791 20.2128 51.1538 20.2102 51.137 20.2056C51.1202 20.2009 51.0973 20.19 51.0827 20.1644L46.5535 12.1616C46.5389 12.1358 46.5413 12.1105 46.546 12.0937C46.5507 12.0769 46.5615 12.054 46.5873 12.0394L48.1279 11.1674C48.1425 11.1591 48.157 11.1563 48.1698 11.1563C48.1796 11.1563 48.1885 11.158 48.1957 11.16C48.2125 11.1647 48.2355 11.1756 48.2501 11.2014L52.7793 19.204C52.8029 19.2456 52.787 19.3028 52.7455 19.3263ZM51.9604 18.695C52.0044 18.9955 51.7964 19.2748 51.4958 19.3187C51.1952 19.3627 50.9159 19.1547 50.872 18.8541C50.828 18.5535 51.036 18.2742 51.3366 18.2303C51.6372 18.1863 51.9165 18.3943 51.9604 18.695ZM47.3456 33.5898C45.5138 33.5898 44.0235 35.08 44.0235 36.9119C44.0235 38.7439 45.5138 40.2341 47.3456 40.2341C49.1774 40.2341 50.6678 38.7438 50.6678 36.9119C50.6678 35.0801 49.1774 33.5898 47.3456 33.5898ZM47.3456 38.7965C46.3064 38.7965 45.461 37.9511 45.461 36.9119C45.461 35.8727 46.3064 35.0272 47.3456 35.0272C48.3848 35.0272 49.2303 35.8726 49.2303 36.9119C49.2303 37.9511 48.3848 38.7965 47.3456 38.7965ZM53.119 35.4947L52.5429 35.273C52.4477 34.9706 52.3261 34.6774 52.1794 34.396L52.4301 33.8316C52.5509 33.5599 52.4918 33.2418 52.2815 33.0316L51.226 31.976C51.0157 31.7658 50.6978 31.7067 50.426 31.8274L49.8612 32.0783C49.5799 31.9315 49.2869 31.8101 48.9847 31.7148L48.7629 31.1385C48.6562 30.861 48.3895 30.678 48.0921 30.678H46.5994C46.302 30.678 46.0354 30.8611 45.9286 31.1385L45.7068 31.7148C45.4045 31.8101 45.1116 31.9315 44.8303 32.0783L44.2655 31.8274C43.9937 31.7067 43.6758 31.7658 43.4655 31.976L42.4099 33.0317C42.1997 33.2419 42.1406 33.56 42.2613 33.8317L42.5122 34.3963C42.3655 34.6777 42.244 34.9707 42.1488 35.273L41.5725 35.4948C41.295 35.6016 41.112 35.8682 41.112 36.1656V37.6585C41.112 37.9558 41.2951 38.2224 41.5725 38.3292L42.1486 38.551C42.2439 38.8533 42.3654 39.1464 42.5121 39.4278L42.2613 39.9923C42.1406 40.2641 42.1997 40.5821 42.4099 40.7923L43.4655 41.8479C43.6758 42.0582 43.9938 42.1174 44.2655 41.9965L44.8303 41.7456C45.1116 41.8923 45.4046 42.0138 45.7068 42.109L45.9286 42.6853C46.0353 42.9628 46.302 43.1458 46.5994 43.1458H48.0922C48.3896 43.1458 48.6562 42.9627 48.763 42.6853L48.9847 42.1092C49.2871 42.0139 49.5803 41.8924 49.8616 41.7457L50.4261 41.9965C50.6979 42.1172 51.0158 42.0581 51.226 41.8479L52.2816 40.7923C52.4919 40.5821 52.551 40.2641 52.4302 39.9923L52.1794 39.4276C52.3261 39.1463 52.4476 38.8532 52.5428 38.5511L53.1191 38.3292C53.3966 38.2225 53.5796 37.9558 53.5796 37.6585V36.1657C53.5796 35.8681 53.3965 35.6015 53.119 35.4947ZM52.1421 37.1648L51.6887 37.3392C51.4675 37.4243 51.3026 37.6131 51.2477 37.8436C51.1496 38.2561 50.9866 38.649 50.7635 39.0114C50.6393 39.2133 50.6225 39.4634 50.7187 39.68L50.9162 40.1247L50.5586 40.4822L50.1143 40.2849C49.8976 40.1885 49.6474 40.2053 49.4456 40.3298C49.0835 40.5528 48.6906 40.7157 48.2776 40.814C48.047 40.8689 47.8583 41.0339 47.7732 41.2551L47.5987 41.7083H47.0929L46.9184 41.2549C46.8333 41.0337 46.6446 40.8688 46.414 40.8139C46.0015 40.7157 45.6087 40.5528 45.2462 40.3297C45.0443 40.2054 44.7943 40.1886 44.5776 40.2849L44.133 40.4823L43.7754 40.1248L43.9727 39.6805C44.0689 39.4638 44.0521 39.2137 43.9279 39.0119C43.7048 38.6495 43.5418 38.2565 43.4436 37.8437C43.3887 37.6132 43.2238 37.4244 43.0026 37.3393L42.5494 37.1649V36.6591L43.0026 36.4846C43.2238 36.3996 43.3888 36.2109 43.4437 35.9803C43.5419 35.5676 43.7048 35.1746 43.9279 34.8123C44.0522 34.6104 44.069 34.3603 43.9728 34.1437L43.7754 33.6992L44.1331 33.3416L44.5776 33.539C44.7943 33.6353 45.0444 33.6185 45.2462 33.4942C45.6085 33.2711 46.0014 33.1082 46.4141 33.01C46.6446 32.9551 46.8333 32.7902 46.9184 32.569L47.0929 32.1156H47.5987L47.7732 32.569C47.8583 32.7902 48.0469 32.9551 48.2775 33.01C48.6901 33.1082 49.0831 33.2711 49.4453 33.4942C49.6472 33.6185 49.8973 33.6353 50.114 33.539L50.5586 33.3416L50.9162 33.6992L50.7189 34.1436C50.6227 34.3602 50.6395 34.6104 50.7638 34.8122C50.9869 35.1745 51.1499 35.5674 51.2481 35.9802C51.3029 36.2107 51.4679 36.3995 51.6891 36.4846L52.1423 36.659V37.1648H52.1421ZM53.4685 24.5913C53.7127 24.9041 53.6572 25.3559 53.3444 25.6002C53.213 25.7028 53.0572 25.7525 52.9025 25.7525C52.7156 25.7525 52.5303 25.6798 52.3919 25.5401V30.4307C52.3919 30.8276 52.0701 31.1495 51.6732 31.1495C51.2763 31.1495 50.9544 30.8276 50.9544 30.4307V25.5393C50.7016 25.7949 50.2921 25.8268 50.0019 25.6001C49.6891 25.3558 49.6335 24.9041 49.8778 24.5912L51.1067 23.0176C51.2429 22.8432 51.4519 22.7413 51.6732 22.7413C51.8945 22.7413 52.1035 22.8432 52.2397 23.0176L53.4685 24.5913ZM46.6269 28.7978V27.0877C46.374 27.3433 45.9646 27.3751 45.6743 27.1484C45.3615 26.9042 45.3059 26.4524 45.5503 26.1396L46.7791 24.566C46.9153 24.3916 47.1243 24.2896 47.3456 24.2896C47.5669 24.2896 47.7759 24.3916 47.9121 24.566L49.141 26.1396C49.3852 26.4524 49.3297 26.9042 49.0169 27.1484C48.8855 27.251 48.7296 27.3007 48.575 27.3007C48.3881 27.3007 48.2028 27.228 48.0644 27.0883V28.7977C48.0644 29.1946 47.7426 29.5165 47.3457 29.5165C46.9488 29.5165 46.6269 29.1947 46.6269 28.7978ZM42.2993 30.8673V28.6359C42.0464 28.8915 41.637 28.9233 41.3467 28.6966C41.0339 28.4523 40.9783 28.0006 41.2227 27.6878L42.4515 26.1142C42.5877 25.9398 42.7967 25.8378 43.018 25.8378C43.2393 25.8378 43.4483 25.9398 43.5845 26.1142L44.8134 27.6878C45.0576 28.0006 45.0021 28.4523 44.6893 28.6966C44.5579 28.7992 44.4021 28.8489 44.2474 28.8489C44.0605 28.8489 43.8752 28.7762 43.7369 28.6365V30.8673C43.7369 31.2643 43.415 31.5861 43.0181 31.5861C42.6212 31.5861 42.2993 31.2644 42.2993 30.8673ZM11.3936 35.5693C11.1461 35.5693 10.9053 35.4414 10.7718 35.212C9.97995 33.8517 9.6487 32.3034 9.81383 30.7346C10.2396 26.6906 13.8766 23.7477 17.9199 24.1726C18.745 24.2595 19.5391 24.4815 20.2764 24.827C20.1809 24.4651 20.3799 24.086 20.7396 23.9638C21.1155 23.8361 21.5237 24.0373 21.6514 24.4132L22.2973 26.3151C22.3684 26.5243 22.3393 26.7546 22.2184 26.9395C22.0974 27.1244 21.8983 27.2435 21.6781 27.2623L19.6768 27.4336C19.6559 27.4354 19.6352 27.4363 19.6147 27.4363C19.2455 27.4363 18.9315 27.1535 18.8995 26.7788C18.8694 26.4267 19.0987 26.1128 19.4285 26.0241C18.9033 25.806 18.346 25.6629 17.7695 25.6022C14.5133 25.2595 11.5863 27.6295 11.2435 30.8851C11.1105 32.1482 11.377 33.3943 12.0142 34.4889C12.2139 34.8319 12.0977 35.2719 11.7546 35.4716C11.6408 35.5379 11.5164 35.5693 11.3936 35.5693ZM22.541 27.5417C22.8839 27.3419 23.3241 27.4581 23.5238 27.8012C24.3157 29.1613 24.6469 30.7096 24.4818 32.2786C24.2756 34.2377 23.3189 35.999 21.7878 37.2384C20.4624 38.3115 18.8436 38.882 17.1617 38.882C16.9009 38.882 16.6388 38.8684 16.3757 38.8407C15.5512 38.7538 14.7569 38.5321 14.0194 38.1867C14.1147 38.5484 13.9158 38.9275 13.5562 39.0496C13.4795 39.0757 13.4016 39.088 13.3249 39.088C13.0255 39.088 12.7461 38.8995 12.6444 38.6002L11.9985 36.6983C11.9274 36.489 11.9565 36.2588 12.0774 36.0739C12.1982 35.889 12.3975 35.7699 12.6177 35.7511L14.6189 35.5797C15.0151 35.5461 15.3625 35.839 15.3964 36.2346C15.4265 36.5868 15.1971 36.9007 14.8673 36.9893C15.3926 37.2075 15.9501 37.3505 16.5263 37.4111C16.7364 37.4332 16.9456 37.4441 17.1523 37.4441C20.1495 37.4444 22.7317 35.1739 23.0522 32.1283C23.1852 30.8651 22.9187 29.619 22.2815 28.5246C22.0818 28.1815 22.198 27.7414 22.541 27.5417ZM15.4557 33.8414L13.7983 32.1841C13.5176 31.9034 13.5175 31.4484 13.7983 31.1677C14.079 30.887 14.534 30.887 14.8147 31.1677L15.9879 32.3408L19.506 29.148C19.8 28.8812 20.2546 28.9033 20.5213 29.1972C20.7881 29.4912 20.7661 29.9458 20.4721 30.2126L16.4469 33.8655C16.3095 33.9901 16.1366 34.052 15.964 34.052C15.7796 34.0519 15.5956 33.9813 15.4557 33.8414Z" fill="url(#paint0_linear_1088_1072)"/>
</g>
<rect x="0.587156" y="-0.587156" width="62.8257" height="62.8257" rx="8.80734" transform="matrix(1 0 0 -1 0 62.8257)" stroke="url(#paint1_linear_1088_1072)" stroke-width="1.17431"/>
<defs>
<linearGradient id="paint0_linear_1088_1072" x1="9.77246" y1="26.2171" x2="54.2524" y2="26.4162" gradientUnits="userSpaceOnUse">
<stop stop-color="#214F89"/>
<stop offset="1" stop-color="#12BCAB"/>
</linearGradient>
<linearGradient id="paint1_linear_1088_1072" x1="-9.95479e-09" y1="23.6946" x2="64.0349" y2="23.982" gradientUnits="userSpaceOnUse">
<stop stop-color="#214F89"/>
<stop offset="1" stop-color="#12BCAB"/>
</linearGradient>
<clipPath id="clip0_1088_1072">
<rect width="46" height="46" fill="white" transform="translate(9 9)"/>
</clipPath>
</defs>
</svg>
