<svg width="64" height="64" viewBox="0 0 64 64" fill="none" xmlns="http://www.w3.org/2000/svg">
<path d="M28.0264 49.4243V44.7866" stroke="url(#paint0_linear_1069_9302)" stroke-width="1.5" stroke-miterlimit="10" stroke-linecap="round" stroke-linejoin="round"/>
<path d="M35.9736 49.4243V44.7866" stroke="url(#paint1_linear_1069_9302)" stroke-width="1.5" stroke-miterlimit="10" stroke-linecap="round" stroke-linejoin="round"/>
<mask id="mask0_1069_9302" style="mask-type:luminance" maskUnits="userSpaceOnUse" x="9" y="9" width="46" height="46">
<path d="M54.25 54.25V9.75H9.75V54.25H54.25Z" fill="white" stroke="white" stroke-width="1.5"/>
</mask>
<g mask="url(#mask0_1069_9302)">
<path d="M44.6472 44.7865H12.3691C10.8805 44.7865 9.67383 43.579 9.67383 42.0912V15.1703C9.67383 13.6826 10.8805 12.475 12.3691 12.475H20.1102" stroke="url(#paint2_linear_1069_9302)" stroke-width="1.5" stroke-miterlimit="10" stroke-linecap="round" stroke-linejoin="round"/>
<path d="M43.8901 12.4751H51.6311C53.1198 12.4751 54.3264 13.6826 54.3264 15.1704V42.0913C54.3264 43.579 53.1198 44.7866 51.6311 44.7866H47.792" stroke="url(#paint3_linear_1069_9302)" stroke-width="1.5" stroke-miterlimit="10" stroke-linecap="round" stroke-linejoin="round"/>
<path d="M20.1101 15.1704H12.7285C12.53 15.1704 12.3691 15.3313 12.3691 15.5298V41.7319C12.3691 41.9305 12.53 42.0913 12.7285 42.0913H20.1101H43.8899H51.2715C51.47 42.0913 51.6309 41.9305 51.6309 41.7319V15.5298C51.6309 15.3313 51.47 15.1704 51.2715 15.1704H43.8899" stroke="url(#paint4_linear_1069_9302)" stroke-width="1.5" stroke-miterlimit="10" stroke-linecap="round" stroke-linejoin="round"/>
<path d="M36.7062 49.4241H27.2939C25.489 49.4241 24.0259 50.8872 24.0259 52.6921V53.8904C24.0259 54.1311 24.2209 54.3262 24.4616 54.3262H39.5385C39.7792 54.3262 39.9742 54.1311 39.9742 53.8904V52.6921C39.9742 50.8872 38.5111 49.4241 36.7062 49.4241Z" stroke="url(#paint5_linear_1069_9302)" stroke-width="1.5" stroke-miterlimit="10" stroke-linecap="round" stroke-linejoin="round"/>
<path d="M20.1104 18.3139V12.3691C20.1104 10.8805 21.3171 9.67376 22.8057 9.67376H41.1942C42.6827 9.67376 43.8895 10.8805 43.8895 12.3691V42.0908H20.1104V21.4585" stroke="url(#paint6_linear_1069_9302)" stroke-width="1.5" stroke-miterlimit="10" stroke-linecap="round" stroke-linejoin="round"/>
<path d="M32 29.6191C27.6157 29.6191 24.0488 26.0523 24.0488 21.668C24.0488 17.2837 27.6157 13.7168 32 13.7168C36.3843 13.7168 39.9512 17.2837 39.9512 21.668C39.9512 26.0523 36.3843 29.6191 32 29.6191Z" stroke="url(#paint7_linear_1069_9302)" stroke-width="1.5" stroke-miterlimit="10" stroke-linecap="round" stroke-linejoin="round"/>
<path d="M30.6423 25.1851C30.1822 25.1851 29.7222 25.01 29.3719 24.6598L27.879 23.1669C27.3528 22.6406 27.3528 21.7873 27.8791 21.261C28.4054 20.7348 29.2588 20.7346 29.785 21.261L30.4518 21.928C30.5571 22.0333 30.7277 22.0333 30.833 21.928L34.1884 18.5726C34.7015 18.0595 35.5373 18.0122 36.074 18.5006C36.647 19.022 36.6628 19.9099 36.1212 20.4514L31.9129 24.6597C31.5626 25.01 31.1024 25.1851 30.6423 25.1851Z" stroke="url(#paint8_linear_1069_9302)" stroke-width="1.5" stroke-miterlimit="10" stroke-linecap="round" stroke-linejoin="round"/>
<path d="M24.2412 34.0215H39.7584" stroke="url(#paint9_linear_1069_9302)" stroke-width="1.5" stroke-miterlimit="10" stroke-linecap="round" stroke-linejoin="round"/>
<path d="M24.2412 38.0645H39.7584" stroke="url(#paint10_linear_1069_9302)" stroke-width="1.5" stroke-miterlimit="10" stroke-linecap="round" stroke-linejoin="round"/>
</g>
<rect x="0.587156" y="-0.587156" width="62.8257" height="62.8257" rx="8.80734" transform="matrix(1 0 0 -1 0 62.8257)" stroke="url(#paint11_linear_1069_9302)" stroke-width="1.17431"/>
<defs>
<linearGradient id="paint0_linear_1069_9302" x1="28.0264" y1="47.7073" x2="29.0269" y2="47.7063" gradientUnits="userSpaceOnUse">
<stop stop-color="#214F89"/>
<stop offset="1" stop-color="#12BCAB"/>
</linearGradient>
<linearGradient id="paint1_linear_1069_9302" x1="35.9736" y1="47.7073" x2="36.9742" y2="47.7063" gradientUnits="userSpaceOnUse">
<stop stop-color="#214F89"/>
<stop offset="1" stop-color="#12BCAB"/>
</linearGradient>
<linearGradient id="paint2_linear_1069_9302" x1="9.67383" y1="32.8239" x2="44.6662" y2="32.6539" gradientUnits="userSpaceOnUse">
<stop stop-color="#214F89"/>
<stop offset="1" stop-color="#12BCAB"/>
</linearGradient>
<linearGradient id="paint3_linear_1069_9302" x1="43.8901" y1="32.824" x2="54.3323" y2="32.8088" gradientUnits="userSpaceOnUse">
<stop stop-color="#214F89"/>
<stop offset="1" stop-color="#12BCAB"/>
</linearGradient>
<linearGradient id="paint4_linear_1069_9302" x1="12.3691" y1="32.1244" x2="51.6514" y2="31.8673" gradientUnits="userSpaceOnUse">
<stop stop-color="#214F89"/>
<stop offset="1" stop-color="#12BCAB"/>
</linearGradient>
<linearGradient id="paint5_linear_1069_9302" x1="24.0259" y1="52.5113" x2="39.9798" y2="52.2784" gradientUnits="userSpaceOnUse">
<stop stop-color="#214F89"/>
<stop offset="1" stop-color="#12BCAB"/>
</linearGradient>
<linearGradient id="paint6_linear_1069_9302" x1="20.1104" y1="30.0891" x2="43.9027" y2="30.0108" gradientUnits="userSpaceOnUse">
<stop stop-color="#214F89"/>
<stop offset="1" stop-color="#12BCAB"/>
</linearGradient>
<linearGradient id="paint7_linear_1069_9302" x1="24.0488" y1="23.7316" x2="39.9598" y2="23.6602" gradientUnits="userSpaceOnUse">
<stop stop-color="#214F89"/>
<stop offset="1" stop-color="#12BCAB"/>
</linearGradient>
<linearGradient id="paint8_linear_1069_9302" x1="27.4844" y1="22.5841" x2="36.5207" y2="22.5319" gradientUnits="userSpaceOnUse">
<stop stop-color="#214F89"/>
<stop offset="1" stop-color="#12BCAB"/>
</linearGradient>
<linearGradient id="paint9_linear_1069_9302" x1="24.2412" y1="33.6513" x2="39.6922" y2="32.5753" gradientUnits="userSpaceOnUse">
<stop stop-color="#214F89"/>
<stop offset="1" stop-color="#12BCAB"/>
</linearGradient>
<linearGradient id="paint10_linear_1069_9302" x1="24.2412" y1="37.6942" x2="39.6922" y2="36.6182" gradientUnits="userSpaceOnUse">
<stop stop-color="#214F89"/>
<stop offset="1" stop-color="#12BCAB"/>
</linearGradient>
<linearGradient id="paint11_linear_1069_9302" x1="-9.95479e-09" y1="23.6946" x2="64.0349" y2="23.982" gradientUnits="userSpaceOnUse">
<stop stop-color="#214F89"/>
<stop offset="1" stop-color="#12BCAB"/>
</linearGradient>
</defs>
</svg>
