<svg width="64" height="64" viewBox="0 0 64 64" fill="none" xmlns="http://www.w3.org/2000/svg">
<path d="M31.197 40.0566C28.2392 40.0566 25.2813 40.0533 22.3253 40.06C21.9208 40.0616 21.5181 40.0949 21.6324 39.5286C21.708 39.1488 21.3106 38.4808 22.2338 38.5824C22.6014 38.6241 22.6787 38.4825 22.7526 38.1293C23.4015 34.9627 22.9249 31.7678 23.0199 28.5895C23.0375 27.9899 23.034 27.137 21.912 27.062C21.351 27.0237 21.708 26.4757 21.6447 26.1659C21.6008 25.951 21.5287 25.6311 21.9577 25.6228C22.1336 25.6195 22.3094 25.6212 22.4853 25.6212C28.2831 25.6212 34.081 25.6162 39.8789 25.6311C40.2095 25.6328 40.8003 25.3646 40.7546 26.0676C40.7247 26.5157 41.0518 27.072 40.0582 27.157C39.557 27.1986 39.3196 28.0265 39.3214 28.6562C39.3249 31.0415 39.3759 33.4269 39.2968 35.8106C39.2686 36.6768 39.6256 37.458 39.6221 38.2992C39.6203 38.6524 39.9158 38.5991 40.1268 38.5758C41.0184 38.4825 40.7018 39.1055 40.7651 39.5086C40.8513 40.0566 40.4961 40.0633 40.0723 40.0633C37.1109 40.0516 34.1549 40.0566 31.197 40.0566ZM37.4028 32.6856C37.4028 31.3264 37.3941 29.9688 37.4064 28.6095C37.4116 27.9882 37.132 27.3002 36.6678 27.132C35.4526 26.6906 34.4855 27.4185 34.5435 28.6528C34.6842 31.7228 34.2006 34.8028 34.7985 37.8712C34.9233 38.5175 35.0957 38.6474 35.6813 38.5908C35.9995 38.5591 36.3249 38.5891 36.6467 38.5841C36.8454 38.5808 37.0969 38.6124 37.0828 38.3192C37.0424 37.5047 37.5171 36.7751 37.4292 35.9272C37.3167 34.8561 37.4011 33.7667 37.4028 32.6856ZM32.6038 32.6673C32.6038 31.3097 32.595 29.9521 32.6074 28.5945C32.6126 28.0082 32.3752 27.3502 31.9655 27.1353C30.9491 26.604 29.7111 27.4385 29.7673 28.5812C29.9186 31.6712 29.4033 34.7745 30.0329 37.8628C30.1595 38.4841 30.2931 38.6574 30.8998 38.5891C31.2164 38.5524 31.5434 38.5858 31.8653 38.5824C32.071 38.5808 32.3348 38.5858 32.3049 38.3142C32.2275 37.5963 32.6882 36.9783 32.6285 36.2404C32.53 35.056 32.6003 33.8583 32.6038 32.6673ZM27.8171 32.7273C27.8171 31.3131 27.8277 29.9005 27.8119 28.4863C27.8066 27.9549 27.6026 27.3136 27.1788 27.132C26.0533 26.6523 24.942 27.4118 25.0017 28.5879C25.1547 31.6779 24.6395 34.7795 25.2673 37.8678C25.3957 38.5008 25.5504 38.6507 26.143 38.5858C26.4613 38.5508 26.7866 38.5774 27.1085 38.5808C27.3265 38.5824 27.534 38.5691 27.5287 38.2926C27.5129 37.5047 27.9156 36.7834 27.8418 35.9672C27.745 34.8961 27.8171 33.8084 27.8171 32.7273Z" fill="url(#paint0_linear_1069_9337)"/>
<path d="M52.3438 36.1327C53.2681 36.1327 54.1936 36.172 55.1143 36.1177C55.6983 36.083 55.8528 36.291 55.7719 36.7868C55.7599 36.8619 55.7792 36.9416 55.7683 37.0167C55.7249 37.3288 55.8335 37.4512 56.1906 37.457C57.3635 37.479 57.3635 37.4929 57.3647 38.5988C57.3659 40.1173 57.3515 41.6369 57.3732 43.1554C57.378 43.5357 57.3092 43.6963 56.8615 43.6801C55.8793 43.6466 54.8935 43.6524 53.9101 43.679C53.5276 43.6894 53.4105 43.5703 53.4515 43.2225C53.4793 42.9948 53.4359 42.7591 53.4624 42.5314C53.4986 42.2125 53.3466 42.1524 53.0497 42.1466C52.73 42.1408 52.6901 42.2864 52.7058 42.5326C52.7215 42.7625 52.6974 42.9948 52.7119 43.2248C52.73 43.5044 52.7107 43.6836 52.3161 43.6836C51.9203 43.6836 51.8998 43.5033 51.9179 43.2225C51.9324 42.9925 51.9058 42.7602 51.9263 42.5303C51.9553 42.2159 51.8045 42.1501 51.504 42.1477C51.1794 42.1454 51.1661 42.3026 51.1577 42.5418C51.1155 43.6709 51.1094 43.6709 49.9173 43.6709C49.174 43.6709 48.4307 43.6593 47.6886 43.6766C47.3748 43.6836 47.2855 43.59 47.2892 43.2849C47.3049 41.4775 47.3049 39.6701 47.2892 37.8627C47.2855 37.5345 47.3833 37.3992 47.7248 37.4455C47.7839 37.4536 47.8454 37.4466 47.9058 37.4455C48.8313 37.4385 48.8566 37.4385 48.8421 36.5545C48.8361 36.1685 48.9893 36.1188 49.332 36.1246C50.336 36.1442 51.3399 36.1327 52.3438 36.1327ZM52.298 41.3688C52.8156 41.3839 53.2693 40.9875 53.2995 40.4929C53.3309 39.989 52.8663 39.5187 52.3354 39.5152C51.8202 39.5117 51.3821 39.9278 51.3749 40.427C51.3677 40.9378 51.7755 41.3538 52.298 41.3688ZM56.21 42.8111C56.4453 42.8642 56.5683 42.7764 56.5695 42.4852C56.572 42.1986 56.4465 42.1362 56.1774 42.1362C55.8926 42.1362 55.7394 42.1836 55.743 42.5083C55.7478 42.8307 55.9373 42.8296 56.21 42.8111ZM49.9824 36.8087C49.7387 36.7752 49.5999 36.8388 49.5999 37.1358C49.6011 37.4316 49.7459 37.4709 50.0005 37.4744C50.2841 37.4778 50.4313 37.4235 50.4265 37.1022C50.4216 36.7706 50.2153 36.8029 49.9824 36.8087ZM50.0005 40.1393C50.2527 40.1612 50.4277 40.1335 50.4265 39.8157C50.4253 39.5164 50.2877 39.4644 50.0222 39.4713C49.7773 39.4771 49.5999 39.4828 49.6011 39.8006C49.6011 40.0988 49.7363 40.1728 50.0005 40.1393ZM56.1846 40.1369C56.4296 40.1809 56.5635 40.1023 56.5707 39.8076C56.578 39.4944 56.4103 39.4736 56.1593 39.4713C55.9047 39.4701 55.7442 39.5002 55.7442 39.8087C55.7442 40.1161 55.9035 40.1658 56.1846 40.1369ZM50.0295 42.8134C50.2817 42.8469 50.4265 42.7845 50.4253 42.4863C50.4241 42.2021 50.3046 42.1362 50.0343 42.1362C49.7532 42.1362 49.5939 42.1778 49.5987 42.5037C49.6035 42.8226 49.7881 42.8296 50.0295 42.8134ZM54.5967 40.1335C54.8356 40.1508 55.0262 40.1485 55.0214 39.8272C55.0178 39.558 54.9357 39.4563 54.6485 39.4759C54.4229 39.4909 54.2214 39.4597 54.2274 39.7833C54.231 40.0491 54.3119 40.1785 54.5967 40.1335ZM51.533 37.4628C51.7864 37.4929 51.9517 37.4524 51.9517 37.1439C51.9529 36.8526 51.825 36.7902 51.5559 36.8029C51.3206 36.8133 51.1336 36.796 51.142 37.1231C51.148 37.4085 51.2591 37.5009 51.533 37.4628ZM54.6787 37.4524C54.9237 37.509 55.0142 37.3969 55.0238 37.1196C55.0347 36.796 54.8452 36.8157 54.6148 36.8053C54.3481 36.7937 54.2262 36.8538 54.225 37.1427C54.2226 37.4559 54.3939 37.4813 54.6787 37.4524ZM54.6111 42.8076C54.867 42.84 55.0262 42.8018 55.0226 42.491C55.019 42.2067 54.9104 42.1339 54.6353 42.142C54.3879 42.1489 54.2214 42.1628 54.225 42.4713C54.2286 42.7533 54.3348 42.8561 54.6111 42.8076ZM48.5356 40.1277C48.8059 40.204 48.8614 40.0549 48.8711 39.7926C48.8832 39.4736 48.6973 39.4886 48.4632 39.4759C48.1821 39.4609 48.0819 39.5464 48.0831 39.8238C48.0856 40.1277 48.2497 40.1658 48.5356 40.1277ZM56.1557 38.7883C56.3946 38.8091 56.5683 38.7952 56.5671 38.4763C56.5659 38.1654 56.4078 38.1458 56.1617 38.1516C55.9288 38.1562 55.7442 38.1481 55.7478 38.4694C55.7502 38.7768 55.9059 38.8161 56.1557 38.7883ZM50.085 38.786C50.3323 38.853 50.4072 38.7213 50.4192 38.4543C50.4337 38.1146 50.2105 38.1654 49.9945 38.1527C49.7363 38.1389 49.5999 38.1943 49.6047 38.4925C49.6108 38.8195 49.8123 38.7976 50.085 38.786ZM53.0787 37.4559C53.3526 37.4975 53.4793 37.4154 53.4757 37.1196C53.4721 36.8549 53.3683 36.7914 53.1185 36.8064C52.8977 36.8203 52.6829 36.7671 52.6901 37.1115C52.6962 37.3969 52.7975 37.5009 53.0787 37.4559ZM48.5658 42.1489C48.3329 42.1535 48.0843 42.083 48.0916 42.4251C48.0964 42.6493 48.0904 42.8515 48.4222 42.8145C48.6201 42.7926 48.8819 42.8908 48.8675 42.5383C48.8578 42.3176 48.8819 42.0992 48.5658 42.1489ZM56.2256 41.4532C56.479 41.5168 56.5635 41.3873 56.5647 41.11C56.5659 40.8084 56.3753 40.8338 56.1677 40.8257C55.9216 40.8165 55.7502 40.8326 55.749 41.1493C55.749 41.4809 55.9469 41.4705 56.2256 41.4532ZM50.044 40.8303C49.799 40.813 49.6083 40.8118 49.6059 41.1389C49.6035 41.4624 49.7845 41.4636 50.0246 41.4601C50.2358 41.4567 50.4156 41.4763 50.4192 41.177C50.4228 40.8927 50.3203 40.7864 50.044 40.8303ZM48.4584 38.7802C48.707 38.8103 48.8723 38.7837 48.8675 38.4647C48.8626 38.1874 48.7323 38.1597 48.5031 38.1585C48.2617 38.1585 48.0795 38.1585 48.0928 38.4809C48.1037 38.7456 48.2135 38.8195 48.4584 38.7802ZM53.0546 38.1666C52.8072 38.1285 52.7046 38.2047 52.6974 38.4694C52.6877 38.7952 52.8736 38.7825 53.1125 38.7895C53.361 38.7976 53.4612 38.7375 53.4696 38.4751C53.4805 38.1504 53.2947 38.1446 53.0546 38.1666ZM54.6485 38.7825C54.9309 38.8288 55.0142 38.7086 55.0166 38.4382C55.0202 38.0868 54.7752 38.1781 54.5761 38.1585C54.3215 38.1331 54.2407 38.2336 54.2322 38.4798C54.2226 38.7987 54.4084 38.8068 54.6485 38.7825ZM54.6389 41.4451C54.8742 41.496 55.019 41.4382 55.0166 41.1285C55.0142 40.8419 54.8633 40.8349 54.6401 40.8303C54.3927 40.8257 54.2226 40.8349 54.2335 41.155C54.2431 41.4347 54.3758 41.4775 54.6389 41.4451ZM48.3812 41.4555C48.6298 41.4382 48.8844 41.5318 48.8651 41.1655C48.853 40.9285 48.8071 40.8014 48.5308 40.8315C48.3269 40.8534 48.0771 40.7644 48.0952 41.1215C48.1061 41.3538 48.1435 41.4994 48.3812 41.4555ZM51.5318 38.7802C51.7948 38.8207 51.942 38.7629 51.9372 38.4578C51.9324 38.1724 51.7755 38.1481 51.5547 38.1608C51.3628 38.1724 51.148 38.1134 51.1517 38.4335C51.1553 38.7097 51.2397 38.8334 51.5318 38.7802Z" fill="url(#paint1_linear_1069_9337)"/>
<path d="M53.8197 23.7879C53.8141 22.633 53.8095 21.4781 53.8017 20.3232C53.7983 19.8584 54.0147 19.6433 54.4915 19.659C55.0157 19.6769 55.5422 19.6724 56.0675 19.6601C56.5567 19.6489 56.7281 19.892 56.7213 20.3524C56.7066 21.3583 56.701 22.3653 56.7224 23.3712C56.7292 23.6949 56.6367 23.9301 56.3425 24.0376C55.7958 24.2381 55.7676 24.647 55.6695 25.1555C55.5534 25.7537 55.5061 26.3373 55.4959 26.9355C55.4914 27.1908 55.3212 27.2256 55.1115 27.2256C53.1614 27.2222 51.2101 27.2189 49.2599 27.2278C48.986 27.2289 48.9082 27.1382 48.9161 26.875C48.9341 26.2981 48.907 25.719 48.9273 25.1421C48.9544 24.3804 49.4639 23.7408 50.2203 23.6814C51.1514 23.6097 52.0927 23.6467 53.0295 23.6747C53.2572 23.6814 53.4815 23.8394 53.707 23.9279C53.7149 23.9503 53.7318 23.9592 53.7554 23.9548C54.1872 24.3916 54.3754 24.9102 54.3236 25.5241C54.2988 25.8198 54.3405 26.1211 54.3134 26.4168C54.283 26.745 54.4544 26.7574 54.7136 26.7708C55.027 26.7876 55.0056 26.6207 55.036 26.3989C55.1262 25.7459 54.6866 25.1656 54.8049 24.5115C54.832 24.3614 54.6595 24.3166 54.5479 24.2527C54.3225 24.1217 54.1004 23.9861 53.8761 23.8528C53.8749 23.8147 53.8569 23.7935 53.8197 23.7879ZM56.2456 21.9038C56.2456 21.458 56.2253 21.0099 56.2523 20.5652C56.2715 20.2381 56.2016 20.088 55.8307 20.1227C55.4599 20.1575 55.0811 20.1474 54.708 20.125C54.4115 20.1071 54.274 20.1675 54.283 20.5081C54.3067 21.4187 54.2909 22.3305 54.2943 23.2423C54.2943 23.3667 54.2548 23.5123 54.3867 23.6008C54.7441 23.8394 55.1014 24.1172 55.5703 23.9391C56.0359 23.7621 56.3583 23.4921 56.2557 22.9074C56.1982 22.5815 56.2456 22.2387 56.2456 21.9038Z" fill="url(#paint2_linear_1069_9337)"/>
<path d="M11.4517 42.7621C10.8645 42.7621 10.276 42.7835 9.69014 42.7545C9.30044 42.7356 9.11997 42.8326 9.17228 43.2368C9.20105 43.4635 9.18405 43.6977 9.16443 43.9257C9.14089 44.1939 8.9722 44.3526 8.69103 44.3412C8.41771 44.3312 8.25817 44.1725 8.22155 43.9068C8.21894 43.8866 8.22286 43.864 8.21894 43.8438C8.14963 43.4887 8.42425 42.9976 8.0777 42.8011C7.78215 42.6336 7.31529 42.7507 6.92427 42.7356C6.14878 42.7042 5.98139 42.5341 5.97747 41.7798C5.97355 41.2358 5.9827 40.6905 5.97616 40.1465C5.97224 39.8179 6.1017 39.5811 6.42472 39.4552C6.73727 39.333 7.01189 39.4451 7.17928 39.6743C8.07116 40.8933 9.32921 41.0469 10.752 40.9764C12.4011 40.8945 14.058 40.955 15.711 40.955C16.3975 40.955 16.6918 41.2131 16.7101 41.8277C16.7297 42.4762 16.4355 42.7545 15.7188 42.7646C15.6103 42.7659 15.4991 42.7785 15.3932 42.7621C14.9028 42.6878 14.6609 42.8414 14.7498 43.3565C14.7812 43.5391 14.7668 43.7343 14.7472 43.9206C14.721 44.1876 14.551 44.3425 14.2725 44.3412C13.9965 44.34 13.8344 44.1939 13.8056 43.9168C13.7677 43.5491 13.9795 43.0026 13.7023 42.8527C13.3505 42.6626 12.8196 42.7747 12.3658 42.7633C12.0611 42.7558 11.7564 42.7621 11.4517 42.7621Z" fill="url(#paint3_linear_1069_9337)"/>
<path d="M12.1993 25.0777C11.8198 25.5636 11.3031 25.5935 10.7256 25.5799C9.2989 25.5459 7.87086 25.5581 6.44282 25.5731C6.02313 25.5772 5.81675 25.569 6.12147 25.0859C6.88467 23.8775 7.61185 22.6459 8.33487 21.4143C8.51493 21.1081 8.71716 20.9707 9.09391 20.9748C10.7283 20.9965 12.3641 20.9952 13.9986 20.9775C14.3559 20.9734 14.5 21.0605 14.4058 21.4143L14.4113 21.4116C14.349 21.3667 14.2991 21.368 14.2576 21.4402C13.6717 22.4322 13.0844 23.4229 12.4971 24.4136C12.4514 24.498 12.3143 24.5742 12.4722 24.6763L12.4805 24.6708C12.3004 24.5906 12.3129 24.7008 12.3309 24.8165L12.3364 24.8083C12.1688 24.8437 12.0733 24.9144 12.1924 25.09L12.1993 25.0777Z" fill="url(#paint4_linear_1069_9337)"/>
<path d="M31.2177 43.6702C27.3967 43.6687 23.5757 43.6554 19.7547 43.6834C19.131 43.6878 18.9715 43.5553 18.9891 43.0429C19.0066 42.5776 19.0521 42.3656 19.7284 42.3671C27.3704 42.3906 35.0125 42.3906 42.6545 42.3685C43.336 42.3671 43.3798 42.5997 43.3851 43.0576C43.3921 43.5141 43.2817 43.6864 42.6808 43.6819C38.8598 43.6599 35.0388 43.6716 31.2177 43.6702Z" fill="url(#paint5_linear_1069_9337)"/>
<path d="M31.1394 40.4127C34.5227 40.4127 37.9059 40.4363 41.2874 40.3926C41.9984 40.3835 42.0597 40.6641 42.0825 41.2836C42.1105 41.9979 41.8075 42.0343 41.2594 42.0343C34.5524 42.0179 27.8437 42.0143 21.1367 42.0379C20.5133 42.0398 20.2944 41.9286 20.2891 41.2107C20.2839 40.4546 20.5763 40.3999 21.1647 40.4035C24.4902 40.4254 27.8157 40.4127 31.1394 40.4127Z" fill="url(#paint6_linear_1069_9337)"/>
<path d="M10.5587 38.9126C11.616 38.9974 12.5424 39.2353 13.4306 39.5998C13.8125 39.7567 14.2077 39.7061 14.6002 39.7086C14.9359 39.7111 15.0324 39.4783 15.0839 39.21C15.1487 38.8696 15.3522 38.6569 15.7249 38.7506C16.0699 38.8367 16.087 39.1125 16.0421 39.4137C15.8584 40.6426 15.7725 40.7185 14.4495 40.7185C12.8676 40.7185 11.2843 40.7274 9.70227 40.7147C8.93176 40.7084 8.47316 40.2389 8.59872 39.6264C8.66215 39.3176 8.85775 38.9708 9.14983 38.9898C10.0221 39.0455 10.5058 38.3304 11.2367 38.1305C11.4415 38.0748 11.6649 37.9849 11.6477 37.7103C11.6305 37.4357 11.3847 37.4888 11.2116 37.4281C10.753 37.2674 10.5005 36.9522 10.4952 36.4751C10.4926 36.2018 10.4939 35.9284 10.4952 35.655C10.4966 34.6806 11.0768 34.2389 12.0191 34.5856C12.327 34.6983 13.0129 34.435 12.9112 35.1273C12.7922 35.9309 13.3896 36.9636 12.1605 37.4395C12.101 37.4623 11.9808 37.4825 11.9821 37.4964C12.0746 38.4013 11.2129 38.3684 10.7146 38.6911C10.6657 38.7177 10.6433 38.7848 10.5587 38.9126ZM11.6992 35.2969C11.4534 35.7651 10.8732 36.0385 11.3345 36.5688C11.5235 36.7864 11.8327 36.8156 12.0363 36.6118C12.5623 36.0841 11.9755 35.7651 11.6992 35.2969Z" fill="url(#paint7_linear_1069_9337)"/>
<path d="M49.8916 21.6185C49.8951 20.7046 50.6249 19.9793 51.5324 19.9874C52.4422 19.9955 53.1514 20.7243 53.1446 21.6474C53.1388 22.5647 52.4124 23.2865 51.5049 23.2784C50.5951 23.2703 49.8882 22.5427 49.8916 21.6185Z" fill="url(#paint8_linear_1069_9337)"/>
<path d="M14.9 21.6329C15.6942 22.9056 16.4884 24.1796 17.3617 25.578C16.5036 25.578 15.7414 25.5912 14.9791 25.5714C14.7195 25.5648 14.7625 25.3293 14.7612 25.1599C14.7584 24.0023 14.7598 22.8448 14.7598 21.6872C14.807 21.6687 14.8542 21.6515 14.9 21.6329Z" fill="url(#paint9_linear_1069_9337)"/>
<path d="M14.4742 21.3066C14.6014 21.4385 14.7661 21.501 14.7589 21.7622C14.7257 22.868 14.7315 23.9766 14.7517 25.0838C14.7589 25.4491 14.6288 25.5783 14.2574 25.5644C13.7299 25.545 13.1952 25.5116 12.6749 25.5728C12.1778 25.6311 12.1228 25.4158 12.1705 25.049L12.1662 25.0602C12.3873 25.0463 12.4899 24.9754 12.3165 24.7726L12.3107 24.7809C12.5246 24.8879 12.5029 24.767 12.4668 24.6323L12.4581 24.6378C12.6084 24.7365 12.5925 24.5962 12.6287 24.5295C13.2516 23.5473 13.8759 22.5679 14.493 21.5816C14.5421 21.5038 14.6578 21.3885 14.4814 21.3038L14.4742 21.3066Z" fill="url(#paint10_linear_1069_9337)"/>
<path d="M7.90624 39.4049C7.37585 39.3943 6.9419 39.0104 6.95183 38.5617C6.96175 38.1152 7.41698 37.7491 7.95162 37.7597C8.48484 37.7692 8.91595 38.1507 8.90319 38.6006C8.89043 39.053 8.44229 39.4144 7.90624 39.4049Z" fill="url(#paint11_linear_1069_9337)"/>
<path d="M57.4608 45C57.4608 44.9799 57.46 44.9598 57.46 44.9389C57.4962 44.934 57.5307 44.9365 57.5206 44.9831C57.5181 44.992 57.481 44.9944 57.4608 45Z" fill="url(#paint12_linear_1069_9337)"/>
<path fill-rule="evenodd" clip-rule="evenodd" d="M29.4807 25.2236C30.0446 25.2235 30.6085 25.2234 31.1724 25.2234C31.4545 25.2236 31.7365 25.2237 32.0186 25.2239C35.1194 25.2255 38.2191 25.2272 41.3217 25.2134C41.3791 25.2134 41.4428 25.2228 41.5084 25.2324C41.747 25.2676 42.009 25.3063 42.0737 24.9072C42.1432 24.4806 41.8584 24.384 41.5654 24.2846C41.5332 24.2736 41.5009 24.2627 41.4689 24.2512C40.5095 23.9075 39.5499 23.5642 38.5903 23.2208C36.2803 22.3943 33.9704 21.5679 31.6632 20.7356C31.3459 20.6218 31.0724 20.6118 30.7481 20.7289C27.4562 21.9203 24.159 23.095 20.86 24.2696C20.5094 24.3951 20.2062 24.5273 20.3096 24.9657C20.3882 25.2997 20.6263 25.2642 20.8437 25.2317C20.9074 25.2222 20.9692 25.213 21.0248 25.2134C23.8425 25.2245 26.6615 25.2241 29.4807 25.2236ZM31.1876 21.9645C31.1907 21.9587 31.1938 21.9529 31.1969 21.9471C31.2814 22.105 31.3609 22.2512 31.436 22.3895C31.6196 22.7272 31.7773 23.0173 31.9191 23.3142C32.004 23.4907 32.0316 23.6604 31.9995 23.8166C31.9925 24.043 31.8814 24.2479 31.6609 24.4148C31.3486 24.649 31.0014 24.6578 30.6961 24.4236C30.446 24.2318 30.348 23.9768 30.3789 23.7049C30.3767 23.5777 30.4077 23.445 30.4694 23.3125C30.6013 23.0282 30.7537 22.7529 30.9272 22.4395C30.996 22.3153 31.0681 22.1851 31.1435 22.046C31.1577 22.0184 31.1719 21.9904 31.1863 21.962C31.1867 21.9628 31.1872 21.9636 31.1876 21.9645Z" fill="url(#paint13_linear_1069_9337)"/>
<path d="M14.3451 21.3355C14.5109 21.4197 14.4017 21.5377 14.3559 21.6163C13.7802 22.6115 13.1978 23.6025 12.6168 24.5949C12.5723 24.5416 12.5264 24.4882 12.4819 24.4335C13.0536 23.4116 13.6252 22.3883 14.1955 21.3664C14.2359 21.2906 14.2844 21.2878 14.3451 21.3355Z" fill="url(#paint14_linear_1069_9337)"/>
<path d="M12.292 24.2658C12.3547 24.3233 12.4193 24.3808 12.482 24.4398C12.4345 24.5124 12.4554 24.6652 12.2578 24.5578C12.0411 24.4443 12.2312 24.3596 12.292 24.2658Z" fill="url(#paint15_linear_1069_9337)"/>
<path d="M12.4423 24.638C12.5043 24.8412 12.5416 25.0234 12.1742 24.8622C12.1419 24.6841 12.1195 24.5123 12.4423 24.638Z" fill="url(#paint16_linear_1069_9337)"/>
<path d="M11.8244 35.1266C12.1551 35.6574 12.8592 36.0189 12.2279 36.6156C11.9842 36.8466 11.614 36.815 11.3877 36.5668C10.8355 35.9686 11.5301 35.6574 11.8244 35.1266Z" fill="url(#paint17_linear_1069_9337)"/>
<path d="M52.3603 39.7342C52.5331 39.9809 52.84 40.2356 52.818 40.433C52.7887 40.697 52.5415 41.1091 52.2922 41.0437C52.1362 41.0037 51.7989 40.7023 51.8481 40.4023C51.8879 40.1583 52.1644 39.9756 52.3603 39.7342Z" fill="url(#paint18_linear_1069_9337)"/>
<path d="M56.0722 21.813C56.0677 21.9476 56.0767 22.1029 55.8874 22.0994C55.6846 22.096 55.5742 22.1462 55.5866 22.3848C55.6012 22.6701 55.3161 22.6416 55.2316 22.5788C54.9567 22.3745 54.7009 22.1291 54.4891 21.8598C54.4203 21.7719 54.4045 21.4809 54.6648 21.4774C54.9127 21.474 54.9972 21.3827 54.9894 21.1419C54.9826 20.933 55.1539 20.981 55.2767 20.9764C55.4547 20.9684 56.0801 21.6315 56.0722 21.813Z" fill="url(#paint19_linear_1069_9337)"/>
<line y1="-0.5" x2="11.8179" y2="-0.5" transform="matrix(0.880833 0.473427 -0.4649 0.885363 13.458 25.2532)" stroke="url(#paint20_linear_1069_9337)"/>
<line y1="-0.5" x2="9.96312" y2="-0.5" transform="matrix(-0.848914 0.528531 -0.519673 -0.854366 23.8677 33.481)" stroke="url(#paint21_linear_1069_9337)"/>
<line y1="-0.5" x2="12.2825" y2="-0.5" transform="matrix(0.926971 -0.375134 0.367673 0.929955 38.5059 30.1899)" stroke="url(#paint22_linear_1069_9337)"/>
<line y1="-0.5" x2="10.4988" y2="-0.5" transform="matrix(-0.898552 -0.438868 0.430651 -0.902519 47.9399 40.7215)" stroke="url(#paint23_linear_1069_9337)"/>
<rect x="0.587156" y="-0.587156" width="62.8257" height="62.8257" rx="8.80734" transform="matrix(1 0 0 -1 0 62.8257)" stroke="url(#paint24_linear_1069_9337)" stroke-width="1.17431"/>
<defs>
<linearGradient id="paint0_linear_1069_9337" x1="21.5903" y1="30.9436" x2="40.7933" y2="31.0578" gradientUnits="userSpaceOnUse">
<stop stop-color="#214F89"/>
<stop offset="1" stop-color="#12BCAB"/>
</linearGradient>
<linearGradient id="paint1_linear_1069_9337" x1="47.2891" y1="38.9164" x2="57.3787" y2="38.9768" gradientUnits="userSpaceOnUse">
<stop stop-color="#214F89"/>
<stop offset="1" stop-color="#12BCAB"/>
</linearGradient>
<linearGradient id="paint2_linear_1069_9337" x1="48.9155" y1="22.4607" x2="56.727" y2="22.4969" gradientUnits="userSpaceOnUse">
<stop stop-color="#214F89"/>
<stop offset="1" stop-color="#12BCAB"/>
</linearGradient>
<linearGradient id="paint3_linear_1069_9337" x1="5.97607" y1="41.2328" x2="16.7161" y2="41.3376" gradientUnits="userSpaceOnUse">
<stop stop-color="#214F89"/>
<stop offset="1" stop-color="#12BCAB"/>
</linearGradient>
<linearGradient id="paint4_linear_1069_9337" x1="5.97607" y1="22.6805" x2="14.4381" y2="22.7502" gradientUnits="userSpaceOnUse">
<stop stop-color="#214F89"/>
<stop offset="1" stop-color="#12BCAB"/>
</linearGradient>
<linearGradient id="paint5_linear_1069_9337" x1="18.9878" y1="42.8545" x2="43.2315" y2="44.8709" gradientUnits="userSpaceOnUse">
<stop stop-color="#214F89"/>
<stop offset="1" stop-color="#12BCAB"/>
</linearGradient>
<linearGradient id="paint6_linear_1069_9337" x1="20.2891" y1="41.0016" x2="42.0198" y2="42.2933" gradientUnits="userSpaceOnUse">
<stop stop-color="#214F89"/>
<stop offset="1" stop-color="#12BCAB"/>
</linearGradient>
<linearGradient id="paint7_linear_1069_9337" x1="8.57812" y1="36.7835" x2="16.0641" y2="36.8237" gradientUnits="userSpaceOnUse">
<stop stop-color="#214F89"/>
<stop offset="1" stop-color="#12BCAB"/>
</linearGradient>
<linearGradient id="paint8_linear_1069_9337" x1="49.8916" y1="21.2058" x2="53.1464" y2="21.2203" gradientUnits="userSpaceOnUse">
<stop stop-color="#214F89"/>
<stop offset="1" stop-color="#12BCAB"/>
</linearGradient>
<linearGradient id="paint9_linear_1069_9337" x1="14.7593" y1="23.0951" x2="17.3631" y2="23.1028" gradientUnits="userSpaceOnUse">
<stop stop-color="#214F89"/>
<stop offset="1" stop-color="#12BCAB"/>
</linearGradient>
<linearGradient id="paint10_linear_1069_9337" x1="12.1567" y1="22.8878" x2="14.7606" y2="22.8949" gradientUnits="userSpaceOnUse">
<stop stop-color="#214F89"/>
<stop offset="1" stop-color="#12BCAB"/>
</linearGradient>
<linearGradient id="paint11_linear_1069_9337" x1="6.95166" y1="38.3688" x2="8.90452" y2="38.3792" gradientUnits="userSpaceOnUse">
<stop stop-color="#214F89"/>
<stop offset="1" stop-color="#12BCAB"/>
</linearGradient>
<linearGradient id="paint12_linear_1069_9337" x1="57.46" y1="44.9604" x2="57.5224" y2="44.9607" gradientUnits="userSpaceOnUse">
<stop stop-color="#214F89"/>
<stop offset="1" stop-color="#12BCAB"/>
</linearGradient>
<linearGradient id="paint13_linear_1069_9337" x1="20.2891" y1="22.3514" x2="42.0867" y2="22.8142" gradientUnits="userSpaceOnUse">
<stop stop-color="#214F89"/>
<stop offset="1" stop-color="#12BCAB"/>
</linearGradient>
<linearGradient id="paint14_linear_1069_9337" x1="12.4819" y1="22.5222" x2="14.4348" y2="22.5274" gradientUnits="userSpaceOnUse">
<stop stop-color="#214F89"/>
<stop offset="1" stop-color="#12BCAB"/>
</linearGradient>
<linearGradient id="paint15_linear_1069_9337" x1="12.1567" y1="24.3877" x2="12.4822" y2="24.3891" gradientUnits="userSpaceOnUse">
<stop stop-color="#214F89"/>
<stop offset="1" stop-color="#12BCAB"/>
</linearGradient>
<linearGradient id="paint16_linear_1069_9337" x1="12.1567" y1="24.7168" x2="12.4822" y2="24.7182" gradientUnits="userSpaceOnUse">
<stop stop-color="#214F89"/>
<stop offset="1" stop-color="#12BCAB"/>
</linearGradient>
<linearGradient id="paint17_linear_1069_9337" x1="11.1807" y1="35.7358" x2="12.4826" y2="35.7404" gradientUnits="userSpaceOnUse">
<stop stop-color="#214F89"/>
<stop offset="1" stop-color="#12BCAB"/>
</linearGradient>
<linearGradient id="paint18_linear_1069_9337" x1="51.8433" y1="40.2216" x2="52.8197" y2="40.2248" gradientUnits="userSpaceOnUse">
<stop stop-color="#214F89"/>
<stop offset="1" stop-color="#12BCAB"/>
</linearGradient>
<linearGradient id="paint19_linear_1069_9337" x1="54.4458" y1="21.5839" x2="56.0732" y2="21.5911" gradientUnits="userSpaceOnUse">
<stop stop-color="#214F89"/>
<stop offset="1" stop-color="#12BCAB"/>
</linearGradient>
<linearGradient id="paint20_linear_1069_9337" x1="-1.83821e-09" y1="0.370229" x2="11.7915" y2="0.995612" gradientUnits="userSpaceOnUse">
<stop stop-color="#214F89"/>
<stop offset="1" stop-color="#12BCAB"/>
</linearGradient>
<linearGradient id="paint21_linear_1069_9337" x1="-1.5497e-09" y1="0.370229" x2="9.94886" y2="0.81507" gradientUnits="userSpaceOnUse">
<stop stop-color="#214F89"/>
<stop offset="1" stop-color="#12BCAB"/>
</linearGradient>
<linearGradient id="paint22_linear_1069_9337" x1="-1.91047e-09" y1="0.370229" x2="12.2522" y2="1.0456" gradientUnits="userSpaceOnUse">
<stop stop-color="#214F89"/>
<stop offset="1" stop-color="#12BCAB"/>
</linearGradient>
<linearGradient id="paint23_linear_1069_9337" x1="-1.63302e-09" y1="0.370229" x2="10.4815" y2="0.864085" gradientUnits="userSpaceOnUse">
<stop stop-color="#214F89"/>
<stop offset="1" stop-color="#12BCAB"/>
</linearGradient>
<linearGradient id="paint24_linear_1069_9337" x1="-9.95479e-09" y1="23.6946" x2="64.0349" y2="23.982" gradientUnits="userSpaceOnUse">
<stop stop-color="#214F89"/>
<stop offset="1" stop-color="#12BCAB"/>
</linearGradient>
</defs>
</svg>
