<svg width="50" height="50" viewBox="0 0 50 50" fill="none" xmlns="http://www.w3.org/2000/svg">
<path fill-rule="evenodd" clip-rule="evenodd" d="M0 29.6902H25.27L50 4.9502H0V29.6902Z" fill="url(#paint0_linear_1908_209)"/>
<path fill-rule="evenodd" clip-rule="evenodd" d="M29.6696 9.59959H24.7496V21.2996L20.4496 9.59959H16.1896L12.5196 19.3896C12.1296 16.9196 9.57964 16.0696 7.56964 15.3896C6.23964 14.9596 4.83964 14.3896 4.84964 13.6396C4.85964 12.8896 5.59964 12.5496 7.06964 12.6396C8.33175 12.6841 9.5654 13.0268 10.6696 13.6396L12.3896 10.6396C10.6466 9.80486 8.74215 9.36117 6.80964 9.33959C5.91103 9.29705 5.01297 9.43435 4.16812 9.74344C3.32327 10.0525 2.54864 10.5272 1.88964 11.1396C1.14151 11.9055 0.715592 12.9291 0.699643 13.9996C0.658507 14.6704 0.7927 15.3403 1.08902 15.9434C1.38534 16.5466 1.83358 17.0622 2.38964 17.4396C3.41608 18.1347 4.54701 18.6614 5.73964 18.9996C7.09964 19.4196 8.21964 19.7896 8.19964 20.5696C8.19966 20.7127 8.17141 20.8544 8.11649 20.9865C8.06157 21.1187 7.98108 21.2387 7.87964 21.3396C7.4388 21.7068 6.87147 21.8863 6.29964 21.8396C4.85099 21.8958 3.42204 21.4895 2.21964 20.6796L0.699643 23.6796C2.39632 24.6493 4.3154 25.1627 6.26964 25.1696H6.52964C8.06084 25.1958 9.55443 24.6944 10.7596 23.7496L10.9396 23.5996L10.4496 24.9196H14.9196L15.6696 22.6396C16.5218 22.8978 17.4095 23.0193 18.2996 22.9996C19.1681 23.0038 20.0319 22.8722 20.8596 22.6096L21.5896 24.8696H28.8796V20.1696H30.4696C34.3096 20.1696 36.5896 18.1696 36.5896 14.9296C36.5896 11.2796 34.3796 9.59959 29.6696 9.59959ZM18.2996 19.5996C17.7603 19.6035 17.2248 19.5086 16.7196 19.3196L18.2796 14.3996L19.8096 19.3296C19.327 19.5134 18.816 19.6116 18.2996 19.6196V19.5996ZM29.9996 16.7896H28.8796V12.7896H29.9996C31.4496 12.7896 32.5996 13.2696 32.5996 14.7896C32.5996 16.3096 31.4496 16.7896 29.9996 16.7896Z" fill="white"/>
<path d="M31.32 28.0804C31.328 27.7415 31.4693 27.4195 31.7132 27.1841C31.9571 26.9487 32.284 26.819 32.6229 26.823C32.9618 26.827 33.2855 26.9645 33.5238 27.2056C33.762 27.4466 33.8956 27.7719 33.8956 28.1109C33.8956 28.4499 33.762 28.7752 33.5238 29.0162C33.2855 29.2573 32.9618 29.3948 32.6229 29.3988C32.284 29.4028 31.9571 29.2731 31.7132 29.0377C31.4693 28.8023 31.328 28.4803 31.32 28.1414C31.319 28.1214 31.319 28.1004 31.32 28.0804ZM32.62 29.6904C33.0444 29.6864 33.4499 29.5146 33.7478 29.2124C34.0458 28.9102 34.212 28.5023 34.21 28.078C34.208 27.6536 34.038 27.2473 33.7373 26.9479C33.4365 26.6485 33.0294 26.4805 32.605 26.4805C32.1806 26.4805 31.7735 26.6485 31.4727 26.9479C31.172 27.2473 31.002 27.6536 31 28.078C30.998 28.5023 31.1642 28.9102 31.4622 29.2124C31.7601 29.5146 32.1656 29.6864 32.59 29.6904H32.62ZM32.28 28.2104H32.6L33.09 29.0104H33.41L32.88 28.2004C32.9444 28.1992 33.0079 28.1854 33.0669 28.1596C33.1259 28.1338 33.1793 28.0966 33.2239 28.0501C33.2685 28.0037 33.3035 27.9489 33.3268 27.8888C33.3502 27.8288 33.3615 27.7648 33.36 27.7004V27.6904C33.36 27.3204 33.14 27.1604 32.71 27.1604H32V29.0004H32.28V28.2104ZM32.28 27.9704V27.4004H32.66C32.86 27.4004 33.06 27.4004 33.06 27.6704C33.06 27.9404 32.85 27.9704 32.62 27.9704H32.28Z" fill="url(#paint1_linear_1908_209)"/>
<path d="M0 44.8799V34.8799H6.87V36.5799H2V38.9499H6.21V40.6499H2V44.9099L0 44.8799Z" fill="url(#paint2_linear_1908_209)"/>
<path d="M8.48047 44.8799V34.8799H10.4805V44.8799H8.48047Z" fill="url(#paint3_linear_1908_209)"/>
<path d="M12.0003 39.9301C11.9725 39.0508 12.1292 38.1753 12.4603 37.3601C12.6903 36.8521 13.0124 36.391 13.4103 36.0001C13.7767 35.618 14.2151 35.3121 14.7003 35.1001C15.387 34.8262 16.121 34.6902 16.8603 34.7001C17.5154 34.6704 18.1696 34.7778 18.7809 35.0155C19.3922 35.2531 19.9472 35.6157 20.4103 36.0801C20.8721 36.5982 21.2273 37.2023 21.4555 37.8578C21.6837 38.5132 21.7805 39.2073 21.7403 39.9001C21.8211 41.2917 21.3464 42.6584 20.4203 43.7001C19.9594 44.1613 19.4074 44.5213 18.7996 44.7571C18.1918 44.993 17.5416 45.0996 16.8903 45.0701C16.2358 45.1013 15.582 44.9956 14.9707 44.7597C14.3594 44.5238 13.8041 44.1629 13.3403 43.7001C12.8776 43.1923 12.5208 42.5974 12.2907 41.9501C12.0606 41.3027 11.9619 40.6161 12.0003 39.9301ZM14.0803 39.8601C14.0135 40.7885 14.2952 41.7084 14.8703 42.4401C15.1085 42.7028 15.3961 42.916 15.7167 43.0675C16.0373 43.219 16.3846 43.3058 16.7387 43.3231C17.0929 43.3404 17.447 43.2877 17.7808 43.1681C18.1146 43.0485 18.4216 42.8644 18.6843 42.6261C18.7509 42.5675 18.8129 42.5055 18.8703 42.4401C19.4419 41.6916 19.7194 40.7595 19.6503 39.8201C19.7184 38.8995 19.4481 37.9857 18.8903 37.2501C18.6392 36.971 18.33 36.7503 17.9845 36.6034C17.639 36.4566 17.2655 36.3872 16.8903 36.4001C16.5143 36.3883 16.1402 36.4592 15.7947 36.6078C15.4491 36.7564 15.1403 36.9791 14.8903 37.2601C14.3136 37.9988 14.032 38.9255 14.1003 39.8601H14.0803Z" fill="url(#paint4_linear_1908_209)"/>
<path d="M23.3203 44.8798V34.8798H27.5803C28.3697 34.8437 29.1598 34.9348 29.9203 35.1498C30.4094 35.3416 30.8185 35.6943 31.0803 36.1498C31.3754 36.6234 31.5281 37.1718 31.5203 37.7298C31.5463 38.4144 31.3103 39.0831 30.8603 39.5998C30.3231 40.1328 29.6146 40.4587 28.8603 40.5198C29.2551 40.7519 29.6181 41.0343 29.9403 41.3598C30.3687 41.8699 30.7533 42.4152 31.0903 42.9898L32.3103 44.9898H29.9103L28.4503 42.6998C28.1292 42.1817 27.7716 41.6871 27.3803 41.2198C27.2173 41.0356 27.0111 40.8947 26.7803 40.8098C26.4555 40.717 26.1179 40.6765 25.7803 40.6898H25.3703V44.8798H23.3203ZM25.3203 39.0898H26.8103C27.4284 39.1329 28.0494 39.1026 28.6603 38.9998C28.8914 38.9264 29.0918 38.7787 29.2303 38.5798C29.3766 38.354 29.45 38.0886 29.4403 37.8198C29.4544 37.5255 29.3581 37.2367 29.1703 37.0098C28.9679 36.791 28.6957 36.6495 28.4003 36.6098H25.3503L25.3203 39.0898Z" fill="url(#paint5_linear_1908_209)"/>
<path d="M33.3701 44.8799V34.8799H35.3701V44.8799H33.3701Z" fill="url(#paint6_linear_1908_209)"/>
<defs>
<linearGradient id="paint0_linear_1908_209" x1="-7.77718e-09" y1="14.1097" x2="50.0241" y2="14.5634" gradientUnits="userSpaceOnUse">
<stop stop-color="#214F89"/>
<stop offset="1" stop-color="#12BCAB"/>
</linearGradient>
<linearGradient id="paint1_linear_1908_209" x1="31" y1="27.6689" x2="34.2118" y2="27.6833" gradientUnits="userSpaceOnUse">
<stop stop-color="#214F89"/>
<stop offset="1" stop-color="#12BCAB"/>
</linearGradient>
<linearGradient id="paint2_linear_1908_209" x1="-1.06858e-09" y1="38.5933" x2="6.87382" y2="38.6144" gradientUnits="userSpaceOnUse">
<stop stop-color="#214F89"/>
<stop offset="1" stop-color="#12BCAB"/>
</linearGradient>
<linearGradient id="paint3_linear_1908_209" x1="8.48047" y1="38.5822" x2="10.4816" y2="38.584" gradientUnits="userSpaceOnUse">
<stop stop-color="#214F89"/>
<stop offset="1" stop-color="#12BCAB"/>
</linearGradient>
<linearGradient id="paint4_linear_1908_209" x1="11.9922" y1="38.5384" x2="21.7545" y2="38.5795" gradientUnits="userSpaceOnUse">
<stop stop-color="#214F89"/>
<stop offset="1" stop-color="#12BCAB"/>
</linearGradient>
<linearGradient id="paint5_linear_1908_209" x1="23.3203" y1="38.6179" x2="32.3153" y2="38.6538" gradientUnits="userSpaceOnUse">
<stop stop-color="#214F89"/>
<stop offset="1" stop-color="#12BCAB"/>
</linearGradient>
<linearGradient id="paint6_linear_1908_209" x1="33.3701" y1="38.5822" x2="35.3712" y2="38.584" gradientUnits="userSpaceOnUse">
<stop stop-color="#214F89"/>
<stop offset="1" stop-color="#12BCAB"/>
</linearGradient>
</defs>
</svg>
