<svg width="50" height="50" viewBox="0 0 50 50" fill="none" xmlns="http://www.w3.org/2000/svg">
<g clip-path="url(#clip0_1908_239)">
<path fill-rule="evenodd" clip-rule="evenodd" d="M30.2199 16.0498H29.1299V20.0498H30.2199C31.6599 20.0498 32.8099 19.5698 32.8099 18.0498C32.8099 16.5298 31.6599 16.0498 30.2199 16.0498Z" fill="url(#paint0_linear_1908_239)"/>
<path fill-rule="evenodd" clip-rule="evenodd" d="M18.53 17.6504L17 22.5704C17.5053 22.7589 18.0407 22.8538 18.58 22.8504C19.1075 22.8504 19.6314 22.7625 20.13 22.5904L18.6 17.6504H18.53Z" fill="url(#paint1_linear_1908_239)"/>
<path fill-rule="evenodd" clip-rule="evenodd" d="M0.25 8.19043V32.9204H25.52L50.25 8.19043H0.25ZM30.72 23.4004H29.13V28.1304H21.84L21.12 25.8704C19.4277 26.4038 17.6123 26.4038 15.92 25.8704L15.17 28.1504H10.7L11.2 26.8304L11 27.0004C9.7879 27.9396 8.29324 28.4402 6.76 28.4204H6.52C4.58179 28.3929 2.68236 27.8733 1 26.9104L2.52 23.9104C3.72242 24.7203 5.15136 25.1266 6.6 25.0704C7.17531 25.121 7.74715 24.9411 8.19 24.5704C8.38842 24.3623 8.50246 24.0879 8.51 23.8004C8.51 23.0204 7.41 22.6504 6.04 22.2304C4.84839 21.9037 3.71722 21.3871 2.69 20.7004C2.13227 20.32 1.68316 19.8009 1.38685 19.1942C1.09053 18.5876 0.957213 17.9142 1 17.2404C1.01051 16.1678 1.43298 15.1402 2.18 14.3704C2.83906 13.7581 3.6137 13.2835 4.45854 12.9744C5.30337 12.6654 6.2014 12.528 7.1 12.5704C9.03007 12.6041 10.9301 13.0544 12.67 13.8904L10.96 16.8904C9.85575 16.2776 8.62211 15.9349 7.36 15.8904C5.89 15.8104 5.14 16.3404 5.13 16.8904C5.12 17.4404 6.52 18.2004 7.85 18.6304C9.85 19.2704 12.41 20.1204 12.8 22.6304L16.47 12.8404H20.7L25 24.5304V12.8304H29.93C34.63 12.8304 36.84 14.5004 36.84 18.1604C36.84 21.4504 34.56 23.4004 30.72 23.4004Z" fill="url(#paint2_linear_1908_239)"/>
<path d="M31.57 31.3202C31.5779 31.0649 31.6608 30.8176 31.8083 30.6091C31.9558 30.4007 32.1615 30.2403 32.3996 30.148C32.6378 30.0557 32.8978 30.0356 33.1473 30.0902C33.3968 30.1448 33.6246 30.2717 33.8025 30.455C33.9803 30.6383 34.1002 30.8699 34.1472 31.1209C34.1942 31.3719 34.1662 31.6312 34.0668 31.8665C33.9673 32.1017 33.8008 32.3024 33.5879 32.4435C33.3751 32.5847 33.1254 32.66 32.87 32.6602C32.6959 32.6602 32.5235 32.6253 32.3631 32.5575C32.2027 32.4897 32.0576 32.3904 31.9364 32.2654C31.8151 32.1404 31.7202 31.9923 31.6573 31.8299C31.5943 31.6676 31.5647 31.4942 31.57 31.3202ZM32.87 32.9202C33.1884 32.9182 33.4991 32.8218 33.7628 32.6433C34.0264 32.4647 34.2312 32.212 34.3513 31.9171C34.4713 31.6221 34.5011 31.2982 34.4371 30.9863C34.373 30.6744 34.2179 30.3885 33.9913 30.1647C33.7648 29.9409 33.477 29.7894 33.1643 29.7292C32.8516 29.669 32.5281 29.7029 32.2347 29.8266C31.9412 29.9503 31.6911 30.1582 31.5158 30.424C31.3406 30.6899 31.2481 31.0017 31.25 31.3202C31.25 31.532 31.2921 31.7417 31.3737 31.9371C31.4554 32.1325 31.575 32.3098 31.7257 32.4587C31.8764 32.6075 32.0552 32.7249 32.2516 32.8042C32.448 32.8834 32.6582 32.9228 32.87 32.9202ZM32.53 31.4402H32.86L33.34 32.2402H33.66L33.13 31.4302C33.1957 31.4303 33.2606 31.417 33.3209 31.391C33.3812 31.365 33.4355 31.3269 33.4805 31.2791C33.5255 31.2313 33.5602 31.1748 33.5825 31.1131C33.6048 31.0513 33.6141 30.9857 33.61 30.9202C33.61 30.5602 33.4 30.3902 32.96 30.3902H32.26V32.2402H32.53V31.4402ZM32.53 31.2002V30.6302H32.92C33.11 30.6302 33.32 30.6302 33.32 30.9002C33.32 31.1702 33.11 31.2002 32.87 31.2002H32.53Z" fill="url(#paint3_linear_1908_239)"/>
<path d="M3.51027 40.79H1.71027L1.37027 41.79H0.280273L2.13027 36.79H3.13027L4.99027 41.79H3.85027L3.51027 40.79ZM2.00027 40H3.23027L2.60027 38.1L2.00027 40Z" fill="url(#paint4_linear_1908_239)"/>
<path d="M6.09039 38.1196V38.5396C6.21554 38.3797 6.37694 38.2519 6.56125 38.1667C6.74557 38.0815 6.94751 38.0414 7.15039 38.0496C7.31324 38.036 7.47705 38.0596 7.62948 38.1185C7.78191 38.1774 7.91899 38.2701 8.03039 38.3896C8.23515 38.6817 8.33715 39.0334 8.32039 39.3896V41.7696H7.32039V39.4496C7.3443 39.2937 7.31243 39.1344 7.23039 38.9996C7.09966 38.8977 6.93576 38.8478 6.77039 38.8596C6.64335 38.8535 6.51724 38.8843 6.40725 38.9481C6.29725 39.012 6.20806 39.1063 6.15039 39.2196V41.8196H5.15039V38.1196H6.09039Z" fill="url(#paint5_linear_1908_239)"/>
<path d="M11.2401 41.8102C11.1893 41.7063 11.1556 41.5949 11.1401 41.4802C11.0245 41.6117 10.881 41.7158 10.7202 41.785C10.5593 41.8542 10.3851 41.8867 10.2101 41.8802C9.88185 41.8934 9.56063 41.7828 9.31011 41.5702C9.20367 41.4693 9.12072 41.3463 9.06715 41.2097C9.01358 41.0732 8.99069 40.9266 9.00011 40.7802C8.99096 40.6038 9.02649 40.4279 9.10341 40.2688C9.18032 40.1097 9.29613 39.9726 9.44011 39.8702C9.81829 39.6391 10.2575 39.5275 10.7001 39.5502H11.1501V39.3402C11.158 39.1923 11.1118 39.0466 11.0201 38.9302C10.9648 38.8768 10.8988 38.8357 10.8263 38.8098C10.7539 38.784 10.6768 38.7739 10.6001 38.7802C10.4602 38.7743 10.3225 38.8166 10.2101 38.9002C10.1639 38.9415 10.1273 38.9925 10.1031 39.0495C10.0789 39.1066 10.0677 39.1683 10.0701 39.2302H9.00011C9.00011 39.0139 9.07029 38.8033 9.20011 38.6302C9.34633 38.4408 9.53932 38.2926 9.76011 38.2002C10.0207 38.0959 10.2995 38.0449 10.5801 38.0502C10.9694 38.0291 11.3532 38.1499 11.6601 38.3902C11.8001 38.5142 11.9092 38.6692 11.9786 38.8428C12.0481 39.0165 12.076 39.2039 12.0601 39.3902V41.0002C12.0446 41.2751 12.0961 41.5496 12.2101 41.8002V41.8502L11.2401 41.8102ZM10.4201 41.1302C10.5627 41.1291 10.703 41.0949 10.8301 41.0302C10.9427 40.9706 11.0362 40.8805 11.1001 40.7702V40.1302H10.7301C10.2401 40.1302 9.97011 40.3002 9.94011 40.6502V40.7002C9.93729 40.7583 9.9475 40.8163 9.97 40.87C9.99249 40.9236 10.0267 40.9715 10.0701 41.0102C10.1671 41.0935 10.2924 41.1365 10.4201 41.1302Z" fill="url(#paint6_linear_1908_239)"/>
<path d="M13.8896 41.8096H12.8896V36.5596H13.8896V41.8096Z" fill="url(#paint7_linear_1908_239)"/>
<path d="M16.0898 40.4203L16.7698 38.1203H17.8298L16.3398 42.3904L16.2598 42.5804C16.178 42.8012 16.0286 42.9906 15.8329 43.1216C15.6372 43.2527 15.4052 43.3187 15.1698 43.3104C15.0204 43.3108 14.8718 43.2872 14.7298 43.2404V42.4904H14.8798C15.0255 42.5008 15.1712 42.4696 15.2998 42.4004C15.4003 42.3319 15.4771 42.2341 15.5198 42.1203L15.6298 41.8104L14.3398 38.1104H15.3998L16.0898 40.4203Z" fill="url(#paint8_linear_1908_239)"/>
<path d="M19.3999 37.21V38.12H19.9999V38.84H19.3999V40.69C19.3933 40.7929 19.4215 40.895 19.4799 40.98C19.5213 41.0144 19.5692 41.0401 19.6207 41.0555C19.6723 41.071 19.7264 41.0759 19.7799 41.07C19.8762 41.0814 19.9736 41.0814 20.0699 41.07V41.82C19.8788 41.8793 19.6799 41.9096 19.4799 41.91C19.337 41.9295 19.1915 41.9159 19.0546 41.8703C18.9178 41.8246 18.7933 41.748 18.6908 41.6465C18.5884 41.545 18.5106 41.4212 18.4636 41.2848C18.4166 41.1484 18.4017 41.0031 18.4199 40.86V38.86H17.8799V38.14H18.4199V37.23L19.3999 37.21Z" fill="url(#paint9_linear_1908_239)"/>
<path d="M20.5802 37.16C20.5785 37.0913 20.5909 37.023 20.6167 36.9593C20.6425 36.8957 20.6812 36.838 20.7302 36.79C20.8406 36.6936 20.9839 36.6435 21.1302 36.65C21.2796 36.6439 21.4258 36.6939 21.5402 36.79C21.6368 36.889 21.6908 37.0217 21.6908 37.16C21.6908 37.2982 21.6368 37.431 21.5402 37.53C21.4249 37.6244 21.2793 37.6741 21.1302 37.67C20.9842 37.6745 20.8416 37.6246 20.7302 37.53C20.6812 37.4819 20.6425 37.4243 20.6167 37.3606C20.5909 37.2969 20.5785 37.2286 20.5802 37.16ZM21.6302 41.81H20.6302V38.12H21.6302V41.81Z" fill="url(#paint10_linear_1908_239)"/>
<path d="M24.0003 41.0897C24.1607 41.0977 24.3181 41.044 24.4403 40.9397C24.4987 40.8911 24.5453 40.8298 24.5765 40.7605C24.6077 40.6912 24.6226 40.6157 24.6203 40.5397H25.5503C25.5532 40.7828 25.4798 41.0207 25.3403 41.2197C25.2047 41.4299 25.0146 41.5993 24.7903 41.7097C24.5512 41.8282 24.2869 41.8865 24.0203 41.8797C23.7882 41.8916 23.5563 41.853 23.3405 41.7667C23.1247 41.6804 22.9302 41.5484 22.7703 41.3797C22.442 40.9967 22.2705 40.5038 22.2903 39.9997V39.9297C22.2672 39.4364 22.4275 38.952 22.7403 38.5697C22.899 38.3956 23.0943 38.2587 23.3121 38.1689C23.5299 38.079 23.7649 38.0383 24.0003 38.0497C24.4068 38.031 24.8048 38.1708 25.1103 38.4397C25.2493 38.5765 25.3591 38.7401 25.433 38.9206C25.507 39.1011 25.5434 39.2947 25.5403 39.4897H24.6003C24.6036 39.4033 24.5893 39.3171 24.5584 39.2363C24.5275 39.1555 24.4805 39.0819 24.4203 39.0197C24.3627 38.9591 24.2926 38.9116 24.215 38.8805C24.1373 38.8494 24.0538 38.8355 23.9703 38.8397C23.8687 38.8355 23.7676 38.8571 23.6767 38.9026C23.5857 38.948 23.5078 39.0159 23.4503 39.0997C23.3144 39.3469 23.2552 39.6289 23.2803 39.9097V39.9997C23.2543 40.2871 23.3134 40.5758 23.4503 40.8297C23.5119 40.9167 23.5948 40.9863 23.6912 41.0318C23.7875 41.0774 23.894 41.0973 24.0003 41.0897Z" fill="url(#paint11_linear_1908_239)"/>
<path d="M28.0999 40.7902C28.0996 40.7312 28.0826 40.6736 28.0507 40.624C28.0188 40.5744 27.9734 40.5349 27.9199 40.5102C27.7359 40.4213 27.5409 40.3574 27.3399 40.3202C26.4599 40.1402 26.0199 39.7602 26.0199 39.2002C26.0179 39.0407 26.0541 38.8831 26.1254 38.7404C26.1967 38.5978 26.3011 38.4743 26.4299 38.3802C26.7372 38.1488 27.1157 38.0321 27.4999 38.0502C27.8999 38.0295 28.295 38.146 28.6199 38.3802C28.7562 38.477 28.8661 38.6064 28.9395 38.7567C29.0128 38.9069 29.0474 39.0732 29.0399 39.2402H28.0399C28.0414 39.1754 28.0298 39.111 28.0057 39.0509C27.9816 38.9907 27.9457 38.9361 27.8999 38.8902C27.8413 38.8393 27.773 38.8006 27.6991 38.7766C27.6252 38.7525 27.5473 38.7435 27.4699 38.7502C27.3328 38.7422 27.1976 38.785 27.0899 38.8702C27.0464 38.9028 27.0112 38.9451 26.9869 38.9937C26.9626 39.0423 26.9499 39.0959 26.9499 39.1502C26.9501 39.2054 26.9651 39.2595 26.9932 39.3069C27.0213 39.3544 27.0616 39.3935 27.1099 39.4202C27.2731 39.5042 27.4486 39.5616 27.6299 39.5902C27.8404 39.6318 28.0476 39.6887 28.2499 39.7602C28.4773 39.809 28.6806 39.9355 28.8248 40.118C28.969 40.3006 29.0451 40.5276 29.0399 40.7602C29.0385 40.9223 28.9978 41.0816 28.9211 41.2245C28.8445 41.3673 28.7342 41.4894 28.5999 41.5802C28.2693 41.8005 27.8768 41.9091 27.4799 41.8902C27.195 41.8966 26.912 41.8421 26.6499 41.7302C26.4245 41.6312 26.2308 41.4721 26.0899 41.2702C25.9523 41.0929 25.8784 40.8746 25.8799 40.6502H26.8199C26.8214 40.7275 26.8401 40.8036 26.8747 40.8728C26.9093 40.942 26.9589 41.0026 27.0199 41.0502C27.158 41.1527 27.3283 41.2024 27.4999 41.1902C27.6516 41.2034 27.8032 41.1647 27.9299 41.0802C27.9824 41.0524 28.026 41.0105 28.0561 40.9593C28.0861 40.9081 28.1013 40.8495 28.0999 40.7902Z" fill="url(#paint12_linear_1908_239)"/>
<path d="M35.4105 40.1605C35.4016 40.4003 35.3439 40.6358 35.2407 40.8525C35.1375 41.0692 34.9911 41.2624 34.8105 41.4205C34.4168 41.7488 33.912 41.9135 33.4005 41.8805C33.1182 41.8947 32.8365 41.8445 32.5766 41.7336C32.3167 41.6227 32.0854 41.4541 31.9005 41.2405C31.5076 40.7372 31.312 40.1078 31.3505 39.4705V39.1705C31.3404 38.734 31.4257 38.3006 31.6005 37.9005C31.756 37.5549 32.0099 37.2627 32.3305 37.0605C32.7156 36.8445 33.1553 36.7456 33.5958 36.7758C34.0363 36.806 34.4584 36.964 34.8105 37.2305C35.1741 37.5677 35.3898 38.035 35.4105 38.5305H34.4105C34.407 38.2724 34.3112 38.024 34.1405 37.8305C33.9434 37.6711 33.6932 37.5925 33.4405 37.6105C33.2911 37.6007 33.1418 37.6296 33.0069 37.6944C32.872 37.7593 32.7561 37.8578 32.6705 37.9805C32.4722 38.3261 32.3816 38.723 32.4105 39.1205V39.4905C32.3813 39.8983 32.4643 40.3064 32.6505 40.6705C32.7355 40.7939 32.8512 40.8929 32.9863 40.9578C33.1213 41.0227 33.271 41.0512 33.4205 41.0405C33.6753 41.0639 33.9294 40.9887 34.1305 40.8305C34.3008 40.6486 34.3971 40.4096 34.4005 40.1605H35.4105Z" fill="url(#paint13_linear_1908_239)"/>
<path d="M37.0596 41.8096H36.0596V36.5596H37.0596V41.8096Z" fill="url(#paint14_linear_1908_239)"/>
<path d="M37.7199 39.9298C37.7108 39.5846 37.7827 39.2421 37.9299 38.9298C38.0604 38.6496 38.2731 38.4159 38.5399 38.2598C38.8213 38.1045 39.1384 38.0252 39.4599 38.0298C39.6852 38.0205 39.9101 38.0564 40.1214 38.1354C40.3326 38.2144 40.5259 38.3349 40.6899 38.4898C41.0151 38.8216 41.2012 39.2652 41.2099 39.7298V39.9998C41.2299 40.4991 41.0622 40.9878 40.7399 41.3698C40.3943 41.6975 39.9362 41.8802 39.4599 41.8802C38.9836 41.8802 38.5254 41.6975 38.1799 41.3698C37.8611 40.9864 37.6971 40.4978 37.7199 39.9998V39.9298ZM38.7199 39.9998C38.7015 40.2826 38.7676 40.5646 38.9099 40.8098C38.9749 40.8993 39.0608 40.9716 39.1602 41.0204C39.2595 41.0692 39.3692 41.093 39.4799 41.0898C39.5891 41.0931 39.6974 41.0693 39.7952 41.0204C39.8929 40.9715 39.977 40.8991 40.0399 40.8098C40.1971 40.5446 40.2671 40.2368 40.2399 39.9298C40.2603 39.6486 40.1903 39.3682 40.0399 39.1298C39.9779 39.0364 39.8929 38.9606 39.793 38.9098C39.6931 38.859 39.5818 38.8349 39.4699 38.8398C39.3597 38.8375 39.2508 38.8629 39.153 38.9135C39.0552 38.9642 38.9716 39.0385 38.9099 39.1298C38.7599 39.3941 38.6904 39.6965 38.7099 39.9998H38.7199Z" fill="url(#paint15_linear_1908_239)"/>
<path d="M43.9998 41.4401C43.8773 41.5844 43.7237 41.6989 43.5504 41.7752C43.3772 41.8514 43.1889 41.8873 42.9998 41.8801C42.8326 41.8926 42.6646 41.8687 42.5075 41.81C42.3504 41.7513 42.2079 41.6592 42.0898 41.5401C41.8685 41.255 41.7552 40.9008 41.7698 40.5401V38.1201H42.7698V40.5101C42.7698 40.8901 42.9498 41.0901 43.2998 41.0901C43.4361 41.1023 43.573 41.0759 43.695 41.014C43.817 40.9522 43.9191 40.8572 43.9898 40.7401V38.1201H44.9898V41.8101H44.0598L43.9998 41.4401Z" fill="url(#paint16_linear_1908_239)"/>
<path d="M45.5897 39.9396C45.5693 39.4468 45.7135 38.9613 45.9997 38.5596C46.1156 38.4031 46.2662 38.2755 46.4398 38.1871C46.6133 38.0986 46.8049 38.0515 46.9997 38.0496C47.1686 38.0448 47.3364 38.0783 47.4905 38.1476C47.6447 38.2168 47.7811 38.3201 47.8897 38.4496V36.5596H48.8897V41.8096H47.9997V41.4196C47.8835 41.5724 47.7315 41.6943 47.5572 41.7745C47.3828 41.8547 47.1913 41.8908 46.9997 41.8796C46.8048 41.8784 46.6128 41.8317 46.4392 41.7431C46.2656 41.6546 46.1151 41.5267 45.9997 41.3696C45.7048 40.9532 45.5603 40.4489 45.5897 39.9396ZM46.5897 40.0096C46.5731 40.2879 46.6355 40.5652 46.7697 40.8096C46.8265 40.8979 46.9051 40.9701 46.9979 41.0192C47.0908 41.0682 47.1947 41.0925 47.2997 41.0896C47.4336 41.0986 47.567 41.0659 47.6816 40.9961C47.7961 40.9263 47.8863 40.8227 47.9397 40.6996V39.2396C47.8875 39.1155 47.7976 39.0111 47.6827 38.9411C47.5679 38.8711 47.4338 38.8391 47.2997 38.8496C46.8197 38.8496 46.5797 39.2396 46.5797 39.9996L46.5897 40.0096Z" fill="url(#paint17_linear_1908_239)"/>
</g>
<defs>
<linearGradient id="paint0_linear_1908_239" x1="29.1299" y1="17.5307" x2="32.8119" y2="17.5459" gradientUnits="userSpaceOnUse">
<stop stop-color="#214F89"/>
<stop offset="1" stop-color="#12BCAB"/>
</linearGradient>
<linearGradient id="paint1_linear_1908_239" x1="17" y1="19.5756" x2="20.1317" y2="19.5841" gradientUnits="userSpaceOnUse">
<stop stop-color="#214F89"/>
<stop offset="1" stop-color="#12BCAB"/>
</linearGradient>
<linearGradient id="paint2_linear_1908_239" x1="0.25" y1="17.3462" x2="50.2741" y2="17.8001" gradientUnits="userSpaceOnUse">
<stop stop-color="#214F89"/>
<stop offset="1" stop-color="#12BCAB"/>
</linearGradient>
<linearGradient id="paint3_linear_1908_239" x1="31.25" y1="30.8924" x2="34.4718" y2="30.9068" gradientUnits="userSpaceOnUse">
<stop stop-color="#214F89"/>
<stop offset="1" stop-color="#12BCAB"/>
</linearGradient>
<linearGradient id="paint4_linear_1908_239" x1="0.280273" y1="38.6412" x2="4.99285" y2="38.6611" gradientUnits="userSpaceOnUse">
<stop stop-color="#214F89"/>
<stop offset="1" stop-color="#12BCAB"/>
</linearGradient>
<linearGradient id="paint5_linear_1908_239" x1="5.15039" y1="39.443" x2="8.32392" y2="39.455" gradientUnits="userSpaceOnUse">
<stop stop-color="#214F89"/>
<stop offset="1" stop-color="#12BCAB"/>
</linearGradient>
<linearGradient id="paint6_linear_1908_239" x1="8.99805" y1="39.4671" x2="12.2119" y2="39.4792" gradientUnits="userSpaceOnUse">
<stop stop-color="#214F89"/>
<stop offset="1" stop-color="#12BCAB"/>
</linearGradient>
<linearGradient id="paint7_linear_1908_239" x1="12.8896" y1="38.5033" x2="13.8902" y2="38.5041" gradientUnits="userSpaceOnUse">
<stop stop-color="#214F89"/>
<stop offset="1" stop-color="#12BCAB"/>
</linearGradient>
<linearGradient id="paint8_linear_1908_239" x1="14.3398" y1="40.0358" x2="17.8318" y2="40.0463" gradientUnits="userSpaceOnUse">
<stop stop-color="#214F89"/>
<stop offset="1" stop-color="#12BCAB"/>
</linearGradient>
<linearGradient id="paint9_linear_1908_239" x1="17.8799" y1="38.9533" x2="20.0711" y2="38.9578" gradientUnits="userSpaceOnUse">
<stop stop-color="#214F89"/>
<stop offset="1" stop-color="#12BCAB"/>
</linearGradient>
<linearGradient id="paint10_linear_1908_239" x1="20.5801" y1="38.56" x2="21.6914" y2="38.5611" gradientUnits="userSpaceOnUse">
<stop stop-color="#214F89"/>
<stop offset="1" stop-color="#12BCAB"/>
</linearGradient>
<linearGradient id="paint11_linear_1908_239" x1="22.2881" y1="39.4673" x2="25.5522" y2="39.4798" gradientUnits="userSpaceOnUse">
<stop stop-color="#214F89"/>
<stop offset="1" stop-color="#12BCAB"/>
</linearGradient>
<linearGradient id="paint12_linear_1908_239" x1="25.8799" y1="39.4712" x2="29.0427" y2="39.4829" gradientUnits="userSpaceOnUse">
<stop stop-color="#214F89"/>
<stop offset="1" stop-color="#12BCAB"/>
</linearGradient>
<linearGradient id="paint13_linear_1908_239" x1="31.3457" y1="38.6639" x2="35.4127" y2="38.6784" gradientUnits="userSpaceOnUse">
<stop stop-color="#214F89"/>
<stop offset="1" stop-color="#12BCAB"/>
</linearGradient>
<linearGradient id="paint14_linear_1908_239" x1="36.0596" y1="38.5033" x2="37.0601" y2="38.5041" gradientUnits="userSpaceOnUse">
<stop stop-color="#214F89"/>
<stop offset="1" stop-color="#12BCAB"/>
</linearGradient>
<linearGradient id="paint15_linear_1908_239" x1="37.7178" y1="39.4544" x2="41.2134" y2="39.4686" gradientUnits="userSpaceOnUse">
<stop stop-color="#214F89"/>
<stop offset="1" stop-color="#12BCAB"/>
</linearGradient>
<linearGradient id="paint16_linear_1908_239" x1="41.7686" y1="39.5134" x2="44.9916" y2="39.5258" gradientUnits="userSpaceOnUse">
<stop stop-color="#214F89"/>
<stop offset="1" stop-color="#12BCAB"/>
</linearGradient>
<linearGradient id="paint17_linear_1908_239" x1="45.5859" y1="38.5299" x2="48.8915" y2="38.5391" gradientUnits="userSpaceOnUse">
<stop stop-color="#214F89"/>
<stop offset="1" stop-color="#12BCAB"/>
</linearGradient>
<clipPath id="clip0_1908_239">
<rect width="50" height="50" fill="white"/>
</clipPath>
</defs>
</svg>
