<svg width="50" height="50" viewBox="0 0 50 50" fill="none" xmlns="http://www.w3.org/2000/svg">
<path fill-rule="evenodd" clip-rule="evenodd" d="M0 27.73H25.27L50 3H0V27.73Z" fill="url(#paint0_linear_1908_232)"/>
<path fill-rule="evenodd" clip-rule="evenodd" d="M29.67 7.65037H24.75V19.3504L20.45 7.65037H16.19L12.52 17.4304C12.13 14.9704 9.58002 14.1104 7.57002 13.4304C6.24002 13.0104 4.84002 12.3804 4.85002 11.6904C4.86002 11.0004 5.60002 10.5904 7.07002 10.6904C8.3313 10.7402 9.56373 11.0826 10.67 11.6904L12.39 8.69037C10.647 7.85564 8.74252 7.41195 6.81002 7.39037C5.91141 7.34783 5.01335 7.48513 4.1685 7.79422C3.32365 8.10331 2.54902 8.57797 1.89002 9.19037C1.13908 9.95844 0.712902 10.9863 0.70002 12.0604C0.657746 12.7299 0.791511 13.3988 1.08801 14.0006C1.3845 14.6023 1.83339 15.116 2.39002 15.4904C3.41995 16.1674 4.55062 16.6771 5.74002 17.0004C7.10002 17.4204 8.22002 17.7804 8.20002 18.5704C8.20004 18.7135 8.17178 18.8552 8.11687 18.9873C8.06195 19.1195 7.98146 19.2394 7.88002 19.3404C7.43918 19.7076 6.87185 19.8871 6.30002 19.8404C4.85428 19.8963 3.42738 19.4976 2.22002 18.7004L0.70002 21.7004C2.39583 22.6734 4.31491 23.1902 6.27002 23.2004H6.53002C8.06121 23.2266 9.55481 22.7252 10.76 21.7804L10.94 21.6304L10.45 22.9404H14.92L15.67 20.6604C16.5178 20.9434 17.4063 21.0853 18.3 21.0804C19.1694 21.0874 20.0342 20.9523 20.86 20.6804L21.59 22.9404H28.88V18.2204H30.47C34.31 18.2204 36.59 16.2204 36.59 12.9804C36.59 9.33037 34.38 7.65037 29.67 7.65037ZM18.3 17.6504C17.7617 17.653 17.227 17.5616 16.72 17.3804L18.28 12.4604L19.81 17.3904C19.3261 17.5672 18.8152 17.6585 18.3 17.6604V17.6504ZM30 14.8404H28.88V10.8404H30C31.45 10.8404 32.6 11.3204 32.6 12.8404C32.6 14.3604 31.45 14.8404 30 14.8404Z" fill="white"/>
<path d="M31.32 26.1302C31.328 25.7913 31.4693 25.4693 31.7132 25.2339C31.9571 24.9985 32.284 24.8688 32.6229 24.8728C32.9618 24.8768 33.2855 25.0143 33.5238 25.2554C33.762 25.4965 33.8956 25.8217 33.8956 26.1607C33.8956 26.4997 33.762 26.825 33.5238 27.066C33.2855 27.3071 32.9618 27.4446 32.6229 27.4486C32.284 27.4526 31.9571 27.3229 31.7132 27.0875C31.4693 26.8521 31.328 26.5301 31.32 26.1912C31.319 26.1712 31.319 26.1502 31.32 26.1302ZM32.62 27.7402C33.0444 27.7362 33.4499 27.5644 33.7478 27.2622C34.0458 26.96 34.212 26.5521 34.21 26.1278C34.208 25.7034 34.038 25.2971 33.7373 24.9977C33.4365 24.6983 33.0294 24.5303 32.605 24.5303C32.1806 24.5303 31.7735 24.6983 31.4727 24.9977C31.172 25.2971 31.002 25.7034 31 26.1278C30.998 26.5521 31.1642 26.96 31.4622 27.2622C31.7601 27.5644 32.1656 27.7362 32.59 27.7402H32.62ZM32.28 26.2602H32.6L33.09 27.0602H33.41L32.88 26.2402C32.943 26.2403 33.0055 26.2281 33.0638 26.2041C33.122 26.18 33.175 26.1448 33.2197 26.1003C33.2644 26.0558 33.2998 26.003 33.3241 25.9448C33.3483 25.8866 33.3609 25.8242 33.361 25.7612C33.361 25.7512 33.361 25.7402 33.361 25.7302C33.361 25.3702 33.141 25.2102 32.711 25.2102H32V27.0602H32.28V26.2602ZM32.28 26.0202V25.4502H32.66C32.86 25.4502 33.06 25.4502 33.06 25.7202C33.06 25.9902 32.85 26.0202 32.62 26.0202H32.28Z" fill="url(#paint1_linear_1908_232)"/>
<path d="M0 32.9997H5.52C6.34801 32.97 7.17707 33.0035 8 33.0997C8.51635 33.1805 9.00825 33.3752 9.44 33.6697C9.87171 33.9726 10.2332 34.3648 10.5 34.8197C10.7914 35.3428 10.9359 35.935 10.9183 36.5335C10.9007 37.132 10.7216 37.7147 10.4 38.2197C10.0564 38.7544 9.56236 39.1754 8.98 39.4297C9.74452 39.6264 10.425 40.0648 10.92 40.6797C11.3732 41.2774 11.6126 42.0098 11.6 42.7597C11.5968 43.3956 11.4462 44.022 11.16 44.5897C10.8766 45.1567 10.4532 45.642 9.93 45.9997C9.37098 46.3697 8.72795 46.5932 8.06 46.6498C7.58667 46.6971 6.46667 46.7271 4.7 46.7398H0V32.9997ZM2.79 35.2897V38.4797H6.61C7.02994 38.4477 7.42576 38.271 7.73 37.9797C7.86826 37.8371 7.97594 37.6678 8.04644 37.4821C8.11694 37.2963 8.14878 37.0982 8.14 36.8998C8.1439 36.5357 8.02005 36.1819 7.79 35.8998C7.50825 35.6199 7.13596 35.4497 6.74 35.4197C6.46 35.4197 5.67 35.3697 4.36 35.3697L2.79 35.2897ZM2.79 40.7797V44.4698H5.37C6.00805 44.4908 6.64676 44.4607 7.28 44.3798C7.66795 44.3206 8.02231 44.1257 8.28 43.8298C8.55283 43.5029 8.69212 43.085 8.67 42.6597C8.68114 42.2871 8.57632 41.9202 8.37 41.6097C8.15607 41.3196 7.8546 41.1057 7.51 40.9997C6.68807 40.8058 5.84404 40.7217 5 40.7497L2.79 40.7797Z" fill="url(#paint2_linear_1908_232)"/>
<path d="M13.9102 46.7597V32.9997H18.3802C19.4907 32.9531 20.6032 33.0202 21.7002 33.1997C22.5013 33.4084 23.2069 33.8848 23.7002 34.5497C24.2631 35.3302 24.5451 36.2784 24.5002 37.2397C24.5085 37.9733 24.3369 38.6978 24.0002 39.3497C23.7366 39.8546 23.3653 40.2954 22.9126 40.641C22.4598 40.9866 21.9367 41.2285 21.3802 41.3497C20.4249 41.5037 19.4576 41.5706 18.4902 41.5497H16.7002V46.7497L13.9102 46.7597ZM16.7002 35.2997V39.2197H18.2202C18.9637 39.2588 19.7089 39.1846 20.4302 38.9997C20.7846 38.8705 21.0892 38.6324 21.3002 38.3197C21.5115 38.0036 21.6198 37.6298 21.6102 37.2497C21.6289 36.792 21.4714 36.3446 21.1702 35.9997C20.8748 35.6759 20.4813 35.458 20.0502 35.3797C19.3865 35.3017 18.7181 35.2716 18.0502 35.2897L16.7002 35.2997Z" fill="url(#paint3_linear_1908_232)"/>
<path d="M35.5997 41.6897L38.2997 42.5497C38.0062 43.8675 37.2769 45.0478 36.2297 45.8997C35.1662 46.6637 33.8781 47.0508 32.5697 46.9997C31.7264 47.0217 30.888 46.8656 30.1092 46.5417C29.3304 46.2177 28.6286 45.7332 28.0497 45.1197C26.813 43.7101 26.1776 41.8722 26.2797 39.9997C26.1565 38.053 26.7947 36.1346 28.0597 34.6497C28.6579 34.0154 29.3852 33.5167 30.1925 33.1872C30.9998 32.8577 31.8684 32.7051 32.7397 32.7397C33.4897 32.7072 34.2388 32.8229 34.9441 33.0803C35.6494 33.3377 36.2969 33.7317 36.8497 34.2397C37.5445 34.9405 38.0324 35.8194 38.2597 36.7797L35.4997 37.4397C35.3753 36.7693 35.0139 36.166 34.4814 35.74C33.949 35.3141 33.281 35.0939 32.5997 35.1197C32.1286 35.104 31.6601 35.1947 31.229 35.3852C30.7978 35.5756 30.4152 35.8609 30.1097 36.2197C29.3662 37.2548 29.012 38.5191 29.1097 39.7897C28.9935 41.1035 29.3248 42.4179 30.0497 43.5197C30.3471 43.8785 30.7222 44.1649 31.1467 44.3572C31.5712 44.5495 32.0338 44.6427 32.4997 44.6297C33.2031 44.6426 33.8854 44.3889 34.4097 43.9197C35.0313 43.3203 35.4477 42.5398 35.5997 41.6897Z" fill="url(#paint4_linear_1908_232)"/>
<defs>
<linearGradient id="paint0_linear_1908_232" x1="-7.77718e-09" y1="12.1558" x2="50.0241" y2="12.6097" gradientUnits="userSpaceOnUse">
<stop stop-color="#214F89"/>
<stop offset="1" stop-color="#12BCAB"/>
</linearGradient>
<linearGradient id="paint1_linear_1908_232" x1="31" y1="25.7187" x2="34.2118" y2="25.7331" gradientUnits="userSpaceOnUse">
<stop stop-color="#214F89"/>
<stop offset="1" stop-color="#12BCAB"/>
</linearGradient>
<linearGradient id="paint2_linear_1908_232" x1="-1.80438e-09" y1="38.0801" x2="11.6069" y2="38.124" gradientUnits="userSpaceOnUse">
<stop stop-color="#214F89"/>
<stop offset="1" stop-color="#12BCAB"/>
</linearGradient>
<linearGradient id="paint3_linear_1908_232" x1="13.9102" y1="38.085" x2="24.5107" y2="38.1216" gradientUnits="userSpaceOnUse">
<stop stop-color="#214F89"/>
<stop offset="1" stop-color="#12BCAB"/>
</linearGradient>
<linearGradient id="paint4_linear_1908_232" x1="26.2646" y1="38.0175" x2="38.3063" y2="38.0631" gradientUnits="userSpaceOnUse">
<stop stop-color="#214F89"/>
<stop offset="1" stop-color="#12BCAB"/>
</linearGradient>
</defs>
</svg>
