<svg width="50" height="50" viewBox="0 0 50 50" fill="none" xmlns="http://www.w3.org/2000/svg">
<path fill-rule="evenodd" clip-rule="evenodd" d="M0 29.77H25.27L50 5.04004H0V29.77Z" fill="url(#paint0_linear_1908_185)"/>
<path fill-rule="evenodd" clip-rule="evenodd" d="M29.6704 9.69012H24.7504V21.3901L20.4504 9.69012H16.1904L12.5204 19.4701C12.1304 17.0101 9.58039 16.1501 7.57039 15.4701C6.24039 15.0501 4.84039 14.4701 4.85039 13.7301C4.86039 12.9901 5.60039 12.6301 7.07039 12.7301C8.33118 12.7831 9.56291 13.1252 10.6704 13.7301L12.3904 10.7301C10.6473 9.89538 8.74289 9.4517 6.81039 9.43012C5.91271 9.38859 5.0157 9.52539 4.17121 9.83264C3.32673 10.1399 2.55152 10.6115 1.89039 11.2201C1.14232 11.9901 0.716634 13.0167 0.70039 14.0901C0.657039 14.7612 0.790254 15.4319 1.08677 16.0354C1.38328 16.639 1.83274 17.1543 2.39039 17.5301C3.41675 18.2183 4.54818 18.7351 5.74039 19.0601C7.10039 19.4901 8.22039 19.8501 8.20039 20.6401C8.19795 20.9286 8.08316 21.2049 7.88039 21.4101C7.66275 21.5926 7.41095 21.7299 7.13968 21.814C6.8684 21.8982 6.58309 21.9274 6.30039 21.9001C4.85174 21.9563 3.42278 21.5501 2.22039 20.7401L0.70039 23.7401C2.39984 24.7019 4.31767 25.2115 6.27039 25.2201H6.53039C8.06082 25.2414 9.55281 24.7406 10.7604 23.8001C10.8252 23.7525 10.8855 23.6989 10.9404 23.6401L10.4504 25.0001H14.9204L15.6704 22.7201C16.5181 23.0032 17.4066 23.1451 18.3004 23.1401C19.1698 23.1471 20.0345 23.012 20.8604 22.7401L21.5904 25.0001H28.8804V20.2601H30.4704C34.3104 20.2601 36.5904 18.2601 36.5904 15.0201C36.5904 11.3701 34.3804 9.69012 29.6704 9.69012ZM18.3004 19.7001C17.761 19.7041 17.2255 19.6092 16.7204 19.4201L18.2804 14.5001L19.8104 19.4401C19.3259 19.6137 18.815 19.7017 18.3004 19.7001ZM30.0004 16.8701H28.8804V12.8701H30.0004C31.4504 12.8701 32.6004 13.3501 32.6004 14.8701C32.6004 16.3901 31.4504 16.8701 30.0004 16.8701Z" fill="white"/>
<path d="M31.32 28.1702C31.3254 27.8305 31.4649 27.5066 31.708 27.2692C31.9512 27.0318 32.2783 26.9001 32.6181 26.9028C32.9579 26.9055 33.2829 27.0424 33.5222 27.2836C33.7615 27.5249 33.8958 27.8509 33.8958 28.1907C33.8958 28.5306 33.7615 28.8566 33.5222 29.0979C33.2829 29.3391 32.9579 29.476 32.6181 29.4787C32.2783 29.4814 31.9512 29.3497 31.708 29.1123C31.4649 28.8749 31.3254 28.551 31.32 28.2112C31.319 28.2002 31.32 28.1842 31.32 28.1702ZM32.62 29.7802C33.0444 29.7763 33.4499 29.6044 33.7478 29.3022C34.0458 29.0001 34.212 28.5922 34.21 28.1678C34.208 27.7434 34.038 27.3371 33.7373 27.0378C33.4365 26.7384 33.0294 26.5703 32.605 26.5703C32.1806 26.5703 31.7735 26.7384 31.4727 27.0378C31.172 27.3371 31.002 27.7434 31 28.1678C30.998 28.5922 31.1642 29.0001 31.4622 29.3022C31.7601 29.6044 32.1656 29.7763 32.59 29.7802H32.62ZM32.28 28.2902H32.6L33.09 29.1002H33.41L32.88 28.2802C32.943 28.2804 33.0055 28.2681 33.0638 28.2441C33.122 28.2201 33.175 28.1848 33.2197 28.1404C33.2644 28.0959 33.2998 28.043 33.3241 27.9849C33.3483 27.9267 33.3609 27.8643 33.361 27.8012C33.361 27.7912 33.361 27.7802 33.361 27.7702C33.361 27.4102 33.141 27.2502 32.711 27.2502H32V29.1002H32.28V28.2902ZM32.28 28.0602V27.4902H32.66C32.86 27.4902 33.06 27.4902 33.06 27.7602C33.06 28.0302 32.85 28.0602 32.62 28.0602H32.28Z" fill="url(#paint1_linear_1908_185)"/>
<path d="M0 45.0004V35.0004H2V38.9404H6V34.9404H8V45.0004H6V40.5804H2V45.0004H0Z" fill="url(#paint2_linear_1908_185)"/>
<path d="M19.1401 45H16.9401L16.0601 42.72H12.0601L11.2301 45H9.08008L12.9901 35H15.1301L19.1401 45ZM15.4201 41L14.0001 37.28L12.6801 41H15.4201Z" fill="url(#paint3_linear_1908_185)"/>
<path d="M20.2305 45.0004V35.0004H22.2305L26.3305 41.6904V34.9404H28.2105V45.0004H26.2105L22.2105 38.4704V45.0004H20.2305Z" fill="url(#paint4_linear_1908_185)"/>
<path d="M39.3596 45H37.1596L36.2896 42.72H32.2896L31.4496 45H29.3096L33.2096 35H35.3496L39.3596 45ZM35.6396 41L34.2496 37.28L32.8996 41H35.6396Z" fill="url(#paint5_linear_1908_185)"/>
<defs>
<linearGradient id="paint0_linear_1908_185" x1="-7.77718e-09" y1="14.1958" x2="50.0241" y2="14.6497" gradientUnits="userSpaceOnUse">
<stop stop-color="#214F89"/>
<stop offset="1" stop-color="#12BCAB"/>
</linearGradient>
<linearGradient id="paint1_linear_1908_185" x1="31" y1="27.7587" x2="34.2118" y2="27.7731" gradientUnits="userSpaceOnUse">
<stop stop-color="#214F89"/>
<stop offset="1" stop-color="#12BCAB"/>
</linearGradient>
<linearGradient id="paint2_linear_1908_185" x1="-1.24435e-09" y1="38.6649" x2="8.00442" y2="38.6935" gradientUnits="userSpaceOnUse">
<stop stop-color="#214F89"/>
<stop offset="1" stop-color="#12BCAB"/>
</linearGradient>
<linearGradient id="paint3_linear_1908_185" x1="9.08008" y1="38.7023" x2="19.1456" y2="38.7477" gradientUnits="userSpaceOnUse">
<stop stop-color="#214F89"/>
<stop offset="1" stop-color="#12BCAB"/>
</linearGradient>
<linearGradient id="paint4_linear_1908_185" x1="20.2305" y1="38.6649" x2="28.2149" y2="38.6934" gradientUnits="userSpaceOnUse">
<stop stop-color="#214F89"/>
<stop offset="1" stop-color="#12BCAB"/>
</linearGradient>
<linearGradient id="paint5_linear_1908_185" x1="29.3096" y1="38.7023" x2="39.365" y2="38.7476" gradientUnits="userSpaceOnUse">
<stop stop-color="#214F89"/>
<stop offset="1" stop-color="#12BCAB"/>
</linearGradient>
</defs>
</svg>
