<svg width="50" height="50" viewBox="0 0 50 50" fill="none" xmlns="http://www.w3.org/2000/svg">
<path fill-rule="evenodd" clip-rule="evenodd" d="M0 29.6802H25.27L50 4.9502H0V29.6802Z" fill="url(#paint0_linear_1908_224)"/>
<path fill-rule="evenodd" clip-rule="evenodd" d="M29.67 9.59959H24.75V21.2996L20.45 9.59959H16.19L12.52 19.3796C12.13 16.9196 9.58002 16.0596 7.57002 15.3796C6.24002 14.9996 4.84002 14.3696 4.85002 13.6796C4.86002 12.9896 5.60002 12.5796 7.07002 12.6796C8.3313 12.7294 9.56373 13.0718 10.67 13.6796L12.39 10.6796C10.6502 9.83076 8.74556 9.37337 6.81002 9.33959C5.91141 9.29705 5.01335 9.43435 4.1685 9.74344C3.32365 10.0525 2.54902 10.5272 1.89002 11.1396C1.14188 11.9055 0.715969 12.9291 0.70002 13.9996C0.657746 14.6691 0.791511 15.338 1.08801 15.9398C1.3845 16.5415 1.83339 17.0552 2.39002 17.4296C3.41375 18.1318 4.54532 18.6622 5.74002 18.9996C7.10002 19.4296 8.22002 19.7896 8.20002 20.5796C8.20004 20.7227 8.17178 20.8644 8.11687 20.9965C8.06195 21.1287 7.98146 21.2487 7.88002 21.3496C7.66238 21.5321 7.41058 21.6694 7.13931 21.7535C6.86803 21.8376 6.58272 21.8669 6.30002 21.8396C4.85137 21.8958 3.42241 21.4895 2.22002 20.6796L0.70002 23.6796C2.39777 24.6456 4.31671 25.1554 6.27002 25.1596H6.53002C8.06121 25.1858 9.55481 24.6844 10.76 23.7396C10.8248 23.6919 10.8851 23.6384 10.94 23.5796L10.45 24.8996H14.92L15.67 22.6196C16.52 22.8894 17.4085 23.0178 18.3 22.9996C19.1694 23.0066 20.0342 22.8715 20.86 22.5996L21.59 24.8596H28.88V20.1696H30.47C34.31 20.1696 36.59 18.1696 36.59 14.9296C36.59 11.2796 34.38 9.59959 29.67 9.59959ZM18.3 19.5996C17.7617 19.6022 17.227 19.5109 16.72 19.3296L18.28 14.4096L19.81 19.3396C19.3261 19.5164 18.8152 19.6077 18.3 19.6096V19.5996ZM30 16.7896H28.88V12.7896H30C31.45 12.7896 32.6 13.2696 32.6 14.7896C32.6 16.3096 31.45 16.7896 30 16.7896Z" fill="white"/>
<path d="M31.32 28.0804C31.328 27.7415 31.4693 27.4195 31.7132 27.1841C31.9571 26.9487 32.284 26.819 32.6229 26.823C32.9618 26.827 33.2855 26.9645 33.5238 27.2056C33.762 27.4466 33.8956 27.7719 33.8956 28.1109C33.8956 28.4499 33.762 28.7752 33.5238 29.0162C33.2855 29.2573 32.9618 29.3948 32.6229 29.3988C32.284 29.4028 31.9571 29.2731 31.7132 29.0377C31.4693 28.8023 31.328 28.4803 31.32 28.1414C31.319 28.1214 31.319 28.1004 31.32 28.0804ZM32.62 29.6904C33.0444 29.6864 33.4499 29.5146 33.7478 29.2124C34.0458 28.9102 34.212 28.5023 34.21 28.078C34.208 27.6536 34.038 27.2473 33.7373 26.9479C33.4365 26.6485 33.0294 26.4805 32.605 26.4805C32.1806 26.4805 31.7735 26.6485 31.4727 26.9479C31.172 27.2473 31.002 27.6536 31 28.078C30.998 28.5023 31.1642 28.9102 31.4622 29.2124C31.7601 29.5146 32.1656 29.6864 32.59 29.6904H32.62ZM32.28 28.2104H32.6L33.09 29.0104H33.41L32.88 28.1904C32.943 28.1905 33.0055 28.1782 33.0638 28.1542C33.122 28.1302 33.175 28.095 33.2197 28.0505C33.2644 28.006 33.2998 27.9532 33.3241 27.895C33.3483 27.8368 33.3609 27.7744 33.361 27.7114C33.361 27.7014 33.361 27.6904 33.361 27.6804C33.361 27.3204 33.141 27.1604 32.711 27.1604H32V29.0004H32.28V28.2104ZM32.28 27.9704V27.4004H32.66C32.86 27.4004 33.06 27.4004 33.06 27.6704C33.06 27.9404 32.85 27.9704 32.62 27.9704H32.28Z" fill="url(#paint1_linear_1908_224)"/>
<path d="M0 34.8499H4C4.59173 34.8356 5.18364 34.8691 5.77 34.9499C6.12776 35.0171 6.46804 35.1566 6.77 35.3599C7.08266 35.5799 7.3423 35.8668 7.53 36.1999C7.73932 36.5538 7.84661 36.9587 7.84 37.3699C7.84255 37.831 7.71051 38.2829 7.46006 38.6701C7.20961 39.0573 6.85163 39.3631 6.43 39.5499C6.98766 39.689 7.4835 40.009 7.84 40.4599C8.19916 40.8923 8.39396 41.4377 8.39 41.9999C8.38997 42.4611 8.2839 42.9162 8.08 43.3299C7.87618 43.7294 7.57744 44.0727 7.21 44.3299C6.80417 44.6 6.336 44.7618 5.85 44.7999C5.51 44.7999 4.7 44.8599 3.41 44.8699H0V34.8499ZM2 36.5199V38.8399H4.82C5.12671 38.8182 5.41645 38.691 5.64 38.4799C5.81468 38.2632 5.90993 37.9932 5.90993 37.7149C5.90993 37.4365 5.81468 37.1666 5.64 36.9499C5.44162 36.7377 5.16988 36.6089 4.88 36.5899H3.15L2 36.5199ZM2 40.5199V43.1999H3.9C4.36085 43.2139 4.82211 43.1938 5.28 43.1399C5.56507 43.0949 5.82618 42.9537 6.02 42.7399C6.2189 42.5029 6.31914 42.1986 6.3 41.8899C6.31003 41.6195 6.2329 41.3531 6.08 41.1299C5.92922 40.9086 5.70669 40.7461 5.45 40.6699C4.8631 40.5376 4.26073 40.4871 3.66 40.5199H2Z" fill="url(#paint2_linear_1908_224)"/>
<path d="M9.68975 39.9204C9.66752 39.0414 9.82401 38.1671 10.1497 37.3504C10.3789 36.8497 10.6936 36.3929 11.0797 36.0004C11.4455 35.6129 11.8883 35.3063 12.3797 35.1004C13.0645 34.8195 13.7999 34.6833 14.5397 34.7004C15.1926 34.67 15.8447 34.7762 16.4542 35.0121C17.0637 35.248 17.6174 35.6084 18.0797 36.0704C18.5432 36.5894 18.8994 37.1951 19.1276 37.8524C19.3559 38.5098 19.4518 39.2058 19.4097 39.9004C19.4496 40.5879 19.3535 41.2764 19.127 41.9268C18.9005 42.5771 18.548 43.1764 18.0897 43.6904C17.627 44.1424 17.0747 44.4925 16.4685 44.7182C15.8622 44.9438 15.2154 45.0399 14.5697 45.0004C13.9156 45.0405 13.2603 44.9438 12.6457 44.7165C12.031 44.4893 11.4704 44.1364 10.9997 43.6804C10.5442 43.171 10.1939 42.5766 9.96905 41.9313C9.74422 41.286 9.6493 40.6025 9.68975 39.9204ZM11.7797 39.8504C11.7108 40.7773 11.9888 41.6969 12.5597 42.4304C12.7999 42.693 13.0895 42.9058 13.4119 43.0566C13.7343 43.2073 14.0833 43.2931 14.4388 43.309C14.7944 43.3249 15.1496 43.2705 15.4842 43.1491C15.8187 43.0277 16.1261 42.8416 16.3887 42.6014C16.4474 42.5474 16.5044 42.4904 16.5597 42.4304C17.1249 41.6828 17.3986 40.755 17.3297 39.8204C17.4028 38.9008 17.1359 37.9864 16.5797 37.2504C16.3292 36.9706 16.0201 36.7494 15.6745 36.6025C15.3288 36.4556 14.9551 36.3866 14.5797 36.4004C14.2039 36.3898 13.8303 36.4613 13.4849 36.6098C13.1395 36.7584 12.8306 36.9804 12.5797 37.2604C12.0008 37.9944 11.7156 38.9177 11.7797 39.8504Z" fill="url(#paint3_linear_1908_224)"/>
<path d="M21 34.8503H24.69C25.3323 34.8273 25.9748 34.8912 26.6 35.0403C27.1773 35.2194 27.6955 35.551 28.1 36.0003C28.5487 36.46 28.8901 37.0132 29.1 37.6203C29.326 38.3924 29.424 39.1964 29.39 40.0003C29.4063 40.7226 29.3016 41.4425 29.08 42.1303C28.859 42.7829 28.4893 43.3751 28 43.8603C27.5919 44.2343 27.1023 44.5082 26.57 44.6603C25.987 44.8184 25.3838 44.8892 24.78 44.8703H21V34.8503ZM23 36.5503V43.1803H24.51C24.9187 43.1933 25.3276 43.1632 25.73 43.0903C26.0347 43.0226 26.317 42.878 26.55 42.6703C26.813 42.3904 26.996 42.045 27.08 41.6703C27.2392 41.0738 27.3099 40.4572 27.29 39.8403C27.3119 39.2364 27.2411 38.6327 27.08 38.0503C26.9713 37.6767 26.776 37.3341 26.51 37.0503C26.2442 36.8126 25.9196 36.6503 25.57 36.5803C25.0202 36.5033 24.4649 36.4732 23.91 36.4903L23 36.5503Z" fill="url(#paint4_linear_1908_224)"/>
<path d="M30.5898 41.6097L32.5898 41.4197C32.6557 41.9744 32.9099 42.4898 33.3098 42.8797C33.7275 43.2069 34.2502 43.3705 34.7798 43.3397C35.3024 43.3757 35.8214 43.231 36.2498 42.9297C36.4051 42.8133 36.5311 42.6623 36.6179 42.4887C36.7047 42.3152 36.7498 42.1238 36.7498 41.9297C36.7557 41.7077 36.6811 41.4911 36.5398 41.3197C36.3356 41.1185 36.0849 40.9708 35.8098 40.8897C35.5698 40.8097 35.0298 40.6597 34.1898 40.4497C33.3614 40.3015 32.58 39.9588 31.9098 39.4497C31.617 39.2055 31.3818 38.8995 31.221 38.5538C31.0602 38.208 30.9779 37.831 30.9798 37.4497C30.9716 36.9367 31.1142 36.4325 31.3898 35.9997C31.6958 35.5477 32.1317 35.199 32.6398 34.9997C33.2756 34.7478 33.9563 34.6286 34.6398 34.6497C35.6555 34.5763 36.6636 34.8709 37.4798 35.4797C37.7971 35.7533 38.0509 36.0928 38.2236 36.4744C38.3963 36.8561 38.4837 37.2708 38.4798 37.6897L36.4798 37.7697C36.4372 37.3431 36.2376 36.9475 35.9198 36.6597C35.5422 36.4086 35.0923 36.2891 34.6398 36.3197C34.1523 36.2938 33.6691 36.4234 33.2598 36.6897C33.1576 36.7568 33.0745 36.8491 33.0184 36.9577C32.9624 37.0663 32.9353 37.1876 32.9398 37.3097C32.9399 37.4276 32.967 37.5438 33.019 37.6496C33.071 37.7553 33.1465 37.8477 33.2398 37.9197C33.8142 38.2537 34.4444 38.4807 35.0998 38.5897C35.8527 38.7418 36.5845 38.9835 37.2798 39.3097C37.7313 39.5397 38.1142 39.8846 38.3898 40.3097C38.6657 40.8027 38.8038 41.3609 38.7897 41.9257C38.7757 42.4904 38.6099 43.041 38.3098 43.5197C37.9871 44.0219 37.515 44.4102 36.9598 44.6297C36.2651 44.8973 35.5239 45.0231 34.7798 44.9997C33.7319 45.0711 32.6938 44.7583 31.8598 44.1197C31.131 43.4763 30.6765 42.578 30.5898 41.6097Z" fill="url(#paint5_linear_1908_224)"/>
<defs>
<linearGradient id="paint0_linear_1908_224" x1="-7.77718e-09" y1="14.106" x2="50.0241" y2="14.5599" gradientUnits="userSpaceOnUse">
<stop stop-color="#214F89"/>
<stop offset="1" stop-color="#12BCAB"/>
</linearGradient>
<linearGradient id="paint1_linear_1908_224" x1="31" y1="27.6689" x2="34.2118" y2="27.6833" gradientUnits="userSpaceOnUse">
<stop stop-color="#214F89"/>
<stop offset="1" stop-color="#12BCAB"/>
</linearGradient>
<linearGradient id="paint2_linear_1908_224" x1="-1.30502e-09" y1="38.5576" x2="8.39468" y2="38.5891" gradientUnits="userSpaceOnUse">
<stop stop-color="#214F89"/>
<stop offset="1" stop-color="#12BCAB"/>
</linearGradient>
<linearGradient id="paint3_linear_1908_224" x1="9.68066" y1="38.5138" x2="19.4247" y2="38.5551" gradientUnits="userSpaceOnUse">
<stop stop-color="#214F89"/>
<stop offset="1" stop-color="#12BCAB"/>
</linearGradient>
<linearGradient id="paint4_linear_1908_224" x1="21" y1="38.5582" x2="29.4012" y2="38.5898" gradientUnits="userSpaceOnUse">
<stop stop-color="#214F89"/>
<stop offset="1" stop-color="#12BCAB"/>
</linearGradient>
<linearGradient id="paint5_linear_1908_224" x1="30.5898" y1="38.4783" x2="38.7952" y2="38.5074" gradientUnits="userSpaceOnUse">
<stop stop-color="#214F89"/>
<stop offset="1" stop-color="#12BCAB"/>
</linearGradient>
</defs>
</svg>
