<svg width="50" height="50" viewBox="0 0 50 50" fill="none" xmlns="http://www.w3.org/2000/svg">
<path d="M13.1721 30.5342C12.822 30.5342 12.4862 30.6733 12.2387 30.9208C11.9911 31.1683 11.8521 31.5041 11.8521 31.8542V35.5432C11.8472 35.7195 11.8777 35.895 11.9419 36.0594C12.006 36.2237 12.1024 36.3735 12.2254 36.5C12.3484 36.6264 12.4955 36.7269 12.658 36.7955C12.8205 36.8642 12.9952 36.8995 13.1716 36.8995C13.348 36.8995 13.5226 36.8642 13.6851 36.7955C13.8476 36.7269 13.9947 36.6264 14.1177 36.5C14.2407 36.3735 14.3371 36.2237 14.4013 36.0594C14.4654 35.895 14.4959 35.7195 14.4911 35.5432V31.8542C14.4911 31.5043 14.3521 31.1687 14.1048 30.9212C13.8575 30.6736 13.522 30.5344 13.1721 30.5342Z" fill="url(#paint0_linear_1908_170)"/>
<path d="M18.4401 27.2246C18.0902 27.2249 17.7547 27.3641 17.5074 27.6116C17.26 27.8591 17.1211 28.1947 17.1211 28.5446V35.5446C17.1484 35.8745 17.2987 36.182 17.5422 36.4061C17.7857 36.6303 18.1046 36.7547 18.4356 36.7547C18.7666 36.7547 19.0854 36.6303 19.329 36.4061C19.5725 36.182 19.7228 35.8745 19.7501 35.5446V28.5446C19.7501 28.1962 19.6124 27.862 19.367 27.6147C19.1216 27.3675 18.7884 27.2272 18.4401 27.2246Z" fill="url(#paint1_linear_1908_170)"/>
<path d="M23.6996 23.7158C23.3515 23.7182 23.0184 23.8582 22.7731 24.1054C22.5279 24.3525 22.3904 24.6866 22.3906 25.0348V35.5428C22.4179 35.8727 22.5683 36.1802 22.8118 36.4044C23.0553 36.6285 23.3741 36.753 23.7051 36.753C24.0361 36.753 24.355 36.6285 24.5985 36.4044C24.842 36.1802 24.9923 35.8727 25.0196 35.5428V25.0348C25.0194 24.6849 24.8802 24.3494 24.6327 24.1021C24.3851 23.8548 24.0495 23.7158 23.6996 23.7158Z" fill="url(#paint2_linear_1908_170)"/>
<path d="M29.0082 25.5146C28.661 25.5149 28.328 25.653 28.0826 25.8987C27.8371 26.1443 27.6992 26.4774 27.6992 26.8246V35.5426C27.7265 35.8725 27.8769 36.18 28.1204 36.4042C28.3639 36.6284 28.6827 36.7528 29.0137 36.7528C29.3447 36.7528 29.6636 36.6284 29.9071 36.4042C30.1506 36.18 30.3009 35.8725 30.3282 35.5426V26.8246C30.3256 26.4763 30.1853 26.1431 29.9381 25.8977C29.6908 25.6523 29.3566 25.5146 29.0082 25.5146Z" fill="url(#paint3_linear_1908_170)"/>
<path d="M34.237 20.876C33.8869 20.876 33.5512 21.015 33.3036 21.2626C33.0561 21.5101 32.917 21.8459 32.917 22.196V35.543C32.917 35.8931 33.0561 36.2288 33.3036 36.4764C33.5512 36.7239 33.8869 36.863 34.237 36.863C34.5871 36.863 34.9228 36.7239 35.1704 36.4764C35.4179 36.2288 35.557 35.8931 35.557 35.543V22.2C35.5575 22.0263 35.5238 21.8542 35.4577 21.6936C35.3916 21.533 35.2944 21.387 35.1718 21.264C35.0492 21.141 34.9035 21.0434 34.7431 20.9768C34.5827 20.9103 34.4107 20.876 34.237 20.876Z" fill="url(#paint4_linear_1908_170)"/>
<path d="M46.4252 24.7451C46.5685 23.8895 46.6421 23.0236 46.6452 22.1561C46.6623 18.9153 45.6293 15.7562 43.7009 13.1516C41.7725 10.547 39.0524 8.63693 35.9478 7.70739C32.8431 6.77786 29.5209 6.87882 26.4785 7.99516C23.436 9.1115 20.8369 11.1832 19.0702 13.9001C17.5519 13.4587 15.9523 13.3733 14.3955 13.6505C12.8388 13.9276 11.367 14.5599 10.0943 15.4982C8.82157 16.4365 7.7823 17.6555 7.05718 19.0607C6.33206 20.4658 5.94061 22.0191 5.91324 23.6001C3.81114 24.563 2.10176 26.2161 1.06914 28.2848C0.0365136 30.3535 -0.257193 32.7133 0.236818 34.9721C0.73083 37.2308 1.98282 39.2525 3.78476 40.7013C5.5867 42.1501 7.83011 42.9387 10.1422 42.9361H39.6422C41.7535 42.935 43.814 42.2887 45.5478 41.084C47.2816 39.8792 48.6058 38.1734 49.3432 36.1951C50.0806 34.2168 50.1959 32.0604 49.6737 30.0148C49.1515 27.9691 48.0167 26.1319 46.4212 24.7491L46.4252 24.7451ZM39.6462 40.3001H10.1462C8.37402 40.2984 6.65966 39.6692 5.30713 38.524C3.9546 37.3788 3.05128 35.7917 2.75735 34.044C2.46341 32.2964 2.79785 30.5011 3.70136 28.9765C4.60487 27.4518 6.01908 26.2964 7.69324 25.7151L8.69324 25.3851L8.61324 24.3851V23.7761C8.61377 22.5175 8.92488 21.2785 9.51896 20.1689C10.113 19.0593 10.9717 18.1135 12.0189 17.4153C13.0661 16.7171 14.2694 16.288 15.5221 16.1662C16.7748 16.0445 18.0382 16.2337 19.2002 16.7171L20.2802 17.1671L20.8502 16.1671C22.1824 13.7694 24.2727 11.8817 26.7933 10.8C29.3139 9.71828 32.1222 9.50379 34.7779 10.1902C37.4335 10.8765 39.7862 12.4249 41.467 14.5925C43.1479 16.76 44.0617 19.4242 44.0652 22.1671C44.0699 23.1161 43.9625 24.0623 43.7452 24.9861L43.5552 25.8361L44.2552 26.3461C45.5911 27.2994 46.5882 28.6537 47.102 30.2123C47.6157 31.7709 47.6193 33.4527 47.1121 35.0134C46.605 36.5742 45.6136 37.9327 44.2818 38.8916C42.95 39.8506 41.3473 40.3601 39.7062 40.3461L39.6462 40.3001Z" fill="url(#paint5_linear_1908_170)"/>
<defs>
<linearGradient id="paint0_linear_1908_170" x1="11.8516" y1="32.8908" x2="14.493" y2="32.8957" gradientUnits="userSpaceOnUse">
<stop stop-color="#214F89"/>
<stop offset="1" stop-color="#12BCAB"/>
</linearGradient>
<linearGradient id="paint1_linear_1908_170" x1="17.1211" y1="30.7529" x2="19.7516" y2="30.7562" gradientUnits="userSpaceOnUse">
<stop stop-color="#214F89"/>
<stop offset="1" stop-color="#12BCAB"/>
</linearGradient>
<linearGradient id="paint2_linear_1908_170" x1="22.3906" y1="28.5425" x2="25.0211" y2="28.5449" gradientUnits="userSpaceOnUse">
<stop stop-color="#214F89"/>
<stop offset="1" stop-color="#12BCAB"/>
</linearGradient>
<linearGradient id="paint3_linear_1908_170" x1="27.6992" y1="29.6753" x2="30.3297" y2="29.6781" gradientUnits="userSpaceOnUse">
<stop stop-color="#214F89"/>
<stop offset="1" stop-color="#12BCAB"/>
</linearGradient>
<linearGradient id="paint4_linear_1908_170" x1="32.917" y1="26.7948" x2="35.5585" y2="26.7968" gradientUnits="userSpaceOnUse">
<stop stop-color="#214F89"/>
<stop offset="1" stop-color="#12BCAB"/>
</linearGradient>
<linearGradient id="paint5_linear_1908_170" x1="0.00292968" y1="20.3532" x2="50.0219" y2="20.6661" gradientUnits="userSpaceOnUse">
<stop stop-color="#214F89"/>
<stop offset="1" stop-color="#12BCAB"/>
</linearGradient>
</defs>
</svg>
