<svg width="50" height="50" viewBox="0 0 50 50" fill="none" xmlns="http://www.w3.org/2000/svg">
<path fill-rule="evenodd" clip-rule="evenodd" d="M0 27.6004H25.3L50 2.90039H0V27.6004Z" fill="url(#paint0_linear_1908_218)"/>
<path fill-rule="evenodd" clip-rule="evenodd" d="M29.6999 7.60011H24.7999V19.3001L20.4999 7.60011H16.1999L12.4999 17.4001C12.0999 14.9001 9.5999 14.1001 7.5999 13.4001C6.2999 13.0001 4.8999 12.4001 4.8999 11.7001C4.8999 11.0001 5.6999 10.6001 7.0999 10.7001C8.3999 10.7001 9.5999 11.1001 10.6999 11.7001L12.3999 8.70011C10.6999 7.90011 8.7999 7.40011 6.7999 7.40011C4.9999 7.20011 3.1999 7.90011 1.8999 9.10011C1.0999 9.90011 0.699905 10.9001 0.699905 12.0001C0.599905 13.4001 1.2999 14.7001 2.3999 15.4001C3.3999 16.1001 4.5999 16.6001 5.6999 16.9001C7.0999 17.3001 8.1999 17.7001 8.1999 18.5001C8.1999 18.8001 8.0999 19.1001 7.8999 19.3001C7.4999 19.7001 6.8999 19.9001 6.2999 19.8001C4.8999 19.9001 3.3999 19.4001 2.1999 18.6001L0.699905 21.6001C2.3999 22.6001 4.2999 23.1001 6.2999 23.1001H6.5999C8.0999 23.1001 9.5999 22.6001 10.7999 21.7001C10.8999 21.7001 10.8999 21.6001 10.9999 21.6001L10.4999 22.9001H14.9999L15.7999 20.6001C16.5999 20.9001 17.4999 21.0001 18.3999 21.0001C19.2999 21.0001 20.0999 20.9001 20.9999 20.6001L21.6999 22.9001H28.9999V18.2001H30.5999C34.3999 18.2001 36.6999 16.2001 36.6999 13.0001C36.5999 9.20011 34.3999 7.60011 29.6999 7.60011ZM18.2999 17.6001C17.7999 17.6001 17.1999 17.5001 16.6999 17.3001L18.2999 12.4001L19.7999 17.3001C19.2999 17.5001 18.7999 17.6001 18.2999 17.6001ZM29.9999 14.8001H28.8999V10.8001H29.9999C31.4999 10.8001 32.5999 11.3001 32.5999 12.8001C32.5999 14.3001 31.3999 14.8001 29.9999 14.8001Z" fill="white"/>
<path d="M31.3 26.0004C31.3 25.3004 31.9 24.7004 32.6 24.7004C33.3 24.7004 33.9 25.3004 33.9 26.0004C33.9 26.7004 33.3 27.3004 32.6 27.3004C31.9 27.3004 31.3 26.8004 31.3 26.0004C31.3 26.1004 31.3 26.1004 31.3 26.0004ZM32.6 27.6004C33.5 27.6004 34.2 26.9004 34.2 26.0004C34.2 25.1004 33.5 24.4004 32.6 24.4004C31.7 24.4004 31 25.2004 31 26.0004C31 26.9004 31.7 27.6004 32.6 27.6004ZM32.3 26.2004H32.6L33.1 27.0004H33.4L32.9 26.2004C33.2 26.2004 33.4 26.0004 33.4 25.7004C33.4 25.3004 33.2 25.2004 32.7 25.2004H32V27.0004H32.3V26.2004ZM32.3 25.9004V25.3004H32.7C32.9 25.3004 33.1 25.3004 33.1 25.6004C33.1 25.9004 32.9 25.9004 32.7 25.9004H32.3Z" fill="url(#paint1_linear_1908_218)"/>
<path d="M0 32.7998H5.7C6.5 32.7998 7.4 32.8998 8.2 32.9998C8.7 33.0998 9.2 33.2998 9.7 33.5998C10.2 33.8998 10.5 34.2998 10.8 34.7998C11.1 35.2998 11.3 35.8998 11.2 36.4998C11.2 37.1998 11 37.7998 10.7 38.2998C10.3 38.7998 9.8 39.2998 9.2 39.4998C10 39.6998 10.7 40.1998 11.2 40.7998C11.7 41.3998 12 42.1998 12 42.9998C12 43.6998 11.8 44.2998 11.6 44.8998C11.3 45.4998 10.9 45.9998 10.4 46.3998C9.7 46.6998 9 46.9998 8.3 46.9998C7.8 46.9998 6.7 47.0998 4.8 47.0998H0V32.7998ZM2.9 35.1998V38.4998H4.8C5.5 38.4998 6.2 38.4998 6.9 38.4998C7.3 38.4998 7.7 38.2998 8 37.9998C8.3 37.6998 8.4 37.2998 8.4 36.8998C8.4 36.4998 8.3 36.0998 8 35.7998C7.7 35.4998 7.3 35.2998 6.9 35.2998C6.6 35.2998 5.8 35.2998 4.4 35.2998L2.9 35.1998ZM2.9 40.8998V44.6998H5.6C6.3 44.6998 6.9 44.6998 7.6 44.5998C8 44.4998 8.4 44.2998 8.6 43.9998C8.9 43.6998 9 43.1998 9 42.7998C9 42.3998 8.9 41.9998 8.7 41.6998C8.5 41.3998 8.2 41.1998 7.8 40.9998C7 40.7998 6.1 40.7998 5.3 40.7998H2.9V40.8998Z" fill="url(#paint2_linear_1908_218)"/>
<path d="M16.4 47.0998L13 32.7998H16L18.1 42.5998L20.7 32.7998H24.1L26.6 42.7998L28.8 32.7998H31.7L28.2 47.0998H25.1L22.3 36.3998L19.5 47.0998H16.4Z" fill="url(#paint3_linear_1908_218)"/>
<defs>
<linearGradient id="paint0_linear_1908_218" x1="-7.77718e-09" y1="12.045" x2="50.0241" y2="12.4995" gradientUnits="userSpaceOnUse">
<stop stop-color="#214F89"/>
<stop offset="1" stop-color="#12BCAB"/>
</linearGradient>
<linearGradient id="paint1_linear_1908_218" x1="31" y1="25.5851" x2="34.2017" y2="25.5995" gradientUnits="userSpaceOnUse">
<stop stop-color="#214F89"/>
<stop offset="1" stop-color="#12BCAB"/>
</linearGradient>
<linearGradient id="paint2_linear_1908_218" x1="-1.86652e-09" y1="38.0941" x2="12.0066" y2="38.1393" gradientUnits="userSpaceOnUse">
<stop stop-color="#214F89"/>
<stop offset="1" stop-color="#12BCAB"/>
</linearGradient>
<linearGradient id="paint3_linear_1908_218" x1="13" y1="38.0941" x2="31.7099" y2="38.2039" gradientUnits="userSpaceOnUse">
<stop stop-color="#214F89"/>
<stop offset="1" stop-color="#12BCAB"/>
</linearGradient>
</defs>
</svg>
