<svg width="64" height="64" viewBox="0 0 64 64" fill="none" xmlns="http://www.w3.org/2000/svg">
<path d="M51.2903 12.8652H12.7097C10.6642 12.8652 9 14.5159 9 16.5449V40.0955C9 42.1245 10.6642 43.7753 12.7097 43.7753H28.0032L27.0142 46.7191H20.871C19.6438 46.7191 18.6452 47.7097 18.6452 48.927V50.3989C18.6452 50.8059 18.9768 51.1348 19.3871 51.1348H44.6129C45.0232 51.1348 45.3548 50.8059 45.3548 50.3989V48.927C45.3548 47.9636 44.7264 47.1519 43.8576 46.8508C43.8613 46.8067 43.871 46.7647 43.871 46.7191V43.7753H51.2903C53.3358 43.7753 55 42.1245 55 40.0955V16.5449C55 14.5159 53.3358 12.8652 51.2903 12.8652ZM12.7097 14.3371H51.2903C52.5175 14.3371 53.5161 15.3277 53.5161 16.5449V37.1517H45.2821C45.3266 36.9221 45.3548 36.6903 45.3548 36.457V32C45.3548 30.7827 44.3562 29.7921 43.129 29.7921C42.836 29.7921 42.5577 29.8518 42.301 29.9541C42.0443 29.0157 41.1874 28.3202 40.1613 28.3202C39.7629 28.3202 39.3941 28.4328 39.0699 28.6153C38.6752 27.9979 37.9837 27.5843 37.1935 27.5843C36.9324 27.5843 36.6846 27.6373 36.4516 27.7197V26.1124H40.1613C41.3885 26.1124 42.3871 25.1218 42.3871 23.9045V20.9607C42.3871 19.7434 41.3885 18.7528 40.1613 18.7528H23.8387C22.6115 18.7528 21.6129 19.7434 21.6129 20.9607V23.9045C21.6129 25.1218 22.6115 26.1124 23.8387 26.1124H32V35.3751L30.0175 33.4086C29.5865 32.981 28.99 32.736 28.3801 32.736C27.1032 32.736 26.0645 33.7663 26.0645 35.0329C26.0645 35.6378 26.3116 36.2295 26.7426 36.6571L27.2412 37.1517H10.4839V16.5449C10.4839 15.3277 11.4825 14.3371 12.7097 14.3371ZM41.7223 41.2385C41.6711 41.3408 41.6444 41.4534 41.6444 41.5682V42.3034H33.9424L33.4052 41.2385C33.3696 41.1678 33.3229 41.103 33.2657 41.0471L27.791 35.6165C27.6359 35.4627 27.5476 35.25 27.5476 35.0329C27.5476 34.5781 27.9208 34.2079 28.3794 34.2079C28.5982 34.2079 28.8126 34.2955 28.9677 34.4493L32.2166 37.672C32.4296 37.8832 32.7486 37.9473 33.0254 37.8317C33.3028 37.7184 33.4831 37.449 33.4831 37.1517V25.3764C33.4831 24.9709 33.8155 24.6405 34.2251 24.6405C34.6346 24.6405 34.967 24.9709 34.967 25.3764V35.6798H36.4509V29.7921C36.4509 29.3866 36.7833 29.0562 37.1928 29.0562C37.6024 29.0562 37.9347 29.3866 37.9347 29.7921V34.9438H39.4186V30.5281C39.4186 30.1226 39.751 29.7921 40.1605 29.7921C40.5701 29.7921 40.9025 30.1226 40.9025 30.5281V35.6798H42.3864V32C42.3864 31.5945 42.7187 31.2641 43.1283 31.2641C43.5378 31.2641 43.8702 31.5945 43.8702 32V36.457C43.8702 36.7984 43.7894 37.1392 43.635 37.4446L41.7223 41.2385ZM36.3144 24.6405C36.0072 23.786 35.1911 23.1685 34.2251 23.1685C33.2591 23.1685 32.4429 23.786 32.1358 24.6405H23.838C23.4284 24.6405 23.096 24.31 23.096 23.9045V20.9607C23.096 20.5552 23.4284 20.2247 23.838 20.2247H40.1605C40.5701 20.2247 40.9025 20.5552 40.9025 20.9607V23.9045C40.9025 24.31 40.5701 24.6405 40.1605 24.6405H36.3144ZM10.4839 40.0955V38.6236H28.7251L32.1321 42.0038L32.2834 42.3034H12.7097C11.4825 42.3034 10.4839 41.3128 10.4839 40.0955ZM29.5665 43.7753H32V46.7191H28.5775L29.5665 43.7753ZM43.871 49.6629H20.129V48.927C20.129 48.5207 20.4614 48.191 20.871 48.191H43.129C43.5386 48.191 43.871 48.5207 43.871 48.927V49.6629ZM42.3886 46.7191H33.4839V43.7753H42.3871L42.3886 46.7191ZM51.2903 42.3034H43.1283V41.7411L44.7005 38.6236H53.5161V40.0955C53.5161 41.3128 52.5175 42.3034 51.2903 42.3034Z" fill="url(#paint0_linear_1069_9331)"/>
<rect x="0.587156" y="-0.587156" width="62.8257" height="62.8257" rx="8.80734" transform="matrix(1 0 0 -1 0 62.8257)" stroke="url(#paint1_linear_1069_9331)" stroke-width="1.17431"/>
<defs>
<linearGradient id="paint0_linear_1069_9331" x1="9" y1="27.0337" x2="55.0247" y2="27.282" gradientUnits="userSpaceOnUse">
<stop stop-color="#214F89"/>
<stop offset="1" stop-color="#12BCAB"/>
</linearGradient>
<linearGradient id="paint1_linear_1069_9331" x1="-9.95479e-09" y1="23.6946" x2="64.0349" y2="23.982" gradientUnits="userSpaceOnUse">
<stop stop-color="#214F89"/>
<stop offset="1" stop-color="#12BCAB"/>
</linearGradient>
</defs>
</svg>
