<svg width="64" height="64" viewBox="0 0 64 64" fill="none" xmlns="http://www.w3.org/2000/svg">
<g clip-path="url(#clip0_1084_238)">
<path d="M54.1406 28.3284C50.6546 26.3495 46.7398 25.2476 42.7333 25.1176V15.9C42.7333 15.0867 42.4102 14.3066 41.8351 13.7315C41.26 13.1564 40.48 12.8333 39.6667 12.8333H34.0869C33.9534 12.601 33.7611 12.4079 33.5294 12.2733C33.2977 12.1387 33.0346 12.0675 32.7667 12.0667H29.6233C29.4474 11.2001 28.9772 10.421 28.2926 9.86144C27.608 9.30185 26.7509 8.99615 25.8667 8.99615C24.9824 8.99615 24.1254 9.30185 23.4407 9.86144C22.7561 10.421 22.286 11.2001 22.11 12.0667H18.9667C18.6987 12.0675 18.4357 12.1387 18.204 12.2733C17.9722 12.4079 17.78 12.601 17.6465 12.8333H12.0667C11.2533 12.8333 10.4733 13.1564 9.89821 13.7315C9.32309 14.3066 9 15.0867 9 15.9V48.8667C9 49.68 9.32309 50.46 9.89821 51.0351C10.4733 51.6102 11.2533 51.9333 12.0667 51.9333H37.3383C38.4637 53.0588 39.742 54.0202 41.1356 54.7892C41.3911 54.9265 41.6766 54.9984 41.9667 54.9984C42.2567 54.9984 42.5423 54.9265 42.7977 54.7892C53.2666 49.0752 54.7953 33.0879 55 29.9407C55.0215 29.6186 54.9524 29.2968 54.8005 29.0118C54.6487 28.7269 54.42 28.4902 54.1406 28.3284ZM41.2 15.9V25.1176C40.6771 25.1345 40.1642 25.1644 39.6667 25.2119V17.4333C39.6667 17.0267 39.5051 16.6367 39.2176 16.3491C38.93 16.0615 38.54 15.9 38.1333 15.9H34.3V14.3667H39.6667C40.0733 14.3667 40.4633 14.5282 40.7509 14.8158C41.0385 15.1033 41.2 15.4933 41.2 15.9ZM18.9667 13.6H22.8C23.0033 13.6 23.1983 13.5192 23.3421 13.3754C23.4859 13.2317 23.5667 13.0367 23.5667 12.8333C23.5667 12.2233 23.809 11.6383 24.2403 11.207C24.6717 10.7757 25.2567 10.5333 25.8667 10.5333C26.4767 10.5333 27.0617 10.7757 27.493 11.207C27.9243 11.6383 28.1667 12.2233 28.1667 12.8333C28.1667 13.0367 28.2474 13.2317 28.3912 13.3754C28.535 13.5192 28.73 13.6 28.9333 13.6H32.7667V16.6667H18.9667V13.6ZM32.7667 18.2C33.0346 18.1992 33.2977 18.1279 33.5294 17.9934C33.7611 17.8588 33.9534 17.6657 34.0869 17.4333H38.1333V25.4067C35.1993 25.8671 32.3731 26.856 29.792 28.3254C29.5139 28.4877 29.2865 28.7243 29.1355 29.0087C28.9845 29.2932 28.9158 29.6141 28.9372 29.9354C29.0767 32.1211 29.8572 40.4985 33.83 47.328H13.6V17.4333H17.6465C17.78 17.6657 17.9722 17.8588 18.204 17.9934C18.4357 18.1279 18.6987 18.1992 18.9667 18.2H32.7667ZM12.0667 50.4C11.66 50.4 11.27 50.2385 10.9824 49.9509C10.6949 49.6633 10.5333 49.2733 10.5333 48.8667V15.9C10.5333 15.4933 10.6949 15.1033 10.9824 14.8158C11.27 14.5282 11.66 14.3667 12.0667 14.3667H17.4333V15.9H13.6C13.1933 15.9 12.8033 16.0615 12.5158 16.3491C12.2282 16.6367 12.0667 17.0267 12.0667 17.4333V47.3333C12.0667 47.74 12.2282 48.13 12.5158 48.4176C12.8033 48.7051 13.1933 48.8667 13.6 48.8667H34.7937C35.1515 49.3941 35.5348 49.9052 35.9437 50.4H12.0667ZM53.4667 29.8441C53.2758 32.8495 51.826 48.1153 42.0633 53.4429C42.0337 53.4584 42.0008 53.4665 41.9674 53.4665C41.934 53.4665 41.9012 53.4584 41.8716 53.4429C32.1081 48.1153 30.6583 32.8495 30.4667 29.8426C30.4638 29.8044 30.4718 29.7661 30.4897 29.7322C30.5076 29.6983 30.5347 29.6701 30.5679 29.6509C34.0409 27.6733 37.9688 26.6334 41.9655 26.6334C45.9622 26.6334 49.8901 27.6733 53.3632 29.6509C53.3965 29.67 53.4238 29.6981 53.4419 29.732C53.4599 29.7659 53.468 29.8043 53.4651 29.8426L53.4667 29.8441Z" fill="url(#paint0_linear_1084_238)"/>
<path d="M50.8754 30.1002C48.078 28.826 45.0398 28.1667 41.9659 28.1667C38.892 28.1667 35.8539 28.826 33.0565 30.1002C32.7604 30.2322 32.5137 30.4544 32.3513 30.735C32.189 31.0155 32.1195 31.3402 32.1526 31.6627C33.3501 43.408 38.2215 48.8414 41.0191 51.0348C41.2883 51.2464 41.6208 51.3614 41.9632 51.3614C42.3057 51.3614 42.6382 51.2464 42.9074 51.0348C45.705 48.8421 50.5741 43.4088 51.7739 31.6627C51.8073 31.3408 51.7385 31.0167 51.5772 30.7362C51.4159 30.4557 51.1703 30.2332 50.8754 30.1002ZM41.9659 49.8296C39.3592 47.7864 34.8198 42.6889 33.6859 31.5009C36.2865 30.314 39.1119 29.7003 41.9705 29.7015C44.8291 29.7027 47.654 30.3187 50.2536 31.5078C49.1105 42.6881 44.5726 47.7857 41.9659 49.8296Z" fill="url(#paint1_linear_1084_238)"/>
<path d="M17.2094 23.7913C17.0648 23.6517 16.8712 23.5744 16.6702 23.5761C16.4691 23.5779 16.2769 23.6585 16.1347 23.8006C15.9926 23.9428 15.9119 24.1351 15.9102 24.3361C15.9084 24.5371 15.9857 24.7308 16.1254 24.8754L16.892 25.642C17.0358 25.7858 17.2308 25.8665 17.4341 25.8665C17.6374 25.8665 17.8323 25.7858 17.9761 25.642L21.0428 22.5754C21.1824 22.4308 21.2597 22.2371 21.258 22.0361C21.2562 21.8351 21.1756 21.6428 21.0334 21.5006C20.8913 21.3585 20.699 21.2779 20.498 21.2761C20.297 21.2744 20.1033 21.3517 19.9587 21.4913L17.4341 24.0159L17.2094 23.7913Z" fill="url(#paint2_linear_1084_238)"/>
<path d="M24.3331 24.3333H35.0664C35.2697 24.3333 35.4647 24.2526 35.6085 24.1088C35.7523 23.965 35.8331 23.77 35.8331 23.5667C35.8331 23.3633 35.7523 23.1683 35.6085 23.0246C35.4647 22.8808 35.2697 22.8 35.0664 22.8H24.3331C24.1297 22.8 23.9347 22.8808 23.791 23.0246C23.6472 23.1683 23.5664 23.3633 23.5664 23.5667C23.5664 23.77 23.6472 23.965 23.791 24.1088C23.9347 24.2526 24.1297 24.3333 24.3331 24.3333Z" fill="url(#paint3_linear_1084_238)"/>
<path d="M19.9587 27.6246L17.4341 30.1493L17.2094 29.9246C17.0648 29.785 16.8712 29.7077 16.6702 29.7095C16.4691 29.7112 16.2769 29.7918 16.1347 29.934C15.9926 30.0761 15.9119 30.2684 15.9102 30.4694C15.9084 30.6704 15.9857 30.8641 16.1254 31.0087L16.892 31.7754C17.0358 31.9191 17.2308 31.9998 17.4341 31.9998C17.6374 31.9998 17.8323 31.9191 17.9761 31.7754L21.0428 28.7087C21.1824 28.5641 21.2597 28.3704 21.258 28.1694C21.2562 27.9684 21.1756 27.7761 21.0334 27.634C20.8913 27.4918 20.699 27.4112 20.498 27.4095C20.297 27.4077 20.1033 27.485 19.9587 27.6246Z" fill="url(#paint4_linear_1084_238)"/>
<path d="M24.3331 30.4667H26.6331C26.8364 30.4667 27.0314 30.3859 27.1752 30.2421C27.319 30.0983 27.3997 29.9033 27.3997 29.7C27.3997 29.4967 27.319 29.3017 27.1752 29.1579C27.0314 29.0141 26.8364 28.9333 26.6331 28.9333H24.3331C24.1297 28.9333 23.9347 29.0141 23.791 29.1579C23.6472 29.3017 23.5664 29.4967 23.5664 29.7C23.5664 29.9033 23.6472 30.0983 23.791 30.2421C23.9347 30.3859 24.1297 30.4667 24.3331 30.4667Z" fill="url(#paint5_linear_1084_238)"/>
<path d="M19.9587 33.758L17.4341 36.2826L17.2094 36.058C17.0648 35.9183 16.8712 35.841 16.6702 35.8428C16.4691 35.8445 16.2769 35.9252 16.1347 36.0673C15.9926 36.2095 15.9119 36.4017 15.9102 36.6028C15.9084 36.8038 15.9857 36.9974 16.1254 37.142L16.892 37.9087C17.0358 38.0524 17.2308 38.1332 17.4341 38.1332C17.6374 38.1332 17.8323 38.0524 17.9761 37.9087L21.0428 34.842C21.1824 34.6974 21.2597 34.5038 21.258 34.3028C21.2562 34.1017 21.1756 33.9095 21.0334 33.7673C20.8913 33.6252 20.699 33.5445 20.498 33.5428C20.297 33.541 20.1033 33.6183 19.9587 33.758Z" fill="url(#paint6_linear_1084_238)"/>
<path d="M24.3331 36.6H27.3997C27.6031 36.6 27.7981 36.5192 27.9419 36.3754C28.0856 36.2317 28.1664 36.0367 28.1664 35.8333C28.1664 35.63 28.0856 35.435 27.9419 35.2912C27.7981 35.1474 27.6031 35.0667 27.3997 35.0667H24.3331C24.1297 35.0667 23.9347 35.1474 23.791 35.2912C23.6472 35.435 23.5664 35.63 23.5664 35.8333C23.5664 36.0367 23.6472 36.2317 23.791 36.3754C23.9347 36.5192 24.1297 36.6 24.3331 36.6Z" fill="url(#paint7_linear_1084_238)"/>
<path d="M19.9587 39.8913L17.4341 42.4159L17.2094 42.1913C17.0648 42.0516 16.8712 41.9744 16.6702 41.9761C16.4691 41.9779 16.2769 42.0585 16.1347 42.2006C15.9926 42.3428 15.9119 42.5351 15.9102 42.7361C15.9084 42.9371 15.9857 43.1308 16.1254 43.2754L16.892 44.042C17.0358 44.1858 17.2308 44.2665 17.4341 44.2665C17.6374 44.2665 17.8323 44.1858 17.9761 44.042L21.0428 40.9754C21.1824 40.8308 21.2597 40.6371 21.258 40.4361C21.2562 40.2351 21.1756 40.0428 21.0334 39.9006C20.8913 39.7585 20.699 39.6779 20.498 39.6761C20.297 39.6744 20.1033 39.7516 19.9587 39.8913Z" fill="url(#paint8_linear_1084_238)"/>
<path d="M39.4419 39.1246C39.2973 38.985 39.1036 38.9077 38.9026 38.9095C38.7016 38.9112 38.5093 38.9918 38.3671 39.134C38.225 39.2761 38.1444 39.4684 38.1426 39.6694C38.1409 39.8704 38.2181 40.0641 38.3578 40.2087L39.8911 41.742C40.0349 41.8858 40.2298 41.9666 40.4332 41.9667H40.4876C40.5973 41.9586 40.704 41.9271 40.8004 41.8742C40.8969 41.8213 40.9808 41.7482 41.0465 41.66L45.6465 35.5267C45.7685 35.364 45.8209 35.1595 45.7921 34.9582C45.7634 34.757 45.6558 34.5753 45.4932 34.4533C45.3305 34.3313 45.126 34.279 44.9247 34.3077C44.7234 34.3365 44.5418 34.444 44.4198 34.6067L40.3504 40.0331L39.4419 39.1246Z" fill="url(#paint9_linear_1084_238)"/>
<path d="M24.3331 42.7333H28.9331C29.1364 42.7333 29.3314 42.6526 29.4752 42.5088C29.619 42.365 29.6997 42.17 29.6997 41.9667C29.6997 41.7633 29.619 41.5683 29.4752 41.4245C29.3314 41.2808 29.1364 41.2 28.9331 41.2H24.3331C24.1297 41.2 23.9347 41.2808 23.791 41.4245C23.6472 41.5683 23.5664 41.7633 23.5664 41.9667C23.5664 42.17 23.6472 42.365 23.791 42.5088C23.9347 42.6526 24.1297 42.7333 24.3331 42.7333Z" fill="url(#paint10_linear_1084_238)"/>
</g>
<rect x="0.587156" y="-0.587156" width="62.8257" height="62.8257" rx="8.80734" transform="matrix(1 0 0 -1 0 62.8257)" stroke="url(#paint11_linear_1084_238)" stroke-width="1.17431"/>
<defs>
<linearGradient id="paint0_linear_1084_238" x1="9" y1="26.0275" x2="55.0289" y2="26.2341" gradientUnits="userSpaceOnUse">
<stop stop-color="#214F89"/>
<stop offset="1" stop-color="#12BCAB"/>
</linearGradient>
<linearGradient id="paint1_linear_1084_238" x1="32.1445" y1="36.754" x2="51.7929" y2="36.8287" gradientUnits="userSpaceOnUse">
<stop stop-color="#214F89"/>
<stop offset="1" stop-color="#12BCAB"/>
</linearGradient>
<linearGradient id="paint2_linear_1084_238" x1="15.9102" y1="22.9756" x2="21.2609" y2="23.0036" gradientUnits="userSpaceOnUse">
<stop stop-color="#214F89"/>
<stop offset="1" stop-color="#12BCAB"/>
</linearGradient>
<linearGradient id="paint3_linear_1084_238" x1="23.5664" y1="23.3677" x2="35.8242" y2="23.8078" gradientUnits="userSpaceOnUse">
<stop stop-color="#214F89"/>
<stop offset="1" stop-color="#12BCAB"/>
</linearGradient>
<linearGradient id="paint4_linear_1084_238" x1="15.9102" y1="29.1089" x2="21.2609" y2="29.1369" gradientUnits="userSpaceOnUse">
<stop stop-color="#214F89"/>
<stop offset="1" stop-color="#12BCAB"/>
</linearGradient>
<linearGradient id="paint5_linear_1084_238" x1="23.5664" y1="29.501" x2="27.4014" y2="29.544" gradientUnits="userSpaceOnUse">
<stop stop-color="#214F89"/>
<stop offset="1" stop-color="#12BCAB"/>
</linearGradient>
<linearGradient id="paint6_linear_1084_238" x1="15.9102" y1="35.2423" x2="21.2609" y2="35.2702" gradientUnits="userSpaceOnUse">
<stop stop-color="#214F89"/>
<stop offset="1" stop-color="#12BCAB"/>
</linearGradient>
<linearGradient id="paint7_linear_1084_238" x1="23.5664" y1="35.6344" x2="28.1682" y2="35.6963" gradientUnits="userSpaceOnUse">
<stop stop-color="#214F89"/>
<stop offset="1" stop-color="#12BCAB"/>
</linearGradient>
<linearGradient id="paint8_linear_1084_238" x1="15.9102" y1="41.3756" x2="21.2609" y2="41.4036" gradientUnits="userSpaceOnUse">
<stop stop-color="#214F89"/>
<stop offset="1" stop-color="#12BCAB"/>
</linearGradient>
<linearGradient id="paint9_linear_1084_238" x1="38.1426" y1="37.1384" x2="45.804" y2="37.1728" gradientUnits="userSpaceOnUse">
<stop stop-color="#214F89"/>
<stop offset="1" stop-color="#12BCAB"/>
</linearGradient>
<linearGradient id="paint10_linear_1084_238" x1="23.5664" y1="41.7677" x2="29.7012" y2="41.8778" gradientUnits="userSpaceOnUse">
<stop stop-color="#214F89"/>
<stop offset="1" stop-color="#12BCAB"/>
</linearGradient>
<linearGradient id="paint11_linear_1084_238" x1="-9.95479e-09" y1="23.6946" x2="64.0349" y2="23.982" gradientUnits="userSpaceOnUse">
<stop stop-color="#214F89"/>
<stop offset="1" stop-color="#12BCAB"/>
</linearGradient>
<clipPath id="clip0_1084_238">
<rect width="46" height="46" fill="white" transform="translate(9 9)"/>
</clipPath>
</defs>
</svg>
