<svg width="50" height="50" viewBox="0 0 50 50" fill="none" xmlns="http://www.w3.org/2000/svg">
<g clip-path="url(#clip0_1908_157)">
<path fill-rule="evenodd" clip-rule="evenodd" d="M45.7202 23.0004C45.694 22.9354 45.6639 22.8719 45.6302 22.8104C45.0102 21.6204 44.3802 20.4304 43.7502 19.2404C43.7169 19.1994 43.6987 19.1482 43.6987 19.0954C43.6987 19.0426 43.7169 18.9914 43.7502 18.9504C44.7502 17.7904 45.7502 16.6204 46.7502 15.4604C46.7943 15.4177 46.8225 15.3613 46.8302 15.3004L45.9602 15.5304C44.7602 15.8504 43.5502 16.1604 42.3502 16.5304C42.2402 16.5304 42.1902 16.5304 42.1402 16.4304C41.4502 15.2904 40.7702 14.1404 40.0802 13.0204C40.0417 12.9546 39.9907 12.8969 39.9302 12.8504C39.8702 13.1604 39.8102 13.4604 39.7602 13.7604L39.2002 17.0004C39.2002 17.1204 39.1502 17.2304 39.1402 17.3504C39.1302 17.4704 39.0702 17.5004 38.9702 17.5304L34.7202 18.8804C34.6504 18.8996 34.5855 18.9337 34.5302 18.9804L38.0002 20.3204L37.9002 20.4004L35.7302 21.8104C35.693 21.8345 35.6496 21.8474 35.6052 21.8474C35.5608 21.8474 35.5174 21.8345 35.4802 21.8104L32.8702 20.6504C32.4809 20.4901 32.1373 20.2359 31.8702 19.9104C31.7206 19.7615 31.6083 19.5794 31.5425 19.3789C31.4766 19.1784 31.4591 18.9651 31.4912 18.7566C31.5234 18.548 31.6044 18.3499 31.7276 18.1786C31.8508 18.0072 32.0127 17.8674 32.2002 17.7704C32.4723 17.6011 32.7646 17.4667 33.0702 17.3704L37.2402 16.0504C37.292 16.0386 37.339 16.0112 37.3748 15.9718C37.4105 15.9325 37.4334 15.8832 37.4402 15.8304C37.6202 14.7604 37.8102 13.6704 38.0102 12.6104C38.0668 12.0274 38.2153 11.457 38.4502 10.9204C38.552 10.7126 38.6834 10.5206 38.8402 10.3504C38.9566 10.2099 39.1025 10.0969 39.2675 10.0192C39.4326 9.94161 39.6128 9.90137 39.7952 9.90137C39.9776 9.90137 40.1578 9.94161 40.3229 10.0192C40.4879 10.0969 40.6339 10.2099 40.7502 10.3504C40.9481 10.5511 41.1195 10.7762 41.2602 11.0204C41.9102 12.0204 42.5402 13.1304 43.1802 14.1904C43.1911 14.2163 43.207 14.2397 43.2271 14.2593C43.2471 14.2789 43.2709 14.2942 43.297 14.3045C43.3231 14.3147 43.351 14.3197 43.379 14.319C43.407 14.3183 43.4347 14.312 43.4602 14.3004L48.1402 13.0004C48.464 12.9008 48.8069 12.8803 49.1402 12.9404C49.2915 12.9611 49.436 13.0161 49.5627 13.1013C49.6894 13.1864 49.7949 13.2994 49.8712 13.4317C49.9474 13.5639 49.9924 13.7119 50.0026 13.8642C50.0129 14.0165 49.9881 14.1692 49.9302 14.3104C49.814 14.622 49.6373 14.9075 49.4102 15.1504L46.1302 19.0004C46.095 19.0406 46.0757 19.0921 46.0757 19.1454C46.0757 19.1988 46.095 19.2503 46.1302 19.2904L48.0502 23.0004C48.2225 23.2846 48.3189 23.6083 48.3302 23.9404C48.3304 24.3099 48.1951 24.6666 47.95 24.943C47.7049 25.2194 47.367 25.3964 47.0002 25.4404C46.5875 25.4811 46.1708 25.4299 45.7802 25.2904L42.8502 24.4004C42.8129 24.3921 42.7792 24.3721 42.7541 24.3433C42.7289 24.3145 42.7135 24.2785 42.7102 24.2404C42.6002 23.5504 42.4702 22.8604 42.3602 22.1804C42.3602 22.1804 42.3602 22.1804 42.3602 22.1004L45.7302 23.0204" fill="url(#paint0_linear_1908_157)"/>
<path fill-rule="evenodd" clip-rule="evenodd" d="M43.7904 33.0704H41.1504C41.0998 33.0729 41.0495 33.061 41.0053 33.0363C40.9611 33.0115 40.9248 32.9748 40.9004 32.9304L37.7804 28.1904L37.6504 28.0004C37.4304 29.7104 37.2104 31.3804 36.9904 33.0604H34.6904C34.6904 32.8304 34.7404 32.6104 34.7704 32.4004C34.9904 30.6804 35.2204 28.9704 35.4404 27.2504C35.6604 25.5304 35.8704 23.9704 36.0904 22.3204C36.1007 22.2689 36.1291 22.2228 36.1704 22.1904L38.5504 20.6504H38.6204L37.9004 26.1004L41.7004 22.0004C41.7004 22.2104 41.7704 22.3904 41.8004 22.5804C41.8904 23.1004 41.9704 23.5804 42.0704 24.1404C42.0808 24.1839 42.0788 24.2294 42.0646 24.2718C42.0505 24.3142 42.0248 24.3518 41.9904 24.3804L39.5704 26.9304L39.4704 27.0404C39.4855 27.0847 39.5093 27.1255 39.5404 27.1604L43.6904 33.0004L43.7804 33.1004" fill="url(#paint1_linear_1908_157)"/>
<path fill-rule="evenodd" clip-rule="evenodd" d="M16.59 27.9195C16.5569 27.687 16.5101 27.4566 16.45 27.2295C16.259 26.6564 15.8572 26.1775 15.3261 25.8896C14.7951 25.6018 14.1744 25.5267 13.59 25.6795C12.9219 25.8184 12.3162 26.1686 11.8624 26.6782C11.4086 27.1878 11.1308 27.8299 11.07 28.5095C11.0084 29.0258 11.1244 29.5477 11.3988 29.9893C11.6733 30.431 12.0898 30.7661 12.58 30.9395C12.9765 31.0864 13.4018 31.1385 13.822 31.0916C14.2422 31.0447 14.6456 30.9002 15 30.6695C15.4859 30.3925 15.8904 29.9926 16.173 29.5099C16.4556 29.0273 16.6063 28.4788 16.61 27.9195H16.59ZM10.51 32.3395C10.44 32.8495 10.37 33.3395 10.31 33.8195C10.23 34.4595 10.14 35.0995 10.06 35.7495C10.06 35.8195 10.06 35.8595 9.95 35.8595H8C8 35.5495 8.07 35.2495 8.11 34.9495L8.53 31.7595C8.69 30.5395 8.82 29.3295 9.03 28.1195C9.24809 27.0445 9.77013 26.0547 10.5341 25.2677C11.2981 24.4807 12.272 23.9294 13.34 23.6795C13.9285 23.5281 14.5417 23.4987 15.1419 23.5933C15.7421 23.6879 16.3166 23.9044 16.83 24.2295C17.3451 24.5562 17.7787 24.9963 18.0977 25.5163C18.4166 26.0363 18.6123 26.6223 18.67 27.2295C18.7625 28.0624 18.6546 28.9053 18.3555 29.688C18.0563 30.4707 17.5744 31.1707 16.95 31.7295C16.1344 32.5333 15.0833 33.0554 13.95 33.2195C12.7994 33.4276 11.6132 33.1724 10.65 32.5095L10.51 32.4195" fill="url(#paint2_linear_1908_157)"/>
<path fill-rule="evenodd" clip-rule="evenodd" d="M9.44 22.2L7.37 23.75C7.26 23.58 7.16 23.4 7.04 23.24C6.91567 23.0263 6.74172 22.8457 6.53286 22.7134C6.32399 22.5811 6.08634 22.5011 5.84 22.48C5.62865 22.4569 5.41483 22.4848 5.21648 22.5614C5.01812 22.6379 4.84101 22.7609 4.7 22.92C4.5864 23.0619 4.5245 23.2383 4.5245 23.42C4.5245 23.6018 4.5864 23.7781 4.7 23.92C4.98 24.29 5.29 24.63 5.6 24.97C6.12 25.54 6.66 26.08 7.18 26.65C7.68195 27.1395 8.02958 27.7653 8.18 28.45C8.3058 29.2659 8.1544 30.1004 7.75 30.82C7.41892 31.4658 6.93529 32.0209 6.34105 32.4374C5.74682 32.8539 5.05994 33.1191 4.34 33.21C3.67426 33.327 2.99075 33.2928 2.34 33.11C1.92016 33.0031 1.52845 32.8065 1.19184 32.5337C0.855216 32.261 0.581667 31.9186 0.39 31.53C0.25 31.25 0.14 31 0 30.64L2.25 29.44L2.32 29.6C2.43178 29.8623 2.56211 30.1163 2.71 30.36C2.90853 30.6914 3.22578 30.9347 3.59726 31.0406C3.96875 31.1465 4.36661 31.1069 4.71 30.93C4.91193 30.8412 5.09778 30.7195 5.26 30.57C5.49018 30.3865 5.64272 30.123 5.6872 29.832C5.73169 29.541 5.66484 29.2439 5.5 29C5.2793 28.6855 5.03528 28.388 4.77 28.11C4.15 27.43 3.51 26.77 2.92 26.11C2.50038 25.6378 2.22605 25.0544 2.13 24.43C2.03448 23.7553 2.17963 23.0684 2.54 22.49C2.93386 21.7869 3.51824 21.2093 4.22587 20.8236C4.93351 20.438 5.73565 20.26 6.54 20.31C7.01072 20.3284 7.47117 20.453 7.88683 20.6747C8.30248 20.8964 8.66254 21.2093 8.94 21.59L9.48 22.3" fill="url(#paint3_linear_1908_157)"/>
<path fill-rule="evenodd" clip-rule="evenodd" d="M26.2502 30.0003C26.1302 30.8803 26.0202 31.7203 25.9102 32.5603C25.8994 32.6089 25.8709 32.6516 25.8302 32.6803C24.9553 33.1254 23.9602 33.2762 22.9927 33.1105C22.0252 32.9447 21.1371 32.4712 20.4602 31.7603C20.1037 31.3511 19.8318 30.8752 19.6601 30.3603C19.4885 29.8454 19.4205 29.3016 19.4602 28.7603C19.5523 27.4581 20.0879 26.2267 20.9777 25.2714C21.8675 24.3161 23.0578 23.6945 24.3502 23.5103C25.0636 23.3914 25.7956 23.4587 26.4754 23.7057C27.1552 23.9527 27.7596 24.3711 28.2302 24.9203C28.5746 25.3032 28.8402 25.7502 29.0118 26.2358C29.1834 26.7214 29.2576 27.236 29.2302 27.7503C29.2302 28.4503 29.0902 29.1503 29.0002 29.8403C28.8802 30.8403 28.7402 31.8403 28.6102 32.8403C28.6141 32.8769 28.6141 32.9137 28.6102 32.9503H26.6102C26.6102 32.7203 26.6602 32.5003 26.6902 32.2803C26.8402 31.1403 27.0002 29.9903 27.1302 28.8503C27.2356 28.1468 27.1349 27.4278 26.8402 26.7803C26.6826 26.4244 26.4245 26.1223 26.0977 25.9109C25.7708 25.6995 25.3894 25.5881 25.0002 25.5903C24.2266 25.5199 23.4536 25.7324 22.8247 26.1884C22.1959 26.6445 21.7537 27.3131 21.5802 28.0703C21.4582 28.543 21.4838 29.0417 21.6536 29.4993C21.8235 29.957 22.1294 30.3517 22.5302 30.6303C22.8975 30.8737 23.3211 31.0189 23.7605 31.0522C24.1998 31.0854 24.6404 31.0056 25.0402 30.8203C25.4994 30.6403 25.9128 30.3601 26.2502 30.0003Z" fill="url(#paint4_linear_1908_157)"/>
<path fill-rule="evenodd" clip-rule="evenodd" d="M34.9398 23.7795C34.8398 24.4895 34.7498 25.1895 34.6598 25.9095C34.2198 25.9095 33.7998 25.9095 33.3698 25.9095C33.2026 25.9088 33.0394 25.9605 32.9031 26.0574C32.7667 26.1542 32.6642 26.2914 32.6098 26.4495C32.5712 26.5797 32.5477 26.7139 32.5398 26.8495C32.3198 28.4895 32.1098 30.1095 31.8898 31.7395C31.8398 32.1495 31.7898 32.5595 31.7298 32.9795H29.5898L29.7098 32.0595C29.8498 30.9995 29.9898 29.9295 30.1298 28.8895C30.2698 27.8495 30.3598 27.0495 30.4998 26.1395C30.6307 25.5151 30.9572 24.9487 31.432 24.5225C31.9067 24.0963 32.505 23.8325 33.1398 23.7695C33.7298 23.7695 34.3198 23.7695 34.9298 23.7695" fill="url(#paint5_linear_1908_157)"/>
<path d="M12.2898 20.6897H12.8198L12.6998 19.8897L12.2898 20.6897ZM12.9098 21.2097H11.9998L11.7198 21.7597H11.0898L12.4698 19.1797H13.0698L13.5398 21.7597H12.9998L12.9198 21.2097" fill="url(#paint6_linear_1908_157)"/>
<path d="M16.0598 19.7102H15.7498L15.6398 20.3002H15.9998C16.0466 20.3018 16.0932 20.2934 16.1366 20.2756C16.1799 20.2578 16.2189 20.231 16.2511 20.197C16.2833 20.1629 16.3078 20.1224 16.3231 20.0781C16.3384 20.0339 16.3441 19.9868 16.3398 19.9402C16.3429 19.9092 16.3391 19.8779 16.3287 19.8486C16.3182 19.8193 16.3014 19.7926 16.2794 19.7706C16.2573 19.7486 16.2307 19.7318 16.2014 19.7213C16.1721 19.7109 16.1408 19.7071 16.1098 19.7102H16.0598ZM15.2998 19.1902H16.1198C16.2157 19.1816 16.3124 19.1936 16.4033 19.2252C16.4943 19.2568 16.5775 19.3073 16.6475 19.3735C16.7174 19.4397 16.7725 19.52 16.8091 19.609C16.8458 19.6981 16.863 19.7939 16.8598 19.8902C16.8649 20.0198 16.842 20.1489 16.7926 20.2689C16.7432 20.3888 16.6684 20.4966 16.5734 20.5849C16.4785 20.6732 16.3655 20.74 16.2423 20.7806C16.1192 20.8212 15.9887 20.8347 15.8598 20.8202H15.5098L15.3398 21.7602H14.7998L15.2598 19.1902" fill="url(#paint7_linear_1908_157)"/>
<path d="M18.6798 20.6897H19.2098L19.0898 19.8897L18.6798 20.6897ZM19.2898 21.2097H18.4098L18.1298 21.7597H17.5098L18.8898 19.1797H19.4898L19.9998 21.7597H19.4198L19.3298 21.2097" fill="url(#paint8_linear_1908_157)"/>
<path d="M22.7104 21.6705C22.5265 21.7603 22.325 21.8081 22.1204 21.8105C21.9691 21.8164 21.8183 21.7905 21.6777 21.7344C21.5372 21.6783 21.41 21.5933 21.3043 21.4848C21.1987 21.3764 21.1171 21.247 21.0647 21.105C21.0124 20.9629 20.9904 20.8115 21.0004 20.6605C21.003 20.2625 21.1615 19.8815 21.442 19.5991C21.7224 19.3168 22.1024 19.1557 22.5004 19.1505C22.6884 19.1482 22.874 19.1929 23.0404 19.2805L23.0004 19.9005C22.9317 19.8302 22.849 19.7753 22.7577 19.7391C22.6664 19.7029 22.5685 19.6863 22.4704 19.6905C22.2351 19.7007 22.0127 19.8008 21.849 19.9701C21.6853 20.1394 21.5927 20.365 21.5904 20.6005C21.582 20.6846 21.5913 20.7696 21.6176 20.85C21.6439 20.9304 21.6866 21.0045 21.743 21.0675C21.7994 21.1305 21.8683 21.181 21.9453 21.216C22.0224 21.2509 22.1058 21.2695 22.1904 21.2705C22.4079 21.2676 22.6185 21.1939 22.7904 21.0605L22.7204 21.6705" fill="url(#paint9_linear_1908_157)"/>
<path d="M26.0903 20.7196H25.0003L24.8203 21.7196H24.2803L24.7303 19.1396H25.2703L25.0903 20.1396H26.2103L26.3903 19.1396H26.9303L26.4703 21.7196H25.9403L26.1203 20.7196" fill="url(#paint10_linear_1908_157)"/>
<path d="M28 21.7497L28.45 19.1797H29.9L29.81 19.6997H28.92L28.83 20.1997H29.64L29.55 20.7097H28.74L28.65 21.2297H29.53L29.44 21.7497H28Z" fill="url(#paint11_linear_1908_157)"/>
</g>
<defs>
<linearGradient id="paint0_linear_1908_157" x1="31.4756" y1="15.6594" x2="50.0148" y2="15.7585" gradientUnits="userSpaceOnUse">
<stop stop-color="#214F89"/>
<stop offset="1" stop-color="#12BCAB"/>
</linearGradient>
<linearGradient id="paint1_linear_1908_157" x1="34.6904" y1="25.2597" x2="43.7955" y2="25.2896" gradientUnits="userSpaceOnUse">
<stop stop-color="#214F89"/>
<stop offset="1" stop-color="#12BCAB"/>
</linearGradient>
<linearGradient id="paint2_linear_1908_157" x1="8" y1="28.1004" x2="18.708" y2="28.1422" gradientUnits="userSpaceOnUse">
<stop stop-color="#214F89"/>
<stop offset="1" stop-color="#12BCAB"/>
</linearGradient>
<linearGradient id="paint3_linear_1908_157" x1="-1.47455e-09" y1="25.106" x2="9.48526" y2="25.1371" gradientUnits="userSpaceOnUse">
<stop stop-color="#214F89"/>
<stop offset="1" stop-color="#12BCAB"/>
</linearGradient>
<linearGradient id="paint4_linear_1908_157" x1="19.4492" y1="27.0528" x2="29.2411" y2="27.097" gradientUnits="userSpaceOnUse">
<stop stop-color="#214F89"/>
<stop offset="1" stop-color="#12BCAB"/>
</linearGradient>
<linearGradient id="paint5_linear_1908_157" x1="29.5898" y1="27.1793" x2="34.9428" y2="27.1933" gradientUnits="userSpaceOnUse">
<stop stop-color="#214F89"/>
<stop offset="1" stop-color="#12BCAB"/>
</linearGradient>
<linearGradient id="paint6_linear_1908_157" x1="11.0898" y1="20.1349" x2="13.5412" y2="20.1453" gradientUnits="userSpaceOnUse">
<stop stop-color="#214F89"/>
<stop offset="1" stop-color="#12BCAB"/>
</linearGradient>
<linearGradient id="paint7_linear_1908_157" x1="14.7998" y1="20.14" x2="16.8616" y2="20.1474" gradientUnits="userSpaceOnUse">
<stop stop-color="#214F89"/>
<stop offset="1" stop-color="#12BCAB"/>
</linearGradient>
<linearGradient id="paint8_linear_1908_157" x1="17.5098" y1="20.1349" x2="20.0011" y2="20.1457" gradientUnits="userSpaceOnUse">
<stop stop-color="#214F89"/>
<stop offset="1" stop-color="#12BCAB"/>
</linearGradient>
<linearGradient id="paint9_linear_1908_157" x1="20.998" y1="20.1355" x2="23.0415" y2="20.1426" gradientUnits="userSpaceOnUse">
<stop stop-color="#214F89"/>
<stop offset="1" stop-color="#12BCAB"/>
</linearGradient>
<linearGradient id="paint10_linear_1908_157" x1="24.2803" y1="20.0948" x2="26.9317" y2="20.1071" gradientUnits="userSpaceOnUse">
<stop stop-color="#214F89"/>
<stop offset="1" stop-color="#12BCAB"/>
</linearGradient>
<linearGradient id="paint11_linear_1908_157" x1="28" y1="20.1312" x2="29.9011" y2="20.1375" gradientUnits="userSpaceOnUse">
<stop stop-color="#214F89"/>
<stop offset="1" stop-color="#12BCAB"/>
</linearGradient>
<clipPath id="clip0_1908_157">
<rect width="50" height="50" fill="white"/>
</clipPath>
</defs>
</svg>
