<svg width="50" height="50" viewBox="0 0 50 50" fill="none" xmlns="http://www.w3.org/2000/svg">
<g clip-path="url(#clip0_1908_152)">
<path d="M11.48 28.7003C11.505 29.3447 11.3669 29.9851 11.0784 30.562C10.79 31.1388 10.3606 31.6336 9.83 32.0003C8.42755 32.8625 6.79323 33.2711 5.15 33.1703C3.37855 33.247 1.614 32.9044 0 32.1703L0 30.5703C1.59562 31.3796 3.36087 31.7978 5.15 31.7903C6.40999 31.8706 7.66734 31.5969 8.78 31.0003C9.14533 30.7906 9.44987 30.4895 9.66375 30.1266C9.87763 29.7637 9.9935 29.3514 10 28.9303C10.0024 28.5332 9.91342 28.1409 9.74003 27.7837C9.56663 27.4265 9.31343 27.114 9 26.8703C8.01471 26.1502 6.91634 25.5993 5.75 25.2403C4.56611 24.8512 3.42383 24.3453 2.34 23.7303C1.76225 23.3633 1.27096 22.8754 0.9 22.3003C0.553692 21.7137 0.380354 21.0411 0.4 20.3603C0.386345 19.7906 0.520014 19.2271 0.788062 18.7243C1.05611 18.2215 1.44945 17.7964 1.93 17.4903C3.20842 16.7101 4.69507 16.3402 6.19 16.4303C7.90664 16.4272 9.60659 16.7672 11.19 17.4303L10.64 18.7703C9.24558 18.1531 7.74429 17.8134 6.22 17.7703C5.13537 17.72 4.05554 17.9435 3.08 18.4203C2.73284 18.5809 2.43904 18.8378 2.23343 19.1604C2.02783 19.4829 1.91905 19.8577 1.92 20.2403C1.90814 20.6201 1.98303 20.9977 2.13898 21.3442C2.29493 21.6908 2.52784 21.9972 2.82 22.2403C3.88391 23.0062 5.06162 23.6001 6.31 24.0003C7.41625 24.3624 8.48195 24.8382 9.49 25.4203C10.0897 25.7665 10.6054 26.2412 11 26.8103C11.3333 27.3831 11.4996 28.0378 11.48 28.7003Z" fill="url(#paint0_linear_1908_152)"/>
<path d="M22.5704 33.2102C21.4939 33.2861 20.4172 33.0664 19.4566 32.5746C18.496 32.0829 17.6882 31.3379 17.1204 30.4202H17.0004V31.6602C17.0004 32.4002 17.0604 33.2002 17.0604 34.0702V40.2302H15.6504V16.7402H16.9004L17.1804 19.0502H17.2704C17.8433 18.1767 18.64 17.4729 19.5775 17.0121C20.5149 16.5512 21.5588 16.3503 22.6004 16.4302C23.5443 16.3691 24.4893 16.532 25.3582 16.9056C26.2271 17.2793 26.9954 17.8531 27.6004 18.5802C28.8634 20.4131 29.4695 22.6193 29.3204 24.8402C29.4456 27.0424 28.8023 29.2197 27.5004 31.0002C26.9055 31.7247 26.1507 32.3014 25.2953 32.6849C24.4398 33.0684 23.5071 33.2482 22.5704 33.2102ZM22.5704 31.9002C23.3128 31.9361 24.0526 31.7867 24.7229 31.4654C25.3933 31.1442 25.9732 30.6613 26.4104 30.0602C27.404 28.53 27.8807 26.7214 27.7704 24.9002C27.7704 20.1535 26.0571 17.7769 22.6304 17.7702C21.867 17.705 21.0987 17.8102 20.381 18.0783C19.6633 18.3463 19.0141 18.7705 18.4804 19.3202C17.5871 20.3602 17.1437 22.0502 17.1504 24.3902V24.8702C17.1504 27.4002 17.5804 29.2002 18.4204 30.2802C18.9367 30.8484 19.5769 31.2901 20.2913 31.571C21.0058 31.852 21.7754 31.9646 22.5404 31.9002H22.5704Z" fill="url(#paint1_linear_1908_152)"/>
<path d="M35.2303 25.8195L43.4803 16.7395H45.2703L38.9003 23.6495L45.8203 32.9095H44.0503L37.9103 24.7495L35.2603 27.1595V32.9095H33.7803V9.76953H35.2603V21.3695L35.1503 25.8195H35.2303Z" fill="url(#paint2_linear_1908_152)"/>
<path d="M50.0003 32.9095H48.5303V9.76953H50.0003V32.9095Z" fill="url(#paint3_linear_1908_152)"/>
</g>
<defs>
<linearGradient id="paint0_linear_1908_152" x1="-1.78609e-09" y1="22.6251" x2="11.4893" y2="22.6604" gradientUnits="userSpaceOnUse">
<stop stop-color="#214F89"/>
<stop offset="1" stop-color="#12BCAB"/>
</linearGradient>
<linearGradient id="paint1_linear_1908_152" x1="15.6504" y1="25.2309" x2="29.3502" y2="25.2662" gradientUnits="userSpaceOnUse">
<stop stop-color="#214F89"/>
<stop offset="1" stop-color="#12BCAB"/>
</linearGradient>
<linearGradient id="paint2_linear_1908_152" x1="33.7803" y1="18.3366" x2="45.827" y2="18.3648" gradientUnits="userSpaceOnUse">
<stop stop-color="#214F89"/>
<stop offset="1" stop-color="#12BCAB"/>
</linearGradient>
<linearGradient id="paint3_linear_1908_152" x1="48.5303" y1="18.3366" x2="50.0011" y2="18.337" gradientUnits="userSpaceOnUse">
<stop stop-color="#214F89"/>
<stop offset="1" stop-color="#12BCAB"/>
</linearGradient>
<clipPath id="clip0_1908_152">
<rect width="50" height="50" fill="white"/>
</clipPath>
</defs>
</svg>
