<svg width="50" height="50" viewBox="0 0 50 50" fill="none" xmlns="http://www.w3.org/2000/svg">
<g clip-path="url(#clip0_1908_130)">
<path fill-rule="evenodd" clip-rule="evenodd" d="M8.4502 0H23.3502C19.6861 0.839536 16.3378 2.70728 13.6984 5.38383C11.0591 8.06038 9.23837 11.4346 8.4502 15.11V0Z" fill="url(#paint0_linear_1908_130)"/>
<path fill-rule="evenodd" clip-rule="evenodd" d="M39.3802 0V8.11C38.7847 6.18535 37.7227 4.43777 36.2885 3.02282C34.8544 1.60788 33.0927 0.569458 31.1602 0L39.3802 0Z" fill="url(#paint1_linear_1908_130)"/>
<path fill-rule="evenodd" clip-rule="evenodd" d="M28.2197 11.1099V1.41992C30.7414 1.55134 33.124 2.61617 34.904 4.40723C36.684 6.19829 37.734 8.58747 37.8497 11.1099H28.2197Z" fill="url(#paint2_linear_1908_130)"/>
<path fill-rule="evenodd" clip-rule="evenodd" d="M28.2197 12H29.4397C28.9375 12.294 28.5178 12.7102 28.2197 13.21V12Z" fill="url(#paint3_linear_1908_130)"/>
<path fill-rule="evenodd" clip-rule="evenodd" d="M28.2197 18.8596H29.4397C28.9349 18.5646 28.5147 18.1444 28.2197 17.6396V18.8596Z" fill="url(#paint4_linear_1908_130)"/>
<path fill-rule="evenodd" clip-rule="evenodd" d="M32.1797 12H37.8497C37.6619 13.4184 36.9991 14.7312 35.9694 15.7246C34.9397 16.718 33.6039 17.3332 32.1797 17.47V12Z" fill="url(#paint5_linear_1908_130)"/>
<path fill-rule="evenodd" clip-rule="evenodd" d="M31.2504 13.2803V17.4403C30.7638 17.394 30.3109 17.1711 29.9774 16.8136C29.6439 16.4562 29.4529 15.989 29.4404 15.5003C29.4501 14.981 29.6338 14.4801 29.9619 14.0776C30.2901 13.6751 30.7438 13.3943 31.2504 13.2803Z" fill="url(#paint6_linear_1908_130)"/>
<path fill-rule="evenodd" clip-rule="evenodd" d="M27.28 18.8599H10C10 9.72992 18.05 1.41992 27.28 1.41992V18.8599Z" fill="url(#paint7_linear_1908_130)"/>
<path fill-rule="evenodd" clip-rule="evenodd" d="M39.3804 18.86H34.6104C35.692 18.4133 36.6721 17.7525 37.4919 16.9173C38.3116 16.0821 38.9539 15.0898 39.3804 14V18.87V18.86Z" fill="url(#paint8_linear_1908_130)"/>
<path fill-rule="evenodd" clip-rule="evenodd" d="M39.38 19.6699V47.9999C23.91 48.1699 10 34.9999 10 19.6699H39.38Z" fill="url(#paint9_linear_1908_130)"/>
<path fill-rule="evenodd" clip-rule="evenodd" d="M8.4502 24.0801C12.2002 44.2601 31.2302 50.2201 39.2702 50.0001H8.4502V24.0801Z" fill="url(#paint10_linear_1908_130)"/>
</g>
<defs>
<linearGradient id="paint0_linear_1908_130" x1="8.4502" y1="5.59416" x2="23.3583" y2="5.66013" gradientUnits="userSpaceOnUse">
<stop stop-color="#214F89"/>
<stop offset="1" stop-color="#12BCAB"/>
</linearGradient>
<linearGradient id="paint1_linear_1908_130" x1="31.1602" y1="3.00256" x2="39.3846" y2="3.03997" gradientUnits="userSpaceOnUse">
<stop stop-color="#214F89"/>
<stop offset="1" stop-color="#12BCAB"/>
</linearGradient>
<linearGradient id="paint2_linear_1908_130" x1="28.2197" y1="5.00744" x2="37.855" y2="5.05041" gradientUnits="userSpaceOnUse">
<stop stop-color="#214F89"/>
<stop offset="1" stop-color="#12BCAB"/>
</linearGradient>
<linearGradient id="paint3_linear_1908_130" x1="28.2197" y1="12.448" x2="29.4404" y2="12.4535" gradientUnits="userSpaceOnUse">
<stop stop-color="#214F89"/>
<stop offset="1" stop-color="#12BCAB"/>
</linearGradient>
<linearGradient id="paint4_linear_1908_130" x1="28.2197" y1="18.0913" x2="29.4404" y2="18.0968" gradientUnits="userSpaceOnUse">
<stop stop-color="#214F89"/>
<stop offset="1" stop-color="#12BCAB"/>
</linearGradient>
<linearGradient id="paint5_linear_1908_130" x1="32.1797" y1="14.0252" x2="37.8528" y2="14.0515" gradientUnits="userSpaceOnUse">
<stop stop-color="#214F89"/>
<stop offset="1" stop-color="#12BCAB"/>
</linearGradient>
<linearGradient id="paint6_linear_1908_130" x1="29.4404" y1="14.8204" x2="31.2514" y2="14.824" gradientUnits="userSpaceOnUse">
<stop stop-color="#214F89"/>
<stop offset="1" stop-color="#12BCAB"/>
</linearGradient>
<linearGradient id="paint7_linear_1908_130" x1="10" y1="7.87671" x2="27.2894" y2="7.95359" gradientUnits="userSpaceOnUse">
<stop stop-color="#214F89"/>
<stop offset="1" stop-color="#12BCAB"/>
</linearGradient>
<linearGradient id="paint8_linear_1908_130" x1="34.6104" y1="15.803" x2="39.383" y2="15.824" gradientUnits="userSpaceOnUse">
<stop stop-color="#214F89"/>
<stop offset="1" stop-color="#12BCAB"/>
</linearGradient>
<linearGradient id="paint9_linear_1908_130" x1="10" y1="30.1591" x2="39.396" y2="30.2959" gradientUnits="userSpaceOnUse">
<stop stop-color="#214F89"/>
<stop offset="1" stop-color="#12BCAB"/>
</linearGradient>
<linearGradient id="paint10_linear_1908_130" x1="8.4502" y1="33.6786" x2="39.2867" y2="33.8431" gradientUnits="userSpaceOnUse">
<stop stop-color="#214F89"/>
<stop offset="1" stop-color="#12BCAB"/>
</linearGradient>
<clipPath id="clip0_1908_130">
<rect width="50" height="50" fill="white"/>
</clipPath>
</defs>
</svg>
