<svg width="64" height="64" viewBox="0 0 64 64" fill="none" xmlns="http://www.w3.org/2000/svg">
<path d="M49.875 39.3125H49.6069L46.6738 32.4713C47.1711 32.6892 47.7071 32.8052 48.25 32.8125C48.4655 32.8125 48.6722 32.7269 48.8245 32.5745C48.9769 32.4222 49.0625 32.2155 49.0625 32V25.5C49.0625 25.2845 48.9769 25.0779 48.8245 24.9255C48.6722 24.7731 48.4655 24.6875 48.25 24.6875C47.4039 24.6921 46.5803 24.9608 45.8942 25.456C45.2082 25.9513 44.6939 26.6484 44.4231 27.45C44.184 27.1162 43.8789 26.8351 43.5267 26.624C43.1745 26.413 42.7827 26.2765 42.3756 26.2231C41.8595 26.1565 41.3355 26.1896 40.8319 26.3206H40.125C38.7519 26.3206 38.1425 25.5081 37.1838 24.1838L36.7044 23.5094C37.196 23.4843 37.6724 23.3302 38.0856 23.0625C38.3991 22.8349 38.6646 22.5477 38.8668 22.2172C39.069 21.8868 39.2039 21.5196 39.2637 21.1369C39.5278 20.9847 39.7588 20.7813 39.943 20.5385C40.1272 20.2957 40.2609 20.0184 40.3362 19.7231C40.3706 19.4902 40.3478 19.2524 40.27 19.0303C40.1922 18.8081 40.0615 18.6081 39.8894 18.4475C39.5576 17.8795 39.3759 17.2364 39.3613 16.5788C39.571 16.5662 39.7678 16.4729 39.9102 16.3183C40.0526 16.1638 40.1296 15.9601 40.125 15.75C40.1251 14.8888 39.954 14.0362 39.6218 13.2417C39.2896 12.4472 38.8028 11.7267 38.1897 11.1219C37.5766 10.5172 36.8495 10.0402 36.0505 9.7189C35.2516 9.39755 34.3967 9.23816 33.5356 9.25C31.8458 9.28327 30.2345 9.96935 29.0394 11.1644C27.8443 12.3595 27.1583 13.9708 27.125 15.6606C27.1098 16.5221 27.2673 17.3779 27.5883 18.1775C27.9093 18.9771 28.3871 19.7044 28.9937 20.3163C29.1735 20.4949 29.3634 20.6631 29.5625 20.82C26.4263 21.5838 24.7769 24.525 23.9319 27.0763C23.6914 26.834 23.4054 26.6417 23.0902 26.5106C22.775 26.3795 22.437 26.3122 22.0956 26.3125H13.4669C13.0336 26.3118 12.607 26.42 12.2265 26.6273C11.846 26.8346 11.5237 27.1343 11.2894 27.4988C11.1719 27.6798 11.1312 27.9 11.1762 28.1111C11.2211 28.3221 11.3481 28.5066 11.5291 28.6241C11.7101 28.7415 11.9303 28.7822 12.1414 28.7373C12.3524 28.6923 12.5369 28.5654 12.6544 28.3844C12.7419 28.2488 12.8623 28.1374 13.0043 28.0607C13.1464 27.984 13.3055 27.9445 13.4669 27.9456H14.9375V30.3831C14.9375 30.5986 15.0231 30.8053 15.1755 30.9577C15.3278 31.11 15.5345 31.1956 15.75 31.1956H19.8125C20.028 31.1956 20.2347 31.11 20.387 30.9577C20.5394 30.8053 20.625 30.5986 20.625 30.3831V27.9375H22.0956C22.2226 27.9375 22.3483 27.9625 22.4656 28.0111C22.5829 28.0597 22.6895 28.1309 22.7793 28.2207C22.8691 28.3105 22.9403 28.4171 22.9889 28.5344C23.0375 28.6517 23.0625 28.7774 23.0625 28.9044V35.1038C23.0604 35.3588 22.9575 35.6026 22.7765 35.7822C22.5954 35.9618 22.3507 36.0625 22.0956 36.0625H13.4669C13.2342 36.0689 13.0072 35.9898 12.829 35.84C12.6508 35.6903 12.5337 35.4803 12.5 35.25H14.125C14.3405 35.25 14.5472 35.1644 14.6995 35.012C14.8519 34.8597 14.9375 34.653 14.9375 34.4375C14.9375 34.222 14.8519 34.0154 14.6995 33.863C14.5472 33.7106 14.3405 33.625 14.125 33.625H12.5V32H13.3125C13.528 32 13.7347 31.9144 13.887 31.762C14.0394 31.6097 14.125 31.403 14.125 31.1875C14.125 30.972 14.0394 30.7654 13.887 30.613C13.7347 30.4606 13.528 30.375 13.3125 30.375H9.25C9.03451 30.375 8.82785 30.4606 8.67548 30.613C8.5231 30.7654 8.4375 30.972 8.4375 31.1875C8.4375 31.403 8.5231 31.6097 8.67548 31.762C8.82785 31.9144 9.03451 32 9.25 32H10.875V33.625H7.625C7.40951 33.625 7.20285 33.7106 7.05048 33.863C6.8981 34.0154 6.8125 34.222 6.8125 34.4375C6.8125 34.653 6.8981 34.8597 7.05048 35.012C7.20285 35.1644 7.40951 35.25 7.625 35.25H10.875C10.9123 35.9082 11.1998 36.5272 11.6786 36.9804C12.1575 37.4335 12.7914 37.6865 13.4506 37.6875H17.5131C17.1371 38.0562 16.8169 38.4777 16.5625 38.9388C15.4775 41.0666 14.9201 43.4241 14.9375 45.8125C14.9375 46.028 15.0231 46.2347 15.1755 46.387C15.3278 46.5394 15.5345 46.625 15.75 46.625H18.2444C18.4523 48.1865 19.2202 49.6194 20.4054 50.6572C21.5905 51.6949 23.1122 52.267 24.6875 52.267C26.2628 52.267 27.7845 51.6949 28.9696 50.6572C30.1548 49.6194 30.9227 48.1865 31.1306 46.625H43.4319C43.5883 47.8664 44.0996 49.0362 44.9045 49.9941C45.7094 50.952 46.7736 51.6572 47.9695 52.0251C49.1653 52.393 50.4419 52.408 51.6461 52.0682C52.8502 51.7285 53.9307 51.0484 54.7578 50.1096C55.585 49.1709 56.1236 48.0134 56.3091 46.776C56.4945 45.5387 56.319 44.2741 55.8034 43.1341C55.2879 41.9941 54.4543 41.0271 53.4027 40.3492C52.3511 39.6714 51.1262 39.3114 49.875 39.3125ZM19 29.5625H16.5625V27.9375H19V29.5625ZM47.4375 26.4506V31.0494C46.9614 30.8819 46.549 30.5707 46.2573 30.1589C45.9656 29.747 45.8089 29.2547 45.8089 28.75C45.8089 28.2453 45.9656 27.753 46.2573 27.3411C46.549 26.9293 46.9614 26.6181 47.4375 26.4506ZM42.14 27.8238C42.4585 27.8714 42.7544 28.0165 42.9872 28.2391C43.22 28.4617 43.3781 28.7508 43.44 29.0669L43.6513 29.5625C42.52 30.144 41.2579 30.4239 39.9869 30.375C39.875 29.8923 39.9336 29.3858 40.1528 28.9415C40.372 28.4972 40.7383 28.1424 41.1894 27.9375C41.4958 27.8381 41.8192 27.8022 42.14 27.8319V27.8238ZM38.1344 19.8938C37.9991 19.9619 37.8856 20.0665 37.8067 20.1957C37.7277 20.3249 37.6864 20.4736 37.6875 20.625C37.6815 20.8295 37.6329 21.0306 37.5447 21.2153C37.4566 21.3999 37.3309 21.5642 37.1756 21.6975C36.7125 22.0063 35.8512 21.9331 34.7381 21.4944C34.6787 21.4878 34.6188 21.4878 34.5594 21.4944L34.4375 21.3888V18.2769C34.4375 17.8222 34.6181 17.3861 34.9396 17.0646C35.2611 16.7431 35.6972 16.5625 36.1519 16.5625H37.6875C37.7131 17.6143 38.0433 18.636 38.6381 19.5038C38.4911 19.661 38.3213 19.7952 38.1344 19.9019V19.8938ZM28.75 15.6769C28.7906 14.4162 29.3096 13.2183 30.2015 12.3265C31.0933 11.4346 32.2912 10.9156 33.5519 10.875H33.625C34.7776 10.8743 35.8932 11.2819 36.7738 12.0256C37.6543 12.7694 38.2429 13.801 38.435 14.9375H36.1519C35.2669 14.9396 34.4187 15.2922 33.7929 15.918C33.1672 16.5437 32.8146 17.3919 32.8125 18.2769V20.56C31.6649 20.3661 30.6245 19.7681 29.8794 18.874C29.1344 17.9799 28.7337 16.8487 28.75 15.685V15.6769ZM31.1875 22.25C33.8444 22.25 34.8194 23.6394 35.8513 25.1019C36.5988 26.1744 37.4763 27.3444 38.9388 27.7588C38.4787 28.5021 38.2707 29.374 38.3456 30.245C37.3372 30.0247 36.386 29.5957 35.5534 28.9856C34.7208 28.3754 34.0251 27.5977 33.5113 26.7025C33.467 26.5951 33.4002 26.4985 33.3154 26.4191C33.2306 26.3397 33.1298 26.2794 33.0198 26.2423C32.9097 26.2051 32.793 26.192 32.6774 26.2039C32.5618 26.2157 32.4502 26.2521 32.3499 26.3108C32.2496 26.3694 32.1631 26.4489 32.0961 26.5438C32.0292 26.6387 31.9834 26.7469 31.9617 26.861C31.9401 26.9751 31.9432 27.0925 31.9709 27.2054C31.9985 27.3182 32.05 27.4238 32.1219 27.515C32.4164 28.0093 32.7535 28.4769 33.1294 28.9125L33.0562 28.9613C32.2989 29.8324 31.7661 30.8757 31.5044 32H24.6875V31.1875C24.7444 30.6919 25.6706 22.25 31.1875 22.25ZM24.6875 35.0956V33.625H32C32.1625 33.625 36.0625 33.6738 36.0625 37.6875V41.75H32.8125V40.125C32.833 39.586 32.742 39.0486 32.5451 38.5464C32.3482 38.0442 32.0497 37.5881 31.6683 37.2067C31.2869 36.8253 30.8308 36.5268 30.3286 36.3299C29.8264 36.133 29.289 36.042 28.75 36.0625H24.5006C24.6247 35.7553 24.6882 35.427 24.6875 35.0956ZM24.6875 50.6875C23.5363 50.6863 22.4226 50.2778 21.5438 49.5343C20.6649 48.7907 20.0775 47.7601 19.8856 46.625H21.5512C21.7384 47.3135 22.1468 47.9213 22.7136 48.3546C23.2804 48.7879 23.974 49.0227 24.6875 49.0227C25.401 49.0227 26.0946 48.7879 26.6614 48.3546C27.2282 47.9213 27.6366 47.3135 27.8238 46.625H29.4894C29.2975 47.7601 28.7101 48.7907 27.8312 49.5343C26.9524 50.2778 25.8387 50.6863 24.6875 50.6875ZM23.29 46.625H26.085C25.9411 46.8675 25.7366 47.0684 25.4916 47.2079C25.2466 47.3474 24.9695 47.4208 24.6875 47.4208C24.4055 47.4208 24.1284 47.3474 23.8834 47.2079C23.6384 47.0684 23.4339 46.8675 23.29 46.625ZM16.5625 45C16.6662 43.1299 17.1705 41.3039 18.0412 39.6456C18.3647 39.0443 18.8473 38.5435 19.4363 38.1982C20.0253 37.8528 20.6979 37.6761 21.3806 37.6875H28.75C29.0747 37.6699 29.3995 37.7209 29.7032 37.8372C30.0069 37.9535 30.2827 38.1324 30.5127 38.3623C30.7426 38.5923 30.9215 38.8681 31.0378 39.1718C31.1541 39.4755 31.2051 39.8003 31.1875 40.125V42.5625C31.1875 43.4415 31.4726 44.2968 32 45H16.5625ZM35.25 45C34.7471 44.9986 34.257 44.8417 33.8468 44.5507C33.4366 44.2598 33.1264 43.8491 32.9588 43.375H36.875C37.0871 43.3614 37.2997 43.3921 37.4993 43.4653C37.6988 43.5385 37.8809 43.6526 38.0338 43.8002C38.1868 43.9478 38.3072 44.1257 38.3875 44.3225C38.4678 44.5193 38.5061 44.7307 38.5 44.9431C38.2306 44.9791 37.9593 44.9981 37.6875 45H35.25ZM40.4581 44.0494C40.3407 44.1822 40.2069 44.2996 40.06 44.3988C39.9708 43.7845 39.6956 43.2123 39.2715 42.759C38.8473 42.3058 38.2945 41.9934 37.6875 41.8638V37.6875C37.7608 36.3618 37.3366 35.0564 36.4981 34.027C35.6595 32.9976 34.4669 32.3182 33.1537 32.1219C33.362 31.3931 33.7189 30.7154 34.2019 30.1313C34.2229 30.1028 34.2419 30.073 34.2587 30.0419C35.5199 31.0649 37.0374 31.7224 38.6463 31.9431L40.9375 41.9044C41.0662 42.6546 40.8939 43.4253 40.4581 44.0494ZM42.5625 41.5713L40.3281 32C41.703 32.0127 43.0614 31.7009 44.2931 31.09L48.1281 40.0275L44.5856 45H41.75C42.1066 44.5112 42.3621 43.9562 42.5016 43.3675C42.6412 42.7787 42.6618 42.1681 42.5625 41.5713ZM49.875 45H48.4775C48.6564 44.6902 48.9324 44.4481 49.2629 44.3112C49.5934 44.1743 49.9598 44.1503 50.3054 44.2429C50.6509 44.3355 50.9562 44.5395 51.174 44.8233C51.3918 45.1071 51.5098 45.4548 51.5098 45.8125C51.5098 46.1702 51.3918 46.5179 51.174 46.8017C50.9562 47.0855 50.6509 47.2896 50.3054 47.3821C49.9598 47.4747 49.5934 47.4507 49.2629 47.3138C48.9324 47.1769 48.6564 46.9348 48.4775 46.625H49.875C50.0905 46.625 50.2972 46.5394 50.4495 46.387C50.6019 46.2347 50.6875 46.028 50.6875 45.8125C50.6875 45.597 50.6019 45.3904 50.4495 45.238C50.2972 45.0856 50.0905 45 49.875 45ZM46.5762 45L46.8606 44.6019C46.8115 44.7318 46.7708 44.8648 46.7387 45H46.5762ZM49.875 50.6875C48.7238 50.6863 47.6101 50.2778 46.7313 49.5343C45.8524 48.7907 45.265 47.7601 45.0731 46.625H46.7387C46.9167 47.3104 47.3136 47.9188 47.8691 48.3579C48.4246 48.797 49.1083 49.0427 49.8162 49.0576C50.5241 49.0724 51.2175 48.8557 51.791 48.4403C52.3644 48.025 52.7865 47.4337 52.9931 46.7564C53.1996 46.0791 53.1794 45.3529 52.9354 44.6882C52.6913 44.0235 52.2369 43.4567 51.6412 43.074C51.0455 42.6912 50.341 42.5135 49.6351 42.5679C48.9291 42.6222 48.2601 42.9056 47.73 43.375L49.4606 40.9375C49.5988 40.9375 49.7369 40.9375 49.875 40.9375C51.1679 40.9375 52.4079 41.4511 53.3221 42.3654C54.2364 43.2796 54.75 44.5196 54.75 45.8125C54.75 47.1054 54.2364 48.3454 53.3221 49.2597C52.4079 50.1739 51.1679 50.6875 49.875 50.6875Z" fill="url(#paint0_linear_1069_9371)"/>
<rect x="0.587156" y="-0.587156" width="62.8257" height="62.8257" rx="8.80734" transform="matrix(1 0 0 -1 0 62.8257)" stroke="url(#paint1_linear_1069_9371)" stroke-width="1.17431"/>
<defs>
<linearGradient id="paint0_linear_1069_9371" x1="6.8125" y1="25.1926" x2="56.4076" y2="25.4488" gradientUnits="userSpaceOnUse">
<stop stop-color="#214F89"/>
<stop offset="1" stop-color="#12BCAB"/>
</linearGradient>
<linearGradient id="paint1_linear_1069_9371" x1="-9.95479e-09" y1="23.6946" x2="64.0349" y2="23.982" gradientUnits="userSpaceOnUse">
<stop stop-color="#214F89"/>
<stop offset="1" stop-color="#12BCAB"/>
</linearGradient>
</defs>
</svg>
