<svg width="58" height="58" viewBox="0 0 58 58" fill="none" xmlns="http://www.w3.org/2000/svg">
<path d="M37.3636 47.6499C36.9937 47.651 36.6272 47.5787 36.2854 47.4371C35.9436 47.2955 35.6333 47.0875 35.3725 46.8251L29.881 41.3337C29.7948 41.2475 29.7263 41.1452 29.6796 41.0326C29.6329 40.9199 29.6088 40.7992 29.6088 40.6773C29.6087 40.5553 29.6327 40.4346 29.6793 40.3219C29.7259 40.2092 29.7943 40.1068 29.8805 40.0206C29.9666 39.9343 30.069 39.8659 30.1816 39.8192C30.2942 39.7725 30.415 39.7484 30.5369 39.7483C30.6588 39.7483 30.7796 39.7722 30.8923 39.8189C31.0049 39.8655 31.1073 39.9338 31.1936 40.02L36.685 45.5126C36.8631 45.6921 37.1047 45.7942 37.3575 45.7967C37.6103 45.7992 37.8539 45.7019 38.0355 45.5259C38.217 45.35 38.3219 45.1095 38.3273 44.8567C38.3326 44.6039 38.2381 44.3592 38.0643 44.1757L28.369 33.8552L26.1157 35.503C25.363 36.0793 24.4194 36.3481 23.476 36.255C22.5325 36.1619 21.6597 35.7139 21.0342 35.0015C20.4087 34.2892 20.0772 33.3657 20.1068 32.4182C20.1364 31.4706 20.525 30.5697 21.1938 29.8978L24.8548 26.2218C25.2618 25.813 25.7696 25.5191 26.3268 25.3698C28.1584 24.8797 31.5688 24.2481 33.8291 25.5217C36.0424 26.7693 37.388 26.785 37.4941 26.7856C37.5107 26.7846 37.5274 26.7846 37.544 26.7856H42.8829C43.129 26.7856 43.3651 26.8833 43.5391 27.0574C43.7131 27.2314 43.8109 27.4674 43.8109 27.7136C43.8109 27.9597 43.7131 28.1957 43.5391 28.3698C43.3651 28.5438 43.129 28.6416 42.8829 28.6416H37.5643C37.2488 28.6532 35.5662 28.6329 32.9179 27.1399C31.1199 26.1261 27.7855 26.9021 26.8065 27.1637C26.565 27.2284 26.345 27.3556 26.1685 27.5326L22.5075 31.2086C22.1699 31.5472 21.9737 32.0017 21.959 32.4796C21.9443 32.9576 22.112 33.4232 22.4282 33.782C22.7443 34.1407 23.1852 34.3657 23.6612 34.4112C24.1372 34.4567 24.6127 34.3193 24.9911 34.0269C24.9969 34.0222 25.0032 34.017 25.0102 34.0124L27.9346 31.8739C28.1176 31.7405 28.3432 31.6786 28.5687 31.7C28.7943 31.7213 29.0042 31.8244 29.1589 31.9899L39.4168 42.9055C39.7921 43.3052 40.0426 43.8057 40.1376 44.3457C40.2325 44.8857 40.1678 45.4417 39.9513 45.9454C39.7349 46.4491 39.3761 46.8787 38.919 47.1815C38.4619 47.4843 37.9264 47.6471 37.3781 47.6499H37.3636Z" fill="url(#paint0_linear_159_371)"/>
<path d="M33.785 49.1666C33.4285 49.1676 33.0753 49.0979 32.7458 48.9615C32.4164 48.8251 32.1173 48.6248 31.8658 48.372L27.1232 43.6293C27.037 43.5432 26.9686 43.4408 26.922 43.3282C26.8753 43.2156 26.8513 43.095 26.8513 42.9731C26.8513 42.8512 26.8753 42.7305 26.922 42.6179C26.9686 42.5053 27.037 42.403 27.1232 42.3168C27.2093 42.2306 27.3116 42.1623 27.4243 42.1156C27.5369 42.069 27.6575 42.045 27.7794 42.045C27.9013 42.045 28.022 42.069 28.1346 42.1156C28.2472 42.1623 28.3495 42.2306 28.4357 42.3168L33.176 47.0589C33.337 47.2204 33.5556 47.3114 33.7836 47.3117C34.0116 47.3121 34.2305 47.2219 34.392 47.0609C34.5535 46.8999 34.6445 46.6814 34.6449 46.4534C34.6452 46.2253 34.555 46.0065 34.394 45.8449L32.248 43.6989C32.0813 43.5235 31.9898 43.2899 31.9929 43.0479C31.996 42.8059 32.0935 42.5747 32.2646 42.4036C32.4357 42.2324 32.6669 42.1349 32.9089 42.1318C33.1509 42.1287 33.3845 42.2203 33.56 42.387L35.706 44.533C36.0856 44.9126 36.3441 45.3963 36.4488 45.9229C36.5535 46.4494 36.4997 46.9952 36.2942 47.4912C36.0887 47.9872 35.7407 48.4111 35.2943 48.7093C34.8479 49.0075 34.3231 49.1667 33.7862 49.1666H33.785Z" fill="url(#paint1_linear_159_371)"/>
<path d="M30.7731 51.2059C30.4166 51.2065 30.0636 51.1367 29.7342 51.0005C29.4048 50.8642 29.1056 50.6642 28.8539 50.4119L24.1112 45.6692C23.9371 45.4951 23.8394 45.2591 23.8394 45.0129C23.8394 44.7668 23.9371 44.5307 24.1112 44.3567C24.2852 44.1826 24.5213 44.0848 24.7675 44.0848C25.0136 44.0848 25.2497 44.1826 25.4237 44.3567L30.1664 49.0993C30.3298 49.2472 30.5438 49.3265 30.7641 49.3209C30.9843 49.3153 31.194 49.2253 31.3497 49.0693C31.5054 48.9134 31.5952 48.7036 31.6005 48.4833C31.6057 48.263 31.5261 48.0491 31.378 47.886L29.232 45.74C29.058 45.5655 28.9605 45.3291 28.9608 45.0827C28.9611 44.8364 29.0593 44.6002 29.2338 44.4263C29.4082 44.2523 29.6446 44.1547 29.891 44.1551C30.1373 44.1554 30.3735 44.2536 30.5475 44.428L32.6935 46.574C33.0732 46.9535 33.3318 47.437 33.4366 47.9635C33.5414 48.49 33.4877 49.0358 33.2822 49.5317C33.0767 50.0277 32.7288 50.4515 32.2823 50.7496C31.8359 51.0477 31.3111 51.2067 30.7742 51.2065L30.7731 51.2059Z" fill="url(#paint2_linear_159_371)"/>
<path d="M27.6417 53.128C27.2853 53.1289 26.9322 53.0591 26.6029 52.9227C26.2736 52.7863 25.9745 52.586 25.7231 52.3334L14.4612 41.0721C14.2872 40.8982 14.1893 40.6622 14.1892 40.4161V27.6295C14.1892 27.4351 14.2501 27.2456 14.3636 27.0877C14.477 26.9298 14.6372 26.8116 14.8214 26.7496C18.6877 25.4475 22.5893 25.0026 26.4179 25.4266C26.5394 25.4395 26.6571 25.4762 26.7644 25.5346C26.8717 25.5931 26.9663 25.6721 27.043 25.7672C27.1196 25.8623 27.1767 25.9716 27.211 26.0889C27.2453 26.2061 27.2561 26.329 27.2429 26.4504C27.2296 26.5718 27.1924 26.6894 27.1336 26.7965C27.0748 26.9035 26.9954 26.9979 26.9 27.0742C26.8046 27.1505 26.6951 27.2072 26.5777 27.2411C26.4604 27.275 26.3375 27.2853 26.2161 27.2716C22.8666 26.8998 19.4486 27.2478 16.0481 28.304V40.0316L27.035 51.0209C27.1146 51.1013 27.2093 51.1653 27.3136 51.2091C27.4179 51.2528 27.5299 51.2755 27.6431 51.2759C27.7562 51.2762 27.8683 51.2541 27.9729 51.211C28.0775 51.1678 28.1726 51.1044 28.2526 51.0244C28.3326 50.9444 28.396 50.8494 28.4391 50.7448C28.4823 50.6402 28.5043 50.5281 28.504 50.4149C28.5036 50.3018 28.4809 50.1898 28.4372 50.0855C28.3934 49.9811 28.3295 49.8865 28.249 49.8069L26.103 47.6609C26.0147 47.5752 25.9444 47.4729 25.896 47.3598C25.8477 47.2466 25.8223 47.1251 25.8214 47.002C25.8205 46.879 25.844 46.7571 25.8906 46.6433C25.9373 46.5294 26.0061 46.426 26.093 46.339C26.18 46.252 26.2834 46.1832 26.3972 46.1365C26.511 46.0898 26.6329 46.0662 26.756 46.0671C26.879 46.068 27.0006 46.0933 27.1137 46.1416C27.2268 46.1899 27.3292 46.2602 27.4149 46.3484L29.561 48.4944C29.9405 48.874 30.199 49.3576 30.3037 49.8841C30.4084 50.4106 30.3546 50.9564 30.1492 51.4523C29.9438 51.9483 29.5959 52.3722 29.1496 52.6704C28.7033 52.9687 28.1785 53.1279 27.6417 53.128Z" fill="url(#paint3_linear_159_371)"/>
<path d="M38.2422 43.9385C38.0768 43.9383 37.9145 43.8939 37.772 43.8099C37.6295 43.726 37.512 43.6054 37.4318 43.4608C37.3515 43.3162 37.3114 43.1528 37.3155 42.9874C37.3196 42.8221 37.3678 42.6608 37.4552 42.5204C37.7752 42.024 38.1375 41.5561 38.538 41.122C39.495 40.0919 40.4393 39.5699 41.3452 39.5699H42.8828C43.1289 39.5699 43.365 39.6677 43.539 39.8417C43.713 40.0158 43.8108 40.2518 43.8108 40.4979C43.8108 40.744 43.713 40.9801 43.539 41.1541C43.365 41.3281 43.1289 41.4259 42.8828 41.4259H41.3452C40.6834 41.4259 39.5756 42.6312 39.0299 43.5017C38.9464 43.6354 38.8304 43.7457 38.6926 43.8221C38.5548 43.8985 38.3998 43.9385 38.2422 43.9385Z" fill="url(#paint4_linear_159_371)"/>
<path d="M42.8828 41.4271C42.6367 41.4271 42.4007 41.3293 42.2266 41.1553C42.0526 40.9812 41.9548 40.7452 41.9548 40.4991V27.7124C41.9548 27.4663 42.0526 27.2302 42.2266 27.0562C42.4007 26.8822 42.6367 26.7844 42.8828 26.7844C43.129 26.7844 43.365 26.8822 43.539 27.0562C43.7131 27.2302 43.8108 27.4663 43.8108 27.7124V40.4991C43.8108 40.7452 43.7131 40.9812 43.539 41.1553C43.365 41.3293 43.129 41.4271 42.8828 41.4271Z" fill="url(#paint5_linear_159_371)"/>
<path d="M51.8914 44.4234H42.8828C42.6367 44.4234 42.4007 44.3256 42.2266 44.1516C42.0526 43.9775 41.9548 43.7415 41.9548 43.4954V24.7155C41.9548 24.4694 42.0526 24.2334 42.2266 24.0593C42.4007 23.8853 42.6367 23.7875 42.8828 23.7875H51.8914C52.1375 23.7875 52.3736 23.8853 52.5476 24.0593C52.7216 24.2334 52.8194 24.4694 52.8194 24.7155V43.4954C52.8194 43.7415 52.7216 43.9775 52.5476 44.1516C52.3736 44.3256 52.1375 44.4234 51.8914 44.4234ZM43.8108 42.5674H50.9634V25.6435H43.8108V42.5674Z" fill="url(#paint6_linear_159_371)"/>
<path d="M47.3861 41.7101C46.8495 41.7102 46.325 41.5512 45.8788 41.2532C45.4326 40.9552 45.0848 40.5315 44.8795 40.0358C44.6741 39.5401 44.6203 38.9947 44.7249 38.4684C44.8296 37.9421 45.088 37.4587 45.4674 37.0793C45.8468 36.6999 46.3302 36.4416 46.8564 36.3369C47.3827 36.2323 47.9282 36.286 48.4239 36.4914C48.9196 36.6968 49.3432 37.0446 49.6413 37.4908C49.9393 37.9369 50.0983 38.4615 50.0982 38.998C50.0973 39.7171 49.8112 40.4063 49.3028 40.9148C48.7944 41.4232 48.1051 41.7092 47.3861 41.7101ZM47.3861 38.1414C47.2166 38.1413 47.051 38.1914 46.91 38.2855C46.769 38.3795 46.6592 38.5133 46.5942 38.6698C46.5293 38.8263 46.5123 38.9986 46.5452 39.1648C46.5782 39.331 46.6598 39.4837 46.7796 39.6036C46.8993 39.7235 47.052 39.8051 47.2182 39.8382C47.3844 39.8713 47.5566 39.8544 47.7132 39.7896C47.8698 39.7247 48.0036 39.6149 48.0978 39.474C48.1919 39.3332 48.2422 39.1675 48.2422 38.998C48.242 38.771 48.1518 38.5533 47.9913 38.3927C47.8308 38.2321 47.6131 38.1417 47.3861 38.1414Z" fill="url(#paint7_linear_159_371)"/>
<path d="M15.1172 44.3404H6.10866C5.86254 44.3404 5.6265 44.2427 5.45247 44.0686C5.27844 43.8946 5.18066 43.6585 5.18066 43.4124V24.6326C5.18066 24.3865 5.27844 24.1504 5.45247 23.9764C5.6265 23.8024 5.86254 23.7046 6.10866 23.7046H15.1172C15.3633 23.7046 15.5994 23.8024 15.7734 23.9764C15.9475 24.1504 16.0452 24.3865 16.0452 24.6326V43.4124C16.0452 43.6585 15.9475 43.8946 15.7734 44.0686C15.5994 44.2427 15.3633 44.3404 15.1172 44.3404ZM7.03666 42.4844H14.1892V25.5606H7.03666V42.4844Z" fill="url(#paint8_linear_159_371)"/>
<path d="M10.6141 41.5959C10.0776 41.596 9.55306 41.437 9.10689 41.139C8.66072 40.841 8.31294 40.4174 8.10754 39.9217C7.90213 39.426 7.84833 38.8806 7.95293 38.3543C8.05754 37.8281 8.31585 37.3447 8.6952 36.9653C9.07454 36.5858 9.55789 36.3274 10.0841 36.2227C10.6103 36.118 11.1558 36.1717 11.6515 36.377C12.1472 36.5823 12.5709 36.93 12.869 37.3761C13.1671 37.8222 13.3262 38.3467 13.3262 38.8832C13.3254 39.6023 13.0395 40.2917 12.531 40.8003C12.0226 41.3088 11.3332 41.5949 10.6141 41.5959ZM10.6141 38.0271C10.4446 38.027 10.2789 38.0772 10.138 38.1713C9.997 38.2653 9.88711 38.3991 9.8222 38.5557C9.75729 38.7122 9.74028 38.8845 9.77331 39.0508C9.80635 39.217 9.88795 39.3697 10.0078 39.4895C10.1276 39.6094 10.2803 39.691 10.4466 39.724C10.6128 39.757 10.7851 39.74 10.9416 39.6751C11.0982 39.6102 11.232 39.5003 11.3261 39.3594C11.4202 39.2184 11.4703 39.0527 11.4702 38.8832C11.4699 38.6562 11.3796 38.4387 11.2191 38.2782C11.0586 38.1177 10.8411 38.0274 10.6141 38.0271Z" fill="url(#paint9_linear_159_371)"/>
<path d="M29.0001 22.6026C24.1118 22.6026 20.1348 18.6255 20.1348 13.7373C20.1348 8.84906 24.1118 4.872 29.0001 4.872C33.8883 4.872 37.8654 8.84906 37.8654 13.7373C37.8654 18.6255 33.8883 22.6026 29.0001 22.6026ZM29.0001 6.728C27.6138 6.728 26.2586 7.13909 25.1059 7.90928C23.9532 8.67947 23.0548 9.77417 22.5243 11.055C21.9938 12.3357 21.855 13.7451 22.1254 15.1047C22.3959 16.4644 23.0635 17.7134 24.0437 18.6936C25.024 19.6739 26.2729 20.3415 27.6326 20.6119C28.9923 20.8824 30.4016 20.7436 31.6824 20.213C32.9632 19.6825 34.0579 18.7841 34.8281 17.6315C35.5983 16.4788 36.0094 15.1236 36.0094 13.7373C36.0071 11.879 35.2678 10.0975 33.9538 8.78352C32.6398 7.46952 30.8583 6.7303 29.0001 6.728Z" fill="url(#paint10_linear_159_371)"/>
<path d="M27.9264 17.1216C27.8045 17.1218 27.6838 17.0979 27.5712 17.0512C27.4586 17.0045 27.3564 16.936 27.2704 16.8496L24.505 14.0847C24.3309 13.9107 24.2332 13.6746 24.2332 13.4284C24.2332 13.1823 24.3309 12.9462 24.505 12.7722C24.679 12.5981 24.9151 12.5003 25.1613 12.5003C25.4074 12.5003 25.6435 12.5981 25.8175 12.7722L27.9264 14.8811L32.1825 10.625C32.2686 10.5388 32.3709 10.4705 32.4835 10.4238C32.5962 10.3772 32.7168 10.3532 32.8387 10.3532C32.9606 10.3532 33.0813 10.3772 33.1939 10.4238C33.3065 10.4705 33.4088 10.5388 33.495 10.625C33.5812 10.7112 33.6495 10.8135 33.6962 10.9261C33.7428 11.0387 33.7668 11.1594 33.7668 11.2813C33.7668 11.4032 33.7428 11.5239 33.6962 11.6365C33.6495 11.7491 33.5812 11.8514 33.495 11.9376L28.5824 16.8496C28.4084 17.0236 28.1725 17.1215 27.9264 17.1216Z" fill="url(#paint11_linear_159_371)"/>
<defs>
<linearGradient id="paint0_linear_159_371" x1="20.105" y1="33.2425" x2="43.8238" y2="33.3528" gradientUnits="userSpaceOnUse">
<stop stop-color="#214F89"/>
<stop offset="1" stop-color="#12BCAB"/>
</linearGradient>
<linearGradient id="paint1_linear_159_371" x1="26.8513" y1="44.6816" x2="36.506" y2="44.7403" gradientUnits="userSpaceOnUse">
<stop stop-color="#214F89"/>
<stop offset="1" stop-color="#12BCAB"/>
</linearGradient>
<linearGradient id="paint2_linear_159_371" x1="23.8394" y1="46.7215" x2="33.4939" y2="46.7802" gradientUnits="userSpaceOnUse">
<stop stop-color="#214F89"/>
<stop offset="1" stop-color="#12BCAB"/>
</linearGradient>
<linearGradient id="paint3_linear_159_371" x1="14.1892" y1="35.5846" x2="30.3649" y2="35.6268" gradientUnits="userSpaceOnUse">
<stop stop-color="#214F89"/>
<stop offset="1" stop-color="#12BCAB"/>
</linearGradient>
<linearGradient id="paint4_linear_159_371" x1="37.3152" y1="41.1873" x2="43.8142" y2="41.2307" gradientUnits="userSpaceOnUse">
<stop stop-color="#214F89"/>
<stop offset="1" stop-color="#12BCAB"/>
</linearGradient>
<linearGradient id="paint5_linear_159_371" x1="41.9548" y1="32.2055" x2="43.8119" y2="32.2066" gradientUnits="userSpaceOnUse">
<stop stop-color="#214F89"/>
<stop offset="1" stop-color="#12BCAB"/>
</linearGradient>
<linearGradient id="paint6_linear_159_371" x1="41.9548" y1="31.4275" x2="52.8255" y2="31.4532" gradientUnits="userSpaceOnUse">
<stop stop-color="#214F89"/>
<stop offset="1" stop-color="#12BCAB"/>
</linearGradient>
<linearGradient id="paint7_linear_159_371" x1="44.6729" y1="38.2934" x2="50.1011" y2="38.3178" gradientUnits="userSpaceOnUse">
<stop stop-color="#214F89"/>
<stop offset="1" stop-color="#12BCAB"/>
</linearGradient>
<linearGradient id="paint8_linear_159_371" x1="5.18066" y1="31.3446" x2="16.0513" y2="31.3703" gradientUnits="userSpaceOnUse">
<stop stop-color="#214F89"/>
<stop offset="1" stop-color="#12BCAB"/>
</linearGradient>
<linearGradient id="paint9_linear_159_371" x1="7.90088" y1="38.1792" x2="13.3292" y2="38.2035" gradientUnits="userSpaceOnUse">
<stop stop-color="#214F89"/>
<stop offset="1" stop-color="#12BCAB"/>
</linearGradient>
<linearGradient id="paint10_linear_159_371" x1="20.1348" y1="11.4364" x2="37.875" y2="11.516" gradientUnits="userSpaceOnUse">
<stop stop-color="#214F89"/>
<stop offset="1" stop-color="#12BCAB"/>
</linearGradient>
<linearGradient id="paint11_linear_159_371" x1="24.2332" y1="12.859" x2="33.7718" y2="12.9193" gradientUnits="userSpaceOnUse">
<stop stop-color="#214F89"/>
<stop offset="1" stop-color="#12BCAB"/>
</linearGradient>
</defs>
</svg>
