<svg width="50" height="43" viewBox="0 0 50 43" fill="none" xmlns="http://www.w3.org/2000/svg">
<path d="M5.57072 31.2452L0.233814 36.6703C0.123164 36.7828 0.0473743 36.9268 0.016098 37.084C-0.0151784 37.2412 -0.000525289 37.4045 0.0581906 37.5531C0.116907 37.7016 0.217028 37.8287 0.3458 37.9182C0.474572 38.0077 0.626167 38.0555 0.781274 38.0555H15.6584C16.726 39.5861 18.1296 40.8325 19.7537 41.6921C21.3777 42.5517 23.1759 43 25 43C26.8242 43 28.6224 42.5517 30.2464 41.6921C31.8705 40.8325 33.2741 39.5861 34.3417 38.0555H49.2187C49.3738 38.0555 49.5254 38.0077 49.6542 37.9182C49.783 37.8287 49.8831 37.7016 49.9418 37.5531C50.0005 37.4045 50.0152 37.2412 49.9839 37.084C49.9526 36.9268 49.8768 36.7828 49.7662 36.6703L44.4293 31.2452L49.7837 25.4437C49.8894 25.3292 49.9602 25.1852 49.9875 25.0294C50.0148 24.8736 49.9972 24.7129 49.9371 24.5674C49.8769 24.4218 49.7768 24.2977 49.6491 24.2105C49.5214 24.1233 49.3717 24.0768 49.2187 24.0768H48.4259C48.5986 22.5082 48.2416 20.9261 47.4153 19.5988C47.3176 19.4428 47.1709 19.3263 46.9999 19.2691C45.5644 18.7711 44.1933 18.0929 42.9173 17.2496C42.8283 17.1921 42.7291 17.1537 42.6255 17.1367C42.5218 17.1197 42.416 17.1245 42.3142 17.1507C42.2124 17.177 42.1168 17.2242 42.033 17.2895C41.9492 17.3548 41.879 17.437 41.8265 17.531L40.4457 20.0057L39.0647 17.531C39.0123 17.437 38.9421 17.3548 38.8583 17.2895C38.7745 17.2242 38.6789 17.177 38.5771 17.1507C38.4753 17.1245 38.3694 17.1197 38.2658 17.1367C38.1622 17.1537 38.063 17.1921 37.974 17.2496C36.9848 17.8965 35.9418 18.4507 34.8574 18.9056C34.6416 17.6712 34.3082 16.5497 33.8401 15.8022C33.7424 15.6462 33.5958 15.5298 33.4248 15.4726C31.6948 14.8942 29.897 14.0051 28.0811 12.83C27.9921 12.7725 27.8929 12.7341 27.7893 12.7171C27.6856 12.7001 27.5798 12.7048 27.478 12.7311C27.3762 12.7573 27.2806 12.8045 27.1968 12.8698C27.113 12.9351 27.0428 13.0173 26.9903 13.1113L25 16.6785L23.0097 13.1113C22.9572 13.0173 22.887 12.9351 22.8032 12.8698C22.7194 12.8045 22.6238 12.7573 22.522 12.7311C22.4202 12.7048 22.3144 12.7001 22.2107 12.7171C22.1071 12.7341 22.0079 12.7725 21.919 12.83C20.103 14.0051 18.3057 14.8942 16.5752 15.4726C16.4043 15.5298 16.2576 15.6462 16.1599 15.8022C15.6954 16.5439 15.3634 17.6688 15.1476 18.9079C14.0614 18.4525 13.0167 17.8975 12.026 17.2496C11.937 17.1921 11.8378 17.1537 11.7342 17.1367C11.6306 17.1197 11.5247 17.1245 11.4229 17.1507C11.3211 17.177 11.2255 17.2242 11.1417 17.2895C11.0579 17.3548 10.9877 17.437 10.9353 17.531L9.55441 20.0057L8.17385 17.531C8.1214 17.437 8.05119 17.3548 7.96741 17.2895C7.88363 17.2242 7.78799 17.177 7.6862 17.1507C7.5844 17.1245 7.47855 17.1197 7.37493 17.1367C7.27132 17.1537 7.17208 17.1921 7.08312 17.2496C5.8071 18.0929 4.436 18.7711 3.00051 19.2691C2.8295 19.3263 2.68278 19.4428 2.58508 19.5988C1.75163 20.9229 1.39362 22.5077 1.57346 24.0768H0.781274C0.628277 24.0768 0.478646 24.1233 0.350948 24.2105C0.223249 24.2977 0.123105 24.4218 0.0629405 24.5674C0.0027762 24.7129 -0.0147596 24.8736 0.0125091 25.0294C0.0397778 25.1852 0.110651 25.3292 0.216333 25.4437L5.57072 31.2452ZM2.69143 36.4386L7.21525 31.84C7.36172 31.6911 7.44567 31.4886 7.44894 31.2762C7.45221 31.0637 7.37454 30.8585 7.23273 30.7049L2.60744 25.6937H14.7042C13.8911 27.3596 13.4675 29.1998 13.4675 31.0662C13.4675 32.9325 13.8911 34.7727 14.7042 36.4386H2.69143ZM25 41.3832C23.0281 41.3832 21.1005 40.7781 19.4609 39.6444C17.8213 38.5108 16.5434 36.8995 15.7888 35.0143C15.0342 33.1291 14.8368 31.0547 15.2215 29.0534C15.6062 27.0521 16.5557 25.2138 17.9501 23.7709C19.3444 22.3281 21.1209 21.3455 23.0549 20.9474C24.9889 20.5493 26.9936 20.7536 28.8154 21.5345C30.6372 22.3153 32.1943 23.6377 33.2898 25.3343C34.3854 27.0309 34.9701 29.0256 34.9701 31.0662C34.9671 33.8015 33.9158 36.4238 32.0466 38.358C30.1775 40.2921 27.6433 41.3801 25 41.3832ZM42.7674 30.7049C42.6255 30.8585 42.5479 31.0637 42.5511 31.2761C42.5544 31.4886 42.6383 31.6911 42.7848 31.84L47.3086 36.4386H35.2959C36.109 34.7727 36.5326 32.9325 36.5326 31.0662C36.5326 29.1998 36.109 27.3596 35.2959 25.6937H47.3926L42.7674 30.7049ZM38.1092 19.0525L39.7687 22.0267C39.8373 22.1495 39.9359 22.2516 40.0547 22.3225C40.1735 22.3935 40.3082 22.4308 40.4453 22.4308C40.5824 22.4308 40.7171 22.3935 40.8359 22.3225C40.9547 22.2516 41.0533 22.1495 41.1219 22.0267L42.7813 19.0525C43.8803 19.7202 45.0393 20.2759 46.2421 20.7117C46.8047 21.7308 47.0187 22.9164 46.8496 24.0768H35.1157C35.198 22.9036 35.1839 21.7252 35.0733 20.5544C36.1242 20.1424 37.1398 19.64 38.1096 19.0525H38.1092ZM17.3412 16.9133C18.984 16.323 20.5639 15.5598 22.0561 14.6357L24.3234 18.6996C24.392 18.8224 24.4906 18.9245 24.6094 18.9954C24.7282 19.0664 24.8629 19.1037 25 19.1037C25.1371 19.1037 25.2718 19.0664 25.3906 18.9954C25.5094 18.9245 25.608 18.8224 25.6766 18.6996L27.9439 14.6357C29.436 15.5597 31.0158 16.3229 32.6585 16.9131C33.3162 18.2197 33.6584 20.9714 33.6028 23.1279C32.5224 21.8714 31.1971 20.8657 29.7142 20.1771C28.2313 19.4886 26.6242 19.1327 24.9988 19.1329C23.3734 19.1331 21.7665 19.4894 20.2837 20.1783C18.8009 20.8673 17.4759 21.8733 16.3958 23.1302C16.3359 20.9644 16.6779 18.2258 17.3412 16.9133ZM3.75764 20.7117C4.96037 20.2757 6.11936 19.7199 7.21828 19.0521L8.87785 22.0263C8.94642 22.1491 9.04504 22.2512 9.1638 22.3221C9.28256 22.3931 9.41728 22.4304 9.55441 22.4304C9.69154 22.4304 9.82626 22.3931 9.94502 22.3221C10.0638 22.2512 10.1624 22.1491 10.231 22.0263L11.8904 19.0521C12.8617 19.6405 13.879 20.1435 14.9317 20.5556C14.8199 21.7259 14.804 22.9038 14.884 24.0768H3.14924C2.9744 22.9162 3.18912 21.7285 3.75764 20.7117ZM25.04 12.6538C25.0678 12.6545 25.0956 12.6548 25.1233 12.6548C26.3831 12.6548 27.5483 11.9777 28.4128 10.741C29.3416 9.41238 29.8902 7.53187 30.0436 5.15184C30.0453 5.12557 30.0458 5.09926 30.0449 5.07292C30.009 3.7141 29.4618 2.42349 28.52 1.47595C27.5781 0.528417 26.316 -0.0011646 25.0023 1.92307e-06H24.9979C23.6842 -0.0011646 22.4221 0.528417 21.4802 1.47595C20.5384 2.42349 19.9912 3.7141 19.9553 5.07292V5.11496C19.9984 7.24811 20.5339 9.11063 21.5035 10.5011C22.4355 11.8383 23.7245 12.6228 25.04 12.6538ZM25 1.61677C25.9012 1.6166 26.7674 1.97782 27.4166 2.62457C28.0659 3.27132 28.4476 4.15327 28.4817 5.08515C28.1888 9.48383 26.4993 11.0379 25.1189 11.0379C25.1045 11.0379 25.0896 11.0379 25.0757 11.0379C23.3887 10.9976 21.5985 8.76715 21.5176 5.10283C21.5474 4.16772 21.9274 3.28124 22.5772 2.63072C23.227 1.9802 24.0958 1.6166 25 1.61677ZM32.2392 29.3071C32.1956 29.1682 32.1164 29.0441 32.0101 28.9481C31.9039 28.852 31.7744 28.7875 31.6355 28.7614L27.621 28.0079L25.688 24.2897C25.6211 24.1611 25.5219 24.0536 25.4007 23.9787C25.2796 23.9038 25.1411 23.8643 25 23.8643C24.8589 23.8643 24.7204 23.9038 24.5993 23.9787C24.4781 24.0536 24.3789 24.1611 24.312 24.2897L22.379 28.0079L18.3645 28.7612C18.2256 28.7873 18.0962 28.8518 17.9899 28.9478C17.8837 29.0439 17.8045 29.168 17.7609 29.3068C17.7173 29.4457 17.7109 29.5942 17.7423 29.7365C17.7737 29.8789 17.8418 30.0098 17.9393 30.1153L20.7592 33.1667L20.2109 37.3503C20.192 37.495 20.2113 37.6423 20.2667 37.7766C20.3222 37.9109 20.4117 38.0271 20.5259 38.113C20.6401 38.1988 20.7746 38.251 20.9152 38.2641C21.0557 38.2772 21.1971 38.2506 21.3242 38.1872L25 36.3549L28.6759 38.1873C28.803 38.2507 28.9444 38.2773 29.0849 38.2642C29.2255 38.2511 29.36 38.1989 29.4742 38.1131C29.5884 38.0273 29.6779 37.911 29.7334 37.7767C29.7888 37.6424 29.8081 37.4951 29.7892 37.3504L29.2409 33.1668L32.0605 30.1157C32.1581 30.0102 32.2263 29.8793 32.2577 29.7369C32.2892 29.5946 32.2827 29.446 32.2392 29.3071ZM27.8516 32.3309C27.7704 32.4188 27.7094 32.5244 27.6731 32.6399C27.6369 32.7555 27.6262 32.878 27.642 32.9984L28.0457 36.0789L25.3392 34.7297C25.2334 34.677 25.1175 34.6496 25.0001 34.6496C24.8827 34.6496 24.7668 34.677 24.661 34.7297L21.9545 36.0789L22.3582 32.9984C22.374 32.878 22.3633 32.7555 22.3271 32.6399C22.2908 32.5244 22.2298 32.4188 22.1486 32.3309L20.0723 30.0843L23.0283 29.5296C23.1438 29.5079 23.2531 29.4596 23.3481 29.3882C23.4431 29.3168 23.5213 29.2241 23.5769 29.1171L25 26.3795L26.4232 29.1171C26.4788 29.2241 26.557 29.3168 26.652 29.3882C26.747 29.4596 26.8563 29.5079 26.9718 29.5296L29.9278 30.0843L27.8516 32.3309ZM40.4724 16.7974C40.4936 16.7974 40.5147 16.7982 40.536 16.7982C42.2092 16.7982 44.2308 15.2441 44.5146 10.8375C44.5164 10.8113 44.5168 10.785 44.516 10.7587C44.4871 9.66249 44.0457 8.62124 43.2859 7.85679C42.5261 7.09233 41.5078 6.66507 40.448 6.66604H40.4434C39.3836 6.66505 38.3654 7.09229 37.6055 7.85674C36.8456 8.6212 36.4042 9.66246 36.3753 10.7587V10.8008C36.4094 12.4839 36.8343 13.9569 37.6035 15.0602C38.3555 16.1389 39.4013 16.7722 40.4724 16.7974ZM40.4457 8.2829C41.0931 8.28299 41.7154 8.54195 42.1826 9.00568C42.6499 9.46941 42.9258 10.102 42.9529 10.7714C42.7448 13.8521 41.5808 15.2061 40.5081 15.181C39.291 15.1523 37.9993 13.502 37.9377 10.7887C37.9605 10.1162 38.2348 9.4791 38.7026 9.01166C39.1704 8.54423 39.7954 8.28296 40.4457 8.2829ZM9.58117 16.7974C9.60236 16.7974 9.62345 16.7982 9.64484 16.7982C11.3179 16.7982 13.3397 15.2441 13.6234 10.8375C13.6251 10.8113 13.6254 10.785 13.6247 10.7587C13.5958 9.66247 13.1544 8.62121 12.3946 7.85675C11.6347 7.09229 10.6164 6.66505 9.55666 6.66604H9.55207C8.49228 6.66505 7.474 7.09229 6.71414 7.85675C5.95428 8.62121 5.51289 9.66247 5.484 10.7587V10.8008C5.51809 12.4839 5.94299 13.9569 6.71213 15.0603C7.46418 16.1389 8.50998 16.7722 9.58117 16.7974ZM9.55441 8.2829C10.2018 8.28299 10.8241 8.54195 11.2913 9.00568C11.7586 9.46941 12.0346 10.102 12.0616 10.7714C11.8555 13.824 10.7073 15.1814 9.64611 15.1814C9.63634 15.1814 9.62658 15.1814 9.61681 15.1814C8.39963 15.1527 7.10803 13.5024 7.04631 10.7891C7.06906 10.1165 7.34326 9.4793 7.81113 9.01177C8.27901 8.54425 8.904 8.28293 9.55441 8.2829Z" fill="url(#paint0_linear_157_341)"/>
<defs>
<linearGradient id="paint0_linear_157_341" x1="-7.77718e-09" y1="15.9198" x2="50.0269" y2="16.1809" gradientUnits="userSpaceOnUse">
<stop stop-color="#214F89"/>
<stop offset="1" stop-color="#12BCAB"/>
</linearGradient>
</defs>
</svg>
