<svg width="64" height="64" viewBox="0 0 64 64" fill="none" xmlns="http://www.w3.org/2000/svg">
<path d="M56.225 40.25C55.0661 38.2393 53.2114 36.7224 51.0108 35.9855C48.8102 35.2486 46.4159 35.3427 44.28 36.25L35.055 20.295C35.8528 19.5494 36.3483 18.5362 36.4468 17.4486C36.5454 16.361 36.2401 15.2752 35.5893 14.3983C34.9385 13.5214 33.9877 12.9148 32.9182 12.6941C31.8487 12.4735 30.7354 12.6542 29.7906 13.2019C28.8459 13.7496 28.1358 14.6259 27.7958 15.6636C27.4559 16.7014 27.5098 17.8279 27.9474 18.8285C28.3849 19.829 29.1755 20.6334 30.1682 21.0884C31.161 21.5433 32.2864 21.6168 33.33 21.295L42.755 37.625C42.752 37.8004 42.797 37.9733 42.885 38.125C42.9499 38.2394 43.0367 38.3398 43.1405 38.4205C43.2442 38.5013 43.3629 38.5608 43.4897 38.5956C43.6165 38.6304 43.7489 38.6399 43.8793 38.6235C44.0098 38.6071 44.1357 38.5651 44.25 38.5L44.315 38.465H44.38H44.41C45.706 37.7538 47.1834 37.4414 48.6564 37.5673C50.1295 37.6931 51.5324 38.2515 52.6891 39.1722C53.8458 40.0929 54.7045 41.335 55.1575 42.7423C55.6104 44.1496 55.6373 45.6594 55.2348 47.0819C54.8323 48.5045 54.0184 49.7763 52.8953 50.7377C51.7721 51.6991 50.3899 52.3071 48.9223 52.4853C47.4547 52.6636 45.9672 52.4041 44.6466 51.7395C43.326 51.0749 42.2313 50.0349 41.5 48.75C41.3616 48.5323 41.1445 48.3766 40.894 48.3152C40.6434 48.2538 40.3789 48.2916 40.1556 48.4207C39.9323 48.5498 39.7675 48.7602 39.6956 49.0079C39.6238 49.2556 39.6504 49.5215 39.77 49.75C40.3797 50.8569 41.2042 51.831 42.195 52.6153C43.1859 53.3996 44.3233 53.9783 45.5407 54.3176C46.758 54.6568 48.0308 54.7498 49.2845 54.591C50.5382 54.4323 51.7476 54.025 52.842 53.393C53.9363 52.761 54.8936 51.917 55.6577 50.9105C56.4218 49.9039 56.9774 48.7551 57.292 47.5311C57.6065 46.3072 57.6737 45.0328 57.4897 43.7825C57.3056 42.5323 56.8739 41.3313 56.22 40.25H56.225ZM29.5 17C29.5 16.5056 29.6466 16.0222 29.9213 15.6111C30.196 15.2 30.5864 14.8795 31.0433 14.6903C31.5001 14.5011 32.0027 14.4516 32.4877 14.548C32.9726 14.6445 33.4181 14.8826 33.7677 15.2322C34.1174 15.5819 34.3555 16.0273 34.4519 16.5123C34.5484 16.9972 34.4989 17.4999 34.3097 17.9567C34.1204 18.4135 33.8 18.804 33.3889 19.0787C32.9778 19.3534 32.4944 19.5 32 19.5C31.3369 19.5 30.701 19.2366 30.2322 18.7678C29.7634 18.2989 29.5 17.663 29.5 17Z" fill="url(#paint0_linear_157_305)"/>
<path d="M26.41 24.68L17.185 40.68C16.8 40.5666 16.4013 40.506 16 40.5C14.9452 40.4966 13.9227 40.8639 13.1112 41.5377C12.2996 42.2114 11.7505 43.1489 11.5598 44.1863C11.3691 45.2237 11.5488 46.2951 12.0677 47.2135C12.5865 48.1319 13.4115 48.8388 14.3985 49.2108C15.3855 49.5828 16.4719 49.5963 17.4678 49.2489C18.4637 48.9014 19.306 48.2152 19.8475 47.31C20.3889 46.4048 20.5952 45.3381 20.4302 44.2963C20.2653 43.2545 19.7396 42.3037 18.945 41.61L28.615 24.86C28.7458 24.631 28.7808 24.3596 28.7125 24.1049C28.6441 23.8501 28.4779 23.6328 28.25 23.5C26.9659 22.7582 25.9305 21.6523 25.2747 20.3222C24.6189 18.9921 24.3721 17.4974 24.5657 16.0271C24.7592 14.5567 25.3842 13.1768 26.3618 12.0616C27.3394 10.9465 28.6257 10.1462 30.0581 9.76187C31.4904 9.37758 33.0045 9.42656 34.4091 9.90261C35.8136 10.3787 37.0455 11.2604 37.9489 12.4364C38.8524 13.6124 39.387 15.0299 39.4851 16.5097C39.5832 17.9894 39.2404 19.465 38.5 20.75C38.4277 20.8638 38.3791 20.9911 38.3572 21.1242C38.3353 21.2573 38.3405 21.3934 38.3726 21.5244C38.4047 21.6554 38.463 21.7785 38.5439 21.8864C38.6248 21.9943 38.7267 22.0848 38.8435 22.1522C38.9602 22.2197 39.0895 22.2629 39.2233 22.2792C39.3572 22.2954 39.493 22.2845 39.6225 22.2469C39.7521 22.2093 39.8727 22.1459 39.9771 22.0605C40.0814 21.9751 40.1675 21.8695 40.23 21.75C41.1486 20.1598 41.5866 18.3375 41.4911 16.5036C41.3955 14.6697 40.7705 12.9027 39.6915 11.4167C38.6126 9.93061 37.1262 8.7891 35.412 8.1303C33.6978 7.4715 31.8294 7.32366 30.0329 7.70467C28.2365 8.08568 26.589 8.9792 25.2898 10.2771C23.9906 11.575 23.0954 13.2216 22.7126 15.0177C22.3298 16.8138 22.4758 18.6823 23.1329 20.3972C23.79 22.112 24.93 23.5996 26.415 24.68H26.41ZM16 47.5C15.5056 47.5 15.0222 47.3534 14.6111 47.0787C14.2 46.804 13.8795 46.4135 13.6903 45.9567C13.5011 45.4999 13.4516 44.9972 13.548 44.5123C13.6445 44.0273 13.8826 43.5819 14.2322 43.2322C14.5819 42.8826 15.0273 42.6445 15.5123 42.548C15.9972 42.4516 16.4999 42.5011 16.9567 42.6903C17.4135 42.8795 17.804 43.2 18.0787 43.6111C18.3534 44.0222 18.5 44.5055 18.5 45C18.5 45.663 18.2366 46.2989 17.7678 46.7678C17.2989 47.2366 16.663 47.5 16 47.5Z" fill="url(#paint1_linear_157_305)"/>
<path d="M43.615 46C43.8609 47.0787 44.4955 48.029 45.3976 48.6694C46.2998 49.3098 47.4063 49.5955 48.5057 49.4718C49.6051 49.3481 50.6204 48.8237 51.3577 47.9988C52.095 47.1739 52.5025 46.1064 52.5025 45C52.5025 43.8936 52.095 42.8261 51.3577 42.0012C50.6204 41.1763 49.6051 40.6519 48.5057 40.5282C47.4063 40.4045 46.2998 40.6902 45.3976 41.3306C44.4955 41.971 43.8609 42.9213 43.615 44H24.47C24.2048 44 23.9505 44.1054 23.7629 44.2929C23.5754 44.4804 23.47 44.7348 23.47 45C23.4651 45.0649 23.4651 45.1301 23.47 45.195C23.4316 46.6707 22.9586 48.1023 22.1102 49.3104C21.2618 50.5184 20.0757 51.4493 18.7006 51.9862C17.3255 52.5232 15.8225 52.6424 14.3799 52.3289C12.9374 52.0154 11.6194 51.2832 10.5912 50.224C9.56293 49.1648 8.87013 47.8257 8.59959 46.3744C8.32905 44.9232 8.4928 43.4244 9.07031 42.0659C9.64783 40.7073 10.6134 39.5494 11.8461 38.7372C13.0788 37.925 14.5238 37.4946 16 37.5C16.2652 37.5 16.5196 37.3946 16.7071 37.2071C16.8947 37.0196 17 36.7652 17 36.5C17 36.2348 16.8947 35.9804 16.7071 35.7929C16.5196 35.6054 16.2652 35.5 16 35.5C14.1637 35.4996 12.3665 36.0314 10.8261 37.0311C9.28569 38.0308 8.06804 39.4555 7.32052 41.1329C6.57299 42.8102 6.32764 44.6683 6.61414 46.4822C6.90065 48.296 7.70673 49.988 8.93484 51.3533C10.163 52.7186 11.7604 53.6987 13.534 54.1749C15.3075 54.6512 17.1811 54.6032 18.9279 54.0368C20.6748 53.4704 22.22 52.4099 23.3767 50.9835C24.5333 49.5572 25.2517 47.8262 25.445 46H43.615ZM48 42.5C48.4945 42.5 48.9778 42.6466 49.389 42.9213C49.8001 43.196 50.1205 43.5865 50.3097 44.0433C50.499 44.5001 50.5485 45.0028 50.452 45.4877C50.3555 45.9727 50.1174 46.4181 49.7678 46.7678C49.4182 47.1174 48.9727 47.3555 48.4878 47.452C48.0028 47.5484 47.5001 47.4989 47.0433 47.3097C46.5865 47.1205 46.1961 46.8001 45.9214 46.3889C45.6467 45.9778 45.5 45.4945 45.5 45C45.5 44.337 45.7634 43.7011 46.2323 43.2322C46.7011 42.7634 47.337 42.5 48 42.5Z" fill="url(#paint2_linear_157_305)"/>
<defs>
<linearGradient id="paint0_linear_157_305" x1="27.575" y1="28.1757" x2="57.6077" y2="28.2719" gradientUnits="userSpaceOnUse">
<stop stop-color="#214F89"/>
<stop offset="1" stop-color="#12BCAB"/>
</linearGradient>
<linearGradient id="paint1_linear_157_305" x1="11.4856" y1="23.0483" x2="41.5206" y2="23.1447" gradientUnits="userSpaceOnUse">
<stop stop-color="#214F89"/>
<stop offset="1" stop-color="#12BCAB"/>
</linearGradient>
<linearGradient id="paint2_linear_157_305" x1="6.4978" y1="42.5343" x2="52.5231" y2="43.0345" gradientUnits="userSpaceOnUse">
<stop stop-color="#214F89"/>
<stop offset="1" stop-color="#12BCAB"/>
</linearGradient>
</defs>
</svg>
