<svg width="64" height="64" viewBox="0 0 64 64" fill="none" xmlns="http://www.w3.org/2000/svg">
<g clip-path="url(#clip0_1084_385)">
<path d="M54.3196 45.0492L53.8062 44.4719C53.2542 43.8517 52.6592 43.2796 52.0323 42.7506V11.2258C52.0323 9.99865 51.0336 9 49.8065 9H11.2258C9.99865 9 9 9.99865 9 11.2258V45.3548C9 46.582 9.99865 47.5806 11.2258 47.5806H26.9215C27.032 47.9642 27.2167 48.3248 27.4868 48.6283L28.0002 49.2055C31.2736 52.8877 35.976 55 40.9032 55C45.8304 55 50.5328 52.8877 53.8062 49.2055L54.3189 48.6283C54.7581 48.1349 55 47.4998 55 46.8387C55 46.1776 54.7581 45.5425 54.3196 45.0492ZM11.2258 10.4839H49.8065C50.2153 10.4839 50.5484 10.817 50.5484 11.2258V17.9032H10.4839V11.2258C10.4839 10.817 10.817 10.4839 11.2258 10.4839ZM10.4839 45.3548V19.3871H50.5484V41.6296C47.7238 39.7273 44.3703 38.6774 40.9032 38.6774C38.5854 38.6774 36.3188 39.15 34.2258 40.0292V32.7419H29.7742V42.7506C29.2541 43.1891 28.7592 43.6603 28.2903 44.1625V35.7097H23.8387V44.6129H27.8748L27.4875 45.0492C27.2175 45.3526 27.0327 45.7132 26.9222 46.0968H11.2258C10.817 46.0968 10.4839 45.7636 10.4839 45.3548ZM43.871 51.2903C43.4622 51.2903 43.129 50.9572 43.129 50.5484C43.129 50.1396 43.4622 49.8065 43.871 49.8065C44.2798 49.8065 44.6129 50.1396 44.6129 50.5484C44.6129 50.9572 44.2798 51.2903 43.871 51.2903ZM40.9032 49.0645C39.6761 49.0645 38.6774 48.0659 38.6774 46.8387C38.6774 45.6115 39.6761 44.6129 40.9032 44.6129C42.1304 44.6129 43.129 45.6115 43.129 46.8387C43.129 48.0659 42.1304 49.0645 40.9032 49.0645ZM37.9355 43.871C37.5267 43.871 37.1935 43.5378 37.1935 43.129C37.1935 42.7202 37.5267 42.3871 37.9355 42.3871C38.3443 42.3871 38.6774 42.7202 38.6774 43.129C38.6774 43.5378 38.3443 43.871 37.9355 43.871ZM35.821 43.7886C36.0643 44.5669 36.7157 45.1627 37.5304 45.314C37.3182 45.78 37.1935 46.2941 37.1935 46.8387C37.1935 48.8842 38.8577 50.5484 40.9032 50.5484C41.1599 50.5484 41.4107 50.5217 41.6526 50.472C41.6518 50.4979 41.6452 50.5224 41.6452 50.5484C41.6452 51.3727 42.1 52.0849 42.7677 52.47C42.1801 52.6644 41.5546 52.7742 40.9032 52.7742C37.6305 52.7742 34.9677 50.1114 34.9677 46.8387C34.9677 45.7228 35.2831 44.6812 35.821 43.7886ZM45.9855 49.8888C45.7421 49.1105 45.0907 48.5147 44.2761 48.3634C44.4883 47.8975 44.6129 47.3833 44.6129 46.8387C44.6129 44.7932 42.9487 43.129 40.9032 43.129C40.6465 43.129 40.3957 43.1557 40.1539 43.2055C40.1546 43.1795 40.1613 43.155 40.1613 43.129C40.1613 42.3047 39.7065 41.5925 39.0387 41.2074C39.6264 41.013 40.2518 40.9032 40.9032 40.9032C44.1759 40.9032 46.8387 43.566 46.8387 46.8387C46.8387 47.9546 46.5234 48.9955 45.9855 49.8888ZM32.7419 40.7355C32.2337 41.0086 31.7381 41.3061 31.2581 41.6296V34.2258H32.7419V40.7355ZM26.8065 37.1935V43.129H25.3226V37.1935H26.8065ZM29.1094 48.2195L28.596 47.6422C28.3986 47.4211 28.2903 47.1355 28.2903 46.8387C28.2903 46.5419 28.3986 46.2563 28.596 46.0352L29.1094 45.458C31.1468 43.1654 33.7918 41.5405 36.6935 40.7363C34.757 42.0762 33.4839 44.3102 33.4839 46.8387C33.4839 49.3672 34.757 51.6012 36.6935 52.9411C33.7918 52.1369 31.1468 50.512 29.1094 48.2195ZM53.2105 47.6422L52.697 48.2195C50.6597 50.512 48.0147 52.1369 45.113 52.9411C47.0494 51.6012 48.3226 49.3672 48.3226 46.8387C48.3226 44.3102 47.0494 42.0762 45.113 40.7363C48.0147 41.5405 50.6597 43.1654 52.697 45.458L53.2105 46.0352C53.4078 46.2563 53.5161 46.5419 53.5161 46.8387C53.5161 47.1355 53.4078 47.4211 53.2105 47.6422Z" fill="url(#paint0_linear_1084_385)"/>
<path d="M16.4194 11.9677H11.9678V16.4194H16.4194V11.9677ZM14.9355 14.9355H13.4516V13.4516H14.9355V14.9355Z" fill="url(#paint1_linear_1084_385)"/>
<path d="M22.3549 11.9677H17.9033V16.4194H22.3549V11.9677ZM20.8711 14.9355H19.3872V13.4516H20.8711V14.9355Z" fill="url(#paint2_linear_1084_385)"/>
<path d="M28.2905 11.9677H23.8389V16.4194H28.2905V11.9677ZM26.8066 14.9355H25.3227V13.4516H26.8066V14.9355Z" fill="url(#paint3_linear_1084_385)"/>
<path d="M17.1613 20.871C14.2975 20.871 11.9678 23.2006 11.9678 26.0645C11.9678 28.9284 14.2975 31.2581 17.1613 31.2581C20.0252 31.2581 22.3549 28.9284 22.3549 26.0645C22.3549 23.2006 20.0252 20.871 17.1613 20.871ZM20.7961 25.3226H17.9033V22.4298C19.3545 22.7258 20.5 23.8714 20.7961 25.3226ZM16.4194 22.4298V25.7574L14.0697 28.1071C13.6809 27.5202 13.4516 26.8191 13.4516 26.0645C13.4516 24.2735 14.7285 22.7748 16.4194 22.4298ZM17.1613 29.7742C16.4068 29.7742 15.7056 29.5449 15.1188 29.1562L17.4685 26.8065H20.7961C20.4511 28.4973 18.9524 29.7742 17.1613 29.7742Z" fill="url(#paint4_linear_1084_385)"/>
<path d="M29.0324 31.2581C31.8963 31.2581 34.226 28.9284 34.226 26.0645C34.226 23.2006 31.8963 20.871 29.0324 20.871C26.1685 20.871 23.8389 23.2006 23.8389 26.0645C23.8389 28.9284 26.1685 31.2581 29.0324 31.2581ZM25.3977 26.8065H28.7253L31.075 29.1562C30.4881 29.5449 29.787 29.7742 29.0324 29.7742C27.2414 29.7742 25.7427 28.4973 25.3977 26.8065ZM32.7421 26.0645C32.7421 26.8191 32.5128 27.5202 32.1241 28.1071L29.7744 25.7574V22.4298C31.4652 22.7748 32.7421 24.2735 32.7421 26.0645ZM28.2905 22.4298V25.3226H25.3977C25.6937 23.8714 26.8393 22.7258 28.2905 22.4298Z" fill="url(#paint5_linear_1084_385)"/>
<path d="M35.71 20.871H37.1938V22.3548H35.71V20.871Z" fill="url(#paint6_linear_1084_385)"/>
<path d="M38.6777 20.871H49.0648V22.3548H38.6777V20.871Z" fill="url(#paint7_linear_1084_385)"/>
<path d="M35.71 23.8387H49.0648V25.3226H35.71V23.8387Z" fill="url(#paint8_linear_1084_385)"/>
<path d="M40.1611 26.8065H49.0644V28.2903H40.1611V26.8065Z" fill="url(#paint9_linear_1084_385)"/>
<path d="M35.71 26.8065H38.6777V28.2903H35.71V26.8065Z" fill="url(#paint10_linear_1084_385)"/>
<path d="M35.71 29.7742H46.0971V31.2581H35.71V29.7742Z" fill="url(#paint11_linear_1084_385)"/>
<path d="M35.71 32.7419H49.0648V34.2258H35.71V32.7419Z" fill="url(#paint12_linear_1084_385)"/>
<path d="M35.71 35.7097H49.0648V37.1935H35.71V35.7097Z" fill="url(#paint13_linear_1084_385)"/>
<path d="M47.5811 29.7742H49.0649V31.2581H47.5811V29.7742Z" fill="url(#paint14_linear_1084_385)"/>
<path d="M11.9678 44.6129H16.4194V34.2258H11.9678V44.6129ZM13.4516 35.7097H14.9355V43.129H13.4516V35.7097Z" fill="url(#paint15_linear_1084_385)"/>
<path d="M17.9033 44.6129H22.3549V38.6774H17.9033V44.6129ZM19.3872 40.1613H20.8711V43.129H19.3872V40.1613Z" fill="url(#paint16_linear_1084_385)"/>
</g>
<rect x="0.587156" y="-0.587156" width="62.8257" height="62.8257" rx="8.80734" transform="matrix(1 0 0 -1 0 62.8257)" stroke="url(#paint17_linear_1084_385)" stroke-width="1.17431"/>
<defs>
<linearGradient id="paint0_linear_1084_385" x1="9" y1="26.0305" x2="55.0251" y2="26.2371" gradientUnits="userSpaceOnUse">
<stop stop-color="#214F89"/>
<stop offset="1" stop-color="#12BCAB"/>
</linearGradient>
<linearGradient id="paint1_linear_1084_385" x1="11.9678" y1="13.6159" x2="16.4218" y2="13.6358" gradientUnits="userSpaceOnUse">
<stop stop-color="#214F89"/>
<stop offset="1" stop-color="#12BCAB"/>
</linearGradient>
<linearGradient id="paint2_linear_1084_385" x1="17.9033" y1="13.6159" x2="22.3574" y2="13.6358" gradientUnits="userSpaceOnUse">
<stop stop-color="#214F89"/>
<stop offset="1" stop-color="#12BCAB"/>
</linearGradient>
<linearGradient id="paint3_linear_1084_385" x1="23.8389" y1="13.6159" x2="28.2929" y2="13.6358" gradientUnits="userSpaceOnUse">
<stop stop-color="#214F89"/>
<stop offset="1" stop-color="#12BCAB"/>
</linearGradient>
<linearGradient id="paint4_linear_1084_385" x1="11.9678" y1="24.7166" x2="22.3605" y2="24.7632" gradientUnits="userSpaceOnUse">
<stop stop-color="#214F89"/>
<stop offset="1" stop-color="#12BCAB"/>
</linearGradient>
<linearGradient id="paint5_linear_1084_385" x1="23.8389" y1="24.7166" x2="34.2316" y2="24.7632" gradientUnits="userSpaceOnUse">
<stop stop-color="#214F89"/>
<stop offset="1" stop-color="#12BCAB"/>
</linearGradient>
<linearGradient id="paint6_linear_1084_385" x1="35.71" y1="21.4203" x2="37.1946" y2="21.427" gradientUnits="userSpaceOnUse">
<stop stop-color="#214F89"/>
<stop offset="1" stop-color="#12BCAB"/>
</linearGradient>
<linearGradient id="paint7_linear_1084_385" x1="38.6777" y1="21.4203" x2="49.0605" y2="21.7465" gradientUnits="userSpaceOnUse">
<stop stop-color="#214F89"/>
<stop offset="1" stop-color="#12BCAB"/>
</linearGradient>
<linearGradient id="paint8_linear_1084_385" x1="35.71" y1="24.3881" x2="49.0506" y2="24.9269" gradientUnits="userSpaceOnUse">
<stop stop-color="#214F89"/>
<stop offset="1" stop-color="#12BCAB"/>
</linearGradient>
<linearGradient id="paint9_linear_1084_385" x1="40.1611" y1="27.3558" x2="49.0629" y2="27.5955" gradientUnits="userSpaceOnUse">
<stop stop-color="#214F89"/>
<stop offset="1" stop-color="#12BCAB"/>
</linearGradient>
<linearGradient id="paint10_linear_1084_385" x1="35.71" y1="27.3558" x2="38.6791" y2="27.3825" gradientUnits="userSpaceOnUse">
<stop stop-color="#214F89"/>
<stop offset="1" stop-color="#12BCAB"/>
</linearGradient>
<linearGradient id="paint11_linear_1084_385" x1="35.71" y1="30.3236" x2="46.0927" y2="30.6497" gradientUnits="userSpaceOnUse">
<stop stop-color="#214F89"/>
<stop offset="1" stop-color="#12BCAB"/>
</linearGradient>
<linearGradient id="paint12_linear_1084_385" x1="35.71" y1="33.2913" x2="49.0506" y2="33.8301" gradientUnits="userSpaceOnUse">
<stop stop-color="#214F89"/>
<stop offset="1" stop-color="#12BCAB"/>
</linearGradient>
<linearGradient id="paint13_linear_1084_385" x1="35.71" y1="36.259" x2="49.0506" y2="36.7979" gradientUnits="userSpaceOnUse">
<stop stop-color="#214F89"/>
<stop offset="1" stop-color="#12BCAB"/>
</linearGradient>
<linearGradient id="paint14_linear_1084_385" x1="47.5811" y1="30.3236" x2="49.0657" y2="30.3302" gradientUnits="userSpaceOnUse">
<stop stop-color="#214F89"/>
<stop offset="1" stop-color="#12BCAB"/>
</linearGradient>
<linearGradient id="paint15_linear_1084_385" x1="11.9678" y1="38.0714" x2="16.4219" y2="38.08" gradientUnits="userSpaceOnUse">
<stop stop-color="#214F89"/>
<stop offset="1" stop-color="#12BCAB"/>
</linearGradient>
<linearGradient id="paint16_linear_1084_385" x1="17.9033" y1="40.8749" x2="22.3574" y2="40.8899" gradientUnits="userSpaceOnUse">
<stop stop-color="#214F89"/>
<stop offset="1" stop-color="#12BCAB"/>
</linearGradient>
<linearGradient id="paint17_linear_1084_385" x1="-9.95479e-09" y1="23.6946" x2="64.0349" y2="23.982" gradientUnits="userSpaceOnUse">
<stop stop-color="#214F89"/>
<stop offset="1" stop-color="#12BCAB"/>
</linearGradient>
<clipPath id="clip0_1084_385">
<rect width="46" height="46" fill="white" transform="translate(9 9)"/>
</clipPath>
</defs>
</svg>
