<svg width="64" height="64" viewBox="0 0 64 64" fill="none" xmlns="http://www.w3.org/2000/svg">
<path d="M54.3262 11.1113H51.6587C51.2865 11.1113 50.9849 11.413 50.9849 11.7852V21.9419H49.116V13.7403C49.116 13.3682 48.8143 13.0665 48.4421 13.0665H39.5667C39.1945 13.0665 38.8929 13.3682 38.8929 13.7403V21.9419H37.1116V13.7403C37.1116 13.3682 36.81 13.0665 36.4377 13.0665H27.5623C27.1901 13.0665 26.8885 13.3682 26.8885 13.7403V21.9419H25.1072V13.7403C25.1072 13.3682 24.8056 13.0665 24.4334 13.0665H15.5579C15.1857 13.0665 14.884 13.3682 14.884 13.7403V21.9419H13.0151V11.7852C13.0151 11.413 12.7135 11.1113 12.3413 11.1113H9.67383C9.30161 11.1113 9 11.413 9 11.7852V31.2653C9 31.6375 9.30161 31.9392 9.67383 31.9392C10.0461 31.9392 10.3477 31.6375 10.3477 31.2653V12.459H11.6675V51.541H10.3477V34.4029C10.3477 34.0307 10.0461 33.729 9.67383 33.729C9.30161 33.729 9 34.0307 9 34.4029V52.2148C9 52.587 9.30161 52.8887 9.67383 52.8887H12.3413C12.7135 52.8887 13.0151 52.587 13.0151 52.2148V50.9334H50.9849V52.2148C50.9849 52.587 51.2865 52.8887 51.6587 52.8887H54.3262C54.6984 52.8887 55 52.587 55 52.2148V11.7852C55 11.413 54.6984 11.1113 54.3262 11.1113ZM44.7832 14.4142V17.0384C44.5292 16.965 44.2668 16.9283 44.0044 16.9283C43.742 16.9283 43.4795 16.965 43.2255 17.0384V14.4142H44.7832ZM40.2406 14.4142H41.878V18.1781C41.878 18.4471 42.0379 18.6902 42.2848 18.7967C42.532 18.9035 42.8185 18.8527 43.014 18.6683C43.5694 18.1446 44.4394 18.1446 44.9948 18.6683C45.1224 18.7886 45.2886 18.8519 45.4572 18.8519C45.5473 18.8519 45.6381 18.8338 45.7241 18.7967C45.971 18.6902 46.1309 18.447 46.1309 18.1781V14.4142H47.7683V21.9419H40.2406V14.4142ZM32.7789 14.4142V17.0384C32.5249 16.965 32.2624 16.9283 32 16.9283C31.7376 16.9283 31.4751 16.965 31.2211 17.0384V14.4142H32.7789ZM28.2361 14.4142H29.8735V18.1781C29.8735 18.4471 30.0334 18.6902 30.2803 18.7967C30.5276 18.9035 30.8141 18.8527 31.0096 18.6683C31.565 18.1446 32.4349 18.1446 32.9903 18.6683C33.1179 18.7886 33.2841 18.8519 33.4528 18.8519C33.5428 18.8519 33.6336 18.8338 33.7196 18.7967C33.9665 18.6902 34.1264 18.447 34.1264 18.1781V14.4142H35.7638V21.9419H28.2361V14.4142ZM20.7745 14.4142V17.0384C20.5205 16.965 20.2581 16.9283 19.9956 16.9283C19.7332 16.9283 19.4708 16.965 19.2168 17.0384V14.4142H20.7745ZM16.2317 14.4142H17.8691V18.1781C17.8691 18.4471 18.029 18.6902 18.2759 18.7967C18.5232 18.9035 18.8097 18.8527 19.0052 18.6683C19.5606 18.1446 20.4306 18.1446 20.986 18.6683C21.1135 18.7886 21.2798 18.8519 21.4484 18.8519C21.5384 18.8519 21.6292 18.8338 21.7152 18.7967C21.9621 18.6902 22.122 18.447 22.122 18.1781V14.4142H23.7594V21.9419H16.2317V14.4142ZM13.0151 49.5857V48.2843H50.9849V49.5857H13.0151ZM25.1071 30.5335H26.6649V33.1578C26.4109 33.0843 26.1484 33.0476 25.886 33.0476C25.6235 33.0476 25.3611 33.0843 25.1071 33.1577V30.5335ZM24.1663 34.9161C24.4136 35.0228 24.7001 34.9721 24.8956 34.7876C25.451 34.2639 26.3211 34.2638 26.8765 34.7876C27.0041 34.9079 27.1703 34.9711 27.3389 34.9711C27.4289 34.9711 27.5198 34.9531 27.6057 34.916C27.8526 34.8094 28.0126 34.5662 28.0126 34.2973V30.5334H29.6499V38.0611H22.1221V30.5334H23.7595V34.2973C23.7594 34.5663 23.9195 34.8095 24.1663 34.9161ZM37.1116 30.5335H38.6694V33.1578C38.4154 33.0843 38.1529 33.0476 37.8904 33.0476C37.628 33.0476 37.3656 33.0843 37.1116 33.1577V30.5335ZM36.1707 34.9161C36.418 35.0228 36.7045 34.9721 36.9 34.7876C37.4554 34.2639 38.3254 34.2638 38.8809 34.7876C39.0084 34.9079 39.1747 34.9711 39.3433 34.9711C39.4333 34.9711 39.5241 34.9531 39.6101 34.916C39.857 34.8094 40.0169 34.5662 40.0169 34.2973V30.5334H41.6542V38.0611H34.1265V30.5334H35.7639V34.2973C35.7639 34.5663 35.9238 34.8095 36.1707 34.9161ZM47.7683 39.4089V46.9366H40.2406V39.4089H41.878V43.1728C41.878 43.4418 42.0379 43.6849 42.2848 43.7915C42.532 43.8982 42.8185 43.8475 43.014 43.663C43.5694 43.1393 44.4394 43.1393 44.9948 43.663C45.1224 43.7833 45.2886 43.8466 45.4572 43.8466C45.5473 43.8466 45.6381 43.8286 45.7241 43.7915C45.971 43.6849 46.1309 43.4417 46.1309 43.1728V39.4089H47.7683ZM37.1116 46.9366V39.4089H38.8929V46.9366H37.1116ZM25.1071 46.9366V39.4089H26.8884V46.9366H25.1071ZM28.2361 39.4089H29.8735V43.1728C29.8735 43.4418 30.0334 43.6849 30.2803 43.7915C30.5276 43.8982 30.8141 43.8475 31.0096 43.663C31.565 43.1393 32.4349 43.1393 32.9903 43.663C33.1179 43.7833 33.2841 43.8466 33.4528 43.8466C33.5428 43.8466 33.6336 43.8286 33.7196 43.7915C33.9665 43.6849 34.1264 43.4417 34.1264 43.1728V39.4089H35.7638V46.9366H28.2361V39.4089ZM44.7832 42.0332C44.5292 41.9598 44.2668 41.9231 44.0044 41.9231C43.742 41.9231 43.4795 41.9598 43.2255 42.0332V39.409H44.7832V42.0332ZM32.7789 42.0332C32.5249 41.9598 32.2624 41.9231 32 41.9231C31.7376 41.9231 31.4751 41.9598 31.2211 42.0332V39.409H32.7789V42.0332ZM19.2168 39.4089H20.7745V42.0331C20.5205 41.9597 20.2581 41.923 19.9956 41.923C19.7332 41.923 19.4708 41.9597 19.2168 42.0331V39.4089ZM18.2759 43.7915C18.5232 43.8982 18.8097 43.8475 19.0052 43.663C19.5606 43.1393 20.4306 43.1393 20.986 43.663C21.1135 43.7833 21.2798 43.8466 21.4484 43.8466C21.5384 43.8466 21.6292 43.8286 21.7152 43.7915C21.9621 43.6849 22.122 43.4417 22.122 43.1728V39.4089H23.7594V46.9366H16.2317V39.4089H17.8691V43.1728C17.8691 43.4418 18.029 43.6849 18.2759 43.7915ZM53.6523 51.541H52.3325V44.4972C52.3325 44.125 52.0309 43.8233 51.6587 43.8233C51.2865 43.8233 50.9849 44.125 50.9849 44.4972V46.9366H49.116V38.735C49.116 38.3629 48.8143 38.0612 48.4421 38.0612H43.0019V29.8597C43.0019 29.4875 42.7003 29.1858 42.3281 29.1858H33.4527C33.0805 29.1858 32.7789 29.4875 32.7789 29.8597V38.0612H30.9975V29.8597C30.9975 29.4875 30.6959 29.1858 30.3237 29.1858H21.4483C21.0761 29.1858 20.7745 29.4875 20.7745 29.8597V38.0612H15.5579C15.1857 38.0612 14.884 38.3629 14.884 38.735V46.9366H13.0151V25.9387H15.9681C16.3403 25.9387 16.6419 25.637 16.6419 25.2649C16.6419 24.8927 16.3403 24.591 15.9681 24.591H13.0151V23.2896H50.9849V24.591H19.0965C18.7242 24.591 18.4226 24.8927 18.4226 25.2649C18.4226 25.637 18.7242 25.9387 19.0965 25.9387H50.9849V41.3979C50.9849 41.7701 51.2865 42.0718 51.6587 42.0718C52.0309 42.0718 52.3325 41.7701 52.3325 41.3979V12.459H53.6523V51.541Z" fill="url(#paint0_linear_1088_1096)"/>
<rect x="0.587156" y="-0.587156" width="62.8257" height="62.8257" rx="8.80734" transform="matrix(1 0 0 -1 0 62.8257)" stroke="url(#paint1_linear_1088_1096)" stroke-width="1.17431"/>
<defs>
<linearGradient id="paint0_linear_1088_1096" x1="9" y1="26.5785" x2="55.0249" y2="26.8059" gradientUnits="userSpaceOnUse">
<stop stop-color="#214F89"/>
<stop offset="1" stop-color="#12BCAB"/>
</linearGradient>
<linearGradient id="paint1_linear_1088_1096" x1="-9.95479e-09" y1="23.6946" x2="64.0349" y2="23.982" gradientUnits="userSpaceOnUse">
<stop stop-color="#214F89"/>
<stop offset="1" stop-color="#12BCAB"/>
</linearGradient>
</defs>
</svg>
