<svg width="36" height="36" viewBox="0 0 36 36" fill="none" xmlns="http://www.w3.org/2000/svg">
<rect width="36" height="36" rx="8" fill="white"/>
<path d="M32.4 17.9148C32.4 17.8477 32.4 17.7716 32.3968 17.6832C32.3935 17.4364 32.3871 17.1591 32.3807 16.8635C32.355 16.0134 32.31 15.1663 32.2393 14.368C32.1428 13.268 32.0014 12.3508 31.8085 11.6621C31.605 10.9435 31.2061 10.2881 30.6516 9.76136C30.0972 9.23467 29.4066 8.85515 28.6489 8.66076C27.7393 8.42918 25.9585 8.28597 23.4514 8.1976C22.2589 8.15495 20.9828 8.12752 19.7068 8.11229C19.26 8.10619 18.8453 8.10314 18.4725 8.1001H17.5275C17.1546 8.10314 16.74 8.10619 16.2932 8.11229C15.0171 8.12752 13.741 8.15495 12.5485 8.1976C10.0414 8.28902 8.25748 8.43223 7.35105 8.66076C6.59312 8.85468 5.90227 9.23403 5.34772 9.7608C4.79318 10.2876 4.39442 10.9433 4.1914 11.6621C3.99533 12.3508 3.85712 13.268 3.76069 14.368C3.68998 15.1663 3.64498 16.0134 3.61926 16.8635C3.60962 17.1591 3.6064 17.4364 3.60319 17.6832C3.60319 17.7716 3.59998 17.8477 3.59998 17.9148V18.0854C3.59998 18.1525 3.59998 18.2286 3.60319 18.317C3.6064 18.5638 3.61283 18.8411 3.61926 19.1367C3.64498 19.9868 3.68998 20.8339 3.76069 21.6322C3.85712 22.7322 3.99855 23.6494 4.1914 24.338C4.60283 25.7976 5.8114 26.9494 7.35105 27.3394C8.25748 27.571 10.0414 27.7142 12.5485 27.8026C13.741 27.8452 15.0171 27.8727 16.2932 27.8879C16.74 27.894 17.1546 27.8971 17.5275 27.9001H18.4725C18.8453 27.8971 19.26 27.894 19.7068 27.8879C20.9828 27.8727 22.2589 27.8452 23.4514 27.8026C25.9585 27.7112 27.7425 27.568 28.6489 27.3394C30.1885 26.9494 31.3971 25.8007 31.8085 24.338C32.0046 23.6494 32.1428 22.7322 32.2393 21.6322C32.31 20.8339 32.355 19.9868 32.3807 19.1367C32.3903 18.8411 32.3935 18.5638 32.3968 18.317C32.3968 18.2286 32.4 18.1525 32.4 18.0854V17.9148ZM30.0857 18.0732C30.0857 18.1372 30.0857 18.2073 30.0825 18.2896C30.0793 18.5272 30.0728 18.7893 30.0664 19.0727C30.0439 19.8832 29.9989 20.6937 29.9314 21.4464C29.8446 22.4275 29.7225 23.232 29.5714 23.7713C29.3721 24.4752 28.7871 25.0328 28.0478 25.2187C27.3728 25.3893 25.6725 25.5264 23.3614 25.6087C22.1914 25.6513 20.9314 25.6788 19.6746 25.694C19.2343 25.7001 18.826 25.7031 18.4596 25.7031H17.5403L16.3253 25.694C15.0685 25.6788 13.8118 25.6513 12.6385 25.6087C10.3275 25.5234 8.6239 25.3893 7.95212 25.2187C7.21283 25.0297 6.62783 24.4752 6.42855 23.7713C6.27748 23.232 6.15533 22.4275 6.06855 21.4464C6.00105 20.6937 5.95926 19.8832 5.93355 19.0727C5.9239 18.7893 5.92069 18.5242 5.91748 18.2896C5.91748 18.2073 5.91426 18.1342 5.91426 18.0732V17.927C5.91426 17.863 5.91426 17.7929 5.91748 17.7106C5.92069 17.4729 5.92712 17.2109 5.93355 16.9275C5.95605 16.117 6.00105 15.3065 6.06855 14.5538C6.15533 13.5727 6.27748 12.7682 6.42855 12.2289C6.62783 11.525 7.21283 10.9674 7.95212 10.7815C8.62712 10.6109 10.3275 10.4738 12.6385 10.3915C13.8085 10.3489 15.0685 10.3214 16.3253 10.3062C16.7657 10.3001 17.1739 10.2971 17.5403 10.2971H18.4596L19.6746 10.3062C20.9314 10.3214 22.1882 10.3489 23.3614 10.3915C25.6725 10.4768 27.376 10.6109 28.0478 10.7815C28.7871 10.9705 29.3721 11.525 29.5714 12.2289C29.7225 12.7682 29.8446 13.5727 29.9314 14.5538C29.9989 15.3065 30.0407 16.117 30.0664 16.9275C30.076 17.2109 30.0793 17.476 30.0825 17.7106C30.0825 17.7929 30.0857 17.866 30.0857 17.927V18.0732ZM15.1393 22.0832L22.5964 17.9696L15.1393 13.917V22.0832Z" fill="url(#paint0_linear_271_170)"/>
<defs>
<linearGradient id="paint0_linear_271_170" x1="3.59998" y1="15.4306" x2="32.415" y2="15.6187" gradientUnits="userSpaceOnUse">
<stop stop-color="#214F89"/>
<stop offset="1" stop-color="#12BCAB"/>
</linearGradient>
</defs>
</svg>
